<svg xmlns="http://www.w3.org/2000/svg" xmlns:xlink="http://www.w3.org/1999/xlink" width="1243.667" height="513" viewBox="0 0 1243.667 513">
  <defs>
    <linearGradient id="linear-gradient" x1="1.043" y1="-0.125" x2="0.336" y2="1.321" gradientUnits="objectBoundingBox">
      <stop offset="0" stop-color="#64f6f0"/>
      <stop offset="0.645" stop-color="#4b31a8"/>
      <stop offset="1" stop-color="#461698"/>
    </linearGradient>
    <clipPath id="clip-path">
      <path id="Rectangle_652" data-name="Rectangle 652" d="M1224.081,0H19.585C8.769,0,0,8.507,0,19V494c0,10.493,8.769,19,19.585,19h1204.5c10.817,0,19.585-8.507,19.585-19V19C1243.667,8.507,1234.9,0,1224.081,0Z" transform="translate(392.39 300)" fill="url(#linear-gradient)"/>
    </clipPath>
    <linearGradient id="linear-gradient-2" x1="1.309" y1="-0.42" x2="0.095" y2="0.88" gradientUnits="objectBoundingBox">
      <stop offset="0.092" stop-color="#1ebdde"/>
      <stop offset="0.791" stop-color="#41dbde"/>
    </linearGradient>
    <clipPath id="clip-path-2">
      <path id="Path_100541" data-name="Path 100541" d="M1146.723,222.776,1319.46,130.87a8.8,8.8,0,0,1,12.485,10.525L1290.97,265.419a8.8,8.8,0,0,1-10.435,5.787l-131.763-32.119A8.8,8.8,0,0,1,1146.723,222.776Z" transform="translate(-1142.057 -129.81)" fill="#f6f6eb"/>
    </clipPath>
    <clipPath id="clip-path-3">
      <path id="Path_100541-2" data-name="Path 100541" d="M1351.147,184.627,1156.64,288.116a9.9,9.9,0,0,1-14.059-11.851l46.139-139.656a9.9,9.9,0,0,1,11.75-6.517l148.37,36.166A9.906,9.906,0,0,1,1351.147,184.627Z" transform="translate(-1142.056 -129.81)" fill="#f6f6eb"/>
    </clipPath>
    <clipPath id="clip-path-4">
      <path id="Path_100541-3" data-name="Path 100541" d="M1145.38,164.478l123.013,65.45a6.264,6.264,0,0,0,8.891-7.5L1248.1,134.11a6.264,6.264,0,0,0-7.431-4.121l-93.834,22.873A6.265,6.265,0,0,0,1145.38,164.478Z" transform="translate(-1142.057 -129.81)" fill="#f6f6eb"/>
    </clipPath>
    <linearGradient id="linear-gradient-4" x1="2.575" y1="-3.607" x2="-0.087" y2="1.428" xlink:href="#linear-gradient-2"/>
  </defs>
  <g id="bg-slider" transform="translate(-10836.333 6175.5)">
    <path id="Path_179175" data-name="Path 179175" d="M18,0H1225a18,18,0,0,1,18,18V495a18,18,0,0,1-18,18H18A18,18,0,0,1,0,495V18A18,18,0,0,1,18,0Z" transform="translate(10837 -6175.5)" fill="#ebfeff"/>
    <g id="Mask_Group_45" data-name="Mask Group 45" transform="translate(10443.943 -6475.5)" clip-path="url(#clip-path)">
      <path id="Path_179171" data-name="Path 179171" d="M1017.463-42.5H512.071c-.227.245-.455.491-.694.73L406.422,63.187a28.635,28.635,0,0,0,0,40.5h0a28.635,28.635,0,0,0,40.5,0L551.341-.74a26.374,26.374,0,0,1,37.3,0h0a26.373,26.373,0,0,1,0,37.3L452.186,173.014a28.635,28.635,0,0,0,0,40.5h0a28.635,28.635,0,0,0,40.5,0l78.147-78.147a26.374,26.374,0,0,1,37.3,0h0a26.375,26.375,0,0,1,0,37.3l-41.744,41.744a28.635,28.635,0,0,0,0,40.5h0a28.635,28.635,0,0,0,40.5,0L724.557,137.227a26.374,26.374,0,0,1,37.3,0h0a26.375,26.375,0,0,1,0,37.3L612.9,323.481a28.634,28.634,0,0,0,0,40.5h0a28.635,28.635,0,0,0,40.5,0L717.172,300.2a27.128,27.128,0,0,1,38.365,0h0a27.128,27.128,0,0,1,0,38.365l-106.4,106.4a28.635,28.635,0,0,0,0,40.5h0a28.635,28.635,0,0,0,40.5,0L841.951,333.146l177.062-2.746Z" transform="translate(814.377 259.605)" opacity="0.16" fill="url(#linear-gradient-2)" style="mix-blend-mode: multiply;isolation: isolate"/>
      <path id="Path_179172" data-name="Path 179172" d="M1017.463-42.5H512.071c-.227.245-.455.491-.694.73L406.422,63.187a28.635,28.635,0,0,0,0,40.5h0a28.635,28.635,0,0,0,40.5,0L551.341-.74a26.374,26.374,0,0,1,37.3,0h0a26.373,26.373,0,0,1,0,37.3L452.186,173.014a28.635,28.635,0,0,0,0,40.5h0a28.635,28.635,0,0,0,40.5,0l78.147-78.147a26.374,26.374,0,0,1,37.3,0h0a26.375,26.375,0,0,1,0,37.3l-41.744,41.744a28.635,28.635,0,0,0,0,40.5h0a28.635,28.635,0,0,0,40.5,0L724.557,137.227a26.374,26.374,0,0,1,37.3,0h0a26.375,26.375,0,0,1,0,37.3L612.9,323.481a28.634,28.634,0,0,0,0,40.5h0a28.635,28.635,0,0,0,40.5,0L717.172,300.2a27.128,27.128,0,0,1,38.365,0h0a27.128,27.128,0,0,1,0,38.365l-106.4,106.4a28.635,28.635,0,0,0,0,40.5h0a28.635,28.635,0,0,0,40.5,0L841.951,333.146l177.062-2.746Z" transform="translate(1258.424 880.955) rotate(180)" opacity="0.07" fill="url(#linear-gradient-2)" style="mix-blend-mode: multiply;isolation: isolate"/>
      <g id="Group_117527" data-name="Group 117527" transform="translate(1197.351 251)">
        <path id="Path_179170" data-name="Path 179170" d="M1154.648,234.751l168.4-89.6a9.758,9.758,0,0,1,13.848,11.676l-39.945,120.906a9.755,9.755,0,0,1-11.575,6.419l-128.451-31.31A9.758,9.758,0,0,1,1154.648,234.751Z" transform="translate(-1135.056 -116.436)" fill="#f9b131"/>
        <g id="Group_117517" data-name="Group 117517" transform="translate(0 0)">
          <g id="Group_53774" data-name="Group 53774" transform="translate(0 0)" clip-path="url(#clip-path-2)">
            <path id="Línea_212" data-name="Línea 212" d="M.805,240.15A1.352,1.352,0,0,1-.547,238.8V.805a1.352,1.352,0,0,1,2.7,0V238.8A1.352,1.352,0,0,1,.805,240.15Z" transform="translate(-5.557 -32.873)" fill="#fff"/>
            <path id="Línea_213" data-name="Línea 213" d="M.805,240.15A1.352,1.352,0,0,1-.547,238.8V.805a1.352,1.352,0,0,1,2.7,0V238.8A1.352,1.352,0,0,1,.805,240.15Z" transform="translate(7.174 -32.873)" fill="#f6f6eb"/>
            <path id="Línea_214" data-name="Línea 214" d="M.805,240.15A1.352,1.352,0,0,1-.547,238.8V.805a1.352,1.352,0,0,1,2.7,0V238.8A1.352,1.352,0,0,1,.805,240.15Z" transform="translate(19.905 -32.873)" fill="#f6f6eb"/>
            <path id="Línea_215" data-name="Línea 215" d="M.805,240.15A1.352,1.352,0,0,1-.547,238.8V.805a1.352,1.352,0,0,1,2.7,0V238.8A1.352,1.352,0,0,1,.805,240.15Z" transform="translate(32.636 -32.873)" fill="#f6f6eb"/>
            <path id="Línea_216" data-name="Línea 216" d="M.805,240.15A1.352,1.352,0,0,1-.547,238.8V.805a1.352,1.352,0,0,1,2.7,0V238.8A1.352,1.352,0,0,1,.805,240.15Z" transform="translate(45.367 -32.873)" fill="#f6f6eb"/>
            <path id="Línea_217" data-name="Línea 217" d="M.805,240.15A1.352,1.352,0,0,1-.547,238.8V.805a1.352,1.352,0,0,1,2.7,0V238.8A1.352,1.352,0,0,1,.805,240.15Z" transform="translate(58.098 -32.873)" fill="#f6f6eb"/>
            <path id="Línea_218" data-name="Línea 218" d="M.805,240.15A1.352,1.352,0,0,1-.547,238.8V.805a1.352,1.352,0,0,1,2.7,0V238.8A1.352,1.352,0,0,1,.805,240.15Z" transform="translate(70.829 -32.873)" fill="#f6f6eb"/>
            <path id="Línea_219" data-name="Línea 219" d="M.805,240.15A1.352,1.352,0,0,1-.547,238.8V.805a1.352,1.352,0,0,1,2.7,0V238.8A1.352,1.352,0,0,1,.805,240.15Z" transform="translate(83.559 -32.873)" fill="#f6f6eb"/>
            <path id="Línea_220" data-name="Línea 220" d="M.805,240.15A1.352,1.352,0,0,1-.547,238.8V.805a1.352,1.352,0,0,1,2.7,0V238.8A1.352,1.352,0,0,1,.805,240.15Z" transform="translate(96.29 -32.873)" fill="#f6f6eb"/>
            <path id="Línea_221" data-name="Línea 221" d="M.805,240.15A1.352,1.352,0,0,1-.547,238.8V.805a1.352,1.352,0,0,1,2.7,0V238.8A1.352,1.352,0,0,1,.805,240.15Z" transform="translate(109.021 -32.873)" fill="#f6f6eb"/>
            <path id="Línea_222" data-name="Línea 222" d="M.805,240.15A1.352,1.352,0,0,1-.547,238.8V.805a1.352,1.352,0,0,1,2.7,0V238.8A1.352,1.352,0,0,1,.805,240.15Z" transform="translate(121.752 -32.873)" fill="#f6f6eb"/>
            <path id="Línea_223" data-name="Línea 223" d="M.805,240.15A1.352,1.352,0,0,1-.547,238.8V.805a1.352,1.352,0,0,1,2.7,0V238.8A1.352,1.352,0,0,1,.805,240.15Z" transform="translate(134.483 -32.873)" fill="#f6f6eb"/>
            <path id="Línea_224" data-name="Línea 224" d="M.805,240.15A1.352,1.352,0,0,1-.547,238.8V.805a1.352,1.352,0,0,1,2.7,0V238.8A1.352,1.352,0,0,1,.805,240.15Z" transform="translate(147.214 -32.873)" fill="#f6f6eb"/>
            <path id="Línea_225" data-name="Línea 225" d="M.805,240.15A1.352,1.352,0,0,1-.547,238.8V.805a1.352,1.352,0,0,1,2.7,0V238.8A1.352,1.352,0,0,1,.805,240.15Z" transform="translate(159.945 -32.873)" fill="#f6f6eb"/>
            <path id="Línea_226" data-name="Línea 226" d="M.805,240.15A1.352,1.352,0,0,1-.547,238.8V.805a1.352,1.352,0,0,1,2.7,0V238.8A1.352,1.352,0,0,1,.805,240.15Z" transform="translate(172.676 -32.873)" fill="#f6f6eb"/>
            <path id="Línea_227" data-name="Línea 227" d="M.805,240.15A1.352,1.352,0,0,1-.547,238.8V.805a1.352,1.352,0,0,1,2.7,0V238.8A1.352,1.352,0,0,1,.805,240.15Z" transform="translate(185.407 -32.873)" fill="#f6f6eb"/>
            <path id="Línea_228" data-name="Línea 228" d="M.805,240.15A1.352,1.352,0,0,1-.547,238.8V.805a1.352,1.352,0,0,1,2.7,0V238.8A1.352,1.352,0,0,1,.805,240.15Z" transform="translate(198.138 -32.873)" fill="#fff"/>
          </g>
        </g>
      </g>
      <g id="Group_117528" data-name="Group 117528" transform="translate(1447.702 603.694)">
        <path id="Path_179170-2" data-name="Path 179170" d="M1355.264,199.925,1165.646,300.814a10.987,10.987,0,0,1-15.592-13.147l44.979-136.145a10.985,10.985,0,0,1,13.034-7.228l144.639,35.256A10.988,10.988,0,0,1,1355.264,199.925Z" transform="translate(-1149.472 -143.979)" fill="#42e0e6"/>
        <g id="Group_117517-2" data-name="Group 117517" transform="translate(13.509 29.673)">
          <g id="Group_53774-2" data-name="Group 53774" clip-path="url(#clip-path-3)">
            <path id="Línea_212-2" data-name="Línea 212" d="M.976,270.485a1.523,1.523,0,0,1-1.523-1.523V.976A1.523,1.523,0,0,1,2.5.976V268.962A1.523,1.523,0,0,1,.976,270.485Z" transform="translate(218.719 -73.353)" fill="#fff"/>
            <path id="Línea_213-2" data-name="Línea 213" d="M.976,270.485a1.523,1.523,0,0,1-1.523-1.523V.976A1.523,1.523,0,0,1,2.5.976V268.962A1.523,1.523,0,0,1,.976,270.485Z" transform="translate(204.384 -73.353)" fill="#f6f6eb"/>
            <path id="Línea_214-2" data-name="Línea 214" d="M.976,270.485a1.523,1.523,0,0,1-1.523-1.523V.976A1.523,1.523,0,0,1,2.5.976V268.962A1.523,1.523,0,0,1,.976,270.485Z" transform="translate(190.049 -73.353)" fill="#f6f6eb"/>
            <path id="Línea_215-2" data-name="Línea 215" d="M.976,270.485a1.523,1.523,0,0,1-1.523-1.523V.976A1.523,1.523,0,0,1,2.5.976V268.962A1.523,1.523,0,0,1,.976,270.485Z" transform="translate(175.713 -73.353)" fill="#f6f6eb"/>
            <path id="Línea_216-2" data-name="Línea 216" d="M.976,270.485a1.523,1.523,0,0,1-1.523-1.523V.976A1.523,1.523,0,0,1,2.5.976V268.962A1.523,1.523,0,0,1,.976,270.485Z" transform="translate(161.378 -73.353)" fill="#f6f6eb"/>
            <path id="Línea_217-2" data-name="Línea 217" d="M.976,270.485a1.523,1.523,0,0,1-1.523-1.523V.976A1.523,1.523,0,0,1,2.5.976V268.962A1.523,1.523,0,0,1,.976,270.485Z" transform="translate(147.042 -73.353)" fill="#f6f6eb"/>
            <path id="Línea_218-2" data-name="Línea 218" d="M.976,270.485a1.523,1.523,0,0,1-1.523-1.523V.976A1.523,1.523,0,0,1,2.5.976V268.962A1.523,1.523,0,0,1,.976,270.485Z" transform="translate(132.707 -73.353)" fill="#f6f6eb"/>
            <path id="Línea_219-2" data-name="Línea 219" d="M.976,270.485a1.523,1.523,0,0,1-1.523-1.523V.976A1.523,1.523,0,0,1,2.5.976V268.962A1.523,1.523,0,0,1,.976,270.485Z" transform="translate(118.372 -73.353)" fill="#f6f6eb"/>
            <path id="Línea_220-2" data-name="Línea 220" d="M.976,270.485a1.523,1.523,0,0,1-1.523-1.523V.976A1.523,1.523,0,0,1,2.5.976V268.962A1.523,1.523,0,0,1,.976,270.485Z" transform="translate(104.036 -73.353)" fill="#f6f6eb"/>
            <path id="Línea_221-2" data-name="Línea 221" d="M.976,270.485a1.523,1.523,0,0,1-1.523-1.523V.976A1.523,1.523,0,0,1,2.5.976V268.962A1.523,1.523,0,0,1,.976,270.485Z" transform="translate(89.701 -73.353)" fill="#f6f6eb"/>
            <path id="Línea_222-2" data-name="Línea 222" d="M.976,270.485a1.523,1.523,0,0,1-1.523-1.523V.976A1.523,1.523,0,0,1,2.5.976V268.962A1.523,1.523,0,0,1,.976,270.485Z" transform="translate(75.366 -73.353)" fill="#f6f6eb"/>
            <path id="Línea_223-2" data-name="Línea 223" d="M.976,270.485a1.523,1.523,0,0,1-1.523-1.523V.976A1.523,1.523,0,0,1,2.5.976V268.962A1.523,1.523,0,0,1,.976,270.485Z" transform="translate(61.03 -73.353)" fill="#f6f6eb"/>
            <path id="Línea_224-2" data-name="Línea 224" d="M.976,270.485a1.523,1.523,0,0,1-1.523-1.523V.976A1.523,1.523,0,0,1,2.5.976V268.962A1.523,1.523,0,0,1,.976,270.485Z" transform="translate(46.695 -73.353)" fill="#f6f6eb"/>
            <path id="Línea_225-2" data-name="Línea 225" d="M.976,270.485a1.523,1.523,0,0,1-1.523-1.523V.976A1.523,1.523,0,0,1,2.5.976V268.962A1.523,1.523,0,0,1,.976,270.485Z" transform="translate(32.359 -73.353)" fill="#f6f6eb"/>
            <path id="Línea_226-2" data-name="Línea 226" d="M.976,270.485a1.523,1.523,0,0,1-1.523-1.523V.976A1.523,1.523,0,0,1,2.5.976V268.962A1.523,1.523,0,0,1,.976,270.485Z" transform="translate(18.024 -73.353)" fill="#f6f6eb"/>
            <path id="Línea_227-2" data-name="Línea 227" d="M.976,270.485a1.523,1.523,0,0,1-1.523-1.523V.976A1.523,1.523,0,0,1,2.5.976V268.962A1.523,1.523,0,0,1,.976,270.485Z" transform="translate(3.689 -73.353)" fill="#f6f6eb"/>
            <path id="Línea_228-2" data-name="Línea 228" d="M.976,270.485a1.523,1.523,0,0,1-1.523-1.523V.976A1.523,1.523,0,0,1,2.5.976V268.962A1.523,1.523,0,0,1,.976,270.485Z" transform="translate(-10.647 -73.353)" fill="#fff"/>
          </g>
        </g>
      </g>
      <g id="Group_117529" data-name="Group 117529" transform="translate(1053.249 661.259)">
        <path id="Path_179170-3" data-name="Path 179170" d="M1153.158,179.362l119.922,63.806a6.949,6.949,0,0,0,9.861-8.315l-28.446-86.1a6.948,6.948,0,0,0-8.243-4.571l-91.475,22.3A6.949,6.949,0,0,0,1153.158,179.362Z" transform="translate(-1139.206 -143.979)" fill="#f9b131"/>
        <g id="Group_117517-3" data-name="Group 117517" transform="translate(0 18.766)">
          <g id="Group_53774-3" data-name="Group 53774" clip-path="url(#clip-path-4)">
            <path id="Línea_212-3" data-name="Línea 212" d="M.416,170.863a.963.963,0,0,0,.963-.963V.416a.963.963,0,0,0-1.926,0V169.9A.963.963,0,0,0,.416,170.863Z" transform="translate(-3.8 -46.19)" fill="#fff"/>
            <path id="Línea_213-3" data-name="Línea 213" d="M.416,170.863a.963.963,0,0,0,.963-.963V.416a.963.963,0,0,0-1.926,0V169.9A.963.963,0,0,0,.416,170.863Z" transform="translate(5.266 -46.19)" fill="#f6f6eb"/>
            <path id="Línea_214-3" data-name="Línea 214" d="M.416,170.863a.963.963,0,0,0,.963-.963V.416a.963.963,0,0,0-1.926,0V169.9A.963.963,0,0,0,.416,170.863Z" transform="translate(14.332 -46.19)" fill="#f6f6eb"/>
            <path id="Línea_215-3" data-name="Línea 215" d="M.416,170.863a.963.963,0,0,0,.963-.963V.416a.963.963,0,0,0-1.926,0V169.9A.963.963,0,0,0,.416,170.863Z" transform="translate(23.399 -46.19)" fill="#f6f6eb"/>
            <path id="Línea_216-3" data-name="Línea 216" d="M.416,170.863a.963.963,0,0,0,.963-.963V.416a.963.963,0,0,0-1.926,0V169.9A.963.963,0,0,0,.416,170.863Z" transform="translate(32.465 -46.19)" fill="#f6f6eb"/>
            <path id="Línea_217-3" data-name="Línea 217" d="M.416,170.863a.963.963,0,0,0,.963-.963V.416a.963.963,0,0,0-1.926,0V169.9A.963.963,0,0,0,.416,170.863Z" transform="translate(41.531 -46.19)" fill="#f6f6eb"/>
            <path id="Línea_218-3" data-name="Línea 218" d="M.416,170.863a.963.963,0,0,0,.963-.963V.416a.963.963,0,0,0-1.926,0V169.9A.963.963,0,0,0,.416,170.863Z" transform="translate(50.597 -46.19)" fill="#f6f6eb"/>
            <path id="Línea_219-3" data-name="Línea 219" d="M.416,170.863a.963.963,0,0,0,.963-.963V.416a.963.963,0,0,0-1.926,0V169.9A.963.963,0,0,0,.416,170.863Z" transform="translate(59.663 -46.19)" fill="#f6f6eb"/>
            <path id="Línea_220-3" data-name="Línea 220" d="M.416,170.863a.963.963,0,0,0,.963-.963V.416a.963.963,0,0,0-1.926,0V169.9A.963.963,0,0,0,.416,170.863Z" transform="translate(68.73 -46.19)" fill="#f6f6eb"/>
            <path id="Línea_221-3" data-name="Línea 221" d="M.416,170.863a.963.963,0,0,0,.963-.963V.416a.963.963,0,0,0-1.926,0V169.9A.963.963,0,0,0,.416,170.863Z" transform="translate(77.796 -46.19)" fill="#f6f6eb"/>
            <path id="Línea_222-3" data-name="Línea 222" d="M.416,170.863a.963.963,0,0,0,.963-.963V.416a.963.963,0,0,0-1.926,0V169.9A.963.963,0,0,0,.416,170.863Z" transform="translate(86.862 -46.19)" fill="#f6f6eb"/>
            <path id="Línea_223-3" data-name="Línea 223" d="M.416,170.863a.963.963,0,0,0,.963-.963V.416a.963.963,0,0,0-1.926,0V169.9A.963.963,0,0,0,.416,170.863Z" transform="translate(95.928 -46.19)" fill="#f6f6eb"/>
            <path id="Línea_224-3" data-name="Línea 224" d="M.416,170.863a.963.963,0,0,0,.963-.963V.416a.963.963,0,0,0-1.926,0V169.9A.963.963,0,0,0,.416,170.863Z" transform="translate(104.995 -46.19)" fill="#f6f6eb"/>
            <path id="Línea_225-3" data-name="Línea 225" d="M.416,170.863a.963.963,0,0,0,.963-.963V.416a.963.963,0,0,0-1.926,0V169.9A.963.963,0,0,0,.416,170.863Z" transform="translate(114.061 -46.19)" fill="#f6f6eb"/>
            <path id="Línea_226-3" data-name="Línea 226" d="M.416,170.863a.963.963,0,0,0,.963-.963V.416a.963.963,0,0,0-1.926,0V169.9A.963.963,0,0,0,.416,170.863Z" transform="translate(123.127 -46.19)" fill="#f6f6eb"/>
            <path id="Línea_227-3" data-name="Línea 227" d="M.416,170.863a.963.963,0,0,0,.963-.963V.416a.963.963,0,0,0-1.926,0V169.9A.963.963,0,0,0,.416,170.863Z" transform="translate(132.193 -46.19)" fill="#f6f6eb"/>
            <path id="Línea_228-3" data-name="Línea 228" d="M.416,170.863a.963.963,0,0,0,.963-.963V.416a.963.963,0,0,0-1.926,0V169.9A.963.963,0,0,0,.416,170.863Z" transform="translate(141.259 -46.19)" fill="#fff"/>
          </g>
        </g>
      </g>
      <path id="Path_179173" data-name="Path 179173" d="M67.91-27.783l-76.8,76.8a35.945,35.945,0,0,0,0,50.833h0a35.945,35.945,0,0,0,50.833,0L83.735,58.058a28.377,28.377,0,0,1,40.131,0l6.688,6.688a28.377,28.377,0,0,0,40.131,0l92.53-92.529Z" transform="translate(884.048 304.031)" opacity="0.1" fill="url(#linear-gradient-4)" style="mix-blend-mode: multiply;isolation: isolate"/>
      <g id="Group_117530" data-name="Group 117530" transform="translate(188.471 290.991)" opacity="0.4">
        <path id="Line_155" data-name="Line 155" d="M0,185.46a.834.834,0,0,1-.592-.245.837.837,0,0,1,0-1.184L184.032-.592a.837.837,0,0,1,1.184,0,.837.837,0,0,1,0,1.184L.592,185.215A.834.834,0,0,1,0,185.46Z" transform="translate(96.203 408.401)" fill="#707070" opacity="0.5"/>
        <path id="Line_156" data-name="Line 156" d="M0,185.46a.834.834,0,0,1-.592-.245.837.837,0,0,1,0-1.184L184.032-.592a.837.837,0,0,1,1.184,0,.837.837,0,0,1,0,1.184L.592,185.215A.834.834,0,0,1,0,185.46Z" transform="translate(96.203 427.917)" fill="#707070" opacity="0.5"/>
        <path id="Line_157" data-name="Line 157" d="M0,185.46a.834.834,0,0,1-.592-.245.837.837,0,0,1,0-1.184L184.032-.592a.837.837,0,0,1,1.184,0,.837.837,0,0,1,0,1.184L.592,185.215A.834.834,0,0,1,0,185.46Z" transform="translate(96.203 447.434)" fill="#707070" opacity="0.5"/>
        <path id="Line_158" data-name="Line 158" d="M0,185.46a.834.834,0,0,1-.592-.245.837.837,0,0,1,0-1.184L184.032-.592a.837.837,0,0,1,1.184,0,.837.837,0,0,1,0,1.184L.592,185.215A.834.834,0,0,1,0,185.46Z" transform="translate(96.203 466.95)" fill="#707070" opacity="0.5"/>
        <path id="Line_159" data-name="Line 159" d="M0,185.46a.834.834,0,0,1-.592-.245.837.837,0,0,1,0-1.184L184.032-.592a.837.837,0,0,1,1.184,0,.837.837,0,0,1,0,1.184L.592,185.215A.834.834,0,0,1,0,185.46Z" transform="translate(127.51 455.16)" fill="#707070" opacity="0.5"/>
      </g>
      <g id="Group_117531" data-name="Group 117531" transform="translate(1269.471 -177.009)" opacity="0.4">
        <path id="Line_155-2" data-name="Line 155" d="M0,185.46a.834.834,0,0,1-.592-.245.837.837,0,0,1,0-1.184L184.032-.592a.837.837,0,0,1,1.184,0,.837.837,0,0,1,0,1.184L.592,185.215A.834.834,0,0,1,0,185.46Z" transform="translate(96.203 408.401)" fill="#707070" opacity="0.5"/>
        <path id="Line_156-2" data-name="Line 156" d="M0,185.46a.834.834,0,0,1-.592-.245.837.837,0,0,1,0-1.184L184.032-.592a.837.837,0,0,1,1.184,0,.837.837,0,0,1,0,1.184L.592,185.215A.834.834,0,0,1,0,185.46Z" transform="translate(96.203 427.917)" fill="#707070" opacity="0.5"/>
        <path id="Line_157-2" data-name="Line 157" d="M0,185.46a.834.834,0,0,1-.592-.245.837.837,0,0,1,0-1.184L184.032-.592a.837.837,0,0,1,1.184,0,.837.837,0,0,1,0,1.184L.592,185.215A.834.834,0,0,1,0,185.46Z" transform="translate(96.203 447.434)" fill="#707070" opacity="0.5"/>
        <path id="Line_158-2" data-name="Line 158" d="M0,185.46a.834.834,0,0,1-.592-.245.837.837,0,0,1,0-1.184L184.032-.592a.837.837,0,0,1,1.184,0,.837.837,0,0,1,0,1.184L.592,185.215A.834.834,0,0,1,0,185.46Z" transform="translate(96.203 466.95)" fill="#707070" opacity="0.5"/>
        <path id="Line_159-2" data-name="Line 159" d="M0,185.46a.834.834,0,0,1-.592-.245.837.837,0,0,1,0-1.184L184.032-.592a.837.837,0,0,1,1.184,0,.837.837,0,0,1,0,1.184L.592,185.215A.834.834,0,0,1,0,185.46Z" transform="translate(127.51 455.16)" fill="#707070" opacity="0.5"/>
      </g>
      <g id="Group_117532" data-name="Group 117532" transform="translate(1061.471 211.991)" opacity="0.4">
        <path id="Line_155-3" data-name="Line 155" d="M0,185.46a.834.834,0,0,1-.592-.245.837.837,0,0,1,0-1.184L184.032-.592a.837.837,0,0,1,1.184,0,.837.837,0,0,1,0,1.184L.592,185.215A.834.834,0,0,1,0,185.46Z" transform="translate(96.203 408.401)" fill="#707070" opacity="0.5"/>
        <path id="Line_156-3" data-name="Line 156" d="M0,185.46a.834.834,0,0,1-.592-.245.837.837,0,0,1,0-1.184L184.032-.592a.837.837,0,0,1,1.184,0,.837.837,0,0,1,0,1.184L.592,185.215A.834.834,0,0,1,0,185.46Z" transform="translate(96.203 427.917)" fill="#707070" opacity="0.5"/>
        <path id="Line_157-3" data-name="Line 157" d="M0,185.46a.834.834,0,0,1-.592-.245.837.837,0,0,1,0-1.184L184.032-.592a.837.837,0,0,1,1.184,0,.837.837,0,0,1,0,1.184L.592,185.215A.834.834,0,0,1,0,185.46Z" transform="translate(96.203 447.434)" fill="#707070" opacity="0.5"/>
        <path id="Line_158-3" data-name="Line 158" d="M0,185.46a.834.834,0,0,1-.592-.245.837.837,0,0,1,0-1.184L184.032-.592a.837.837,0,0,1,1.184,0,.837.837,0,0,1,0,1.184L.592,185.215A.834.834,0,0,1,0,185.46Z" transform="translate(96.203 466.95)" fill="#707070" opacity="0.5"/>
        <path id="Line_159-3" data-name="Line 159" d="M0,185.46a.834.834,0,0,1-.592-.245.837.837,0,0,1,0-1.184L184.032-.592a.837.837,0,0,1,1.184,0,.837.837,0,0,1,0,1.184L.592,185.215A.834.834,0,0,1,0,185.46Z" transform="translate(127.51 455.16)" fill="#707070" opacity="0.5"/>
      </g>
      <path id="Path_179174" data-name="Path 179174" d="M105.339,447.753a118.767,118.767,0,0,1-16.23,60.077h7.108a124.91,124.91,0,0,0,15.318-60.077c0-64.525-48.868-117.841-111.535-124.907v6.236A119.685,119.685,0,0,1,105.339,447.753Z" transform="matrix(-0.966, 0.259, -0.259, -0.966, 1775.463, 732.081)" fill="#f9b131"/>
      <g id="Group_117533" data-name="Group 117533" transform="translate(408.388 219.991)">
        <g id="Group_53755" data-name="Group 53755" transform="translate(222.323 316.335)" opacity="0.7">
          <path id="Path_100469" data-name="Path 100469" d="M283.021,322.237a3.958,3.958,0,1,1,0-5.6A3.958,3.958,0,0,1,283.021,322.237Z" transform="translate(-199.737 -315.479)" fill="#fff"/>
          <path id="Path_100470" data-name="Path 100470" d="M296.862,336.076a3.958,3.958,0,1,1,0-5.6A3.956,3.956,0,0,1,296.862,336.076Z" transform="translate(-197.463 -313.205)" fill="#fff"/>
          <path id="Path_100471" data-name="Path 100471" d="M310.7,349.917a3.958,3.958,0,1,1,0-5.6A3.958,3.958,0,0,1,310.7,349.917Z" transform="translate(-195.189 -310.931)" fill="#fff"/>
          <path id="Path_100472" data-name="Path 100472" d="M272.068,333.191a3.958,3.958,0,1,1,0-5.6A3.958,3.958,0,0,1,272.068,333.191Z" transform="translate(-201.537 -313.679)" fill="#fff"/>
          <path id="Path_100473" data-name="Path 100473" d="M285.909,347.032a3.958,3.958,0,1,1,0-5.6A3.958,3.958,0,0,1,285.909,347.032Z" transform="translate(-199.263 -311.405)" fill="#fff"/>
          <path id="Path_100474" data-name="Path 100474" d="M299.75,360.873a3.958,3.958,0,1,1,0-5.6A3.958,3.958,0,0,1,299.75,360.873Z" transform="translate(-196.989 -309.131)" fill="#fff"/>
          <path id="Path_100475" data-name="Path 100475" d="M261.113,344.146a3.958,3.958,0,1,1,0-5.6A3.96,3.96,0,0,1,261.113,344.146Z" transform="translate(-203.337 -311.879)" fill="#fff"/>
          <path id="Path_100476" data-name="Path 100476" d="M274.953,357.987a3.958,3.958,0,1,1,0-5.6A3.96,3.96,0,0,1,274.953,357.987Z" transform="translate(-201.063 -309.605)" fill="#fff"/>
          <path id="Path_100477" data-name="Path 100477" d="M288.795,371.828a3.958,3.958,0,1,1,0-5.6A3.96,3.96,0,0,1,288.795,371.828Z" transform="translate(-198.789 -307.331)" fill="#fff"/>
          <path id="Path_100478" data-name="Path 100478" d="M250.157,355.1a3.958,3.958,0,1,1,0-5.6A3.956,3.956,0,0,1,250.157,355.1Z" transform="translate(-205.137 -310.079)" fill="#fff"/>
          <path id="Path_100479" data-name="Path 100479" d="M264,368.94a3.958,3.958,0,1,1,0-5.6A3.956,3.956,0,0,1,264,368.94Z" transform="translate(-202.863 -307.805)" fill="#fff"/>
          <path id="Path_100480" data-name="Path 100480" d="M277.839,382.781a3.958,3.958,0,1,1,0-5.6A3.956,3.956,0,0,1,277.839,382.781Z" transform="translate(-200.589 -305.531)" fill="#fff"/>
          <path id="Path_100481" data-name="Path 100481" d="M239.2,366.055a3.958,3.958,0,1,1,0-5.6A3.958,3.958,0,0,1,239.2,366.055Z" transform="translate(-206.937 -308.279)" fill="#fff"/>
          <path id="Path_100482" data-name="Path 100482" d="M253.045,379.9a3.958,3.958,0,1,1,0-5.6A3.958,3.958,0,0,1,253.045,379.9Z" transform="translate(-204.663 -306.005)" fill="#fff"/>
          <path id="Path_100483" data-name="Path 100483" d="M266.886,393.737a3.958,3.958,0,1,1,0-5.6A3.958,3.958,0,0,1,266.886,393.737Z" transform="translate(-202.389 -303.731)" fill="#fff"/>
          <path id="Path_100484" data-name="Path 100484" d="M228.248,377.01a3.958,3.958,0,1,1,0-5.6A3.958,3.958,0,0,1,228.248,377.01Z" transform="translate(-208.737 -306.479)" fill="#fff"/>
          <path id="Path_100485" data-name="Path 100485" d="M242.09,390.851a3.958,3.958,0,1,1,0-5.6A3.96,3.96,0,0,1,242.09,390.851Z" transform="translate(-206.463 -304.205)" fill="#fff"/>
          <path id="Path_100486" data-name="Path 100486" d="M255.931,404.692a3.958,3.958,0,1,1,0-5.6A3.96,3.96,0,0,1,255.931,404.692Z" transform="translate(-204.189 -301.931)" fill="#fff"/>
          <path id="Path_100487" data-name="Path 100487" d="M217.295,387.963a3.958,3.958,0,1,1,0-5.6A3.958,3.958,0,0,1,217.295,387.963Z" transform="translate(-210.537 -304.679)" fill="#fff"/>
          <path id="Path_100488" data-name="Path 100488" d="M231.136,401.8a3.958,3.958,0,1,1,0-5.6A3.958,3.958,0,0,1,231.136,401.8Z" transform="translate(-208.263 -302.405)" fill="#fff"/>
          <path id="Path_100489" data-name="Path 100489" d="M244.975,415.646a3.958,3.958,0,1,1,0-5.6A3.956,3.956,0,0,1,244.975,415.646Z" transform="translate(-205.989 -300.131)" fill="#fff"/>
        </g>
        <g id="Group_53756" data-name="Group 53756" transform="translate(138.804 310.268)" opacity="0.7">
          <path id="Path_100490" data-name="Path 100490" d="M211.289,317.025a3.958,3.958,0,1,1,0-5.6A3.958,3.958,0,0,1,211.289,317.025Z" transform="translate(-128.004 -310.268)" fill="#fff"/>
          <path id="Path_100491" data-name="Path 100491" d="M225.13,330.865a3.958,3.958,0,1,1,0-5.6A3.958,3.958,0,0,1,225.13,330.865Z" transform="translate(-125.73 -307.994)" fill="#fff"/>
          <path id="Path_100492" data-name="Path 100492" d="M238.971,344.707a3.958,3.958,0,1,1,0-5.6A3.958,3.958,0,0,1,238.971,344.707Z" transform="translate(-123.456 -305.72)" fill="#fff"/>
          <path id="Path_100493" data-name="Path 100493" d="M200.334,327.98a3.958,3.958,0,1,1,0-5.6A3.958,3.958,0,0,1,200.334,327.98Z" transform="translate(-129.804 -308.468)" fill="#fff"/>
          <path id="Path_100494" data-name="Path 100494" d="M214.174,341.821a3.958,3.958,0,1,1,0-5.6A3.96,3.96,0,0,1,214.174,341.821Z" transform="translate(-127.53 -306.194)" fill="#fff"/>
          <path id="Path_100495" data-name="Path 100495" d="M228.016,355.662a3.958,3.958,0,1,1,0-5.6A3.96,3.96,0,0,1,228.016,355.662Z" transform="translate(-125.256 -303.92)" fill="#fff"/>
          <path id="Path_100496" data-name="Path 100496" d="M189.38,338.935a3.958,3.958,0,1,1,0-5.6A3.96,3.96,0,0,1,189.38,338.935Z" transform="translate(-131.604 -306.668)" fill="#fff"/>
          <path id="Path_100497" data-name="Path 100497" d="M203.219,352.775a3.958,3.958,0,1,1,0-5.6A3.956,3.956,0,0,1,203.219,352.775Z" transform="translate(-129.33 -304.394)" fill="#fff"/>
          <path id="Path_100498" data-name="Path 100498" d="M217.06,366.615a3.958,3.958,0,1,1,0-5.6A3.956,3.956,0,0,1,217.06,366.615Z" transform="translate(-127.056 -302.12)" fill="#fff"/>
          <path id="Path_100499" data-name="Path 100499" d="M178.424,349.888a3.958,3.958,0,1,1,0-5.6A3.958,3.958,0,0,1,178.424,349.888Z" transform="translate(-133.404 -304.868)" fill="#fff"/>
          <path id="Path_100500" data-name="Path 100500" d="M192.266,363.73a3.958,3.958,0,1,1,0-5.6A3.958,3.958,0,0,1,192.266,363.73Z" transform="translate(-131.13 -302.594)" fill="#fff"/>
          <path id="Path_100501" data-name="Path 100501" d="M206.107,377.571a3.958,3.958,0,1,1,0-5.6A3.958,3.958,0,0,1,206.107,377.571Z" transform="translate(-128.856 -300.32)" fill="#fff"/>
          <path id="Path_100502" data-name="Path 100502" d="M167.469,360.844a3.958,3.958,0,1,1,0-5.6A3.956,3.956,0,0,1,167.469,360.844Z" transform="translate(-135.204 -303.068)" fill="#fff"/>
          <path id="Path_100503" data-name="Path 100503" d="M181.311,374.685a3.958,3.958,0,1,1,0-5.6A3.96,3.96,0,0,1,181.311,374.685Z" transform="translate(-132.93 -300.794)" fill="#fff"/>
          <path id="Path_100504" data-name="Path 100504" d="M195.152,388.526a3.958,3.958,0,1,1,0-5.6A3.96,3.96,0,0,1,195.152,388.526Z" transform="translate(-130.656 -298.52)" fill="#fff"/>
          <path id="Path_100505" data-name="Path 100505" d="M156.516,371.8a3.958,3.958,0,1,1,0-5.6A3.958,3.958,0,0,1,156.516,371.8Z" transform="translate(-137.004 -301.268)" fill="#fff"/>
          <path id="Path_100506" data-name="Path 100506" d="M170.357,385.638a3.958,3.958,0,1,1,0-5.6A3.958,3.958,0,0,1,170.357,385.638Z" transform="translate(-134.73 -298.994)" fill="#fff"/>
          <path id="Path_100507" data-name="Path 100507" d="M184.2,399.479a3.958,3.958,0,1,1,0-5.6A3.956,3.956,0,0,1,184.2,399.479Z" transform="translate(-132.456 -296.72)" fill="#fff"/>
          <path id="Path_100508" data-name="Path 100508" d="M145.561,382.753a3.958,3.958,0,1,1,0-5.6A3.958,3.958,0,0,1,145.561,382.753Z" transform="translate(-138.804 -299.468)" fill="#fff"/>
          <path id="Path_100509" data-name="Path 100509" d="M159.4,396.594a3.958,3.958,0,1,1,0-5.6A3.958,3.958,0,0,1,159.4,396.594Z" transform="translate(-136.53 -297.194)" fill="#fff"/>
          <path id="Path_100510" data-name="Path 100510" d="M173.243,410.435a3.958,3.958,0,1,1,0-5.6A3.958,3.958,0,0,1,173.243,410.435Z" transform="translate(-134.255 -294.92)" fill="#fff"/>
        </g>
      </g>
      <g id="Group_117534" data-name="Group 117534" transform="translate(1149.388 350.991)">
        <g id="Group_53755-2" data-name="Group 53755" transform="translate(222.323 316.335)" opacity="0.7">
          <path id="Path_100469-2" data-name="Path 100469" d="M283.021,322.237a3.958,3.958,0,1,1,0-5.6A3.958,3.958,0,0,1,283.021,322.237Z" transform="translate(-199.737 -315.479)" fill="#fff"/>
          <path id="Path_100470-2" data-name="Path 100470" d="M296.862,336.076a3.958,3.958,0,1,1,0-5.6A3.956,3.956,0,0,1,296.862,336.076Z" transform="translate(-197.463 -313.205)" fill="#fff"/>
          <path id="Path_100471-2" data-name="Path 100471" d="M310.7,349.917a3.958,3.958,0,1,1,0-5.6A3.958,3.958,0,0,1,310.7,349.917Z" transform="translate(-195.189 -310.931)" fill="#fff"/>
          <path id="Path_100472-2" data-name="Path 100472" d="M272.068,333.191a3.958,3.958,0,1,1,0-5.6A3.958,3.958,0,0,1,272.068,333.191Z" transform="translate(-201.537 -313.679)" fill="#fff"/>
          <path id="Path_100473-2" data-name="Path 100473" d="M285.909,347.032a3.958,3.958,0,1,1,0-5.6A3.958,3.958,0,0,1,285.909,347.032Z" transform="translate(-199.263 -311.405)" fill="#fff"/>
          <path id="Path_100474-2" data-name="Path 100474" d="M299.75,360.873a3.958,3.958,0,1,1,0-5.6A3.958,3.958,0,0,1,299.75,360.873Z" transform="translate(-196.989 -309.131)" fill="#fff"/>
          <path id="Path_100475-2" data-name="Path 100475" d="M261.113,344.146a3.958,3.958,0,1,1,0-5.6A3.96,3.96,0,0,1,261.113,344.146Z" transform="translate(-203.337 -311.879)" fill="#fff"/>
          <path id="Path_100476-2" data-name="Path 100476" d="M274.953,357.987a3.958,3.958,0,1,1,0-5.6A3.96,3.96,0,0,1,274.953,357.987Z" transform="translate(-201.063 -309.605)" fill="#fff"/>
          <path id="Path_100477-2" data-name="Path 100477" d="M288.795,371.828a3.958,3.958,0,1,1,0-5.6A3.96,3.96,0,0,1,288.795,371.828Z" transform="translate(-198.789 -307.331)" fill="#fff"/>
          <path id="Path_100478-2" data-name="Path 100478" d="M250.157,355.1a3.958,3.958,0,1,1,0-5.6A3.956,3.956,0,0,1,250.157,355.1Z" transform="translate(-205.137 -310.079)" fill="#fff"/>
          <path id="Path_100479-2" data-name="Path 100479" d="M264,368.94a3.958,3.958,0,1,1,0-5.6A3.956,3.956,0,0,1,264,368.94Z" transform="translate(-202.863 -307.805)" fill="#fff"/>
          <path id="Path_100480-2" data-name="Path 100480" d="M277.839,382.781a3.958,3.958,0,1,1,0-5.6A3.956,3.956,0,0,1,277.839,382.781Z" transform="translate(-200.589 -305.531)" fill="#fff"/>
          <path id="Path_100481-2" data-name="Path 100481" d="M239.2,366.055a3.958,3.958,0,1,1,0-5.6A3.958,3.958,0,0,1,239.2,366.055Z" transform="translate(-206.937 -308.279)" fill="#fff"/>
          <path id="Path_100482-2" data-name="Path 100482" d="M253.045,379.9a3.958,3.958,0,1,1,0-5.6A3.958,3.958,0,0,1,253.045,379.9Z" transform="translate(-204.663 -306.005)" fill="#fff"/>
          <path id="Path_100483-2" data-name="Path 100483" d="M266.886,393.737a3.958,3.958,0,1,1,0-5.6A3.958,3.958,0,0,1,266.886,393.737Z" transform="translate(-202.389 -303.731)" fill="#fff"/>
          <path id="Path_100484-2" data-name="Path 100484" d="M228.248,377.01a3.958,3.958,0,1,1,0-5.6A3.958,3.958,0,0,1,228.248,377.01Z" transform="translate(-208.737 -306.479)" fill="#fff"/>
          <path id="Path_100485-2" data-name="Path 100485" d="M242.09,390.851a3.958,3.958,0,1,1,0-5.6A3.96,3.96,0,0,1,242.09,390.851Z" transform="translate(-206.463 -304.205)" fill="#fff"/>
          <path id="Path_100486-2" data-name="Path 100486" d="M255.931,404.692a3.958,3.958,0,1,1,0-5.6A3.96,3.96,0,0,1,255.931,404.692Z" transform="translate(-204.189 -301.931)" fill="#fff"/>
          <path id="Path_100487-2" data-name="Path 100487" d="M217.295,387.963a3.958,3.958,0,1,1,0-5.6A3.958,3.958,0,0,1,217.295,387.963Z" transform="translate(-210.537 -304.679)" fill="#fff"/>
          <path id="Path_100488-2" data-name="Path 100488" d="M231.136,401.8a3.958,3.958,0,1,1,0-5.6A3.958,3.958,0,0,1,231.136,401.8Z" transform="translate(-208.263 -302.405)" fill="#fff"/>
          <path id="Path_100489-2" data-name="Path 100489" d="M244.975,415.646a3.958,3.958,0,1,1,0-5.6A3.956,3.956,0,0,1,244.975,415.646Z" transform="translate(-205.989 -300.131)" fill="#fff"/>
        </g>
        <g id="Group_53756-2" data-name="Group 53756" transform="translate(138.804 310.268)" opacity="0.7">
          <path id="Path_100490-2" data-name="Path 100490" d="M211.289,317.025a3.958,3.958,0,1,1,0-5.6A3.958,3.958,0,0,1,211.289,317.025Z" transform="translate(-128.004 -310.268)" fill="#fff"/>
          <path id="Path_100491-2" data-name="Path 100491" d="M225.13,330.865a3.958,3.958,0,1,1,0-5.6A3.958,3.958,0,0,1,225.13,330.865Z" transform="translate(-125.73 -307.994)" fill="#fff"/>
          <path id="Path_100492-2" data-name="Path 100492" d="M238.971,344.707a3.958,3.958,0,1,1,0-5.6A3.958,3.958,0,0,1,238.971,344.707Z" transform="translate(-123.456 -305.72)" fill="#fff"/>
          <path id="Path_100493-2" data-name="Path 100493" d="M200.334,327.98a3.958,3.958,0,1,1,0-5.6A3.958,3.958,0,0,1,200.334,327.98Z" transform="translate(-129.804 -308.468)" fill="#fff"/>
          <path id="Path_100494-2" data-name="Path 100494" d="M214.174,341.821a3.958,3.958,0,1,1,0-5.6A3.96,3.96,0,0,1,214.174,341.821Z" transform="translate(-127.53 -306.194)" fill="#fff"/>
          <path id="Path_100495-2" data-name="Path 100495" d="M228.016,355.662a3.958,3.958,0,1,1,0-5.6A3.96,3.96,0,0,1,228.016,355.662Z" transform="translate(-125.256 -303.92)" fill="#fff"/>
          <path id="Path_100496-2" data-name="Path 100496" d="M189.38,338.935a3.958,3.958,0,1,1,0-5.6A3.96,3.96,0,0,1,189.38,338.935Z" transform="translate(-131.604 -306.668)" fill="#fff"/>
          <path id="Path_100497-2" data-name="Path 100497" d="M203.219,352.775a3.958,3.958,0,1,1,0-5.6A3.956,3.956,0,0,1,203.219,352.775Z" transform="translate(-129.33 -304.394)" fill="#fff"/>
          <path id="Path_100498-2" data-name="Path 100498" d="M217.06,366.615a3.958,3.958,0,1,1,0-5.6A3.956,3.956,0,0,1,217.06,366.615Z" transform="translate(-127.056 -302.12)" fill="#fff"/>
          <path id="Path_100499-2" data-name="Path 100499" d="M178.424,349.888a3.958,3.958,0,1,1,0-5.6A3.958,3.958,0,0,1,178.424,349.888Z" transform="translate(-133.404 -304.868)" fill="#fff"/>
          <path id="Path_100500-2" data-name="Path 100500" d="M192.266,363.73a3.958,3.958,0,1,1,0-5.6A3.958,3.958,0,0,1,192.266,363.73Z" transform="translate(-131.13 -302.594)" fill="#fff"/>
          <path id="Path_100501-2" data-name="Path 100501" d="M206.107,377.571a3.958,3.958,0,1,1,0-5.6A3.958,3.958,0,0,1,206.107,377.571Z" transform="translate(-128.856 -300.32)" fill="#fff"/>
          <path id="Path_100502-2" data-name="Path 100502" d="M167.469,360.844a3.958,3.958,0,1,1,0-5.6A3.956,3.956,0,0,1,167.469,360.844Z" transform="translate(-135.204 -303.068)" fill="#fff"/>
          <path id="Path_100503-2" data-name="Path 100503" d="M181.311,374.685a3.958,3.958,0,1,1,0-5.6A3.96,3.96,0,0,1,181.311,374.685Z" transform="translate(-132.93 -300.794)" fill="#fff"/>
          <path id="Path_100504-2" data-name="Path 100504" d="M195.152,388.526a3.958,3.958,0,1,1,0-5.6A3.96,3.96,0,0,1,195.152,388.526Z" transform="translate(-130.656 -298.52)" fill="#fff"/>
          <path id="Path_100505-2" data-name="Path 100505" d="M156.516,371.8a3.958,3.958,0,1,1,0-5.6A3.958,3.958,0,0,1,156.516,371.8Z" transform="translate(-137.004 -301.268)" fill="#fff"/>
          <path id="Path_100506-2" data-name="Path 100506" d="M170.357,385.638a3.958,3.958,0,1,1,0-5.6A3.958,3.958,0,0,1,170.357,385.638Z" transform="translate(-134.73 -298.994)" fill="#fff"/>
          <path id="Path_100507-2" data-name="Path 100507" d="M184.2,399.479a3.958,3.958,0,1,1,0-5.6A3.956,3.956,0,0,1,184.2,399.479Z" transform="translate(-132.456 -296.72)" fill="#fff"/>
          <path id="Path_100508-2" data-name="Path 100508" d="M145.561,382.753a3.958,3.958,0,1,1,0-5.6A3.958,3.958,0,0,1,145.561,382.753Z" transform="translate(-138.804 -299.468)" fill="#fff"/>
          <path id="Path_100509-2" data-name="Path 100509" d="M159.4,396.594a3.958,3.958,0,1,1,0-5.6A3.958,3.958,0,0,1,159.4,396.594Z" transform="translate(-136.53 -297.194)" fill="#fff"/>
          <path id="Path_100510-2" data-name="Path 100510" d="M173.243,410.435a3.958,3.958,0,1,1,0-5.6A3.958,3.958,0,0,1,173.243,410.435Z" transform="translate(-134.255 -294.92)" fill="#fff"/>
        </g>
      </g>
    </g>
  </g>
</svg>
