<svg xmlns="http://www.w3.org/2000/svg" width="190.355" height="100.296" viewBox="0 0 190.355 100.296">
  <g id="t2-ic1" transform="translate(-180 -403)">
    <g id="Group_117351" data-name="Group 117351">
      <path id="Path_178621" data-name="Path 178621" d="M1151.767,184.239l74.688-39.738a4.328,4.328,0,0,1,6.142,5.178L1214.88,203.3a4.327,4.327,0,0,1-5.134,2.847l-56.971-13.887A4.328,4.328,0,0,1,1151.767,184.239Z" transform="translate(-862.472 297.021)" fill="#e3fbfc"/>
      <path id="Path_178623" data-name="Path 178623" d="M1204.415,158.916l-50.625,26.936a2.933,2.933,0,0,1-4.163-3.51l12.009-36.349a2.933,2.933,0,0,1,3.48-1.93l38.617,9.413A2.934,2.934,0,0,1,1204.415,158.916Z" transform="translate(-952.221 259.021)" fill="#e3fbfc"/>
      <path id="Elipse_5709" data-name="Elipse 5709" d="M9.152-3.1A12.25,12.25,0,1,1-3.1,9.152,12.264,12.264,0,0,1,9.152-3.1Zm0,20.327A8.077,8.077,0,1,0,1.076,9.152,8.086,8.086,0,0,0,9.152,17.229Z" transform="translate(183.098 470.323)" fill="#fef3e0"/>
      <path id="Elipse_5709-2" data-name="Elipse 5709" d="M6.814-3.1A9.911,9.911,0,1,1-3.1,6.814,9.923,9.923,0,0,1,6.814-3.1Zm0,16.446A6.535,6.535,0,1,0,.279,6.814,6.542,6.542,0,0,0,6.814,13.348Z" transform="translate(337.775 410.775)" fill="#fef3e0"/>
    </g>
    <g id="Group_117350" data-name="Group 117350" transform="translate(12387.672 10337.584)">
      <g id="_000000ff" data-name="#000000ff" transform="translate(-12162.672 -9929.584)">
        <path id="Path_178592" data-name="Path 178592" d="M161.428,26.56a10.947,10.947,0,0,1,16.014.4,11.087,11.087,0,0,1,2.778,6.923V103.91a11.027,11.027,0,0,1-10.995,10.624c-2.921,0-5.846.025-8.766-.01A1.585,1.585,0,0,1,159,113.1a1.551,1.551,0,0,1,1.412-1.492c2.221-.037,4.443,0,6.666-.016a15.863,15.863,0,0,0,4.319-.308A8.027,8.027,0,1,0,163.645,97.8a1.508,1.508,0,0,1-2.074.159,1.634,1.634,0,0,1-.523-1.406c.012-13.208-.012-26.416.012-39.622a1.535,1.535,0,0,1,1.455-1.49,1.575,1.575,0,0,1,1.478,1.7q0,18.389,0,36.776a10.959,10.959,0,0,1,8.928-.694,11.311,11.311,0,0,1,4.358,2.855V35.952a14.228,14.228,0,0,0-.265-3.729,8.04,8.04,0,0,0-13.026-4.07c0,7.309.018,14.62-.006,21.929a1.458,1.458,0,0,1-2.909.176c-.059-1.678,0-3.358-.024-5.039q-29.532-.015-59.061,0c-.686-.037-1.48.141-2.066-.31a1.8,1.8,0,0,1-.612-1.157,1.888,1.888,0,0,1,.543-1.112c.584-.516,1.421-.333,2.133-.369q29.532.012,59.063,0,0-7.176,0-14.349A1.808,1.808,0,0,1,161.428,26.56Z" transform="translate(-79.84 -23.272)"/>
        <path id="Path_178593" data-name="Path 178593" d="M0,121.415a1.538,1.538,0,0,1,1.561-1.221c4.19-.008,8.381-.018,12.569.006a1.46,1.46,0,1,1-.008,2.919c-3.725.024-7.454,0-11.179.008q0,33.193,0,66.384,35.393-.009,70.781,0a1.563,1.563,0,0,1,1.608,1.506,1.6,1.6,0,0,1-1.608,1.433q-35.984.024-71.971.008A1.622,1.622,0,0,1,0,191.245Z" transform="translate(0 -101.185)"/>
        <path id="Path_178594" data-name="Path 178594" d="M32.295,154.182a1.479,1.479,0,1,1,2.939,0V196.5c1.133,0,2.264,0,3.4,0V175.955a1.483,1.483,0,0,1,1.431-1.629c2.749-.022,5.5,0,8.248-.012a1.6,1.6,0,0,1,1.974,1.633q0,10.275,0,20.55c1.131,0,2.264,0,3.4,0q0-15.275,0-30.547a1.469,1.469,0,0,1,1.461-1.531c2.886-.018,5.774-.01,8.66,0a1.48,1.48,0,0,1,1.527,1.515q.015,15.283,0,30.567c1.131,0,2.262,0,3.394,0q.012-21.159,0-42.316a1.5,1.5,0,0,1,1.539-1.653q4.305-.006,8.613,0a1.5,1.5,0,0,1,1.5,1.651q0,21.468,0,42.934a2.912,2.912,0,0,1-.261,1.67,1.57,1.57,0,0,1-1.423.649H33.989a1.512,1.512,0,0,1-1.69-1.508q-.015-21.874,0-43.749m39.381,1.286q0,20.515,0,41.03h5.772q0-20.515,0-41.026c-1.923,0-3.847,0-5.772,0M56.617,167.345q0,14.581,0,29.161c1.929,0,3.856.008,5.786,0q.009-14.581,0-29.159-2.891-.012-5.786,0m-15.037,9.92c0,6.409-.01,12.818.006,19.227,1.919-.02,3.841,0,5.762-.01-.084-6.407-.008-12.818-.035-19.227C45.4,177.275,43.491,177.259,41.58,177.265Z" transform="translate(-25.956 -127.187)"/>
        <path id="Path_178595" data-name="Path 178595" d="M295.813,152.63a8.043,8.043,0,0,1,2.31-.145c.653.033,1.4-.133,1.964.288a1.475,1.475,0,0,1,.382,1.945,1.5,1.5,0,0,1-1.353.706c-.919,0-1.839.018-2.757-.008A1.459,1.459,0,0,1,295,154.171,1.475,1.475,0,0,1,295.813,152.63Z" transform="translate(-237.146 -127.144)"/>
        <path id="Path_178596" data-name="Path 178596" d="M342.291,152.7a2.268,2.268,0,0,1,1.108-.182c2.349.012,4.7-.006,7.048.008a1.467,1.467,0,1,1,.02,2.931c-2.551,0-5.1.027-7.652-.016A1.474,1.474,0,0,1,342.291,152.7Z" transform="translate(-274.582 -127.18)"/>
        <path id="Path_178597" data-name="Path 178597" d="M295.841,184.985a2.309,2.309,0,0,1,.9-.127q8.028.006,16.059,0a1.708,1.708,0,0,1,1.231.361,1.478,1.478,0,0,1,.176,2.035,1.62,1.62,0,0,1-1.4.547c-5.423,0-10.846,0-16.269,0a1.491,1.491,0,0,1-1.476-.957A1.474,1.474,0,0,1,295.841,184.985Z" transform="translate(-237.139 -153.177)"/>
        <path id="Path_178598" data-name="Path 178598" d="M296.2,227.269c1.021-.061,2.049-.031,3.072-.018a1.46,1.46,0,0,1,0,2.917c-.91.025-1.819.008-2.729.01a1.491,1.491,0,0,1-1.49-.963A1.47,1.47,0,0,1,296.2,227.269Z" transform="translate(-237.131 -187.245)"/>
        <path id="Path_178599" data-name="Path 178599" d="M342.607,227.278c2.586-.09,5.182-.02,7.772-.035a1.467,1.467,0,1,1,.006,2.933c-2.486,0-4.974.008-7.46,0a1.463,1.463,0,0,1-.318-2.9Z" transform="translate(-274.502 -187.244)"/>
        <path id="Path_178600" data-name="Path 178600" d="M295.977,259.581a5.533,5.533,0,0,1,1.361-.084q7.743.009,15.486,0a1.5,1.5,0,0,1,1.447,2.335,1.6,1.6,0,0,1-1.447.61q-8.14-.009-16.278,0a1.469,1.469,0,0,1-.569-2.856Z" transform="translate(-237.149 -213.166)"/>
        <path id="Path_178601" data-name="Path 178601" d="M296.177,302.065c1.041-.055,2.09-.027,3.133-.016a1.459,1.459,0,0,1-.018,2.913c-.988.027-1.98.033-2.968,0a1.459,1.459,0,0,1-.147-2.894Z" transform="translate(-237.135 -247.38)"/>
        <path id="Path_178602" data-name="Path 178602" d="M342.561,302.077c2.335-.092,4.68-.008,7.019-.041.61.014,1.316-.1,1.8.357a1.479,1.479,0,0,1-.008,2.227,2.282,2.282,0,0,1-1.608.363c-2.29-.016-4.58.014-6.87-.014a1.465,1.465,0,0,1-.337-2.892Z" transform="translate(-274.49 -247.38)"/>
        <path id="Path_178603" data-name="Path 178603" d="M296.227,334.338c5.529-.067,11.063-.008,16.6-.029a1.565,1.565,0,0,1,1.588.874,1.471,1.471,0,0,1-1.4,2.064c-5.36.008-10.718,0-16.078.006a1.733,1.733,0,0,1-1.725-.678A1.469,1.469,0,0,1,296.227,334.338Z" transform="translate(-237.14 -273.325)"/>
        <path id="Path_178604" data-name="Path 178604" d="M33.48,409.14c2.208-.078,4.425-.02,6.634-.029a1.47,1.47,0,0,1,1.478,1.525c0,2.1.012,4.192,0,6.287a1.475,1.475,0,0,1-1.5,1.459q-3.132.018-6.266,0a1.472,1.472,0,0,1-1.5-1.445c-.018-2.1-.008-4.2-.006-6.3a1.471,1.471,0,0,1,1.159-1.494m1.774,2.9c0,1.139-.018,2.28.008,3.419,1.137-.02,2.276.014,3.413-.022-.024-1.133,0-2.266-.014-3.4Q36.956,412.026,35.255,412.038Z" transform="translate(-25.981 -333.456)"/>
        <path id="Path_178605" data-name="Path 178605" d="M98.179,409.138c1.361-.063,2.727-.012,4.09-.025a1.484,1.484,0,0,1,1.561,1.143,1.465,1.465,0,0,1-1.353,1.78c-1.314.033-2.629.014-3.943.012A1.489,1.489,0,0,1,97,410.887,1.464,1.464,0,0,1,98.179,409.138Z" transform="translate(-77.956 -333.462)"/>
        <path id="Path_178606" data-name="Path 178606" d="M152.641,409.146c2.2-.1,4.417-.02,6.623-.039a1.475,1.475,0,0,1,1.525,1.527c0,2.1.014,4.2-.006,6.3a1.475,1.475,0,0,1-1.525,1.451c-2.092.008-4.184.016-6.276,0a1.469,1.469,0,0,1-1.461-1.465c-.016-2.09-.008-4.18,0-6.268a1.47,1.47,0,0,1,1.123-1.5m1.812,2.89c-.006,1.137,0,2.274,0,3.411,1.137,0,2.274,0,3.411,0,0-1.135.006-2.272,0-3.407C156.723,412.028,155.588,412.032,154.453,412.036Z" transform="translate(-121.808 -333.454)"/>
        <path id="Path_178607" data-name="Path 178607" d="M217.364,409.137c1.421-.067,2.849-.024,4.272-.024a1.462,1.462,0,0,1-.01,2.923c-1.306.022-2.613.012-3.919,0a1.466,1.466,0,0,1-.343-2.9Z" transform="translate(-173.789 -333.457)"/>
        <path id="Path_178608" data-name="Path 178608" d="M269.95,409.136c2.157-.049,4.315-.01,6.474-.02a1.477,1.477,0,0,1,1.543,1.539c0,2.1.014,4.192,0,6.287a1.485,1.485,0,0,1-1.57,1.451c-2.084,0-4.17.018-6.252-.006a1.467,1.467,0,0,1-1.439-1.474c-.016-2.088-.008-4.176,0-6.262a1.462,1.462,0,0,1,1.253-1.515m1.688,2.933c0,1.125,0,2.251,0,3.376,1.121,0,2.245,0,3.368,0,0-1.127-.008-2.257,0-3.384C273.887,412.077,272.764,412.073,271.638,412.069Z" transform="translate(-216.014 -333.466)"/>
        <path id="Path_178609" data-name="Path 178609" d="M334.5,409.14c1.419-.082,2.847-.022,4.268-.031a1.464,1.464,0,1,1,0,2.927q-1.967.024-3.933,0a1.465,1.465,0,0,1-.331-2.9Z" transform="translate(-267.995 -333.454)"/>
        <path id="Path_178610" data-name="Path 178610" d="M98.226,441.468c1.408-.045,2.821-.016,4.231-.014a1.463,1.463,0,0,1-.008,2.925c-1.3.027-2.592.01-3.888.01A1.5,1.5,0,0,1,97,443.148,1.461,1.461,0,0,1,98.226,441.468Z" transform="translate(-77.962 -359.459)"/>
        <path id="Path_178611" data-name="Path 178611" d="M217.413,441.468c1.145-.063,2.3,0,3.443-.027a2.42,2.42,0,0,1,1.7.345,1.474,1.474,0,0,1,.108,2.147,1.961,1.961,0,0,1-1.6.459c-1.178-.022-2.357.027-3.533-.022a1.463,1.463,0,0,1-.122-2.9Z" transform="translate(-173.803 -359.455)"/>
        <path id="Path_178612" data-name="Path 178612" d="M334.566,441.463c1.345-.069,2.7-.008,4.043-.029a1.514,1.514,0,0,1,1.551.908,1.474,1.474,0,0,1-1.19,2.013c-1.361.051-2.723.02-4.084.018a1.477,1.477,0,0,1-1.51-1.453A1.457,1.457,0,0,1,334.566,441.463Z" transform="translate(-268.016 -359.447)"/>
      </g>
      <g id="_b2e5fbff" data-name="#b2e5fbff" transform="translate(-12080.031 -9926.649)">
        <path id="Path_178613" data-name="Path 178613" d="M423.027,40.191a8.04,8.04,0,0,1,13.026,4.07,14.227,14.227,0,0,1,.265,3.729v60.124a11.311,11.311,0,0,0-4.358-2.855,10.959,10.959,0,0,0-8.928.694q0-18.389,0-36.776a1.575,1.575,0,0,0-1.478-1.7c-.045-1.284-.043-2.568,0-3.85a1.548,1.548,0,0,0,1.472-1.508C423.044,54.81,423.027,47.5,423.027,40.191Z" transform="translate(-421.519 -38.245)" fill="#b7fcff"/>
      </g>
      <g id="_e3f6feff" data-name="#e3f6feff" transform="translate(-12159.732 -9909.105)">
        <path id="Path_178614" data-name="Path 178614" d="M27.677,127.73h3.847a1.8,1.8,0,0,0,.612,1.157c.586.451,1.38.273,2.066.31q29.532-.006,59.061,0c.02,1.68-.035,3.36.024,5.039a1.541,1.541,0,0,0,1.437,1.331c-.039,1.282-.041,2.566,0,3.85a1.535,1.535,0,0,0-1.455,1.49c-.024,13.206,0,26.414-.012,39.622a1.634,1.634,0,0,0,.523,1.406,1.508,1.508,0,0,0,2.074-.159,8.027,8.027,0,1,1,7.756,13.487,15.862,15.862,0,0,1-4.319.308c-2.223.014-4.445-.022-6.666.016a1.551,1.551,0,0,0-1.412,1.492q-1.914,0-3.829,0a1.563,1.563,0,0,0-1.608-1.506q-35.39,0-70.781,0-.021-33.193,0-66.384c3.725-.006,7.454.016,11.179-.008a1.55,1.55,0,0,0,1.5-1.455m-9.285,6.515q0,21.874,0,43.749a1.512,1.512,0,0,0,1.69,1.508H64.8a1.57,1.57,0,0,0,1.423-.649,2.912,2.912,0,0,0,.261-1.67q-.009-21.468,0-42.934a1.5,1.5,0,0,0-1.5-1.651q-4.308-.015-8.613,0a1.5,1.5,0,0,0-1.539,1.653q0,21.159,0,42.316c-1.131-.006-2.262,0-3.394,0q-.006-15.283,0-30.567a1.48,1.48,0,0,0-1.527-1.515c-2.886-.006-5.774-.014-8.66,0a1.469,1.469,0,0,0-1.461,1.531q-.009,15.272,0,30.547c-1.133,0-2.266,0-3.4,0q0-10.275,0-20.55a1.6,1.6,0,0,0-1.974-1.633c-2.751.016-5.5-.01-8.248.012a1.483,1.483,0,0,0-1.431,1.629v20.542c-1.133,0-2.264,0-3.4,0v-42.32a1.479,1.479,0,1,0-2.939,0m52.329-1.508a1.475,1.475,0,0,0-.818,1.541,1.459,1.459,0,0,0,1.365,1.245c.918.025,1.837.008,2.757.008a1.5,1.5,0,0,0,1.353-.706,1.475,1.475,0,0,0-.382-1.945c-.565-.422-1.312-.255-1.964-.288a8.043,8.043,0,0,0-2.31.145m9.042.035a1.474,1.474,0,0,0,.523,2.741c2.549.043,5.1.012,7.652.016a1.467,1.467,0,1,0-.02-2.931c-2.349-.014-4.7,0-7.048-.008a2.267,2.267,0,0,0-1.108.182m-9.007,6.285a1.474,1.474,0,0,0-.776,1.855,1.491,1.491,0,0,0,1.476.957c5.423.008,10.846,0,16.269,0a1.62,1.62,0,0,0,1.4-.547,1.478,1.478,0,0,0-.176-2.035,1.708,1.708,0,0,0-1.231-.361q-8.031,0-16.059,0a2.309,2.309,0,0,0-.9.127m.363,8.217a1.47,1.47,0,0,0-1.145,1.947,1.491,1.491,0,0,0,1.49.963c.91,0,1.819.016,2.729-.01a1.46,1.46,0,0,0,0-2.917c-1.023-.014-2.051-.043-3.072.018m9.04.01a1.463,1.463,0,0,0,.318,2.9c2.486.01,4.974.006,7.46,0a1.467,1.467,0,1,0-.006-2.933c-2.59.016-5.186-.055-7.772.035m-9.277,6.382a1.469,1.469,0,0,0,.569,2.856q8.14.006,16.278,0a1.6,1.6,0,0,0,1.447-.61,1.5,1.5,0,0,0-1.447-2.335q-7.743,0-15.486,0a5.533,5.533,0,0,0-1.361.084m.214,8.27a1.459,1.459,0,0,0,.147,2.894c.988.037,1.98.031,2.968,0a1.459,1.459,0,0,0,.018-2.913c-1.043-.012-2.092-.039-3.133.016m9.03.012a1.465,1.465,0,0,0,.337,2.892c2.29.027,4.58,0,6.87.014a2.282,2.282,0,0,0,1.608-.363,1.479,1.479,0,0,0,.008-2.227c-.488-.457-1.194-.343-1.8-.357-2.339.033-4.684-.051-7.019.041m-8.985,6.317a1.469,1.469,0,0,0-1.021,2.237,1.733,1.733,0,0,0,1.725.678c5.36-.01,10.718,0,16.078-.006a1.471,1.471,0,0,0,1.4-2.064,1.565,1.565,0,0,0-1.588-.874c-5.533.022-11.067-.037-16.6.029M19.552,182.935a1.471,1.471,0,0,0-1.159,1.494c0,2.1-.012,4.2.006,6.3a1.472,1.472,0,0,0,1.5,1.445q3.132.018,6.266,0a1.475,1.475,0,0,0,1.5-1.459c.016-2.1.006-4.192,0-6.287a1.47,1.47,0,0,0-1.478-1.525c-2.21.01-4.427-.049-6.634.029m12.724-.008a1.464,1.464,0,0,0-1.174,1.749,1.489,1.489,0,0,0,1.529,1.161c1.314,0,2.629.022,3.943-.012a1.465,1.465,0,0,0,1.353-1.78,1.484,1.484,0,0,0-1.561-1.143c-1.363.014-2.729-.037-4.09.025m10.61.016a1.47,1.47,0,0,0-1.123,1.5c0,2.088-.012,4.178,0,6.268a1.469,1.469,0,0,0,1.461,1.465c2.092.018,4.184.01,6.276,0a1.475,1.475,0,0,0,1.525-1.451c.02-2.1.01-4.2.006-6.3a1.475,1.475,0,0,0-1.525-1.527c-2.206.02-4.419-.057-6.623.039m12.742-.012a1.466,1.466,0,0,0,.343,2.9c1.306.008,2.613.018,3.919,0a1.462,1.462,0,0,0,.01-2.923c-1.423,0-2.851-.043-4.272.024m10.361-.01a1.462,1.462,0,0,0-1.253,1.515c0,2.086-.012,4.174,0,6.262a1.467,1.467,0,0,0,1.439,1.474c2.082.024,4.168.008,6.252.006A1.485,1.485,0,0,0,74,190.728c.018-2.1.008-4.192,0-6.287a1.477,1.477,0,0,0-1.543-1.539c-2.159.01-4.317-.029-6.474.02m12.571.016a1.465,1.465,0,0,0,.331,2.9q1.964.021,3.933,0a1.464,1.464,0,1,0,0-2.927c-1.421.01-2.849-.051-4.268.031m-46.243,6.323a1.461,1.461,0,0,0-1.229,1.68,1.5,1.5,0,0,0,1.565,1.241c1.3,0,2.592.018,3.888-.01a1.463,1.463,0,0,0,.008-2.925c-1.41,0-2.823-.031-4.231.014m23.346,0a1.463,1.463,0,0,0,.122,2.9c1.176.049,2.355,0,3.533.022a1.961,1.961,0,0,0,1.6-.459,1.474,1.474,0,0,0-.108-2.147,2.42,2.42,0,0,0-1.7-.345c-1.147.025-2.3-.035-3.443.027m22.94,0a1.457,1.457,0,0,0-1.19,1.457,1.477,1.477,0,0,0,1.51,1.453c1.361,0,2.723.033,4.084-.018a1.474,1.474,0,0,0,1.19-2.013,1.514,1.514,0,0,0-1.551-.908C81.3,189.259,79.949,189.2,78.6,189.267Z" transform="translate(-14.993 -127.73)" fill="#e6feff"/>
      </g>
      <path id="Path_178615" data-name="Path 178615" d="M233.2,167.52c1.925.008,3.849,0,5.772,0q0,20.512,0,41.026H233.2Q233.2,188.035,233.2,167.52Z" transform="translate(-12350.148 -10068.823)" fill="#4df8ff"/>
      <path id="Path_178616" data-name="Path 178616" d="M47.27,424.066q1.7-.012,3.407,0c.012,1.131-.01,2.264.014,3.4-1.137.035-2.276,0-3.413.022C47.253,426.346,47.267,425.2,47.27,424.066Z" transform="translate(-12200.669 -10275.068)" fill="#4df8ff"/>
      <path id="Path_178617" data-name="Path 178617" d="M156.385,228.076q2.894-.012,5.786,0,.015,14.578,0,29.159c-1.929.01-3.856.006-5.786,0Q156.378,242.656,156.385,228.076Z" transform="translate(-12288.396 -10117.503)" fill="#f9b131"/>
      <path id="Path_178618" data-name="Path 178618" d="M79.678,278.66c1.912-.006,3.821.01,5.733-.01.027,6.409-.049,12.82.035,19.227-1.921.006-3.843-.01-5.762.01C79.668,291.478,79.678,285.069,79.678,278.66Z" transform="translate(-12226.726 -10158.166)" fill="#ffc969"/>
      <path id="Path_178619" data-name="Path 178619" d="M166.494,424.073c1.135,0,2.27-.008,3.405,0,.01,1.135.006,2.272,0,3.407-1.137.006-2.274,0-3.411,0C166.49,426.347,166.488,425.21,166.494,424.073Z" transform="translate(-12296.521 -10275.075)" fill="#f9b131"/>
      <path id="Path_178620" data-name="Path 178620" d="M283.72,424.184c1.125,0,2.249.008,3.374,0-.01,1.127-.006,2.257,0,3.384-1.123-.008-2.247,0-3.368,0C283.718,426.435,283.724,425.309,283.72,424.184Z" transform="translate(-12390.768 -10275.164)" fill="#ffc969"/>
    </g>
  </g>
</svg>
