<svg xmlns="http://www.w3.org/2000/svg" xmlns:xlink="http://www.w3.org/1999/xlink" width="1240" height="350" viewBox="0 0 1240 350">
  <defs>
    <clipPath id="clip-path">
      <rect id="Rectangle_38069" data-name="Rectangle 38069" width="1240" height="139.619" fill="none"/>
    </clipPath>
  </defs>
  <g id="t2-i6" transform="translate(-180 -5561)">
    <rect id="Rectangle_38056" data-name="Rectangle 38056" width="1240" height="350" transform="translate(180 5561)" fill="#fff"/>
    <g id="t2-i6-2" data-name="t2-i6" transform="translate(180 5666)">
      <g id="Group_118120" data-name="Group 118120" clip-path="url(#clip-path)">
        <path id="Path_181933" data-name="Path 181933" d="M166.436,131.653H1.275a1.4,1.4,0,0,1-1.108-.482.754.754,0,0,1,.011-.96L41.3,78.259.178,26.315a.754.754,0,0,1-.011-.96,1.4,1.4,0,0,1,1.108-.482H166.436a1.405,1.405,0,0,1,1.1.468l41.511,52.431a.754.754,0,0,1,0,.974l-41.511,52.439a1.405,1.405,0,0,1-1.1.468M3.513,129.743h162.2l40.756-51.484L165.709,26.783H3.513l40.37,50.989a.756.756,0,0,1,0,.974Z" fill="#ffd48a"/>
        <path id="Path_181934" data-name="Path 181934" d="M206.947,69.805,165.435,17.374H.274L41.786,69.805.274,122.244H165.435Z" fill="#f9b131"/>
        <path id="Path_181935" data-name="Path 181935" d="M163.742,119.245H7.509a.5.5,0,0,1-.392-.811L45.612,69.806,7.118,21.185a.5.5,0,0,1,.392-.81H163.742a.5.5,0,0,1,.392.189L202.875,69.5a.5.5,0,0,1,0,.621l-38.741,48.939a.5.5,0,0,1-.392.189m-155.2-1H163.5l38.346-48.438L163.5,21.375H8.543l38.1,48.12a.5.5,0,0,1,0,.621Z" fill="#ffe1ad"/>
        <path id="Path_181936" data-name="Path 181936" d="M60.959,72.537h5.072v2.241H58.046V62.692h2.913Z" fill="#12263f"/>
        <path id="Path_181937" data-name="Path 181937" d="M72.19,74.778a3.115,3.115,0,0,1-.266-.805,2.6,2.6,0,0,1-2.158.971,3.189,3.189,0,0,1-2.158-.767,2.446,2.446,0,0,1-.889-1.93,2.514,2.514,0,0,1,1.08-2.209,5.5,5.5,0,0,1,3.137-.746H71.8v-.476q0-1.244-1.07-1.243a.875.875,0,0,0-1,.984h-2.8a2.508,2.508,0,0,1,1.107-2.114,4.66,4.66,0,0,1,2.827-.812,4.075,4.075,0,0,1,2.714.839,2.914,2.914,0,0,1,1.022,2.3v3.977a4.084,4.084,0,0,0,.381,1.893v.14Zm-1.752-1.826a1.545,1.545,0,0,0,.868-.225,1.381,1.381,0,0,0,.493-.5V70.786h-.812q-1.462,0-1.461,1.311a.8.8,0,0,0,.257.619.932.932,0,0,0,.655.236" fill="#12263f"/>
        <path id="Path_181938" data-name="Path 181938" d="M88.727,70.355a5.418,5.418,0,0,1-.943,3.341,3.018,3.018,0,0,1-2.543,1.249,2.592,2.592,0,0,1-2.035-.9v4.192h-2.8V65.8h2.616l.083.83a2.589,2.589,0,0,1,2.116-1,3.044,3.044,0,0,1,2.582,1.225,5.484,5.484,0,0,1,.922,3.366Zm-2.8-.175q0-2.391-1.4-2.391a1.318,1.318,0,0,0-1.328.714v3.536a1.36,1.36,0,0,0,1.345.747q1.336,0,1.378-2.307Z" fill="#12263f"/>
        <path id="Path_181939" data-name="Path 181939" d="M94.3,74.944a4.616,4.616,0,0,1-3.344-1.232,4.257,4.257,0,0,1-1.28-3.209V70.27a5.518,5.518,0,0,1,.511-2.431,3.74,3.74,0,0,1,1.49-1.631A4.5,4.5,0,0,1,94,65.631a3.886,3.886,0,0,1,2.988,1.175,4.616,4.616,0,0,1,1.1,3.274v1.087H92.527a2.016,2.016,0,0,0,.656,1.187,1.944,1.944,0,0,0,1.311.432,2.514,2.514,0,0,0,2.076-.93l1.277,1.511a3.559,3.559,0,0,1-1.481,1.15,5,5,0,0,1-2.063.427m-.315-7.155q-1.229,0-1.461,1.627h2.822V69.2a1.386,1.386,0,0,0-.34-1.042,1.356,1.356,0,0,0-1.021-.369" fill="#12263f"/>
        <path id="Path_181940" data-name="Path 181940" d="M104.646,68.329l-.921-.066a1.653,1.653,0,0,0-1.693.83v5.685h-2.8V65.8h2.623l.092,1.153a2.166,2.166,0,0,1,1.967-1.319,2.756,2.756,0,0,1,.781.1Z" fill="#12263f"/>
        <path id="Path_181941" data-name="Path 181941" d="M109.295,72.786a1.244,1.244,0,0,0,.913-.319,1.175,1.175,0,0,0,.316-.893h2.623A3.1,3.1,0,0,1,112.088,74a3.934,3.934,0,0,1-2.727.946,3.984,3.984,0,0,1-3.087-1.228,4.84,4.84,0,0,1-1.129-3.4V70.2a5.468,5.468,0,0,1,.5-2.4,3.658,3.658,0,0,1,1.449-1.6,4.311,4.311,0,0,1,2.24-.56,3.884,3.884,0,0,1,2.781.971,3.442,3.442,0,0,1,1.03,2.631h-2.623a1.535,1.535,0,0,0-.34-1.07,1.175,1.175,0,0,0-.914-.374q-1.087,0-1.27,1.386a9.711,9.711,0,0,0-.059,1.213,3.833,3.833,0,0,0,.325,1.875,1.119,1.119,0,0,0,1.029.523" fill="#12263f"/>
        <path id="Path_181942" data-name="Path 181942" d="M118.674,74.944a4.616,4.616,0,0,1-3.344-1.232,4.257,4.257,0,0,1-1.28-3.209V70.27a5.518,5.518,0,0,1,.511-2.431,3.74,3.74,0,0,1,1.49-1.631,4.5,4.5,0,0,1,2.325-.577,3.886,3.886,0,0,1,2.988,1.175,4.616,4.616,0,0,1,1.1,3.274v1.087H116.9a2.016,2.016,0,0,0,.656,1.187,1.944,1.944,0,0,0,1.311.432,2.515,2.515,0,0,0,2.076-.93l1.277,1.511a3.559,3.559,0,0,1-1.481,1.15,5,5,0,0,1-2.063.427m-.315-7.155q-1.229,0-1.461,1.627h2.822V69.2a1.386,1.386,0,0,0-.34-1.042,1.356,1.356,0,0,0-1.021-.369" fill="#12263f"/>
        <path id="Path_181943" data-name="Path 181943" d="M131.924,70.355a5.418,5.418,0,0,1-.943,3.341,3.018,3.018,0,0,1-2.543,1.249,2.592,2.592,0,0,1-2.035-.9v4.192h-2.8V65.8h2.616l.083.83a2.589,2.589,0,0,1,2.116-1A3.044,3.044,0,0,1,131,66.856a5.484,5.484,0,0,1,.922,3.366Zm-2.8-.175q0-2.391-1.4-2.391a1.318,1.318,0,0,0-1.328.714v3.536a1.36,1.36,0,0,0,1.345.747q1.337,0,1.378-2.307Z" fill="#12263f"/>
        <path id="Path_181944" data-name="Path 181944" d="M136.953,72.786a1.244,1.244,0,0,0,.913-.319,1.175,1.175,0,0,0,.316-.893H140.8A3.1,3.1,0,0,1,139.746,74a3.934,3.934,0,0,1-2.727.946,3.984,3.984,0,0,1-3.087-1.228,4.84,4.84,0,0,1-1.129-3.4V70.2a5.468,5.468,0,0,1,.5-2.4,3.658,3.658,0,0,1,1.449-1.6,4.311,4.311,0,0,1,2.24-.56,3.884,3.884,0,0,1,2.781.971,3.442,3.442,0,0,1,1.03,2.631h-2.623a1.536,1.536,0,0,0-.34-1.07,1.175,1.175,0,0,0-.914-.374q-1.087,0-1.27,1.386a9.711,9.711,0,0,0-.059,1.213,3.833,3.833,0,0,0,.325,1.875,1.119,1.119,0,0,0,1.029.523" fill="#12263f"/>
        <path id="Path_181945" data-name="Path 181945" d="M141.967,63.481a1.25,1.25,0,0,1,.431-.98,1.84,1.84,0,0,1,2.242,0,1.329,1.329,0,0,1,0,1.959,1.832,1.832,0,0,1-2.242,0,1.245,1.245,0,0,1-.431-.979m2.971,11.3h-2.806V65.8h2.806Z" fill="#12263f"/>
        <path id="Path_181946" data-name="Path 181946" d="M146.309,70.2a5.3,5.3,0,0,1,.523-2.4,3.732,3.732,0,0,1,1.5-1.614,4.532,4.532,0,0,1,2.3-.564,4.129,4.129,0,0,1,3.18,1.249,4.8,4.8,0,0,1,1.162,3.4v.1a4.656,4.656,0,0,1-1.166,3.333,4.142,4.142,0,0,1-3.158,1.232,4.186,4.186,0,0,1-3.08-1.149,4.5,4.5,0,0,1-1.254-3.118Zm2.8.175a3.353,3.353,0,0,0,.39,1.826,1.3,1.3,0,0,0,1.155.581q1.494,0,1.527-2.3V70.2q0-2.415-1.545-2.415-1.4,0-1.518,2.083Zm1.91-8.351h2.955l-2.309,2.606-2.282,0Z" fill="#12263f"/>
        <path id="Path_181947" data-name="Path 181947" d="M158.775,65.8l.092,1.054a3.044,3.044,0,0,1,2.564-1.22,2.558,2.558,0,0,1,2.1.839,4,4,0,0,1,.719,2.523v5.785h-2.807V69.109a1.516,1.516,0,0,0-.273-1,1.268,1.268,0,0,0-1-.32,1.334,1.334,0,0,0-1.221.648v6.341h-2.8V65.8Z" fill="#12263f"/>
        <rect id="Rectangle_38057" data-name="Rectangle 38057" width="1.071" height="1.071" transform="translate(135.976 138.548)" fill="#e8e8e8"/>
        <path id="Path_181948" data-name="Path 181948" d="M373.688,8.434,415.2,60.874a.756.756,0,0,1,0,.974l-41.512,52.431a1.4,1.4,0,0,1-1.1.468H207.431a1.394,1.394,0,0,1-1.108-.483.753.753,0,0,1,.011-.959L247.46,61.361,206.334,9.409a.754.754,0,0,1-.011-.96,1.4,1.4,0,0,1,1.108-.483H372.592a1.4,1.4,0,0,1,1.1.468M250.039,60.874a.756.756,0,0,1,0,.974l-40.37,50.989h162.2l40.756-51.476L371.865,9.877h-162.2Z" fill="#a8fdff"/>
        <path id="Path_181949" data-name="Path 181949" d="M413.1,69.814,371.59,122.245H206.43l41.512-52.431L206.43,17.375H371.59Z" fill="#42e0e6"/>
        <path id="Path_181950" data-name="Path 181950" d="M370.289,20.565,409.03,69.5a.5.5,0,0,1,0,.621l-38.741,48.932a.5.5,0,0,1-.391.189H213.665a.5.5,0,0,1-.391-.81l38.494-48.62-38.5-48.629a.5.5,0,0,1,.391-.811H369.9a.5.5,0,0,1,.391.19M252.8,69.5a.5.5,0,0,1,0,.621l-38.1,48.12H369.655L408,69.814,369.655,21.375H214.7Z" fill="#a8fdff"/>
        <path id="Path_181951" data-name="Path 181951" d="M292.263,59.448h-4.582v2.889h5.412v2.241h-8.325V52.492h8.343v2.25h-5.43V57.29h4.582Z" fill="#12263f"/>
        <rect id="Rectangle_38058" data-name="Rectangle 38058" width="2.806" height="12.75" transform="translate(294.297 51.828)" fill="#12263f"/>
        <path id="Path_181952" data-name="Path 181952" d="M308.491,58.129l-.921-.066a1.653,1.653,0,0,0-1.693.83v5.685h-2.8V55.6H305.7l.092,1.153a2.166,2.166,0,0,1,1.967-1.319,2.756,2.756,0,0,1,.781.1Z" fill="#12263f"/>
        <path id="Path_181953" data-name="Path 181953" d="M308.848,60a5.281,5.281,0,0,1,.524-2.394,3.718,3.718,0,0,1,1.5-1.615,4.525,4.525,0,0,1,2.3-.564,4.128,4.128,0,0,1,3.18,1.249,4.8,4.8,0,0,1,1.162,3.4v.1a4.654,4.654,0,0,1-1.166,3.333,4.681,4.681,0,0,1-6.237.083,4.49,4.49,0,0,1-1.254-3.117Zm2.8.175a3.344,3.344,0,0,0,.39,1.826,1.3,1.3,0,0,0,1.154.581q1.494,0,1.527-2.3V60q0-2.414-1.545-2.415-1.4,0-1.518,2.083Z" fill="#12263f"/>
        <rect id="Rectangle_38059" data-name="Rectangle 38059" width="2.806" height="12.75" transform="translate(318.891 51.828)" fill="#12263f"/>
        <path id="Path_181954" data-name="Path 181954" d="M331.244,60.66l1.494-5.063h3l-3.66,10.483-.158.383a2.781,2.781,0,0,1-2.756,1.742,4.4,4.4,0,0,1-1.154-.165V66.047h.365a1.92,1.92,0,0,0,.9-.17,1.033,1.033,0,0,0,.46-.611l.225-.6L326.836,55.6h2.988Z" fill="#12263f"/>
        <path id="Path_181955" data-name="Path 181955" d="M277.338,85.144a4.616,4.616,0,0,1-3.344-1.232,4.257,4.257,0,0,1-1.28-3.209V80.47a5.518,5.518,0,0,1,.511-2.431,3.74,3.74,0,0,1,1.49-1.631,4.5,4.5,0,0,1,2.325-.577,3.886,3.886,0,0,1,2.988,1.175,4.616,4.616,0,0,1,1.1,3.274v1.087h-5.562a2.016,2.016,0,0,0,.656,1.187,1.944,1.944,0,0,0,1.311.432,2.515,2.515,0,0,0,2.076-.93l1.277,1.511a3.56,3.56,0,0,1-1.481,1.15,5,5,0,0,1-2.063.427m-.315-7.155q-1.229,0-1.461,1.627h2.822V79.4a1.386,1.386,0,0,0-.34-1.042,1.356,1.356,0,0,0-1.021-.369" fill="#12263f"/>
        <rect id="Rectangle_38060" data-name="Rectangle 38060" width="2.806" height="12.75" transform="translate(282.393 72.228)" fill="#12263f"/>
        <path id="Path_181956" data-name="Path 181956" d="M295.5,85.144a4.616,4.616,0,0,1-3.344-1.232,4.257,4.257,0,0,1-1.28-3.209V80.47a5.518,5.518,0,0,1,.511-2.431,3.74,3.74,0,0,1,1.49-1.631,4.5,4.5,0,0,1,2.325-.577,3.886,3.886,0,0,1,2.988,1.175,4.616,4.616,0,0,1,1.1,3.274v1.087h-5.562a2.016,2.016,0,0,0,.656,1.187,1.944,1.944,0,0,0,1.311.432,2.514,2.514,0,0,0,2.076-.93l1.277,1.511a3.56,3.56,0,0,1-1.481,1.15,5,5,0,0,1-2.063.427m-.315-7.155q-1.229,0-1.461,1.627h2.822V79.4a1.386,1.386,0,0,0-.34-1.042,1.356,1.356,0,0,0-1.021-.369" fill="#12263f"/>
        <path id="Path_181957" data-name="Path 181957" d="M305.112,82.455a.644.644,0,0,0-.373-.572,5.639,5.639,0,0,0-1.42-.449,6.49,6.49,0,0,1-1.727-.61,2.9,2.9,0,0,1-1.037-.918,2.185,2.185,0,0,1-.357-1.236,2.485,2.485,0,0,1,1.021-2.038,4.207,4.207,0,0,1,2.673-.8,4.66,4.66,0,0,1,2.856.806,2.517,2.517,0,0,1,1.079,2.116h-2.806q0-1.08-1.138-1.079a1.129,1.129,0,0,0-.738.245.758.758,0,0,0-.3.61.7.7,0,0,0,.366.606,3.444,3.444,0,0,0,1.166.382,10.051,10.051,0,0,1,1.407.356,2.556,2.556,0,0,1,2.025,2.5,2.354,2.354,0,0,1-1.092,2,4.787,4.787,0,0,1-2.826.771,4.877,4.877,0,0,1-2.058-.415,3.433,3.433,0,0,1-1.411-1.128,2.554,2.554,0,0,1-.506-1.5h2.614a1.079,1.079,0,0,0,.415.909,1.705,1.705,0,0,0,1.021.286,1.338,1.338,0,0,0,.859-.233.74.74,0,0,0,.286-.6" fill="#12263f"/>
        <path id="Path_181958" data-name="Path 181958" d="M312.377,73.764V76h1.477V77.94h-1.477v4.109a1.053,1.053,0,0,0,.182.7.98.98,0,0,0,.722.2,4.148,4.148,0,0,0,.7-.049v2a5.184,5.184,0,0,1-1.578.24,2.931,2.931,0,0,1-2.133-.681,2.79,2.79,0,0,1-.689-2.067V77.94h-1.145V76h1.145V73.764Z" fill="#12263f"/>
        <path id="Path_181959" data-name="Path 181959" d="M320.013,84.978a3.115,3.115,0,0,1-.266-.805,2.6,2.6,0,0,1-2.158.971,3.189,3.189,0,0,1-2.158-.767,2.446,2.446,0,0,1-.889-1.93,2.514,2.514,0,0,1,1.08-2.209,5.5,5.5,0,0,1,3.137-.746h.863v-.476q0-1.244-1.07-1.243a.875.875,0,0,0-1,.984h-2.8a2.508,2.508,0,0,1,1.107-2.114,4.66,4.66,0,0,1,2.827-.812,4.076,4.076,0,0,1,2.714.839,2.914,2.914,0,0,1,1.022,2.3v3.977a4.084,4.084,0,0,0,.381,1.893v.14Zm-1.752-1.826a1.545,1.545,0,0,0,.868-.225,1.381,1.381,0,0,0,.493-.505V80.986h-.812q-1.463,0-1.461,1.311a.8.8,0,0,0,.257.619.932.932,0,0,0,.655.236" fill="#12263f"/>
        <path id="Path_181960" data-name="Path 181960" d="M327.235,73.764V76h1.477V77.94h-1.477v4.109a1.053,1.053,0,0,0,.182.7.98.98,0,0,0,.722.2,4.149,4.149,0,0,0,.7-.049v2a5.184,5.184,0,0,1-1.578.24,2.931,2.931,0,0,1-2.133-.681,2.79,2.79,0,0,1-.689-2.067V77.94h-1.145V76h1.145V73.764Z" fill="#12263f"/>
        <path id="Path_181961" data-name="Path 181961" d="M335.163,84.008a2.887,2.887,0,0,1-2.4,1.137,2.827,2.827,0,0,1-2.238-.86,3.61,3.61,0,0,1-.759-2.468V76h2.8v5.835a1.006,1.006,0,0,0,1.12,1.155,1.463,1.463,0,0,0,1.371-.69V76h2.813v8.982h-2.623Z" fill="#12263f"/>
        <path id="Path_181962" data-name="Path 181962" d="M344.1,82.455a.644.644,0,0,0-.373-.572,5.639,5.639,0,0,0-1.42-.449,6.49,6.49,0,0,1-1.727-.61,2.9,2.9,0,0,1-1.037-.918,2.185,2.185,0,0,1-.357-1.236,2.485,2.485,0,0,1,1.021-2.038,4.207,4.207,0,0,1,2.673-.8,4.66,4.66,0,0,1,2.856.806,2.517,2.517,0,0,1,1.079,2.116h-2.806q0-1.08-1.138-1.079a1.129,1.129,0,0,0-.738.245.758.758,0,0,0-.3.61.7.7,0,0,0,.366.606,3.445,3.445,0,0,0,1.166.382,10.05,10.05,0,0,1,1.407.356,2.556,2.556,0,0,1,2.025,2.5,2.354,2.354,0,0,1-1.092,2,4.788,4.788,0,0,1-2.826.771,4.877,4.877,0,0,1-2.058-.415,3.433,3.433,0,0,1-1.411-1.128,2.554,2.554,0,0,1-.506-1.5h2.614a1.079,1.079,0,0,0,.415.909,1.705,1.705,0,0,0,1.021.286,1.338,1.338,0,0,0,.859-.233.74.74,0,0,0,.286-.6" fill="#12263f"/>
        <rect id="Rectangle_38061" data-name="Rectangle 38061" width="1.071" height="1.071" transform="translate(342.132 0.001)" fill="#e8e8e8"/>
        <path id="Path_181963" data-name="Path 181963" d="M578.747,131.653H413.586a1.4,1.4,0,0,1-1.108-.482.754.754,0,0,1,.011-.96l41.126-51.952L412.489,26.315a.754.754,0,0,1-.011-.96,1.4,1.4,0,0,1,1.108-.482H578.747a1.405,1.405,0,0,1,1.1.468l41.511,52.431a.753.753,0,0,1,0,.974l-41.511,52.439a1.405,1.405,0,0,1-1.1.468m-162.923-1.91h162.2l40.756-51.484L578.02,26.783h-162.2l40.37,50.989a.756.756,0,0,1,0,.974Z" fill="#ffd48a"/>
        <path id="Path_181964" data-name="Path 181964" d="M619.258,69.805,577.746,17.374H412.585L454.1,69.805l-41.512,52.439H577.746Z" fill="#f9b131"/>
        <path id="Path_181965" data-name="Path 181965" d="M576.053,119.245H419.82a.5.5,0,0,1-.392-.811l38.495-48.628L419.429,21.185a.5.5,0,0,1,.392-.81H576.053a.5.5,0,0,1,.392.189L615.186,69.5a.5.5,0,0,1,0,.621l-38.741,48.939a.5.5,0,0,1-.392.189m-155.2-1H575.811l38.346-48.438L575.811,21.375H420.854l38.1,48.12a.5.5,0,0,1,0,.621Z" fill="#ffe1ad"/>
        <rect id="Rectangle_38062" data-name="Rectangle 38062" width="1.071" height="1.071" transform="translate(548.287 138.548)" fill="#e8e8e8"/>
        <path id="Path_181966" data-name="Path 181966" d="M786,8.434l41.512,52.44a.756.756,0,0,1,0,.974L786,114.279a1.4,1.4,0,0,1-1.1.468H619.742a1.394,1.394,0,0,1-1.108-.483.753.753,0,0,1,.011-.959l41.126-51.944L618.645,9.409a.754.754,0,0,1-.011-.96,1.4,1.4,0,0,1,1.108-.483H784.9a1.4,1.4,0,0,1,1.1.468M662.35,60.874a.756.756,0,0,1,0,.974l-40.37,50.989h162.2l40.756-51.476L784.176,9.877H621.98Z" fill="#a8fdff"/>
        <path id="Path_181967" data-name="Path 181967" d="M825.414,69.814,783.9,122.245H618.741l41.512-52.431L618.741,17.375H783.9Z" fill="#42e0e6"/>
        <path id="Path_181968" data-name="Path 181968" d="M782.6,20.565,821.342,69.5a.5.5,0,0,1,0,.621L782.6,119.056a.5.5,0,0,1-.391.189H625.976a.5.5,0,0,1-.391-.81l38.494-48.62L625.584,21.186a.5.5,0,0,1,.391-.811H782.209a.5.5,0,0,1,.391.19M665.108,69.5a.5.5,0,0,1,0,.621l-38.1,48.12H781.967l38.345-48.431L781.967,21.375H627.008Z" fill="#a8fdff"/>
        <path id="Path_181969" data-name="Path 181969" d="M680.4,70.678v4.1h-2.912V62.693h4.822a5.623,5.623,0,0,1,2.453.51,3.855,3.855,0,0,1,1.653,1.453A3.981,3.981,0,0,1,687,66.793a3.5,3.5,0,0,1-1.266,2.826,5.252,5.252,0,0,1-3.475,1.059Zm0-2.249h1.91A1.8,1.8,0,0,0,683.6,68a1.575,1.575,0,0,0,.444-1.195,1.948,1.948,0,0,0-.457-1.354,1.613,1.613,0,0,0-1.245-.513H680.4Z" fill="#12263f"/>
        <path id="Path_181970" data-name="Path 181970" d="M692.661,74.944a4.617,4.617,0,0,1-3.345-1.232,4.261,4.261,0,0,1-1.28-3.209V70.27a5.519,5.519,0,0,1,.512-2.431,3.728,3.728,0,0,1,1.49-1.631,4.5,4.5,0,0,1,2.325-.577,3.886,3.886,0,0,1,2.988,1.175,4.616,4.616,0,0,1,1.1,3.274v1.087h-5.563a2.016,2.016,0,0,0,.656,1.187,1.948,1.948,0,0,0,1.311.432,2.513,2.513,0,0,0,2.076-.93l1.277,1.511a3.563,3.563,0,0,1-1.48,1.15,5,5,0,0,1-2.063.427m-.316-7.155q-1.227,0-1.461,1.627h2.822V69.2a1.378,1.378,0,0,0-.34-1.042,1.355,1.355,0,0,0-1.021-.369" fill="#12263f"/>
        <path id="Path_181971" data-name="Path 181971" d="M703,68.329l-.922-.066a1.655,1.655,0,0,0-1.693.83v5.685h-2.8V65.8h2.623l.092,1.153a2.165,2.165,0,0,1,1.967-1.319,2.761,2.761,0,0,1,.781.1Z" fill="#12263f"/>
        <path id="Path_181972" data-name="Path 181972" d="M708.714,72.255a.645.645,0,0,0-.373-.572,5.654,5.654,0,0,0-1.42-.449,6.478,6.478,0,0,1-1.727-.61,2.9,2.9,0,0,1-1.037-.918,2.186,2.186,0,0,1-.357-1.236,2.483,2.483,0,0,1,1.021-2.038,4.2,4.2,0,0,1,2.672-.8,4.656,4.656,0,0,1,2.856.806,2.516,2.516,0,0,1,1.08,2.116h-2.807q0-1.08-1.137-1.079a1.129,1.129,0,0,0-.738.245.758.758,0,0,0-.3.61.7.7,0,0,0,.366.606,3.428,3.428,0,0,0,1.166.382,10.07,10.07,0,0,1,1.406.356,2.555,2.555,0,0,1,2.025,2.5,2.352,2.352,0,0,1-1.092,2,4.785,4.785,0,0,1-2.826.771,4.877,4.877,0,0,1-2.058-.415,3.429,3.429,0,0,1-1.41-1.128,2.554,2.554,0,0,1-.506-1.5h2.613a1.082,1.082,0,0,0,.416.909,1.706,1.706,0,0,0,1.021.286,1.333,1.333,0,0,0,.858-.233.741.741,0,0,0,.287-.605" fill="#12263f"/>
        <path id="Path_181973" data-name="Path 181973" d="M712.366,70.2a5.281,5.281,0,0,1,.524-2.394,3.723,3.723,0,0,1,1.5-1.615,4.528,4.528,0,0,1,2.3-.564,4.126,4.126,0,0,1,3.18,1.249,4.793,4.793,0,0,1,1.162,3.4v.1a4.654,4.654,0,0,1-1.166,3.333,4.142,4.142,0,0,1-3.158,1.232,4.186,4.186,0,0,1-3.08-1.149,4.507,4.507,0,0,1-1.254-3.117Zm2.8.175a3.343,3.343,0,0,0,.391,1.826,1.3,1.3,0,0,0,1.154.581q1.494,0,1.527-2.3V70.2q0-2.414-1.545-2.415c-.933,0-1.441.694-1.517,2.083Z" fill="#12263f"/>
        <path id="Path_181974" data-name="Path 181974" d="M724.835,65.8l.092,1.054a3.044,3.044,0,0,1,2.564-1.22,2.56,2.56,0,0,1,2.1.839,4,4,0,0,1,.719,2.523v5.785H727.5V69.109a1.522,1.522,0,0,0-.273-1,1.271,1.271,0,0,0-1-.32,1.333,1.333,0,0,0-1.221.648v6.341h-2.8V65.8Z" fill="#12263f"/>
        <path id="Path_181975" data-name="Path 181975" d="M736.913,74.778a3.077,3.077,0,0,1-.266-.805,2.6,2.6,0,0,1-2.158.971,3.187,3.187,0,0,1-2.158-.767,2.446,2.446,0,0,1-.889-1.93,2.512,2.512,0,0,1,1.08-2.209,5.494,5.494,0,0,1,3.137-.746h.863v-.476q0-1.244-1.07-1.243a.875.875,0,0,0-1,.984h-2.8a2.508,2.508,0,0,1,1.107-2.114,4.658,4.658,0,0,1,2.827-.812,4.075,4.075,0,0,1,2.714.839,2.914,2.914,0,0,1,1.022,2.3v3.977a4.059,4.059,0,0,0,.381,1.893v.14Zm-1.752-1.826a1.539,1.539,0,0,0,.867-.225,1.377,1.377,0,0,0,.494-.5V70.786h-.812q-1.463,0-1.461,1.311a.8.8,0,0,0,.256.619.935.935,0,0,0,.656.236" fill="#12263f"/>
        <rect id="Rectangle_38063" data-name="Rectangle 38063" width="2.807" height="12.75" transform="translate(741.02 62.028)" fill="#12263f"/>
        <path id="Path_181976" data-name="Path 181976" d="M745.528,63.481a1.247,1.247,0,0,1,.432-.98,1.837,1.837,0,0,1,2.24,0,1.326,1.326,0,0,1,0,1.959,1.829,1.829,0,0,1-2.24,0,1.242,1.242,0,0,1-.432-.979m2.971,11.3h-2.805V65.8H748.5Z" fill="#12263f"/>
        <path id="Path_181977" data-name="Path 181977" d="M749.87,70.221a5.481,5.481,0,0,1,.922-3.362,3.03,3.03,0,0,1,2.572-1.229,2.579,2.579,0,0,1,2.026.947V62.028H758.2v12.75h-2.515l-.141-.963a2.65,2.65,0,0,1-2.191,1.129,3.025,3.025,0,0,1-2.541-1.229,5.662,5.662,0,0,1-.938-3.494m2.8.174q0,2.391,1.4,2.391A1.377,1.377,0,0,0,755.39,72v-3.42a1.339,1.339,0,0,0-1.311-.8q-1.294,0-1.4,2.091Z" fill="#12263f"/>
        <path id="Path_181978" data-name="Path 181978" d="M764.845,74.778a3.08,3.08,0,0,1-.266-.805,2.6,2.6,0,0,1-2.158.971,3.187,3.187,0,0,1-2.158-.767,2.446,2.446,0,0,1-.889-1.93,2.512,2.512,0,0,1,1.08-2.209,5.494,5.494,0,0,1,3.137-.746h.863v-.476q0-1.244-1.07-1.243a.875.875,0,0,0-1,.984h-2.8a2.508,2.508,0,0,1,1.107-2.114,4.658,4.658,0,0,1,2.827-.812,4.075,4.075,0,0,1,2.714.839,2.914,2.914,0,0,1,1.022,2.3v3.977a4.059,4.059,0,0,0,.381,1.893v.14Zm-1.752-1.826a1.539,1.539,0,0,0,.867-.225,1.377,1.377,0,0,0,.494-.5V70.786h-.812q-1.463,0-1.461,1.311a.8.8,0,0,0,.256.619.935.935,0,0,0,.656.236" fill="#12263f"/>
        <path id="Path_181979" data-name="Path 181979" d="M768.456,70.221a5.481,5.481,0,0,1,.922-3.362,3.03,3.03,0,0,1,2.572-1.229,2.579,2.579,0,0,1,2.026.947V62.028h2.806v12.75h-2.515l-.141-.963a2.65,2.65,0,0,1-2.191,1.129,3.025,3.025,0,0,1-2.541-1.229,5.662,5.662,0,0,1-.938-3.494m2.8.174q0,2.391,1.4,2.391A1.377,1.377,0,0,0,773.976,72v-3.42a1.339,1.339,0,0,0-1.311-.8q-1.294,0-1.4,2.091Z" fill="#12263f"/>
        <rect id="Rectangle_38064" data-name="Rectangle 38064" width="1.071" height="1.071" transform="translate(754.443 0.001)" fill="#e8e8e8"/>
        <path id="Path_181980" data-name="Path 181980" d="M991.058,131.653H825.9a1.4,1.4,0,0,1-1.108-.482.754.754,0,0,1,.011-.96l41.126-51.952L824.8,26.315a.754.754,0,0,1-.011-.96,1.4,1.4,0,0,1,1.108-.482H991.058a1.405,1.405,0,0,1,1.1.468l41.511,52.431a.753.753,0,0,1,0,.974l-41.511,52.439a1.405,1.405,0,0,1-1.1.468m-162.923-1.91h162.2l40.756-51.484L990.331,26.783h-162.2l40.37,50.989a.756.756,0,0,1,0,.974Z" fill="#ffd48a"/>
        <path id="Path_181981" data-name="Path 181981" d="M1031.569,69.805,990.057,17.374H824.9l41.512,52.431L824.9,122.244H990.057Z" fill="#f9b131"/>
        <path id="Path_181982" data-name="Path 181982" d="M988.364,119.245H832.131a.5.5,0,0,1-.392-.811l38.495-48.628L831.74,21.185a.5.5,0,0,1,.392-.81H988.364a.5.5,0,0,1,.392.189L1027.5,69.5a.5.5,0,0,1,0,.621l-38.741,48.939a.5.5,0,0,1-.392.189m-155.2-1H988.122l38.346-48.438L988.122,21.375H833.165l38.1,48.12a.5.5,0,0,1,0,.621Z" fill="#ffe1ad"/>
        <path id="Path_181983" data-name="Path 181983" d="M885.283,69.648H880.7v2.889h5.412v2.241h-8.325V62.692h8.343v2.25H880.7V67.49h4.582Z" fill="#12263f"/>
        <rect id="Rectangle_38065" data-name="Rectangle 38065" width="2.806" height="12.75" transform="translate(887.317 62.028)" fill="#12263f"/>
        <path id="Path_181984" data-name="Path 181984" d="M899.876,72.786a1.244,1.244,0,0,0,.913-.319,1.175,1.175,0,0,0,.316-.893h2.623A3.1,3.1,0,0,1,902.669,74a3.934,3.934,0,0,1-2.727.946,3.984,3.984,0,0,1-3.087-1.228,4.84,4.84,0,0,1-1.129-3.4V70.2a5.467,5.467,0,0,1,.5-2.4,3.657,3.657,0,0,1,1.449-1.6,4.311,4.311,0,0,1,2.24-.56,3.884,3.884,0,0,1,2.781.971,3.442,3.442,0,0,1,1.03,2.631H901.1a1.535,1.535,0,0,0-.34-1.07,1.175,1.175,0,0,0-.914-.374q-1.088,0-1.27,1.386a9.71,9.71,0,0,0-.059,1.213,3.833,3.833,0,0,0,.325,1.875,1.119,1.119,0,0,0,1.029.523" fill="#12263f"/>
        <path id="Path_181985" data-name="Path 181985" d="M904.557,70.2a5.282,5.282,0,0,1,.524-2.394,3.718,3.718,0,0,1,1.5-1.615,4.525,4.525,0,0,1,2.3-.564,4.128,4.128,0,0,1,3.18,1.249,4.8,4.8,0,0,1,1.162,3.4v.1a4.654,4.654,0,0,1-1.166,3.333,4.141,4.141,0,0,1-3.158,1.232,4.184,4.184,0,0,1-3.08-1.149,4.5,4.5,0,0,1-1.254-3.117Zm2.8.175a3.343,3.343,0,0,0,.391,1.826,1.3,1.3,0,0,0,1.154.581q1.494,0,1.527-2.3V70.2q0-2.414-1.545-2.415-1.4,0-1.518,2.083Z" fill="#12263f"/>
        <path id="Path_181986" data-name="Path 181986" d="M917.026,65.8l.092,1.054a3.044,3.044,0,0,1,2.564-1.22,2.559,2.559,0,0,1,2.1.839,4,4,0,0,1,.719,2.523v5.785H919.69V69.109a1.516,1.516,0,0,0-.273-1,1.268,1.268,0,0,0-1-.32,1.334,1.334,0,0,0-1.221.648v6.341h-2.8V65.8Z" fill="#12263f"/>
        <path id="Path_181987" data-name="Path 181987" d="M923.691,70.2a5.281,5.281,0,0,1,.524-2.394,3.718,3.718,0,0,1,1.5-1.615,4.525,4.525,0,0,1,2.3-.564,4.128,4.128,0,0,1,3.18,1.249,4.8,4.8,0,0,1,1.162,3.4v.1a4.654,4.654,0,0,1-1.166,3.333,4.141,4.141,0,0,1-3.158,1.232,4.184,4.184,0,0,1-3.08-1.149,4.5,4.5,0,0,1-1.254-3.117Zm2.8.175a3.343,3.343,0,0,0,.391,1.826,1.3,1.3,0,0,0,1.154.581q1.494,0,1.527-2.3V70.2q0-2.414-1.545-2.415-1.4,0-1.518,2.083Z" fill="#12263f"/>
        <path id="Path_181988" data-name="Path 181988" d="M937.388,72.786a1.244,1.244,0,0,0,.913-.319,1.175,1.175,0,0,0,.316-.893h2.623A3.1,3.1,0,0,1,940.181,74a3.934,3.934,0,0,1-2.727.946,3.984,3.984,0,0,1-3.087-1.228,4.84,4.84,0,0,1-1.129-3.4V70.2a5.468,5.468,0,0,1,.5-2.4,3.658,3.658,0,0,1,1.449-1.6,4.311,4.311,0,0,1,2.24-.56,3.884,3.884,0,0,1,2.781.971,3.442,3.442,0,0,1,1.03,2.631h-2.623a1.535,1.535,0,0,0-.34-1.07,1.175,1.175,0,0,0-.914-.374q-1.087,0-1.27,1.386a9.71,9.71,0,0,0-.059,1.213,3.833,3.833,0,0,0,.325,1.875,1.119,1.119,0,0,0,1.029.523" fill="#12263f"/>
        <path id="Path_181989" data-name="Path 181989" d="M942.4,63.481a1.25,1.25,0,0,1,.432-.98,1.838,1.838,0,0,1,2.241,0,1.326,1.326,0,0,1,0,1.959,1.83,1.83,0,0,1-2.241,0,1.245,1.245,0,0,1-.432-.979m2.972,11.3h-2.806V65.8h2.806Z" fill="#12263f"/>
        <path id="Path_181990" data-name="Path 181990" d="M949.739,65.8l.092,1.054a3.089,3.089,0,0,1,2.564-1.22,2.274,2.274,0,0,1,2.3,1.353,2.988,2.988,0,0,1,2.64-1.353q2.73,0,2.8,3.3v5.843h-2.8V69.109a1.7,1.7,0,0,0-.233-1,.99.99,0,0,0-.846-.316,1.327,1.327,0,0,0-1.238.739l.009.116v6.134h-2.806V69.126A1.793,1.793,0,0,0,952,68.105a.986.986,0,0,0-.855-.316,1.34,1.34,0,0,0-1.228.739v6.25h-2.8V65.8Z" fill="#12263f"/>
        <path id="Path_181991" data-name="Path 181991" d="M961.718,63.481a1.25,1.25,0,0,1,.431-.98,1.84,1.84,0,0,1,2.242,0,1.328,1.328,0,0,1,0,1.959,1.832,1.832,0,0,1-2.242,0,1.245,1.245,0,0,1-.431-.979m2.971,11.3h-2.806V65.8h2.806Z" fill="#12263f"/>
        <path id="Path_181992" data-name="Path 181992" d="M970.756,74.944a4.616,4.616,0,0,1-3.344-1.232,4.257,4.257,0,0,1-1.28-3.209V70.27a5.518,5.518,0,0,1,.511-2.431,3.74,3.74,0,0,1,1.49-1.631,4.5,4.5,0,0,1,2.325-.577,3.886,3.886,0,0,1,2.988,1.175,4.616,4.616,0,0,1,1.1,3.274v1.087H968.98a2.016,2.016,0,0,0,.656,1.187,1.944,1.944,0,0,0,1.311.432,2.514,2.514,0,0,0,2.076-.93l1.277,1.511a3.559,3.559,0,0,1-1.481,1.15,5,5,0,0,1-2.063.427m-.315-7.155q-1.228,0-1.461,1.627H971.8V69.2a1.386,1.386,0,0,0-.34-1.042,1.356,1.356,0,0,0-1.021-.369" fill="#12263f"/>
        <path id="Path_181993" data-name="Path 181993" d="M978.235,65.8l.092,1.054a3.044,3.044,0,0,1,2.564-1.22,2.558,2.558,0,0,1,2.1.839,4,4,0,0,1,.719,2.523v5.785H980.9V69.109a1.516,1.516,0,0,0-.273-1,1.268,1.268,0,0,0-1-.32,1.334,1.334,0,0,0-1.221.648v6.341h-2.8V65.8Z" fill="#12263f"/>
        <path id="Path_181994" data-name="Path 181994" d="M988.513,63.563V65.8h1.477v1.943h-1.477v4.109a1.053,1.053,0,0,0,.182.705.98.98,0,0,0,.722.2,4.149,4.149,0,0,0,.7-.049v2a5.183,5.183,0,0,1-1.578.24,2.931,2.931,0,0,1-2.133-.681,2.791,2.791,0,0,1-.689-2.067V67.739H984.57V65.8h1.145V63.563Z" fill="#12263f"/>
        <path id="Path_181995" data-name="Path 181995" d="M990.487,70.2a5.282,5.282,0,0,1,.524-2.394,3.718,3.718,0,0,1,1.5-1.615,4.525,4.525,0,0,1,2.3-.564,4.128,4.128,0,0,1,3.18,1.249,4.8,4.8,0,0,1,1.162,3.4v.1a4.654,4.654,0,0,1-1.166,3.333,4.141,4.141,0,0,1-3.158,1.232,4.184,4.184,0,0,1-3.08-1.149,4.5,4.5,0,0,1-1.254-3.117Zm2.8.175a3.343,3.343,0,0,0,.391,1.826,1.3,1.3,0,0,0,1.154.581q1.494,0,1.527-2.3V70.2q0-2.414-1.545-2.415-1.4,0-1.518,2.083Z" fill="#12263f"/>
        <rect id="Rectangle_38066" data-name="Rectangle 38066" width="1.071" height="1.071" transform="translate(960.598 138.548)" fill="#e8e8e8"/>
        <path id="Path_181996" data-name="Path 181996" d="M1198.31,8.434l41.512,52.44a.756.756,0,0,1,0,.974l-41.512,52.431a1.4,1.4,0,0,1-1.1.468H1032.053a1.394,1.394,0,0,1-1.108-.483.753.753,0,0,1,.011-.959l41.126-51.944L1030.956,9.409a.754.754,0,0,1-.011-.96,1.4,1.4,0,0,1,1.108-.483h165.161a1.405,1.405,0,0,1,1.1.468m-123.649,52.44a.756.756,0,0,1,0,.974l-40.37,50.989h162.2l40.756-51.476L1196.487,9.877h-162.2Z" fill="#a8fdff"/>
        <path id="Path_181997" data-name="Path 181997" d="M1237.725,69.814l-41.512,52.431H1031.052l41.512-52.431-41.512-52.439h165.161Z" fill="#42e0e6"/>
        <path id="Path_181998" data-name="Path 181998" d="M1194.911,20.565,1233.653,69.5a.5.5,0,0,1,0,.621l-38.742,48.932a.5.5,0,0,1-.391.189H1038.287a.5.5,0,0,1-.391-.81l38.494-48.62L1037.9,21.186a.5.5,0,0,1,.391-.811H1194.52a.5.5,0,0,1,.391.19M1077.419,69.5a.5.5,0,0,1,0,.621l-38.1,48.12h154.958l38.345-48.431-38.345-48.439H1039.319Z" fill="#a8fdff"/>
        <path id="Path_181999" data-name="Path 181999" d="M1097.8,69.648h-4.582v2.889h5.412v2.241H1090.3V62.692h8.343v2.25h-5.43V67.49h4.582Z" fill="#12263f"/>
        <rect id="Rectangle_38067" data-name="Rectangle 38067" width="2.806" height="12.75" transform="translate(1099.832 62.028)" fill="#12263f"/>
        <path id="Path_182000" data-name="Path 182000" d="M1111.163,65.8l.092,1.054a3.044,3.044,0,0,1,2.564-1.22,2.559,2.559,0,0,1,2.1.839,4,4,0,0,1,.719,2.523v5.785h-2.807V69.109a1.516,1.516,0,0,0-.273-1,1.268,1.268,0,0,0-1-.32,1.334,1.334,0,0,0-1.221.648v6.341h-2.8V65.8Z" fill="#12263f"/>
        <path id="Path_182001" data-name="Path 182001" d="M1122.526,74.944a4.616,4.616,0,0,1-3.344-1.232,4.257,4.257,0,0,1-1.28-3.209V70.27a5.518,5.518,0,0,1,.511-2.431,3.741,3.741,0,0,1,1.49-1.631,4.5,4.5,0,0,1,2.325-.577,3.886,3.886,0,0,1,2.988,1.175,4.616,4.616,0,0,1,1.1,3.274v1.087h-5.562a2.015,2.015,0,0,0,.656,1.187,1.944,1.944,0,0,0,1.311.432,2.514,2.514,0,0,0,2.076-.93l1.277,1.511a3.559,3.559,0,0,1-1.481,1.15,5,5,0,0,1-2.063.427m-.315-7.155q-1.229,0-1.461,1.627h2.822V69.2a1.387,1.387,0,0,0-.34-1.042,1.356,1.356,0,0,0-1.021-.369" fill="#12263f"/>
        <path id="Path_182002" data-name="Path 182002" d="M1127.108,70.221a6.062,6.062,0,0,1,.448-2.408,3.6,3.6,0,0,1,1.287-1.614,3.39,3.39,0,0,1,1.951-.569,2.7,2.7,0,0,1,2.191.947l.1-.781h2.539v8.642a3.786,3.786,0,0,1-.552,2.062,3.537,3.537,0,0,1-1.6,1.345,5.87,5.87,0,0,1-2.424.469,5.046,5.046,0,0,1-1.913-.374,3.438,3.438,0,0,1-1.416-.971l1.17-1.643a2.568,2.568,0,0,0,2.059.921,1.666,1.666,0,0,0,1.859-1.909v-.283a2.624,2.624,0,0,1-2.034.889,3.246,3.246,0,0,1-2.656-1.258,5.208,5.208,0,0,1-1.012-3.365Zm2.8.174a3.191,3.191,0,0,0,.416,1.747,1.309,1.309,0,0,0,1.162.644,1.486,1.486,0,0,0,1.319-.606V68.4a1.45,1.45,0,0,0-1.3-.614,1.316,1.316,0,0,0-1.17.668,3.643,3.643,0,0,0-.424,1.938" fill="#12263f"/>
        <path id="Path_182003" data-name="Path 182003" d="M1142.274,74.778a3.108,3.108,0,0,1-.266-.805,2.6,2.6,0,0,1-2.158.971,3.189,3.189,0,0,1-2.158-.767,2.446,2.446,0,0,1-.889-1.93,2.514,2.514,0,0,1,1.08-2.209,5.5,5.5,0,0,1,3.137-.746h.863v-.476q0-1.244-1.07-1.243a.875.875,0,0,0-1,.984h-2.8a2.508,2.508,0,0,1,1.107-2.114,4.66,4.66,0,0,1,2.827-.812,4.075,4.075,0,0,1,2.714.839,2.914,2.914,0,0,1,1.022,2.3v3.977a4.085,4.085,0,0,0,.381,1.893v.14Zm-1.752-1.826a1.545,1.545,0,0,0,.868-.225,1.382,1.382,0,0,0,.493-.5V70.786h-.812q-1.463,0-1.461,1.311a.8.8,0,0,0,.257.619.932.932,0,0,0,.655.236" fill="#12263f"/>
        <path id="Path_182004" data-name="Path 182004" d="M1149.5,63.563V65.8h1.477v1.943H1149.5v4.109a1.053,1.053,0,0,0,.182.705.98.98,0,0,0,.722.2,4.149,4.149,0,0,0,.7-.049v2a5.184,5.184,0,0,1-1.578.24,2.931,2.931,0,0,1-2.133-.681,2.791,2.791,0,0,1-.689-2.067V67.739h-1.145V65.8h1.145V63.563Z" fill="#12263f"/>
        <path id="Path_182005" data-name="Path 182005" d="M1152.052,63.481a1.249,1.249,0,0,1,.431-.98,1.84,1.84,0,0,1,2.242,0,1.328,1.328,0,0,1,0,1.959,1.832,1.832,0,0,1-2.242,0,1.244,1.244,0,0,1-.431-.979m2.971,11.3h-2.806V65.8h2.806Z" fill="#12263f"/>
        <path id="Path_182006" data-name="Path 182006" d="M1160.328,71.45l1.419-5.653h2.947l-2.929,8.981h-2.856l-2.931-8.981h2.955Z" fill="#12263f"/>
        <path id="Path_182007" data-name="Path 182007" d="M1165.508,63.481a1.25,1.25,0,0,1,.431-.98,1.84,1.84,0,0,1,2.242,0,1.328,1.328,0,0,1,0,1.959,1.832,1.832,0,0,1-2.242,0,1.245,1.245,0,0,1-.431-.979m2.971,11.3h-2.806V65.8h2.806Z" fill="#12263f"/>
        <path id="Path_182008" data-name="Path 182008" d="M1174.9,72.255a.644.644,0,0,0-.373-.572,5.64,5.64,0,0,0-1.42-.449,6.488,6.488,0,0,1-1.727-.61,2.9,2.9,0,0,1-1.037-.918,2.186,2.186,0,0,1-.357-1.236,2.485,2.485,0,0,1,1.021-2.038,4.207,4.207,0,0,1,2.673-.8,4.66,4.66,0,0,1,2.856.806,2.517,2.517,0,0,1,1.079,2.116h-2.806q0-1.08-1.138-1.079a1.128,1.128,0,0,0-.738.245.758.758,0,0,0-.3.61.7.7,0,0,0,.366.606,3.444,3.444,0,0,0,1.166.382,10.053,10.053,0,0,1,1.407.356,2.556,2.556,0,0,1,2.025,2.5,2.354,2.354,0,0,1-1.092,2,4.788,4.788,0,0,1-2.826.771,4.877,4.877,0,0,1-2.058-.415,3.433,3.433,0,0,1-1.411-1.128,2.554,2.554,0,0,1-.506-1.5h2.614a1.079,1.079,0,0,0,.415.909,1.705,1.705,0,0,0,1.021.286,1.337,1.337,0,0,0,.859-.233.74.74,0,0,0,.286-.605" fill="#12263f"/>
        <path id="Path_182009" data-name="Path 182009" d="M1181.553,65.8l.092,1.054a3.089,3.089,0,0,1,2.564-1.22,2.274,2.274,0,0,1,2.3,1.353,2.988,2.988,0,0,1,2.64-1.353q2.73,0,2.8,3.3v5.843h-2.8V69.109a1.7,1.7,0,0,0-.233-1,.99.99,0,0,0-.846-.316,1.327,1.327,0,0,0-1.238.739l.009.116v6.134h-2.806V69.126a1.793,1.793,0,0,0-.224-1.021.987.987,0,0,0-.855-.316,1.34,1.34,0,0,0-1.228.739v6.25h-2.8V65.8Z" fill="#12263f"/>
        <path id="Path_182010" data-name="Path 182010" d="M1193.2,70.2a5.282,5.282,0,0,1,.524-2.394,3.718,3.718,0,0,1,1.5-1.615,4.525,4.525,0,0,1,2.3-.564,4.128,4.128,0,0,1,3.18,1.249,4.8,4.8,0,0,1,1.162,3.4v.1a4.654,4.654,0,0,1-1.166,3.333,4.141,4.141,0,0,1-3.158,1.232,4.184,4.184,0,0,1-3.08-1.149,4.5,4.5,0,0,1-1.254-3.117Zm2.8.175a3.343,3.343,0,0,0,.391,1.826,1.3,1.3,0,0,0,1.154.581q1.494,0,1.527-2.3V70.2q0-2.414-1.545-2.415-1.4,0-1.518,2.083Z" fill="#12263f"/>
        <rect id="Rectangle_38068" data-name="Rectangle 38068" width="1.071" height="1.071" transform="translate(1166.754 0.001)" fill="#e8e8e8"/>
        <path id="Path_182011" data-name="Path 182011" d="M466.877,72.537h5.072v2.241h-7.985V62.692h2.913Z" fill="#12263f"/>
        <path id="Path_182012" data-name="Path 182012" d="M472.7,70.2a5.281,5.281,0,0,1,.524-2.394,3.718,3.718,0,0,1,1.5-1.615,4.525,4.525,0,0,1,2.3-.564,4.128,4.128,0,0,1,3.18,1.249,4.8,4.8,0,0,1,1.162,3.4v.1a4.654,4.654,0,0,1-1.166,3.333,4.142,4.142,0,0,1-3.158,1.232,4.184,4.184,0,0,1-3.08-1.149,4.5,4.5,0,0,1-1.254-3.117Zm2.8.175a3.343,3.343,0,0,0,.391,1.826,1.3,1.3,0,0,0,1.154.581q1.494,0,1.527-2.3V70.2q0-2.414-1.545-2.415-1.4,0-1.518,2.083Z" fill="#12263f"/>
        <path id="Path_182013" data-name="Path 182013" d="M487.3,72.255a.644.644,0,0,0-.373-.572,5.64,5.64,0,0,0-1.42-.449,6.49,6.49,0,0,1-1.727-.61,2.9,2.9,0,0,1-1.037-.918,2.186,2.186,0,0,1-.357-1.236,2.485,2.485,0,0,1,1.021-2.038,4.207,4.207,0,0,1,2.673-.8,4.66,4.66,0,0,1,2.856.806,2.517,2.517,0,0,1,1.079,2.116h-2.806q0-1.08-1.138-1.079a1.129,1.129,0,0,0-.738.245.758.758,0,0,0-.3.61.7.7,0,0,0,.366.606,3.445,3.445,0,0,0,1.166.382,10.052,10.052,0,0,1,1.407.356,2.557,2.557,0,0,1,2.025,2.5,2.354,2.354,0,0,1-1.092,2,4.788,4.788,0,0,1-2.826.771,4.877,4.877,0,0,1-2.058-.415,3.433,3.433,0,0,1-1.411-1.128,2.554,2.554,0,0,1-.506-1.5h2.614a1.079,1.079,0,0,0,.415.909,1.705,1.705,0,0,0,1.021.286,1.338,1.338,0,0,0,.859-.233.74.74,0,0,0,.286-.605" fill="#12263f"/>
        <path id="Path_182014" data-name="Path 182014" d="M500.237,72.255a.644.644,0,0,0-.373-.572,5.64,5.64,0,0,0-1.42-.449,6.49,6.49,0,0,1-1.727-.61,2.9,2.9,0,0,1-1.037-.918,2.185,2.185,0,0,1-.357-1.236,2.485,2.485,0,0,1,1.021-2.038,4.207,4.207,0,0,1,2.673-.8,4.66,4.66,0,0,1,2.856.806,2.517,2.517,0,0,1,1.079,2.116h-2.806q0-1.08-1.138-1.079a1.129,1.129,0,0,0-.738.245.758.758,0,0,0-.3.61.7.7,0,0,0,.366.606,3.444,3.444,0,0,0,1.166.382,10.052,10.052,0,0,1,1.407.356,2.557,2.557,0,0,1,2.025,2.5,2.354,2.354,0,0,1-1.092,2,4.787,4.787,0,0,1-2.826.771,4.877,4.877,0,0,1-2.058-.415,3.433,3.433,0,0,1-1.411-1.128,2.554,2.554,0,0,1-.506-1.5h2.614a1.079,1.079,0,0,0,.415.909,1.705,1.705,0,0,0,1.021.286,1.338,1.338,0,0,0,.859-.233.74.74,0,0,0,.286-.605" fill="#12263f"/>
        <path id="Path_182015" data-name="Path 182015" d="M508.588,74.944a4.616,4.616,0,0,1-3.344-1.232,4.257,4.257,0,0,1-1.28-3.209V70.27a5.518,5.518,0,0,1,.511-2.431,3.74,3.74,0,0,1,1.49-1.631,4.5,4.5,0,0,1,2.325-.577,3.886,3.886,0,0,1,2.988,1.175,4.616,4.616,0,0,1,1.1,3.274v1.087h-5.562a2.016,2.016,0,0,0,.656,1.187,1.944,1.944,0,0,0,1.311.432,2.515,2.515,0,0,0,2.076-.93l1.277,1.511a3.56,3.56,0,0,1-1.481,1.15,5,5,0,0,1-2.063.427m-.315-7.155q-1.229,0-1.461,1.627h2.822V69.2a1.386,1.386,0,0,0-.34-1.042,1.356,1.356,0,0,0-1.021-.369" fill="#12263f"/>
        <path id="Path_182016" data-name="Path 182016" d="M516.067,65.8l.092,1.054a3.044,3.044,0,0,1,2.564-1.22,2.558,2.558,0,0,1,2.1.839,4,4,0,0,1,.719,2.523v5.785h-2.807V69.109a1.516,1.516,0,0,0-.273-1,1.268,1.268,0,0,0-1-.32,1.334,1.334,0,0,0-1.221.648v6.341h-2.8V65.8Z" fill="#12263f"/>
        <path id="Path_182017" data-name="Path 182017" d="M526.345,63.563V65.8h1.477v1.943h-1.477v4.109a1.053,1.053,0,0,0,.182.705.98.98,0,0,0,.722.2,4.149,4.149,0,0,0,.7-.049v2a5.184,5.184,0,0,1-1.578.24,2.931,2.931,0,0,1-2.133-.681,2.79,2.79,0,0,1-.689-2.067V67.739H522.4V65.8h1.145V63.563Z" fill="#12263f"/>
        <path id="Path_182018" data-name="Path 182018" d="M528.9,63.481a1.25,1.25,0,0,1,.432-.98,1.838,1.838,0,0,1,2.241,0,1.326,1.326,0,0,1,0,1.959,1.83,1.83,0,0,1-2.241,0,1.245,1.245,0,0,1-.432-.979m2.972,11.3h-2.806V65.8h2.806Z" fill="#12263f"/>
        <path id="Path_182019" data-name="Path 182019" d="M536.238,65.8l.092,1.054a3.089,3.089,0,0,1,2.564-1.22,2.273,2.273,0,0,1,2.3,1.353,2.988,2.988,0,0,1,2.64-1.353q2.73,0,2.8,3.3v5.843h-2.8V69.109a1.7,1.7,0,0,0-.233-1,.99.99,0,0,0-.846-.316,1.327,1.327,0,0,0-1.238.739l.009.116v6.134H538.72V69.126a1.793,1.793,0,0,0-.224-1.021.986.986,0,0,0-.855-.316,1.34,1.34,0,0,0-1.228.739v6.25h-2.8V65.8Z" fill="#12263f"/>
        <path id="Path_182020" data-name="Path 182020" d="M548.217,63.481a1.25,1.25,0,0,1,.431-.98,1.84,1.84,0,0,1,2.242,0,1.329,1.329,0,0,1,0,1.959,1.832,1.832,0,0,1-2.242,0,1.245,1.245,0,0,1-.431-.979m2.971,11.3h-2.806V65.8h2.806Z" fill="#12263f"/>
        <path id="Path_182021" data-name="Path 182021" d="M557.255,74.944a4.616,4.616,0,0,1-3.344-1.232,4.257,4.257,0,0,1-1.28-3.209V70.27a5.518,5.518,0,0,1,.511-2.431,3.74,3.74,0,0,1,1.49-1.631,4.5,4.5,0,0,1,2.325-.577,3.886,3.886,0,0,1,2.988,1.175,4.616,4.616,0,0,1,1.1,3.274v1.087h-5.562a2.015,2.015,0,0,0,.656,1.187,1.944,1.944,0,0,0,1.311.432,2.514,2.514,0,0,0,2.076-.93l1.277,1.511a3.559,3.559,0,0,1-1.481,1.15,5,5,0,0,1-2.063.427m-.315-7.155q-1.229,0-1.461,1.627H558.3V69.2a1.386,1.386,0,0,0-.34-1.042,1.356,1.356,0,0,0-1.021-.369" fill="#12263f"/>
        <path id="Path_182022" data-name="Path 182022" d="M564.735,65.8l.092,1.054a3.044,3.044,0,0,1,2.564-1.22,2.558,2.558,0,0,1,2.1.839,4,4,0,0,1,.719,2.523v5.785H567.4V69.109a1.516,1.516,0,0,0-.273-1,1.268,1.268,0,0,0-1-.32,1.334,1.334,0,0,0-1.221.648v6.341h-2.8V65.8Z" fill="#12263f"/>
        <path id="Path_182023" data-name="Path 182023" d="M575.013,63.563V65.8h1.477v1.943h-1.477v4.109a1.053,1.053,0,0,0,.182.705.98.98,0,0,0,.722.2,4.149,4.149,0,0,0,.7-.049v2a5.183,5.183,0,0,1-1.578.24,2.931,2.931,0,0,1-2.133-.681,2.791,2.791,0,0,1-.689-2.067V67.739H571.07V65.8h1.145V63.563Z" fill="#12263f"/>
        <path id="Path_182024" data-name="Path 182024" d="M576.987,70.2a5.282,5.282,0,0,1,.524-2.394,3.718,3.718,0,0,1,1.5-1.615,4.525,4.525,0,0,1,2.3-.564,4.128,4.128,0,0,1,3.18,1.249,4.8,4.8,0,0,1,1.162,3.4v.1a4.654,4.654,0,0,1-1.166,3.333,4.141,4.141,0,0,1-3.158,1.232,4.184,4.184,0,0,1-3.08-1.149,4.5,4.5,0,0,1-1.254-3.117Zm2.8.175a3.343,3.343,0,0,0,.391,1.826,1.3,1.3,0,0,0,1.154.581q1.494,0,1.527-2.3V70.2q0-2.414-1.545-2.415-1.4,0-1.518,2.083Z" fill="#12263f"/>
        <path id="Path_182025" data-name="Path 182025" d="M591.588,72.255a.644.644,0,0,0-.373-.572,5.64,5.64,0,0,0-1.42-.449,6.49,6.49,0,0,1-1.727-.61,2.9,2.9,0,0,1-1.037-.918,2.186,2.186,0,0,1-.357-1.236,2.485,2.485,0,0,1,1.021-2.038,4.207,4.207,0,0,1,2.673-.8,4.66,4.66,0,0,1,2.856.806,2.517,2.517,0,0,1,1.079,2.116H591.5q0-1.08-1.138-1.079a1.129,1.129,0,0,0-.738.245.758.758,0,0,0-.3.61.7.7,0,0,0,.366.606,3.445,3.445,0,0,0,1.166.382,10.051,10.051,0,0,1,1.407.356,2.557,2.557,0,0,1,2.025,2.5,2.354,2.354,0,0,1-1.092,2,4.787,4.787,0,0,1-2.826.771,4.877,4.877,0,0,1-2.058-.415A3.433,3.433,0,0,1,586.9,73.4a2.554,2.554,0,0,1-.506-1.5h2.614a1.079,1.079,0,0,0,.415.909,1.705,1.705,0,0,0,1.021.286,1.338,1.338,0,0,0,.859-.233.74.74,0,0,0,.286-.605" fill="#12263f"/>
      </g>
    </g>
  </g>
</svg>
