<svg xmlns="http://www.w3.org/2000/svg" xmlns:xlink="http://www.w3.org/1999/xlink" width="1029.953" height="349.161" viewBox="0 0 1029.953 349.161">
  <defs>
    <clipPath id="clip-path">
      <rect id="Rectangle_38055" data-name="Rectangle 38055" width="1029.953" height="349.161" fill="none"/>
    </clipPath>
  </defs>
  <g id="t2-i2" clip-path="url(#clip-path)">
    <path id="Path_181757" data-name="Path 181757" d="M216.625,58.2H31.128a8.921,8.921,0,0,1-8.911-8.911V8.911A8.922,8.922,0,0,1,31.128,0h185.5a8.921,8.921,0,0,1,8.91,8.911V49.292a8.92,8.92,0,0,1-8.91,8.911M31.128,2.795a6.123,6.123,0,0,0-6.116,6.116V49.292a6.123,6.123,0,0,0,6.116,6.117h185.5a6.123,6.123,0,0,0,6.116-6.117V8.911a6.123,6.123,0,0,0-6.116-6.116Z" transform="translate(2.125)" fill="#a8fdff"/>
    <path id="Path_181758" data-name="Path 181758" d="M453.563,323.763h-185.5a8.921,8.921,0,0,1-8.911-8.911V274.471a8.922,8.922,0,0,1,8.911-8.911h185.5a8.921,8.921,0,0,1,8.91,8.911v40.381a8.92,8.92,0,0,1-8.91,8.911m-185.5-55.408a6.123,6.123,0,0,0-6.116,6.116v40.381a6.123,6.123,0,0,0,6.116,6.117h185.5a6.123,6.123,0,0,0,6.116-6.117V274.471a6.123,6.123,0,0,0-6.116-6.116Z" transform="translate(24.786 25.398)" fill="#ffd48a"/>
    <path id="Path_181759" data-name="Path 181759" d="M52.564,18.083v4.574H51.022V10.973H55.33a4.334,4.334,0,0,1,3.006.98,3.314,3.314,0,0,1,1.087,2.592,3.271,3.271,0,0,1-1.064,2.62,4.52,4.52,0,0,1-3.045.918Zm0-1.259H55.33a2.77,2.77,0,0,0,1.894-.583,2.133,2.133,0,0,0,.658-1.684,2.206,2.206,0,0,0-.658-1.673,2.582,2.582,0,0,0-1.806-.65H52.564Z" transform="translate(4.88 1.049)" fill="#12263f"/>
    <path id="Path_181760" data-name="Path 181760" d="M64.468,15.058a4.467,4.467,0,0,0-.73-.056,1.955,1.955,0,0,0-1.982,1.244v6.163H60.272V13.726h1.444l.024,1a2.312,2.312,0,0,1,2.071-1.162,1.52,1.52,0,0,1,.657.112Z" transform="translate(5.764 1.297)" fill="#12263f"/>
    <path id="Path_181761" data-name="Path 181761" d="M68.845,22.569a3.793,3.793,0,0,1-2.874-1.159,4.3,4.3,0,0,1-1.107-3.1v-.274a5.224,5.224,0,0,1,.493-2.307,3.855,3.855,0,0,1,1.38-1.589,3.477,3.477,0,0,1,1.922-.573,3.253,3.253,0,0,1,2.632,1.115,4.826,4.826,0,0,1,.939,3.193v.619H66.35a3.088,3.088,0,0,0,.749,2.074,2.36,2.36,0,0,0,1.825.791,2.6,2.6,0,0,0,1.333-.321,3.361,3.361,0,0,0,.954-.851l.907.706a3.645,3.645,0,0,1-3.274,1.677m-.185-7.783a1.98,1.98,0,0,0-1.509.654,3.174,3.174,0,0,0-.754,1.834h4.349v-.113a2.83,2.83,0,0,0-.609-1.754,1.867,1.867,0,0,0-1.477-.621" transform="translate(6.204 1.297)" fill="#12263f"/>
    <path id="Path_181762" data-name="Path 181762" d="M72.834,18a5.1,5.1,0,0,1,.939-3.231,3.237,3.237,0,0,1,4.967-.076l.073-.963h1.355V22.2a3.532,3.532,0,0,1-1,2.656,3.69,3.69,0,0,1-2.684.971,4.468,4.468,0,0,1-1.837-.4,3.155,3.155,0,0,1-1.373-1.1l.77-.891a2.9,2.9,0,0,0,2.336,1.18,2.277,2.277,0,0,0,1.689-.61,2.331,2.331,0,0,0,.606-1.716v-.747a3.051,3.051,0,0,1-2.431,1.027,2.964,2.964,0,0,1-2.468-1.228A5.364,5.364,0,0,1,72.834,18m1.492.168a3.884,3.884,0,0,0,.6,2.307,1.954,1.954,0,0,0,1.684.838,2.177,2.177,0,0,0,2.063-1.275V16.07a2.2,2.2,0,0,0-2.046-1.245,1.972,1.972,0,0,0-1.694.844,4.238,4.238,0,0,0-.61,2.495" transform="translate(6.966 1.297)" fill="#12263f"/>
    <path id="Path_181763" data-name="Path 181763" d="M86.935,21.537a3.154,3.154,0,0,1-2.544,1.019,2.7,2.7,0,0,1-2.115-.807,3.492,3.492,0,0,1-.734-2.386v-5.65h1.486v5.611q0,1.974,1.6,1.972a2.22,2.22,0,0,0,2.263-1.267V13.712h1.485v8.683H86.967Z" transform="translate(7.799 1.311)" fill="#12263f"/>
    <path id="Path_181764" data-name="Path 181764" d="M91.244,13.726l.049,1.091a3.158,3.158,0,0,1,2.6-1.251q2.751,0,2.775,3.105v5.738H95.185V16.663a2,2,0,0,0-.43-1.389,1.728,1.728,0,0,0-1.311-.449,2.146,2.146,0,0,0-1.269.385,2.617,2.617,0,0,0-.85,1.012v6.187H89.84V13.726Z" transform="translate(8.592 1.297)" fill="#12263f"/>
    <path id="Path_181765" data-name="Path 181765" d="M100.223,11.793v2.1h1.622v1.148h-1.622v5.391a1.209,1.209,0,0,0,.217.784.916.916,0,0,0,.738.26,3.574,3.574,0,0,0,.707-.1v1.2a4.385,4.385,0,0,1-1.139.159,1.849,1.849,0,0,1-1.5-.6,2.584,2.584,0,0,1-.505-1.709V15.044H97.158V13.9h1.581v-2.1Z" transform="translate(9.292 1.128)" fill="#12263f"/>
    <path id="Path_181766" data-name="Path 181766" d="M108.4,22.409a3.089,3.089,0,0,1-.208-.915,3.311,3.311,0,0,1-2.472,1.076,3.067,3.067,0,0,1-2.107-.726A2.351,2.351,0,0,1,102.79,20a2.456,2.456,0,0,1,1.03-2.107,4.868,4.868,0,0,1,2.9-.749h1.444v-.684a1.665,1.665,0,0,0-.465-1.238,1.868,1.868,0,0,0-1.373-.462,2.164,2.164,0,0,0-1.331.4,1.179,1.179,0,0,0-.538.971h-1.493a2.05,2.05,0,0,1,.462-1.257,3.144,3.144,0,0,1,1.252-.959,4.2,4.2,0,0,1,1.737-.353,3.436,3.436,0,0,1,2.351.749,2.712,2.712,0,0,1,.883,2.067v4a4.878,4.878,0,0,0,.3,1.9v.128Zm-2.463-1.132a2.606,2.606,0,0,0,1.324-.36,2.182,2.182,0,0,0,.906-.939V18.2H107q-2.73,0-2.729,1.6a1.354,1.354,0,0,0,.466,1.091,1.79,1.79,0,0,0,1.2.392" transform="translate(9.831 1.297)" fill="#12263f"/>
    <path id="Path_181767" data-name="Path 181767" d="M116.263,20.106a1.093,1.093,0,0,0-.454-.935,4.364,4.364,0,0,0-1.58-.573,7.45,7.45,0,0,1-1.79-.577,2.55,2.55,0,0,1-.98-.8,1.92,1.92,0,0,1-.317-1.107,2.252,2.252,0,0,1,.9-1.806,3.52,3.52,0,0,1,2.307-.738,3.622,3.622,0,0,1,2.4.764,2.417,2.417,0,0,1,.919,1.949h-1.493a1.336,1.336,0,0,0-.517-1.051,1.938,1.938,0,0,0-1.3-.442,2.027,2.027,0,0,0-1.268.352,1.112,1.112,0,0,0-.457.925.9.9,0,0,0,.424.809,5.167,5.167,0,0,0,1.537.522,8.1,8.1,0,0,1,1.8.595,2.616,2.616,0,0,1,1.023.829A2.04,2.04,0,0,1,117.746,20a2.223,2.223,0,0,1-.93,1.866,3.906,3.906,0,0,1-2.415.7,4.366,4.366,0,0,1-1.846-.369,2.991,2.991,0,0,1-1.256-1.032,2.481,2.481,0,0,1-.454-1.432h1.485a1.539,1.539,0,0,0,.6,1.184,2.325,2.325,0,0,0,1.473.437,2.4,2.4,0,0,0,1.352-.341,1.048,1.048,0,0,0,.509-.912" transform="translate(10.601 1.297)" fill="#12263f"/>
    <path id="Path_181768" data-name="Path 181768" d="M127.71,20.106a1.093,1.093,0,0,0-.454-.935,4.364,4.364,0,0,0-1.58-.573,7.45,7.45,0,0,1-1.79-.577,2.55,2.55,0,0,1-.98-.8,1.92,1.92,0,0,1-.317-1.107,2.252,2.252,0,0,1,.9-1.806,3.52,3.52,0,0,1,2.307-.738,3.622,3.622,0,0,1,2.4.764,2.417,2.417,0,0,1,.919,1.949h-1.493a1.336,1.336,0,0,0-.517-1.051,1.938,1.938,0,0,0-1.3-.442,2.027,2.027,0,0,0-1.268.352,1.112,1.112,0,0,0-.457.925.9.9,0,0,0,.424.809,5.167,5.167,0,0,0,1.537.522,8.1,8.1,0,0,1,1.8.595,2.616,2.616,0,0,1,1.023.829A2.04,2.04,0,0,1,129.193,20a2.223,2.223,0,0,1-.93,1.866,3.906,3.906,0,0,1-2.415.7A4.366,4.366,0,0,1,124,22.2a2.991,2.991,0,0,1-1.256-1.032,2.481,2.481,0,0,1-.454-1.432h1.485a1.539,1.539,0,0,0,.6,1.184,2.325,2.325,0,0,0,1.473.437,2.4,2.4,0,0,0,1.352-.341,1.048,1.048,0,0,0,.509-.912" transform="translate(11.696 1.297)" fill="#12263f"/>
    <path id="Path_181769" data-name="Path 181769" d="M133.993,22.569a3.793,3.793,0,0,1-2.874-1.159,4.3,4.3,0,0,1-1.107-3.1v-.274a5.224,5.224,0,0,1,.493-2.307,3.855,3.855,0,0,1,1.381-1.589,3.477,3.477,0,0,1,1.922-.573,3.253,3.253,0,0,1,2.632,1.115,4.826,4.826,0,0,1,.939,3.193v.619H131.5a3.088,3.088,0,0,0,.749,2.074,2.36,2.36,0,0,0,1.825.791,2.6,2.6,0,0,0,1.333-.321,3.361,3.361,0,0,0,.954-.851l.907.706a3.645,3.645,0,0,1-3.274,1.677m-.185-7.783a1.98,1.98,0,0,0-1.509.654,3.174,3.174,0,0,0-.754,1.834h4.349v-.113a2.829,2.829,0,0,0-.609-1.754,1.867,1.867,0,0,0-1.477-.621" transform="translate(12.434 1.297)" fill="#12263f"/>
    <path id="Path_181770" data-name="Path 181770" d="M139.709,13.726l.049,1.091a3.158,3.158,0,0,1,2.6-1.251q2.751,0,2.775,3.105v5.738H143.65V16.663a2,2,0,0,0-.429-1.389,1.728,1.728,0,0,0-1.311-.449,2.146,2.146,0,0,0-1.269.385,2.618,2.618,0,0,0-.85,1.012v6.187H138.3V13.726Z" transform="translate(13.227 1.297)" fill="#12263f"/>
    <path id="Path_181771" data-name="Path 181771" d="M150.1,21.358a2.142,2.142,0,0,0,1.388-.481,1.711,1.711,0,0,0,.658-1.205h1.4a2.676,2.676,0,0,1-.512,1.421,3.386,3.386,0,0,1-1.265,1.075,3.647,3.647,0,0,1-1.672.4,3.573,3.573,0,0,1-2.82-1.183,4.709,4.709,0,0,1-1.049-3.238V17.9a5.21,5.21,0,0,1,.466-2.255,3.548,3.548,0,0,1,1.337-1.533,3.794,3.794,0,0,1,2.059-.546,3.477,3.477,0,0,1,2.426.874,3.12,3.12,0,0,1,1.031,2.271h-1.4a2.05,2.05,0,0,0-.64-1.385,1.982,1.982,0,0,0-1.414-.541,2.079,2.079,0,0,0-1.754.814,3.826,3.826,0,0,0-.621,2.357v.279a3.751,3.751,0,0,0,.617,2.312,2.09,2.09,0,0,0,1.766.811" transform="translate(13.985 1.297)" fill="#12263f"/>
    <path id="Path_181772" data-name="Path 181772" d="M154.44,11.685a.891.891,0,0,1,.22-.61.832.832,0,0,1,.654-.248.847.847,0,0,1,.658.248.884.884,0,0,1,.225.61.8.8,0,0,1-.883.843.844.844,0,0,1-.654-.24.86.86,0,0,1-.22-.6m1.605,10.986h-1.485V13.988h1.485Z" transform="translate(14.771 1.035)" fill="#12263f"/>
    <rect id="Rectangle_38047" data-name="Rectangle 38047" width="1.485" height="12.326" transform="translate(173.319 11.38)" fill="#12263f"/>
    <rect id="Rectangle_38048" data-name="Rectangle 38048" width="1.485" height="12.326" transform="translate(177.307 11.38)" fill="#12263f"/>
    <path id="Path_181773" data-name="Path 181773" d="M170.736,22.409a3.089,3.089,0,0,1-.208-.915,3.311,3.311,0,0,1-2.472,1.076,3.067,3.067,0,0,1-2.107-.726A2.351,2.351,0,0,1,165.127,20a2.456,2.456,0,0,1,1.03-2.107,4.868,4.868,0,0,1,2.9-.749H170.5v-.684a1.665,1.665,0,0,0-.465-1.238,1.868,1.868,0,0,0-1.373-.462,2.164,2.164,0,0,0-1.331.4,1.179,1.179,0,0,0-.538.971H165.3a2.05,2.05,0,0,1,.462-1.257,3.144,3.144,0,0,1,1.252-.959,4.2,4.2,0,0,1,1.737-.353,3.436,3.436,0,0,1,2.351.749,2.712,2.712,0,0,1,.883,2.067v4a4.878,4.878,0,0,0,.3,1.9v.128Zm-2.463-1.132a2.606,2.606,0,0,0,1.324-.36,2.181,2.181,0,0,0,.906-.939V18.2H169.34q-2.73,0-2.729,1.6a1.354,1.354,0,0,0,.466,1.091,1.79,1.79,0,0,0,1.2.392" transform="translate(15.793 1.297)" fill="#12263f"/>
    <path id="Path_181774" data-name="Path 181774" d="M178.6,20.106a1.093,1.093,0,0,0-.454-.935,4.364,4.364,0,0,0-1.58-.573,7.45,7.45,0,0,1-1.79-.577,2.55,2.55,0,0,1-.98-.8,1.92,1.92,0,0,1-.317-1.107,2.252,2.252,0,0,1,.9-1.806,3.52,3.52,0,0,1,2.307-.738,3.622,3.622,0,0,1,2.4.764A2.417,2.417,0,0,1,180,16.279H178.51a1.336,1.336,0,0,0-.517-1.051,1.938,1.938,0,0,0-1.3-.442,2.027,2.027,0,0,0-1.268.352,1.112,1.112,0,0,0-.457.925.9.9,0,0,0,.424.809,5.167,5.167,0,0,0,1.537.522,8.1,8.1,0,0,1,1.8.595,2.616,2.616,0,0,1,1.023.829A2.04,2.04,0,0,1,180.082,20a2.223,2.223,0,0,1-.93,1.866,3.906,3.906,0,0,1-2.415.7,4.366,4.366,0,0,1-1.846-.369,2.991,2.991,0,0,1-1.256-1.032,2.481,2.481,0,0,1-.454-1.432h1.485a1.539,1.539,0,0,0,.6,1.184,2.325,2.325,0,0,0,1.473.437,2.4,2.4,0,0,0,1.352-.341,1.048,1.048,0,0,0,.509-.912" transform="translate(16.563 1.297)" fill="#12263f"/>
    <path id="Path_181775" data-name="Path 181775" d="M46.056,35.3A5.083,5.083,0,0,1,47,32.085a3.222,3.222,0,0,1,4.894-.172V27.387h1.485V39.713H52.018l-.072-.931a3.023,3.023,0,0,1-2.479,1.091,2.965,2.965,0,0,1-2.46-1.235,5.151,5.151,0,0,1-.951-3.227Zm1.485.168a3.845,3.845,0,0,0,.61,2.311,1.968,1.968,0,0,0,1.685.835A2.165,2.165,0,0,0,51.9,37.346V33.357a2.184,2.184,0,0,0-2.047-1.228,1.98,1.98,0,0,0-1.7.844,4.238,4.238,0,0,0-.61,2.495" transform="translate(4.405 2.619)" fill="#12263f"/>
    <path id="Path_181776" data-name="Path 181776" d="M58.482,39.569a3.793,3.793,0,0,1-2.874-1.159,4.3,4.3,0,0,1-1.107-3.1v-.274A5.224,5.224,0,0,1,55,32.728a3.855,3.855,0,0,1,1.381-1.589,3.477,3.477,0,0,1,1.922-.573,3.253,3.253,0,0,1,2.632,1.115,4.826,4.826,0,0,1,.939,3.193v.619H55.987a3.088,3.088,0,0,0,.749,2.074,2.36,2.36,0,0,0,1.825.791,2.6,2.6,0,0,0,1.333-.321,3.361,3.361,0,0,0,.954-.851l.907.706a3.645,3.645,0,0,1-3.274,1.677M58.3,31.785a1.98,1.98,0,0,0-1.509.654,3.174,3.174,0,0,0-.754,1.834h4.349v-.113a2.829,2.829,0,0,0-.609-1.754,1.867,1.867,0,0,0-1.477-.621" transform="translate(5.213 2.923)" fill="#12263f"/>
    <path id="Path_181777" data-name="Path 181777" d="M67.991,32.082a3.155,3.155,0,0,1,2.568-1.212q2.751,0,2.775,3.106v5.737H71.849V33.967a2,2,0,0,0-.428-1.389,1.728,1.728,0,0,0-1.311-.449,2.143,2.143,0,0,0-1.27.386,2.6,2.6,0,0,0-.849,1.011v6.187H66.506V27.387h1.485Z" transform="translate(6.361 2.619)" fill="#12263f"/>
    <path id="Path_181778" data-name="Path 181778" d="M80.15,39.409a3.089,3.089,0,0,1-.208-.915A3.311,3.311,0,0,1,77.47,39.57a3.067,3.067,0,0,1-2.107-.726A2.351,2.351,0,0,1,74.541,37a2.456,2.456,0,0,1,1.03-2.107,4.868,4.868,0,0,1,2.9-.749h1.444v-.684a1.665,1.665,0,0,0-.465-1.238,1.868,1.868,0,0,0-1.373-.462,2.164,2.164,0,0,0-1.331.4,1.179,1.179,0,0,0-.538.971H74.716a2.05,2.05,0,0,1,.462-1.257,3.144,3.144,0,0,1,1.252-.959,4.2,4.2,0,0,1,1.737-.353,3.436,3.436,0,0,1,2.351.749,2.712,2.712,0,0,1,.883,2.067v4a4.878,4.878,0,0,0,.3,1.9v.128Zm-2.463-1.132a2.606,2.606,0,0,0,1.324-.36,2.181,2.181,0,0,0,.906-.939V35.2H78.754q-2.73,0-2.729,1.6a1.354,1.354,0,0,0,.466,1.091,1.79,1.79,0,0,0,1.2.392" transform="translate(7.129 2.923)" fill="#12263f"/>
    <path id="Path_181779" data-name="Path 181779" d="M86.442,38.358a2.14,2.14,0,0,0,1.388-.481,1.7,1.7,0,0,0,.658-1.205h1.4a2.687,2.687,0,0,1-.513,1.421,3.382,3.382,0,0,1-1.264,1.075,3.649,3.649,0,0,1-1.673.4,3.576,3.576,0,0,1-2.82-1.183,4.709,4.709,0,0,1-1.047-3.238V34.9a5.21,5.21,0,0,1,.466-2.255,3.538,3.538,0,0,1,1.336-1.533,3.8,3.8,0,0,1,2.059-.546,3.482,3.482,0,0,1,2.427.874,3.124,3.124,0,0,1,1.031,2.271h-1.4a2.049,2.049,0,0,0-.639-1.385,1.984,1.984,0,0,0-1.416-.541,2.077,2.077,0,0,0-1.753.814,3.825,3.825,0,0,0-.622,2.357v.279a3.751,3.751,0,0,0,.618,2.312,2.088,2.088,0,0,0,1.765.811" transform="translate(7.897 2.923)" fill="#12263f"/>
    <path id="Path_181780" data-name="Path 181780" d="M94.413,39.569A3.793,3.793,0,0,1,91.54,38.41a4.3,4.3,0,0,1-1.107-3.1v-.274a5.224,5.224,0,0,1,.493-2.307,3.854,3.854,0,0,1,1.381-1.589,3.477,3.477,0,0,1,1.922-.573,3.253,3.253,0,0,1,2.632,1.115,4.826,4.826,0,0,1,.939,3.193v.619H91.918a3.088,3.088,0,0,0,.749,2.074,2.36,2.36,0,0,0,1.825.791,2.6,2.6,0,0,0,1.333-.321,3.361,3.361,0,0,0,.954-.851l.907.706a3.645,3.645,0,0,1-3.274,1.677m-.185-7.783a1.98,1.98,0,0,0-1.509.654,3.174,3.174,0,0,0-.754,1.834h4.349v-.113a2.83,2.83,0,0,0-.609-1.754,1.867,1.867,0,0,0-1.477-.621" transform="translate(8.649 2.923)" fill="#12263f"/>
    <path id="Path_181781" data-name="Path 181781" d="M102.92,32.058a4.467,4.467,0,0,0-.73-.056,1.955,1.955,0,0,0-1.982,1.244v6.163H98.724V30.726h1.444l.024,1a2.312,2.312,0,0,1,2.071-1.162,1.52,1.52,0,0,1,.657.112Z" transform="translate(9.442 2.923)" fill="#12263f"/>
    <path id="Path_181782" data-name="Path 181782" d="M110.437,37.221l2.023-6.508h1.589l-3.491,10.022q-.812,2.166-2.576,2.168l-.28-.025-.554-.1v-1.2l.4.032a1.993,1.993,0,0,0,1.177-.3,2.227,2.227,0,0,0,.692-1.116l.33-.883-3.1-8.585h1.62Z" transform="translate(10.2 2.937)" fill="#12263f"/>
    <path id="Path_181783" data-name="Path 181783" d="M122.52,32.058a4.467,4.467,0,0,0-.73-.056,1.955,1.955,0,0,0-1.982,1.244v6.163h-1.485V30.726h1.444l.024,1a2.312,2.312,0,0,1,2.071-1.162,1.52,1.52,0,0,1,.657.112Z" transform="translate(11.316 2.923)" fill="#12263f"/>
    <path id="Path_181784" data-name="Path 181784" d="M126.9,39.569a3.793,3.793,0,0,1-2.874-1.159,4.3,4.3,0,0,1-1.107-3.1v-.274a5.224,5.224,0,0,1,.493-2.307,3.855,3.855,0,0,1,1.381-1.589,3.477,3.477,0,0,1,1.922-.573,3.253,3.253,0,0,1,2.632,1.115,4.826,4.826,0,0,1,.939,3.193v.619H124.4a3.088,3.088,0,0,0,.749,2.074,2.36,2.36,0,0,0,1.825.791,2.6,2.6,0,0,0,1.333-.321,3.361,3.361,0,0,0,.954-.851l.907.706a3.645,3.645,0,0,1-3.274,1.677m-.185-7.783a1.98,1.98,0,0,0-1.509.654,3.174,3.174,0,0,0-.754,1.834H128.8v-.113a2.829,2.829,0,0,0-.609-1.754,1.867,1.867,0,0,0-1.477-.621" transform="translate(11.756 2.923)" fill="#12263f"/>
    <path id="Path_181785" data-name="Path 181785" d="M136.294,37.106a1.093,1.093,0,0,0-.454-.935,4.364,4.364,0,0,0-1.58-.573,7.45,7.45,0,0,1-1.79-.577,2.55,2.55,0,0,1-.979-.8,1.92,1.92,0,0,1-.317-1.107,2.252,2.252,0,0,1,.9-1.806,3.52,3.52,0,0,1,2.307-.738,3.622,3.622,0,0,1,2.4.764,2.417,2.417,0,0,1,.919,1.949h-1.493a1.336,1.336,0,0,0-.517-1.051,1.938,1.938,0,0,0-1.3-.442,2.027,2.027,0,0,0-1.268.352,1.112,1.112,0,0,0-.457.925.9.9,0,0,0,.424.809,5.167,5.167,0,0,0,1.537.522,8.1,8.1,0,0,1,1.8.595,2.616,2.616,0,0,1,1.023.829A2.04,2.04,0,0,1,137.777,37a2.223,2.223,0,0,1-.93,1.866,3.906,3.906,0,0,1-2.415.7,4.366,4.366,0,0,1-1.846-.369,2.991,2.991,0,0,1-1.256-1.032,2.481,2.481,0,0,1-.454-1.432h1.485a1.539,1.539,0,0,0,.6,1.184,2.325,2.325,0,0,0,1.473.437,2.4,2.4,0,0,0,1.352-.341,1.048,1.048,0,0,0,.509-.912" transform="translate(12.517 2.923)" fill="#12263f"/>
    <path id="Path_181786" data-name="Path 181786" d="M146.275,35.163a5.2,5.2,0,0,1-.906,3.195,2.905,2.905,0,0,1-2.456,1.212,3.176,3.176,0,0,1-2.486-1v4.181h-1.486V30.727H140.3l.072.962a3.06,3.06,0,0,1,2.52-1.123,2.956,2.956,0,0,1,2.475,1.18,5.254,5.254,0,0,1,.91,3.281ZM144.792,35a3.831,3.831,0,0,0-.627-2.318,2.018,2.018,0,0,0-1.717-.852,2.183,2.183,0,0,0-2.021,1.2v4.149a2.183,2.183,0,0,0,2.037,1.188,2.008,2.008,0,0,0,1.7-.847,4.188,4.188,0,0,0,.63-2.516" transform="translate(13.288 2.923)" fill="#12263f"/>
    <path id="Path_181787" data-name="Path 181787" d="M147,34.988a5.138,5.138,0,0,1,.5-2.3,3.749,3.749,0,0,1,1.4-1.572,3.812,3.812,0,0,1,2.042-.553,3.664,3.664,0,0,1,2.869,1.227,4.723,4.723,0,0,1,1.1,3.266v.1a5.166,5.166,0,0,1-.486,2.276,3.7,3.7,0,0,1-1.387,1.569,3.846,3.846,0,0,1-2.075.561,3.65,3.65,0,0,1-2.861-1.228,4.7,4.7,0,0,1-1.1-3.249Zm1.493.175a3.713,3.713,0,0,0,.669,2.319,2.27,2.27,0,0,0,3.592-.012,4.061,4.061,0,0,0,.665-2.483,3.711,3.711,0,0,0-.677-2.315,2.156,2.156,0,0,0-1.8-.887,2.133,2.133,0,0,0-1.773.874,4.037,4.037,0,0,0-.674,2.5" transform="translate(14.059 2.923)" fill="#12263f"/>
    <path id="Path_181788" data-name="Path 181788" d="M157.316,30.726l.049,1.091a3.158,3.158,0,0,1,2.6-1.251q2.751,0,2.775,3.105v5.738h-1.484V33.663a2,2,0,0,0-.429-1.389,1.728,1.728,0,0,0-1.311-.449,2.146,2.146,0,0,0-1.269.385,2.618,2.618,0,0,0-.85,1.012v6.187h-1.485V30.726Z" transform="translate(14.911 2.923)" fill="#12263f"/>
    <path id="Path_181789" data-name="Path 181789" d="M163.859,35.3a5.083,5.083,0,0,1,.948-3.215,3.222,3.222,0,0,1,4.894-.172V27.387h1.485V39.713h-1.364l-.072-.931a3.023,3.023,0,0,1-2.479,1.091,2.965,2.965,0,0,1-2.46-1.235,5.151,5.151,0,0,1-.951-3.227Zm1.485.168a3.845,3.845,0,0,0,.61,2.311,1.968,1.968,0,0,0,1.685.835,2.165,2.165,0,0,0,2.062-1.267V33.357a2.184,2.184,0,0,0-2.047-1.228,1.98,1.98,0,0,0-1.7.844,4.238,4.238,0,0,0-.61,2.495" transform="translate(15.671 2.619)" fill="#12263f"/>
    <path id="Path_181790" data-name="Path 181790" d="M176.284,39.569a3.793,3.793,0,0,1-2.874-1.159,4.3,4.3,0,0,1-1.107-3.1v-.274a5.224,5.224,0,0,1,.493-2.307,3.855,3.855,0,0,1,1.381-1.589,3.477,3.477,0,0,1,1.922-.573,3.253,3.253,0,0,1,2.632,1.115,4.826,4.826,0,0,1,.939,3.193v.619h-5.881a3.088,3.088,0,0,0,.749,2.074,2.36,2.36,0,0,0,1.825.791,2.6,2.6,0,0,0,1.333-.321,3.361,3.361,0,0,0,.954-.851l.907.706a3.645,3.645,0,0,1-3.274,1.677m-.185-7.783a1.98,1.98,0,0,0-1.509.654,3.174,3.174,0,0,0-.754,1.834h4.349v-.113a2.829,2.829,0,0,0-.609-1.754,1.867,1.867,0,0,0-1.477-.621" transform="translate(16.479 2.923)" fill="#12263f"/>
    <path id="Path_181791" data-name="Path 181791" d="M184.79,32.058a4.467,4.467,0,0,0-.73-.056,1.955,1.955,0,0,0-1.982,1.244v6.163h-1.485V30.726h1.444l.024,1a2.312,2.312,0,0,1,2.071-1.162,1.52,1.52,0,0,1,.657.112Z" transform="translate(17.272 2.923)" fill="#12263f"/>
    <path id="Path_181792" data-name="Path 181792" d="M291.994,284.45v4.574h-1.54V277.34h4.308a4.334,4.334,0,0,1,3.006.98,3.318,3.318,0,0,1,1.087,2.592,3.275,3.275,0,0,1-1.064,2.62,4.52,4.52,0,0,1-3.045.918Zm0-1.259h2.768a2.774,2.774,0,0,0,1.894-.583,2.133,2.133,0,0,0,.657-1.684,2.205,2.205,0,0,0-.657-1.673,2.584,2.584,0,0,0-1.806-.65h-2.856Z" transform="translate(27.779 26.525)" fill="#12263f"/>
    <path id="Path_181793" data-name="Path 181793" d="M303.9,281.425a4.462,4.462,0,0,0-.73-.056,1.955,1.955,0,0,0-1.982,1.244v6.163H299.7v-8.683h1.444l.024,1a2.312,2.312,0,0,1,2.071-1.162,1.52,1.52,0,0,1,.657.112Z" transform="translate(28.664 26.773)" fill="#12263f"/>
    <path id="Path_181794" data-name="Path 181794" d="M308.276,288.936a3.793,3.793,0,0,1-2.874-1.159,4.3,4.3,0,0,1-1.107-3.1V284.4a5.224,5.224,0,0,1,.493-2.307,3.855,3.855,0,0,1,1.38-1.589,3.477,3.477,0,0,1,1.922-.573,3.253,3.253,0,0,1,2.632,1.115,4.826,4.826,0,0,1,.939,3.193v.619h-5.881a3.088,3.088,0,0,0,.749,2.074,2.36,2.36,0,0,0,1.825.791,2.6,2.6,0,0,0,1.333-.321,3.361,3.361,0,0,0,.954-.851l.907.706a3.645,3.645,0,0,1-3.274,1.677m-.185-7.783a1.98,1.98,0,0,0-1.509.654,3.174,3.174,0,0,0-.754,1.834h4.349v-.113a2.83,2.83,0,0,0-.609-1.754,1.867,1.867,0,0,0-1.477-.621" transform="translate(29.103 26.773)" fill="#12263f"/>
    <path id="Path_181795" data-name="Path 181795" d="M312.266,284.363a5.1,5.1,0,0,1,.939-3.231,3.237,3.237,0,0,1,4.967-.076l.073-.963H319.6v8.475a3.532,3.532,0,0,1-1,2.656,3.69,3.69,0,0,1-2.684.971,4.468,4.468,0,0,1-1.837-.4,3.155,3.155,0,0,1-1.373-1.1l.77-.891a2.9,2.9,0,0,0,2.336,1.18,2.277,2.277,0,0,0,1.69-.61,2.332,2.332,0,0,0,.606-1.716v-.747a3.051,3.051,0,0,1-2.431,1.027,2.964,2.964,0,0,1-2.468-1.228,5.364,5.364,0,0,1-.942-3.345m1.492.168a3.884,3.884,0,0,0,.6,2.307,1.954,1.954,0,0,0,1.684.838,2.177,2.177,0,0,0,2.063-1.275v-3.964a2.2,2.2,0,0,0-2.046-1.245,1.972,1.972,0,0,0-1.694.844,4.238,4.238,0,0,0-.61,2.495" transform="translate(29.865 26.773)" fill="#12263f"/>
    <path id="Path_181796" data-name="Path 181796" d="M326.366,287.9a3.154,3.154,0,0,1-2.544,1.019,2.7,2.7,0,0,1-2.115-.807,3.492,3.492,0,0,1-.734-2.386v-5.65h1.486v5.611q0,1.974,1.6,1.972a2.22,2.22,0,0,0,2.263-1.267v-6.316h1.485v8.683H326.4Z" transform="translate(30.698 26.787)" fill="#12263f"/>
    <path id="Path_181797" data-name="Path 181797" d="M330.675,280.094l.049,1.091a3.158,3.158,0,0,1,2.6-1.251q2.751,0,2.775,3.105v5.738h-1.484v-5.746a2,2,0,0,0-.429-1.389,1.728,1.728,0,0,0-1.311-.449,2.146,2.146,0,0,0-1.269.385,2.617,2.617,0,0,0-.85,1.012v6.187h-1.485v-8.683Z" transform="translate(31.491 26.773)" fill="#12263f"/>
    <path id="Path_181798" data-name="Path 181798" d="M339.654,278.161v2.1h1.622v1.148h-1.622V286.8a1.209,1.209,0,0,0,.217.784.916.916,0,0,0,.738.26,3.576,3.576,0,0,0,.707-.1v1.2a4.387,4.387,0,0,1-1.139.159,1.849,1.849,0,0,1-1.5-.6,2.584,2.584,0,0,1-.505-1.709v-5.384h-1.581v-1.148h1.581v-2.1Z" transform="translate(32.191 26.603)" fill="#12263f"/>
    <path id="Path_181799" data-name="Path 181799" d="M347.83,288.776a3.089,3.089,0,0,1-.208-.915,3.311,3.311,0,0,1-2.472,1.076,3.067,3.067,0,0,1-2.107-.726,2.351,2.351,0,0,1-.822-1.842,2.456,2.456,0,0,1,1.03-2.107,4.868,4.868,0,0,1,2.9-.749H347.6v-.684a1.665,1.665,0,0,0-.465-1.238,1.868,1.868,0,0,0-1.373-.462,2.164,2.164,0,0,0-1.331.4,1.179,1.179,0,0,0-.538.971H342.4a2.05,2.05,0,0,1,.462-1.257,3.144,3.144,0,0,1,1.252-.959,4.2,4.2,0,0,1,1.737-.353,3.436,3.436,0,0,1,2.351.749,2.711,2.711,0,0,1,.883,2.067v4a4.879,4.879,0,0,0,.3,1.9v.128Zm-2.463-1.132a2.606,2.606,0,0,0,1.324-.36,2.182,2.182,0,0,0,.906-.939v-1.783h-1.162q-2.73,0-2.729,1.6a1.354,1.354,0,0,0,.466,1.091,1.79,1.79,0,0,0,1.2.392" transform="translate(32.73 26.773)" fill="#12263f"/>
    <path id="Path_181800" data-name="Path 181800" d="M355.694,286.474a1.094,1.094,0,0,0-.454-.936,4.364,4.364,0,0,0-1.58-.573,7.45,7.45,0,0,1-1.79-.577,2.557,2.557,0,0,1-.979-.8,1.926,1.926,0,0,1-.317-1.108,2.254,2.254,0,0,1,.9-1.806,3.526,3.526,0,0,1,2.307-.738,3.627,3.627,0,0,1,2.4.764,2.418,2.418,0,0,1,.919,1.949h-1.493a1.338,1.338,0,0,0-.517-1.051,1.937,1.937,0,0,0-1.3-.442,2.027,2.027,0,0,0-1.268.353,1.11,1.11,0,0,0-.457.924.9.9,0,0,0,.424.81,5.206,5.206,0,0,0,1.537.52,8.1,8.1,0,0,1,1.8.595,2.617,2.617,0,0,1,1.023.83,2.036,2.036,0,0,1,.332,1.183,2.223,2.223,0,0,1-.93,1.866,3.907,3.907,0,0,1-2.415.7,4.366,4.366,0,0,1-1.846-.369,3,3,0,0,1-1.256-1.031,2.486,2.486,0,0,1-.454-1.433h1.485a1.537,1.537,0,0,0,.6,1.184,2.319,2.319,0,0,0,1.473.438,2.4,2.4,0,0,0,1.352-.342,1.048,1.048,0,0,0,.509-.91" transform="translate(33.5 26.773)" fill="#12263f"/>
    <path id="Path_181801" data-name="Path 181801" d="M367.418,287.9a3.154,3.154,0,0,1-2.544,1.019,2.7,2.7,0,0,1-2.115-.807,3.492,3.492,0,0,1-.734-2.386v-5.65h1.486v5.611q0,1.974,1.6,1.972a2.22,2.22,0,0,0,2.262-1.267v-6.316h1.485v8.683H367.45Z" transform="translate(34.624 26.787)" fill="#12263f"/>
    <path id="Path_181802" data-name="Path 181802" d="M371.728,280.094l.049,1.091a3.158,3.158,0,0,1,2.6-1.251q2.751,0,2.775,3.105v5.738h-1.483v-5.746a2,2,0,0,0-.43-1.389,1.728,1.728,0,0,0-1.311-.449,2.146,2.146,0,0,0-1.269.385,2.618,2.618,0,0,0-.85,1.012v6.187h-1.485v-8.683Z" transform="translate(35.418 26.773)" fill="#12263f"/>
    <path id="Path_181803" data-name="Path 181803" d="M389.648,284.53a5.2,5.2,0,0,1-.906,3.195,2.906,2.906,0,0,1-2.456,1.212,3.176,3.176,0,0,1-2.486-1v4.181h-1.486v-12.02h1.356l.072.962a3.06,3.06,0,0,1,2.52-1.123,2.956,2.956,0,0,1,2.475,1.18,5.254,5.254,0,0,1,.91,3.281Zm-1.484-.168a3.831,3.831,0,0,0-.627-2.318,2.018,2.018,0,0,0-1.717-.852,2.183,2.183,0,0,0-2.021,1.2v4.149a2.183,2.183,0,0,0,2.037,1.188,2.008,2.008,0,0,0,1.7-.847,4.188,4.188,0,0,0,.63-2.516" transform="translate(36.564 26.773)" fill="#12263f"/>
    <path id="Path_181804" data-name="Path 181804" d="M390.37,284.355a5.139,5.139,0,0,1,.5-2.3,3.749,3.749,0,0,1,1.4-1.572,3.812,3.812,0,0,1,2.042-.553,3.664,3.664,0,0,1,2.869,1.227,4.723,4.723,0,0,1,1.1,3.266v.1a5.166,5.166,0,0,1-.486,2.276,3.7,3.7,0,0,1-1.387,1.569,3.846,3.846,0,0,1-2.075.561,3.65,3.65,0,0,1-2.861-1.228,4.7,4.7,0,0,1-1.1-3.249Zm1.493.175a3.713,3.713,0,0,0,.669,2.319,2.27,2.27,0,0,0,3.592-.012,4.061,4.061,0,0,0,.665-2.483,3.711,3.711,0,0,0-.677-2.315,2.157,2.157,0,0,0-1.8-.887,2.133,2.133,0,0,0-1.773.874,4.037,4.037,0,0,0-.674,2.5" transform="translate(37.335 26.773)" fill="#12263f"/>
    <path id="Path_181805" data-name="Path 181805" d="M402.8,287.725a2.14,2.14,0,0,0,1.388-.481,1.7,1.7,0,0,0,.659-1.205h1.4a2.686,2.686,0,0,1-.513,1.421,3.382,3.382,0,0,1-1.264,1.075,3.648,3.648,0,0,1-1.673.4,3.576,3.576,0,0,1-2.82-1.183,4.709,4.709,0,0,1-1.047-3.238v-.249a5.211,5.211,0,0,1,.466-2.255,3.539,3.539,0,0,1,1.336-1.533,3.8,3.8,0,0,1,2.059-.546,3.482,3.482,0,0,1,2.427.874,3.125,3.125,0,0,1,1.031,2.271h-1.4a2.049,2.049,0,0,0-.639-1.385,1.984,1.984,0,0,0-1.416-.541,2.077,2.077,0,0,0-1.753.814,3.826,3.826,0,0,0-.622,2.357v.279a3.751,3.751,0,0,0,.618,2.312,2.088,2.088,0,0,0,1.765.811" transform="translate(38.154 26.773)" fill="#12263f"/>
    <path id="Path_181806" data-name="Path 181806" d="M406.776,284.355a5.138,5.138,0,0,1,.5-2.3,3.748,3.748,0,0,1,1.4-1.572,3.812,3.812,0,0,1,2.042-.553,3.664,3.664,0,0,1,2.869,1.227,4.724,4.724,0,0,1,1.1,3.266v.1a5.166,5.166,0,0,1-.486,2.276,3.7,3.7,0,0,1-1.387,1.569,3.846,3.846,0,0,1-2.075.561,3.65,3.65,0,0,1-2.861-1.228,4.7,4.7,0,0,1-1.1-3.249Zm1.493.175a3.713,3.713,0,0,0,.669,2.319,2.27,2.27,0,0,0,3.592-.012,4.061,4.061,0,0,0,.665-2.483,3.711,3.711,0,0,0-.677-2.315,2.157,2.157,0,0,0-1.8-.887,2.133,2.133,0,0,0-1.773.874,4.037,4.037,0,0,0-.674,2.5" transform="translate(38.904 26.773)" fill="#12263f"/>
    <path id="Path_181807" data-name="Path 181807" d="M285.266,297.094l.039.963a3.206,3.206,0,0,1,2.577-1.123,2.482,2.482,0,0,1,2.479,1.4,3.291,3.291,0,0,1,1.127-1.011,3.338,3.338,0,0,1,1.641-.385q2.856,0,2.9,3.024v5.819H294.55v-5.73a1.99,1.99,0,0,0-.425-1.391,1.872,1.872,0,0,0-1.429-.462,1.962,1.962,0,0,0-1.372.494,2,2,0,0,0-.634,1.328v5.762H289.2v-5.691a1.657,1.657,0,0,0-1.854-1.893,1.987,1.987,0,0,0-2,1.245v6.339h-1.485v-8.683Z" transform="translate(27.148 28.399)" fill="#12263f"/>
    <path id="Path_181808" data-name="Path 181808" d="M302.4,306.079a3.09,3.09,0,0,1-.208-.915,3.311,3.311,0,0,1-2.472,1.076,3.067,3.067,0,0,1-2.107-.726,2.351,2.351,0,0,1-.822-1.842,2.456,2.456,0,0,1,1.03-2.107,4.868,4.868,0,0,1,2.9-.749h1.444v-.683a1.666,1.666,0,0,0-.465-1.239,1.872,1.872,0,0,0-1.373-.462,2.164,2.164,0,0,0-1.331.4,1.179,1.179,0,0,0-.538.971h-1.493a2.05,2.05,0,0,1,.462-1.257,3.144,3.144,0,0,1,1.252-.959,4.2,4.2,0,0,1,1.738-.353,3.435,3.435,0,0,1,2.35.751,2.709,2.709,0,0,1,.883,2.066v4a4.877,4.877,0,0,0,.3,1.9v.128Zm-2.463-1.132a2.606,2.606,0,0,0,1.324-.36,2.186,2.186,0,0,0,.906-.938v-1.783H301q-2.728,0-2.729,1.6a1.355,1.355,0,0,0,.466,1.091,1.79,1.79,0,0,0,1.2.392m1.372-11.178h1.8l-2.151,2.359-1.2,0Z" transform="translate(28.385 28.096)" fill="#12263f"/>
    <path id="Path_181809" data-name="Path 181809" d="M310.263,303.474a1.094,1.094,0,0,0-.454-.936,4.365,4.365,0,0,0-1.58-.573,7.45,7.45,0,0,1-1.79-.577,2.558,2.558,0,0,1-.979-.8,1.926,1.926,0,0,1-.317-1.108,2.254,2.254,0,0,1,.9-1.806,3.526,3.526,0,0,1,2.307-.738,3.627,3.627,0,0,1,2.4.764,2.418,2.418,0,0,1,.919,1.949h-1.493a1.338,1.338,0,0,0-.517-1.051,1.938,1.938,0,0,0-1.3-.442,2.028,2.028,0,0,0-1.268.353,1.11,1.11,0,0,0-.457.924.9.9,0,0,0,.424.81,5.2,5.2,0,0,0,1.537.52,8.1,8.1,0,0,1,1.8.595,2.618,2.618,0,0,1,1.023.83,2.036,2.036,0,0,1,.332,1.183,2.223,2.223,0,0,1-.93,1.866,3.907,3.907,0,0,1-2.415.7,4.366,4.366,0,0,1-1.846-.369,3,3,0,0,1-1.256-1.031,2.486,2.486,0,0,1-.454-1.433h1.485a1.537,1.537,0,0,0,.6,1.184,2.319,2.319,0,0,0,1.473.438,2.4,2.4,0,0,0,1.352-.342,1.048,1.048,0,0,0,.509-.91" transform="translate(29.155 28.399)" fill="#12263f"/>
    <path id="Path_181810" data-name="Path 181810" d="M320.14,304.725a2.142,2.142,0,0,0,1.388-.481,1.7,1.7,0,0,0,.657-1.205h1.4a2.686,2.686,0,0,1-.513,1.421,3.386,3.386,0,0,1-1.265,1.075,3.641,3.641,0,0,1-1.672.4,3.576,3.576,0,0,1-2.82-1.183,4.709,4.709,0,0,1-1.049-3.238v-.249a5.211,5.211,0,0,1,.467-2.255,3.529,3.529,0,0,1,1.335-1.533,3.8,3.8,0,0,1,2.059-.546,3.48,3.48,0,0,1,2.427.874,3.125,3.125,0,0,1,1.032,2.271h-1.4a2.049,2.049,0,0,0-.639-1.385,1.984,1.984,0,0,0-1.416-.541,2.079,2.079,0,0,0-1.753.814,3.825,3.825,0,0,0-.622,2.357v.279a3.751,3.751,0,0,0,.618,2.312,2.089,2.089,0,0,0,1.766.811" transform="translate(30.248 28.399)" fill="#12263f"/>
    <path id="Path_181811" data-name="Path 181811" d="M324.115,301.355a5.138,5.138,0,0,1,.5-2.3,3.749,3.749,0,0,1,1.4-1.572,3.812,3.812,0,0,1,2.042-.553,3.664,3.664,0,0,1,2.869,1.227,4.723,4.723,0,0,1,1.1,3.266v.1a5.166,5.166,0,0,1-.486,2.276,3.7,3.7,0,0,1-1.387,1.569,3.846,3.846,0,0,1-2.075.561,3.65,3.65,0,0,1-2.861-1.228,4.7,4.7,0,0,1-1.1-3.249Zm1.493.175a3.713,3.713,0,0,0,.669,2.319,2.27,2.27,0,0,0,3.592-.012,4.061,4.061,0,0,0,.665-2.483,3.711,3.711,0,0,0-.677-2.315,2.157,2.157,0,0,0-1.8-.887,2.133,2.133,0,0,0-1.773.874,4.037,4.037,0,0,0-.674,2.5" transform="translate(30.998 28.399)" fill="#12263f"/>
    <path id="Path_181812" data-name="Path 181812" d="M334.426,297.094l.039.963a3.206,3.206,0,0,1,2.577-1.123,2.482,2.482,0,0,1,2.479,1.4,3.29,3.29,0,0,1,1.127-1.011,3.337,3.337,0,0,1,1.641-.385q2.856,0,2.9,3.024v5.819H343.71v-5.73a1.99,1.99,0,0,0-.425-1.391,1.872,1.872,0,0,0-1.429-.462,1.962,1.962,0,0,0-1.372.494,2,2,0,0,0-.634,1.328v5.762h-1.492v-5.691a1.657,1.657,0,0,0-1.854-1.893,1.987,1.987,0,0,0-2,1.245v6.339h-1.485v-8.683Z" transform="translate(31.85 28.399)" fill="#12263f"/>
    <path id="Path_181813" data-name="Path 181813" d="M353.509,301.53a5.2,5.2,0,0,1-.906,3.195,2.906,2.906,0,0,1-2.456,1.212,3.176,3.176,0,0,1-2.486-1v4.181h-1.486v-12.02h1.356l.072.962a3.06,3.06,0,0,1,2.52-1.123,2.956,2.956,0,0,1,2.475,1.18,5.254,5.254,0,0,1,.91,3.281Zm-1.483-.168a3.831,3.831,0,0,0-.627-2.318,2.018,2.018,0,0,0-1.717-.852,2.183,2.183,0,0,0-2.021,1.2v4.149a2.183,2.183,0,0,0,2.037,1.188,2.008,2.008,0,0,0,1.7-.847,4.188,4.188,0,0,0,.63-2.516" transform="translate(33.108 28.399)" fill="#12263f"/>
    <path id="Path_181814" data-name="Path 181814" d="M358.788,298.425a4.462,4.462,0,0,0-.73-.056,1.955,1.955,0,0,0-1.982,1.244v6.163h-1.485v-8.683h1.444l.024,1a2.312,2.312,0,0,1,2.071-1.162,1.52,1.52,0,0,1,.657.112Z" transform="translate(33.913 28.399)" fill="#12263f"/>
    <path id="Path_181815" data-name="Path 181815" d="M359.162,301.355a5.138,5.138,0,0,1,.5-2.3,3.749,3.749,0,0,1,1.4-1.572,3.812,3.812,0,0,1,2.042-.553,3.664,3.664,0,0,1,2.87,1.227,4.724,4.724,0,0,1,1.1,3.266v.1a5.166,5.166,0,0,1-.486,2.276,3.7,3.7,0,0,1-1.387,1.569,3.846,3.846,0,0,1-2.075.561,3.651,3.651,0,0,1-2.861-1.228,4.7,4.7,0,0,1-1.1-3.249Zm1.493.175a3.713,3.713,0,0,0,.669,2.319,2.27,2.27,0,0,0,3.592-.012,4.061,4.061,0,0,0,.665-2.483,3.711,3.711,0,0,0-.677-2.315,2.157,2.157,0,0,0-1.8-.887,2.133,2.133,0,0,0-1.773.874,4.037,4.037,0,0,0-.674,2.5" transform="translate(34.35 28.399)" fill="#12263f"/>
    <path id="Path_181816" data-name="Path 181816" d="M369.473,297.094l.039.963a3.206,3.206,0,0,1,2.577-1.123,2.482,2.482,0,0,1,2.479,1.4,3.291,3.291,0,0,1,1.127-1.011,3.338,3.338,0,0,1,1.641-.385q2.856,0,2.9,3.024v5.819h-1.485v-5.73a1.99,1.99,0,0,0-.425-1.391,1.872,1.872,0,0,0-1.429-.462,1.962,1.962,0,0,0-1.372.494,2,2,0,0,0-.634,1.328v5.762H373.4v-5.691a1.657,1.657,0,0,0-1.854-1.893,1.987,1.987,0,0,0-2,1.245v6.339h-1.485v-8.683Z" transform="translate(35.202 28.399)" fill="#12263f"/>
    <path id="Path_181817" data-name="Path 181817" d="M384.858,305.936a3.793,3.793,0,0,1-2.874-1.159,4.3,4.3,0,0,1-1.107-3.1V301.4a5.224,5.224,0,0,1,.493-2.307,3.855,3.855,0,0,1,1.381-1.589,3.477,3.477,0,0,1,1.922-.573,3.253,3.253,0,0,1,2.632,1.115,4.826,4.826,0,0,1,.939,3.193v.619h-5.881a3.088,3.088,0,0,0,.749,2.074,2.36,2.36,0,0,0,1.825.791,2.6,2.6,0,0,0,1.333-.321,3.362,3.362,0,0,0,.954-.851l.907.706a3.645,3.645,0,0,1-3.274,1.677m-.185-7.783a1.98,1.98,0,0,0-1.509.654,3.174,3.174,0,0,0-.754,1.834h4.349v-.113a2.829,2.829,0,0,0-.609-1.754,1.867,1.867,0,0,0-1.477-.621" transform="translate(36.427 28.399)" fill="#12263f"/>
    <path id="Path_181818" data-name="Path 181818" d="M391.276,295.161v2.1h1.62v1.148h-1.62V303.8a1.2,1.2,0,0,0,.217.784.914.914,0,0,0,.737.26,3.6,3.6,0,0,0,.708-.1v1.2a4.4,4.4,0,0,1-1.141.159,1.845,1.845,0,0,1-1.5-.6,2.578,2.578,0,0,1-.505-1.709v-5.384H388.21v-1.148h1.582v-2.1Z" transform="translate(37.128 28.229)" fill="#12263f"/>
    <path id="Path_181819" data-name="Path 181819" d="M394.077,295.052a.887.887,0,0,1,.22-.61.832.832,0,0,1,.654-.248.844.844,0,0,1,.657.248.881.881,0,0,1,.225.61.847.847,0,0,1-.225.6.857.857,0,0,1-.657.24.844.844,0,0,1-.654-.24.853.853,0,0,1-.22-.6m1.605,10.986H394.2v-8.683h1.485Z" transform="translate(37.689 28.137)" fill="#12263f"/>
    <path id="Path_181820" data-name="Path 181820" d="M397.379,301.667a5.083,5.083,0,0,1,.948-3.215,3.222,3.222,0,0,1,4.894-.172v-4.526h1.485V306.08h-1.364l-.072-.931a3.023,3.023,0,0,1-2.479,1.091,2.965,2.965,0,0,1-2.46-1.235,5.151,5.151,0,0,1-.951-3.227Zm1.485.168a3.845,3.845,0,0,0,.61,2.311,1.968,1.968,0,0,0,1.685.835,2.165,2.165,0,0,0,2.062-1.267v-3.989a2.184,2.184,0,0,0-2.047-1.228,1.98,1.98,0,0,0-1.7.844,4.238,4.238,0,0,0-.61,2.495" transform="translate(38.005 28.095)" fill="#12263f"/>
    <path id="Path_181821" data-name="Path 181821" d="M411.551,305.776a3.089,3.089,0,0,1-.208-.915,3.311,3.311,0,0,1-2.472,1.076,3.067,3.067,0,0,1-2.107-.726,2.351,2.351,0,0,1-.822-1.842,2.456,2.456,0,0,1,1.03-2.107,4.868,4.868,0,0,1,2.9-.749h1.444v-.684a1.665,1.665,0,0,0-.465-1.238,1.868,1.868,0,0,0-1.373-.462,2.164,2.164,0,0,0-1.331.4,1.179,1.179,0,0,0-.538.971h-1.493a2.051,2.051,0,0,1,.462-1.257,3.144,3.144,0,0,1,1.252-.959,4.2,4.2,0,0,1,1.737-.353,3.436,3.436,0,0,1,2.351.749,2.712,2.712,0,0,1,.883,2.067v4a4.877,4.877,0,0,0,.3,1.9v.128Zm-2.463-1.132a2.606,2.606,0,0,0,1.324-.36,2.182,2.182,0,0,0,.906-.939v-1.783h-1.162q-2.73,0-2.729,1.6a1.354,1.354,0,0,0,.466,1.091,1.79,1.79,0,0,0,1.2.392" transform="translate(38.824 28.399)" fill="#12263f"/>
    <path id="Path_181822" data-name="Path 181822" d="M419.415,303.474a1.094,1.094,0,0,0-.454-.936,4.365,4.365,0,0,0-1.58-.573,7.449,7.449,0,0,1-1.79-.577,2.558,2.558,0,0,1-.979-.8,1.926,1.926,0,0,1-.317-1.108,2.254,2.254,0,0,1,.9-1.806,3.526,3.526,0,0,1,2.307-.738,3.628,3.628,0,0,1,2.4.764,2.418,2.418,0,0,1,.919,1.949h-1.493a1.338,1.338,0,0,0-.517-1.051,1.938,1.938,0,0,0-1.3-.442,2.028,2.028,0,0,0-1.268.353,1.11,1.11,0,0,0-.457.924.9.9,0,0,0,.424.81,5.2,5.2,0,0,0,1.537.52,8.1,8.1,0,0,1,1.8.595,2.618,2.618,0,0,1,1.023.83,2.036,2.036,0,0,1,.332,1.183,2.223,2.223,0,0,1-.93,1.866,3.906,3.906,0,0,1-2.415.7,4.366,4.366,0,0,1-1.846-.369,3,3,0,0,1-1.256-1.031A2.486,2.486,0,0,1,414,303.1h1.485a1.537,1.537,0,0,0,.6,1.184,2.319,2.319,0,0,0,1.473.438,2.4,2.4,0,0,0,1.352-.342,1.048,1.048,0,0,0,.509-.91" transform="translate(39.595 28.399)" fill="#12263f"/>
    <path id="Path_181823" data-name="Path 181823" d="M441.217,226.724H238.334a1.53,1.53,0,0,1-1.214-.528.826.826,0,0,1,.012-1.052l45.059-56.921-45.059-56.912a.826.826,0,0,1-.012-1.052,1.53,1.53,0,0,1,1.214-.528H441.217a1.537,1.537,0,0,1,1.2.513L487.9,167.69a.828.828,0,0,1,0,1.067l-45.483,57.454a1.536,1.536,0,0,1-1.2.513m-200.43-2.093H440.421l44.654-56.408-44.654-56.4H240.787l44.23,55.866a.828.828,0,0,1,0,1.067Z" transform="translate(22.661 10.495)" fill="#ffd48a"/>
    <path id="Path_181824" data-name="Path 181824" d="M485.577,159.68l-45.482-57.445H237.211l45.483,57.445-45.483,57.454H440.095Z" transform="translate(22.687 9.778)" fill="#f9b131"/>
    <path id="Path_181825" data-name="Path 181825" d="M437.6,213.561h-193.1a.548.548,0,0,1-.429-.889l42.177-53.279-42.176-53.271a.548.548,0,0,1,.43-.887H437.6a.548.548,0,0,1,.428.207l42.447,53.612a.548.548,0,0,1,0,.68l-42.447,53.62a.548.548,0,0,1-.428.207m-191.97-1.1H437.331l42.012-53.071-42.012-53.064h-191.7l41.743,52.722a.548.548,0,0,1,0,.68Z" transform="translate(23.331 10.065)" fill="#ffe1ad"/>
    <path id="Path_181826" data-name="Path 181826" d="M313.289,156.587v5.286h-3.756V146.295h6.217a7.234,7.234,0,0,1,3.162.658,4.946,4.946,0,0,1,2.129,1.872,5.113,5.113,0,0,1,.755,2.754,4.5,4.5,0,0,1-1.633,3.643,6.77,6.77,0,0,1-4.477,1.364Zm0-2.9h2.461a2.324,2.324,0,0,0,1.664-.546,2.028,2.028,0,0,0,.572-1.54,2.507,2.507,0,0,0-.588-1.744,2.084,2.084,0,0,0-1.605-.664h-2.5Z" transform="translate(29.604 13.992)" fill="#12263f"/>
    <path id="Path_181827" data-name="Path 181827" d="M329.4,153.23l-1.188-.085a2.133,2.133,0,0,0-2.183,1.069v7.33h-3.606V149.966h3.381l.117,1.488a2.794,2.794,0,0,1,2.536-1.7,3.528,3.528,0,0,1,1.006.128Z" transform="translate(30.837 14.322)" fill="#12263f"/>
    <path id="Path_181828" data-name="Path 181828" d="M329.211,155.648a6.831,6.831,0,0,1,.674-3.086,4.817,4.817,0,0,1,1.937-2.082,5.84,5.84,0,0,1,2.964-.728,5.321,5.321,0,0,1,4.1,1.611,6.178,6.178,0,0,1,1.5,4.381v.128a6,6,0,0,1-1.5,4.3,5.337,5.337,0,0,1-4.071,1.589,5.4,5.4,0,0,1-3.969-1.481,5.8,5.8,0,0,1-1.615-4.018Zm3.606.225a4.305,4.305,0,0,0,.5,2.353,1.675,1.675,0,0,0,1.487.749q1.926,0,1.969-2.964v-.364q0-3.114-1.99-3.114-1.809,0-1.958,2.685Z" transform="translate(31.486 14.322)" fill="#12263f"/>
    <path id="Path_181829" data-name="Path 181829" d="M351.6,156.257a7.065,7.065,0,0,1-1.177,4.376,3.944,3.944,0,0,1-3.318,1.531,3.419,3.419,0,0,1-2.845-1.4l-.15,1.188h-3.231V145.514h3.606V151.3a3.3,3.3,0,0,1,2.6-1.144,3.941,3.941,0,0,1,3.338,1.551,7.1,7.1,0,0,1,1.177,4.365Zm-3.617-.23a4.71,4.71,0,0,0-.444-2.376,1.5,1.5,0,0,0-1.364-.71,1.726,1.726,0,0,0-1.691.929v4.593a1.735,1.735,0,0,0,1.711.919,1.531,1.531,0,0,0,1.616-1.239,8.922,8.922,0,0,0,.171-2.116" transform="translate(32.602 13.917)" fill="#12263f"/>
    <rect id="Rectangle_38049" data-name="Rectangle 38049" width="3.617" height="16.435" transform="translate(385.98 159.431)" fill="#12263f"/>
    <path id="Path_181830" data-name="Path 181830" d="M363.246,161.757a5.948,5.948,0,0,1-4.311-1.589,5.486,5.486,0,0,1-1.648-4.136v-.3a7.114,7.114,0,0,1,.657-3.135,4.811,4.811,0,0,1,1.921-2.1,5.8,5.8,0,0,1,3-.744,5.011,5.011,0,0,1,3.851,1.514,5.945,5.945,0,0,1,1.412,4.22v1.4h-7.169a2.6,2.6,0,0,0,.846,1.53,2.511,2.511,0,0,0,1.691.557,3.237,3.237,0,0,0,2.674-1.2l1.648,1.947a4.6,4.6,0,0,1-1.91,1.482,6.46,6.46,0,0,1-2.659.551m-.406-9.223q-1.584,0-1.883,2.1h3.639v-.278a1.79,1.79,0,0,0-.439-1.342,1.744,1.744,0,0,0-1.316-.477" transform="translate(34.171 14.322)" fill="#12263f"/>
    <path id="Path_181831" data-name="Path 181831" d="M371.908,149.967l.117,1.359a3.982,3.982,0,0,1,3.307-1.572A2.93,2.93,0,0,1,378.3,151.5a3.852,3.852,0,0,1,3.4-1.743q3.519,0,3.616,4.258v7.533H381.7v-7.308a2.2,2.2,0,0,0-.3-1.294,1.278,1.278,0,0,0-1.091-.406,1.709,1.709,0,0,0-1.594.952l.011.15v7.906h-3.617v-7.286a2.315,2.315,0,0,0-.289-1.316,1.272,1.272,0,0,0-1.1-.406,1.73,1.73,0,0,0-1.583.952v8.056h-3.606V149.967Z" transform="translate(35.246 14.322)" fill="#12263f"/>
    <path id="Path_181832" data-name="Path 181832" d="M392.3,161.543a4.007,4.007,0,0,1-.343-1.038,3.352,3.352,0,0,1-2.782,1.252,4.1,4.1,0,0,1-2.782-.99,3.152,3.152,0,0,1-1.145-2.487,3.237,3.237,0,0,1,1.391-2.846,7.085,7.085,0,0,1,4.044-.963h1.113v-.612q0-1.6-1.38-1.6a1.128,1.128,0,0,0-1.284,1.269h-3.606a3.228,3.228,0,0,1,1.429-2.725,6,6,0,0,1,3.643-1.047,5.266,5.266,0,0,1,3.5,1.08,3.756,3.756,0,0,1,1.316,2.964v5.125a5.236,5.236,0,0,0,.493,2.439v.182Zm-2.258-2.353a2.014,2.014,0,0,0,1.119-.289,1.814,1.814,0,0,0,.637-.652V156.4h-1.049q-1.883,0-1.883,1.691a1.029,1.029,0,0,0,.332.8,1.2,1.2,0,0,0,.845.3" transform="translate(36.845 14.322)" fill="#12263f"/>
    <path id="Path_181833" data-name="Path 181833" d="M915.092,226.724H712.209a1.53,1.53,0,0,1-1.214-.528.826.826,0,0,1,.012-1.052l45.059-56.921-45.059-56.912a.826.826,0,0,1-.012-1.052,1.53,1.53,0,0,1,1.214-.528H915.092a1.537,1.537,0,0,1,1.2.513l45.482,57.445a.828.828,0,0,1,0,1.067l-45.482,57.454a1.536,1.536,0,0,1-1.2.513m-200.431-2.093H914.3l44.654-56.408-44.654-56.4H714.661l44.231,55.866a.828.828,0,0,1,0,1.067Z" transform="translate(67.982 10.495)" fill="#ffd48a"/>
    <path id="Path_181834" data-name="Path 181834" d="M959.452,159.68l-45.482-57.445H711.085l45.483,57.445-45.483,57.454H913.969Z" transform="translate(68.008 9.778)" fill="#f9b131"/>
    <path id="Path_181835" data-name="Path 181835" d="M911.471,213.561h-193.1a.548.548,0,0,1-.429-.889l42.177-53.279L717.94,106.122a.548.548,0,0,1,.43-.887h193.1a.548.548,0,0,1,.428.207l42.447,53.612a.548.548,0,0,1,0,.68L911.9,213.354a.548.548,0,0,1-.428.207m-191.97-1.1H911.206l42.012-53.071-42.012-53.064H719.5l41.743,52.722a.548.548,0,0,1,0,.68Z" transform="translate(68.652 10.065)" fill="#ffe1ad"/>
    <path id="Path_181836" data-name="Path 181836" d="M782.477,149.874h-3.734l-5.521-9.694v9.694h-3.756V134.3h3.756l5.51,9.694V134.3h3.745Z" transform="translate(73.592 12.844)" fill="#12263f"/>
    <path id="Path_181837" data-name="Path 181837" d="M788.99,149.757a5.948,5.948,0,0,1-4.311-1.589,5.486,5.486,0,0,1-1.648-4.136v-.3a7.114,7.114,0,0,1,.657-3.135,4.812,4.812,0,0,1,1.921-2.1,5.8,5.8,0,0,1,3-.744,5.011,5.011,0,0,1,3.851,1.514,5.945,5.945,0,0,1,1.412,4.22v1.4H786.7a2.6,2.6,0,0,0,.846,1.53,2.512,2.512,0,0,0,1.691.557,3.237,3.237,0,0,0,2.674-1.2l1.648,1.947a4.6,4.6,0,0,1-1.91,1.482,6.459,6.459,0,0,1-2.659.551m-.406-9.223q-1.584,0-1.883,2.1h3.639v-.278a1.789,1.789,0,0,0-.439-1.342,1.744,1.744,0,0,0-1.316-.477" transform="translate(74.889 13.175)" fill="#12263f"/>
    <path id="Path_181838" data-name="Path 181838" d="M799.879,149.757a5.948,5.948,0,0,1-4.311-1.589,5.486,5.486,0,0,1-1.648-4.136v-.3a7.113,7.113,0,0,1,.657-3.135,4.81,4.81,0,0,1,1.921-2.1,5.8,5.8,0,0,1,3-.744,5.011,5.011,0,0,1,3.851,1.514,5.945,5.945,0,0,1,1.412,4.22v1.4h-7.169a2.6,2.6,0,0,0,.846,1.53,2.511,2.511,0,0,0,1.691.557,3.237,3.237,0,0,0,2.674-1.2l1.648,1.947a4.6,4.6,0,0,1-1.91,1.482,6.46,6.46,0,0,1-2.659.551m-.406-9.223q-1.584,0-1.883,2.1h3.639v-.278a1.79,1.79,0,0,0-.439-1.342,1.744,1.744,0,0,0-1.316-.477" transform="translate(75.93 13.175)" fill="#12263f"/>
    <path id="Path_181839" data-name="Path 181839" d="M804.72,144.075a7.07,7.07,0,0,1,1.188-4.333,3.907,3.907,0,0,1,3.316-1.583,3.323,3.323,0,0,1,2.611,1.219v-5.864h3.617v16.435H812.21l-.182-1.241a3.413,3.413,0,0,1-2.825,1.456,3.9,3.9,0,0,1-3.275-1.584,7.3,7.3,0,0,1-1.208-4.5m3.606.225q0,3.081,1.8,3.082a1.774,1.774,0,0,0,1.711-1.006v-4.409a1.727,1.727,0,0,0-1.691-1.027q-1.668,0-1.808,2.7Z" transform="translate(76.963 12.769)" fill="#12263f"/>
    <path id="Path_181840" data-name="Path 181840" d="M832.111,143.84a6.981,6.981,0,0,1-1.213,4.307,3.9,3.9,0,0,1-3.281,1.609,3.334,3.334,0,0,1-2.62-1.166v5.4h-3.606V137.967h3.369l.108,1.069a3.337,3.337,0,0,1,2.728-1.284,3.925,3.925,0,0,1,3.326,1.579,7.056,7.056,0,0,1,1.188,4.339Zm-3.6-.225q0-3.081-1.8-3.082a1.7,1.7,0,0,0-1.71.92v4.559a1.75,1.75,0,0,0,1.732.962q1.722,0,1.777-2.974Z" transform="translate(78.558 13.175)" fill="#12263f"/>
    <path id="Path_181841" data-name="Path 181841" d="M839.194,149.543a4.007,4.007,0,0,1-.343-1.038,3.352,3.352,0,0,1-2.782,1.252,4.1,4.1,0,0,1-2.782-.99,3.152,3.152,0,0,1-1.145-2.487,3.237,3.237,0,0,1,1.391-2.846,7.085,7.085,0,0,1,4.044-.963h1.113v-.612q0-1.6-1.38-1.6a1.128,1.128,0,0,0-1.284,1.269H832.42a3.228,3.228,0,0,1,1.429-2.725,6,6,0,0,1,3.643-1.047,5.266,5.266,0,0,1,3.5,1.08,3.756,3.756,0,0,1,1.316,2.964v5.125a5.235,5.235,0,0,0,.493,2.439v.182Zm-2.258-2.353a2.014,2.014,0,0,0,1.119-.289,1.815,1.815,0,0,0,.637-.652V144.4h-1.049q-1.883,0-1.883,1.691a1.029,1.029,0,0,0,.332.8,1.2,1.2,0,0,0,.845.3" transform="translate(79.586 13.175)" fill="#12263f"/>
    <path id="Path_181842" data-name="Path 181842" d="M847.814,144.475l1.926-6.527H853.6l-4.718,13.514-.2.492a3.584,3.584,0,0,1-3.552,2.247,5.643,5.643,0,0,1-1.488-.213v-2.569h.471a2.477,2.477,0,0,0,1.161-.219,1.337,1.337,0,0,0,.594-.788l.288-.77-4.023-11.694h3.852Z" transform="translate(80.541 13.193)" fill="#12263f"/>
    <path id="Path_181843" data-name="Path 181843" d="M858.021,143.648a6.831,6.831,0,0,1,.674-3.086,4.817,4.817,0,0,1,1.937-2.082,5.84,5.84,0,0,1,2.964-.728,5.322,5.322,0,0,1,4.1,1.611,6.178,6.178,0,0,1,1.5,4.381v.128a6,6,0,0,1-1.5,4.3,5.337,5.337,0,0,1-4.071,1.589,5.4,5.4,0,0,1-3.969-1.481,5.8,5.8,0,0,1-1.615-4.018Zm3.606.225a4.305,4.305,0,0,0,.5,2.353,1.675,1.675,0,0,0,1.487.749q1.926,0,1.969-2.964v-.364q0-3.114-1.99-3.114-1.809,0-1.958,2.685Z" transform="translate(82.061 13.175)" fill="#12263f"/>
    <path id="Path_181844" data-name="Path 181844" d="M870.541,149.968V140.9h-1.68v-2.5h1.68v-.92a4,4,0,0,1,1.166-3.071,4.612,4.612,0,0,1,3.275-1.091,7.159,7.159,0,0,1,1.691.225l.01,2.654a3.269,3.269,0,0,0-.888-.1q-1.637,0-1.637,1.412v.889h2.257v2.5h-2.257v9.073Z" transform="translate(83.098 12.75)" fill="#12263f"/>
    <path id="Path_181845" data-name="Path 181845" d="M877.787,149.968V140.9h-1.68v-2.5h1.68v-.92a4,4,0,0,1,1.166-3.071,4.612,4.612,0,0,1,3.275-1.091,7.159,7.159,0,0,1,1.691.225l.01,2.654a3.269,3.269,0,0,0-.887-.1q-1.637,0-1.637,1.412v.889h2.257v2.5H881.4v9.073Z" transform="translate(83.791 12.75)" fill="#12263f"/>
    <path id="Path_181846" data-name="Path 181846" d="M775.306,167.648a6.83,6.83,0,0,1,.674-3.086,4.816,4.816,0,0,1,1.937-2.082,5.84,5.84,0,0,1,2.964-.728,5.321,5.321,0,0,1,4.1,1.611,6.178,6.178,0,0,1,1.5,4.381v.128a6,6,0,0,1-1.5,4.3,5.337,5.337,0,0,1-4.071,1.589,5.4,5.4,0,0,1-3.97-1.481,5.8,5.8,0,0,1-1.615-4.018Zm3.606.225a4.305,4.305,0,0,0,.5,2.353,1.675,1.675,0,0,0,1.487.749q1.926,0,1.969-2.964v-.364q0-3.114-1.99-3.114-1.809,0-1.958,2.685Z" transform="translate(74.15 15.47)" fill="#12263f"/>
    <path id="Path_181847" data-name="Path 181847" d="M792.083,173.874V158.3h5.6a7.919,7.919,0,0,1,4.573,1.1,3.665,3.665,0,0,1,1.568,3.2,3.706,3.706,0,0,1-.557,2.065,3.248,3.248,0,0,1-1.637,1.262,3.281,3.281,0,0,1,1.872,1.2,3.476,3.476,0,0,1,.653,2.14,4.131,4.131,0,0,1-1.45,3.44,6.9,6.9,0,0,1-4.3,1.171Zm3.756-9.084H797.8a2.794,2.794,0,0,0,1.755-.45,1.6,1.6,0,0,0,.524-1.3,1.685,1.685,0,0,0-.566-1.422,3.04,3.04,0,0,0-1.83-.434h-1.841Zm0,2.461v3.734H798.3a2.338,2.338,0,0,0,1.562-.466,1.627,1.627,0,0,0,.546-1.31,1.728,1.728,0,0,0-1.937-1.958Z" transform="translate(75.755 15.139)" fill="#12263f"/>
    <path id="Path_181848" data-name="Path 181848" d="M810.465,173.757a5.948,5.948,0,0,1-4.311-1.589,5.486,5.486,0,0,1-1.648-4.136v-.3a7.113,7.113,0,0,1,.657-3.135,4.81,4.81,0,0,1,1.921-2.1,5.8,5.8,0,0,1,3-.744,5.011,5.011,0,0,1,3.851,1.514,5.945,5.945,0,0,1,1.412,4.22v1.4h-7.169a2.6,2.6,0,0,0,.846,1.53,2.512,2.512,0,0,0,1.691.557,3.237,3.237,0,0,0,2.674-1.2l1.648,1.947a4.6,4.6,0,0,1-1.91,1.482,6.46,6.46,0,0,1-2.659.551m-.406-9.223q-1.584,0-1.883,2.1h3.639v-.278a1.79,1.79,0,0,0-.439-1.342,1.744,1.744,0,0,0-1.316-.477" transform="translate(76.943 15.47)" fill="#12263f"/>
    <path id="Path_181849" data-name="Path 181849" d="M819.039,161.967l.117,1.359a3.928,3.928,0,0,1,3.307-1.572,3.3,3.3,0,0,1,2.7,1.08,5.144,5.144,0,0,1,.926,3.253v7.457h-3.617v-7.308a1.957,1.957,0,0,0-.353-1.288,1.633,1.633,0,0,0-1.284-.412,1.722,1.722,0,0,0-1.573.834v8.175h-3.606V161.967Z" transform="translate(78.009 15.47)" fill="#12263f"/>
    <path id="Path_181850" data-name="Path 181850" d="M832.633,173.757a5.948,5.948,0,0,1-4.311-1.589,5.486,5.486,0,0,1-1.648-4.136v-.3a7.115,7.115,0,0,1,.657-3.135,4.811,4.811,0,0,1,1.921-2.1,5.8,5.8,0,0,1,3-.744,5.011,5.011,0,0,1,3.851,1.514,5.945,5.945,0,0,1,1.412,4.22v1.4h-7.169a2.6,2.6,0,0,0,.846,1.53,2.512,2.512,0,0,0,1.691.557,3.237,3.237,0,0,0,2.674-1.2l1.648,1.947a4.6,4.6,0,0,1-1.91,1.482,6.46,6.46,0,0,1-2.659.551m-.406-9.223q-1.584,0-1.883,2.1h3.639v-.278a1.79,1.79,0,0,0-.439-1.342,1.744,1.744,0,0,0-1.316-.477" transform="translate(79.063 15.47)" fill="#12263f"/>
    <path id="Path_181851" data-name="Path 181851" d="M838.764,173.968V164.9h-1.68v-2.5h1.68v-.92a4,4,0,0,1,1.166-3.071,4.612,4.612,0,0,1,3.275-1.091,7.159,7.159,0,0,1,1.691.225l.01,2.654a3.269,3.269,0,0,0-.887-.1q-1.637,0-1.637,1.412v.889h2.257v2.5H842.38v9.073Z" transform="translate(80.059 15.045)" fill="#12263f"/>
    <path id="Path_181852" data-name="Path 181852" d="M845.111,159.376a1.606,1.606,0,0,1,.557-1.262,2.363,2.363,0,0,1,2.889,0,1.712,1.712,0,0,1,0,2.524,2.363,2.363,0,0,1-2.889,0,1.606,1.606,0,0,1-.557-1.262m3.83,14.562h-3.617V162.362h3.617Z" transform="translate(80.826 15.075)" fill="#12263f"/>
    <path id="Path_181853" data-name="Path 181853" d="M855.568,170.975a1.6,1.6,0,0,0,1.177-.412,1.51,1.51,0,0,0,.407-1.15h3.381a4,4,0,0,1-1.364,3.125,5.074,5.074,0,0,1-3.515,1.219,5.138,5.138,0,0,1-3.98-1.583,6.242,6.242,0,0,1-1.455-4.387v-.15a7.05,7.05,0,0,1,.648-3.1,4.719,4.719,0,0,1,1.867-2.065,5.572,5.572,0,0,1,2.889-.722A5.007,5.007,0,0,1,859.206,163a4.436,4.436,0,0,1,1.327,3.391h-3.381a1.976,1.976,0,0,0-.438-1.379,1.515,1.515,0,0,0-1.177-.482q-1.4,0-1.637,1.787a12.486,12.486,0,0,0-.076,1.562,4.95,4.95,0,0,0,.417,2.418,1.444,1.444,0,0,0,1.327.674" transform="translate(81.315 15.47)" fill="#12263f"/>
    <path id="Path_181854" data-name="Path 181854" d="M861,159.376a1.606,1.606,0,0,1,.557-1.262,2.361,2.361,0,0,1,2.888,0,1.709,1.709,0,0,1,0,2.524,2.361,2.361,0,0,1-2.888,0,1.606,1.606,0,0,1-.557-1.262m3.83,14.562h-3.617V162.362h3.617Z" transform="translate(82.346 15.075)" fill="#12263f"/>
    <path id="Path_181855" data-name="Path 181855" d="M866.107,167.648a6.83,6.83,0,0,1,.674-3.086,4.816,4.816,0,0,1,1.937-2.082,5.84,5.84,0,0,1,2.964-.728,5.321,5.321,0,0,1,4.1,1.611,6.178,6.178,0,0,1,1.5,4.381v.128a6,6,0,0,1-1.5,4.3,5.337,5.337,0,0,1-4.071,1.589,5.4,5.4,0,0,1-3.969-1.481,5.8,5.8,0,0,1-1.615-4.018Zm3.606.225a4.306,4.306,0,0,0,.5,2.353,1.676,1.676,0,0,0,1.487.749q1.926,0,1.969-2.964v-.364q0-3.114-1.99-3.114-1.809,0-1.958,2.685Z" transform="translate(82.834 15.47)" fill="#12263f"/>
    <path id="Path_181856" data-name="Path 181856" d="M678.155,226.724H475.272a1.53,1.53,0,0,1-1.214-.528.826.826,0,0,1,.012-1.052l45.059-56.921L474.07,111.312a.826.826,0,0,1-.012-1.052,1.53,1.53,0,0,1,1.214-.528H678.155a1.537,1.537,0,0,1,1.2.513l45.482,57.445a.828.828,0,0,1,0,1.067l-45.482,57.454a1.536,1.536,0,0,1-1.2.513m-200.431-2.093H677.359l44.654-56.408-44.654-56.4H477.724l44.231,55.866a.828.828,0,0,1,0,1.067Z" transform="translate(45.321 10.495)" fill="#a8fdff"/>
    <path id="Path_181857" data-name="Path 181857" d="M722.515,159.68l-45.482-57.445H474.148l45.483,57.445-45.483,57.454H677.032Z" transform="translate(45.347 9.778)" fill="#42e0e6"/>
    <path id="Path_181858" data-name="Path 181858" d="M674.533,213.561h-193.1a.548.548,0,0,1-.43-.889l42.177-53.279L481,106.122a.548.548,0,0,1,.429-.887h193.1a.547.547,0,0,1,.428.207l42.447,53.612a.548.548,0,0,1,0,.68l-42.447,53.62a.547.547,0,0,1-.428.207m-191.97-1.1H674.268l42.012-53.071-42.012-53.064h-191.7l41.743,52.722a.548.548,0,0,1,0,.68Z" transform="translate(45.992 10.065)" fill="#c4fdff"/>
    <rect id="Rectangle_38050" data-name="Rectangle 38050" width="3.745" height="15.579" transform="translate(589.152 160.287)" fill="#12263f"/>
    <path id="Path_181859" data-name="Path 181859" d="M546.779,149.967l.117,1.359a3.982,3.982,0,0,1,3.307-1.572,2.93,2.93,0,0,1,2.964,1.743,3.852,3.852,0,0,1,3.4-1.743q3.519,0,3.616,4.258v7.533H556.57v-7.308a2.2,2.2,0,0,0-.3-1.294,1.278,1.278,0,0,0-1.091-.406,1.709,1.709,0,0,0-1.594.952l.011.15v7.906h-3.617v-7.286a2.315,2.315,0,0,0-.289-1.316,1.272,1.272,0,0,0-1.1-.406,1.73,1.73,0,0,0-1.583.952v8.056H543.4V149.967Z" transform="translate(51.97 14.322)" fill="#12263f"/>
    <path id="Path_181860" data-name="Path 181860" d="M571.346,155.84a6.982,6.982,0,0,1-1.214,4.307,3.9,3.9,0,0,1-3.28,1.609,3.336,3.336,0,0,1-2.621-1.166v5.4h-3.606V149.967H564l.107,1.069a3.34,3.34,0,0,1,2.728-1.284,3.927,3.927,0,0,1,3.327,1.579,7.064,7.064,0,0,1,1.188,4.339Zm-3.606-.225q0-3.081-1.8-3.082a1.7,1.7,0,0,0-1.711.92v4.559a1.752,1.752,0,0,0,1.733.962q1.722,0,1.776-2.974Z" transform="translate(53.618 14.322)" fill="#12263f"/>
    <rect id="Rectangle_38051" data-name="Rectangle 38051" width="3.617" height="16.435" transform="translate(626.74 159.431)" fill="#12263f"/>
    <path id="Path_181861" data-name="Path 181861" d="M577.334,147.376a1.606,1.606,0,0,1,.557-1.262,2.361,2.361,0,0,1,2.888,0,1.709,1.709,0,0,1,0,2.524,2.361,2.361,0,0,1-2.888,0,1.606,1.606,0,0,1-.557-1.262m3.83,14.562h-3.617V150.362h3.617Z" transform="translate(55.216 13.927)" fill="#12263f"/>
    <path id="Path_181862" data-name="Path 181862" d="M587.791,158.975a1.6,1.6,0,0,0,1.177-.412,1.51,1.51,0,0,0,.406-1.15h3.381a4,4,0,0,1-1.364,3.125,5.074,5.074,0,0,1-3.515,1.219,5.138,5.138,0,0,1-3.98-1.583,6.242,6.242,0,0,1-1.455-4.387v-.15a7.051,7.051,0,0,1,.648-3.1,4.719,4.719,0,0,1,1.867-2.065,5.571,5.571,0,0,1,2.889-.722A5.007,5.007,0,0,1,591.429,151a4.436,4.436,0,0,1,1.327,3.391h-3.381a1.977,1.977,0,0,0-.438-1.379,1.515,1.515,0,0,0-1.177-.482q-1.4,0-1.637,1.787a12.472,12.472,0,0,0-.076,1.562,4.951,4.951,0,0,0,.417,2.418,1.444,1.444,0,0,0,1.327.674" transform="translate(55.705 14.322)" fill="#12263f"/>
    <path id="Path_181863" data-name="Path 181863" d="M599.815,161.543a4.009,4.009,0,0,1-.343-1.038,3.352,3.352,0,0,1-2.782,1.252,4.1,4.1,0,0,1-2.782-.99,3.152,3.152,0,0,1-1.145-2.487,3.237,3.237,0,0,1,1.391-2.846,7.084,7.084,0,0,1,4.044-.963h1.113v-.612q0-1.6-1.381-1.6a1.128,1.128,0,0,0-1.284,1.269h-3.606a3.228,3.228,0,0,1,1.429-2.725,6,6,0,0,1,3.643-1.047,5.266,5.266,0,0,1,3.5,1.08,3.756,3.756,0,0,1,1.316,2.964v5.125a5.236,5.236,0,0,0,.493,2.439v.182Zm-2.258-2.353a2.014,2.014,0,0,0,1.119-.289,1.814,1.814,0,0,0,.637-.652V156.4h-1.049q-1.883,0-1.883,1.691a1.029,1.029,0,0,0,.332.8,1.2,1.2,0,0,0,.845.3" transform="translate(56.692 14.322)" fill="#12263f"/>
    <path id="Path_181864" data-name="Path 181864" d="M608.8,158.975a1.6,1.6,0,0,0,1.177-.412,1.51,1.51,0,0,0,.406-1.15h3.381a4,4,0,0,1-1.364,3.125,5.074,5.074,0,0,1-3.515,1.219,5.138,5.138,0,0,1-3.98-1.583,6.242,6.242,0,0,1-1.455-4.387v-.15a7.051,7.051,0,0,1,.648-3.1,4.719,4.719,0,0,1,1.867-2.065,5.571,5.571,0,0,1,2.889-.722A5.007,5.007,0,0,1,612.435,151a4.436,4.436,0,0,1,1.327,3.391H610.38a1.976,1.976,0,0,0-.438-1.379,1.514,1.514,0,0,0-1.177-.482q-1.4,0-1.637,1.787a12.486,12.486,0,0,0-.076,1.562,4.95,4.95,0,0,0,.417,2.418,1.444,1.444,0,0,0,1.327.674" transform="translate(57.714 14.322)" fill="#12263f"/>
    <path id="Path_181865" data-name="Path 181865" d="M614.228,147.376a1.606,1.606,0,0,1,.557-1.262,2.363,2.363,0,0,1,2.889,0,1.709,1.709,0,0,1,0,2.524,2.363,2.363,0,0,1-2.889,0,1.606,1.606,0,0,1-.557-1.262m3.83,14.562h-3.617V150.362h3.617Z" transform="translate(58.745 13.927)" fill="#12263f"/>
    <path id="Path_181866" data-name="Path 181866" d="M619.336,156.053a6.831,6.831,0,0,1,.674-3.086,4.823,4.823,0,0,1,1.937-2.082,5.84,5.84,0,0,1,2.964-.728,5.325,5.325,0,0,1,4.1,1.611,6.18,6.18,0,0,1,1.5,4.381v.128a5.993,5.993,0,0,1-1.5,4.3,5.337,5.337,0,0,1-4.071,1.589,5.4,5.4,0,0,1-3.969-1.481,5.8,5.8,0,0,1-1.615-4.018Zm3.606.225a4.309,4.309,0,0,0,.5,2.355,1.675,1.675,0,0,0,1.487.748q1.926,0,1.969-2.964v-.364q0-3.113-1.99-3.114-1.809,0-1.958,2.686Zm2.461-10.764h3.81l-2.975,3.359-2.943,0Z" transform="translate(59.233 13.917)" fill="#12263f"/>
    <path id="Path_181867" data-name="Path 181867" d="M634.3,149.967l.117,1.359a3.928,3.928,0,0,1,3.307-1.572,3.3,3.3,0,0,1,2.7,1.08,5.144,5.144,0,0,1,.926,3.253v7.457h-3.617v-7.308a1.957,1.957,0,0,0-.353-1.288,1.633,1.633,0,0,0-1.284-.412,1.722,1.722,0,0,0-1.573.834v8.175h-3.606V149.967Z" transform="translate(60.341 14.322)" fill="#12263f"/>
    <path id="Path_181868" data-name="Path 181868" d="M204.28,226.724H1.4A1.53,1.53,0,0,1,.183,226.2.826.826,0,0,1,.2,225.145l45.059-56.921L.2,111.312a.826.826,0,0,1-.012-1.052,1.53,1.53,0,0,1,1.214-.528H204.28a1.537,1.537,0,0,1,1.2.513l45.482,57.445a.828.828,0,0,1,0,1.067l-45.482,57.454a1.536,1.536,0,0,1-1.2.513M3.849,224.632H203.484l44.654-56.408-44.654-56.4H3.849L48.08,167.69a.828.828,0,0,1,0,1.067Z" transform="translate(0 10.495)" fill="#a8fdff"/>
    <path id="Path_181869" data-name="Path 181869" d="M248.64,159.68l-45.482-57.445H.274L45.757,159.68.274,217.134H203.158Z" transform="translate(0.026 9.778)" fill="#42e0e6"/>
    <path id="Path_181870" data-name="Path 181870" d="M200.659,213.561H7.557a.548.548,0,0,1-.429-.889L49.3,159.394,7.128,106.122a.548.548,0,0,1,.429-.887h193.1a.547.547,0,0,1,.428.207l42.447,53.612a.548.548,0,0,1,0,.68l-42.447,53.62a.547.547,0,0,1-.428.207m-191.97-1.1H200.394l42.012-53.071-42.012-53.064H8.69l41.743,52.722a.548.548,0,0,1,0,.68Z" transform="translate(0.67 10.065)" fill="#c4fdff"/>
    <path id="Path_181871" data-name="Path 181871" d="M81.567,157.752a1.546,1.546,0,0,0-.583-1.284,7.279,7.279,0,0,0-2.049-.952,19.794,19.794,0,0,1-2.4-.952q-3.029-1.487-3.028-4.088a3.667,3.667,0,0,1,.755-2.284,4.876,4.876,0,0,1,2.134-1.54,8.314,8.314,0,0,1,3.1-.551,7.271,7.271,0,0,1,3.012.6,4.761,4.761,0,0,1,2.071,1.707,4.457,4.457,0,0,1,.738,2.53H81.578A1.885,1.885,0,0,0,81,149.46a2.269,2.269,0,0,0-1.579-.525,2.562,2.562,0,0,0-1.589.444,1.308,1.308,0,0,0,.059,2.215,8.1,8.1,0,0,0,2.257,1.006,13.809,13.809,0,0,1,2.654,1.118,4.462,4.462,0,0,1,2.525,4.012,3.8,3.8,0,0,1-1.542,3.21,6.848,6.848,0,0,1-4.226,1.167,8.379,8.379,0,0,1-3.429-.68,5.157,5.157,0,0,1-2.311-1.861,4.85,4.85,0,0,1-.776-2.723h3.766a2.39,2.39,0,0,0,.648,1.845,3.055,3.055,0,0,0,2.1.594,2.42,2.42,0,0,0,1.471-.4,1.324,1.324,0,0,0,.54-1.129" transform="translate(6.986 13.973)" fill="#12263f"/>
    <path id="Path_181872" data-name="Path 181872" d="M85.833,147.376a1.606,1.606,0,0,1,.557-1.262,2.361,2.361,0,0,1,2.888,0,1.709,1.709,0,0,1,0,2.524,2.361,2.361,0,0,1-2.888,0,1.606,1.606,0,0,1-.557-1.262m3.83,14.562H86.047V150.362h3.617Z" transform="translate(8.209 13.927)" fill="#12263f"/>
    <path id="Path_181873" data-name="Path 181873" d="M95.632,147.321V150.2h1.9v2.5h-1.9V158a1.345,1.345,0,0,0,.236.909,1.263,1.263,0,0,0,.93.257,5.3,5.3,0,0,0,.9-.065v2.578a6.653,6.653,0,0,1-2.034.311,3.774,3.774,0,0,1-2.749-.878,3.6,3.6,0,0,1-.889-2.665V152.7H90.549v-2.5h1.477v-2.878Z" transform="translate(8.66 14.09)" fill="#12263f"/>
    <path id="Path_181874" data-name="Path 181874" d="M105.121,160.273a3.717,3.717,0,0,1-3.092,1.466,3.646,3.646,0,0,1-2.884-1.108,4.656,4.656,0,0,1-.979-3.183v-7.5h3.606v7.522a1.3,1.3,0,0,0,1.445,1.488,1.885,1.885,0,0,0,1.765-.889v-8.121h3.628v11.578h-3.381Z" transform="translate(9.389 14.341)" fill="#12263f"/>
    <path id="Path_181875" data-name="Path 181875" d="M116.068,161.543a4.008,4.008,0,0,1-.343-1.038,3.352,3.352,0,0,1-2.782,1.252,4.1,4.1,0,0,1-2.782-.99,3.152,3.152,0,0,1-1.145-2.487,3.237,3.237,0,0,1,1.391-2.846,7.085,7.085,0,0,1,4.044-.963h1.113v-.612q0-1.6-1.381-1.6a1.128,1.128,0,0,0-1.284,1.269h-3.606a3.228,3.228,0,0,1,1.429-2.725,6,6,0,0,1,3.643-1.047,5.266,5.266,0,0,1,3.5,1.08,3.756,3.756,0,0,1,1.316,2.964v5.125a5.236,5.236,0,0,0,.493,2.439v.182Zm-2.258-2.353a2.014,2.014,0,0,0,1.119-.289,1.814,1.814,0,0,0,.637-.652V156.4h-1.049q-1.883,0-1.883,1.691a1.029,1.029,0,0,0,.332.8,1.2,1.2,0,0,0,.845.3" transform="translate(10.426 14.322)" fill="#12263f"/>
    <path id="Path_181876" data-name="Path 181876" d="M125.05,158.975a1.6,1.6,0,0,0,1.177-.412,1.51,1.51,0,0,0,.406-1.15h3.381a4,4,0,0,1-1.364,3.125,5.074,5.074,0,0,1-3.515,1.219,5.138,5.138,0,0,1-3.98-1.583,6.242,6.242,0,0,1-1.455-4.387v-.15a7.051,7.051,0,0,1,.648-3.1,4.719,4.719,0,0,1,1.867-2.065,5.571,5.571,0,0,1,2.889-.722A5.007,5.007,0,0,1,128.688,151a4.436,4.436,0,0,1,1.327,3.391h-3.381a1.976,1.976,0,0,0-.438-1.379,1.515,1.515,0,0,0-1.177-.482q-1.4,0-1.637,1.787a12.49,12.49,0,0,0-.076,1.562,4.95,4.95,0,0,0,.417,2.418,1.444,1.444,0,0,0,1.327.674" transform="translate(11.448 14.322)" fill="#12263f"/>
    <path id="Path_181877" data-name="Path 181877" d="M130.481,147.376a1.606,1.606,0,0,1,.557-1.262,2.363,2.363,0,0,1,2.889,0,1.709,1.709,0,0,1,0,2.524,2.363,2.363,0,0,1-2.889,0,1.606,1.606,0,0,1-.557-1.262m3.83,14.562h-3.617V150.362h3.617Z" transform="translate(12.479 13.927)" fill="#12263f"/>
    <path id="Path_181878" data-name="Path 181878" d="M135.589,156.053a6.831,6.831,0,0,1,.674-3.086,4.822,4.822,0,0,1,1.937-2.082,5.84,5.84,0,0,1,2.964-.728,5.325,5.325,0,0,1,4.1,1.611,6.18,6.18,0,0,1,1.5,4.381v.128a5.993,5.993,0,0,1-1.5,4.3,5.336,5.336,0,0,1-4.071,1.589,5.4,5.4,0,0,1-3.97-1.481,5.8,5.8,0,0,1-1.615-4.018Zm3.606.225a4.309,4.309,0,0,0,.5,2.355,1.675,1.675,0,0,0,1.487.748q1.926,0,1.969-2.964v-.364q0-3.113-1.99-3.114-1.809,0-1.958,2.686Zm2.461-10.764h3.81l-2.975,3.359-2.943,0Z" transform="translate(12.968 13.917)" fill="#12263f"/>
    <path id="Path_181879" data-name="Path 181879" d="M150.552,149.967l.117,1.359a3.928,3.928,0,0,1,3.307-1.572,3.3,3.3,0,0,1,2.7,1.08,5.144,5.144,0,0,1,.926,3.253v7.457h-3.617v-7.308a1.957,1.957,0,0,0-.353-1.288,1.633,1.633,0,0,0-1.284-.412,1.722,1.722,0,0,0-1.573.834v8.175h-3.606V149.967Z" transform="translate(14.075 14.322)" fill="#12263f"/>
    <path id="Path_181880" data-name="Path 181880" d="M116.313,58.843a1.4,1.4,0,0,1-1.4-1.4V56.9a1.4,1.4,0,1,1,2.794,0v.548a1.4,1.4,0,0,1-1.4,1.4" transform="translate(10.991 5.308)" fill="#a8fdff"/>
    <path id="Path_181881" data-name="Path 181881" d="M116.313,95.327a1.4,1.4,0,0,1-1.4-1.4V92.765a1.4,1.4,0,1,1,2.794,0V93.93a1.4,1.4,0,0,1-1.4,1.4m0-9.311a1.4,1.4,0,0,1-1.4-1.4V83.454a1.4,1.4,0,1,1,2.794,0v1.165a1.4,1.4,0,0,1-1.4,1.4m0-9.311a1.4,1.4,0,0,1-1.4-1.4V74.144a1.4,1.4,0,1,1,2.794,0v1.165a1.4,1.4,0,0,1-1.4,1.4m0-9.311a1.4,1.4,0,0,1-1.4-1.4V64.833a1.4,1.4,0,1,1,2.794,0V66a1.4,1.4,0,0,1-1.4,1.4" transform="translate(10.991 6.067)" fill="#a8fdff"/>
    <path id="Path_181882" data-name="Path 181882" d="M116.313,100.772a1.4,1.4,0,0,1-1.4-1.4v-.548a1.4,1.4,0,1,1,2.794,0v.548a1.4,1.4,0,0,1-1.4,1.4" transform="translate(10.991 9.318)" fill="#a8fdff"/>
    <path id="Path_181883" data-name="Path 181883" d="M714.34,58.2H484.99a8.921,8.921,0,0,1-8.911-8.911V8.911A8.922,8.922,0,0,1,484.99,0H714.34a8.922,8.922,0,0,1,8.911,8.911V49.292A8.921,8.921,0,0,1,714.34,58.2M484.99,2.795a6.123,6.123,0,0,0-6.116,6.116V49.292a6.123,6.123,0,0,0,6.116,6.117H714.34a6.123,6.123,0,0,0,6.116-6.117V8.911a6.123,6.123,0,0,0-6.116-6.116Z" transform="translate(45.532)" fill="#a8fdff"/>
    <path id="Path_181884" data-name="Path 181884" d="M498.792,18.083v4.574h-1.54V10.973h4.308a4.334,4.334,0,0,1,3.006.98,3.318,3.318,0,0,1,1.087,2.592,3.275,3.275,0,0,1-1.064,2.62,4.52,4.52,0,0,1-3.045.918Zm0-1.259h2.768a2.774,2.774,0,0,0,1.894-.583,2.132,2.132,0,0,0,.657-1.684,2.205,2.205,0,0,0-.657-1.673,2.584,2.584,0,0,0-1.806-.65h-2.856Z" transform="translate(47.557 1.049)" fill="#12263f"/>
    <path id="Path_181885" data-name="Path 181885" d="M510.7,15.058a4.467,4.467,0,0,0-.73-.056,1.955,1.955,0,0,0-1.982,1.244v6.163H506.5V13.726h1.444l.024,1a2.312,2.312,0,0,1,2.071-1.162,1.52,1.52,0,0,1,.657.112Z" transform="translate(48.442 1.297)" fill="#12263f"/>
    <path id="Path_181886" data-name="Path 181886" d="M515.074,22.569A3.793,3.793,0,0,1,512.2,21.41a4.3,4.3,0,0,1-1.107-3.1v-.274a5.224,5.224,0,0,1,.493-2.307,3.855,3.855,0,0,1,1.381-1.589,3.477,3.477,0,0,1,1.922-.573,3.253,3.253,0,0,1,2.632,1.115,4.826,4.826,0,0,1,.939,3.193v.619h-5.881a3.088,3.088,0,0,0,.749,2.074,2.36,2.36,0,0,0,1.825.791,2.6,2.6,0,0,0,1.333-.321,3.361,3.361,0,0,0,.954-.851l.907.706a3.645,3.645,0,0,1-3.274,1.677m-.185-7.783a1.98,1.98,0,0,0-1.509.654,3.174,3.174,0,0,0-.754,1.834h4.349v-.113a2.83,2.83,0,0,0-.609-1.754,1.867,1.867,0,0,0-1.477-.621" transform="translate(48.881 1.297)" fill="#12263f"/>
    <path id="Path_181887" data-name="Path 181887" d="M519.063,18A5.1,5.1,0,0,1,520,14.765a3.237,3.237,0,0,1,4.967-.076l.073-.963H526.4V22.2a3.532,3.532,0,0,1-1,2.656,3.69,3.69,0,0,1-2.684.971,4.468,4.468,0,0,1-1.837-.4,3.155,3.155,0,0,1-1.373-1.1l.77-.891a2.9,2.9,0,0,0,2.336,1.18,2.277,2.277,0,0,0,1.689-.61,2.331,2.331,0,0,0,.606-1.716v-.747a3.051,3.051,0,0,1-2.431,1.027,2.964,2.964,0,0,1-2.469-1.228A5.364,5.364,0,0,1,519.063,18m1.492.168a3.884,3.884,0,0,0,.6,2.307,1.954,1.954,0,0,0,1.684.838,2.177,2.177,0,0,0,2.063-1.275V16.07a2.2,2.2,0,0,0-2.046-1.245,1.972,1.972,0,0,0-1.694.844,4.238,4.238,0,0,0-.61,2.495" transform="translate(49.643 1.297)" fill="#12263f"/>
    <path id="Path_181888" data-name="Path 181888" d="M533.164,21.537a3.154,3.154,0,0,1-2.544,1.019,2.7,2.7,0,0,1-2.115-.807,3.492,3.492,0,0,1-.734-2.386v-5.65h1.486v5.611q0,1.974,1.6,1.972a2.22,2.22,0,0,0,2.263-1.267V13.712h1.485v8.683H533.2Z" transform="translate(50.476 1.311)" fill="#12263f"/>
    <path id="Path_181889" data-name="Path 181889" d="M537.474,13.726l.049,1.091a3.158,3.158,0,0,1,2.6-1.251q2.751,0,2.775,3.105v5.738h-1.484V16.663a2,2,0,0,0-.429-1.389,1.728,1.728,0,0,0-1.312-.449,2.147,2.147,0,0,0-1.269.385,2.619,2.619,0,0,0-.85,1.012v6.187H536.07V13.726Z" transform="translate(51.27 1.297)" fill="#12263f"/>
    <path id="Path_181890" data-name="Path 181890" d="M546.451,11.793v2.1h1.622v1.148h-1.622v5.391a1.21,1.21,0,0,0,.217.784.916.916,0,0,0,.738.26,3.575,3.575,0,0,0,.707-.1v1.2a4.386,4.386,0,0,1-1.14.159,1.849,1.849,0,0,1-1.5-.6,2.585,2.585,0,0,1-.505-1.709V15.044h-1.581V13.9h1.581v-2.1Z" transform="translate(51.969 1.128)" fill="#12263f"/>
    <path id="Path_181891" data-name="Path 181891" d="M554.628,22.409a3.088,3.088,0,0,1-.208-.915,3.311,3.311,0,0,1-2.472,1.076,3.067,3.067,0,0,1-2.107-.726A2.35,2.35,0,0,1,549.019,20a2.456,2.456,0,0,1,1.03-2.107,4.868,4.868,0,0,1,2.9-.749h1.444v-.684a1.665,1.665,0,0,0-.465-1.238,1.868,1.868,0,0,0-1.373-.462,2.164,2.164,0,0,0-1.331.4,1.179,1.179,0,0,0-.538.971h-1.493a2.05,2.05,0,0,1,.462-1.257,3.144,3.144,0,0,1,1.252-.959,4.2,4.2,0,0,1,1.737-.353,3.436,3.436,0,0,1,2.351.749,2.712,2.712,0,0,1,.883,2.067v4a4.878,4.878,0,0,0,.3,1.9v.128Zm-2.463-1.132a2.606,2.606,0,0,0,1.324-.36,2.181,2.181,0,0,0,.906-.939V18.2h-1.162q-2.73,0-2.729,1.6a1.355,1.355,0,0,0,.466,1.091,1.79,1.79,0,0,0,1.2.392" transform="translate(52.508 1.297)" fill="#12263f"/>
    <path id="Path_181892" data-name="Path 181892" d="M562.492,20.106a1.093,1.093,0,0,0-.454-.935,4.364,4.364,0,0,0-1.58-.573,7.451,7.451,0,0,1-1.79-.577,2.55,2.55,0,0,1-.979-.8,1.92,1.92,0,0,1-.317-1.107,2.252,2.252,0,0,1,.9-1.806,3.52,3.52,0,0,1,2.307-.738,3.622,3.622,0,0,1,2.4.764,2.417,2.417,0,0,1,.919,1.949H562.4a1.336,1.336,0,0,0-.517-1.051,1.937,1.937,0,0,0-1.3-.442,2.027,2.027,0,0,0-1.268.352,1.112,1.112,0,0,0-.457.925.9.9,0,0,0,.424.809,5.168,5.168,0,0,0,1.537.522,8.094,8.094,0,0,1,1.8.595,2.616,2.616,0,0,1,1.023.829A2.04,2.04,0,0,1,563.975,20a2.222,2.222,0,0,1-.93,1.866,3.906,3.906,0,0,1-2.415.7,4.366,4.366,0,0,1-1.846-.369,2.991,2.991,0,0,1-1.256-1.032,2.48,2.48,0,0,1-.454-1.432h1.485a1.539,1.539,0,0,0,.6,1.184,2.325,2.325,0,0,0,1.473.437,2.4,2.4,0,0,0,1.352-.341,1.048,1.048,0,0,0,.509-.912" transform="translate(53.279 1.297)" fill="#12263f"/>
    <path id="Path_181893" data-name="Path 181893" d="M573.049,15.058a4.466,4.466,0,0,0-.73-.056,1.955,1.955,0,0,0-1.982,1.244v6.163h-1.485V13.726H570.3l.024,1a2.312,2.312,0,0,1,2.071-1.162,1.52,1.52,0,0,1,.657.112Z" transform="translate(54.405 1.297)" fill="#12263f"/>
    <path id="Path_181894" data-name="Path 181894" d="M577.425,22.569a3.793,3.793,0,0,1-2.874-1.159,4.3,4.3,0,0,1-1.107-3.1v-.274a5.224,5.224,0,0,1,.493-2.307,3.854,3.854,0,0,1,1.381-1.589,3.477,3.477,0,0,1,1.922-.573,3.253,3.253,0,0,1,2.632,1.115,4.826,4.826,0,0,1,.939,3.193v.619H574.93a3.088,3.088,0,0,0,.749,2.074,2.36,2.36,0,0,0,1.825.791,2.6,2.6,0,0,0,1.333-.321,3.362,3.362,0,0,0,.954-.851l.907.706a3.645,3.645,0,0,1-3.274,1.677m-.185-7.783a1.98,1.98,0,0,0-1.509.654,3.175,3.175,0,0,0-.754,1.834h4.349v-.113a2.83,2.83,0,0,0-.609-1.754,1.867,1.867,0,0,0-1.477-.621" transform="translate(54.844 1.297)" fill="#12263f"/>
    <rect id="Rectangle_38052" data-name="Rectangle 38052" width="1.485" height="12.326" transform="translate(637.502 11.38)" fill="#12263f"/>
    <path id="Path_181895" data-name="Path 181895" d="M590.759,22.409a3.09,3.09,0,0,1-.208-.915,3.311,3.311,0,0,1-2.472,1.076,3.067,3.067,0,0,1-2.107-.726A2.35,2.35,0,0,1,585.15,20a2.456,2.456,0,0,1,1.03-2.107,4.868,4.868,0,0,1,2.9-.749h1.444v-.684a1.665,1.665,0,0,0-.465-1.238,1.868,1.868,0,0,0-1.373-.462,2.164,2.164,0,0,0-1.331.4,1.179,1.179,0,0,0-.538.971h-1.493a2.05,2.05,0,0,1,.462-1.257,3.145,3.145,0,0,1,1.252-.959,4.2,4.2,0,0,1,1.737-.353,3.436,3.436,0,0,1,2.351.749,2.711,2.711,0,0,1,.883,2.067v4a4.879,4.879,0,0,0,.3,1.9v.128ZM588.3,21.277a2.606,2.606,0,0,0,1.324-.36,2.182,2.182,0,0,0,.906-.939V18.2h-1.163q-2.73,0-2.729,1.6a1.354,1.354,0,0,0,.466,1.091,1.79,1.79,0,0,0,1.2.392" transform="translate(55.964 1.297)" fill="#12263f"/>
    <path id="Path_181896" data-name="Path 181896" d="M597.052,21.358a2.14,2.14,0,0,0,1.388-.481,1.7,1.7,0,0,0,.658-1.205h1.4a2.687,2.687,0,0,1-.513,1.421,3.383,3.383,0,0,1-1.264,1.075,3.649,3.649,0,0,1-1.673.4,3.576,3.576,0,0,1-2.82-1.183,4.709,4.709,0,0,1-1.047-3.238V17.9a5.21,5.21,0,0,1,.466-2.255,3.538,3.538,0,0,1,1.336-1.533,3.8,3.8,0,0,1,2.059-.546,3.482,3.482,0,0,1,2.427.874,3.124,3.124,0,0,1,1.031,2.271h-1.4a2.049,2.049,0,0,0-.639-1.385,1.984,1.984,0,0,0-1.416-.541,2.077,2.077,0,0,0-1.753.814,3.826,3.826,0,0,0-.622,2.357v.279a3.75,3.75,0,0,0,.618,2.312,2.088,2.088,0,0,0,1.765.811" transform="translate(56.732 1.297)" fill="#12263f"/>
    <path id="Path_181897" data-name="Path 181897" d="M601.394,11.685a.891.891,0,0,1,.22-.61.832.832,0,0,1,.654-.248.847.847,0,0,1,.658.248.884.884,0,0,1,.225.61.8.8,0,0,1-.883.843.844.844,0,0,1-.654-.24.86.86,0,0,1-.22-.6M603,22.671h-1.485V13.988H603Z" transform="translate(57.517 1.035)" fill="#12263f"/>
    <path id="Path_181898" data-name="Path 181898" d="M604.668,17.988a5.138,5.138,0,0,1,.5-2.3,3.749,3.749,0,0,1,1.4-1.572,3.811,3.811,0,0,1,2.042-.553,3.664,3.664,0,0,1,2.87,1.227,4.724,4.724,0,0,1,1.1,3.266v.1a5.167,5.167,0,0,1-.486,2.276,3.7,3.7,0,0,1-1.387,1.569,3.846,3.846,0,0,1-2.075.561,3.65,3.65,0,0,1-2.861-1.228,4.7,4.7,0,0,1-1.1-3.249Zm1.493.175a3.712,3.712,0,0,0,.669,2.319,2.27,2.27,0,0,0,3.591-.012,4.061,4.061,0,0,0,.665-2.483,3.711,3.711,0,0,0-.677-2.315,2.157,2.157,0,0,0-1.8-.887,2.133,2.133,0,0,0-1.773.874,4.037,4.037,0,0,0-.674,2.5" transform="translate(57.83 1.297)" fill="#12263f"/>
    <path id="Path_181899" data-name="Path 181899" d="M614.986,13.726l.049,1.091a3.158,3.158,0,0,1,2.6-1.251q2.751,0,2.775,3.105v5.738h-1.484V16.663a2,2,0,0,0-.43-1.389,1.728,1.728,0,0,0-1.312-.449,2.146,2.146,0,0,0-1.269.385,2.617,2.617,0,0,0-.85,1.012v6.187h-1.485V13.726Z" transform="translate(58.683 1.297)" fill="#12263f"/>
    <path id="Path_181900" data-name="Path 181900" d="M627.241,22.409a3.09,3.09,0,0,1-.208-.915,3.311,3.311,0,0,1-2.472,1.076,3.067,3.067,0,0,1-2.107-.726A2.35,2.35,0,0,1,621.632,20a2.456,2.456,0,0,1,1.03-2.107,4.868,4.868,0,0,1,2.9-.749h1.444v-.684a1.665,1.665,0,0,0-.465-1.238,1.868,1.868,0,0,0-1.373-.462,2.164,2.164,0,0,0-1.331.4,1.179,1.179,0,0,0-.538.971h-1.493a2.05,2.05,0,0,1,.462-1.257,3.145,3.145,0,0,1,1.252-.959,4.2,4.2,0,0,1,1.737-.353,3.436,3.436,0,0,1,2.351.749,2.711,2.711,0,0,1,.883,2.067v4a4.879,4.879,0,0,0,.3,1.9v.128Zm-2.463-1.132a2.606,2.606,0,0,0,1.324-.36,2.182,2.182,0,0,0,.906-.939V18.2h-1.163q-2.73,0-2.729,1.6a1.354,1.354,0,0,0,.466,1.091,1.79,1.79,0,0,0,1.2.392" transform="translate(59.453 1.297)" fill="#12263f"/>
    <path id="Path_181901" data-name="Path 181901" d="M629.688,18.3a5.084,5.084,0,0,1,.948-3.215,3.222,3.222,0,0,1,4.894-.172V10.387h1.485V22.713H635.65l-.072-.931a3.023,3.023,0,0,1-2.479,1.091,2.965,2.965,0,0,1-2.46-1.235,5.15,5.15,0,0,1-.951-3.227Zm1.485.168a3.845,3.845,0,0,0,.61,2.311,1.968,1.968,0,0,0,1.685.835,2.165,2.165,0,0,0,2.062-1.267V16.357a2.184,2.184,0,0,0-2.047-1.228,1.98,1.98,0,0,0-1.7.844,4.238,4.238,0,0,0-.61,2.495" transform="translate(60.223 0.993)" fill="#12263f"/>
    <path id="Path_181902" data-name="Path 181902" d="M643.859,22.409a3.086,3.086,0,0,1-.208-.915,3.311,3.311,0,0,1-2.472,1.076,3.067,3.067,0,0,1-2.107-.726A2.35,2.35,0,0,1,638.25,20a2.456,2.456,0,0,1,1.03-2.107,4.868,4.868,0,0,1,2.9-.749h1.444v-.684a1.665,1.665,0,0,0-.465-1.238,1.868,1.868,0,0,0-1.373-.462,2.164,2.164,0,0,0-1.331.4,1.179,1.179,0,0,0-.538.971h-1.493a2.051,2.051,0,0,1,.462-1.257,3.145,3.145,0,0,1,1.252-.959,4.2,4.2,0,0,1,1.737-.353,3.436,3.436,0,0,1,2.351.749,2.712,2.712,0,0,1,.883,2.067v4a4.879,4.879,0,0,0,.3,1.9v.128ZM641.4,21.277a2.606,2.606,0,0,0,1.324-.36,2.181,2.181,0,0,0,.906-.939V18.2h-1.163q-2.73,0-2.729,1.6a1.354,1.354,0,0,0,.466,1.091,1.79,1.79,0,0,0,1.2.392" transform="translate(61.042 1.297)" fill="#12263f"/>
    <path id="Path_181903" data-name="Path 181903" d="M651.724,20.106a1.093,1.093,0,0,0-.454-.935,4.364,4.364,0,0,0-1.58-.573,7.45,7.45,0,0,1-1.79-.577,2.549,2.549,0,0,1-.979-.8,1.92,1.92,0,0,1-.317-1.107,2.252,2.252,0,0,1,.9-1.806,3.52,3.52,0,0,1,2.307-.738,3.622,3.622,0,0,1,2.4.764,2.417,2.417,0,0,1,.919,1.949h-1.493a1.336,1.336,0,0,0-.517-1.051,1.938,1.938,0,0,0-1.3-.442,2.028,2.028,0,0,0-1.268.352,1.112,1.112,0,0,0-.457.925.9.9,0,0,0,.424.809,5.167,5.167,0,0,0,1.537.522,8.1,8.1,0,0,1,1.8.595,2.615,2.615,0,0,1,1.023.829A2.04,2.04,0,0,1,653.207,20a2.222,2.222,0,0,1-.93,1.866,3.906,3.906,0,0,1-2.415.7,4.366,4.366,0,0,1-1.846-.369,2.992,2.992,0,0,1-1.256-1.032,2.481,2.481,0,0,1-.454-1.432h1.485a1.539,1.539,0,0,0,.6,1.184,2.325,2.325,0,0,0,1.473.437,2.4,2.4,0,0,0,1.352-.341,1.048,1.048,0,0,0,.509-.912" transform="translate(61.813 1.297)" fill="#12263f"/>
    <path id="Path_181904" data-name="Path 181904" d="M661.6,21.358a2.139,2.139,0,0,0,1.387-.481,1.7,1.7,0,0,0,.658-1.205h1.4a2.668,2.668,0,0,1-.513,1.421,3.373,3.373,0,0,1-1.264,1.075,3.648,3.648,0,0,1-1.672.4,3.579,3.579,0,0,1-2.821-1.183,4.709,4.709,0,0,1-1.047-3.238V17.9a5.21,5.21,0,0,1,.466-2.255,3.539,3.539,0,0,1,1.336-1.533,3.8,3.8,0,0,1,2.059-.546,3.48,3.48,0,0,1,2.427.874,3.12,3.12,0,0,1,1.031,2.271h-1.4a2.048,2.048,0,0,0-.639-1.385,1.985,1.985,0,0,0-1.416-.541,2.078,2.078,0,0,0-1.753.814,3.825,3.825,0,0,0-.622,2.357v.279a3.751,3.751,0,0,0,.618,2.312,2.089,2.089,0,0,0,1.766.811" transform="translate(62.905 1.297)" fill="#12263f"/>
    <path id="Path_181905" data-name="Path 181905" d="M665.576,17.988a5.138,5.138,0,0,1,.5-2.3,3.749,3.749,0,0,1,1.4-1.572,3.812,3.812,0,0,1,2.042-.553,3.664,3.664,0,0,1,2.87,1.227,4.724,4.724,0,0,1,1.1,3.266v.1a5.166,5.166,0,0,1-.487,2.276,3.7,3.7,0,0,1-1.387,1.569,3.846,3.846,0,0,1-2.075.561,3.651,3.651,0,0,1-2.861-1.228,4.7,4.7,0,0,1-1.1-3.249Zm1.493.175a3.713,3.713,0,0,0,.669,2.319,2.27,2.27,0,0,0,3.592-.012A4.062,4.062,0,0,0,672,17.988a3.711,3.711,0,0,0-.677-2.315,2.157,2.157,0,0,0-1.8-.887,2.133,2.133,0,0,0-1.773.874,4.036,4.036,0,0,0-.674,2.5" transform="translate(63.656 1.297)" fill="#12263f"/>
    <path id="Path_181906" data-name="Path 181906" d="M675.893,13.726l.049,1.091a3.158,3.158,0,0,1,2.6-1.251q2.751,0,2.775,3.105v5.738h-1.483V16.663a2,2,0,0,0-.429-1.389,1.728,1.728,0,0,0-1.312-.449,2.147,2.147,0,0,0-1.269.385,2.619,2.619,0,0,0-.85,1.012v6.187H674.49V13.726Z" transform="translate(64.508 1.297)" fill="#12263f"/>
    <rect id="Rectangle_38053" data-name="Rectangle 38053" width="1.485" height="12.326" transform="translate(551.562 30.006)" fill="#12263f"/>
    <path id="Path_181907" data-name="Path 181907" d="M506.578,34.988a5.137,5.137,0,0,1,.5-2.3,3.748,3.748,0,0,1,1.4-1.572,3.812,3.812,0,0,1,2.042-.553,3.664,3.664,0,0,1,2.869,1.227,4.724,4.724,0,0,1,1.1,3.266v.1A5.166,5.166,0,0,1,514,37.439a3.7,3.7,0,0,1-1.387,1.569,3.846,3.846,0,0,1-2.075.561,3.65,3.65,0,0,1-2.861-1.228,4.7,4.7,0,0,1-1.1-3.249Zm1.493.175a3.713,3.713,0,0,0,.669,2.319,2.27,2.27,0,0,0,3.591-.012A4.061,4.061,0,0,0,513,34.988a3.711,3.711,0,0,0-.677-2.315,2.156,2.156,0,0,0-1.8-.887,2.133,2.133,0,0,0-1.773.874,4.037,4.037,0,0,0-.674,2.5" transform="translate(48.449 2.923)" fill="#12263f"/>
    <path id="Path_181908" data-name="Path 181908" d="M520.579,37.106a1.093,1.093,0,0,0-.454-.935,4.365,4.365,0,0,0-1.58-.573,7.449,7.449,0,0,1-1.79-.577,2.551,2.551,0,0,1-.98-.8,1.92,1.92,0,0,1-.317-1.107,2.252,2.252,0,0,1,.9-1.806,3.52,3.52,0,0,1,2.307-.738,3.622,3.622,0,0,1,2.4.764,2.417,2.417,0,0,1,.919,1.949H520.49a1.336,1.336,0,0,0-.517-1.051,1.937,1.937,0,0,0-1.3-.442,2.027,2.027,0,0,0-1.268.352,1.112,1.112,0,0,0-.457.925.9.9,0,0,0,.424.809,5.166,5.166,0,0,0,1.537.522,8.1,8.1,0,0,1,1.8.595,2.616,2.616,0,0,1,1.023.829A2.04,2.04,0,0,1,522.062,37a2.223,2.223,0,0,1-.93,1.866,3.906,3.906,0,0,1-2.415.7,4.366,4.366,0,0,1-1.846-.369,2.992,2.992,0,0,1-1.256-1.032,2.481,2.481,0,0,1-.454-1.432h1.485a1.539,1.539,0,0,0,.6,1.184,2.325,2.325,0,0,0,1.473.437,2.4,2.4,0,0,0,1.352-.341,1.048,1.048,0,0,0,.51-.912" transform="translate(49.27 2.923)" fill="#12263f"/>
    <path id="Path_181909" data-name="Path 181909" d="M534.274,35.163a5.205,5.205,0,0,1-.906,3.195,2.906,2.906,0,0,1-2.456,1.212,3.176,3.176,0,0,1-2.486-1v4.181H526.94V30.727H528.3l.072.962a3.06,3.06,0,0,1,2.52-1.123,2.956,2.956,0,0,1,2.475,1.18,5.254,5.254,0,0,1,.91,3.281ZM532.791,35a3.831,3.831,0,0,0-.627-2.318,2.018,2.018,0,0,0-1.717-.852,2.183,2.183,0,0,0-2.021,1.2v4.149a2.183,2.183,0,0,0,2.037,1.188,2.008,2.008,0,0,0,1.7-.847,4.188,4.188,0,0,0,.63-2.516" transform="translate(50.396 2.923)" fill="#12263f"/>
    <path id="Path_181910" data-name="Path 181910" d="M539.551,32.058a4.467,4.467,0,0,0-.73-.056,1.955,1.955,0,0,0-1.982,1.244v6.163h-1.485V30.726H536.8l.024,1a2.312,2.312,0,0,1,2.071-1.162,1.52,1.52,0,0,1,.657.112Z" transform="translate(51.201 2.923)" fill="#12263f"/>
    <path id="Path_181911" data-name="Path 181911" d="M539.926,34.988a5.138,5.138,0,0,1,.5-2.3,3.749,3.749,0,0,1,1.4-1.572,3.811,3.811,0,0,1,2.042-.553,3.664,3.664,0,0,1,2.87,1.227,4.724,4.724,0,0,1,1.1,3.266v.1a5.167,5.167,0,0,1-.486,2.276,3.7,3.7,0,0,1-1.387,1.569,3.847,3.847,0,0,1-2.075.561,3.65,3.65,0,0,1-2.861-1.228,4.7,4.7,0,0,1-1.1-3.249Zm1.493.175a3.713,3.713,0,0,0,.669,2.319,2.27,2.27,0,0,0,3.591-.012,4.061,4.061,0,0,0,.665-2.483,3.711,3.711,0,0,0-.677-2.315,2.157,2.157,0,0,0-1.8-.887,2.133,2.133,0,0,0-1.773.874,4.037,4.037,0,0,0-.674,2.5" transform="translate(51.638 2.923)" fill="#12263f"/>
    <path id="Path_181912" data-name="Path 181912" d="M556.19,35.467a5.163,5.163,0,0,1-.914,3.2,2.922,2.922,0,0,1-2.456,1.208,3.025,3.025,0,0,1-2.544-1.165l-.071,1h-1.365V27.387h1.486v4.6A3.008,3.008,0,0,1,552.8,30.87a2.94,2.94,0,0,1,2.483,1.2,5.314,5.314,0,0,1,.9,3.274Zm-1.485-.168a4.016,4.016,0,0,0-.585-2.344,1.94,1.94,0,0,0-1.685-.827,2.179,2.179,0,0,0-2.11,1.366V37.25a2.237,2.237,0,0,0,2.126,1.363,1.932,1.932,0,0,0,1.662-.825,4.279,4.279,0,0,0,.593-2.488" transform="translate(52.491 2.619)" fill="#12263f"/>
    <rect id="Rectangle_38054" data-name="Rectangle 38054" width="1.485" height="12.326" transform="translate(610.68 30.006)" fill="#12263f"/>
    <path id="Path_181913" data-name="Path 181913" d="M564.532,39.569a3.793,3.793,0,0,1-2.874-1.159,4.3,4.3,0,0,1-1.107-3.1v-.274a5.224,5.224,0,0,1,.493-2.307,3.855,3.855,0,0,1,1.38-1.589,3.477,3.477,0,0,1,1.922-.573,3.253,3.253,0,0,1,2.632,1.115,4.826,4.826,0,0,1,.939,3.193v.619h-5.881a3.088,3.088,0,0,0,.749,2.074,2.359,2.359,0,0,0,1.825.791,2.6,2.6,0,0,0,1.333-.321,3.361,3.361,0,0,0,.954-.851l.907.706a3.645,3.645,0,0,1-3.274,1.677m-.185-7.783a1.98,1.98,0,0,0-1.509.654,3.174,3.174,0,0,0-.754,1.834h4.349v-.113a2.829,2.829,0,0,0-.609-1.754,1.867,1.867,0,0,0-1.477-.621" transform="translate(53.611 2.923)" fill="#12263f"/>
    <path id="Path_181914" data-name="Path 181914" d="M570.239,30.726l.039.963a3.206,3.206,0,0,1,2.577-1.123,2.482,2.482,0,0,1,2.479,1.4,3.29,3.29,0,0,1,1.127-1.011,3.337,3.337,0,0,1,1.641-.385q2.856,0,2.9,3.024v5.819h-1.485v-5.73a1.99,1.99,0,0,0-.425-1.391,1.872,1.872,0,0,0-1.429-.462,1.962,1.962,0,0,0-1.372.494,2,2,0,0,0-.634,1.328v5.762h-1.492V33.718a1.657,1.657,0,0,0-1.854-1.893,1.987,1.987,0,0,0-2,1.245v6.339h-1.485V30.726Z" transform="translate(54.403 2.923)" fill="#12263f"/>
    <path id="Path_181915" data-name="Path 181915" d="M587.371,39.409a3.09,3.09,0,0,1-.208-.915,3.311,3.311,0,0,1-2.472,1.076,3.067,3.067,0,0,1-2.107-.726A2.35,2.35,0,0,1,581.762,37a2.456,2.456,0,0,1,1.03-2.107,4.868,4.868,0,0,1,2.9-.749h1.444v-.684a1.665,1.665,0,0,0-.465-1.238,1.868,1.868,0,0,0-1.373-.462,2.164,2.164,0,0,0-1.331.4,1.179,1.179,0,0,0-.538.971h-1.493a2.05,2.05,0,0,1,.462-1.257,3.144,3.144,0,0,1,1.252-.959,4.2,4.2,0,0,1,1.737-.353,3.436,3.436,0,0,1,2.351.749,2.711,2.711,0,0,1,.883,2.067v4a4.877,4.877,0,0,0,.3,1.9v.128Zm-2.463-1.132a2.606,2.606,0,0,0,1.324-.36,2.182,2.182,0,0,0,.906-.939V35.2h-1.162q-2.73,0-2.729,1.6a1.354,1.354,0,0,0,.466,1.091,1.79,1.79,0,0,0,1.2.392" transform="translate(55.64 2.923)" fill="#12263f"/>
    <path id="Path_181916" data-name="Path 181916" d="M595.236,37.106a1.093,1.093,0,0,0-.454-.935A4.38,4.38,0,0,0,593.2,35.6a7.451,7.451,0,0,1-1.79-.577,2.567,2.567,0,0,1-.979-.8,1.92,1.92,0,0,1-.317-1.107,2.255,2.255,0,0,1,.9-1.806,3.52,3.52,0,0,1,2.307-.738,3.627,3.627,0,0,1,2.4.764,2.419,2.419,0,0,1,.918,1.949h-1.493a1.336,1.336,0,0,0-.517-1.051,1.938,1.938,0,0,0-1.3-.442,2.029,2.029,0,0,0-1.268.352,1.112,1.112,0,0,0-.457.925.9.9,0,0,0,.424.809,5.18,5.18,0,0,0,1.537.522,8.1,8.1,0,0,1,1.8.595,2.608,2.608,0,0,1,1.023.829A2.04,2.04,0,0,1,596.718,37a2.223,2.223,0,0,1-.93,1.866,3.9,3.9,0,0,1-2.415.7,4.366,4.366,0,0,1-1.846-.369,3,3,0,0,1-1.256-1.032,2.48,2.48,0,0,1-.454-1.432H591.3a1.539,1.539,0,0,0,.6,1.184,2.325,2.325,0,0,0,1.473.437,2.4,2.4,0,0,0,1.352-.341,1.049,1.049,0,0,0,.511-.912" transform="translate(56.41 2.923)" fill="#12263f"/>
    <path id="Path_181917" data-name="Path 181917" d="M601.266,35.3a5.084,5.084,0,0,1,.948-3.215,3.222,3.222,0,0,1,4.894-.172V27.387h1.485V39.713h-1.364l-.072-.931a3.023,3.023,0,0,1-2.479,1.091,2.965,2.965,0,0,1-2.46-1.235,5.151,5.151,0,0,1-.951-3.227Zm1.485.168a3.845,3.845,0,0,0,.61,2.311,1.967,1.967,0,0,0,1.685.835,2.165,2.165,0,0,0,2.062-1.267V33.357a2.184,2.184,0,0,0-2.047-1.228,1.98,1.98,0,0,0-1.7.844,4.238,4.238,0,0,0-.61,2.495" transform="translate(57.505 2.619)" fill="#12263f"/>
    <path id="Path_181918" data-name="Path 181918" d="M613.691,39.569a3.793,3.793,0,0,1-2.874-1.159,4.3,4.3,0,0,1-1.107-3.1v-.274a5.224,5.224,0,0,1,.493-2.307,3.854,3.854,0,0,1,1.38-1.589,3.477,3.477,0,0,1,1.922-.573,3.253,3.253,0,0,1,2.632,1.115,4.826,4.826,0,0,1,.939,3.193v.619H611.2a3.089,3.089,0,0,0,.749,2.074,2.359,2.359,0,0,0,1.825.791,2.6,2.6,0,0,0,1.333-.321,3.361,3.361,0,0,0,.954-.851l.907.706a3.645,3.645,0,0,1-3.274,1.677m-.185-7.783A1.98,1.98,0,0,0,612,32.44a3.174,3.174,0,0,0-.754,1.834h4.349v-.113a2.83,2.83,0,0,0-.609-1.754,1.867,1.867,0,0,0-1.477-.621" transform="translate(58.313 2.923)" fill="#12263f"/>
    <path id="Path_181919" data-name="Path 181919" d="M620.108,28.793v2.1h1.622v1.148h-1.622v5.391a1.209,1.209,0,0,0,.217.784.916.916,0,0,0,.738.26,3.575,3.575,0,0,0,.707-.1v1.2a4.385,4.385,0,0,1-1.139.159,1.849,1.849,0,0,1-1.5-.6,2.584,2.584,0,0,1-.505-1.709V32.044h-1.581V30.9h1.581v-2.1Z" transform="translate(59.014 2.754)" fill="#12263f"/>
    <path id="Path_181920" data-name="Path 181920" d="M626.538,39.569a3.793,3.793,0,0,1-2.874-1.159,4.3,4.3,0,0,1-1.107-3.1v-.274a5.224,5.224,0,0,1,.493-2.307,3.855,3.855,0,0,1,1.38-1.589,3.477,3.477,0,0,1,1.922-.573,3.253,3.253,0,0,1,2.632,1.115,4.826,4.826,0,0,1,.939,3.193v.619h-5.881a3.088,3.088,0,0,0,.749,2.074,2.359,2.359,0,0,0,1.825.791,2.6,2.6,0,0,0,1.333-.321,3.361,3.361,0,0,0,.954-.851l.907.706a3.645,3.645,0,0,1-3.274,1.677m-.185-7.783a1.98,1.98,0,0,0-1.509.654,3.173,3.173,0,0,0-.754,1.834h4.349v-.113a2.829,2.829,0,0,0-.609-1.754,1.867,1.867,0,0,0-1.477-.621" transform="translate(59.541 2.923)" fill="#12263f"/>
    <path id="Path_181921" data-name="Path 181921" d="M634.366,38.358a2.14,2.14,0,0,0,1.388-.481,1.7,1.7,0,0,0,.659-1.205h1.4a2.687,2.687,0,0,1-.513,1.421,3.382,3.382,0,0,1-1.264,1.075,3.648,3.648,0,0,1-1.673.4,3.576,3.576,0,0,1-2.82-1.183,4.709,4.709,0,0,1-1.047-3.238V34.9a5.21,5.21,0,0,1,.466-2.255,3.539,3.539,0,0,1,1.336-1.533,3.8,3.8,0,0,1,2.059-.546,3.482,3.482,0,0,1,2.427.874,3.124,3.124,0,0,1,1.031,2.271h-1.4a2.048,2.048,0,0,0-.639-1.385,1.984,1.984,0,0,0-1.416-.541,2.077,2.077,0,0,0-1.753.814,3.825,3.825,0,0,0-.622,2.357v.279a3.751,3.751,0,0,0,.618,2.312,2.088,2.088,0,0,0,1.765.811" transform="translate(60.301 2.923)" fill="#12263f"/>
    <path id="Path_181922" data-name="Path 181922" d="M640.807,28.793v2.1h1.622v1.148h-1.622v5.391a1.209,1.209,0,0,0,.217.784.916.916,0,0,0,.739.26,3.575,3.575,0,0,0,.707-.1v1.2a4.385,4.385,0,0,1-1.139.159,1.849,1.849,0,0,1-1.5-.6,2.584,2.584,0,0,1-.505-1.709V32.044h-1.581V30.9h1.581v-2.1Z" transform="translate(60.994 2.754)" fill="#12263f"/>
    <path id="Path_181923" data-name="Path 181923" d="M648.983,39.409a3.088,3.088,0,0,1-.208-.915A3.311,3.311,0,0,1,646.3,39.57a3.067,3.067,0,0,1-2.107-.726A2.35,2.35,0,0,1,643.374,37a2.456,2.456,0,0,1,1.03-2.107,4.868,4.868,0,0,1,2.9-.749h1.444v-.684a1.665,1.665,0,0,0-.465-1.238,1.868,1.868,0,0,0-1.373-.462,2.164,2.164,0,0,0-1.331.4,1.179,1.179,0,0,0-.538.971h-1.493a2.05,2.05,0,0,1,.462-1.257,3.145,3.145,0,0,1,1.252-.959A4.2,4.2,0,0,1,647,30.566a3.436,3.436,0,0,1,2.351.749,2.712,2.712,0,0,1,.883,2.067v4a4.879,4.879,0,0,0,.3,1.9v.128Zm-2.463-1.132a2.606,2.606,0,0,0,1.324-.36,2.182,2.182,0,0,0,.906-.939V35.2h-1.163q-2.73,0-2.729,1.6a1.354,1.354,0,0,0,.466,1.091,1.79,1.79,0,0,0,1.2.392" transform="translate(61.532 2.923)" fill="#12263f"/>
    <path id="Path_181924" data-name="Path 181924" d="M651.43,35.3a5.084,5.084,0,0,1,.948-3.215,3.222,3.222,0,0,1,4.894-.172V27.387h1.485V39.713h-1.364l-.072-.931a3.023,3.023,0,0,1-2.479,1.091,2.965,2.965,0,0,1-2.46-1.235,5.15,5.15,0,0,1-.951-3.227Zm1.484.168a3.845,3.845,0,0,0,.61,2.311,1.967,1.967,0,0,0,1.685.835,2.165,2.165,0,0,0,2.062-1.267V33.357a2.184,2.184,0,0,0-2.047-1.228,1.98,1.98,0,0,0-1.7.844,4.238,4.238,0,0,0-.61,2.495" transform="translate(62.303 2.619)" fill="#12263f"/>
    <path id="Path_181925" data-name="Path 181925" d="M659.859,34.988a5.138,5.138,0,0,1,.5-2.3,3.748,3.748,0,0,1,1.4-1.572,3.812,3.812,0,0,1,2.042-.553,3.664,3.664,0,0,1,2.869,1.227,4.723,4.723,0,0,1,1.1,3.266v.1a5.166,5.166,0,0,1-.486,2.276,3.7,3.7,0,0,1-1.387,1.569,3.847,3.847,0,0,1-2.075.561,3.65,3.65,0,0,1-2.861-1.228,4.7,4.7,0,0,1-1.1-3.249Zm1.493.175a3.713,3.713,0,0,0,.669,2.319,2.27,2.27,0,0,0,3.592-.012,4.062,4.062,0,0,0,.665-2.483,3.71,3.71,0,0,0-.677-2.315,2.156,2.156,0,0,0-1.8-.887,2.134,2.134,0,0,0-1.773.874,4.037,4.037,0,0,0-.674,2.5" transform="translate(63.109 2.923)" fill="#12263f"/>
    <path id="Path_181926" data-name="Path 181926" d="M673.861,37.106a1.093,1.093,0,0,0-.454-.935,4.38,4.38,0,0,0-1.581-.573,7.451,7.451,0,0,1-1.79-.577,2.567,2.567,0,0,1-.979-.8,1.92,1.92,0,0,1-.317-1.107,2.255,2.255,0,0,1,.9-1.806,3.52,3.52,0,0,1,2.307-.738,3.627,3.627,0,0,1,2.4.764,2.419,2.419,0,0,1,.918,1.949h-1.493a1.336,1.336,0,0,0-.517-1.051,1.937,1.937,0,0,0-1.3-.442,2.029,2.029,0,0,0-1.268.352,1.112,1.112,0,0,0-.457.925.9.9,0,0,0,.424.809,5.179,5.179,0,0,0,1.537.522,8.1,8.1,0,0,1,1.8.595,2.608,2.608,0,0,1,1.023.829A2.04,2.04,0,0,1,675.343,37a2.223,2.223,0,0,1-.93,1.866,3.9,3.9,0,0,1-2.415.7,4.366,4.366,0,0,1-1.846-.369,3,3,0,0,1-1.256-1.032,2.481,2.481,0,0,1-.454-1.432h1.485a1.539,1.539,0,0,0,.6,1.184,2.325,2.325,0,0,0,1.473.437,2.4,2.4,0,0,0,1.352-.341,1.049,1.049,0,0,0,.511-.912" transform="translate(63.93 2.923)" fill="#12263f"/>
    <path id="Path_181927" data-name="Path 181927" d="M589,58.843a1.4,1.4,0,0,1-1.4-1.4V56.9a1.4,1.4,0,1,1,2.794,0v.548a1.4,1.4,0,0,1-1.4,1.4" transform="translate(56.198 5.308)" fill="#a8fdff"/>
    <path id="Path_181928" data-name="Path 181928" d="M589,95.327a1.4,1.4,0,0,1-1.4-1.4V92.765a1.4,1.4,0,1,1,2.794,0V93.93a1.4,1.4,0,0,1-1.4,1.4m0-9.311a1.4,1.4,0,0,1-1.4-1.4V83.454a1.4,1.4,0,1,1,2.794,0v1.165a1.4,1.4,0,0,1-1.4,1.4m0-9.311a1.4,1.4,0,0,1-1.4-1.4V74.144a1.4,1.4,0,1,1,2.794,0v1.165a1.4,1.4,0,0,1-1.4,1.4m0-9.311a1.4,1.4,0,0,1-1.4-1.4V64.833a1.4,1.4,0,1,1,2.794,0V66a1.4,1.4,0,0,1-1.4,1.4" transform="translate(56.198 6.067)" fill="#a8fdff"/>
    <path id="Path_181929" data-name="Path 181929" d="M589,100.772a1.4,1.4,0,0,1-1.4-1.4v-.548a1.4,1.4,0,1,1,2.794,0v.548a1.4,1.4,0,0,1-1.4,1.4" transform="translate(56.198 9.318)" fill="#a8fdff"/>
    <path id="Path_181930" data-name="Path 181930" d="M352.062,222.527a1.4,1.4,0,0,1-1.4-1.4v-.548a1.4,1.4,0,1,1,2.794,0v.548a1.4,1.4,0,0,1-1.4,1.4" transform="translate(33.538 20.963)" fill="#ffd48a"/>
    <path id="Path_181931" data-name="Path 181931" d="M352.062,259.012a1.4,1.4,0,0,1-1.4-1.4V256.45a1.4,1.4,0,0,1,2.794,0v1.165a1.4,1.4,0,0,1-1.4,1.4m0-9.311a1.4,1.4,0,0,1-1.4-1.4v-1.165a1.4,1.4,0,0,1,2.794,0V248.3a1.4,1.4,0,0,1-1.4,1.4m0-9.311a1.4,1.4,0,0,1-1.4-1.4v-1.165a1.4,1.4,0,0,1,2.794,0v1.165a1.4,1.4,0,0,1-1.4,1.4m0-9.311a1.4,1.4,0,0,1-1.4-1.4v-1.165a1.4,1.4,0,0,1,2.794,0v1.165a1.4,1.4,0,0,1-1.4,1.4" transform="translate(33.538 21.722)" fill="#ffd48a"/>
    <path id="Path_181932" data-name="Path 181932" d="M352.062,264.455a1.4,1.4,0,0,1-1.4-1.4v-.548a1.4,1.4,0,1,1,2.794,0v.548a1.4,1.4,0,0,1-1.4,1.4" transform="translate(33.538 24.973)" fill="#ffd48a"/>
  </g>
</svg>
