<svg xmlns="http://www.w3.org/2000/svg" xmlns:xlink="http://www.w3.org/1999/xlink" width="820" height="240" viewBox="0 0 820 240">
  <defs>
    <clipPath id="clip-path">
      <rect id="Rectangle_38044" data-name="Rectangle 38044" width="820" height="152.579" fill="none"/>
    </clipPath>
  </defs>
  <g id="t2-i1" transform="translate(-390 -1549)">
    <rect id="Rectangle_38045" data-name="Rectangle 38045" width="820" height="240" transform="translate(390 1549)" fill="#fff"/>
    <g id="Group_118112" data-name="Group 118112" transform="translate(390 1593)">
      <path id="Path_181664" data-name="Path 181664" d="M408.884,0l41.4,69.812-41.4,69.822h164.7l41.4-69.822L573.588,0Z" transform="translate(-1.131 0)" fill="#f9c05c"/>
      <g id="Group_118111" data-name="Group 118111">
        <g id="Group_118110" data-name="Group 118110" clip-path="url(#clip-path)">
          <path id="Path_181665" data-name="Path 181665" d="M574.586,152.334h-164.7a1,1,0,0,1-.858-1.506l41.1-69.315-41.1-69.3a1,1,0,0,1,.858-1.5h164.7a1,1,0,0,1,.859.489l41.4,69.811a.993.993,0,0,1,0,1.016l-41.4,69.823a1,1,0,0,1-.859.489M411.633,150.34H574.019l40.806-68.826L574.019,12.7H411.633l40.5,68.305a.993.993,0,0,1,0,1.016Z" transform="translate(-1.131 -0.03)" fill="#f9c05c"/>
          <path id="Path_181666" data-name="Path 181666" d="M547.845,69.712l-6.021-10.155H476.916l6.022,10.155-6.022,10.157h64.908Z" transform="translate(-1.32 -0.165)" fill="#12263f"/>
          <path id="Path_181667" data-name="Path 181667" d="M410.543,70.23,369.146.419h-164.7l41.4,69.811-41.4,69.822h164.7Z" transform="translate(-0.566 -0.001)" fill="#ffd48a"/>
          <path id="Path_181668" data-name="Path 181668" d="M370.145,152.085h-164.7a.749.749,0,0,1-.644-1.13l41.171-69.441L204.8,12.085a.748.748,0,0,1,.644-1.129h164.7a.748.748,0,0,1,.643.366l41.4,69.811a.747.747,0,0,1,0,.763l-41.4,69.823a.75.75,0,0,1-.643.366m-163.391-1.5H369.719l40.953-69.075L369.719,12.452H206.754l40.728,68.681a.752.752,0,0,1,0,.763Z" transform="translate(-0.566 -0.03)" fill="#ffd48a"/>
          <path id="Path_181669" data-name="Path 181669" d="M206.1,70.23,164.7.419H0L41.4,70.23,0,140.053H164.7Z" transform="translate(0 -0.001)" fill="#ffe1ad"/>
          <path id="Path_181670" data-name="Path 181670" d="M149.722,91.312,143.7,81.158H55.881L61.9,91.312l-6.022,10.157H143.7Z" transform="translate(-0.155 -0.225)" fill="#12263f"/>
          <path id="Path_181671" data-name="Path 181671" d="M347.024,80.612,341,70.457H268.96l6.021,10.155L268.96,90.768H341Z" transform="translate(-0.744 -0.195)" fill="#12263f"/>
          <path id="Path_181672" data-name="Path 181672" d="M819.428,70.23,778.031.419h-164.7l41.4,69.811-41.4,69.822h164.7Z" transform="translate(-1.697 -0.001)" fill="#f9b131"/>
          <path id="Path_181673" data-name="Path 181673" d="M165.7,151.837H1a.5.5,0,0,1-.429-.753L41.817,81.515.571,11.958A.5.5,0,0,1,1,11.206H165.7a.5.5,0,0,1,.429.244l41.4,69.811a.5.5,0,0,1,0,.508l-41.4,69.823a.5.5,0,0,1-.429.244m-163.828-1H165.419l41.1-69.325L165.419,12.2H1.875L42.825,81.262a.493.493,0,0,1,0,.508Z" transform="translate(-0.001 -0.031)" fill="#ffe1ad"/>
          <path id="Path_181674" data-name="Path 181674" d="M779.029,152.608h-164.7a1.272,1.272,0,0,1-1.094-1.921l41.012-69.174L613.231,12.35a1.271,1.271,0,0,1,1.094-1.92h164.7a1.274,1.274,0,0,1,1.094.623l41.4,69.81a1.271,1.271,0,0,1,0,1.3l-41.4,69.823a1.274,1.274,0,0,1-1.094.623m-162.472-2.544H778.3l40.643-68.551L778.3,12.973H616.556l40.258,67.891a1.276,1.276,0,0,1,0,1.3Z" transform="translate(-1.696 -0.029)" fill="#f9b131"/>
          <path id="Path_181675" data-name="Path 181675" d="M482.517,52.379a3.9,3.9,0,0,1-1.809,1.391,7.355,7.355,0,0,1-2.7.459,5.24,5.24,0,0,1-2.77-.732,4.864,4.864,0,0,1-1.871-2.081,7.167,7.167,0,0,1-.679-3.128V47.173a6.707,6.707,0,0,1,1.345-4.47,4.682,4.682,0,0,1,3.781-1.587,4.852,4.852,0,0,1,3.217,1.02,4.458,4.458,0,0,1,1.49,2.9h-1.682a2.784,2.784,0,0,0-3.016-2.542,2.977,2.977,0,0,0-2.563,1.188,5.8,5.8,0,0,0-.882,3.443v1.044a5.438,5.438,0,0,0,.981,3.417,3.182,3.182,0,0,0,2.656,1.268,5.921,5.921,0,0,0,1.657-.209,2.568,2.568,0,0,0,1.174-.709V49.076h-2.954V47.7h4.628Z" transform="translate(-1.308 -0.114)" fill="#12263f"/>
          <path id="Path_181676" data-name="Path 181676" d="M489.036,54.238a4.14,4.14,0,0,1-3.137-1.265,4.7,4.7,0,0,1-1.21-3.389v-.3a5.693,5.693,0,0,1,.539-2.52,4.207,4.207,0,0,1,1.508-1.735,3.789,3.789,0,0,1,2.1-.627,3.552,3.552,0,0,1,2.875,1.219,5.276,5.276,0,0,1,1.025,3.488v.675h-6.424a3.362,3.362,0,0,0,.82,2.265,2.57,2.57,0,0,0,1.993.864,2.827,2.827,0,0,0,1.455-.35,3.671,3.671,0,0,0,1.043-.929l.99.771a3.982,3.982,0,0,1-3.576,1.832m-.2-8.5a2.161,2.161,0,0,0-1.647.715,3.467,3.467,0,0,0-.825,2h4.751v-.123a3.083,3.083,0,0,0-.666-1.915,2.036,2.036,0,0,0-1.613-.68" transform="translate(-1.341 -0.123)" fill="#12263f"/>
          <path id="Path_181677" data-name="Path 181677" d="M496.172,44.579l.053,1.193a3.455,3.455,0,0,1,2.839-1.367q3.007,0,3.033,3.393v6.267h-1.622V47.788a2.177,2.177,0,0,0-.469-1.517,1.878,1.878,0,0,0-1.433-.491,2.333,2.333,0,0,0-1.384.421,2.845,2.845,0,0,0-.929,1.1v6.758h-1.622V44.579Z" transform="translate(-1.369 -0.123)" fill="#12263f"/>
          <path id="Path_181678" data-name="Path 181678" d="M508.5,54.238a4.14,4.14,0,0,1-3.137-1.265,4.7,4.7,0,0,1-1.21-3.389v-.3a5.694,5.694,0,0,1,.538-2.52,4.207,4.207,0,0,1,1.508-1.735,3.789,3.789,0,0,1,2.1-.627,3.552,3.552,0,0,1,2.875,1.219,5.276,5.276,0,0,1,1.025,3.488v.675h-6.424a3.362,3.362,0,0,0,.82,2.265,2.57,2.57,0,0,0,1.993.864,2.827,2.827,0,0,0,1.455-.35,3.671,3.671,0,0,0,1.043-.929l.99.771a3.982,3.982,0,0,1-3.576,1.832m-.2-8.5a2.161,2.161,0,0,0-1.647.715,3.467,3.467,0,0,0-.825,2h4.751v-.123a3.083,3.083,0,0,0-.666-1.915,2.036,2.036,0,0,0-1.613-.68" transform="translate(-1.395 -0.123)" fill="#12263f"/>
          <path id="Path_181679" data-name="Path 181679" d="M518.689,46.033a4.979,4.979,0,0,0-.8-.061,2.138,2.138,0,0,0-2.165,1.359v6.731h-1.622V44.579h1.578l.027,1.1A2.522,2.522,0,0,1,517.97,44.4a1.657,1.657,0,0,1,.719.123Z" transform="translate(-1.422 -0.123)" fill="#12263f"/>
          <path id="Path_181680" data-name="Path 181680" d="M525.7,54.062a3.377,3.377,0,0,1-.227-1,3.619,3.619,0,0,1-2.7,1.175,3.346,3.346,0,0,1-2.3-.793,2.562,2.562,0,0,1-.9-2.011,2.678,2.678,0,0,1,1.127-2.3,5.3,5.3,0,0,1,3.167-.82h1.578v-.745a1.827,1.827,0,0,0-.508-1.355,2.048,2.048,0,0,0-1.5-.5,2.364,2.364,0,0,0-1.455.439,1.29,1.29,0,0,0-.587,1.06h-1.63a2.238,2.238,0,0,1,.5-1.371,3.447,3.447,0,0,1,1.367-1.048,4.614,4.614,0,0,1,1.9-.385,3.752,3.752,0,0,1,2.569.82,2.954,2.954,0,0,1,.963,2.257v4.365a5.349,5.349,0,0,0,.333,2.077v.14Zm-2.69-1.236a2.846,2.846,0,0,0,1.446-.395,2.38,2.38,0,0,0,.99-1.025V49.461h-1.27q-2.98,0-2.98,1.744A1.477,1.477,0,0,0,521.7,52.4a1.956,1.956,0,0,0,1.306.43" transform="translate(-1.438 -0.123)" fill="#12263f"/>
          <path id="Path_181681" data-name="Path 181681" d="M534.219,46.033a4.978,4.978,0,0,0-.8-.061,2.138,2.138,0,0,0-2.165,1.359v6.731h-1.621V44.579h1.578l.027,1.1A2.522,2.522,0,0,1,533.5,44.4a1.656,1.656,0,0,1,.719.123Z" transform="translate(-1.465 -0.123)" fill="#12263f"/>
          <path id="Path_181682" data-name="Path 181682" d="M544.117,54.238a4.14,4.14,0,0,1-3.137-1.265,4.7,4.7,0,0,1-1.21-3.389v-.3a5.693,5.693,0,0,1,.539-2.52,4.207,4.207,0,0,1,1.508-1.735,3.789,3.789,0,0,1,2.1-.627,3.552,3.552,0,0,1,2.875,1.219,5.276,5.276,0,0,1,1.025,3.488v.675h-6.424a3.362,3.362,0,0,0,.82,2.265,2.57,2.57,0,0,0,1.993.864,2.827,2.827,0,0,0,1.455-.35,3.671,3.671,0,0,0,1.043-.929l.99.771a3.982,3.982,0,0,1-3.576,1.832m-.2-8.5a2.161,2.161,0,0,0-1.647.715,3.467,3.467,0,0,0-.825,2h4.751v-.123a3.082,3.082,0,0,0-.666-1.915,2.036,2.036,0,0,0-1.612-.68" transform="translate(-1.493 -0.123)" fill="#12263f"/>
          <rect id="Rectangle_38038" data-name="Rectangle 38038" width="1.621" height="13.463" transform="translate(548.338 40.477)" fill="#12263f"/>
          <path id="Path_181683" data-name="Path 181683" d="M487.918,75.654V62.892h4.111a6.044,6.044,0,0,1,3.042.768,5.389,5.389,0,0,1,2.107,2.164,6.538,6.538,0,0,1,.768,3.133v.587a6.585,6.585,0,0,1-.74,3.142,5.433,5.433,0,0,1-2.086,2.174,5.917,5.917,0,0,1-3,.793Zm3.076-10.386v8.02h1.069a2.389,2.389,0,0,0,2.033-.942,4.613,4.613,0,0,0,.71-2.8v-.552a4.578,4.578,0,0,0-.71-2.787,2.434,2.434,0,0,0-2.068-.937Z" transform="translate(-1.35 -0.174)" fill="#fff"/>
          <path id="Path_181684" data-name="Path 181684" d="M504.006,75.838a4.875,4.875,0,0,1-3.532-1.3,4.5,4.5,0,0,1-1.35-3.389V70.9a5.834,5.834,0,0,1,.54-2.569,3.942,3.942,0,0,1,1.574-1.721A4.749,4.749,0,0,1,503.691,66a4.106,4.106,0,0,1,3.155,1.241A4.87,4.87,0,0,1,508,70.7V71.85h-5.873a2.138,2.138,0,0,0,.692,1.254,2.066,2.066,0,0,0,1.385.455,2.653,2.653,0,0,0,2.191-.98l1.35,1.595a3.761,3.761,0,0,1-1.565,1.213,5.266,5.266,0,0,1-2.178.453m-.333-7.556q-1.3,0-1.543,1.719h2.98v-.228a1.461,1.461,0,0,0-.359-1.1,1.433,1.433,0,0,0-1.078-.391" transform="translate(-1.381 -0.183)" fill="#fff"/>
          <path id="Path_181685" data-name="Path 181685" d="M514.182,73a.681.681,0,0,0-.395-.6,5.949,5.949,0,0,0-1.5-.474,6.822,6.822,0,0,1-1.824-.644,3.048,3.048,0,0,1-1.095-.968A2.314,2.314,0,0,1,508.993,69a2.622,2.622,0,0,1,1.078-2.152A4.45,4.45,0,0,1,512.893,66a4.92,4.92,0,0,1,3.015.851,2.657,2.657,0,0,1,1.14,2.235h-2.963q0-1.14-1.2-1.139a1.19,1.19,0,0,0-.78.258.8.8,0,0,0-.315.644.736.736,0,0,0,.385.639,3.653,3.653,0,0,0,1.232.4,10.533,10.533,0,0,1,1.486.377,2.7,2.7,0,0,1,2.138,2.638,2.483,2.483,0,0,1-1.153,2.112,5.05,5.05,0,0,1-2.984.816,5.161,5.161,0,0,1-2.174-.439,3.641,3.641,0,0,1-1.49-1.192,2.7,2.7,0,0,1-.534-1.587h2.761a1.137,1.137,0,0,0,.438.959,1.8,1.8,0,0,0,1.078.3,1.415,1.415,0,0,0,.906-.245.784.784,0,0,0,.3-.64" transform="translate(-1.407 -0.183)" fill="#fff"/>
          <path id="Path_181686" data-name="Path 181686" d="M523.026,75.838a4.875,4.875,0,0,1-3.532-1.3,4.5,4.5,0,0,1-1.35-3.389V70.9a5.833,5.833,0,0,1,.539-2.569,3.942,3.942,0,0,1,1.574-1.721A4.749,4.749,0,0,1,522.71,66a4.106,4.106,0,0,1,3.155,1.241,4.871,4.871,0,0,1,1.157,3.457V71.85H521.15a2.139,2.139,0,0,0,.692,1.254,2.066,2.066,0,0,0,1.385.455,2.653,2.653,0,0,0,2.191-.98l1.35,1.595a3.761,3.761,0,0,1-1.565,1.213,5.267,5.267,0,0,1-2.178.453m-.333-7.556q-1.3,0-1.543,1.719h2.98v-.228a1.461,1.461,0,0,0-.359-1.1,1.433,1.433,0,0,0-1.078-.391" transform="translate(-1.434 -0.183)" fill="#fff"/>
          <path id="Path_181687" data-name="Path 181687" d="M527.864,70.833a5.6,5.6,0,0,1,.552-2.529A3.953,3.953,0,0,1,530,66.6a4.781,4.781,0,0,1,2.427-.6,4.362,4.362,0,0,1,3.357,1.318,5.062,5.062,0,0,1,1.228,3.59v.1a4.915,4.915,0,0,1-1.232,3.519,4.943,4.943,0,0,1-6.587.088,4.748,4.748,0,0,1-1.323-3.292Zm2.954.184a3.535,3.535,0,0,0,.412,1.929,1.373,1.373,0,0,0,1.219.613q1.577,0,1.612-2.428v-.3q0-2.55-1.63-2.55-1.481,0-1.6,2.2Z" transform="translate(-1.46 -0.183)" fill="#fff"/>
          <path id="Path_181688" data-name="Path 181688" d="M470.45,92.431a5.554,5.554,0,0,1,1.034-3.509,3.519,3.519,0,0,1,5.346-.189V83.789h1.621V97.252h-1.49l-.079-1.016a3.3,3.3,0,0,1-2.708,1.192,3.237,3.237,0,0,1-2.686-1.349,5.617,5.617,0,0,1-1.039-3.524Zm1.621.184a4.207,4.207,0,0,0,.666,2.524,2.152,2.152,0,0,0,1.841.911,2.365,2.365,0,0,0,2.252-1.384V90.31a2.383,2.383,0,0,0-2.235-1.34,2.161,2.161,0,0,0-1.858.92,4.632,4.632,0,0,0-.666,2.725" transform="translate(-1.302 -0.232)" fill="#12263f"/>
          <path id="Path_181689" data-name="Path 181689" d="M484.931,97.438a4.14,4.14,0,0,1-3.137-1.265,4.7,4.7,0,0,1-1.21-3.389v-.3a5.694,5.694,0,0,1,.538-2.52,4.207,4.207,0,0,1,1.508-1.735,3.789,3.789,0,0,1,2.1-.627,3.552,3.552,0,0,1,2.875,1.219,5.276,5.276,0,0,1,1.025,3.488v.675h-6.424a3.362,3.362,0,0,0,.82,2.265,2.57,2.57,0,0,0,1.993.864,2.827,2.827,0,0,0,1.455-.35,3.671,3.671,0,0,0,1.043-.929l.99.771a3.982,3.982,0,0,1-3.576,1.832m-.2-8.5a2.161,2.161,0,0,0-1.647.715,3.467,3.467,0,0,0-.825,2h4.751v-.123a3.082,3.082,0,0,0-.666-1.915,2.036,2.036,0,0,0-1.613-.68" transform="translate(-1.33 -0.242)" fill="#12263f"/>
          <path id="Path_181690" data-name="Path 181690" d="M498.792,96.114a2.341,2.341,0,0,0,1.517-.526,1.853,1.853,0,0,0,.718-1.315h1.534a2.935,2.935,0,0,1-.56,1.552A3.7,3.7,0,0,1,500.619,97a3.978,3.978,0,0,1-1.827.438,3.9,3.9,0,0,1-3.081-1.293,5.149,5.149,0,0,1-1.143-3.536v-.271a5.723,5.723,0,0,1,.508-2.463,3.879,3.879,0,0,1,1.459-1.674,4.152,4.152,0,0,1,2.249-.6,3.8,3.8,0,0,1,2.652.955,3.419,3.419,0,0,1,1.126,2.48h-1.534a2.233,2.233,0,0,0-.7-1.511,2.166,2.166,0,0,0-1.548-.592,2.273,2.273,0,0,0-1.916.89,4.178,4.178,0,0,0-.678,2.572V92.7a4.093,4.093,0,0,0,.674,2.524,2.282,2.282,0,0,0,1.929.886" transform="translate(-1.368 -0.242)" fill="#12263f"/>
          <path id="Path_181691" data-name="Path 181691" d="M503.98,92.434a5.591,5.591,0,0,1,.548-2.507,4.079,4.079,0,0,1,1.525-1.718,4.153,4.153,0,0,1,2.231-.6,4,4,0,0,1,3.133,1.341,5.16,5.16,0,0,1,1.2,3.567v.114a5.649,5.649,0,0,1-.53,2.484,4.017,4.017,0,0,1-1.517,1.714,4.2,4.2,0,0,1-2.266.613,3.986,3.986,0,0,1-3.124-1.341,5.131,5.131,0,0,1-1.2-3.549Zm1.63.192a4.059,4.059,0,0,0,.731,2.533,2.48,2.48,0,0,0,3.923-.014,4.432,4.432,0,0,0,.727-2.711,4.053,4.053,0,0,0-.741-2.529,2.354,2.354,0,0,0-1.967-.968,2.328,2.328,0,0,0-1.938.955,4.4,4.4,0,0,0-.736,2.734" transform="translate(-1.394 -0.242)" fill="#12263f"/>
          <path id="Path_181692" data-name="Path 181692" d="M516.2,87.78l.044,1.052a3.5,3.5,0,0,1,2.813-1.228,2.711,2.711,0,0,1,2.708,1.526,3.578,3.578,0,0,1,1.232-1.1,3.638,3.638,0,0,1,1.792-.421q3.12,0,3.173,3.3v6.354h-1.622V91a2.179,2.179,0,0,0-.465-1.521,2.048,2.048,0,0,0-1.56-.5,2.154,2.154,0,0,0-1.5.539,2.191,2.191,0,0,0-.693,1.451v6.294H520.5V91.048a1.81,1.81,0,0,0-2.025-2.068,2.169,2.169,0,0,0-2.182,1.358v6.925h-1.621V87.78Z" transform="translate(-1.424 -0.242)" fill="#12263f"/>
          <path id="Path_181693" data-name="Path 181693" d="M538.464,92.626a5.685,5.685,0,0,1-.99,3.489,3.178,3.178,0,0,1-2.683,1.322,3.478,3.478,0,0,1-2.716-1.095v4.565h-1.621V87.78h1.481l.079,1.052a3.341,3.341,0,0,1,2.752-1.228,3.233,3.233,0,0,1,2.7,1.288,5.739,5.739,0,0,1,1,3.585Zm-1.622-.184a4.186,4.186,0,0,0-.684-2.532,2.2,2.2,0,0,0-1.875-.929,2.383,2.383,0,0,0-2.209,1.305v4.531a2.389,2.389,0,0,0,2.226,1.3,2.193,2.193,0,0,0,1.854-.925,4.574,4.574,0,0,0,.688-2.748" transform="translate(-1.468 -0.242)" fill="#12263f"/>
          <path id="Path_181694" data-name="Path 181694" d="M545.136,89.234a4.86,4.86,0,0,0-.8-.062,2.138,2.138,0,0,0-2.165,1.359v6.731h-1.621V87.78h1.578l.027,1.1a2.524,2.524,0,0,1,2.261-1.271,1.656,1.656,0,0,1,.719.123Z" transform="translate(-1.496 -0.242)" fill="#12263f"/>
          <path id="Path_181695" data-name="Path 181695" d="M552.145,97.262a3.375,3.375,0,0,1-.227-1,3.619,3.619,0,0,1-2.7,1.175,3.347,3.347,0,0,1-2.3-.793,2.562,2.562,0,0,1-.9-2.011,2.678,2.678,0,0,1,1.127-2.3,5.3,5.3,0,0,1,3.167-.82h1.578v-.745a1.827,1.827,0,0,0-.508-1.355,2.047,2.047,0,0,0-1.5-.5,2.364,2.364,0,0,0-1.455.439,1.29,1.29,0,0,0-.587,1.06h-1.63a2.238,2.238,0,0,1,.5-1.371,3.448,3.448,0,0,1,1.367-1.048,4.614,4.614,0,0,1,1.9-.385,3.752,3.752,0,0,1,2.569.82,2.954,2.954,0,0,1,.963,2.257v4.365a5.35,5.35,0,0,0,.333,2.077v.14Zm-2.69-1.236a2.846,2.846,0,0,0,1.446-.395,2.38,2.38,0,0,0,.99-1.025V92.661h-1.27q-2.98,0-2.98,1.744a1.477,1.477,0,0,0,.508,1.192,1.957,1.957,0,0,0,1.306.43" transform="translate(-1.511 -0.242)" fill="#12263f"/>
          <path id="Path_181696" data-name="Path 181696" d="M260.811,64.855V52.093h3.6a5.8,5.8,0,0,1,2.945.736,4.991,4.991,0,0,1,1.977,2.1,6.817,6.817,0,0,1,.705,3.12v.815a6.827,6.827,0,0,1-.7,3.164,4.9,4.9,0,0,1-1.988,2.086,6.179,6.179,0,0,1-3.012.745Zm1.682-11.385V63.478h1.77a3.851,3.851,0,0,0,3.029-1.211,5,5,0,0,0,1.082-3.447v-.746a5.079,5.079,0,0,0-1.02-3.381,3.635,3.635,0,0,0-2.9-1.225Z" transform="translate(-0.722 -0.144)" fill="#12263f"/>
          <path id="Path_181697" data-name="Path 181697" d="M276.294,65.038a4.14,4.14,0,0,1-3.137-1.265,4.7,4.7,0,0,1-1.21-3.389v-.3a5.694,5.694,0,0,1,.539-2.52,4.208,4.208,0,0,1,1.508-1.735,3.789,3.789,0,0,1,2.1-.627,3.552,3.552,0,0,1,2.875,1.219,5.276,5.276,0,0,1,1.025,3.488v.675h-6.424a3.362,3.362,0,0,0,.82,2.265,2.57,2.57,0,0,0,1.993.864,2.827,2.827,0,0,0,1.455-.35,3.67,3.67,0,0,0,1.043-.929l.99.771a3.982,3.982,0,0,1-3.576,1.832m-.2-8.5a2.161,2.161,0,0,0-1.647.715,3.467,3.467,0,0,0-.825,2h4.751v-.123a3.082,3.082,0,0,0-.666-1.915,2.036,2.036,0,0,0-1.613-.68" transform="translate(-0.752 -0.153)" fill="#12263f"/>
          <path id="Path_181698" data-name="Path 181698" d="M287.417,62.348a1.2,1.2,0,0,0-.495-1.021,4.768,4.768,0,0,0-1.728-.626,8.14,8.14,0,0,1-1.953-.631,2.766,2.766,0,0,1-1.07-.877,2.093,2.093,0,0,1-.346-1.21,2.462,2.462,0,0,1,.985-1.972,3.849,3.849,0,0,1,2.52-.807,3.96,3.96,0,0,1,2.616.833,2.645,2.645,0,0,1,1,2.13h-1.63a1.462,1.462,0,0,0-.565-1.149,2.117,2.117,0,0,0-1.424-.482,2.213,2.213,0,0,0-1.384.386,1.211,1.211,0,0,0-.5,1.007.984.984,0,0,0,.464.886,5.7,5.7,0,0,0,1.679.569,8.768,8.768,0,0,1,1.968.649,2.881,2.881,0,0,1,1.118.906,2.241,2.241,0,0,1,.363,1.293,2.426,2.426,0,0,1-1.017,2.037,4.26,4.26,0,0,1-2.638.767,4.785,4.785,0,0,1-2.016-.4A3.3,3.3,0,0,1,282,63.51a2.711,2.711,0,0,1-.5-1.565h1.622a1.677,1.677,0,0,0,.653,1.292,2.529,2.529,0,0,0,1.609.478,2.6,2.6,0,0,0,1.476-.373,1.144,1.144,0,0,0,.557-.994" transform="translate(-0.779 -0.153)" fill="#12263f"/>
          <path id="Path_181699" data-name="Path 181699" d="M299.188,60.227a5.68,5.68,0,0,1-.99,3.488,3.177,3.177,0,0,1-2.683,1.323,3.475,3.475,0,0,1-2.716-1.1v4.566h-1.621V55.38h1.481l.079,1.052a3.342,3.342,0,0,1,2.752-1.228,3.233,3.233,0,0,1,2.7,1.288,5.743,5.743,0,0,1,1,3.585Zm-1.621-.184a4.19,4.19,0,0,0-.684-2.533,2.2,2.2,0,0,0-1.875-.929,2.383,2.383,0,0,0-2.209,1.306v4.531a2.388,2.388,0,0,0,2.226,1.3,2.193,2.193,0,0,0,1.854-.924,4.575,4.575,0,0,0,.688-2.748" transform="translate(-0.806 -0.153)" fill="#12263f"/>
          <path id="Path_181700" data-name="Path 181700" d="M305.21,65.038a4.14,4.14,0,0,1-3.137-1.265,4.7,4.7,0,0,1-1.21-3.389v-.3a5.693,5.693,0,0,1,.539-2.52,4.207,4.207,0,0,1,1.508-1.735,3.789,3.789,0,0,1,2.1-.627,3.552,3.552,0,0,1,2.875,1.219,5.276,5.276,0,0,1,1.025,3.488v.675h-6.424a3.362,3.362,0,0,0,.82,2.265,2.57,2.57,0,0,0,1.993.864,2.827,2.827,0,0,0,1.455-.35,3.671,3.671,0,0,0,1.043-.929l.99.771a3.982,3.982,0,0,1-3.576,1.832m-.2-8.5a2.161,2.161,0,0,0-1.647.715,3.467,3.467,0,0,0-.825,2h4.751v-.123a3.082,3.082,0,0,0-.666-1.915,2.036,2.036,0,0,0-1.613-.68" transform="translate(-0.832 -0.153)" fill="#12263f"/>
          <path id="Path_181701" data-name="Path 181701" d="M315.4,56.834a4.861,4.861,0,0,0-.8-.062,2.138,2.138,0,0,0-2.165,1.359v6.731h-1.621V55.38h1.578l.027,1.1a2.524,2.524,0,0,1,2.261-1.271,1.657,1.657,0,0,1,.719.123Z" transform="translate(-0.86 -0.153)" fill="#12263f"/>
          <path id="Path_181702" data-name="Path 181702" d="M319.539,53.077v2.3h1.77v1.254h-1.77v5.889a1.314,1.314,0,0,0,.236.855,1,1,0,0,0,.807.285,3.942,3.942,0,0,0,.771-.1v1.306a4.74,4.74,0,0,1-1.245.175,2.017,2.017,0,0,1-1.638-.657,2.823,2.823,0,0,1-.552-1.867V56.628h-1.726V55.375h1.726v-2.3Z" transform="translate(-0.875 -0.147)" fill="#12263f"/>
          <path id="Path_181703" data-name="Path 181703" d="M329.076,64.863a3.376,3.376,0,0,1-.227-1,3.619,3.619,0,0,1-2.7,1.175,3.346,3.346,0,0,1-2.3-.793,2.562,2.562,0,0,1-.9-2.011,2.678,2.678,0,0,1,1.127-2.3,5.3,5.3,0,0,1,3.167-.82h1.578v-.745a1.827,1.827,0,0,0-.508-1.355,2.047,2.047,0,0,0-1.5-.5,2.363,2.363,0,0,0-1.455.439,1.29,1.29,0,0,0-.587,1.06h-1.63a2.238,2.238,0,0,1,.5-1.371,3.447,3.447,0,0,1,1.367-1.048,4.614,4.614,0,0,1,1.9-.385,3.752,3.752,0,0,1,2.569.82,2.954,2.954,0,0,1,.963,2.257v4.365a5.35,5.35,0,0,0,.333,2.077v.14Zm-2.691-1.236a2.846,2.846,0,0,0,1.446-.395,2.38,2.38,0,0,0,.99-1.025V60.262h-1.27q-2.98,0-2.98,1.744a1.477,1.477,0,0,0,.508,1.192,1.956,1.956,0,0,0,1.306.43" transform="translate(-0.894 -0.153)" fill="#12263f"/>
          <path id="Path_181704" data-name="Path 181704" d="M337.6,56.834a4.861,4.861,0,0,0-.8-.062,2.138,2.138,0,0,0-2.165,1.359v6.731h-1.622V55.38h1.578l.027,1.1a2.524,2.524,0,0,1,2.261-1.271,1.657,1.657,0,0,1,.719.123Z" transform="translate(-0.921 -0.153)" fill="#12263f"/>
          <path id="Path_181705" data-name="Path 181705" d="M347.494,65.038a4.14,4.14,0,0,1-3.137-1.265,4.7,4.7,0,0,1-1.21-3.389v-.3a5.693,5.693,0,0,1,.539-2.52,4.207,4.207,0,0,1,1.508-1.735,3.789,3.789,0,0,1,2.1-.627,3.552,3.552,0,0,1,2.875,1.219,5.276,5.276,0,0,1,1.025,3.488v.675h-6.424a3.362,3.362,0,0,0,.82,2.265,2.57,2.57,0,0,0,1.993.864,2.827,2.827,0,0,0,1.455-.35,3.671,3.671,0,0,0,1.043-.929l.99.771a3.982,3.982,0,0,1-3.576,1.832m-.2-8.5a2.161,2.161,0,0,0-1.647.715,3.467,3.467,0,0,0-.825,2h4.751v-.123a3.082,3.082,0,0,0-.666-1.915,2.036,2.036,0,0,0-1.613-.68" transform="translate(-0.949 -0.153)" fill="#12263f"/>
          <rect id="Rectangle_38039" data-name="Rectangle 38039" width="1.622" height="13.463" transform="translate(352.259 51.248)" fill="#12263f"/>
          <rect id="Rectangle_38040" data-name="Rectangle 38040" width="3.067" height="12.762" transform="translate(279.564 73.489)" fill="#fff"/>
          <path id="Path_181706" data-name="Path 181706" d="M288.137,76.98l.1,1.113a3.216,3.216,0,0,1,2.708-1.288,2.7,2.7,0,0,1,2.212.886,4.212,4.212,0,0,1,.759,2.665v6.109h-2.963V80.477a1.6,1.6,0,0,0-.289-1.057,1.343,1.343,0,0,0-1.051-.337,1.408,1.408,0,0,0-1.288.684v6.7h-2.954V76.98Z" transform="translate(-0.79 -0.212)" fill="#fff"/>
          <path id="Path_181707" data-name="Path 181707" d="M299.014,74.616v2.357h1.56v2.051h-1.56v4.338a1.11,1.11,0,0,0,.192.746,1.037,1.037,0,0,0,.762.209,4.353,4.353,0,0,0,.736-.052v2.112a5.44,5.44,0,0,1-1.665.254,3.093,3.093,0,0,1-2.252-.719,2.942,2.942,0,0,1-.727-2.182V79.025H294.85V76.973h1.211V74.616Z" transform="translate(-0.816 -0.206)" fill="#fff"/>
          <path id="Path_181708" data-name="Path 181708" d="M306.342,86.638a4.875,4.875,0,0,1-3.532-1.3,4.5,4.5,0,0,1-1.35-3.388V81.7a5.826,5.826,0,0,1,.54-2.568,3.945,3.945,0,0,1,1.574-1.722,4.749,4.749,0,0,1,2.454-.609,4.106,4.106,0,0,1,3.155,1.241,4.874,4.874,0,0,1,1.157,3.457V82.65h-5.873a2.136,2.136,0,0,0,.692,1.254,2.061,2.061,0,0,0,1.385.456,2.653,2.653,0,0,0,2.191-.981l1.35,1.595a3.763,3.763,0,0,1-1.565,1.214,5.281,5.281,0,0,1-2.178.452m-.333-7.555q-1.3,0-1.543,1.718h2.98v-.228a1.463,1.463,0,0,0-.359-1.1,1.432,1.432,0,0,0-1.078-.39" transform="translate(-0.834 -0.212)" fill="#fff"/>
          <path id="Path_181709" data-name="Path 181709" d="M317.291,79.652l-.973-.07a1.749,1.749,0,0,0-1.788.878v6h-2.953V76.979h2.769l.1,1.219a2.286,2.286,0,0,1,2.077-1.392,2.9,2.9,0,0,1,.824.1Z" transform="translate(-0.862 -0.212)" fill="#fff"/>
          <path id="Path_181710" data-name="Path 181710" d="M322.8,86.627a4.875,4.875,0,0,1-3.532-1.3,4.5,4.5,0,0,1-1.35-3.388v-.245a5.827,5.827,0,0,1,.54-2.568,3.945,3.945,0,0,1,1.574-1.722,4.749,4.749,0,0,1,2.454-.609,4.106,4.106,0,0,1,3.155,1.241,4.874,4.874,0,0,1,1.157,3.457v1.148H320.92a2.135,2.135,0,0,0,.692,1.254,2.061,2.061,0,0,0,1.385.456,2.653,2.653,0,0,0,2.191-.981l1.35,1.595a3.763,3.763,0,0,1-1.565,1.214,5.281,5.281,0,0,1-2.178.452m-.368-13.646h3.12l-2.437,2.751-2.41,0Zm.035,6.091q-1.3,0-1.543,1.718h2.98v-.228a1.463,1.463,0,0,0-.359-1.1,1.432,1.432,0,0,0-1.078-.39" transform="translate(-0.88 -0.202)" fill="#fff"/>
          <path id="Path_181711" data-name="Path 181711" d="M332.972,83.8a.682.682,0,0,0-.4-.6,5.937,5.937,0,0,0-1.5-.474,6.831,6.831,0,0,1-1.825-.644,3.057,3.057,0,0,1-1.095-.968,2.314,2.314,0,0,1-.376-1.306,2.619,2.619,0,0,1,1.078-2.152,4.449,4.449,0,0,1,2.821-.846,4.92,4.92,0,0,1,3.015.851,2.658,2.658,0,0,1,1.141,2.235h-2.964q0-1.14-1.2-1.139a1.187,1.187,0,0,0-.779.258.8.8,0,0,0-.316.644.732.732,0,0,0,.386.639,3.646,3.646,0,0,0,1.231.4,10.5,10.5,0,0,1,1.486.377,2.7,2.7,0,0,1,2.138,2.638,2.483,2.483,0,0,1-1.153,2.112,5.048,5.048,0,0,1-2.984.816,5.165,5.165,0,0,1-2.174-.439,3.638,3.638,0,0,1-1.489-1.192,2.7,2.7,0,0,1-.536-1.587h2.762a1.132,1.132,0,0,0,.438.959,1.8,1.8,0,0,0,1.077.3,1.413,1.413,0,0,0,.906-.245.784.784,0,0,0,.3-.64" transform="translate(-0.906 -0.212)" fill="#fff"/>
          <path id="Path_181712" data-name="Path 181712" d="M71.413,52.678h6.047v1.376H69.722V41.292h1.691Z" transform="translate(-0.193 -0.114)" fill="#12263f"/>
          <rect id="Rectangle_38041" data-name="Rectangle 38041" width="1.622" height="13.463" transform="translate(79.074 40.477)" fill="#12263f"/>
          <path id="Path_181713" data-name="Path 181713" d="M89.374,54.062a3.374,3.374,0,0,1-.227-1,3.619,3.619,0,0,1-2.7,1.175,3.346,3.346,0,0,1-2.3-.793,2.562,2.562,0,0,1-.9-2.011,2.678,2.678,0,0,1,1.127-2.3,5.3,5.3,0,0,1,3.167-.82H89.12v-.745a1.827,1.827,0,0,0-.508-1.355,2.047,2.047,0,0,0-1.5-.5,2.364,2.364,0,0,0-1.455.439,1.29,1.29,0,0,0-.587,1.06H83.44a2.238,2.238,0,0,1,.5-1.371,3.447,3.447,0,0,1,1.367-1.048,4.614,4.614,0,0,1,1.9-.385,3.752,3.752,0,0,1,2.569.82,2.954,2.954,0,0,1,.963,2.257v4.365a5.35,5.35,0,0,0,.333,2.077v.14Zm-2.691-1.236a2.846,2.846,0,0,0,1.446-.395,2.38,2.38,0,0,0,.99-1.025V49.461h-1.27q-2.98,0-2.98,1.744a1.477,1.477,0,0,0,.508,1.192,1.956,1.956,0,0,0,1.306.43" transform="translate(-0.23 -0.123)" fill="#12263f"/>
          <path id="Path_181714" data-name="Path 181714" d="M94.837,44.579l.044,1.052A3.5,3.5,0,0,1,97.694,44.4,2.711,2.711,0,0,1,100.4,45.93a3.567,3.567,0,0,1,1.232-1.1,3.637,3.637,0,0,1,1.792-.421q3.12,0,3.173,3.3v6.355h-1.621V47.8a2.176,2.176,0,0,0-.465-1.52,2.044,2.044,0,0,0-1.56-.5,2.155,2.155,0,0,0-1.5.539,2.191,2.191,0,0,0-.693,1.451v6.294H99.132V47.848a1.81,1.81,0,0,0-2.025-2.068,2.169,2.169,0,0,0-2.182,1.358v6.925H93.3V44.579Z" transform="translate(-0.258 -0.123)" fill="#12263f"/>
          <path id="Path_181715" data-name="Path 181715" d="M114.942,54.062a3.374,3.374,0,0,1-.227-1,3.619,3.619,0,0,1-2.7,1.175,3.346,3.346,0,0,1-2.3-.793,2.562,2.562,0,0,1-.9-2.011,2.678,2.678,0,0,1,1.127-2.3,5.3,5.3,0,0,1,3.167-.82h1.578v-.745a1.827,1.827,0,0,0-.508-1.355,2.047,2.047,0,0,0-1.5-.5,2.364,2.364,0,0,0-1.455.439,1.29,1.29,0,0,0-.587,1.06h-1.63a2.238,2.238,0,0,1,.5-1.371,3.447,3.447,0,0,1,1.367-1.048,4.614,4.614,0,0,1,1.9-.385,3.752,3.752,0,0,1,2.569.82,2.954,2.954,0,0,1,.963,2.257v4.365a5.35,5.35,0,0,0,.333,2.077v.14Zm-2.691-1.236a2.846,2.846,0,0,0,1.446-.395,2.38,2.38,0,0,0,.99-1.025V49.461h-1.27q-2.98,0-2.98,1.744a1.477,1.477,0,0,0,.508,1.192,1.956,1.956,0,0,0,1.306.43" transform="translate(-0.301 -0.123)" fill="#12263f"/>
          <path id="Path_181716" data-name="Path 181716" d="M123.463,46.033a4.978,4.978,0,0,0-.8-.061,2.138,2.138,0,0,0-2.165,1.359v6.731h-1.621V44.579h1.578l.027,1.1a2.522,2.522,0,0,1,2.261-1.271,1.657,1.657,0,0,1,.719.123Z" transform="translate(-0.329 -0.123)" fill="#12263f"/>
          <path id="Path_181717" data-name="Path 181717" d="M129,49.234a5.591,5.591,0,0,1,.548-2.507,4.079,4.079,0,0,1,1.525-1.718,4.153,4.153,0,0,1,2.231-.6,4,4,0,0,1,3.133,1.341,5.16,5.16,0,0,1,1.2,3.567v.114a5.649,5.649,0,0,1-.53,2.484,4.017,4.017,0,0,1-1.517,1.714,4.2,4.2,0,0,1-2.266.613,3.986,3.986,0,0,1-3.124-1.341,5.131,5.131,0,0,1-1.2-3.549Zm1.63.192a4.058,4.058,0,0,0,.731,2.533,2.48,2.48,0,0,0,3.923-.014,4.432,4.432,0,0,0,.727-2.711,4.053,4.053,0,0,0-.741-2.529,2.354,2.354,0,0,0-1.967-.968,2.328,2.328,0,0,0-1.938.955,4.4,4.4,0,0,0-.736,2.734" transform="translate(-0.357 -0.123)" fill="#12263f"/>
          <path id="Path_181718" data-name="Path 181718" d="M73.537,74.513a2.34,2.34,0,0,0,1.517-.525,1.853,1.853,0,0,0,.718-1.315h1.534a2.935,2.935,0,0,1-.56,1.552A3.7,3.7,0,0,1,75.364,75.4a3.967,3.967,0,0,1-1.827.439,3.9,3.9,0,0,1-3.081-1.293,5.151,5.151,0,0,1-1.143-3.537v-.27a5.723,5.723,0,0,1,.508-2.463A3.879,3.879,0,0,1,71.28,66.6a4.143,4.143,0,0,1,2.249-.6,3.8,3.8,0,0,1,2.652.955,3.419,3.419,0,0,1,1.126,2.48H75.772a2.231,2.231,0,0,0-.7-1.511,2.162,2.162,0,0,0-1.548-.592,2.274,2.274,0,0,0-1.916.889,4.181,4.181,0,0,0-.678,2.573V71.1a4.094,4.094,0,0,0,.674,2.525,2.281,2.281,0,0,0,1.929.885" transform="translate(-0.192 -0.183)" fill="#12263f"/>
          <path id="Path_181719" data-name="Path 181719" d="M85.01,75.662a3.374,3.374,0,0,1-.227-1,3.619,3.619,0,0,1-2.7,1.175,3.346,3.346,0,0,1-2.3-.793,2.562,2.562,0,0,1-.9-2.011,2.678,2.678,0,0,1,1.127-2.3,5.3,5.3,0,0,1,3.167-.82h1.578v-.745a1.827,1.827,0,0,0-.508-1.355,2.047,2.047,0,0,0-1.5-.5,2.363,2.363,0,0,0-1.455.439,1.29,1.29,0,0,0-.587,1.06h-1.63a2.238,2.238,0,0,1,.5-1.371,3.448,3.448,0,0,1,1.367-1.048,4.614,4.614,0,0,1,1.9-.385,3.752,3.752,0,0,1,2.569.82,2.954,2.954,0,0,1,.963,2.257v4.365a5.35,5.35,0,0,0,.333,2.077v.14Zm-2.691-1.236a2.846,2.846,0,0,0,1.446-.395,2.38,2.38,0,0,0,.99-1.025V71.061h-1.27q-2.98,0-2.98,1.744A1.477,1.477,0,0,0,81.013,74a1.956,1.956,0,0,0,1.306.43" transform="translate(-0.218 -0.183)" fill="#12263f"/>
          <path id="Path_181720" data-name="Path 181720" d="M96.959,71.026a5.68,5.68,0,0,1-.99,3.488,3.177,3.177,0,0,1-2.683,1.323,3.475,3.475,0,0,1-2.716-1.1v4.566H88.948V66.179h1.481l.079,1.052A3.342,3.342,0,0,1,93.26,66a3.233,3.233,0,0,1,2.7,1.288,5.743,5.743,0,0,1,1,3.585Zm-1.622-.184a4.191,4.191,0,0,0-.684-2.533,2.2,2.2,0,0,0-1.875-.929,2.383,2.383,0,0,0-2.209,1.306v4.531a2.388,2.388,0,0,0,2.226,1.3,2.193,2.193,0,0,0,1.854-.924,4.575,4.575,0,0,0,.688-2.748" transform="translate(-0.246 -0.183)" fill="#12263f"/>
          <path id="Path_181721" data-name="Path 181721" d="M101.243,63.876v2.3h1.77v1.254h-1.77v5.889a1.314,1.314,0,0,0,.236.855,1,1,0,0,0,.807.285,3.942,3.942,0,0,0,.771-.1v1.306a4.7,4.7,0,0,1-1.245.175,2.017,2.017,0,0,1-1.638-.657,2.823,2.823,0,0,1-.552-1.867V67.426H97.895V66.173h1.726v-2.3Z" transform="translate(-0.271 -0.177)" fill="#12263f"/>
          <path id="Path_181722" data-name="Path 181722" d="M110.78,75.662a3.374,3.374,0,0,1-.227-1,3.619,3.619,0,0,1-2.7,1.175,3.346,3.346,0,0,1-2.3-.793,2.562,2.562,0,0,1-.9-2.011,2.678,2.678,0,0,1,1.127-2.3,5.3,5.3,0,0,1,3.167-.82h1.578v-.745a1.827,1.827,0,0,0-.508-1.355,2.047,2.047,0,0,0-1.5-.5,2.363,2.363,0,0,0-1.455.439,1.29,1.29,0,0,0-.587,1.06h-1.63a2.238,2.238,0,0,1,.5-1.371,3.448,3.448,0,0,1,1.367-1.048,4.614,4.614,0,0,1,1.9-.385,3.752,3.752,0,0,1,2.569.82,2.954,2.954,0,0,1,.963,2.257v4.365a5.35,5.35,0,0,0,.333,2.077v.14Zm-2.691-1.236a2.846,2.846,0,0,0,1.446-.395,2.38,2.38,0,0,0,.99-1.025V71.061h-1.27q-2.98,0-2.98,1.744A1.477,1.477,0,0,0,106.783,74a1.956,1.956,0,0,0,1.306.43" transform="translate(-0.29 -0.183)" fill="#12263f"/>
          <path id="Path_181723" data-name="Path 181723" d="M119.3,67.633a4.861,4.861,0,0,0-.8-.062,2.138,2.138,0,0,0-2.165,1.359v6.731h-1.621V66.179h1.578l.027,1.1A2.524,2.524,0,0,1,118.582,66a1.657,1.657,0,0,1,.719.123Z" transform="translate(-0.317 -0.183)" fill="#12263f"/>
          <rect id="Rectangle_38042" data-name="Rectangle 38042" width="1.622" height="13.463" transform="translate(125.057 62.017)" fill="#12263f"/>
          <path id="Path_181724" data-name="Path 181724" d="M135.486,75.662a3.374,3.374,0,0,1-.227-1,3.619,3.619,0,0,1-2.7,1.175,3.346,3.346,0,0,1-2.3-.793,2.562,2.562,0,0,1-.9-2.011,2.678,2.678,0,0,1,1.127-2.3,5.3,5.3,0,0,1,3.167-.82h1.578v-.745a1.827,1.827,0,0,0-.508-1.355,2.047,2.047,0,0,0-1.5-.5,2.364,2.364,0,0,0-1.455.439,1.29,1.29,0,0,0-.587,1.06h-1.63a2.238,2.238,0,0,1,.5-1.371,3.448,3.448,0,0,1,1.367-1.048,4.614,4.614,0,0,1,1.9-.385,3.752,3.752,0,0,1,2.569.82,2.954,2.954,0,0,1,.963,2.257v4.365a5.35,5.35,0,0,0,.333,2.077v.14ZM132.8,74.427a2.846,2.846,0,0,0,1.446-.395,2.38,2.38,0,0,0,.99-1.025V71.061h-1.27q-2.98,0-2.98,1.744A1.477,1.477,0,0,0,131.489,74a1.957,1.957,0,0,0,1.306.43" transform="translate(-0.358 -0.183)" fill="#12263f"/>
          <path id="Path_181725" data-name="Path 181725" d="M75.161,94.87H70.946l-.737,2.383H66.923L71.6,84.493h2.892l4.716,12.761h-3.3Zm-3.479-2.375h2.743l-1.376-4.426Z" transform="translate(-0.185 -0.234)" fill="#fff"/>
          <path id="Path_181726" data-name="Path 181726" d="M83.329,85.415v2.357h1.56v2.051h-1.56v4.338a1.11,1.11,0,0,0,.192.746,1.038,1.038,0,0,0,.763.21,4.341,4.341,0,0,0,.736-.053v2.112a5.449,5.449,0,0,1-1.665.254,3.09,3.09,0,0,1-2.252-.719,2.942,2.942,0,0,1-.728-2.182V89.824h-1.21V87.772h1.21V85.415Z" transform="translate(-0.219 -0.236)" fill="#fff"/>
          <path id="Path_181727" data-name="Path 181727" d="M90.657,97.438a4.875,4.875,0,0,1-3.532-1.3,4.5,4.5,0,0,1-1.35-3.388V92.5a5.827,5.827,0,0,1,.54-2.568,3.945,3.945,0,0,1,1.574-1.722,4.749,4.749,0,0,1,2.454-.609A4.106,4.106,0,0,1,93.5,88.845,4.874,4.874,0,0,1,94.654,92.3V93.45H88.782a2.136,2.136,0,0,0,.692,1.254,2.061,2.061,0,0,0,1.385.456,2.653,2.653,0,0,0,2.191-.981l1.35,1.595a3.763,3.763,0,0,1-1.565,1.214,5.281,5.281,0,0,1-2.178.452m-.333-7.555q-1.3,0-1.543,1.718h2.98v-.228a1.463,1.463,0,0,0-.359-1.1,1.432,1.432,0,0,0-1.078-.39" transform="translate(-0.237 -0.242)" fill="#fff"/>
          <path id="Path_181728" data-name="Path 181728" d="M98.582,87.78l.1,1.113a3.216,3.216,0,0,1,2.708-1.288,2.7,2.7,0,0,1,2.212.886,4.212,4.212,0,0,1,.759,2.665v6.109H101.4V91.277a1.6,1.6,0,0,0-.289-1.057,1.343,1.343,0,0,0-1.051-.337,1.408,1.408,0,0,0-1.288.684v6.7H95.813V87.78Z" transform="translate(-0.265 -0.242)" fill="#fff"/>
          <path id="Path_181729" data-name="Path 181729" d="M110.03,95.159a1.313,1.313,0,0,0,.964-.337,1.239,1.239,0,0,0,.333-.942H114.1a3.275,3.275,0,0,1-1.118,2.559,4.154,4.154,0,0,1-2.879,1,4.206,4.206,0,0,1-3.26-1.3,5.109,5.109,0,0,1-1.193-3.593v-.123a5.774,5.774,0,0,1,.531-2.538,3.854,3.854,0,0,1,1.53-1.69,4.546,4.546,0,0,1,2.366-.592,4.105,4.105,0,0,1,2.936,1.025,3.636,3.636,0,0,1,1.087,2.778h-2.769a1.619,1.619,0,0,0-.36-1.131,1.241,1.241,0,0,0-.963-.394q-1.149,0-1.341,1.464a10.3,10.3,0,0,0-.062,1.279,4.06,4.06,0,0,0,.342,1.981,1.185,1.185,0,0,0,1.087.552" transform="translate(-0.292 -0.242)" fill="#fff"/>
          <path id="Path_181730" data-name="Path 181730" d="M115.351,85.324a1.32,1.32,0,0,1,.456-1.035,1.939,1.939,0,0,1,2.366,0,1.4,1.4,0,0,1,0,2.069,1.939,1.939,0,0,1-2.366,0,1.319,1.319,0,0,1-.456-1.034m3.137,11.928h-2.963V87.768h2.963Z" transform="translate(-0.319 -0.232)" fill="#fff"/>
          <path id="Path_181731" data-name="Path 181731" d="M119.948,92.422a5.6,5.6,0,0,1,.551-2.529,3.959,3.959,0,0,1,1.587-1.7,4.785,4.785,0,0,1,2.428-.6,4.362,4.362,0,0,1,3.357,1.319A5.065,5.065,0,0,1,129.1,92.5v.106a4.919,4.919,0,0,1-1.231,3.519,4.943,4.943,0,0,1-6.587.088,4.75,4.75,0,0,1-1.324-3.292Zm2.954.184a3.52,3.52,0,0,0,.412,1.928,1.37,1.37,0,0,0,1.218.614q1.578,0,1.613-2.428v-.3q0-2.55-1.629-2.55-1.482,0-1.6,2.2Zm2.015-8.818h3.12L125.6,86.541l-2.41,0Z" transform="translate(-0.332 -0.232)" fill="#fff"/>
          <path id="Path_181732" data-name="Path 181732" d="M133.141,87.78l.1,1.113a3.216,3.216,0,0,1,2.708-1.288,2.7,2.7,0,0,1,2.212.886,4.212,4.212,0,0,1,.759,2.665v6.109h-2.963V91.277a1.6,1.6,0,0,0-.289-1.057,1.343,1.343,0,0,0-1.051-.337,1.408,1.408,0,0,0-1.288.684v6.7h-2.954V87.78Z" transform="translate(-0.361 -0.242)" fill="#fff"/>
          <path id="Path_181733" data-name="Path 181733" d="M755.17,69.536l-6.021-10.155H677.106l6.021,10.155-6.021,10.157h72.042Z" transform="translate(-1.873 -0.164)" fill="#12263f"/>
          <path id="Path_181734" data-name="Path 181734" d="M674.743,49.058v5h-1.682V41.293h4.706a4.725,4.725,0,0,1,3.282,1.069,3.626,3.626,0,0,1,1.189,2.831,3.582,3.582,0,0,1-1.161,2.862,4.944,4.944,0,0,1-3.327,1Zm0-1.376h3.024a3.019,3.019,0,0,0,2.068-.637,2.323,2.323,0,0,0,.719-1.839,2.4,2.4,0,0,0-.719-1.826,2.826,2.826,0,0,0-1.971-.711h-3.12Z" transform="translate(-1.862 -0.114)" fill="#12263f"/>
          <path id="Path_181735" data-name="Path 181735" d="M688.745,46.033a4.978,4.978,0,0,0-.8-.061,2.138,2.138,0,0,0-2.165,1.359v6.731h-1.621V44.579h1.578l.027,1.1a2.522,2.522,0,0,1,2.261-1.271,1.657,1.657,0,0,1,.719.123Z" transform="translate(-1.893 -0.123)" fill="#12263f"/>
          <path id="Path_181736" data-name="Path 181736" d="M689.645,49.234a5.591,5.591,0,0,1,.548-2.507,4.08,4.08,0,0,1,1.525-1.718,4.153,4.153,0,0,1,2.231-.6,4,4,0,0,1,3.133,1.341,5.16,5.16,0,0,1,1.2,3.567v.114a5.649,5.649,0,0,1-.53,2.484,4.017,4.017,0,0,1-1.517,1.714,4.2,4.2,0,0,1-2.266.613,3.986,3.986,0,0,1-3.124-1.341,5.131,5.131,0,0,1-1.2-3.549Zm1.63.192a4.058,4.058,0,0,0,.731,2.533,2.48,2.48,0,0,0,3.923-.014,4.432,4.432,0,0,0,.727-2.711,4.053,4.053,0,0,0-.741-2.529,2.354,2.354,0,0,0-1.966-.968,2.328,2.328,0,0,0-1.938.955,4.4,4.4,0,0,0-.736,2.734" transform="translate(-1.908 -0.123)" fill="#12263f"/>
          <path id="Path_181737" data-name="Path 181737" d="M703.336,51.863l2.348-7.284h1.657l-3.4,9.484h-1.236l-3.435-9.484h1.656Z" transform="translate(-1.935 -0.123)" fill="#12263f"/>
          <path id="Path_181738" data-name="Path 181738" d="M708.366,49.234a5.591,5.591,0,0,1,.548-2.507,4.079,4.079,0,0,1,1.525-1.718,4.154,4.154,0,0,1,2.231-.6,4,4,0,0,1,3.133,1.341,5.16,5.16,0,0,1,1.2,3.567v.114a5.649,5.649,0,0,1-.53,2.484,4.017,4.017,0,0,1-1.517,1.714,4.2,4.2,0,0,1-2.266.613,3.986,3.986,0,0,1-3.124-1.341,5.131,5.131,0,0,1-1.2-3.549Zm1.63.192a4.059,4.059,0,0,0,.731,2.533,2.48,2.48,0,0,0,3.923-.014,4.432,4.432,0,0,0,.727-2.711,4.053,4.053,0,0,0-.741-2.529,2.354,2.354,0,0,0-1.967-.968,2.328,2.328,0,0,0-1.938.955A4.4,4.4,0,0,0,710,49.426" transform="translate(-1.96 -0.123)" fill="#12263f"/>
          <path id="Path_181739" data-name="Path 181739" d="M722.865,52.914a2.341,2.341,0,0,0,1.517-.526,1.853,1.853,0,0,0,.718-1.315h1.534a2.935,2.935,0,0,1-.56,1.552,3.7,3.7,0,0,1-1.381,1.175,3.978,3.978,0,0,1-1.827.438,3.9,3.9,0,0,1-3.081-1.293,5.149,5.149,0,0,1-1.143-3.536v-.271a5.722,5.722,0,0,1,.508-2.463A3.879,3.879,0,0,1,720.608,45a4.152,4.152,0,0,1,2.249-.6,3.8,3.8,0,0,1,2.652.955,3.419,3.419,0,0,1,1.126,2.48H725.1a2.233,2.233,0,0,0-.7-1.511,2.166,2.166,0,0,0-1.548-.592,2.272,2.272,0,0,0-1.916.89,4.177,4.177,0,0,0-.678,2.572V49.5a4.093,4.093,0,0,0,.674,2.524,2.282,2.282,0,0,0,1.929.886" transform="translate(-1.988 -0.123)" fill="#12263f"/>
          <path id="Path_181740" data-name="Path 181740" d="M734.338,54.062a3.373,3.373,0,0,1-.227-1,3.619,3.619,0,0,1-2.7,1.175,3.347,3.347,0,0,1-2.3-.793,2.562,2.562,0,0,1-.9-2.011,2.678,2.678,0,0,1,1.127-2.3,5.3,5.3,0,0,1,3.167-.82h1.578v-.745a1.827,1.827,0,0,0-.508-1.355,2.047,2.047,0,0,0-1.5-.5,2.363,2.363,0,0,0-1.455.439,1.29,1.29,0,0,0-.587,1.06H728.4a2.238,2.238,0,0,1,.5-1.371,3.448,3.448,0,0,1,1.367-1.048,4.614,4.614,0,0,1,1.9-.385,3.752,3.752,0,0,1,2.569.82,2.954,2.954,0,0,1,.963,2.257v4.365a5.35,5.35,0,0,0,.333,2.077v.14Zm-2.691-1.236a2.845,2.845,0,0,0,1.446-.395,2.38,2.38,0,0,0,.99-1.025V49.461h-1.27q-2.98,0-2.98,1.744a1.477,1.477,0,0,0,.508,1.192,1.957,1.957,0,0,0,1.306.43" transform="translate(-2.015 -0.123)" fill="#12263f"/>
          <path id="Path_181741" data-name="Path 181741" d="M742.859,46.033a4.979,4.979,0,0,0-.8-.061,2.138,2.138,0,0,0-2.165,1.359v6.731h-1.621V44.579h1.578l.027,1.1A2.522,2.522,0,0,1,742.14,44.4a1.657,1.657,0,0,1,.719.123Z" transform="translate(-2.043 -0.123)" fill="#12263f"/>
          <rect id="Rectangle_38043" data-name="Rectangle 38043" width="1.621" height="13.463" transform="translate(746.891 40.477)" fill="#12263f"/>
          <path id="Path_181742" data-name="Path 181742" d="M759.044,54.062a3.373,3.373,0,0,1-.227-1,3.619,3.619,0,0,1-2.7,1.175,3.347,3.347,0,0,1-2.3-.793,2.562,2.562,0,0,1-.9-2.011,2.678,2.678,0,0,1,1.127-2.3,5.3,5.3,0,0,1,3.167-.82h1.578v-.745a1.827,1.827,0,0,0-.508-1.355,2.047,2.047,0,0,0-1.5-.5,2.363,2.363,0,0,0-1.455.439,1.29,1.29,0,0,0-.587,1.06h-1.63a2.238,2.238,0,0,1,.5-1.371,3.447,3.447,0,0,1,1.367-1.048,4.614,4.614,0,0,1,1.9-.385,3.752,3.752,0,0,1,2.569.82,2.954,2.954,0,0,1,.963,2.257v4.365a5.35,5.35,0,0,0,.333,2.077v.14Zm-2.691-1.236a2.845,2.845,0,0,0,1.446-.395,2.38,2.38,0,0,0,.99-1.025V49.461h-1.271q-2.98,0-2.98,1.744a1.477,1.477,0,0,0,.508,1.192,1.957,1.957,0,0,0,1.306.43" transform="translate(-2.083 -0.123)" fill="#12263f"/>
          <path id="Path_181743" data-name="Path 181743" d="M696.79,73.269h-4.215l-.737,2.383h-3.286l4.68-12.761h2.892l4.716,12.761h-3.3Zm-3.479-2.375h2.743l-1.376-4.426Z" transform="translate(-1.905 -0.174)" fill="#fff"/>
          <path id="Path_181744" data-name="Path 181744" d="M705.679,73.558a1.317,1.317,0,0,0,.964-.336,1.239,1.239,0,0,0,.333-.942h2.769a3.275,3.275,0,0,1-1.118,2.559,4.154,4.154,0,0,1-2.879,1,4.2,4.2,0,0,1-3.26-1.3,5.107,5.107,0,0,1-1.193-3.592v-.123a5.774,5.774,0,0,1,.531-2.538,3.854,3.854,0,0,1,1.53-1.69A4.546,4.546,0,0,1,705.723,66a4.106,4.106,0,0,1,2.936,1.025,3.634,3.634,0,0,1,1.087,2.778h-2.769a1.619,1.619,0,0,0-.36-1.131,1.241,1.241,0,0,0-.963-.394q-1.149,0-1.341,1.464a10.292,10.292,0,0,0-.062,1.279,4.063,4.063,0,0,0,.342,1.981,1.184,1.184,0,0,0,1.087.551" transform="translate(-1.94 -0.183)" fill="#fff"/>
          <path id="Path_181745" data-name="Path 181745" d="M715.03,73.558a1.317,1.317,0,0,0,.964-.336,1.239,1.239,0,0,0,.333-.942H719.1a3.275,3.275,0,0,1-1.118,2.559,4.154,4.154,0,0,1-2.879,1,4.2,4.2,0,0,1-3.26-1.3,5.107,5.107,0,0,1-1.193-3.592v-.123a5.773,5.773,0,0,1,.531-2.538,3.854,3.854,0,0,1,1.53-1.69A4.546,4.546,0,0,1,715.074,66a4.105,4.105,0,0,1,2.936,1.025,3.634,3.634,0,0,1,1.087,2.778h-2.769a1.619,1.619,0,0,0-.36-1.131,1.241,1.241,0,0,0-.963-.394q-1.149,0-1.341,1.464a10.292,10.292,0,0,0-.062,1.279,4.063,4.063,0,0,0,.342,1.981,1.184,1.184,0,0,0,1.087.551" transform="translate(-1.966 -0.183)" fill="#fff"/>
          <path id="Path_181746" data-name="Path 181746" d="M720.351,63.723a1.316,1.316,0,0,1,.456-1.034,1.939,1.939,0,0,1,2.366,0,1.4,1.4,0,0,1,0,2.068,1.939,1.939,0,0,1-2.366,0,1.316,1.316,0,0,1-.456-1.034m3.137,11.929h-2.963V66.168h2.963Z" transform="translate(-1.993 -0.172)" fill="#fff"/>
          <path id="Path_181747" data-name="Path 181747" d="M724.948,70.822a5.6,5.6,0,0,1,.551-2.529,3.959,3.959,0,0,1,1.587-1.7,4.785,4.785,0,0,1,2.428-.6,4.363,4.363,0,0,1,3.357,1.319A5.065,5.065,0,0,1,734.1,70.9v.106a4.919,4.919,0,0,1-1.231,3.519,4.943,4.943,0,0,1-6.587.088,4.75,4.75,0,0,1-1.324-3.292Zm2.954.184a3.521,3.521,0,0,0,.412,1.928,1.37,1.37,0,0,0,1.218.614q1.578,0,1.612-2.428v-.3q0-2.55-1.63-2.55-1.482,0-1.6,2.2Zm2.015-8.818h3.12L730.6,64.941l-2.41,0Z" transform="translate(-2.006 -0.172)" fill="#fff"/>
          <path id="Path_181748" data-name="Path 181748" d="M738.141,66.179l.1,1.113A3.216,3.216,0,0,1,740.947,66a2.7,2.7,0,0,1,2.212.886,4.212,4.212,0,0,1,.759,2.665v6.109h-2.963V69.676a1.6,1.6,0,0,0-.289-1.057,1.343,1.343,0,0,0-1.051-.337,1.408,1.408,0,0,0-1.288.684v6.7h-2.954V66.179Z" transform="translate(-2.035 -0.183)" fill="#fff"/>
          <path id="Path_181749" data-name="Path 181749" d="M674.88,92.431a5.554,5.554,0,0,1,1.034-3.509,3.519,3.519,0,0,1,5.346-.189V83.789h1.621V97.252h-1.49l-.079-1.016a3.3,3.3,0,0,1-2.708,1.192,3.237,3.237,0,0,1-2.686-1.349,5.617,5.617,0,0,1-1.039-3.524Zm1.621.184a4.207,4.207,0,0,0,.666,2.524,2.152,2.152,0,0,0,1.841.911,2.365,2.365,0,0,0,2.252-1.384V90.31a2.383,2.383,0,0,0-2.235-1.34,2.161,2.161,0,0,0-1.858.92,4.632,4.632,0,0,0-.666,2.725" transform="translate(-1.867 -0.232)" fill="#12263f"/>
          <path id="Path_181750" data-name="Path 181750" d="M689.361,97.438a4.14,4.14,0,0,1-3.137-1.265,4.7,4.7,0,0,1-1.21-3.389v-.3a5.693,5.693,0,0,1,.539-2.52,4.207,4.207,0,0,1,1.508-1.735,3.789,3.789,0,0,1,2.1-.627,3.552,3.552,0,0,1,2.875,1.219,5.276,5.276,0,0,1,1.025,3.488v.675h-6.424a3.363,3.363,0,0,0,.82,2.265,2.57,2.57,0,0,0,1.994.864,2.827,2.827,0,0,0,1.455-.35,3.67,3.67,0,0,0,1.043-.929l.99.771a3.982,3.982,0,0,1-3.576,1.832m-.2-8.5a2.161,2.161,0,0,0-1.647.715,3.467,3.467,0,0,0-.825,2h4.751v-.123a3.083,3.083,0,0,0-.666-1.915,2.036,2.036,0,0,0-1.613-.68" transform="translate(-1.895 -0.242)" fill="#12263f"/>
          <path id="Path_181751" data-name="Path 181751" d="M703.222,96.114a2.344,2.344,0,0,0,1.517-.526,1.852,1.852,0,0,0,.717-1.315h1.535a2.935,2.935,0,0,1-.56,1.552A3.706,3.706,0,0,1,705.048,97a3.977,3.977,0,0,1-1.826.438,3.905,3.905,0,0,1-3.082-1.293A5.154,5.154,0,0,1,699,92.608v-.271a5.724,5.724,0,0,1,.508-2.463,3.88,3.88,0,0,1,1.459-1.674,4.152,4.152,0,0,1,2.249-.6,3.8,3.8,0,0,1,2.652.955,3.416,3.416,0,0,1,1.127,2.48h-1.535a2.229,2.229,0,0,0-.7-1.511,2.164,2.164,0,0,0-1.548-.592,2.274,2.274,0,0,0-1.916.89,4.177,4.177,0,0,0-.678,2.572V92.7a4.1,4.1,0,0,0,.674,2.524,2.284,2.284,0,0,0,1.93.886" transform="translate(-1.934 -0.242)" fill="#12263f"/>
          <path id="Path_181752" data-name="Path 181752" d="M708.41,92.434a5.591,5.591,0,0,1,.549-2.507,4.079,4.079,0,0,1,1.525-1.718,4.154,4.154,0,0,1,2.231-.6,4,4,0,0,1,3.133,1.341,5.161,5.161,0,0,1,1.2,3.567v.114a5.649,5.649,0,0,1-.53,2.484A4.017,4.017,0,0,1,715,96.824a4.2,4.2,0,0,1-2.266.613,3.986,3.986,0,0,1-3.124-1.341,5.131,5.131,0,0,1-1.2-3.549Zm1.63.192a4.059,4.059,0,0,0,.731,2.533,2.48,2.48,0,0,0,3.923-.014,4.432,4.432,0,0,0,.727-2.711,4.053,4.053,0,0,0-.741-2.529,2.354,2.354,0,0,0-1.967-.968,2.328,2.328,0,0,0-1.938.955,4.4,4.4,0,0,0-.736,2.734" transform="translate(-1.96 -0.242)" fill="#12263f"/>
          <path id="Path_181753" data-name="Path 181753" d="M720.632,87.78l.044,1.052a3.5,3.5,0,0,1,2.813-1.228A2.711,2.711,0,0,1,726.2,89.13a3.577,3.577,0,0,1,1.232-1.1,3.637,3.637,0,0,1,1.792-.421q3.12,0,3.173,3.3v6.354h-1.622V91a2.178,2.178,0,0,0-.465-1.521,2.048,2.048,0,0,0-1.56-.5,2.155,2.155,0,0,0-1.5.539,2.191,2.191,0,0,0-.693,1.451v6.294h-1.63V91.048A1.81,1.81,0,0,0,722.9,88.98a2.169,2.169,0,0,0-2.182,1.358v6.925H719.1V87.78Z" transform="translate(-1.99 -0.242)" fill="#12263f"/>
          <path id="Path_181754" data-name="Path 181754" d="M742.894,92.626a5.685,5.685,0,0,1-.99,3.489,3.178,3.178,0,0,1-2.683,1.322,3.478,3.478,0,0,1-2.716-1.095v4.565h-1.621V87.78h1.481l.079,1.052A3.341,3.341,0,0,1,739.2,87.6a3.233,3.233,0,0,1,2.7,1.288,5.739,5.739,0,0,1,1,3.585Zm-1.622-.184a4.185,4.185,0,0,0-.684-2.532,2.2,2.2,0,0,0-1.875-.929,2.383,2.383,0,0,0-2.209,1.305v4.531a2.389,2.389,0,0,0,2.226,1.3,2.194,2.194,0,0,0,1.854-.925,4.575,4.575,0,0,0,.688-2.748" transform="translate(-2.033 -0.242)" fill="#12263f"/>
          <path id="Path_181755" data-name="Path 181755" d="M749.565,89.234a4.862,4.862,0,0,0-.8-.062,2.138,2.138,0,0,0-2.165,1.359v6.731h-1.621V87.78h1.578l.027,1.1a2.524,2.524,0,0,1,2.261-1.271,1.657,1.657,0,0,1,.719.123Z" transform="translate(-2.061 -0.242)" fill="#12263f"/>
          <path id="Path_181756" data-name="Path 181756" d="M756.575,97.262a3.373,3.373,0,0,1-.227-1,3.619,3.619,0,0,1-2.7,1.175,3.347,3.347,0,0,1-2.3-.793,2.562,2.562,0,0,1-.9-2.011,2.678,2.678,0,0,1,1.127-2.3,5.3,5.3,0,0,1,3.167-.82h1.578v-.745a1.827,1.827,0,0,0-.508-1.355,2.047,2.047,0,0,0-1.5-.5,2.363,2.363,0,0,0-1.455.439,1.29,1.29,0,0,0-.587,1.06h-1.63a2.238,2.238,0,0,1,.5-1.371,3.448,3.448,0,0,1,1.367-1.048,4.614,4.614,0,0,1,1.9-.385,3.752,3.752,0,0,1,2.569.82,2.954,2.954,0,0,1,.963,2.257v4.365a5.35,5.35,0,0,0,.333,2.077v.14Zm-2.691-1.236a2.846,2.846,0,0,0,1.446-.395,2.38,2.38,0,0,0,.99-1.025V92.661h-1.27q-2.98,0-2.98,1.744a1.477,1.477,0,0,0,.508,1.192,1.957,1.957,0,0,0,1.306.43" transform="translate(-2.076 -0.242)" fill="#12263f"/>
        </g>
      </g>
    </g>
  </g>
</svg>
