<svg id="t3-ico2" xmlns="http://www.w3.org/2000/svg" width="50" height="50" viewBox="0 0 50 50">
  <path id="Path_178649" data-name="Path 178649" d="M79.855,0H93.679a3.484,3.484,0,0,1,1.733.639,3.343,3.343,0,0,1,1.372,2.679c.006,1.563,0,3.126,0,4.688a3.827,3.827,0,0,1-.248,1.582,3.337,3.337,0,0,1-2.94,2.071c-1.359.019-2.719,0-4.077.008.133.542.271,1.083.406,1.625a12.49,12.49,0,0,1,11.86,21.694q0,1.323,0,2.646a2.73,2.73,0,0,1,2.5.493,2.564,2.564,0,0,1,1.817-.62,2.641,2.641,0,0,1,1.518.619,2.516,2.516,0,0,1,2.5-.472,2.574,2.574,0,0,1,1.66,2.384c.008,2.962,0,5.924.006,8.886A.923.923,0,0,1,111.053,50H97.505a2.7,2.7,0,0,1-.858-.5q-2.361-1.692-4.726-3.378a2.312,2.312,0,0,1-.9-2.433,2.47,2.47,0,0,1,2.861-1.759,2.866,2.866,0,0,1,.864.377l2.036,1.222q0-3.141,0-6.281A12.485,12.485,0,0,1,86.823,15q-1.453-1.668-2.916-3.331c-1.326-.006-2.652.015-3.978-.009A3.338,3.338,0,0,1,76.8,8.5c-.021-1.693,0-3.388-.009-5.082A3.341,3.341,0,0,1,77.774.971,3.435,3.435,0,0,1,79.855,0m-.3,1.766a1.668,1.668,0,0,0-1.1,1.557c0,1.692-.008,3.386,0,5.078a1.664,1.664,0,0,0,1.577,1.594c1.4.016,2.8,0,4.2.007a.875.875,0,0,1,.713.32q1.767,2.013,3.528,4.029c-.271-1.1-.557-2.2-.822-3.307a.83.83,0,0,1,.768-1.038c1.7-.018,3.392,0,5.086-.01A1.668,1.668,0,0,0,95.115,8.4c.011-1.631,0-3.262.006-4.893A1.7,1.7,0,0,0,93.41,1.667q-6.545,0-13.091,0a2.1,2.1,0,0,0-.766.1M90.336,14.929c.19.784.4,1.565.584,2.35a.831.831,0,0,1-1.413.784c-.535-.6-1.055-1.207-1.586-1.806a10.706,10.706,0,0,0-4.437,7.909c3.481,0,6.964,0,10.446,0q3.706-3.694,7.4-7.4a10.787,10.787,0,0,0-10.994-1.841m12.178,3.023Q98.988,21.472,95.467,25q3.52,3.527,7.049,7.048a10.836,10.836,0,0,0,0-14.094m-19.03,7.882a10.774,10.774,0,0,0,2.575,6.214q3.108-3.105,6.214-6.214-4.395,0-8.789,0m3.755,7.395a10.84,10.84,0,0,0,9.549,2.31c.007-.808-.019-1.616.012-2.423a2.521,2.521,0,0,1,2.169-2.257q-2.342-2.339-4.682-4.68l-7.048,7.05m11.215.172q0,5.764,0,11.528a.845.845,0,0,1-.749.9,1.4,1.4,0,0,1-.874-.324c-1.035-.623-2.07-1.248-3.109-1.863a.755.755,0,0,0-1.1.6.678.678,0,0,0,.333.572c1.533,1.1,3.073,2.188,4.605,3.29.159.109.313.273.525.236q6.019-.006,12.036,0,0-4.1,0-8.2a.92.92,0,0,0-.5-.887.813.813,0,0,0-1.125.526c-.057.279-.051.6-.28.81a.838.838,0,0,1-1.27-.1c-.219-.283-.092-.689-.316-.97a.837.837,0,0,0-1.3-.057c-.29.294-.12.774-.4,1.075a.839.839,0,0,1-1.276.006c-.28-.3-.114-.771-.393-1.069A.837.837,0,0,0,102,39.448c-.316.324-.106.884-.49,1.171a.834.834,0,0,1-1.382-.582c-.015-2.215,0-4.432-.007-6.647a.835.835,0,1,0-1.665.011Z" transform="translate(-69.286)" fill="#f9b131"/>
  <path id="Path_178650" data-name="Path 178650" d="M110.933,34.129c.556,0,1.11,0,1.665,0,0,.556,0,1.111,0,1.667-.555,0-1.109,0-1.665,0Q110.932,34.962,110.933,34.129Z" transform="translate(-100.099 -30.795)" fill="#f9b131"/>
  <path id="Path_178651" data-name="Path 178651" d="M145.063,34.13h10q0,.833,0,1.666-5,0-10,0Q145.062,34.964,145.063,34.13Z" transform="translate(-130.896 -30.797)" fill="#f9b131"/>
  <path id="Path_178652" data-name="Path 178652" d="M2.883,68.419a10.19,10.19,0,0,1,2.95-.205q0,17.5,0,35,7.083.006,14.165,0,0,.833,0,1.666-7.9,0-15.8,0a4.187,4.187,0,0,1-3.015-1.262A4.279,4.279,0,0,1,0,101V72.244a4.2,4.2,0,0,1,2.883-3.825m-.9,2.737a2.665,2.665,0,0,0-.321,1.43q0,14.014,0,28.03a2.53,2.53,0,0,0,.605,1.725,2.562,2.562,0,0,0,1.894.881q0-16.676,0-33.35A2.545,2.545,0,0,0,1.987,71.156Z" transform="translate(0 -61.546)" fill="#f9b131"/>
  <path id="Path_178653" data-name="Path 178653" d="M110.933,68.263h13.332q0,.832,0,1.666H110.933Q110.932,69.1,110.933,68.263Z" transform="translate(-100.099 -61.596)" fill="#f9b131"/>
  <path id="Path_178654" data-name="Path 178654" d="M298.666,68.264q8.317,0,16.636,0a4.171,4.171,0,0,1,2.96,1.21A4.219,4.219,0,0,1,319.5,72.3V100.89a4.2,4.2,0,0,1-2.811,3.81,9.682,9.682,0,0,1-3.022.23q0-17.5,0-35-7.5,0-15,0,0-.832,0-1.665m16.666,1.66q0,16.673,0,33.345a2.524,2.524,0,0,0,2.5-2.5q.007-14.114,0-28.229a2.535,2.535,0,0,0-.748-1.886A2.562,2.562,0,0,0,315.332,69.924Z" transform="translate(-269.499 -61.597)" fill="#f9b131"/>
  <path id="Path_178655" data-name="Path 178655" d="M349.863,102.4h1.664c0,.555,0,1.11,0,1.666h-1.665C349.861,103.506,349.86,102.951,349.863,102.4Z" transform="translate(-315.695 -92.396)" fill="#f9b131"/>
  <path id="Path_178656" data-name="Path 178656" d="M384,102.39h1.664q0,.833,0,1.666H384C384,103.5,384,102.946,384,102.39Z" transform="translate(-346.498 -92.391)" fill="#f9b131"/>
  <path id="Path_178657" data-name="Path 178657" d="M418.129,102.391h1.663c.006.556,0,1.111,0,1.667h-1.666C418.128,103.5,418.127,102.946,418.129,102.391Z" transform="translate(-377.295 -92.391)" fill="#f9b131"/>
  <path id="Path_178658" data-name="Path 178658" d="M76.774,153.6q2.5,0,5,0c0,.556,0,1.111,0,1.667-1.667,0-3.335.008-5-.006C76.776,154.705,76.771,154.151,76.774,153.6Z" transform="translate(-69.273 -138.598)" fill="#f9b131"/>
  <path id="Path_178659" data-name="Path 178659" d="M375.461,155.264c0-.556,0-1.11,0-1.666q2.915,0,5.831,0c0,.552,0,1.1,0,1.657C379.353,155.276,377.406,155.26,375.461,155.264Z" transform="translate(-338.794 -138.598)" fill="#f9b131"/>
  <path id="Path_178660" data-name="Path 178660" d="M76.8,187.733h4.165q0,.833,0,1.666H76.8Q76.794,188.566,76.8,187.733Z" transform="translate(-69.295 -169.399)" fill="#f9b131"/>
  <path id="Path_178661" data-name="Path 178661" d="M392.533,187.733H396.7c0,.556,0,1.11,0,1.666h-4.165Q392.532,188.566,392.533,187.733Z" transform="translate(-354.199 -169.399)" fill="#f9b131"/>
  <path id="Path_178662" data-name="Path 178662" d="M392.533,315.733H396.7q0,.833,0,1.666h-4.165Q392.532,316.566,392.533,315.733Z" transform="translate(-354.199 -284.899)" fill="#f9b131"/>
  <path id="Path_178663" data-name="Path 178663" d="M76.8,332.8q2.082,0,4.165,0,0,.832,0,1.666H76.8Q76.794,333.629,76.8,332.8Z" transform="translate(-69.295 -300.296)" fill="#f9b131"/>
  <path id="Path_178664" data-name="Path 178664" d="M375.463,349.863H381.3q0,.833,0,1.666h-5.832Q375.462,350.7,375.463,349.863Z" transform="translate(-338.796 -315.696)" fill="#f9b131"/>
  <path id="Path_178665" data-name="Path 178665" d="M76.8,366.931q2.917,0,5.832,0c0,.555,0,1.108,0,1.664q-2.917,0-5.834,0C76.8,368.041,76.8,367.486,76.8,366.931Z" transform="translate(-69.298 -331.097)" fill="#f9b131"/>
</svg>
