<svg xmlns="http://www.w3.org/2000/svg" width="57.69" height="50" viewBox="0 0 57.69 50">
  <g id="t3-ico1" transform="translate(0 -34.123)">
    <path id="Path_178669" data-name="Path 178669" d="M1.5,34.936a4.009,4.009,0,0,1,2.557-.812q24.787,0,49.575,0a3.992,3.992,0,0,1,2.617.862,3.927,3.927,0,0,1,1.439,2.9V70.77a4.08,4.08,0,0,1-1.281,2.757q-.637-.71-1.271-1.422a2.137,2.137,0,0,0,.61-1.251c.046-.7.009-1.411.019-2.116-1.6.006-3.2-.009-4.8.008-.02-.643-.008-1.287-.01-1.93q2.405,0,4.809,0,0-13.93,0-27.861a3.963,3.963,0,0,0-.235-1.9,1.966,1.966,0,0,0-1.788-1.01q-24.845-.005-49.69,0a2.111,2.111,0,0,0-1.372.4,1.952,1.952,0,0,0-.758,1.606q0,14.381,0,28.762,9.613,0,19.228,0v1.921q-9.613.005-19.228,0c.01.7-.027,1.408.018,2.112a1.907,1.907,0,0,0,1.437,1.669,6.678,6.678,0,0,0,1.359.065q9.522,0,19.045,0a1.033,1.033,0,0,1,1.1,1.493c-.818,2.706-1.623,5.416-2.437,8.123,4.267,0,8.535.019,12.8-.011-.279-.859-.524-1.728-.788-2.592.612-.192,1.226-.372,1.839-.555q.48,1.577.95,3.158c.723.006,1.448,0,2.171,0q0,.96,0,1.921-10.577,0-21.154,0,0-.96,0-1.921c.726-.006,1.452.009,2.179-.01.752-2.566,1.537-5.121,2.3-7.684q-8.67,0-17.338,0a7.3,7.3,0,0,1-3.179-.37A3.906,3.906,0,0,1,0,70.778V37.889A3.919,3.919,0,0,1,1.5,34.936Z" fill="#f9b131"/>
    <path id="Path_178670" data-name="Path 178670" d="M42.654,68.27c.64,0,1.28,0,1.92,0,0,.643.01,1.286-.009,1.928-.638-.01-1.275,0-1.913-.006C42.652,69.552,42.649,68.911,42.654,68.27Z" transform="translate(-37.845 -30.3)" fill="#f9b131"/>
    <path id="Path_178671" data-name="Path 178671" d="M76.811,68.24c.637.008,1.274,0,1.912,0,0,.64,0,1.281,0,1.922q-.962,0-1.922,0C76.8,69.524,76.79,68.882,76.811,68.24Z" transform="translate(-68.146 -30.273)" fill="#f9b131"/>
    <path id="Path_178672" data-name="Path 178672" d="M110.935,68.262c.639,0,1.279,0,1.919,0,0,.642,0,1.283,0,1.924-.64,0-1.28,0-1.921,0Q110.932,69.223,110.935,68.262Z" transform="translate(-98.434 -30.291)" fill="#f9b131"/>
    <path id="Path_178673" data-name="Path 178673" d="M409.812,85.689a1.106,1.106,0,0,1,.945-.356c1.164,0,2.328,0,3.492,0a1.049,1.049,0,0,1,.907.4,2.146,2.146,0,0,1,.2,1.248q0,8.305,0,16.612c-.643.014-1.287,0-1.93.006q0-8.172,0-16.343c-.641,0-1.281,0-1.922,0,0,3.527.014,7.053-.009,10.58-.638-.01-1.274,0-1.912-.006,0-3.767,0-7.533,0-11.3A1.236,1.236,0,0,1,409.812,85.689Z" transform="translate(-363.431 -45.44)" fill="#f9b131"/>
    <path id="Path_178674" data-name="Path 178674" d="M273.422,102.594a1.468,1.468,0,0,1,.963-.214c1.162.012,2.323-.014,3.484.012a.966.966,0,0,1,.937.964c.019,1.918,0,3.837.008,5.754q-.963,0-1.926,0,0-2.4,0-4.8-.962,0-1.922,0c0,1.922,0,3.844,0,5.767h-1.919c0-2.167,0-4.332,0-6.5A1.139,1.139,0,0,1,273.422,102.594Z" transform="translate(-242.277 -60.567)" fill="#f9b131"/>
    <path id="Path_178675" data-name="Path 178675" d="M341.332,137.452a.964.964,0,0,1,.972-.935q1.9-.02,3.812,0a.97.97,0,0,1,.967.959q.019,1.922,0,3.844c-.637-.008-1.272,0-1.909,0-.012-.961,0-1.922-.006-2.884-.64,0-1.279,0-1.919,0-.006.64,0,1.28,0,1.92-.641.007-1.282,0-1.923,0C341.33,139.387,341.306,138.419,341.332,137.452Z" transform="translate(-302.861 -90.848)" fill="#f9b131"/>
    <path id="Path_178676" data-name="Path 178676" d="M205.142,153.817a1.464,1.464,0,0,1,1.032-.247c1.128.01,2.256-.008,3.382.008a.972.972,0,0,1,1,.932c.027.969,0,1.939.01,2.909-.64,0-1.28,0-1.92,0,0-.641,0-1.281,0-1.922-.64,0-1.28,0-1.92,0,0,1.923,0,3.847,0,5.77h-1.921q0-3.26,0-6.519A1.119,1.119,0,0,1,205.142,153.817Z" transform="translate(-181.727 -105.989)" fill="#f9b131"/>
    <path id="Path_178677" data-name="Path 178677" d="M213.121,179.2a13.5,13.5,0,0,1,17.911,11.364,13.376,13.376,0,0,1-1.485,7.643c-.078.151-.207.349-.007.469q4.143,4.146,8.285,8.291a3.2,3.2,0,0,1,.968,2.03v.3a3.01,3.01,0,0,1-5.212,1.9q-4.112-4.105-8.217-8.215a13.77,13.77,0,0,1-4.835,2.126,13.5,13.5,0,0,1-7.407-25.915m3.965,1.27A11.524,11.524,0,1,0,228.9,194.485a11.53,11.53,0,0,0-5.173-12.3,11.456,11.456,0,0,0-6.639-1.721m9.771,21.3q4.016,4.007,8.024,8.021a1.239,1.239,0,0,0,1.093.441,1.077,1.077,0,0,0,.878-1.214c-.057-.448-.437-.737-.729-1.04q-3.913-3.9-7.818-7.813A17.91,17.91,0,0,1,226.857,201.764Z" transform="translate(-181.103 -128.05)" fill="#f9b131"/>
    <path id="Path_178678" data-name="Path 178678" d="M45.662,205.833a.98.98,0,0,1,.962-1.032c1.123-.025,2.249,0,3.373-.011a1.5,1.5,0,0,1,1.113.266,1.219,1.219,0,0,1,.318,1c-.007,3.078,0,6.158-.006,9.236a.989.989,0,0,1-.642.977,4.688,4.688,0,0,1-1.124.063q-7.768,0-15.537,0,0-.962,0-1.922c1.282,0,2.564,0,3.847,0q0-3.275,0-6.552a1.08,1.08,0,0,1,.377-.925,1.266,1.266,0,0,1,.839-.213c1.123,0,2.247,0,3.37,0a1.115,1.115,0,0,1,.932.336,1.814,1.814,0,0,1,.251,1.256c0,2.035-.019,4.07.011,6.1.638-.018,1.275.009,1.913-.019q-.014-4.279,0-8.559m1.921.882q0,3.845,0,7.689c.641,0,1.282,0,1.922,0,0-2.558-.006-5.115,0-7.674-.641-.021-1.283-.007-1.924-.01m-7.691,1.923c0,1.919,0,3.838,0,5.758.641.017,1.282.006,1.924.008q0-2.883,0-5.766C41.172,208.638,40.532,208.637,39.892,208.639Z" transform="translate(-30.276 -151.438)" fill="#f9b131"/>
    <path id="Path_178679" data-name="Path 178679" d="M247.348,213.489a9.6,9.6,0,1,1-6.546,3.926,9.605,9.605,0,0,1,6.546-3.926m-.175,1.972a7.677,7.677,0,1,0,4.376.446A7.693,7.693,0,0,0,247.173,215.461Z" transform="translate(-212.074 -159.083)" fill="#f9b131"/>
    <path id="Path_178680" data-name="Path 178680" d="M275.017,248.92a5.772,5.772,0,0,1,3.805-1.46c0,.64,0,1.281,0,1.921a3.92,3.92,0,0,0-3.011,1.474,3.979,3.979,0,0,0-.841,2.374H273.05A5.8,5.8,0,0,1,275.017,248.92Z" transform="translate(-242.284 -189.3)" fill="#f9b131"/>
    <path id="Path_178681" data-name="Path 178681" d="M460.81,290.12h1.922v1.921q-.962,0-1.922,0C460.809,291.4,460.807,290.761,460.81,290.12Z" transform="translate(-408.887 -227.153)" fill="#f9b131"/>
  </g>
</svg>
