<svg xmlns="http://www.w3.org/2000/svg" xmlns:xlink="http://www.w3.org/1999/xlink" width="687.584" height="483.997" viewBox="0 0 687.584 483.997">
  <defs>
    <linearGradient id="linear-gradient" x1="0.5" y1="0.698" x2="0.5" y2="-0.237" gradientUnits="objectBoundingBox">
      <stop offset="0" stop-color="#fff"/>
      <stop offset="1" stop-color="#e8e8e8"/>
    </linearGradient>
    <linearGradient id="linear-gradient-2" x1="0.5" y1="0.685" x2="0.5" y2="1" xlink:href="#linear-gradient"/>
    <clipPath id="clip-path">
      <path id="Path_183778" data-name="Path 183778" d="M398.811,267.326a116.2,116.2,0,1,0,116.2-116.2,116.194,116.194,0,0,0-116.2,116.2" fill="url(#linear-gradient)"/>
    </clipPath>
    <clipPath id="clip-path-2">
      <path id="Path_183779" data-name="Path 183779" d="M408.724,267.326A106.283,106.283,0,1,0,515.007,161.043,106.278,106.278,0,0,0,408.724,267.326" fill="url(#linear-gradient-2)"/>
    </clipPath>
  </defs>
  <g id="t4-info1" transform="translate(-1059.921 6835.311)">
    <circle id="Ellipse_5769" data-name="Ellipse 5769" cx="219.5" cy="219.5" r="219.5" transform="translate(1162 -6812)" fill="#fff"/>
    <path id="Ellipse_5769_-_Outline" data-name="Ellipse 5769 - Outline" d="M219.5,1a220.119,220.119,0,0,0-44.036,4.439A217.3,217.3,0,0,0,97.335,38.316,219.141,219.141,0,0,0,18.17,134.45,217.394,217.394,0,0,0,5.439,175.464a220.639,220.639,0,0,0,0,88.073,217.3,217.3,0,0,0,32.877,78.128A219.141,219.141,0,0,0,134.45,420.83a217.394,217.394,0,0,0,41.013,12.731,220.639,220.639,0,0,0,88.073,0,217.3,217.3,0,0,0,78.128-32.877A219.141,219.141,0,0,0,420.83,304.55a217.394,217.394,0,0,0,12.731-41.013,220.639,220.639,0,0,0,0-88.073,217.3,217.3,0,0,0-32.877-78.128A219.141,219.141,0,0,0,304.55,18.17,217.394,217.394,0,0,0,263.536,5.439,220.119,220.119,0,0,0,219.5,1m0-1C340.727,0,439,98.273,439,219.5S340.727,439,219.5,439,0,340.727,0,219.5,98.273,0,219.5,0Z" transform="translate(1162 -6812)" fill="#707070"/>
    <g id="Group_118372" data-name="Group 118372">
      <path id="Path_183776" data-name="Path 183776" d="M515.007,48.331c-120.948,0-218.994,98.047-218.994,218.995S394.059,486.32,515.007,486.32,734,388.274,734,267.326,635.955,48.331,515.007,48.331m0,424.167c-113.319,0-205.187-91.853-205.187-205.172S401.688,62.139,515.007,62.139s205.172,91.868,205.172,205.187S628.326,472.5,515.007,472.5" transform="translate(868 -6858)" fill="#ffe1ad"/>
      <path id="Path_183777" data-name="Path 183777" d="M515.007,47.456a221.491,221.491,0,0,1,44.311,4.467,218.669,218.669,0,0,1,78.622,33.084A220.51,220.51,0,0,1,717.6,181.742a218.775,218.775,0,0,1,12.812,41.273,222.005,222.005,0,0,1,0,88.621,218.666,218.666,0,0,1-33.084,78.621,220.508,220.508,0,0,1-96.735,79.659,218.773,218.773,0,0,1-41.273,12.812,222.01,222.01,0,0,1-88.621,0,218.669,218.669,0,0,1-78.621-33.084,220.507,220.507,0,0,1-79.659-96.735A218.766,218.766,0,0,1,299.6,311.637a222.008,222.008,0,0,1,0-88.621,218.669,218.669,0,0,1,33.084-78.621,220.507,220.507,0,0,1,96.735-79.659A218.768,218.768,0,0,1,470.7,51.923,221.49,221.49,0,0,1,515.007,47.456Zm0,437.989c120.272,0,218.12-97.848,218.12-218.119s-97.848-218.12-218.12-218.12-218.119,97.848-218.119,218.12S394.736,485.445,515.007,485.445Zm0-424.181a207.556,207.556,0,0,1,41.526,4.187,204.911,204.911,0,0,1,73.68,31.007,206.658,206.658,0,0,1,74.649,90.661A205.047,205.047,0,0,1,716.868,225.8a208.08,208.08,0,0,1,0,83.053,204.922,204.922,0,0,1-31,73.68,206.631,206.631,0,0,1-90.653,74.649,205.02,205.02,0,0,1-38.679,12.006,208.079,208.079,0,0,1-83.053,0,204.947,204.947,0,0,1-73.684-31,206.642,206.642,0,0,1-74.657-90.653,205,205,0,0,1-12.008-38.679,208.045,208.045,0,0,1,0-83.053,204.938,204.938,0,0,1,31.007-73.684A206.668,206.668,0,0,1,434.8,77.458,205.025,205.025,0,0,1,473.48,65.451,207.567,207.567,0,0,1,515.007,61.264Zm0,410.359c112.65,0,204.3-91.647,204.3-204.3S627.657,63.014,515.007,63.014,310.7,154.668,310.7,267.326,402.349,471.623,515.007,471.623Z" transform="translate(868 -6858)" fill="#f9b131"/>
      <g id="Group_118266" data-name="Group 118266" transform="translate(868 -6858)" style="isolation: isolate">
        <g id="Group_118265" data-name="Group 118265" clip-path="url(#clip-path)">
          <rect id="Rectangle_38278" data-name="Rectangle 38278" width="232.392" height="232.392" transform="translate(398.811 151.13)" fill="url(#linear-gradient)"/>
        </g>
      </g>
      <path id="Ellipse_5768" data-name="Ellipse 5768" d="M116.2-.875A117.93,117.93,0,0,1,139.789,1.5a116.434,116.434,0,0,1,41.863,17.616,117.41,117.41,0,0,1,42.415,51.507A116.485,116.485,0,0,1,230.889,92.6a118.2,118.2,0,0,1,0,47.186,116.434,116.434,0,0,1-17.616,41.863,117.41,117.41,0,0,1-51.507,42.415,116.485,116.485,0,0,1-21.977,6.822,118.2,118.2,0,0,1-47.186,0A116.434,116.434,0,0,1,50.74,213.273,117.41,117.41,0,0,1,8.325,161.766,116.485,116.485,0,0,1,1.5,139.789,118.2,118.2,0,0,1,1.5,92.6,116.434,116.434,0,0,1,19.119,50.74,117.41,117.41,0,0,1,70.626,8.325,116.485,116.485,0,0,1,92.6,1.5,117.93,117.93,0,0,1,116.2-.875Zm0,232.392A115.321,115.321,0,1,0,.875,116.2,115.452,115.452,0,0,0,116.2,231.517Z" transform="translate(1266.811 -6706.87)" fill="#d1d1c7"/>
      <g id="Group_118270" data-name="Group 118270" transform="translate(868 -6858)">
        <g id="Group_118269" data-name="Group 118269" clip-path="url(#clip-path-2)">
          <rect id="Rectangle_38280" data-name="Rectangle 38280" width="212.566" height="212.566" transform="translate(408.724 161.043)" fill="url(#linear-gradient-2)"/>
        </g>
      </g>
      <path id="Rectangle_38281" data-name="Rectangle 38281" d="M8.736-.875H95.887a9.621,9.621,0,0,1,9.61,9.61V29.948a9.621,9.621,0,0,1-9.61,9.61H8.736A9.622,9.622,0,0,1-.875,29.947V8.736A9.622,9.622,0,0,1,8.736-.875ZM95.887,37.808a7.869,7.869,0,0,0,7.86-7.86V8.735a7.869,7.869,0,0,0-7.86-7.86H8.736A7.87,7.87,0,0,0,.875,8.736V29.947a7.87,7.87,0,0,0,7.861,7.861Z" transform="translate(1328.476 -6828.669)" fill="#c4fdff"/>
      <path id="Path_183780" data-name="Path 183780" d="M560.789,62.872H473.638a8.735,8.735,0,0,1-8.735-8.736V32.925a8.735,8.735,0,0,1,8.735-8.736h87.151a8.736,8.736,0,0,1,8.736,8.736V54.136a8.736,8.736,0,0,1-8.736,8.736" transform="translate(868 -6858)" fill="#c4fdff"/>
      <path id="Rectangle_38282" data-name="Rectangle 38282" d="M8.736-1.5H95.887A10.247,10.247,0,0,1,106.122,8.735V29.947A10.248,10.248,0,0,1,95.886,40.183H8.736A10.248,10.248,0,0,1-1.5,29.947V8.736A10.248,10.248,0,0,1,8.736-1.5Zm87.15,38.683a7.244,7.244,0,0,0,7.236-7.236V8.735A7.243,7.243,0,0,0,95.887,1.5H8.736A7.244,7.244,0,0,0,1.5,8.736V29.947a7.244,7.244,0,0,0,7.236,7.236Z" transform="translate(1332.903 -6833.811)" fill="#42e0e6"/>
      <path id="Path_184786" data-name="Path 184786" d="M7.859-4.945h-4.5v3.063H8.641V0H1.016V-11.375H8.625v1.9H3.359v2.711h4.5ZM9.367-4.3a5.053,5.053,0,0,1,.887-3.148,2.9,2.9,0,0,1,2.434-1.156A2.6,2.6,0,0,1,14.852-7.57L15-8.453h1.984V3.25H14.719V-.727a2.6,2.6,0,0,1-2.047.883,2.878,2.878,0,0,1-2.406-1.172A5.3,5.3,0,0,1,9.367-4.3Zm2.258.16A3.315,3.315,0,0,0,12.051-2.3a1.363,1.363,0,0,0,1.2.634,1.518,1.518,0,0,0,1.469-.829v-3.5a1.506,1.506,0,0,0-1.453-.8,1.38,1.38,0,0,0-1.211.634A3.661,3.661,0,0,0,11.625-4.144ZM23.98-.859A2.831,2.831,0,0,1,21.668.156a2.67,2.67,0,0,1-2.074-.781,3.335,3.335,0,0,1-.73-2.289V-8.453h2.258v5.467q0,1.322,1.2,1.322a1.63,1.63,0,0,0,1.578-.8V-8.453h2.266V0H24.043ZM30.414,0H28.148V-8.453h2.266Zm-2.4-10.641a1.112,1.112,0,0,1,.34-.836,1.277,1.277,0,0,1,.926-.328,1.28,1.28,0,0,1,.922.328,1.105,1.105,0,0,1,.344.836A1.108,1.108,0,0,1,30.2-9.8a1.283,1.283,0,0,1-.918.328,1.283,1.283,0,0,1-.918-.328A1.108,1.108,0,0,1,28.015-10.641Zm4.05,6.352a5.094,5.094,0,0,1,.887-3.148,2.877,2.877,0,0,1,2.426-1.172,2.589,2.589,0,0,1,2.039.922V-12h2.266V0H37.644l-.109-.9A2.657,2.657,0,0,1,35.362.156,2.869,2.869,0,0,1,32.968-1.02,5.258,5.258,0,0,1,32.066-4.289Zm2.258.161A3.355,3.355,0,0,0,34.737-2.3a1.348,1.348,0,0,0,1.2.636,1.51,1.51,0,0,0,1.477-.887V-5.9a1.489,1.489,0,0,0-1.461-.887Q34.323-6.789,34.323-4.128ZM46.475,0a2.507,2.507,0,0,1-.227-.758,2.732,2.732,0,0,1-2.133.914,3,3,0,0,1-2.059-.719,2.312,2.312,0,0,1-.816-1.812,2.389,2.389,0,0,1,1-2.062,4.915,4.915,0,0,1,2.879-.727h1.039v-.484a1.393,1.393,0,0,0-.3-.937,1.183,1.183,0,0,0-.949-.352,1.345,1.345,0,0,0-.895.273.929.929,0,0,0-.324.75H41.428a2.268,2.268,0,0,1,.453-1.359,3,3,0,0,1,1.281-.98,4.669,4.669,0,0,1,1.859-.355,3.689,3.689,0,0,1,2.48.785,2.747,2.747,0,0,1,.918,2.207v3.664a4.041,4.041,0,0,0,.336,1.82V0ZM44.608-1.57a1.945,1.945,0,0,0,.922-.223,1.462,1.462,0,0,0,.625-.6V-3.844h-.844q-1.7,0-1.8,1.172l-.008.133a.9.9,0,0,0,.3.7A1.153,1.153,0,0,0,44.608-1.57Zm5.339-2.719a5.094,5.094,0,0,1,.887-3.148A2.877,2.877,0,0,1,53.26-8.609a2.589,2.589,0,0,1,2.039.922V-12h2.266V0H55.525l-.109-.9A2.657,2.657,0,0,1,53.244.156,2.869,2.869,0,0,1,50.85-1.02,5.258,5.258,0,0,1,49.947-4.289Zm2.258.161A3.355,3.355,0,0,0,52.619-2.3a1.348,1.348,0,0,0,1.2.636A1.51,1.51,0,0,0,55.3-2.551V-5.9a1.489,1.489,0,0,0-1.461-.887Q52.205-6.789,52.205-4.128Z" transform="translate(1355.806 -6809.793)" fill="#12263f"/>
      <path id="Rectangle_38284" data-name="Rectangle 38284" d="M8.736-.875H125.9a9.622,9.622,0,0,1,9.611,9.611V29.947a9.622,9.622,0,0,1-9.611,9.611H8.736A9.622,9.622,0,0,1-.875,29.947V8.736A9.622,9.622,0,0,1,8.736-.875ZM125.9,37.808a7.87,7.87,0,0,0,7.861-7.861V8.736A7.87,7.87,0,0,0,125.9.875H8.736A7.87,7.87,0,0,0,.875,8.736V29.947a7.87,7.87,0,0,0,7.861,7.861Z" transform="translate(1456.325 -6810.308)" fill="#c4fdff"/>
      <path id="Path_183781" data-name="Path 183781" d="M718.657,81.234H601.488a8.736,8.736,0,0,1-8.736-8.736V51.287a8.736,8.736,0,0,1,8.736-8.736H718.657a8.736,8.736,0,0,1,8.736,8.736V72.5a8.736,8.736,0,0,1-8.736,8.736" transform="translate(868 -6858)" fill="#c4fdff"/>
      <path id="Rectangle_38285" data-name="Rectangle 38285" d="M8.736-1.5H125.9A10.248,10.248,0,0,1,136.141,8.736V29.947A10.248,10.248,0,0,1,125.9,40.183H8.736A10.248,10.248,0,0,1-1.5,29.947V8.736A10.248,10.248,0,0,1,8.736-1.5ZM125.9,37.183a7.244,7.244,0,0,0,7.236-7.236V8.736A7.244,7.244,0,0,0,125.9,1.5H8.736A7.244,7.244,0,0,0,1.5,8.736V29.947a7.244,7.244,0,0,0,7.236,7.236Z" transform="translate(1460.752 -6815.449)" fill="#42e0e6"/>
      <path id="Path_184785" data-name="Path 184785" d="M3.359-4.008V0H1.016V-11.375H5.453a5.134,5.134,0,0,1,2.254.469A3.454,3.454,0,0,1,9.2-9.574a3.714,3.714,0,0,1,.523,1.965A3.266,3.266,0,0,1,8.582-4.973a4.767,4.767,0,0,1-3.168.965Zm0-1.9H5.453a2.059,2.059,0,0,0,1.418-.437,1.591,1.591,0,0,0,.488-1.25,1.876,1.876,0,0,0-.492-1.352,1.839,1.839,0,0,0-1.359-.531H3.359ZM16.064,0a2.507,2.507,0,0,1-.227-.758A2.732,2.732,0,0,1,13.7.156a3,3,0,0,1-2.059-.719,2.312,2.312,0,0,1-.816-1.812,2.389,2.389,0,0,1,1-2.062A4.915,4.915,0,0,1,14.7-5.164h1.039v-.484a1.393,1.393,0,0,0-.3-.937,1.183,1.183,0,0,0-.949-.352,1.345,1.345,0,0,0-.895.273.929.929,0,0,0-.324.75H11.017a2.268,2.268,0,0,1,.453-1.359,3,3,0,0,1,1.281-.98,4.669,4.669,0,0,1,1.859-.355,3.689,3.689,0,0,1,2.48.785,2.747,2.747,0,0,1,.918,2.207v3.664a4.041,4.041,0,0,0,.336,1.82V0ZM14.2-1.57a1.945,1.945,0,0,0,.922-.223,1.462,1.462,0,0,0,.625-.6V-3.844H14.9q-1.7,0-1.8,1.172l-.008.133a.9.9,0,0,0,.3.7A1.153,1.153,0,0,0,14.2-1.57ZM24.638-6.336a6.134,6.134,0,0,0-.812-.062,1.654,1.654,0,0,0-1.68.867V0H19.888V-8.453h2.133l.063,1.008a2.092,2.092,0,0,1,1.883-1.164,2.366,2.366,0,0,1,.7.1Zm4.724-4.2v2.078h1.445V-6.8H29.361v4.219a1.007,1.007,0,0,0,.18.672.9.9,0,0,0,.688.2,3.6,3.6,0,0,0,.664-.055V-.047a4.648,4.648,0,0,1-1.367.2,2.156,2.156,0,0,1-2.422-2.4V-6.8H25.869V-8.453H27.1v-2.078ZM34.607,0H32.342V-8.453h2.266Zm-2.4-10.641a1.112,1.112,0,0,1,.34-.836,1.277,1.277,0,0,1,.926-.328,1.28,1.28,0,0,1,.922.328,1.105,1.105,0,0,1,.344.836,1.108,1.108,0,0,1-.348.844,1.283,1.283,0,0,1-.918.328,1.283,1.283,0,0,1-.918-.328A1.108,1.108,0,0,1,32.209-10.641Zm4.05,6.352a5.094,5.094,0,0,1,.887-3.148,2.877,2.877,0,0,1,2.426-1.172,2.589,2.589,0,0,1,2.039.922V-12h2.266V0H41.837l-.109-.9A2.657,2.657,0,0,1,39.556.156,2.869,2.869,0,0,1,37.161-1.02,5.258,5.258,0,0,1,36.259-4.289Zm2.258.161A3.355,3.355,0,0,0,38.931-2.3a1.348,1.348,0,0,0,1.2.636,1.51,1.51,0,0,0,1.477-.887V-5.9a1.489,1.489,0,0,0-1.461-.887Q38.517-6.789,38.517-4.128ZM50.669,0a2.507,2.507,0,0,1-.227-.758,2.732,2.732,0,0,1-2.133.914,3,3,0,0,1-2.059-.719,2.312,2.312,0,0,1-.816-1.812,2.389,2.389,0,0,1,1-2.062,4.915,4.915,0,0,1,2.879-.727h1.039v-.484a1.393,1.393,0,0,0-.3-.937,1.183,1.183,0,0,0-.949-.352,1.345,1.345,0,0,0-.895.273.929.929,0,0,0-.324.75H45.622a2.268,2.268,0,0,1,.453-1.359,3,3,0,0,1,1.281-.98,4.669,4.669,0,0,1,1.859-.355,3.689,3.689,0,0,1,2.48.785,2.747,2.747,0,0,1,.918,2.207v3.664a4.041,4.041,0,0,0,.336,1.82V0ZM48.8-1.57a1.945,1.945,0,0,0,.922-.223,1.462,1.462,0,0,0,.625-.6V-3.844H49.5q-1.7,0-1.8,1.172l-.008.133a.9.9,0,0,0,.3.7A1.153,1.153,0,0,0,48.8-1.57Zm9.468-2.719a5.094,5.094,0,0,1,.887-3.148,2.877,2.877,0,0,1,2.426-1.172,2.589,2.589,0,0,1,2.039.922V-12h2.266V0H63.847l-.109-.9A2.657,2.657,0,0,1,61.566.156,2.869,2.869,0,0,1,59.172-1.02,5.258,5.258,0,0,1,58.269-4.289Zm2.258.161A3.355,3.355,0,0,0,60.941-2.3a1.348,1.348,0,0,0,1.2.636,1.51,1.51,0,0,0,1.477-.887V-5.9a1.489,1.489,0,0,0-1.461-.887Q60.527-6.789,60.527-4.128Zm6.9-.176a5.013,5.013,0,0,1,.484-2.242A3.546,3.546,0,0,1,69.308-8.07a4.069,4.069,0,0,1,2.113-.539,3.849,3.849,0,0,1,2.793,1.047,4.2,4.2,0,0,1,1.207,2.844l.016.578A4.418,4.418,0,0,1,74.351-1.02,3.775,3.775,0,0,1,71.437.156a3.793,3.793,0,0,1-2.918-1.172A4.5,4.5,0,0,1,67.429-4.2Zm2.258.16A3.16,3.16,0,0,0,70.14-2.3a1.5,1.5,0,0,0,1.3.638,1.5,1.5,0,0,0,1.281-.63,3.457,3.457,0,0,0,.461-2.015,3.128,3.128,0,0,0-.461-1.831,1.5,1.5,0,0,0-1.3-.649,1.474,1.474,0,0,0-1.281.646A3.516,3.516,0,0,0,69.687-4.144Zm14.9,0A5.119,5.119,0,0,1,83.721-.98,2.872,2.872,0,0,1,81.3.156,2.639,2.639,0,0,1,79.1-.9L79,0H76.971V-12h2.258v4.3a2.571,2.571,0,0,1,2.055-.914A2.9,2.9,0,0,1,83.71-7.473a5.126,5.126,0,0,1,.879,3.2Zm-2.258-.172A3.381,3.381,0,0,0,81.924-6.2a1.372,1.372,0,0,0-1.211-.592,1.489,1.489,0,0,0-1.484.885v3.346a1.509,1.509,0,0,0,1.5.893,1.4,1.4,0,0,0,1.438-1.081A5.6,5.6,0,0,0,82.331-4.321ZM88.522,0H86.256V-12h2.266Zm5.894.156A4.15,4.15,0,0,1,91.389-.984a4.054,4.054,0,0,1-1.168-3.039v-.219a5.106,5.106,0,0,1,.492-2.277,3.612,3.612,0,0,1,1.395-1.547,3.914,3.914,0,0,1,2.059-.543A3.508,3.508,0,0,1,96.9-7.516a4.444,4.444,0,0,1,1,3.1v.922H92.51a2.1,2.1,0,0,0,.66,1.328,2,2,0,0,0,1.395.5A2.437,2.437,0,0,0,96.6-2.609l1.109,1.242A3.389,3.389,0,0,1,96.338-.246,4.511,4.511,0,0,1,94.416.156Zm-.258-6.945a1.411,1.411,0,0,0-1.09.455,2.357,2.357,0,0,0-.535,1.3h3.141v-.181a1.681,1.681,0,0,0-.406-1.165A1.456,1.456,0,0,0,94.158-6.789Z" transform="translate(1478.92 -6791.432)" fill="#12263f"/>
      <path id="Rectangle_38287" data-name="Rectangle 38287" d="M8.736-.875H110.9a9.622,9.622,0,0,1,9.611,9.611V29.947a9.622,9.622,0,0,1-9.611,9.611H8.736A9.622,9.622,0,0,1-.875,29.947V8.736A9.622,9.622,0,0,1,8.736-.875ZM110.9,37.808a7.87,7.87,0,0,0,7.861-7.861V8.736A7.87,7.87,0,0,0,110.9.875H8.736A7.87,7.87,0,0,0,.875,8.736V29.947a7.87,7.87,0,0,0,7.861,7.861Z" transform="translate(1414.107 -6390.872)" fill="#c4fdff"/>
      <path id="Path_183782" data-name="Path 183782" d="M661.43,500.67H559.27a8.736,8.736,0,0,1-8.736-8.736V470.723a8.736,8.736,0,0,1,8.736-8.736H661.43a8.736,8.736,0,0,1,8.736,8.736v21.211a8.736,8.736,0,0,1-8.736,8.736" transform="translate(868 -6858)" fill="#c4fdff"/>
      <path id="Rectangle_38288" data-name="Rectangle 38288" d="M8.736-1.5H110.9A10.248,10.248,0,0,1,121.132,8.736V29.947A10.248,10.248,0,0,1,110.9,40.183H8.736A10.248,10.248,0,0,1-1.5,29.947V8.736A10.248,10.248,0,0,1,8.736-1.5ZM110.9,37.183a7.244,7.244,0,0,0,7.236-7.236V8.736A7.244,7.244,0,0,0,110.9,1.5H8.736A7.244,7.244,0,0,0,1.5,8.736V29.947a7.244,7.244,0,0,0,7.236,7.236Z" transform="translate(1418.534 -6396.013)" fill="#42e0e6"/>
      <path id="Path_184794" data-name="Path 184794" d="M3.359-4.008V0H1.016V-11.375H5.453a5.134,5.134,0,0,1,2.254.469A3.454,3.454,0,0,1,9.2-9.574a3.714,3.714,0,0,1,.523,1.965A3.266,3.266,0,0,1,8.582-4.973a4.767,4.767,0,0,1-3.168.965Zm0-1.9H5.453a2.059,2.059,0,0,0,1.418-.437,1.591,1.591,0,0,0,.488-1.25,1.876,1.876,0,0,0-.492-1.352,1.839,1.839,0,0,0-1.359-.531H3.359ZM15.025.156A4.15,4.15,0,0,1,12-.984a4.054,4.054,0,0,1-1.168-3.039v-.219a5.106,5.106,0,0,1,.492-2.277,3.612,3.612,0,0,1,1.395-1.547,3.914,3.914,0,0,1,2.059-.543,3.508,3.508,0,0,1,2.73,1.094,4.444,4.444,0,0,1,1,3.1v.922H13.118a2.1,2.1,0,0,0,.66,1.328,2,2,0,0,0,1.395.5,2.437,2.437,0,0,0,2.039-.945l1.109,1.242A3.389,3.389,0,0,1,16.946-.246,4.511,4.511,0,0,1,15.025.156Zm-.258-6.945a1.411,1.411,0,0,0-1.09.455,2.357,2.357,0,0,0-.535,1.3h3.141v-.181a1.681,1.681,0,0,0-.406-1.165A1.456,1.456,0,0,0,14.767-6.789Zm9.91.453a6.134,6.134,0,0,0-.812-.062,1.654,1.654,0,0,0-1.68.867V0H19.926V-8.453h2.133l.063,1.008A2.092,2.092,0,0,1,24-8.609a2.366,2.366,0,0,1,.7.1ZM28.36,0H26.1V-8.453H28.36ZM27.7-11.883h2.461L27.993-9.461H26.157ZM30.114-4.3A5.013,5.013,0,0,1,30.6-6.547,3.546,3.546,0,0,1,31.992-8.07a4.069,4.069,0,0,1,2.113-.539A3.849,3.849,0,0,1,36.9-7.562a4.2,4.2,0,0,1,1.207,2.844l.016.578A4.418,4.418,0,0,1,37.035-1.02,3.775,3.775,0,0,1,34.121.156,3.793,3.793,0,0,1,31.2-1.016,4.5,4.5,0,0,1,30.114-4.2Zm2.258.16A3.16,3.16,0,0,0,32.825-2.3a1.5,1.5,0,0,0,1.3.638,1.5,1.5,0,0,0,1.281-.63,3.457,3.457,0,0,0,.461-2.015A3.128,3.128,0,0,0,35.4-6.14a1.5,1.5,0,0,0-1.3-.649,1.474,1.474,0,0,0-1.281.646A3.516,3.516,0,0,0,32.371-4.144ZM39.3-4.289a5.094,5.094,0,0,1,.887-3.148,2.877,2.877,0,0,1,2.426-1.172,2.589,2.589,0,0,1,2.039.922V-12h2.266V0H44.883l-.109-.9A2.657,2.657,0,0,1,42.6.156,2.869,2.869,0,0,1,40.207-1.02,5.258,5.258,0,0,1,39.3-4.289Zm2.258.161A3.355,3.355,0,0,0,41.976-2.3a1.348,1.348,0,0,0,1.2.636,1.51,1.51,0,0,0,1.477-.887V-5.9A1.489,1.489,0,0,0,43.2-6.789Q41.562-6.789,41.562-4.128Zm6.9-.176a5.013,5.013,0,0,1,.484-2.242A3.546,3.546,0,0,1,50.343-8.07a4.069,4.069,0,0,1,2.113-.539,3.849,3.849,0,0,1,2.793,1.047,4.2,4.2,0,0,1,1.207,2.844l.016.578A4.418,4.418,0,0,1,55.386-1.02,3.775,3.775,0,0,1,52.472.156a3.793,3.793,0,0,1-2.918-1.172A4.5,4.5,0,0,1,48.464-4.2Zm2.258.16A3.16,3.16,0,0,0,51.175-2.3a1.5,1.5,0,0,0,1.3.638,1.5,1.5,0,0,0,1.281-.63,3.457,3.457,0,0,0,.461-2.015,3.128,3.128,0,0,0-.461-1.831,1.5,1.5,0,0,0-1.3-.649,1.474,1.474,0,0,0-1.281.646A3.516,3.516,0,0,0,50.722-4.144Z" transform="translate(1449.692 -6371.995)" fill="#12263f"/>
      <path id="Rectangle_38290" data-name="Rectangle 38290" d="M8.736-.875H110.9a9.622,9.622,0,0,1,9.611,9.611V29.947a9.622,9.622,0,0,1-9.611,9.611H8.736A9.622,9.622,0,0,1-.875,29.947V8.736A9.622,9.622,0,0,1,8.736-.875ZM110.9,37.808a7.87,7.87,0,0,0,7.861-7.861V8.736A7.87,7.87,0,0,0,110.9.875H8.736A7.87,7.87,0,0,0,.875,8.736V29.947a7.87,7.87,0,0,0,7.861,7.861Z" transform="translate(1227.848 -6390.872)" fill="#c4fdff"/>
      <path id="Path_183783" data-name="Path 183783" d="M475.171,500.67H373.011a8.736,8.736,0,0,1-8.736-8.736V470.723a8.736,8.736,0,0,1,8.736-8.736h102.16a8.736,8.736,0,0,1,8.736,8.736v21.211a8.736,8.736,0,0,1-8.736,8.736" transform="translate(868 -6858)" fill="#c4fdff"/>
      <path id="Rectangle_38291" data-name="Rectangle 38291" d="M8.736-1.5H110.9A10.248,10.248,0,0,1,121.132,8.736V29.947A10.248,10.248,0,0,1,110.9,40.183H8.736A10.248,10.248,0,0,1-1.5,29.947V8.736A10.248,10.248,0,0,1,8.736-1.5ZM110.9,37.183a7.244,7.244,0,0,0,7.236-7.236V8.736A7.244,7.244,0,0,0,110.9,1.5H8.736A7.244,7.244,0,0,0,1.5,8.736V29.947a7.244,7.244,0,0,0,7.236,7.236Z" transform="translate(1232.275 -6396.013)" fill="#42e0e6"/>
      <path id="Path_184793" data-name="Path 184793" d="M1.016,0V-11.375h3.5A5.315,5.315,0,0,1,7.2-10.7,4.712,4.712,0,0,1,9.047-8.777a5.928,5.928,0,0,1,.664,2.832v.523A5.945,5.945,0,0,1,9.059-2.6,4.672,4.672,0,0,1,7.219-.687,5.355,5.355,0,0,1,4.539,0ZM3.359-9.477v7.594H4.492a2.545,2.545,0,0,0,2.1-.9,4.06,4.06,0,0,0,.742-2.57v-.6a4.124,4.124,0,0,0-.719-2.629,2.537,2.537,0,0,0-2.1-.895ZM15.316.156A4.15,4.15,0,0,1,12.289-.984a4.054,4.054,0,0,1-1.168-3.039v-.219a5.106,5.106,0,0,1,.492-2.277,3.612,3.612,0,0,1,1.395-1.547,3.914,3.914,0,0,1,2.059-.543A3.508,3.508,0,0,1,17.8-7.516a4.444,4.444,0,0,1,1,3.1v.922H13.41a2.1,2.1,0,0,0,.66,1.328,2,2,0,0,0,1.395.5A2.437,2.437,0,0,0,17.5-2.609l1.109,1.242A3.389,3.389,0,0,1,17.238-.246,4.511,4.511,0,0,1,15.316.156Zm-.258-6.945a1.411,1.411,0,0,0-1.09.455,2.357,2.357,0,0,0-.535,1.3h3.141v-.181a1.681,1.681,0,0,0-.406-1.165A1.456,1.456,0,0,0,15.058-6.789Zm8.126,4.031,1.57-5.7h2.359L24.263,0H22.106L19.255-8.453h2.359ZM31.944.156A4.15,4.15,0,0,1,28.916-.984a4.054,4.054,0,0,1-1.168-3.039v-.219A5.106,5.106,0,0,1,28.24-6.52a3.612,3.612,0,0,1,1.395-1.547,3.914,3.914,0,0,1,2.059-.543,3.508,3.508,0,0,1,2.73,1.094,4.444,4.444,0,0,1,1,3.1v.922H30.037a2.1,2.1,0,0,0,.66,1.328,2,2,0,0,0,1.395.5,2.437,2.437,0,0,0,2.039-.945L35.24-1.367A3.389,3.389,0,0,1,33.865-.246,4.511,4.511,0,0,1,31.944.156Zm-.258-6.945a1.411,1.411,0,0,0-1.09.455,2.357,2.357,0,0,0-.535,1.3H33.2v-.181A1.681,1.681,0,0,0,32.8-6.377,1.456,1.456,0,0,0,31.686-6.789Zm7.238-1.664.07.977a2.951,2.951,0,0,1,2.43-1.133,2.453,2.453,0,0,1,2,.789A3.682,3.682,0,0,1,44.1-5.461V0H41.838V-5.419a1.47,1.47,0,0,0-.312-1.045,1.4,1.4,0,0,0-1.039-.325,1.553,1.553,0,0,0-1.43.814V0H36.8V-8.453Zm6.7,4.164a4.954,4.954,0,0,1,.926-3.133,3,3,0,0,1,2.5-1.187,2.631,2.631,0,0,1,2.164.953l.094-.8h2.047V-.281a3.613,3.613,0,0,1-.5,1.93A3.236,3.236,0,0,1,51.427,2.9a4.985,4.985,0,0,1-2.141.43,4.635,4.635,0,0,1-1.812-.371A3.217,3.217,0,0,1,46.138,2l1-1.375a2.645,2.645,0,0,0,2.047.945,1.936,1.936,0,0,0,1.4-.48,1.8,1.8,0,0,0,.5-1.363V-.727a2.612,2.612,0,0,1-2.055.883,2.992,2.992,0,0,1-2.465-1.191,4.953,4.953,0,0,1-.941-3.16Zm2.258.161a3.1,3.1,0,0,0,.461,1.809,1.465,1.465,0,0,0,1.266.655,1.567,1.567,0,0,0,1.477-.777V-6.012a1.563,1.563,0,0,0-1.461-.777,1.474,1.474,0,0,0-1.277.667A3.5,3.5,0,0,0,47.88-4.128ZM60.141,0a2.507,2.507,0,0,1-.227-.758,2.732,2.732,0,0,1-2.133.914,3,3,0,0,1-2.059-.719,2.312,2.312,0,0,1-.816-1.812,2.389,2.389,0,0,1,1-2.062,4.915,4.915,0,0,1,2.879-.727h1.039v-.484a1.393,1.393,0,0,0-.3-.937,1.183,1.183,0,0,0-.949-.352,1.345,1.345,0,0,0-.895.273.929.929,0,0,0-.324.75H55.095a2.268,2.268,0,0,1,.453-1.359,3,3,0,0,1,1.281-.98,4.669,4.669,0,0,1,1.859-.355,3.689,3.689,0,0,1,2.48.785,2.747,2.747,0,0,1,.918,2.207v3.664a4.041,4.041,0,0,0,.336,1.82V0ZM58.274-1.57a1.945,1.945,0,0,0,.922-.223,1.462,1.462,0,0,0,.625-.6V-3.844h-.844q-1.7,0-1.8,1.172l-.008.133a.9.9,0,0,0,.3.7A1.153,1.153,0,0,0,58.274-1.57Zm5.339-2.719A5.094,5.094,0,0,1,64.5-7.437a2.877,2.877,0,0,1,2.426-1.172,2.589,2.589,0,0,1,2.039.922V-12h2.266V0H69.192l-.109-.9A2.657,2.657,0,0,1,66.91.156,2.869,2.869,0,0,1,64.516-1.02,5.258,5.258,0,0,1,63.614-4.289Zm2.258.161A3.355,3.355,0,0,0,66.285-2.3a1.348,1.348,0,0,0,1.2.636,1.51,1.51,0,0,0,1.477-.887V-5.9A1.489,1.489,0,0,0,67.5-6.789Q65.871-6.789,65.871-4.128Zm6.9-.176a5.013,5.013,0,0,1,.484-2.242A3.546,3.546,0,0,1,74.652-8.07a4.069,4.069,0,0,1,2.113-.539,3.849,3.849,0,0,1,2.793,1.047,4.2,4.2,0,0,1,1.207,2.844l.016.578A4.418,4.418,0,0,1,79.7-1.02,3.775,3.775,0,0,1,76.781.156a3.793,3.793,0,0,1-2.918-1.172A4.5,4.5,0,0,1,72.773-4.2Zm2.258.16A3.16,3.16,0,0,0,75.484-2.3a1.5,1.5,0,0,0,1.3.638,1.5,1.5,0,0,0,1.281-.63,3.457,3.457,0,0,0,.461-2.015,3.128,3.128,0,0,0-.461-1.831,1.5,1.5,0,0,0-1.3-.649,1.474,1.474,0,0,0-1.281.646A3.516,3.516,0,0,0,75.031-4.144Z" transform="translate(1251.217 -6371.995)" fill="#12263f"/>
      <path id="Rectangle_38293" data-name="Rectangle 38293" d="M8.736-.875H110.9a9.622,9.622,0,0,1,9.611,9.611V29.947a9.622,9.622,0,0,1-9.611,9.611H8.736A9.622,9.622,0,0,1-.875,29.947V8.736A9.622,9.622,0,0,1,8.736-.875ZM110.9,37.808a7.87,7.87,0,0,0,7.861-7.861V8.736A7.87,7.87,0,0,0,110.9.875H8.736A7.87,7.87,0,0,0,.875,8.736V29.947a7.87,7.87,0,0,0,7.861,7.861Z" transform="translate(1147.179 -6444.511)" fill="#c4fdff"/>
      <path id="Path_183784" data-name="Path 183784" d="M394.5,447.031H292.342a8.736,8.736,0,0,1-8.736-8.736V417.084a8.736,8.736,0,0,1,8.736-8.736H394.5a8.736,8.736,0,0,1,8.735,8.736V438.3a8.735,8.735,0,0,1-8.735,8.736" transform="translate(868 -6858)" fill="#c4fdff"/>
      <path id="Rectangle_38294" data-name="Rectangle 38294" d="M8.736-1.5H110.9A10.248,10.248,0,0,1,121.132,8.736V29.947A10.248,10.248,0,0,1,110.9,40.183H8.736A10.248,10.248,0,0,1-1.5,29.947V8.736A10.248,10.248,0,0,1,8.736-1.5ZM110.9,37.183a7.244,7.244,0,0,0,7.236-7.236V8.736A7.244,7.244,0,0,0,110.9,1.5H8.736A7.244,7.244,0,0,0,1.5,8.736V29.947a7.244,7.244,0,0,0,7.236,7.236Z" transform="translate(1151.606 -6449.652)" fill="#42e0e6"/>
      <path id="Path_184792" data-name="Path 184792" d="M10.359-5.43a6.867,6.867,0,0,1-.594,2.945,4.472,4.472,0,0,1-1.7,1.953A4.7,4.7,0,0,1,5.531.156a4.732,4.732,0,0,1-2.523-.68A4.515,4.515,0,0,1,1.289-2.465a6.67,6.67,0,0,1-.617-2.9V-5.93a6.831,6.831,0,0,1,.605-2.957,4.508,4.508,0,0,1,1.711-1.961,4.706,4.706,0,0,1,2.527-.684,4.706,4.706,0,0,1,2.527.684A4.508,4.508,0,0,1,9.754-8.887a6.811,6.811,0,0,1,.605,2.949ZM7.984-5.945a4.787,4.787,0,0,0-.641-2.719,2.088,2.088,0,0,0-1.828-.93,2.088,2.088,0,0,0-1.82.918,4.732,4.732,0,0,0-.648,2.691v.555a4.847,4.847,0,0,0,.641,2.7,2.082,2.082,0,0,0,1.844.961,2.064,2.064,0,0,0,1.813-.926,4.819,4.819,0,0,0,.641-2.7Zm11.691,1.8A5.119,5.119,0,0,1,18.808-.98,2.872,2.872,0,0,1,16.386.156,2.639,2.639,0,0,1,14.191-.9l-.1.9H12.058V-12h2.258v4.3a2.571,2.571,0,0,1,2.055-.914A2.9,2.9,0,0,1,18.8-7.473a5.126,5.126,0,0,1,.879,3.2Zm-2.258-.172A3.381,3.381,0,0,0,17.011-6.2,1.372,1.372,0,0,0,15.8-6.789a1.489,1.489,0,0,0-1.484.885v3.346a1.509,1.509,0,0,0,1.5.893,1.4,1.4,0,0,0,1.438-1.081A5.6,5.6,0,0,0,17.417-4.321Zm6.2-4.133V.461a3.024,3.024,0,0,1-.742,2.176,2.821,2.821,0,0,1-2.141.777,4.591,4.591,0,0,1-1.117-.133V1.492a4.238,4.238,0,0,0,.711.07q1.023,0,1.023-1.086v-8.93Zm-2.445-2.187a1.112,1.112,0,0,1,.34-.836,1.277,1.277,0,0,1,.926-.328,1.277,1.277,0,0,1,.926.328,1.112,1.112,0,0,1,.34.836,1.108,1.108,0,0,1-.348.844,1.283,1.283,0,0,1-.918.328,1.283,1.283,0,0,1-.918-.328A1.108,1.108,0,0,1,21.171-10.641ZM29.433.156A4.15,4.15,0,0,1,26.405-.984a4.054,4.054,0,0,1-1.168-3.039v-.219A5.106,5.106,0,0,1,25.73-6.52a3.612,3.612,0,0,1,1.395-1.547,3.914,3.914,0,0,1,2.059-.543,3.508,3.508,0,0,1,2.73,1.094,4.444,4.444,0,0,1,1,3.1v.922H27.527a2.1,2.1,0,0,0,.66,1.328,2,2,0,0,0,1.395.5,2.437,2.437,0,0,0,2.039-.945L32.73-1.367A3.389,3.389,0,0,1,31.355-.246,4.511,4.511,0,0,1,29.433.156Zm-.258-6.945a1.411,1.411,0,0,0-1.09.455,2.357,2.357,0,0,0-.535,1.3h3.141v-.181a1.681,1.681,0,0,0-.406-1.165A1.456,1.456,0,0,0,29.175-6.789Zm7.863-3.742v2.078h1.445V-6.8H37.038v4.219a1.007,1.007,0,0,0,.18.672.9.9,0,0,0,.688.2,3.6,3.6,0,0,0,.664-.055V-.047a4.648,4.648,0,0,1-1.367.2,2.156,2.156,0,0,1-2.422-2.4V-6.8H33.546V-8.453H34.78v-2.078ZM42.284,0H40.018V-8.453h2.266Zm-2.4-10.641a1.112,1.112,0,0,1,.34-.836,1.277,1.277,0,0,1,.926-.328,1.28,1.28,0,0,1,.922.328,1.105,1.105,0,0,1,.344.836,1.108,1.108,0,0,1-.348.844,1.283,1.283,0,0,1-.918.328,1.283,1.283,0,0,1-.918-.328A1.108,1.108,0,0,1,39.885-10.641Zm7.566,7.883,1.57-5.7h2.359L48.529,0H46.373L43.521-8.453h2.359ZM54.9,0H52.634V-8.453H54.9ZM52.5-10.641a1.112,1.112,0,0,1,.34-.836,1.277,1.277,0,0,1,.926-.328,1.28,1.28,0,0,1,.922.328,1.105,1.105,0,0,1,.344.836,1.108,1.108,0,0,1-.348.844,1.283,1.283,0,0,1-.918.328,1.283,1.283,0,0,1-.918-.328A1.108,1.108,0,0,1,52.5-10.641Zm4.05,6.352a5.094,5.094,0,0,1,.887-3.148,2.877,2.877,0,0,1,2.426-1.172,2.589,2.589,0,0,1,2.039.922V-12h2.266V0H62.13L62.02-.9A2.657,2.657,0,0,1,59.848.156,2.869,2.869,0,0,1,57.454-1.02,5.258,5.258,0,0,1,56.552-4.289Zm2.258.161A3.355,3.355,0,0,0,59.223-2.3a1.348,1.348,0,0,0,1.2.636A1.51,1.51,0,0,0,61.9-2.551V-5.9a1.489,1.489,0,0,0-1.461-.887Q58.809-6.789,58.809-4.128ZM70.961,0a2.507,2.507,0,0,1-.227-.758A2.732,2.732,0,0,1,68.6.156a3,3,0,0,1-2.059-.719,2.312,2.312,0,0,1-.816-1.812,2.389,2.389,0,0,1,1-2.062A4.915,4.915,0,0,1,69.6-5.164h1.039v-.484a1.393,1.393,0,0,0-.3-.937,1.183,1.183,0,0,0-.949-.352,1.345,1.345,0,0,0-.895.273.929.929,0,0,0-.324.75H65.914a2.268,2.268,0,0,1,.453-1.359,3,3,0,0,1,1.281-.98,4.669,4.669,0,0,1,1.859-.355,3.689,3.689,0,0,1,2.48.785,2.747,2.747,0,0,1,.918,2.207v3.664a4.041,4.041,0,0,0,.336,1.82V0ZM69.094-1.57a1.945,1.945,0,0,0,.922-.223,1.462,1.462,0,0,0,.625-.6V-3.844H69.8q-1.7,0-1.8,1.172l-.008.133a.9.9,0,0,0,.3.7A1.153,1.153,0,0,0,69.094-1.57Zm5.339-2.719a5.094,5.094,0,0,1,.887-3.148,2.877,2.877,0,0,1,2.426-1.172,2.589,2.589,0,0,1,2.039.922V-12h2.266V0H80.011L79.9-.9A2.657,2.657,0,0,1,77.73.156,2.869,2.869,0,0,1,75.336-1.02,5.258,5.258,0,0,1,74.433-4.289Zm2.258.161A3.355,3.355,0,0,0,77.105-2.3a1.348,1.348,0,0,0,1.2.636,1.51,1.51,0,0,0,1.477-.887V-5.9a1.489,1.489,0,0,0-1.461-.887Q76.691-6.789,76.691-4.128Z" transform="translate(1169.82 -6425.635)" fill="#12263f"/>
      <path id="Rectangle_38296" data-name="Rectangle 38296" d="M8.736-.875H110.9a9.622,9.622,0,0,1,9.611,9.611V29.947a9.622,9.622,0,0,1-9.611,9.611H8.736A9.622,9.622,0,0,1-.875,29.947V8.736A9.622,9.622,0,0,1,8.736-.875ZM110.9,37.808a7.87,7.87,0,0,0,7.861-7.861V8.736A7.87,7.87,0,0,0,110.9.875H8.736A7.87,7.87,0,0,0,.875,8.736V29.947a7.87,7.87,0,0,0,7.861,7.861Z" transform="translate(1088.091 -6510.136)" fill="#c4fdff"/>
      <path id="Path_183785" data-name="Path 183785" d="M335.414,381.406H233.254a8.736,8.736,0,0,1-8.736-8.736V351.459a8.736,8.736,0,0,1,8.736-8.736h102.16a8.736,8.736,0,0,1,8.736,8.736V372.67a8.736,8.736,0,0,1-8.736,8.736" transform="translate(868 -6858)" fill="#c4fdff"/>
      <path id="Rectangle_38297" data-name="Rectangle 38297" d="M8.736-1.5H110.9A10.248,10.248,0,0,1,121.132,8.736V29.947A10.248,10.248,0,0,1,110.9,40.183H8.736A10.248,10.248,0,0,1-1.5,29.947V8.736A10.248,10.248,0,0,1,8.736-1.5ZM110.9,37.183a7.244,7.244,0,0,0,7.236-7.236V8.736A7.244,7.244,0,0,0,110.9,1.5H8.736A7.244,7.244,0,0,0,1.5,8.736V29.947a7.244,7.244,0,0,0,7.236,7.236Z" transform="translate(1092.518 -6515.276)" fill="#42e0e6"/>
      <path id="Path_184791" data-name="Path 184791" d="M5.227-4.164H3.359V0H1.016V-11.375H5.242a4.778,4.778,0,0,1,3.109.9A3.1,3.1,0,0,1,9.445-7.937,3.5,3.5,0,0,1,8.941-6,3.437,3.437,0,0,1,7.414-4.758L9.875-.109V0H7.359Zm-1.867-1.9H5.25a1.936,1.936,0,0,0,1.367-.449A1.606,1.606,0,0,0,7.1-7.75a1.719,1.719,0,0,0-.457-1.266,1.9,1.9,0,0,0-1.4-.461H3.359ZM15.113.156A4.15,4.15,0,0,1,12.085-.984a4.054,4.054,0,0,1-1.168-3.039v-.219A5.106,5.106,0,0,1,11.41-6.52,3.612,3.612,0,0,1,12.8-8.066a3.914,3.914,0,0,1,2.059-.543,3.508,3.508,0,0,1,2.73,1.094,4.444,4.444,0,0,1,1,3.1v.922H13.207a2.1,2.1,0,0,0,.66,1.328,2,2,0,0,0,1.395.5A2.437,2.437,0,0,0,17.3-2.609L18.41-1.367A3.389,3.389,0,0,1,17.035-.246,4.511,4.511,0,0,1,15.113.156Zm-.258-6.945a1.411,1.411,0,0,0-1.09.455,2.357,2.357,0,0,0-.535,1.3h3.141v-.181a1.681,1.681,0,0,0-.406-1.165A1.456,1.456,0,0,0,14.855-6.789ZM24.913,0a2.507,2.507,0,0,1-.227-.758,2.732,2.732,0,0,1-2.133.914A3,3,0,0,1,20.5-.562a2.312,2.312,0,0,1-.816-1.812,2.389,2.389,0,0,1,1-2.062,4.915,4.915,0,0,1,2.879-.727h1.039v-.484a1.393,1.393,0,0,0-.3-.937,1.183,1.183,0,0,0-.949-.352,1.345,1.345,0,0,0-.895.273.929.929,0,0,0-.324.75H19.866a2.268,2.268,0,0,1,.453-1.359,3,3,0,0,1,1.281-.98,4.669,4.669,0,0,1,1.859-.355,3.689,3.689,0,0,1,2.48.785,2.747,2.747,0,0,1,.918,2.207v3.664a4.041,4.041,0,0,0,.336,1.82V0ZM23.046-1.57a1.945,1.945,0,0,0,.922-.223,1.462,1.462,0,0,0,.625-.6V-3.844h-.844q-1.7,0-1.8,1.172l-.008.133a.9.9,0,0,0,.3.7A1.153,1.153,0,0,0,23.046-1.57ZM31.119,0H28.854V-12h2.266Zm4.386,0H33.24V-8.453h2.266Zm-2.4-10.641a1.112,1.112,0,0,1,.34-.836,1.277,1.277,0,0,1,.926-.328,1.28,1.28,0,0,1,.922.328,1.105,1.105,0,0,1,.344.836,1.108,1.108,0,0,1-.348.844,1.283,1.283,0,0,1-.918.328,1.283,1.283,0,0,1-.918-.328A1.108,1.108,0,0,1,33.107-10.641Zm7,8.82h4.133V0H37.22V-1.375L41.2-6.633H37.337v-1.82h6.773v1.33ZM50.708,0a2.507,2.507,0,0,1-.227-.758,2.732,2.732,0,0,1-2.133.914A3,3,0,0,1,46.29-.562a2.312,2.312,0,0,1-.816-1.812,2.389,2.389,0,0,1,1-2.062,4.915,4.915,0,0,1,2.879-.727h1.039v-.484a1.393,1.393,0,0,0-.3-.937,1.183,1.183,0,0,0-.949-.352,1.345,1.345,0,0,0-.895.273.929.929,0,0,0-.324.75H45.661a2.268,2.268,0,0,1,.453-1.359,3,3,0,0,1,1.281-.98,4.669,4.669,0,0,1,1.859-.355,3.689,3.689,0,0,1,2.48.785,2.747,2.747,0,0,1,.918,2.207v3.664a4.041,4.041,0,0,0,.336,1.82V0ZM48.841-1.57a1.945,1.945,0,0,0,.922-.223,1.462,1.462,0,0,0,.625-.6V-3.844h-.844q-1.7,0-1.8,1.172l-.008.133a.9.9,0,0,0,.3.7A1.153,1.153,0,0,0,48.841-1.57Zm9.207-.094a1.481,1.481,0,0,0,1.016-.344,1.2,1.2,0,0,0,.406-.914h2.117a2.9,2.9,0,0,1-.469,1.574A3.093,3.093,0,0,1,59.856-.238a3.949,3.949,0,0,1-1.77.395A3.67,3.67,0,0,1,55.227-1,4.56,4.56,0,0,1,54.18-4.18v-.148a4.508,4.508,0,0,1,1.039-3.117,3.627,3.627,0,0,1,2.852-1.164,3.555,3.555,0,0,1,2.543.9,3.2,3.2,0,0,1,.973,2.4H59.469a1.551,1.551,0,0,0-.406-1.072,1.354,1.354,0,0,0-1.031-.412,1.36,1.36,0,0,0-1.191.575,3.333,3.333,0,0,0-.4,1.866v.235a3.375,3.375,0,0,0,.4,1.878A1.377,1.377,0,0,0,58.047-1.664ZM65.4,0H63.137V-8.453H65.4ZM63-10.641a1.112,1.112,0,0,1,.34-.836,1.277,1.277,0,0,1,.926-.328,1.28,1.28,0,0,1,.922.328,1.105,1.105,0,0,1,.344.836,1.108,1.108,0,0,1-.348.844,1.283,1.283,0,0,1-.918.328,1.283,1.283,0,0,1-.918-.328A1.108,1.108,0,0,1,63-10.641ZM67.054-4.3a5.013,5.013,0,0,1,.484-2.242A3.546,3.546,0,0,1,68.933-8.07a4.069,4.069,0,0,1,2.113-.539,3.849,3.849,0,0,1,2.793,1.047,4.2,4.2,0,0,1,1.207,2.844l.016.578A4.418,4.418,0,0,1,73.976-1.02,3.775,3.775,0,0,1,71.062.156a3.793,3.793,0,0,1-2.918-1.172A4.5,4.5,0,0,1,67.054-4.2Zm2.258.16A3.16,3.16,0,0,0,69.765-2.3a1.5,1.5,0,0,0,1.3.638,1.5,1.5,0,0,0,1.281-.63A3.457,3.457,0,0,0,72.8-4.309a3.128,3.128,0,0,0-.461-1.831,1.5,1.5,0,0,0-1.3-.649,1.474,1.474,0,0,0-1.281.646A3.516,3.516,0,0,0,69.312-4.144ZM71.492-12h2.461L71.789-9.578H69.953Zm7.183,3.547.07.977a2.951,2.951,0,0,1,2.43-1.133,2.453,2.453,0,0,1,2,.789,3.682,3.682,0,0,1,.672,2.359V0H81.589V-5.419a1.47,1.47,0,0,0-.312-1.045,1.4,1.4,0,0,0-1.039-.325,1.553,1.553,0,0,0-1.43.814V0H76.55V-8.453Z" transform="translate(1109.838 -6491.259)" fill="#12263f"/>
      <path id="Rectangle_38299" data-name="Rectangle 38299" d="M8.736-.875H110.9a9.622,9.622,0,0,1,9.611,9.611V29.947a9.622,9.622,0,0,1-9.611,9.611H8.736A9.622,9.622,0,0,1-.875,29.947V8.736A9.622,9.622,0,0,1,8.736-.875ZM110.9,37.808a7.87,7.87,0,0,0,7.861-7.861V8.736A7.87,7.87,0,0,0,110.9.875H8.736A7.87,7.87,0,0,0,.875,8.736V29.947a7.87,7.87,0,0,0,7.861,7.861Z" transform="translate(1060.796 -6585.247)" fill="#c4fdff"/>
      <path id="Path_183786" data-name="Path 183786" d="M308.119,306.3H205.959a8.736,8.736,0,0,1-8.736-8.736V276.348a8.736,8.736,0,0,1,8.736-8.736h102.16a8.736,8.736,0,0,1,8.736,8.736v21.211a8.736,8.736,0,0,1-8.736,8.736" transform="translate(868 -6858)" fill="#c4fdff"/>
      <path id="Rectangle_38300" data-name="Rectangle 38300" d="M8.736-1.5H110.9A10.248,10.248,0,0,1,121.132,8.736V29.947A10.248,10.248,0,0,1,110.9,40.183H8.736A10.248,10.248,0,0,1-1.5,29.947V8.736A10.248,10.248,0,0,1,8.736-1.5ZM110.9,37.183a7.244,7.244,0,0,0,7.236-7.236V8.736A7.244,7.244,0,0,0,110.9,1.5H8.736A7.244,7.244,0,0,0,1.5,8.736V29.947a7.244,7.244,0,0,0,7.236,7.236Z" transform="translate(1065.223 -6590.388)" fill="#42e0e6"/>
      <path id="Path_184790" data-name="Path 184790" d="M3.359-4.008V0H1.016V-11.375H5.453a5.134,5.134,0,0,1,2.254.469A3.454,3.454,0,0,1,9.2-9.574a3.714,3.714,0,0,1,.523,1.965A3.266,3.266,0,0,1,8.582-4.973a4.767,4.767,0,0,1-3.168.965Zm0-1.9H5.453a2.059,2.059,0,0,0,1.418-.437,1.591,1.591,0,0,0,.488-1.25,1.876,1.876,0,0,0-.492-1.352,1.839,1.839,0,0,0-1.359-.531H3.359Zm12.722-.43a6.134,6.134,0,0,0-.813-.062,1.654,1.654,0,0,0-1.68.867V0H11.332V-8.453h2.133l.063,1.008A2.092,2.092,0,0,1,15.41-8.609a2.366,2.366,0,0,1,.7.1ZM22.39-.859A2.831,2.831,0,0,1,20.077.156,2.67,2.67,0,0,1,18-.625a3.335,3.335,0,0,1-.73-2.289V-8.453h2.258v5.467q0,1.322,1.2,1.322a1.63,1.63,0,0,0,1.578-.8V-8.453h2.266V0H22.452Zm3.7-3.43a5.094,5.094,0,0,1,.887-3.148A2.877,2.877,0,0,1,29.4-8.609a2.589,2.589,0,0,1,2.039.922V-12h2.266V0H31.667l-.109-.9A2.657,2.657,0,0,1,29.386.156,2.869,2.869,0,0,1,26.991-1.02,5.258,5.258,0,0,1,26.089-4.289Zm2.258.161A3.355,3.355,0,0,0,28.761-2.3a1.348,1.348,0,0,0,1.2.636,1.51,1.51,0,0,0,1.477-.887V-5.9a1.489,1.489,0,0,0-1.461-.887Q28.347-6.789,28.347-4.128ZM39.491.156A4.15,4.15,0,0,1,36.463-.984,4.054,4.054,0,0,1,35.3-4.023v-.219a5.106,5.106,0,0,1,.492-2.277,3.612,3.612,0,0,1,1.395-1.547,3.914,3.914,0,0,1,2.059-.543,3.508,3.508,0,0,1,2.73,1.094,4.444,4.444,0,0,1,1,3.1v.922H37.585a2.1,2.1,0,0,0,.66,1.328,2,2,0,0,0,1.395.5,2.437,2.437,0,0,0,2.039-.945l1.109,1.242A3.389,3.389,0,0,1,41.413-.246,4.511,4.511,0,0,1,39.491.156Zm-.258-6.945a1.411,1.411,0,0,0-1.09.455,2.357,2.357,0,0,0-.535,1.3h3.141v-.181a1.681,1.681,0,0,0-.406-1.165A1.456,1.456,0,0,0,39.233-6.789Zm7.254-1.664.07.977a2.951,2.951,0,0,1,2.43-1.133,2.453,2.453,0,0,1,2,.789,3.682,3.682,0,0,1,.672,2.359V0H49.4V-5.419a1.47,1.47,0,0,0-.312-1.045,1.4,1.4,0,0,0-1.039-.325,1.553,1.553,0,0,0-1.43.814V0H44.362V-8.453ZM57.029-1.664a1.481,1.481,0,0,0,1.016-.344,1.2,1.2,0,0,0,.406-.914h2.117A2.9,2.9,0,0,1,60.1-1.348,3.093,3.093,0,0,1,58.838-.238a3.949,3.949,0,0,1-1.77.395A3.67,3.67,0,0,1,54.209-1,4.56,4.56,0,0,1,53.162-4.18v-.148A4.508,4.508,0,0,1,54.2-7.445a3.627,3.627,0,0,1,2.852-1.164,3.555,3.555,0,0,1,2.543.9,3.2,3.2,0,0,1,.973,2.4H58.451a1.551,1.551,0,0,0-.406-1.072,1.354,1.354,0,0,0-1.031-.412,1.36,1.36,0,0,0-1.191.575,3.333,3.333,0,0,0-.4,1.866v.235a3.375,3.375,0,0,0,.4,1.878A1.377,1.377,0,0,0,57.029-1.664ZM64.384,0H62.119V-8.453h2.266Zm-2.4-10.641a1.112,1.112,0,0,1,.34-.836,1.277,1.277,0,0,1,.926-.328,1.28,1.28,0,0,1,.922.328,1.105,1.105,0,0,1,.344.836,1.108,1.108,0,0,1-.348.844,1.283,1.283,0,0,1-.918.328,1.283,1.283,0,0,1-.918-.328A1.108,1.108,0,0,1,61.986-10.641ZM71.286,0a2.507,2.507,0,0,1-.227-.758,2.732,2.732,0,0,1-2.133.914,3,3,0,0,1-2.059-.719,2.312,2.312,0,0,1-.816-1.812,2.389,2.389,0,0,1,1-2.062,4.915,4.915,0,0,1,2.879-.727h1.039v-.484a1.393,1.393,0,0,0-.3-.937,1.183,1.183,0,0,0-.949-.352,1.345,1.345,0,0,0-.895.273.929.929,0,0,0-.324.75H66.239a2.268,2.268,0,0,1,.453-1.359,3,3,0,0,1,1.281-.98,4.669,4.669,0,0,1,1.859-.355,3.689,3.689,0,0,1,2.48.785,2.747,2.747,0,0,1,.918,2.207v3.664a4.041,4.041,0,0,0,.336,1.82V0ZM69.419-1.57a1.945,1.945,0,0,0,.922-.223,1.462,1.462,0,0,0,.625-.6V-3.844h-.844q-1.7,0-1.8,1.172l-.008.133a.9.9,0,0,0,.3.7A1.153,1.153,0,0,0,69.419-1.57Z" transform="translate(1087.871 -6566.37)" fill="#12263f"/>
      <path id="Rectangle_38302" data-name="Rectangle 38302" d="M8.736-.875H110.9a9.622,9.622,0,0,1,9.611,9.611V29.947a9.622,9.622,0,0,1-9.611,9.611H8.736A9.622,9.622,0,0,1-.875,29.947V8.736A9.622,9.622,0,0,1,8.736-.875ZM110.9,37.808a7.87,7.87,0,0,0,7.861-7.861V8.736A7.87,7.87,0,0,0,110.9.875H8.736A7.87,7.87,0,0,0,.875,8.736V29.947a7.87,7.87,0,0,0,7.861,7.861Z" transform="translate(1070.036 -6673.068)" fill="#c4fdff"/>
      <path id="Path_183787" data-name="Path 183787" d="M317.359,218.474H215.2a8.736,8.736,0,0,1-8.736-8.736V188.527a8.736,8.736,0,0,1,8.736-8.736h102.16a8.736,8.736,0,0,1,8.736,8.736v21.211a8.736,8.736,0,0,1-8.736,8.736" transform="translate(868 -6858)" fill="#c4fdff"/>
      <path id="Rectangle_38303" data-name="Rectangle 38303" d="M8.736-1.5H110.9A10.248,10.248,0,0,1,121.132,8.736V29.947A10.248,10.248,0,0,1,110.9,40.183H8.736A10.248,10.248,0,0,1-1.5,29.947V8.736A10.248,10.248,0,0,1,8.736-1.5ZM110.9,37.183a7.244,7.244,0,0,0,7.236-7.236V8.736A7.244,7.244,0,0,0,110.9,1.5H8.736A7.244,7.244,0,0,0,1.5,8.736V29.947a7.244,7.244,0,0,0,7.236,7.236Z" transform="translate(1074.463 -6678.209)" fill="#42e0e6"/>
      <path id="Path_184789" data-name="Path 184789" d="M9.625-11.375v7.492A3.836,3.836,0,0,1,8.457-.93,4.5,4.5,0,0,1,5.266.156,4.553,4.553,0,0,1,2.1-.9a3.77,3.77,0,0,1-1.2-2.9v-7.578H3.25v7.508a2.167,2.167,0,0,0,.535,1.629,2.054,2.054,0,0,0,1.48.512q1.977,0,2.008-2.078v-7.57Zm4,2.922.07.977a2.951,2.951,0,0,1,2.43-1.133,2.453,2.453,0,0,1,2,.789,3.682,3.682,0,0,1,.672,2.359V0H16.535V-5.419a1.47,1.47,0,0,0-.312-1.045,1.4,1.4,0,0,0-1.039-.325,1.553,1.553,0,0,0-1.43.814V0H11.5V-8.453ZM23.03,0H20.765V-8.453H23.03Zm-2.4-10.641a1.112,1.112,0,0,1,.34-.836A1.277,1.277,0,0,1,21.9-11.8a1.28,1.28,0,0,1,.922.328,1.105,1.105,0,0,1,.344.836,1.108,1.108,0,0,1-.348.844,1.283,1.283,0,0,1-.918.328,1.283,1.283,0,0,1-.918-.328A1.108,1.108,0,0,1,20.632-10.641ZM25.651,0V-6.8H24.393V-8.453h1.258v-.719a2.918,2.918,0,0,1,.816-2.207,3.162,3.162,0,0,1,2.285-.785,5.321,5.321,0,0,1,1.148.155l-.023,1.736a2.878,2.878,0,0,0-.687-.07q-1.273,0-1.273,1.205v.685H29.6V-6.8h-1.68V0Zm4.91-4.3a5.013,5.013,0,0,1,.484-2.242A3.546,3.546,0,0,1,32.439-8.07a4.069,4.069,0,0,1,2.113-.539,3.849,3.849,0,0,1,2.793,1.047,4.2,4.2,0,0,1,1.207,2.844l.016.578A4.418,4.418,0,0,1,37.482-1.02,3.775,3.775,0,0,1,34.568.156,3.793,3.793,0,0,1,31.65-1.016,4.5,4.5,0,0,1,30.56-4.2Zm2.258.16A3.16,3.16,0,0,0,33.271-2.3a1.5,1.5,0,0,0,1.3.638,1.5,1.5,0,0,0,1.281-.63,3.457,3.457,0,0,0,.461-2.015,3.128,3.128,0,0,0-.461-1.831,1.5,1.5,0,0,0-1.3-.649,1.474,1.474,0,0,0-1.281.646A3.516,3.516,0,0,0,32.818-4.144ZM44.853-6.336A6.134,6.134,0,0,0,44.04-6.4a1.654,1.654,0,0,0-1.68.867V0H40.1V-8.453h2.133L42.3-7.445a2.092,2.092,0,0,1,1.883-1.164,2.366,2.366,0,0,1,.7.1Zm3.363-2.117.07.945a2.971,2.971,0,0,1,2.43-1.1A2.255,2.255,0,0,1,52.958-7.32,2.9,2.9,0,0,1,55.5-8.609a2.521,2.521,0,0,1,2.047.8,3.681,3.681,0,0,1,.672,2.41V0H55.95V-5.4a1.616,1.616,0,0,0-.281-1.053,1.245,1.245,0,0,0-.992-.333,1.409,1.409,0,0,0-1.406.971L53.278,0H51.021V-5.4a1.6,1.6,0,0,0-.289-1.065,1.257,1.257,0,0,0-.984-.329,1.463,1.463,0,0,0-1.391.8V0H46.1V-8.453ZM62.493,0H60.228V-8.453h2.266Zm-2.4-10.641a1.112,1.112,0,0,1,.34-.836,1.277,1.277,0,0,1,.926-.328,1.28,1.28,0,0,1,.922.328,1.105,1.105,0,0,1,.344.836,1.108,1.108,0,0,1-.348.844,1.283,1.283,0,0,1-.918.328,1.283,1.283,0,0,1-.918-.328A1.108,1.108,0,0,1,60.095-10.641Zm4.05,6.352a5.094,5.094,0,0,1,.887-3.148,2.877,2.877,0,0,1,2.426-1.172,2.589,2.589,0,0,1,2.039.922V-12h2.266V0H69.723l-.109-.9A2.657,2.657,0,0,1,67.442.156,2.869,2.869,0,0,1,65.047-1.02,5.258,5.258,0,0,1,64.145-4.289Zm2.258.161A3.355,3.355,0,0,0,66.817-2.3a1.348,1.348,0,0,0,1.2.636A1.51,1.51,0,0,0,69.5-2.551V-5.9a1.489,1.489,0,0,0-1.461-.887Q66.4-6.789,66.4-4.128ZM78.555,0a2.507,2.507,0,0,1-.227-.758A2.732,2.732,0,0,1,76.2.156a3,3,0,0,1-2.059-.719,2.312,2.312,0,0,1-.816-1.812,2.389,2.389,0,0,1,1-2.062A4.915,4.915,0,0,1,77.2-5.164h1.039v-.484a1.393,1.393,0,0,0-.3-.937,1.183,1.183,0,0,0-.949-.352,1.345,1.345,0,0,0-.895.273.929.929,0,0,0-.324.75H73.508a2.268,2.268,0,0,1,.453-1.359,3,3,0,0,1,1.281-.98A4.669,4.669,0,0,1,77.1-8.609a3.689,3.689,0,0,1,2.48.785A2.747,2.747,0,0,1,80.5-5.617v3.664a4.041,4.041,0,0,0,.336,1.82V0ZM76.687-1.57a1.945,1.945,0,0,0,.922-.223,1.462,1.462,0,0,0,.625-.6V-3.844h-.844q-1.7,0-1.8,1.172l-.008.133a.9.9,0,0,0,.3.7A1.153,1.153,0,0,0,76.687-1.57Zm5.339-2.719a5.094,5.094,0,0,1,.887-3.148,2.877,2.877,0,0,1,2.426-1.172,2.589,2.589,0,0,1,2.039.922V-12h2.266V0H87.6L87.5-.9A2.657,2.657,0,0,1,85.324.156,2.869,2.869,0,0,1,82.929-1.02,5.258,5.258,0,0,1,82.027-4.289Zm2.258.161A3.355,3.355,0,0,0,84.7-2.3a1.348,1.348,0,0,0,1.2.636,1.51,1.51,0,0,0,1.477-.887V-5.9a1.489,1.489,0,0,0-1.461-.887Q84.285-6.789,84.285-4.128Z" transform="translate(1088.873 -6654.19)" fill="#12263f"/>
      <path id="Rectangle_38305" data-name="Rectangle 38305" d="M8.736-.875H110.9a9.622,9.622,0,0,1,9.611,9.611V29.947a9.622,9.622,0,0,1-9.611,9.611H8.736A9.622,9.622,0,0,1-.875,29.947V8.736A9.622,9.622,0,0,1,8.736-.875ZM110.9,37.808a7.87,7.87,0,0,0,7.861-7.861V8.736A7.87,7.87,0,0,0,110.9.875H8.736A7.87,7.87,0,0,0,.875,8.736V29.947a7.87,7.87,0,0,0,7.861,7.861Z" transform="translate(1114.179 -6749.54)" fill="#c4fdff"/>
      <path id="Path_183788" data-name="Path 183788" d="M361.5,142H259.342a8.736,8.736,0,0,1-8.736-8.736V112.055a8.736,8.736,0,0,1,8.736-8.736H361.5a8.735,8.735,0,0,1,8.735,8.736v21.211A8.735,8.735,0,0,1,361.5,142" transform="translate(868 -6858)" fill="#c4fdff"/>
      <path id="Rectangle_38306" data-name="Rectangle 38306" d="M8.736-1.5H110.9A10.248,10.248,0,0,1,121.132,8.736V29.947A10.248,10.248,0,0,1,110.9,40.183H8.736A10.248,10.248,0,0,1-1.5,29.947V8.736A10.248,10.248,0,0,1,8.736-1.5ZM110.9,37.183a7.244,7.244,0,0,0,7.236-7.236V8.736A7.244,7.244,0,0,0,110.9,1.5H8.736A7.244,7.244,0,0,0,1.5,8.736V29.947a7.244,7.244,0,0,0,7.236,7.236Z" transform="translate(1118.606 -6754.681)" fill="#42e0e6"/>
      <path id="Path_184788" data-name="Path 184788" d="M6.914-2.984A1.2,1.2,0,0,0,6.445-4a6.148,6.148,0,0,0-1.687-.75,11.963,11.963,0,0,1-1.93-.777A3.153,3.153,0,0,1,.891-8.352,2.747,2.747,0,0,1,1.41-10,3.389,3.389,0,0,1,2.9-11.125a5.616,5.616,0,0,1,2.184-.406,5.112,5.112,0,0,1,2.172.441,3.458,3.458,0,0,1,1.48,1.246,3.261,3.261,0,0,1,.527,1.828H6.922A1.534,1.534,0,0,0,6.43-9.23a2.023,2.023,0,0,0-1.383-.434A2.162,2.162,0,0,0,3.711-9.3a1.146,1.146,0,0,0-.477.957,1.1,1.1,0,0,0,.559.93,6.311,6.311,0,0,0,1.645.7A7.106,7.106,0,0,1,8.352-5.219,2.972,2.972,0,0,1,9.266-3,2.737,2.737,0,0,1,8.148-.684a4.891,4.891,0,0,1-3.008.84A5.808,5.808,0,0,1,2.75-.324,3.783,3.783,0,0,1,1.105-1.641,3.371,3.371,0,0,1,.539-3.578H2.891q0,1.883,2.25,1.883a2.189,2.189,0,0,0,1.3-.34A1.106,1.106,0,0,0,6.914-2.984ZM13.246,0H10.98V-8.453h2.266Zm-2.4-10.641a1.112,1.112,0,0,1,.34-.836,1.277,1.277,0,0,1,.926-.328,1.28,1.28,0,0,1,.922.328,1.105,1.105,0,0,1,.344.836,1.108,1.108,0,0,1-.348.844,1.283,1.283,0,0,1-.918.328A1.283,1.283,0,0,1,11.2-9.8,1.108,1.108,0,0,1,10.847-10.641Zm4.074,6.352a4.954,4.954,0,0,1,.926-3.133,3,3,0,0,1,2.5-1.187,2.631,2.631,0,0,1,2.164.953l.094-.8h2.047V-.281a3.613,3.613,0,0,1-.5,1.93A3.236,3.236,0,0,1,20.726,2.9a4.985,4.985,0,0,1-2.141.43,4.635,4.635,0,0,1-1.812-.371A3.217,3.217,0,0,1,15.437,2l1-1.375a2.645,2.645,0,0,0,2.047.945,1.936,1.936,0,0,0,1.4-.48,1.8,1.8,0,0,0,.5-1.363V-.727a2.612,2.612,0,0,1-2.055.883,2.992,2.992,0,0,1-2.465-1.191,4.953,4.953,0,0,1-.941-3.16Zm2.258.161a3.1,3.1,0,0,0,.461,1.809,1.465,1.465,0,0,0,1.266.655,1.567,1.567,0,0,0,1.477-.777V-6.012a1.563,1.563,0,0,0-1.461-.777,1.474,1.474,0,0,0-1.277.667A3.5,3.5,0,0,0,17.179-4.128ZM26.62-8.453l.07.977a2.951,2.951,0,0,1,2.43-1.133,2.453,2.453,0,0,1,2,.789,3.682,3.682,0,0,1,.672,2.359V0H29.534V-5.419a1.47,1.47,0,0,0-.312-1.045,1.4,1.4,0,0,0-1.039-.325,1.553,1.553,0,0,0-1.43.814V0H24.5V-8.453ZM36.03,0H33.764V-8.453H36.03Zm-2.4-10.641a1.112,1.112,0,0,1,.34-.836A1.277,1.277,0,0,1,34.9-11.8a1.28,1.28,0,0,1,.922.328,1.105,1.105,0,0,1,.344.836,1.108,1.108,0,0,1-.348.844,1.283,1.283,0,0,1-.918.328,1.283,1.283,0,0,1-.918-.328A1.108,1.108,0,0,1,33.631-10.641ZM38.58,0V-6.8H37.322V-8.453H38.58v-.391a3.17,3.17,0,0,1,.98-2.457,3.945,3.945,0,0,1,2.723-.863,9.031,9.031,0,0,1,2.563.461l-.328,1.867a10,10,0,0,0-1.187-.293,5.835,5.835,0,0,0-.906-.066q-1.578,0-1.578,1.4v.344H42.51V-6.8H40.846V0ZM45.9,0H43.635V-8.453H45.9Zm5.527-1.664a1.481,1.481,0,0,0,1.016-.344,1.2,1.2,0,0,0,.406-.914h2.117A2.9,2.9,0,0,1,54.5-1.348,3.093,3.093,0,0,1,53.236-.238a3.949,3.949,0,0,1-1.77.395A3.67,3.67,0,0,1,48.607-1,4.56,4.56,0,0,1,47.56-4.18v-.148A4.508,4.508,0,0,1,48.6-7.445a3.627,3.627,0,0,1,2.852-1.164,3.555,3.555,0,0,1,2.543.9,3.2,3.2,0,0,1,.973,2.4H52.849a1.551,1.551,0,0,0-.406-1.072,1.354,1.354,0,0,0-1.031-.412,1.36,1.36,0,0,0-1.191.575,3.333,3.333,0,0,0-.4,1.866v.235a3.375,3.375,0,0,0,.4,1.878A1.377,1.377,0,0,0,51.427-1.664ZM61.3,0a2.507,2.507,0,0,1-.227-.758,2.732,2.732,0,0,1-2.133.914A3,3,0,0,1,56.88-.562a2.312,2.312,0,0,1-.816-1.812,2.389,2.389,0,0,1,1-2.062,4.915,4.915,0,0,1,2.879-.727h1.039v-.484a1.393,1.393,0,0,0-.3-.937,1.183,1.183,0,0,0-.949-.352,1.345,1.345,0,0,0-.895.273.929.929,0,0,0-.324.75H56.251A2.268,2.268,0,0,1,56.7-7.273a3,3,0,0,1,1.281-.98,4.669,4.669,0,0,1,1.859-.355,3.689,3.689,0,0,1,2.48.785,2.747,2.747,0,0,1,.918,2.207v3.664a4.041,4.041,0,0,0,.336,1.82V0ZM59.431-1.57a1.945,1.945,0,0,0,.922-.223,1.462,1.462,0,0,0,.625-.6V-3.844h-.844q-1.7,0-1.8,1.172l-.008.133a.9.9,0,0,0,.3.7A1.153,1.153,0,0,0,59.431-1.57ZM67.2-8.453l.07.977A2.951,2.951,0,0,1,69.7-8.609a2.453,2.453,0,0,1,2,.789,3.682,3.682,0,0,1,.672,2.359V0H70.114V-5.419A1.47,1.47,0,0,0,69.8-6.464a1.4,1.4,0,0,0-1.039-.325,1.553,1.553,0,0,0-1.43.814V0H65.075V-8.453ZM77.742-1.664a1.481,1.481,0,0,0,1.016-.344,1.2,1.2,0,0,0,.406-.914h2.117a2.9,2.9,0,0,1-.469,1.574A3.093,3.093,0,0,1,79.551-.238a3.949,3.949,0,0,1-1.77.395A3.67,3.67,0,0,1,74.922-1,4.56,4.56,0,0,1,73.875-4.18v-.148a4.508,4.508,0,0,1,1.039-3.117,3.627,3.627,0,0,1,2.852-1.164,3.555,3.555,0,0,1,2.543.9,3.2,3.2,0,0,1,.973,2.4H79.164a1.551,1.551,0,0,0-.406-1.072,1.354,1.354,0,0,0-1.031-.412,1.36,1.36,0,0,0-1.191.575,3.333,3.333,0,0,0-.4,1.866v.235a3.375,3.375,0,0,0,.4,1.878A1.377,1.377,0,0,0,77.742-1.664ZM85.1,0H82.831V-8.453H85.1ZM82.7-10.641a1.112,1.112,0,0,1,.34-.836,1.277,1.277,0,0,1,.926-.328,1.28,1.28,0,0,1,.922.328,1.105,1.105,0,0,1,.344.836,1.108,1.108,0,0,1-.348.844,1.283,1.283,0,0,1-.918.328,1.283,1.283,0,0,1-.918-.328A1.108,1.108,0,0,1,82.7-10.641ZM92,0a2.507,2.507,0,0,1-.227-.758,2.732,2.732,0,0,1-2.133.914,3,3,0,0,1-2.059-.719,2.312,2.312,0,0,1-.816-1.812,2.389,2.389,0,0,1,1-2.062,4.915,4.915,0,0,1,2.879-.727h1.039v-.484a1.393,1.393,0,0,0-.3-.937,1.183,1.183,0,0,0-.949-.352,1.345,1.345,0,0,0-.895.273.929.929,0,0,0-.324.75H86.952a2.268,2.268,0,0,1,.453-1.359,3,3,0,0,1,1.281-.98,4.669,4.669,0,0,1,1.859-.355,3.689,3.689,0,0,1,2.48.785,2.747,2.747,0,0,1,.918,2.207v3.664a4.041,4.041,0,0,0,.336,1.82V0ZM90.132-1.57a1.945,1.945,0,0,0,.922-.223,1.462,1.462,0,0,0,.625-.6V-3.844h-.844q-1.7,0-1.8,1.172l-.008.133a.9.9,0,0,0,.3.7A1.153,1.153,0,0,0,90.132-1.57Z" transform="translate(1130.664 -6730.663)" fill="#12263f"/>
      <path id="Rectangle_38308" data-name="Rectangle 38308" d="M8.736-.875H110.9a9.622,9.622,0,0,1,9.611,9.611V29.947a9.622,9.622,0,0,1-9.611,9.611H8.736A9.622,9.622,0,0,1-.875,29.947V8.736A9.622,9.622,0,0,1,8.736-.875ZM110.9,37.808a7.87,7.87,0,0,0,7.861-7.861V8.736A7.87,7.87,0,0,0,110.9.875H8.736A7.87,7.87,0,0,0,.875,8.736V29.947a7.87,7.87,0,0,0,7.861,7.861Z" transform="translate(1185.616 -6810.308)" fill="#c4fdff"/>
      <path id="Path_183789" data-name="Path 183789" d="M432.939,81.234H330.779a8.736,8.736,0,0,1-8.736-8.736V51.287a8.736,8.736,0,0,1,8.736-8.736h102.16a8.736,8.736,0,0,1,8.736,8.736V72.5a8.736,8.736,0,0,1-8.736,8.736" transform="translate(868 -6858)" fill="#c4fdff"/>
      <path id="Rectangle_38309" data-name="Rectangle 38309" d="M8.736-1.5H110.9A10.248,10.248,0,0,1,121.132,8.736V29.947A10.248,10.248,0,0,1,110.9,40.183H8.736A10.248,10.248,0,0,1-1.5,29.947V8.736A10.248,10.248,0,0,1,8.736-1.5ZM110.9,37.183a7.244,7.244,0,0,0,7.236-7.236V8.736A7.244,7.244,0,0,0,110.9,1.5H8.736A7.244,7.244,0,0,0,1.5,8.736V29.947a7.244,7.244,0,0,0,7.236,7.236Z" transform="translate(1190.043 -6815.449)" fill="#42e0e6"/>
      <path id="Path_184787" data-name="Path 184787" d="M7.859-4.945h-4.5v3.063H8.641V0H1.016V-11.375H8.625v1.9H3.359v2.711h4.5Zm5.387-.984,1.422-2.523h2.414L14.676-4.312,17.183,0H14.762L13.254-2.656,11.754,0H9.324l2.508-4.312-2.4-4.141h2.422ZM25.937-4.148A5.07,5.07,0,0,1,25.05-1.02,2.843,2.843,0,0,1,22.656.156a2.633,2.633,0,0,1-2.07-.891V3.25H18.328v-11.7h2.094l.078.828a2.654,2.654,0,0,1,2.141-.984,2.862,2.862,0,0,1,2.43,1.156,5.207,5.207,0,0,1,.867,3.188Zm-2.258-.172a3.345,3.345,0,0,0-.418-1.826,1.36,1.36,0,0,0-1.215-.643,1.478,1.478,0,0,0-1.461.815V-2.5a1.5,1.5,0,0,0,1.477.839Q23.679-1.664,23.679-4.321Zm3.465.016a5.013,5.013,0,0,1,.484-2.242A3.546,3.546,0,0,1,29.023-8.07a4.069,4.069,0,0,1,2.113-.539,3.849,3.849,0,0,1,2.793,1.047,4.2,4.2,0,0,1,1.207,2.844l.016.578A4.418,4.418,0,0,1,34.066-1.02,3.775,3.775,0,0,1,31.152.156a3.793,3.793,0,0,1-2.918-1.172A4.5,4.5,0,0,1,27.144-4.2Zm2.258.16A3.16,3.16,0,0,0,29.855-2.3a1.5,1.5,0,0,0,1.3.638,1.5,1.5,0,0,0,1.281-.63,3.457,3.457,0,0,0,.461-2.015,3.128,3.128,0,0,0-.461-1.831,1.5,1.5,0,0,0-1.3-.649,1.474,1.474,0,0,0-1.281.646A3.516,3.516,0,0,0,29.4-4.144ZM41.265-2.336a.727.727,0,0,0-.41-.652,4.659,4.659,0,0,0-1.316-.426q-3.016-.633-3.016-2.562a2.323,2.323,0,0,1,.934-1.879A3.766,3.766,0,0,1,39.9-8.609a4.053,4.053,0,0,1,2.574.758,2.388,2.388,0,0,1,.965,1.969H41.179a1.092,1.092,0,0,0-.312-.8A1.322,1.322,0,0,0,39.89-7a1.351,1.351,0,0,0-.883.258.814.814,0,0,0-.312.656.7.7,0,0,0,.355.605,3.657,3.657,0,0,0,1.2.4,9.8,9.8,0,0,1,1.422.379A2.336,2.336,0,0,1,43.46-2.43a2.2,2.2,0,0,1-.992,1.871,4.28,4.28,0,0,1-2.562.715,4.47,4.47,0,0,1-1.887-.379,3.166,3.166,0,0,1-1.293-1.039,2.414,2.414,0,0,1-.469-1.426H38.4a1.179,1.179,0,0,0,.445.922,1.766,1.766,0,0,0,1.109.32,1.635,1.635,0,0,0,.98-.246A.766.766,0,0,0,41.265-2.336ZM47.44,0H45.174V-8.453H47.44Zm-2.4-10.641a1.112,1.112,0,0,1,.34-.836,1.277,1.277,0,0,1,.926-.328,1.28,1.28,0,0,1,.922.328,1.105,1.105,0,0,1,.344.836,1.108,1.108,0,0,1-.348.844,1.283,1.283,0,0,1-.918.328,1.283,1.283,0,0,1-.918-.328A1.108,1.108,0,0,1,45.041-10.641Zm7.917,8.977a1.481,1.481,0,0,0,1.016-.344,1.2,1.2,0,0,0,.406-.914H56.5a2.9,2.9,0,0,1-.469,1.574A3.093,3.093,0,0,1,54.767-.238,3.949,3.949,0,0,1,53,.156,3.67,3.67,0,0,1,50.139-1,4.56,4.56,0,0,1,49.092-4.18v-.148a4.508,4.508,0,0,1,1.039-3.117,3.627,3.627,0,0,1,2.852-1.164,3.555,3.555,0,0,1,2.543.9A3.2,3.2,0,0,1,56.5-5.3H54.381a1.551,1.551,0,0,0-.406-1.072,1.354,1.354,0,0,0-1.031-.412,1.36,1.36,0,0,0-1.191.575,3.333,3.333,0,0,0-.4,1.866v.235a3.375,3.375,0,0,0,.4,1.878A1.377,1.377,0,0,0,52.959-1.664ZM60.314,0H58.048V-8.453h2.266Zm-2.4-10.641a1.112,1.112,0,0,1,.34-.836,1.277,1.277,0,0,1,.926-.328,1.28,1.28,0,0,1,.922.328,1.105,1.105,0,0,1,.344.836A1.108,1.108,0,0,1,60.1-9.8a1.283,1.283,0,0,1-.918.328,1.283,1.283,0,0,1-.918-.328A1.108,1.108,0,0,1,57.915-10.641ZM61.966-4.3a5.013,5.013,0,0,1,.484-2.242A3.546,3.546,0,0,1,63.845-8.07a4.069,4.069,0,0,1,2.113-.539,3.849,3.849,0,0,1,2.793,1.047,4.2,4.2,0,0,1,1.207,2.844l.016.578A4.418,4.418,0,0,1,68.888-1.02,3.775,3.775,0,0,1,65.973.156a3.793,3.793,0,0,1-2.918-1.172A4.5,4.5,0,0,1,61.966-4.2Zm2.258.16A3.16,3.16,0,0,0,64.677-2.3a1.5,1.5,0,0,0,1.3.638,1.5,1.5,0,0,0,1.281-.63,3.457,3.457,0,0,0,.461-2.015,3.128,3.128,0,0,0-.461-1.831,1.5,1.5,0,0,0-1.3-.649,1.474,1.474,0,0,0-1.281.646A3.516,3.516,0,0,0,64.223-4.144ZM66.4-12h2.461L66.7-9.578H64.864Zm7.183,3.547.07.977a2.951,2.951,0,0,1,2.43-1.133,2.453,2.453,0,0,1,2,.789,3.682,3.682,0,0,1,.672,2.359V0H76.5V-5.419a1.47,1.47,0,0,0-.312-1.045,1.4,1.4,0,0,0-1.039-.325,1.553,1.553,0,0,0-1.43.814V0H71.461V-8.453Z" transform="translate(1209.932 -6791.432)" fill="#12263f"/>
      <path id="Rectangle_38311" data-name="Rectangle 38311" d="M8.736-.875h117.17a9.621,9.621,0,0,1,9.61,9.61V29.947a9.622,9.622,0,0,1-9.611,9.611H8.736A9.622,9.622,0,0,1-.875,29.947V8.736A9.622,9.622,0,0,1,8.736-.875ZM125.9,37.808a7.87,7.87,0,0,0,7.861-7.861V8.735a7.869,7.869,0,0,0-7.86-7.86H8.736A7.87,7.87,0,0,0,.875,8.736V29.947a7.87,7.87,0,0,0,7.861,7.861Z" transform="translate(1527.764 -6749.54)" fill="#c4fdff"/>
      <path id="Path_183790" data-name="Path 183790" d="M790.1,142H672.926a8.735,8.735,0,0,1-8.735-8.736V112.055a8.735,8.735,0,0,1,8.735-8.736H790.1a8.736,8.736,0,0,1,8.736,8.736v21.211A8.736,8.736,0,0,1,790.1,142" transform="translate(868 -6858)" fill="#c4fdff"/>
      <path id="Rectangle_38312" data-name="Rectangle 38312" d="M8.736-1.5h117.17A10.247,10.247,0,0,1,136.141,8.735V29.947A10.248,10.248,0,0,1,125.9,40.183H8.736A10.248,10.248,0,0,1-1.5,29.947V8.736A10.248,10.248,0,0,1,8.736-1.5ZM125.9,37.183a7.244,7.244,0,0,0,7.236-7.236V8.735A7.243,7.243,0,0,0,125.906,1.5H8.736A7.244,7.244,0,0,0,1.5,8.736V29.947a7.244,7.244,0,0,0,7.236,7.236Z" transform="translate(1532.191 -6754.681)" fill="#42e0e6"/>
      <path id="Path_184799" data-name="Path 184799" d="M7.859-4.945h-4.5v3.063H8.641V0H1.016V-11.375H8.625v1.9H3.359v2.711h4.5Zm4.246-3.508.07.977a2.951,2.951,0,0,1,2.43-1.133,2.453,2.453,0,0,1,2,.789,3.682,3.682,0,0,1,.672,2.359V0H15.019V-5.419a1.47,1.47,0,0,0-.312-1.045,1.4,1.4,0,0,0-1.039-.325,1.553,1.553,0,0,0-1.43.814V0H9.98V-8.453Zm9.73-2.078v2.078h1.445V-6.8H21.835v4.219a1.007,1.007,0,0,0,.18.672.9.9,0,0,0,.688.2,3.6,3.6,0,0,0,.664-.055V-.047A4.648,4.648,0,0,1,22,.156a2.156,2.156,0,0,1-2.422-2.4V-6.8H18.343V-8.453h1.234v-2.078ZM28.589.156A4.15,4.15,0,0,1,25.562-.984a4.054,4.054,0,0,1-1.168-3.039v-.219a5.106,5.106,0,0,1,.492-2.277A3.612,3.612,0,0,1,26.28-8.066a3.914,3.914,0,0,1,2.059-.543,3.508,3.508,0,0,1,2.73,1.094,4.444,4.444,0,0,1,1,3.1v.922H26.683a2.1,2.1,0,0,0,.66,1.328,2,2,0,0,0,1.395.5,2.437,2.437,0,0,0,2.039-.945l1.109,1.242A3.389,3.389,0,0,1,30.511-.246,4.511,4.511,0,0,1,28.589.156Zm-.258-6.945a1.411,1.411,0,0,0-1.09.455,2.357,2.357,0,0,0-.535,1.3h3.141v-.181a1.681,1.681,0,0,0-.406-1.165A1.456,1.456,0,0,0,28.331-6.789Z" transform="translate(1583.185 -6730.663)" fill="#12263f"/>
      <path id="Rectangle_38314" data-name="Rectangle 38314" d="M8.736-.875H125.9a9.622,9.622,0,0,1,9.611,9.611V29.947a9.622,9.622,0,0,1-9.611,9.611H8.736A9.622,9.622,0,0,1-.875,29.947V8.736A9.622,9.622,0,0,1,8.736-.875ZM125.9,37.808a7.87,7.87,0,0,0,7.861-7.861V8.736A7.87,7.87,0,0,0,125.9.875H8.736A7.87,7.87,0,0,0,.875,8.736V29.947a7.87,7.87,0,0,0,7.861,7.861Z" transform="translate(1581.145 -6585.247)" fill="#c4fdff"/>
      <path id="Path_183791" data-name="Path 183791" d="M843.477,306.3H726.308a8.736,8.736,0,0,1-8.736-8.736V276.348a8.736,8.736,0,0,1,8.736-8.736H843.477a8.736,8.736,0,0,1,8.736,8.736v21.211a8.736,8.736,0,0,1-8.736,8.736" transform="translate(868 -6858)" fill="#c4fdff"/>
      <path id="Rectangle_38315" data-name="Rectangle 38315" d="M8.736-1.5H125.9A10.248,10.248,0,0,1,136.141,8.736V29.947A10.248,10.248,0,0,1,125.9,40.183H8.736A10.248,10.248,0,0,1-1.5,29.947V8.736A10.248,10.248,0,0,1,8.736-1.5ZM125.9,37.183a7.244,7.244,0,0,0,7.236-7.236V8.736A7.244,7.244,0,0,0,125.9,1.5H8.736A7.244,7.244,0,0,0,1.5,8.736V29.947a7.244,7.244,0,0,0,7.236,7.236Z" transform="translate(1585.572 -6590.388)" fill="#42e0e6"/>
      <path id="Path_184797" data-name="Path 184797" d="M4.078-11.375,7-3.125l2.906-8.25h3.078V0H10.633V-3.109l.234-5.367L7.8,0H6.188L3.125-8.469l.234,5.359V0H1.016V-11.375ZM14.691-4.3a5.013,5.013,0,0,1,.484-2.242A3.546,3.546,0,0,1,16.57-8.07a4.069,4.069,0,0,1,2.113-.539,3.849,3.849,0,0,1,2.793,1.047,4.2,4.2,0,0,1,1.207,2.844l.016.578A4.418,4.418,0,0,1,21.613-1.02,3.775,3.775,0,0,1,18.7.156a3.793,3.793,0,0,1-2.918-1.172A4.5,4.5,0,0,1,14.691-4.2Zm2.258.16A3.16,3.16,0,0,0,17.4-2.3a1.5,1.5,0,0,0,1.3.638,1.5,1.5,0,0,0,1.281-.63,3.457,3.457,0,0,0,.461-2.015A3.128,3.128,0,0,0,19.98-6.14a1.5,1.5,0,0,0-1.3-.649,1.474,1.474,0,0,0-1.281.646A3.516,3.516,0,0,0,16.949-4.144Zm9.363-4.309.07.977a2.951,2.951,0,0,1,2.43-1.133,2.453,2.453,0,0,1,2,.789,3.682,3.682,0,0,1,.672,2.359V0H29.226V-5.419a1.47,1.47,0,0,0-.312-1.045,1.4,1.4,0,0,0-1.039-.325,1.553,1.553,0,0,0-1.43.814V0H24.187V-8.453ZM37.229.156A4.15,4.15,0,0,1,34.2-.984a4.054,4.054,0,0,1-1.168-3.039v-.219a5.106,5.106,0,0,1,.492-2.277,3.612,3.612,0,0,1,1.395-1.547,3.914,3.914,0,0,1,2.059-.543,3.508,3.508,0,0,1,2.73,1.094,4.444,4.444,0,0,1,1,3.1v.922H35.323a2.1,2.1,0,0,0,.66,1.328,2,2,0,0,0,1.395.5,2.437,2.437,0,0,0,2.039-.945l1.109,1.242A3.389,3.389,0,0,1,39.151-.246,4.511,4.511,0,0,1,37.229.156Zm-.258-6.945a1.411,1.411,0,0,0-1.09.455,2.357,2.357,0,0,0-.535,1.3h3.141v-.181a1.681,1.681,0,0,0-.406-1.165A1.456,1.456,0,0,0,36.971-6.789Zm4.808,2.5a5.094,5.094,0,0,1,.887-3.148,2.877,2.877,0,0,1,2.426-1.172,2.589,2.589,0,0,1,2.039.922V-12H49.4V0H47.358l-.109-.9A2.657,2.657,0,0,1,45.076.156,2.869,2.869,0,0,1,42.682-1.02,5.258,5.258,0,0,1,41.78-4.289Zm2.258.161A3.355,3.355,0,0,0,44.451-2.3a1.348,1.348,0,0,0,1.2.636,1.51,1.51,0,0,0,1.477-.887V-5.9a1.489,1.489,0,0,0-1.461-.887Q44.037-6.789,44.037-4.128ZM56.189,0a2.507,2.507,0,0,1-.227-.758A2.732,2.732,0,0,1,53.83.156a3,3,0,0,1-2.059-.719,2.312,2.312,0,0,1-.816-1.812,2.389,2.389,0,0,1,1-2.062,4.915,4.915,0,0,1,2.879-.727h1.039v-.484a1.393,1.393,0,0,0-.3-.937,1.183,1.183,0,0,0-.949-.352,1.345,1.345,0,0,0-.895.273.929.929,0,0,0-.324.75H51.142A2.268,2.268,0,0,1,51.6-7.273a3,3,0,0,1,1.281-.98,4.669,4.669,0,0,1,1.859-.355,3.689,3.689,0,0,1,2.48.785,2.747,2.747,0,0,1,.918,2.207v3.664a4.041,4.041,0,0,0,.336,1.82V0ZM54.322-1.57a1.945,1.945,0,0,0,.922-.223,1.462,1.462,0,0,0,.625-.6V-3.844h-.844q-1.7,0-1.8,1.172l-.008.133a.9.9,0,0,0,.3.7A1.153,1.153,0,0,0,54.322-1.57Zm13.335-.094a1.481,1.481,0,0,0,1.016-.344,1.2,1.2,0,0,0,.406-.914H71.2a2.9,2.9,0,0,1-.469,1.574A3.093,3.093,0,0,1,69.465-.238,3.949,3.949,0,0,1,67.7.156,3.67,3.67,0,0,1,64.837-1,4.56,4.56,0,0,1,63.79-4.18v-.148a4.508,4.508,0,0,1,1.039-3.117A3.627,3.627,0,0,1,67.68-8.609a3.555,3.555,0,0,1,2.543.9A3.2,3.2,0,0,1,71.2-5.3H69.079a1.551,1.551,0,0,0-.406-1.072,1.354,1.354,0,0,0-1.031-.412,1.36,1.36,0,0,0-1.191.575,3.333,3.333,0,0,0-.4,1.866v.235a3.375,3.375,0,0,0,.4,1.878A1.377,1.377,0,0,0,67.657-1.664ZM72.277-4.3a5.013,5.013,0,0,1,.484-2.242A3.546,3.546,0,0,1,74.156-8.07a4.069,4.069,0,0,1,2.113-.539,3.849,3.849,0,0,1,2.793,1.047A4.2,4.2,0,0,1,80.27-4.719l.016.578A4.418,4.418,0,0,1,79.2-1.02,3.775,3.775,0,0,1,76.285.156a3.793,3.793,0,0,1-2.918-1.172A4.5,4.5,0,0,1,72.277-4.2Zm2.258.16A3.16,3.16,0,0,0,74.988-2.3a1.5,1.5,0,0,0,1.3.638,1.5,1.5,0,0,0,1.281-.63,3.457,3.457,0,0,0,.461-2.015,3.128,3.128,0,0,0-.461-1.831,1.5,1.5,0,0,0-1.3-.649,1.474,1.474,0,0,0-1.281.646A3.516,3.516,0,0,0,74.535-4.144Zm9.4-4.309.07.945a2.971,2.971,0,0,1,2.43-1.1A2.255,2.255,0,0,1,88.679-7.32a2.9,2.9,0,0,1,2.539-1.289,2.521,2.521,0,0,1,2.047.8,3.681,3.681,0,0,1,.672,2.41V0H91.671V-5.4a1.616,1.616,0,0,0-.281-1.053,1.245,1.245,0,0,0-.992-.333,1.409,1.409,0,0,0-1.406.971L89,0H86.742V-5.4a1.6,1.6,0,0,0-.289-1.065,1.257,1.257,0,0,0-.984-.329,1.463,1.463,0,0,0-1.391.8V0H81.82V-8.453ZM100.894-.859A2.831,2.831,0,0,1,98.581.156a2.67,2.67,0,0,1-2.074-.781,3.335,3.335,0,0,1-.73-2.289V-8.453h2.258v5.467q0,1.322,1.2,1.322a1.63,1.63,0,0,0,1.578-.8V-8.453h2.266V0h-2.125ZM99.886-12h2.461l-2.164,2.422H98.347Zm7.137,3.547.07.977a2.951,2.951,0,0,1,2.43-1.133,2.453,2.453,0,0,1,2,.789,3.682,3.682,0,0,1,.672,2.359V0h-2.258V-5.419a1.47,1.47,0,0,0-.312-1.045,1.4,1.4,0,0,0-1.039-.325,1.553,1.553,0,0,0-1.43.814V0H104.9V-8.453Z" transform="translate(1596.23 -6566.37)" fill="#12263f"/>
      <path id="Rectangle_38317" data-name="Rectangle 38317" d="M8.736-.875H160.928a9.621,9.621,0,0,1,9.61,9.61V29.947a9.622,9.622,0,0,1-9.611,9.611H8.736A9.622,9.622,0,0,1-.875,29.947V8.736A9.622,9.622,0,0,1,8.736-.875ZM160.927,37.808a7.87,7.87,0,0,0,7.861-7.861V8.735a7.869,7.869,0,0,0-7.86-7.86H8.736A7.87,7.87,0,0,0,.875,8.736V29.947a7.87,7.87,0,0,0,7.861,7.861Z" transform="translate(1571.914 -6673.068)" fill="#c4fdff"/>
      <path id="Path_183792" data-name="Path 183792" d="M869.269,218.474H717.077a8.735,8.735,0,0,1-8.735-8.736V188.527a8.735,8.735,0,0,1,8.735-8.736H869.269a8.736,8.736,0,0,1,8.736,8.736v21.211a8.736,8.736,0,0,1-8.736,8.736" transform="translate(868 -6858)" fill="#c4fdff"/>
      <path id="Rectangle_38318" data-name="Rectangle 38318" d="M8.736-1.5H160.928A10.247,10.247,0,0,1,171.163,8.735V29.947a10.248,10.248,0,0,1-10.236,10.236H8.736A10.248,10.248,0,0,1-1.5,29.947V8.736A10.248,10.248,0,0,1,8.736-1.5ZM160.927,37.183a7.244,7.244,0,0,0,7.236-7.236V8.735A7.243,7.243,0,0,0,160.928,1.5H8.736A7.244,7.244,0,0,0,1.5,8.736V29.947a7.244,7.244,0,0,0,7.236,7.236Z" transform="translate(1576.342 -6678.209)" fill="#42e0e6"/>
      <path id="Path_184798" data-name="Path 184798" d="M1.016,0V-11.375H5a5.232,5.232,0,0,1,3.141.793,2.712,2.712,0,0,1,1.07,2.324,2.57,2.57,0,0,1-.43,1.473,2.482,2.482,0,0,1-1.2.934,2.4,2.4,0,0,1,1.379.883,2.61,2.61,0,0,1,.5,1.625A3,3,0,0,1,8.422-.859,4.713,4.713,0,0,1,5.438,0ZM3.359-4.953v3.07H5.367A1.938,1.938,0,0,0,6.66-2.277a1.353,1.353,0,0,0,.465-1.09A1.428,1.428,0,0,0,5.508-4.953Zm0-1.656H5.094q1.773-.031,1.773-1.414a1.307,1.307,0,0,0-.449-1.113A2.363,2.363,0,0,0,5-9.477H3.359ZM13.6,0H11.339V-8.453H13.6Zm-2.4-10.641a1.112,1.112,0,0,1,.34-.836,1.277,1.277,0,0,1,.926-.328,1.28,1.28,0,0,1,.922.328,1.105,1.105,0,0,1,.344.836,1.108,1.108,0,0,1-.348.844,1.283,1.283,0,0,1-.918.328,1.283,1.283,0,0,1-.918-.328A1.108,1.108,0,0,1,11.207-10.641ZM19.5.156A4.15,4.15,0,0,1,16.472-.984,4.054,4.054,0,0,1,15.3-4.023v-.219A5.106,5.106,0,0,1,15.8-6.52,3.612,3.612,0,0,1,17.19-8.066a3.914,3.914,0,0,1,2.059-.543,3.508,3.508,0,0,1,2.73,1.094,4.444,4.444,0,0,1,1,3.1v.922H17.593a2.1,2.1,0,0,0,.66,1.328,2,2,0,0,0,1.395.5,2.437,2.437,0,0,0,2.039-.945L22.8-1.367A3.389,3.389,0,0,1,21.421-.246,4.511,4.511,0,0,1,19.5.156Zm-.258-6.945a1.411,1.411,0,0,0-1.09.455,2.357,2.357,0,0,0-.535,1.3h3.141v-.181a1.681,1.681,0,0,0-.406-1.165A1.456,1.456,0,0,0,19.241-6.789Zm7.238-1.664.07.977a2.951,2.951,0,0,1,2.43-1.133,2.453,2.453,0,0,1,2,.789,3.682,3.682,0,0,1,.672,2.359V0H29.393V-5.419a1.47,1.47,0,0,0-.312-1.045,1.4,1.4,0,0,0-1.039-.325,1.553,1.553,0,0,0-1.43.814V0H24.354V-8.453ZM37.4.156A4.15,4.15,0,0,1,34.369-.984,4.054,4.054,0,0,1,33.2-4.023v-.219a5.106,5.106,0,0,1,.492-2.277,3.612,3.612,0,0,1,1.395-1.547,3.914,3.914,0,0,1,2.059-.543,3.508,3.508,0,0,1,2.73,1.094,4.444,4.444,0,0,1,1,3.1v.922H35.49a2.1,2.1,0,0,0,.66,1.328,2,2,0,0,0,1.395.5,2.437,2.437,0,0,0,2.039-.945l1.109,1.242A3.389,3.389,0,0,1,39.318-.246,4.511,4.511,0,0,1,37.4.156Zm-.258-6.945a1.411,1.411,0,0,0-1.09.455,2.357,2.357,0,0,0-.535,1.3h3.141v-.181a1.681,1.681,0,0,0-.406-1.165A1.456,1.456,0,0,0,37.139-6.789Zm9.754,4.453a.727.727,0,0,0-.41-.652,4.659,4.659,0,0,0-1.316-.426Q42.15-4.047,42.15-5.977a2.323,2.323,0,0,1,.934-1.879,3.766,3.766,0,0,1,2.441-.754,4.053,4.053,0,0,1,2.574.758,2.388,2.388,0,0,1,.965,1.969H46.806a1.092,1.092,0,0,0-.312-.8A1.322,1.322,0,0,0,45.517-7a1.351,1.351,0,0,0-.883.258.814.814,0,0,0-.312.656.7.7,0,0,0,.355.605,3.657,3.657,0,0,0,1.2.4A9.8,9.8,0,0,1,47.3-4.7,2.336,2.336,0,0,1,49.088-2.43,2.2,2.2,0,0,1,48.1-.559a4.28,4.28,0,0,1-2.562.715,4.47,4.47,0,0,1-1.887-.379,3.166,3.166,0,0,1-1.293-1.039,2.414,2.414,0,0,1-.469-1.426h2.141a1.179,1.179,0,0,0,.445.922,1.766,1.766,0,0,0,1.109.32,1.635,1.635,0,0,0,.98-.246A.766.766,0,0,0,46.892-2.336ZM58.7.156A4.15,4.15,0,0,1,55.676-.984a4.054,4.054,0,0,1-1.168-3.039v-.219A5.106,5.106,0,0,1,55-6.52,3.612,3.612,0,0,1,56.4-8.066a3.914,3.914,0,0,1,2.059-.543,3.508,3.508,0,0,1,2.73,1.094,4.444,4.444,0,0,1,1,3.1v.922H56.8a2.1,2.1,0,0,0,.66,1.328,2,2,0,0,0,1.395.5,2.437,2.437,0,0,0,2.039-.945L62-1.367A3.389,3.389,0,0,1,60.626-.246,4.511,4.511,0,0,1,58.7.156Zm-.258-6.945a1.411,1.411,0,0,0-1.09.455,2.357,2.357,0,0,0-.535,1.3h3.141v-.181a1.681,1.681,0,0,0-.406-1.165A1.456,1.456,0,0,0,58.446-6.789Zm8.675,5.125a1.481,1.481,0,0,0,1.016-.344,1.2,1.2,0,0,0,.406-.914H70.66a2.9,2.9,0,0,1-.469,1.574A3.093,3.093,0,0,1,68.93-.238a3.949,3.949,0,0,1-1.77.395A3.67,3.67,0,0,1,64.3-1,4.56,4.56,0,0,1,63.254-4.18v-.148a4.508,4.508,0,0,1,1.039-3.117,3.627,3.627,0,0,1,2.852-1.164,3.555,3.555,0,0,1,2.543.9,3.2,3.2,0,0,1,.973,2.4H68.543a1.551,1.551,0,0,0-.406-1.072,1.354,1.354,0,0,0-1.031-.412,1.36,1.36,0,0,0-1.191.575,3.333,3.333,0,0,0-.4,1.866v.235a3.375,3.375,0,0,0,.4,1.878A1.377,1.377,0,0,0,67.121-1.664ZM71.742-4.3a5.013,5.013,0,0,1,.484-2.242A3.546,3.546,0,0,1,73.621-8.07a4.069,4.069,0,0,1,2.113-.539,3.849,3.849,0,0,1,2.793,1.047,4.2,4.2,0,0,1,1.207,2.844l.016.578A4.418,4.418,0,0,1,78.664-1.02,3.775,3.775,0,0,1,75.75.156a3.793,3.793,0,0,1-2.918-1.172A4.5,4.5,0,0,1,71.742-4.2ZM74-4.144A3.16,3.16,0,0,0,74.453-2.3a1.5,1.5,0,0,0,1.3.638,1.5,1.5,0,0,0,1.281-.63,3.457,3.457,0,0,0,.461-2.015,3.128,3.128,0,0,0-.461-1.831,1.5,1.5,0,0,0-1.3-.649,1.474,1.474,0,0,0-1.281.646A3.516,3.516,0,0,0,74-4.144Zm9.363-4.309.07.977a2.951,2.951,0,0,1,2.43-1.133,2.453,2.453,0,0,1,2,.789,3.682,3.682,0,0,1,.672,2.359V0H86.276V-5.419a1.47,1.47,0,0,0-.312-1.045,1.4,1.4,0,0,0-1.039-.325,1.553,1.553,0,0,0-1.43.814V0H81.237V-8.453ZM90.037-4.3a5.013,5.013,0,0,1,.484-2.242A3.546,3.546,0,0,1,91.916-8.07a4.069,4.069,0,0,1,2.113-.539,3.849,3.849,0,0,1,2.793,1.047A4.2,4.2,0,0,1,98.03-4.719l.016.578A4.418,4.418,0,0,1,96.959-1.02,3.775,3.775,0,0,1,94.045.156a3.793,3.793,0,0,1-2.918-1.172A4.5,4.5,0,0,1,90.037-4.2Zm2.258.16A3.16,3.16,0,0,0,92.748-2.3a1.5,1.5,0,0,0,1.3.638,1.5,1.5,0,0,0,1.281-.63,3.457,3.457,0,0,0,.461-2.015,3.128,3.128,0,0,0-.461-1.831,1.5,1.5,0,0,0-1.3-.649,1.474,1.474,0,0,0-1.281.646A3.516,3.516,0,0,0,92.3-4.144ZM94.475-12h2.461L94.772-9.578H92.936ZM101.7-8.453l.07.945a2.971,2.971,0,0,1,2.43-1.1,2.255,2.255,0,0,1,2.242,1.289,2.9,2.9,0,0,1,2.539-1.289,2.521,2.521,0,0,1,2.047.8A3.681,3.681,0,0,1,111.7-5.4V0h-2.266V-5.4a1.616,1.616,0,0,0-.281-1.053,1.245,1.245,0,0,0-.992-.333,1.409,1.409,0,0,0-1.406.971L106.76,0H104.5V-5.4a1.6,1.6,0,0,0-.289-1.065,1.257,1.257,0,0,0-.984-.329,1.463,1.463,0,0,0-1.391.8V0H99.58V-8.453ZM115.974,0h-2.266V-8.453h2.266Zm-2.4-10.641a1.112,1.112,0,0,1,.34-.836,1.277,1.277,0,0,1,.926-.328,1.28,1.28,0,0,1,.922.328,1.105,1.105,0,0,1,.344.836,1.108,1.108,0,0,1-.348.844,1.283,1.283,0,0,1-.918.328,1.283,1.283,0,0,1-.918-.328A1.108,1.108,0,0,1,113.576-10.641Zm7.917,8.977a1.481,1.481,0,0,0,1.016-.344,1.2,1.2,0,0,0,.406-.914h2.117a2.9,2.9,0,0,1-.469,1.574A3.093,3.093,0,0,1,123.3-.238a3.949,3.949,0,0,1-1.77.395A3.67,3.67,0,0,1,118.673-1a4.56,4.56,0,0,1-1.047-3.184v-.148a4.508,4.508,0,0,1,1.039-3.117,3.627,3.627,0,0,1,2.852-1.164,3.555,3.555,0,0,1,2.543.9,3.2,3.2,0,0,1,.973,2.4h-2.117a1.551,1.551,0,0,0-.406-1.072,1.354,1.354,0,0,0-1.031-.412,1.36,1.36,0,0,0-1.191.575,3.333,3.333,0,0,0-.4,1.866v.235a3.375,3.375,0,0,0,.4,1.878A1.377,1.377,0,0,0,121.493-1.664ZM126.114-4.3a5.013,5.013,0,0,1,.484-2.242,3.546,3.546,0,0,1,1.395-1.523,4.069,4.069,0,0,1,2.113-.539A3.849,3.849,0,0,1,132.9-7.562a4.2,4.2,0,0,1,1.207,2.844l.016.578a4.418,4.418,0,0,1-1.086,3.121A3.775,3.775,0,0,1,130.122.156,3.793,3.793,0,0,1,127.2-1.016a4.5,4.5,0,0,1-1.09-3.187Zm2.258.16a3.16,3.16,0,0,0,.453,1.843,1.5,1.5,0,0,0,1.3.638,1.5,1.5,0,0,0,1.281-.63,3.457,3.457,0,0,0,.461-2.015A3.128,3.128,0,0,0,131.4-6.14a1.5,1.5,0,0,0-1.3-.649,1.474,1.474,0,0,0-1.281.646A3.516,3.516,0,0,0,128.372-4.144Zm11.863,1.808a.727.727,0,0,0-.41-.652,4.659,4.659,0,0,0-1.316-.426q-3.016-.633-3.016-2.562a2.323,2.323,0,0,1,.934-1.879,3.766,3.766,0,0,1,2.441-.754,4.053,4.053,0,0,1,2.574.758,2.388,2.388,0,0,1,.965,1.969h-2.258a1.092,1.092,0,0,0-.312-.8A1.322,1.322,0,0,0,138.859-7a1.351,1.351,0,0,0-.883.258.814.814,0,0,0-.312.656.7.7,0,0,0,.355.605,3.657,3.657,0,0,0,1.2.4,9.8,9.8,0,0,1,1.422.379A2.336,2.336,0,0,1,142.43-2.43a2.205,2.205,0,0,1-.992,1.871,4.28,4.28,0,0,1-2.562.715,4.47,4.47,0,0,1-1.887-.379A3.166,3.166,0,0,1,135.7-1.262a2.414,2.414,0,0,1-.469-1.426h2.141a1.179,1.179,0,0,0,.445.922,1.766,1.766,0,0,0,1.109.32,1.635,1.635,0,0,0,.98-.246A.766.766,0,0,0,140.234-2.336Z" transform="translate(1589.474 -6654.191)" fill="#12263f"/>
      <path id="Rectangle_38320" data-name="Rectangle 38320" d="M8.736-.875H160.928a9.621,9.621,0,0,1,9.61,9.61V29.947a9.622,9.622,0,0,1-9.611,9.611H8.736A9.622,9.622,0,0,1-.875,29.947V8.736A9.622,9.622,0,0,1,8.736-.875ZM160.927,37.808a7.87,7.87,0,0,0,7.861-7.861V8.735a7.869,7.869,0,0,0-7.86-7.86H8.736A7.87,7.87,0,0,0,.875,8.736V29.947a7.87,7.87,0,0,0,7.861,7.861Z" transform="translate(1553.856 -6510.136)" fill="#c4fdff"/>
      <path id="Path_183793" data-name="Path 183793" d="M851.211,381.406H699.019a8.735,8.735,0,0,1-8.735-8.736V351.459a8.735,8.735,0,0,1,8.735-8.736H851.211a8.736,8.736,0,0,1,8.736,8.736V372.67a8.736,8.736,0,0,1-8.736,8.736" transform="translate(868 -6858)" fill="#c4fdff"/>
      <path id="Rectangle_38321" data-name="Rectangle 38321" d="M8.736-1.5H160.927A10.248,10.248,0,0,1,171.163,8.736V29.947a10.248,10.248,0,0,1-10.236,10.236H8.736A10.248,10.248,0,0,1-1.5,29.947V8.736A10.248,10.248,0,0,1,8.736-1.5ZM160.927,37.183a7.244,7.244,0,0,0,7.236-7.236V8.736A7.244,7.244,0,0,0,160.927,1.5H8.736A7.244,7.244,0,0,0,1.5,8.736V29.947a7.244,7.244,0,0,0,7.236,7.236Z" transform="translate(1558.284 -6515.276)" fill="#42e0e6"/>
      <path id="Path_184796" data-name="Path 184796" d="M7.859-4.945h-4.5v3.063H8.641V0H1.016V-11.375H8.625v1.9H3.359v2.711h4.5Zm4.285-3.508.07.945a2.971,2.971,0,0,1,2.43-1.1A2.255,2.255,0,0,1,16.887-7.32a2.9,2.9,0,0,1,2.539-1.289,2.521,2.521,0,0,1,2.047.8,3.681,3.681,0,0,1,.672,2.41V0H19.879V-5.4A1.616,1.616,0,0,0,19.6-6.456a1.245,1.245,0,0,0-.992-.333,1.409,1.409,0,0,0-1.406.971L17.207,0H14.949V-5.4A1.6,1.6,0,0,0,14.66-6.46a1.257,1.257,0,0,0-.984-.329,1.463,1.463,0,0,0-1.391.8V0H10.027V-8.453Zm19.5,4.3a5.07,5.07,0,0,1-.887,3.129A2.843,2.843,0,0,1,28.367.156,2.633,2.633,0,0,1,26.3-.734V3.25H24.039v-11.7h2.094l.078.828a2.654,2.654,0,0,1,2.141-.984,2.862,2.862,0,0,1,2.43,1.156,5.207,5.207,0,0,1,.867,3.188ZM29.39-4.321a3.345,3.345,0,0,0-.418-1.826,1.36,1.36,0,0,0-1.215-.643,1.478,1.478,0,0,0-1.461.815V-2.5a1.5,1.5,0,0,0,1.477.839Q29.39-1.664,29.39-4.321Zm8.566-2.015a6.134,6.134,0,0,0-.812-.062,1.654,1.654,0,0,0-1.68.867V0H33.207V-8.453h2.133L35.4-7.445a2.092,2.092,0,0,1,1.883-1.164,2.366,2.366,0,0,1,.7.1ZM42.785.156A4.15,4.15,0,0,1,39.757-.984a4.054,4.054,0,0,1-1.168-3.039v-.219a5.106,5.106,0,0,1,.492-2.277,3.612,3.612,0,0,1,1.395-1.547,3.914,3.914,0,0,1,2.059-.543,3.508,3.508,0,0,1,2.73,1.094,4.444,4.444,0,0,1,1,3.1v.922H40.878a2.1,2.1,0,0,0,.66,1.328,2,2,0,0,0,1.395.5,2.437,2.437,0,0,0,2.039-.945l1.109,1.242A3.389,3.389,0,0,1,44.707-.246,4.511,4.511,0,0,1,42.785.156Zm-.258-6.945a1.411,1.411,0,0,0-1.09.455,2.357,2.357,0,0,0-.535,1.3h3.141v-.181a1.681,1.681,0,0,0-.406-1.165A1.456,1.456,0,0,0,42.527-6.789Zm9.738,4.453a.727.727,0,0,0-.41-.652,4.659,4.659,0,0,0-1.316-.426q-3.016-.633-3.016-2.562a2.323,2.323,0,0,1,.934-1.879A3.766,3.766,0,0,1,50.9-8.609a4.053,4.053,0,0,1,2.574.758,2.388,2.388,0,0,1,.965,1.969H52.179a1.092,1.092,0,0,0-.312-.8A1.322,1.322,0,0,0,50.89-7a1.351,1.351,0,0,0-.883.258.814.814,0,0,0-.312.656.7.7,0,0,0,.355.605,3.657,3.657,0,0,0,1.2.4,9.8,9.8,0,0,1,1.422.379A2.336,2.336,0,0,1,54.46-2.43a2.2,2.2,0,0,1-.992,1.871,4.28,4.28,0,0,1-2.562.715,4.47,4.47,0,0,1-1.887-.379,3.166,3.166,0,0,1-1.293-1.039,2.414,2.414,0,0,1-.469-1.426H49.4a1.179,1.179,0,0,0,.445.922,1.766,1.766,0,0,0,1.109.32,1.635,1.635,0,0,0,.98-.246A.766.766,0,0,0,52.265-2.336ZM60.956,0a2.507,2.507,0,0,1-.227-.758A2.732,2.732,0,0,1,58.6.156a3,3,0,0,1-2.059-.719,2.312,2.312,0,0,1-.816-1.812,2.389,2.389,0,0,1,1-2.062A4.915,4.915,0,0,1,59.6-5.164h1.039v-.484a1.393,1.393,0,0,0-.3-.937,1.183,1.183,0,0,0-.949-.352,1.345,1.345,0,0,0-.895.273.929.929,0,0,0-.324.75H55.909a2.268,2.268,0,0,1,.453-1.359,3,3,0,0,1,1.281-.98A4.669,4.669,0,0,1,59.5-8.609a3.689,3.689,0,0,1,2.48.785A2.747,2.747,0,0,1,62.9-5.617v3.664a4.041,4.041,0,0,0,.336,1.82V0ZM59.088-1.57a1.945,1.945,0,0,0,.922-.223,1.462,1.462,0,0,0,.625-.6V-3.844h-.844q-1.7,0-1.8,1.172l-.008.133a.9.9,0,0,0,.3.7A1.153,1.153,0,0,0,59.088-1.57ZM72.8.156A4.15,4.15,0,0,1,69.771-.984,4.054,4.054,0,0,1,68.6-4.023v-.219A5.106,5.106,0,0,1,69.1-6.52,3.612,3.612,0,0,1,70.49-8.066a3.914,3.914,0,0,1,2.059-.543,3.508,3.508,0,0,1,2.73,1.094,4.444,4.444,0,0,1,1,3.1v.922H70.892a2.1,2.1,0,0,0,.66,1.328,2,2,0,0,0,1.395.5,2.437,2.437,0,0,0,2.039-.945L76.1-1.367A3.389,3.389,0,0,1,74.72-.246,4.511,4.511,0,0,1,72.8.156ZM72.54-6.789a1.411,1.411,0,0,0-1.09.455,2.357,2.357,0,0,0-.535,1.3h3.141v-.181a1.681,1.681,0,0,0-.406-1.165A1.456,1.456,0,0,0,72.54-6.789Zm7.238-1.664.07.977a2.951,2.951,0,0,1,2.43-1.133,2.453,2.453,0,0,1,2,.789,3.682,3.682,0,0,1,.672,2.359V0H82.692V-5.419a1.47,1.47,0,0,0-.312-1.045,1.4,1.4,0,0,0-1.039-.325,1.553,1.553,0,0,0-1.43.814V0H77.653V-8.453Zm13.272,0,.07.945a2.971,2.971,0,0,1,2.43-1.1A2.255,2.255,0,0,1,97.793-7.32a2.9,2.9,0,0,1,2.539-1.289,2.521,2.521,0,0,1,2.047.8,3.681,3.681,0,0,1,.672,2.41V0h-2.266V-5.4a1.616,1.616,0,0,0-.281-1.053,1.245,1.245,0,0,0-.992-.333,1.409,1.409,0,0,0-1.406.971L98.113,0H95.855V-5.4a1.6,1.6,0,0,0-.289-1.065,1.257,1.257,0,0,0-.984-.329,1.463,1.463,0,0,0-1.391.8V0H90.933V-8.453ZM109.843,0a2.507,2.507,0,0,1-.227-.758,2.732,2.732,0,0,1-2.133.914,3,3,0,0,1-2.059-.719,2.312,2.312,0,0,1-.816-1.812,2.389,2.389,0,0,1,1-2.062,4.915,4.915,0,0,1,2.879-.727h1.039v-.484a1.393,1.393,0,0,0-.3-.937,1.183,1.183,0,0,0-.949-.352,1.345,1.345,0,0,0-.895.273.929.929,0,0,0-.324.75H104.8a2.268,2.268,0,0,1,.453-1.359,3,3,0,0,1,1.281-.98,4.669,4.669,0,0,1,1.859-.355,3.689,3.689,0,0,1,2.48.785,2.747,2.747,0,0,1,.918,2.207v3.664a4.041,4.041,0,0,0,.336,1.82V0Zm-1.867-1.57a1.945,1.945,0,0,0,.922-.223,1.462,1.462,0,0,0,.625-.6V-3.844h-.844q-1.7,0-1.8,1.172l-.008.133a.9.9,0,0,0,.3.7A1.153,1.153,0,0,0,107.976-1.57Zm10.441-4.766A6.134,6.134,0,0,0,117.6-6.4a1.654,1.654,0,0,0-1.68.867V0h-2.258V-8.453H115.8l.063,1.008a2.092,2.092,0,0,1,1.883-1.164,2.366,2.366,0,0,1,.7.1Zm4.453,4.672a1.481,1.481,0,0,0,1.016-.344,1.2,1.2,0,0,0,.406-.914h2.117a2.9,2.9,0,0,1-.469,1.574,3.093,3.093,0,0,1-1.262,1.109,3.949,3.949,0,0,1-1.77.395A3.67,3.67,0,0,1,120.05-1,4.56,4.56,0,0,1,119-4.18v-.148a4.508,4.508,0,0,1,1.039-3.117,3.627,3.627,0,0,1,2.852-1.164,3.555,3.555,0,0,1,2.543.9,3.2,3.2,0,0,1,.973,2.4h-2.117a1.551,1.551,0,0,0-.406-1.072,1.354,1.354,0,0,0-1.031-.412,1.36,1.36,0,0,0-1.191.575,3.333,3.333,0,0,0-.4,1.866v.235a3.375,3.375,0,0,0,.4,1.878A1.377,1.377,0,0,0,122.87-1.664Zm7.175-5.867A2.818,2.818,0,0,1,132.3-8.609q2.75,0,2.789,3.2V0h-2.258V-5.364a1.577,1.577,0,0,0-.312-1.077,1.338,1.338,0,0,0-1.039-.348,1.536,1.536,0,0,0-1.437.767V0h-2.258V-12h2.258ZM141.854,0a2.507,2.507,0,0,1-.227-.758,2.732,2.732,0,0,1-2.133.914,3,3,0,0,1-2.059-.719,2.312,2.312,0,0,1-.816-1.812,2.389,2.389,0,0,1,1-2.062,4.915,4.915,0,0,1,2.879-.727h1.039v-.484a1.393,1.393,0,0,0-.3-.937,1.183,1.183,0,0,0-.949-.352,1.345,1.345,0,0,0-.895.273.929.929,0,0,0-.324.75h-2.258a2.268,2.268,0,0,1,.453-1.359,3,3,0,0,1,1.281-.98,4.669,4.669,0,0,1,1.859-.355,3.689,3.689,0,0,1,2.48.785,2.747,2.747,0,0,1,.918,2.207v3.664a4.041,4.041,0,0,0,.336,1.82V0Zm-1.867-1.57a1.945,1.945,0,0,0,.922-.223,1.462,1.462,0,0,0,.625-.6V-3.844h-.844q-1.7,0-1.8,1.172l-.008.133a.9.9,0,0,0,.3.7A1.153,1.153,0,0,0,139.987-1.57Z" transform="translate(1570.471 -6491.259)" fill="#12263f"/>
      <path id="Rectangle_38323" data-name="Rectangle 38323" d="M8.736-.875H160.928a9.621,9.621,0,0,1,9.61,9.61V29.947a9.622,9.622,0,0,1-9.611,9.611H8.736A9.622,9.622,0,0,1-.875,29.947V8.736A9.622,9.622,0,0,1,8.736-.875ZM160.927,37.808a7.87,7.87,0,0,0,7.861-7.861V8.735a7.869,7.869,0,0,0-7.86-7.86H8.736A7.87,7.87,0,0,0,.875,8.736V29.947a7.87,7.87,0,0,0,7.861,7.861Z" transform="translate(1494.776 -6444.511)" fill="#c4fdff"/>
      <path id="Path_183794" data-name="Path 183794" d="M792.131,447.031H639.939A8.736,8.736,0,0,1,631.2,438.3V417.084a8.736,8.736,0,0,1,8.735-8.736H792.131a8.736,8.736,0,0,1,8.736,8.736V438.3a8.736,8.736,0,0,1-8.736,8.736" transform="translate(868 -6858)" fill="#c4fdff"/>
      <path id="Rectangle_38324" data-name="Rectangle 38324" d="M8.736-1.5H160.928A10.247,10.247,0,0,1,171.163,8.735V29.947a10.248,10.248,0,0,1-10.236,10.236H8.736A10.248,10.248,0,0,1-1.5,29.947V8.736A10.248,10.248,0,0,1,8.736-1.5ZM160.927,37.183a7.244,7.244,0,0,0,7.236-7.236V8.735A7.243,7.243,0,0,0,160.928,1.5H8.736A7.244,7.244,0,0,0,1.5,8.736V29.947a7.244,7.244,0,0,0,7.236,7.236Z" transform="translate(1499.204 -6449.652)" fill="#42e0e6"/>
      <path id="Path_184795" data-name="Path 184795" d="M5.219-2.82,7.8-11.375h2.609L6.445,0H4L.055-11.375h2.6ZM15.675,0a2.507,2.507,0,0,1-.227-.758,2.732,2.732,0,0,1-2.133.914,3,3,0,0,1-2.059-.719,2.312,2.312,0,0,1-.816-1.812,2.389,2.389,0,0,1,1-2.062,4.915,4.915,0,0,1,2.879-.727h1.039v-.484a1.393,1.393,0,0,0-.3-.937,1.183,1.183,0,0,0-.949-.352,1.345,1.345,0,0,0-.895.273.929.929,0,0,0-.324.75H10.628a2.268,2.268,0,0,1,.453-1.359,3,3,0,0,1,1.281-.98,4.669,4.669,0,0,1,1.859-.355,3.689,3.689,0,0,1,2.48.785,2.747,2.747,0,0,1,.918,2.207v3.664a4.041,4.041,0,0,0,.336,1.82V0ZM13.808-1.57a1.945,1.945,0,0,0,.922-.223,1.462,1.462,0,0,0,.625-.6V-3.844h-.844q-1.7,0-1.8,1.172l-.008.133a.9.9,0,0,0,.3.7A1.153,1.153,0,0,0,13.808-1.57ZM21.882,0H19.616V-12h2.266Zm7.066-.859A2.831,2.831,0,0,1,26.635.156a2.67,2.67,0,0,1-2.074-.781,3.335,3.335,0,0,1-.73-2.289V-8.453h2.258v5.467q0,1.322,1.2,1.322a1.63,1.63,0,0,0,1.578-.8V-8.453h2.266V0H29.01ZM37.881,0a2.507,2.507,0,0,1-.227-.758,2.732,2.732,0,0,1-2.133.914,3,3,0,0,1-2.059-.719,2.312,2.312,0,0,1-.816-1.812,2.389,2.389,0,0,1,1-2.062,4.915,4.915,0,0,1,2.879-.727H37.56v-.484a1.393,1.393,0,0,0-.3-.937,1.183,1.183,0,0,0-.949-.352,1.345,1.345,0,0,0-.895.273.929.929,0,0,0-.324.75H32.834a2.268,2.268,0,0,1,.453-1.359,3,3,0,0,1,1.281-.98,4.669,4.669,0,0,1,1.859-.355,3.689,3.689,0,0,1,2.48.785,2.747,2.747,0,0,1,.918,2.207v3.664a4.041,4.041,0,0,0,.336,1.82V0ZM36.013-1.57a1.945,1.945,0,0,0,.922-.223,1.462,1.462,0,0,0,.625-.6V-3.844h-.844q-1.7,0-1.8,1.172l-.008.133a.9.9,0,0,0,.3.7A1.153,1.153,0,0,0,36.013-1.57Zm9.207-.094a1.481,1.481,0,0,0,1.016-.344,1.2,1.2,0,0,0,.406-.914h2.117a2.9,2.9,0,0,1-.469,1.574A3.093,3.093,0,0,1,47.029-.238a3.949,3.949,0,0,1-1.77.395A3.67,3.67,0,0,1,42.4-1,4.56,4.56,0,0,1,41.353-4.18v-.148a4.508,4.508,0,0,1,1.039-3.117,3.627,3.627,0,0,1,2.852-1.164,3.555,3.555,0,0,1,2.543.9,3.2,3.2,0,0,1,.973,2.4H46.642a1.551,1.551,0,0,0-.406-1.072A1.354,1.354,0,0,0,45.2-6.789a1.36,1.36,0,0,0-1.191.575,3.333,3.333,0,0,0-.4,1.866v.235a3.375,3.375,0,0,0,.4,1.878A1.377,1.377,0,0,0,45.22-1.664ZM52.575,0H50.309V-8.453h2.266Zm-2.4-10.641a1.112,1.112,0,0,1,.34-.836,1.277,1.277,0,0,1,.926-.328,1.28,1.28,0,0,1,.922.328,1.105,1.105,0,0,1,.344.836,1.108,1.108,0,0,1-.348.844,1.283,1.283,0,0,1-.918.328,1.283,1.283,0,0,1-.918-.328A1.108,1.108,0,0,1,50.176-10.641ZM54.227-4.3a5.013,5.013,0,0,1,.484-2.242A3.546,3.546,0,0,1,56.106-8.07a4.069,4.069,0,0,1,2.113-.539,3.849,3.849,0,0,1,2.793,1.047,4.2,4.2,0,0,1,1.207,2.844l.016.578A4.418,4.418,0,0,1,61.149-1.02,3.775,3.775,0,0,1,58.235.156a3.793,3.793,0,0,1-2.918-1.172A4.5,4.5,0,0,1,54.227-4.2Zm2.258.16A3.16,3.16,0,0,0,56.938-2.3a1.5,1.5,0,0,0,1.3.638,1.5,1.5,0,0,0,1.281-.63,3.457,3.457,0,0,0,.461-2.015,3.128,3.128,0,0,0-.461-1.831,1.5,1.5,0,0,0-1.3-.649,1.474,1.474,0,0,0-1.281.646A3.516,3.516,0,0,0,56.485-4.144ZM58.664-12h2.461L58.961-9.578H57.125Zm7.183,3.547.07.977a2.951,2.951,0,0,1,2.43-1.133,2.453,2.453,0,0,1,2,.789,3.682,3.682,0,0,1,.672,2.359V0H68.761V-5.419a1.47,1.47,0,0,0-.312-1.045,1.4,1.4,0,0,0-1.039-.325,1.553,1.553,0,0,0-1.43.814V0H63.722V-8.453ZM81.9,0a2.507,2.507,0,0,1-.227-.758,2.732,2.732,0,0,1-2.133.914,3,3,0,0,1-2.059-.719,2.312,2.312,0,0,1-.816-1.812,2.389,2.389,0,0,1,1-2.062,4.915,4.915,0,0,1,2.879-.727h1.039v-.484a1.393,1.393,0,0,0-.3-.937,1.183,1.183,0,0,0-.949-.352,1.345,1.345,0,0,0-.895.273.929.929,0,0,0-.324.75H76.854a2.268,2.268,0,0,1,.453-1.359,3,3,0,0,1,1.281-.98,4.669,4.669,0,0,1,1.859-.355,3.689,3.689,0,0,1,2.48.785,2.747,2.747,0,0,1,.918,2.207v3.664a4.041,4.041,0,0,0,.336,1.82V0ZM80.034-1.57a1.945,1.945,0,0,0,.922-.223,1.462,1.462,0,0,0,.625-.6V-3.844h-.844q-1.7,0-1.8,1.172l-.008.133a.9.9,0,0,0,.3.7A1.153,1.153,0,0,0,80.034-1.57ZM88.107,0H85.842V-12h2.266Zm9.647-1.664a1.481,1.481,0,0,0,1.016-.344,1.2,1.2,0,0,0,.406-.914h2.117a2.9,2.9,0,0,1-.469,1.574A3.093,3.093,0,0,1,99.563-.238a3.949,3.949,0,0,1-1.77.395A3.67,3.67,0,0,1,94.934-1,4.56,4.56,0,0,1,93.888-4.18v-.148a4.508,4.508,0,0,1,1.039-3.117,3.627,3.627,0,0,1,2.852-1.164,3.555,3.555,0,0,1,2.543.9,3.2,3.2,0,0,1,.973,2.4H99.177a1.551,1.551,0,0,0-.406-1.072,1.354,1.354,0,0,0-1.031-.412,1.36,1.36,0,0,0-1.191.575,3.333,3.333,0,0,0-.4,1.866v.235a3.375,3.375,0,0,0,.4,1.878A1.377,1.377,0,0,0,97.755-1.664ZM102.375-4.3a5.013,5.013,0,0,1,.484-2.242,3.546,3.546,0,0,1,1.395-1.523,4.069,4.069,0,0,1,2.113-.539,3.849,3.849,0,0,1,2.793,1.047,4.2,4.2,0,0,1,1.207,2.844l.016.578A4.418,4.418,0,0,1,109.3-1.02,3.775,3.775,0,0,1,106.383.156a3.793,3.793,0,0,1-2.918-1.172,4.5,4.5,0,0,1-1.09-3.187Zm2.258.16a3.16,3.16,0,0,0,.453,1.843,1.5,1.5,0,0,0,1.3.638,1.5,1.5,0,0,0,1.281-.63,3.457,3.457,0,0,0,.461-2.015,3.128,3.128,0,0,0-.461-1.831,1.5,1.5,0,0,0-1.3-.649,1.474,1.474,0,0,0-1.281.646A3.516,3.516,0,0,0,104.633-4.144ZM116.5-2.336a.727.727,0,0,0-.41-.652,4.659,4.659,0,0,0-1.316-.426q-3.016-.633-3.016-2.562a2.323,2.323,0,0,1,.934-1.879,3.766,3.766,0,0,1,2.441-.754,4.053,4.053,0,0,1,2.574.758,2.388,2.388,0,0,1,.965,1.969H116.41a1.092,1.092,0,0,0-.312-.8A1.322,1.322,0,0,0,115.121-7a1.351,1.351,0,0,0-.883.258.814.814,0,0,0-.312.656.7.7,0,0,0,.355.605,3.657,3.657,0,0,0,1.2.4A9.8,9.8,0,0,1,116.9-4.7a2.336,2.336,0,0,1,1.789,2.273A2.2,2.2,0,0,1,117.7-.559a4.28,4.28,0,0,1-2.562.715,4.47,4.47,0,0,1-1.887-.379,3.166,3.166,0,0,1-1.293-1.039,2.414,2.414,0,0,1-.469-1.426h2.141a1.179,1.179,0,0,0,.445.922,1.766,1.766,0,0,0,1.109.32,1.635,1.635,0,0,0,.98-.246A.766.766,0,0,0,116.5-2.336Zm6.5-8.2v2.078h1.445V-6.8h-1.445v4.219a1.007,1.007,0,0,0,.18.672.9.9,0,0,0,.688.2,3.6,3.6,0,0,0,.664-.055V-.047a4.648,4.648,0,0,1-1.367.2,2.156,2.156,0,0,1-2.422-2.4V-6.8H119.5V-8.453h1.234v-2.078ZM125.045-4.3a5.013,5.013,0,0,1,.484-2.242,3.546,3.546,0,0,1,1.395-1.523,4.069,4.069,0,0,1,2.113-.539,3.849,3.849,0,0,1,2.793,1.047,4.2,4.2,0,0,1,1.207,2.844l.016.578a4.418,4.418,0,0,1-1.086,3.121A3.775,3.775,0,0,1,129.052.156a3.793,3.793,0,0,1-2.918-1.172,4.5,4.5,0,0,1-1.09-3.187Zm2.258.16a3.16,3.16,0,0,0,.453,1.843,1.5,1.5,0,0,0,1.3.638,1.5,1.5,0,0,0,1.281-.63,3.457,3.457,0,0,0,.461-2.015,3.128,3.128,0,0,0-.461-1.831,1.5,1.5,0,0,0-1.3-.649,1.474,1.474,0,0,0-1.281.646A3.516,3.516,0,0,0,127.3-4.144Z" transform="translate(1516.76 -6425.635)" fill="#12263f"/>
      <path id="Path_184800" data-name="Path 184800" d="M4.952-5.307V0H1.182V-15.641H7.423a7.269,7.269,0,0,1,3.174.661,4.979,4.979,0,0,1,2.138,1.88,5.134,5.134,0,0,1,.757,2.766,4.526,4.526,0,0,1-1.638,3.658,6.8,6.8,0,0,1-4.5,1.37Zm0-2.911H7.423a2.33,2.33,0,0,0,1.67-.548,2.035,2.035,0,0,0,.575-1.547,2.516,2.516,0,0,0-.591-1.751,2.092,2.092,0,0,0-1.611-.666H4.952Zm17.413-.129-1.192-.086a2.142,2.142,0,0,0-2.191,1.074V0h-3.62V-11.623h3.395l.118,1.493a2.8,2.8,0,0,1,2.546-1.708,3.53,3.53,0,0,1,1.01.129ZM27.489,0H23.858V-11.623h3.631ZM23.644-14.631a1.63,1.63,0,0,1,.559-1.275,2.1,2.1,0,0,1,1.45-.5,2.1,2.1,0,0,1,1.45.5,1.63,1.63,0,0,1,.559,1.275,1.63,1.63,0,0,1-.559,1.275,2.1,2.1,0,0,1-1.45.5,2.1,2.1,0,0,1-1.45-.5A1.63,1.63,0,0,1,23.644-14.631Zm9.4,3.008.118,1.364a3.942,3.942,0,0,1,3.319-1.579,3.316,3.316,0,0,1,2.712,1.085,5.165,5.165,0,0,1,.929,3.266V0H36.491V-7.337a1.961,1.961,0,0,0-.354-1.294,1.64,1.64,0,0,0-1.289-.414,1.726,1.726,0,0,0-1.579.838V0h-3.62V-11.623Zm14,9.045a1.61,1.61,0,0,0,1.182-.414,1.517,1.517,0,0,0,.408-1.155h3.395a4.018,4.018,0,0,1-1.37,3.137A5.1,5.1,0,0,1,47.126.215a5.158,5.158,0,0,1-4-1.59,6.264,6.264,0,0,1-1.461-4.4v-.15a7.08,7.08,0,0,1,.65-3.11,4.732,4.732,0,0,1,1.875-2.073,5.589,5.589,0,0,1,2.9-.725,5.03,5.03,0,0,1,3.6,1.257,4.458,4.458,0,0,1,1.332,3.405H48.63a1.987,1.987,0,0,0-.44-1.386,1.52,1.52,0,0,0-1.182-.483q-1.407,0-1.644,1.794a12.659,12.659,0,0,0-.075,1.568,4.972,4.972,0,0,0,.419,2.428A1.45,1.45,0,0,0,47.04-2.578ZM57.374,0H53.743V-11.623h3.631ZM53.528-14.631a1.63,1.63,0,0,1,.559-1.275,2.1,2.1,0,0,1,1.45-.5,2.1,2.1,0,0,1,1.45.5,1.63,1.63,0,0,1,.559,1.275,1.63,1.63,0,0,1-.559,1.275,2.1,2.1,0,0,1-1.45.5,2.1,2.1,0,0,1-1.45-.5A1.63,1.63,0,0,1,53.528-14.631ZM70.394-5.726A7.009,7.009,0,0,1,69.174-1.4,3.909,3.909,0,0,1,65.882.215,3.351,3.351,0,0,1,63.25-.956V4.469H59.63V-11.623h3.384l.107,1.074a3.351,3.351,0,0,1,2.739-1.289A3.941,3.941,0,0,1,69.2-10.253,7.1,7.1,0,0,1,70.394-5.9Zm-3.62-.226q0-3.094-1.8-3.094a1.7,1.7,0,0,0-1.719.924v4.576a1.759,1.759,0,0,0,1.74.967q1.729,0,1.783-2.986ZM75.808,0H72.177V-11.623h3.631ZM71.962-14.631a1.63,1.63,0,0,1,.559-1.275,2.1,2.1,0,0,1,1.45-.5,2.1,2.1,0,0,1,1.45.5,1.63,1.63,0,0,1,.559,1.275,1.63,1.63,0,0,1-.559,1.275,2.1,2.1,0,0,1-1.45.5,2.1,2.1,0,0,1-1.45-.5A1.63,1.63,0,0,1,71.962-14.631ZM77.58-5.919a6.86,6.86,0,0,1,.677-3.1A4.84,4.84,0,0,1,80.2-11.107a5.856,5.856,0,0,1,2.976-.73,5.344,5.344,0,0,1,4.114,1.617,6.2,6.2,0,0,1,1.5,4.4v.129A6.019,6.019,0,0,1,87.286-1.38,5.359,5.359,0,0,1,83.2.215a5.42,5.42,0,0,1-3.985-1.488,5.819,5.819,0,0,1-1.622-4.034Zm3.62.226a4.325,4.325,0,0,0,.5,2.363,1.682,1.682,0,0,0,1.493.752q1.934,0,1.977-2.976v-.365q0-3.126-2-3.126-1.815,0-1.966,2.7Zm19.583,3.115a1.61,1.61,0,0,0,1.182-.414,1.517,1.517,0,0,0,.408-1.155h3.395A4.018,4.018,0,0,1,104.4-1.01,5.1,5.1,0,0,1,100.869.215a5.158,5.158,0,0,1-4-1.59,6.264,6.264,0,0,1-1.461-4.4v-.15a7.08,7.08,0,0,1,.65-3.11,4.732,4.732,0,0,1,1.875-2.073,5.589,5.589,0,0,1,2.9-.725,5.03,5.03,0,0,1,3.6,1.257,4.458,4.458,0,0,1,1.332,3.405h-3.395a1.987,1.987,0,0,0-.44-1.386,1.52,1.52,0,0,0-1.182-.483q-1.407,0-1.644,1.794a12.658,12.658,0,0,0-.075,1.568,4.972,4.972,0,0,0,.419,2.428A1.45,1.45,0,0,0,100.783-2.578Zm6.059-3.341a6.86,6.86,0,0,1,.677-3.1,4.84,4.84,0,0,1,1.944-2.089,5.856,5.856,0,0,1,2.976-.73,5.344,5.344,0,0,1,4.114,1.617,6.2,6.2,0,0,1,1.5,4.4v.129a6.019,6.019,0,0,1-1.509,4.313,5.359,5.359,0,0,1-4.087,1.6,5.42,5.42,0,0,1-3.985-1.488,5.819,5.819,0,0,1-1.622-4.034Zm3.62.226a4.325,4.325,0,0,0,.5,2.363,1.682,1.682,0,0,0,1.493.752q1.934,0,1.977-2.976v-.365q0-3.126-2-3.126-1.815,0-1.966,2.7Zm12.515-5.93.118,1.364a3.942,3.942,0,0,1,3.319-1.579,3.316,3.316,0,0,1,2.712,1.085,5.165,5.165,0,0,1,.929,3.266V0h-3.631V-7.337a1.961,1.961,0,0,0-.354-1.294,1.64,1.64,0,0,0-1.289-.414,1.726,1.726,0,0,0-1.579.838V0h-3.62V-11.623Zm13.3-2.89v2.89h1.912v2.514h-1.912v5.317a1.358,1.358,0,0,0,.236.913,1.268,1.268,0,0,0,.935.258,5.311,5.311,0,0,0,.9-.064V-.1a6.681,6.681,0,0,1-2.041.312,3.792,3.792,0,0,1-2.761-.881,3.61,3.61,0,0,1-.892-2.675V-9.109h-1.482v-2.514h1.482v-2.89ZM146.158,0a4.088,4.088,0,0,1-.344-1.042A3.366,3.366,0,0,1,143.021.215a4.124,4.124,0,0,1-2.793-.994,3.163,3.163,0,0,1-1.149-2.5,3.251,3.251,0,0,1,1.4-2.857,7.114,7.114,0,0,1,4.061-.967h1.117v-.615q0-1.608-1.386-1.608a1.133,1.133,0,0,0-1.289,1.274h-3.62a3.245,3.245,0,0,1,1.434-2.736,6.027,6.027,0,0,1,3.658-1.051,5.284,5.284,0,0,1,3.513,1.085,3.772,3.772,0,0,1,1.321,2.976v5.146a5.269,5.269,0,0,0,.494,2.449V0Zm-2.267-2.363a2.019,2.019,0,0,0,1.123-.29,1.818,1.818,0,0,0,.639-.655V-5.167H144.6q-1.891,0-1.891,1.7a1.036,1.036,0,0,0,.333.8A1.205,1.205,0,0,0,143.892-2.363Zm18.187-3.352A7.084,7.084,0,0,1,160.9-1.321a3.958,3.958,0,0,1-3.33,1.536,3.435,3.435,0,0,1-2.857-1.407L154.559,0h-3.244V-16.5h3.62v5.812a3.314,3.314,0,0,1,2.61-1.149A3.959,3.959,0,0,1,160.9-10.28,7.121,7.121,0,0,1,162.078-5.9Zm-3.631-.231A4.725,4.725,0,0,0,158-8.332a1.5,1.5,0,0,0-1.37-.713,1.733,1.733,0,0,0-1.7.933V-3.5a1.743,1.743,0,0,0,1.719.922,1.537,1.537,0,0,0,1.622-1.244A8.934,8.934,0,0,0,158.447-5.946ZM167.492,0h-3.631V-16.5h3.631Zm7.853.215a5.975,5.975,0,0,1-4.329-1.6,5.509,5.509,0,0,1-1.654-4.152v-.3a7.138,7.138,0,0,1,.661-3.147,4.834,4.834,0,0,1,1.928-2.111,5.821,5.821,0,0,1,3.008-.747,5.031,5.031,0,0,1,3.867,1.52,5.973,5.973,0,0,1,1.418,4.238v1.407h-7.2a2.609,2.609,0,0,0,.849,1.536,2.525,2.525,0,0,0,1.7.559,3.254,3.254,0,0,0,2.686-1.2l1.654,1.955a4.624,4.624,0,0,1-1.917,1.488A6.48,6.48,0,0,1,175.345.215Zm-.408-9.26q-1.59,0-1.891,2.105H176.7v-.279a1.793,1.793,0,0,0-.44-1.348A1.753,1.753,0,0,0,174.937-9.045Z" transform="translate(1292.665 -6569.954)" fill="#12263f"/>
      <rect id="Rectangle_38326" data-name="Rectangle 38326" width="117.857" height="1.362" transform="translate(1324.078 -6539.63)" fill="#42e0e6"/>
      <path id="Path_183795" data-name="Path 183795" d="M506.806,200.673h18.461a.883.883,0,0,1,.722,1.088q-.008,4.782,0,9.563h7.523a6.052,6.052,0,0,1,2.5.306,3.853,3.853,0,0,1,2.311,2.956,12.205,12.205,0,0,1,.057,1.689q0,8.4,0,16.792a.962.962,0,0,1-.249.77.749.749,0,0,1-1.059-.046l-.021-.025a1.041,1.041,0,0,1-.178-.692q0-8.892,0-17.784a2.365,2.365,0,0,0-2.266-2.462q-.1,0-.2,0-7.581,0-15.161,0a4.056,4.056,0,0,1,.795,2.465q0,15.682,0,31.365,8.418.009,16.834,0c.005-3.579,0-7.157,0-10.736a.81.81,0,0,1,.393-.775.746.746,0,0,1,1.012.3.713.713,0,0,1,.041.089,3.921,3.921,0,0,1,.057.981q0,5.385,0,10.77a.787.787,0,0,1-.7.863.847.847,0,0,1-.113,0q-9.093.009-18.186,0a.789.789,0,0,1-.839-.736.8.8,0,0,1,0-.13q0-14.136,0-28.272c-.949-.008-1.9.013-2.849-.011-.033,9.491,0,18.984-.015,28.476a3.761,3.761,0,0,1-.637,2.172,3.674,3.674,0,0,1-2.9,1.58H491.5a3.672,3.672,0,0,1-3.085-1.915,4.474,4.474,0,0,1-.436-2.329q.009-14.765,0-29.53a3.649,3.649,0,0,1,1.773-3.164,4.664,4.664,0,0,1,2.666-.516c.438.022,1-.105,1.3.3a.746.746,0,0,1-.424,1.172c-.688.088-1.386-.03-2.072.069a2.091,2.091,0,0,0-1.675,1.549,5.072,5.072,0,0,0-.074,1.181q.006,14.763,0,29.527a2.123,2.123,0,0,0,1,1.832,2.338,2.338,0,0,0,1.342.319c6.75-.006,13.5.006,20.251-.005a2.12,2.12,0,0,0,2.088-2.149q.008-15.058,0-30.117a2.125,2.125,0,0,0-1.144-1.939,3.578,3.578,0,0,0-1.733-.237H495.773a.788.788,0,0,1-.863-.614.754.754,0,0,1,.775-.882c5.3-.014,10.6,0,15.895-.007.336,0,.671.012,1.006.036A4.1,4.1,0,0,1,514.025,212a3.971,3.971,0,0,1,2.3-.678c2.72-.005,5.44,0,8.16,0q0-4.573,0-9.145-8.417,0-16.834,0,0,4.878,0,9.756a.794.794,0,0,1-.624.87.749.749,0,0,1-.862-.619.769.769,0,0,1-.01-.144c-.017-3.458,0-6.916-.008-10.375a.854.854,0,0,1,.663-.992m7.186,13.67a3.714,3.714,0,0,1,1.689,3.179c.952,0,1.9,0,2.858,0-.011-.84.019-1.682-.015-2.522a2.342,2.342,0,0,0-2.2-2.159,2.373,2.373,0,0,0-2.336,1.505" transform="translate(868 -6858)" fill="#12263f"/>
      <path id="Path_183796" data-name="Path 183796" d="M509.752,204.185c.7-.021,1.411-.022,2.115,0a.747.747,0,0,1,.678.81.731.731,0,0,1-.024.131.755.755,0,0,1-.738.545c-.66.008-1.322.013-1.982,0a.742.742,0,0,1-.049-1.483" transform="translate(868 -6858)" fill="#12263f"/>
      <path id="Path_183797" data-name="Path 183797" d="M514.3,204.192c2.55-.046,5.1,0,7.655-.022a1.2,1.2,0,0,1,.845.192.746.746,0,0,1,.076,1.052l-.014.015a.889.889,0,0,1-.707.248c-2.566,0-5.134,0-7.7-.005a.76.76,0,0,1-.759-.556.742.742,0,0,1,.53-.908.625.625,0,0,1,.075-.016" transform="translate(868 -6858)" fill="#12263f"/>
      <path id="Path_183798" data-name="Path 183798" d="M509.742,208.417c.648-.03,1.3-.007,1.947-.012a.8.8,0,0,1,.8.453.743.743,0,0,1-.618,1.033c-.523.035-1.05,0-1.574.015-.379,0-.856.04-1.1-.322a.744.744,0,0,1,.542-1.167" transform="translate(868 -6858)" fill="#12263f"/>
      <path id="Path_183799" data-name="Path 183799" d="M514.375,208.414c2.624-.022,5.249-.007,7.873-.008a.75.75,0,1,1,0,1.495c-2.567.007-5.134,0-7.7,0a.8.8,0,0,1-.827-.486.747.747,0,0,1,.658-1" transform="translate(868 -6858)" fill="#12263f"/>
      <path id="Path_183800" data-name="Path 183800" d="M522.186,215.136c.651-.022,1.3-.008,1.955-.007a.771.771,0,0,1,.8.556.743.743,0,0,1-.527.907.776.776,0,0,1-.135.022c-.677.026-1.354.012-2.031.007a.753.753,0,0,1-.76-.634.745.745,0,0,1,.631-.844.537.537,0,0,1,.069-.007" transform="translate(868 -6858)" fill="#12263f"/>
      <path id="Path_183801" data-name="Path 183801" d="M526.817,215.133c2.623-.014,5.247-.007,7.869,0a.754.754,0,0,1,.78.868.786.786,0,0,1-.868.628c-2.587,0-5.176.008-7.762-.005a.744.744,0,0,1-.019-1.488" transform="translate(868 -6858)" fill="#12263f"/>
      <path id="Path_183802" data-name="Path 183802" d="M491.652,216.8c6.641-.038,13.284,0,19.925-.018a1.124,1.124,0,0,1,.862.223,1.076,1.076,0,0,1,.234.852c-.011,2.372.012,4.743-.01,7.114a.76.76,0,0,1-.779.74h-.018q-9.971.014-19.939.005a.911.911,0,0,1-.766-.279,1,1,0,0,1-.179-.673c.005-2.372,0-4.746,0-7.118a.773.773,0,0,1,.666-.845m.835,1.49q0,2.961,0,5.923h18.68q0-2.964,0-5.925l-18.681,0" transform="translate(868 -6858)" fill="#12263f"/>
      <path id="Path_183803" data-name="Path 183803" d="M522.171,219.366c.654-.026,1.31-.009,1.965-.009a.768.768,0,0,1,.807.58.745.745,0,0,1-.56.894.677.677,0,0,1-.162.019c-.688.009-1.378.022-2.066-.007a.74.74,0,0,1,.016-1.477" transform="translate(868 -6858)" fill="#12263f"/>
      <path id="Path_183804" data-name="Path 183804" d="M526.811,219.362c2.53-.02,5.062,0,7.592-.01a1.215,1.215,0,0,1,.8.174.751.751,0,0,1,.1,1.056l-.028.032a.965.965,0,0,1-.778.245c-2.537-.006-5.073,0-7.609,0a.758.758,0,0,1-.793-.62.745.745,0,0,1,.607-.861.66.66,0,0,1,.108-.011" transform="translate(868 -6858)" fill="#12263f"/>
      <path id="Path_183805" data-name="Path 183805" d="M507.862,221.849c.481-.039.965-.007,1.447-.018a.927.927,0,0,1,.85.32.746.746,0,0,1-.353,1.13,7.485,7.485,0,0,1-1.389.056c-.38.009-.852.025-1.082-.341a.745.745,0,0,1,.527-1.147" transform="translate(868 -6858)" fill="#12263f"/>
      <path id="Path_183806" data-name="Path 183806" d="M521.983,223.633a11.828,11.828,0,0,1,1.653-.048c.381.01.838-.071,1.127.241a.747.747,0,0,1-.34,1.222,15.965,15.965,0,0,1-1.681.039c-.379,0-.854.056-1.108-.3a.745.745,0,0,1,.349-1.158" transform="translate(868 -6858)" fill="#12263f"/>
      <path id="Path_183807" data-name="Path 183807" d="M526.542,223.648a1.7,1.7,0,0,1,.549-.064c2.536.008,5.074-.007,7.612.008a.745.745,0,0,1,.055,1.489.577.577,0,0,1-.059,0c-2.6.01-5.2.005-7.8,0a.769.769,0,0,1-.777-.514.748.748,0,0,1,.422-.921" transform="translate(868 -6858)" fill="#12263f"/>
      <path id="Path_183808" data-name="Path 183808" d="M491.684,227.393c6.632-.028,13.266,0,19.9-.014a1.078,1.078,0,0,1,.881.249.939.939,0,0,1,.208.7q0,9.384,0,18.768c-.009.33.047.718-.207.978a.861.861,0,0,1-.679.246q-9.781,0-19.562,0c-.341-.007-.743.047-1.007-.218a.919.919,0,0,1-.235-.712q0-9.584,0-19.165a.772.772,0,0,1,.7-.83m.805,1.493c0,1.711,0,3.422,0,5.132,1.7.013,3.391,0,5.087,0q0-2.569,0-5.137-2.542,0-5.083,0m6.585,5.137h5.506q.006-2.569,0-5.138c-1.833-.005-3.665.008-5.5-.007-.022,1.714,0,3.429-.009,5.144m7.009,0h5.084c0-1.712,0-3.422.005-5.134-1.7-.014-3.388,0-5.082-.009-.017,1.714,0,3.428-.007,5.142m-13.594,1.505q0,2.323,0,4.646,2.541,0,5.085,0,0-2.323,0-4.646-2.542,0-5.083,0m6.583,0q0,2.32,0,4.641,2.756,0,5.51,0,0-2.323,0-4.646c-1.836,0-3.672-.007-5.509,0m7.01,0c0,1.547,0,3.094,0,4.642,1.7.007,3.392,0,5.088,0q0-2.323,0-4.646c-1.7,0-3.39,0-5.086,0m-13.594,6.145q0,2.571,0,5.141,2.541,0,5.083,0,0-2.571,0-5.141-2.542,0-5.084,0m6.585,0q0,2.571,0,5.14,2.754,0,5.508,0,0-2.571,0-5.141h-5.508m7.009,0c.013,1.717-.024,3.436.018,5.152,1.689-.026,3.378,0,5.068-.011v-5.141q-2.544,0-5.086,0" transform="translate(868 -6858)" fill="#12263f"/>
      <path id="Path_183809" data-name="Path 183809" d="M521.9,227.894a2.754,2.754,0,0,1,.95-.081c.494.014.989-.026,1.481.021a.741.741,0,0,1-.1,1.474c-.664.018-1.328.013-1.991,0a.756.756,0,0,1-.738-.542.747.747,0,0,1,.393-.875" transform="translate(868 -6858)" fill="#12263f"/>
      <path id="Path_183810" data-name="Path 183810" d="M526.534,227.88a1.626,1.626,0,0,1,.559-.068c2.533.008,5.066-.006,7.6.007a.753.753,0,0,1,.7,1.094.957.957,0,0,1-.99.406c-2.471-.005-4.943,0-7.415,0a.859.859,0,0,1-.72-.265.75.75,0,0,1,.269-1.172" transform="translate(868 -6858)" fill="#12263f"/>
      <path id="Path_183811" data-name="Path 183811" d="M521.89,232.13a3.07,3.07,0,0,1,1.053-.085,11.688,11.688,0,0,1,1.486.04.747.747,0,0,1,.42,1.112.961.961,0,0,1-.922.351c-.627-.022-1.258.039-1.881-.033a.746.746,0,0,1-.156-1.385" transform="translate(868 -6858)" fill="#12263f"/>
      <path id="Path_183812" data-name="Path 183812" d="M526.528,232.113a1.351,1.351,0,0,1,.468-.068h7.6a.864.864,0,0,1,.679.241.748.748,0,0,1-.039,1.057l-.04.034a1.224,1.224,0,0,1-.79.17c-2.5-.007-5.008,0-7.512-.005a.763.763,0,0,1-.811-.767.754.754,0,0,1,.446-.663" transform="translate(868 -6858)" fill="#12263f"/>
      <path id="Path_183813" data-name="Path 183813" d="M528.258,236.642c0-.3.167-.651.513-.656a.564.564,0,0,1,.555.618,2.863,2.863,0,0,1,1.4.432c.506.317.116,1.289-.471,1.146a6.2,6.2,0,0,0-.941-.344q0,.926,0,1.851a2.926,2.926,0,0,1,1.605,1.2,2.3,2.3,0,0,1-.556,2.766,3.1,3.1,0,0,1-1.044.489.559.559,0,0,1-.446.6c-.352.082-.567-.272-.624-.565a2.62,2.62,0,0,1-1.93-.886.757.757,0,0,1,.469-1.186c.544.155.908.683,1.492.766,0-.7.005-1.389,0-2.084a2.98,2.98,0,0,1-1.7-1.178,2.023,2.023,0,0,1,.467-2.444,2.755,2.755,0,0,1,1.219-.527m-.563,1.851c-.059.391.27.66.583.81,0-.47.005-.94,0-1.41-.263.109-.57.278-.583.6m1.621,2.743c-.007.511-.005,1.021,0,1.532a.757.757,0,0,0,.482-.908.966.966,0,0,0-.481-.624" transform="translate(868 -6858)" fill="#12263f"/>
    </g>
  </g>
</svg>
