<svg xmlns="http://www.w3.org/2000/svg" width="46.081" height="50" viewBox="0 0 46.081 50">
  <g id="t4-ico1" transform="translate(-20.087)">
    <path id="Path_181650" data-name="Path 181650" d="M82.92,0H93.811a2.562,2.562,0,0,1,1.284.569,2.378,2.378,0,0,1,.815,1.873q0,4.736,0,9.471a6.188,6.188,0,0,1-.084,1.46A2.344,2.344,0,0,1,94.2,15.019a5.256,5.256,0,0,1-1.373.094q-4.786-.006-9.569,0a2.409,2.409,0,0,1-1.593-.529A2.36,2.36,0,0,1,80.8,12.7q0-5.175,0-10.352A2.379,2.379,0,0,1,82.92,0m-.654,2.443q0,5.123,0,10.244a.89.89,0,0,0,.893.955c2.313.008,4.626,0,6.938,0,.268.041.41-.22.578-.377q1.878-1.991,3.766-3.97c.01-2.255,0-4.509.006-6.764a1.02,1.02,0,0,0-.295-.844,1.132,1.132,0,0,0-.835-.229c-3.388.01-6.777-.006-10.165.008a.89.89,0,0,0-.887.974m10.068,11.2c.427,0,.854.017,1.281-.009a.855.855,0,0,0,.813-.754c.042-.485.007-.974.015-1.461Q93.389,12.534,92.334,13.646Z" transform="translate(-54.784)" fill="#f9b131"/>
    <path id="Path_181651" data-name="Path 181651" d="M187.385,0h11.073a3.935,3.935,0,0,1,2.59,1.275A3.869,3.869,0,0,1,202.04,3.9q0,7.042,0,14.084a2.826,2.826,0,0,1,1.867.549,2.725,2.725,0,0,1,1.049,2.162c0,2.994,0,5.988,0,8.982a11.123,11.123,0,0,1-2.361,7.135,6.731,6.731,0,0,0-1.763,3.516c-.024,1.146,0,2.294-.009,3.441.326.032.714-.041.977.2a1.051,1.051,0,0,1,.244.843q-.009,2.051,0,4.1a1.787,1.787,0,0,1-.092.689.909.909,0,0,1-.52.389H193.27a.8.8,0,0,1-.592-.579.73.73,0,0,1,.75-.881c2.382-.014,4.765,0,7.147,0,0-1.094,0-2.187,0-3.281H187.967c0,1.094,0,2.187,0,3.28.72.018,1.442-.032,2.161.02a.719.719,0,0,1,.586.953c-.068.254-.313.385-.532.493h-3.065a.767.767,0,0,1-.61-.775c-.017-1.436.006-2.872-.01-4.309.01-.32-.028-.708.244-.938.263-.246.651-.172.979-.2a10,10,0,0,0-.085-1.785,7.214,7.214,0,0,0-.416-1.184,7.635,7.635,0,0,1,.981-7.083c.877-1.229,2.248-1.99,3.121-3.221a2.872,2.872,0,0,0,.508-1.289q.183-1.192.372-2.382h-2.264a7.245,7.245,0,0,1-.043.811,1.609,1.609,0,0,1-.9,1.205c-.382.176-.811.218-1.192.394-.051.253.147.458.251.67a1.9,1.9,0,0,1,.35,1.336,1.975,1.975,0,0,1-.667,1.133,2.618,2.618,0,0,1-1.425.961,2.063,2.063,0,0,1-1.462-.421c-.169-.073-.356-.253-.546-.17a10.744,10.744,0,0,1-.5,1.378,1.638,1.638,0,0,1-1.387.735,2.722,2.722,0,0,1-2.159-.478c-.5-.44-.432-1.168-.769-1.694-.591.208-1.086.718-1.753.669-.815,0-1.338-.7-1.857-1.23a1.654,1.654,0,0,1-.222-1.972c.133-.3.417-.566.4-.914a6.444,6.444,0,0,1-1.5-.583,1.653,1.653,0,0,1-.63-1.308,2.8,2.8,0,0,1,.437-2.114c.424-.5,1.118-.507,1.679-.752,0-.037.017-.112.022-.149-.213-.556-.687-1.035-.633-1.671,0-.742.6-1.238,1.083-1.715a1.762,1.762,0,0,1,1.22-.589,2.374,2.374,0,0,1,1.33.474c.151.073.313.207.491.136.229-.5.234-1.106.614-1.535a1.7,1.7,0,0,1,1.369-.582,3.636,3.636,0,0,1,1.662.189,2.331,2.331,0,0,1,.739.713c-.02-2-.015-3.994,0-5.991a.729.729,0,0,1,1.008-.668.822.822,0,0,1,.453.87c-.007,2.169,0,4.339-.007,6.508a2.273,2.273,0,0,1,1.045-.072,2.812,2.812,0,0,1,1.306.938,1.926,1.926,0,0,1,.682,1.227,2.14,2.14,0,0,1-.433,1.366c-.083.172-.24.349-.172.552.376.174.8.212,1.176.386a2.548,2.548,0,0,1,.632.488c1.027.014,2.056.009,3.083,0a2.344,2.344,0,0,1,3.635,0,7.719,7.719,0,0,0,2.856-.192c.155-1.323.3-2.646.449-3.97a5.211,5.211,0,0,1,.322-1.7,3.719,3.719,0,0,1,.614-.849q.007-6.277,0-12.554H185.382c-.007,1.384.013,2.768-.006,4.15a.731.731,0,0,1-.946.719.767.767,0,0,1-.513-.809c0-2.12,0-4.239,0-6.359a3.832,3.832,0,0,1,1.057-2.6A4.056,4.056,0,0,1,187.385,0m-1.773,2.829a3.9,3.9,0,0,0-.229,1.806h15.191a3.819,3.819,0,0,0-.246-1.839,2.4,2.4,0,0,0-2.2-1.331q-5.175,0-10.35,0a2.391,2.391,0,0,0-2.168,1.362m15.864,17.126a2.343,2.343,0,0,0-.377,1.328c-.312,2.772-.615,5.547-.937,8.318a5.144,5.144,0,0,1-3.5,4.2c-.276.1-.6.111-.814.34q-.8.812-1.6,1.624a.959.959,0,0,1-.6.346.734.734,0,0,1-.785-.762.935.935,0,0,1,.35-.626c.521-.519,1.044-1.035,1.561-1.559a1.87,1.87,0,0,0,.562-1.328c.008-1.595,0-3.189,0-4.784a1.065,1.065,0,0,0-.254-.861.808.808,0,0,0-1.319.279c-.26,1.2-.344,2.425-.627,3.615-.524,1.618-2,2.616-3.133,3.785a6.107,6.107,0,0,0-1.582,5.884c.128.563.413,1.069.595,1.613a8.441,8.441,0,0,1,.169,2.425q5.087,0,10.175,0c0-1.089,0-2.178,0-3.266a5,5,0,0,1,.476-2.112,22.182,22.182,0,0,1,2.048-3.114,9.5,9.5,0,0,0,1.549-4.254A18.194,18.194,0,0,0,203.491,29q0-4.1,0-8.209a1.287,1.287,0,0,0-.392-1.06,1.189,1.189,0,0,0-1.624.219m-20.129.387-.062.014a5.77,5.77,0,0,1-.566,1.479,1.676,1.676,0,0,1-2.051.457,4.476,4.476,0,0,0-.94-.464,5.579,5.579,0,0,0-.831.832c.023.326.293.584.421.881a1.68,1.68,0,0,1-.419,2.114c-.417.35-.989.352-1.468.569a3.069,3.069,0,0,0-.01,1.266,11.377,11.377,0,0,1,1.312.456,1.686,1.686,0,0,1,.649,2.1,6.713,6.713,0,0,0-.5,1,5.753,5.753,0,0,0,.838.837c.352-.039.626-.325.95-.459a1.681,1.681,0,0,1,2.158.619,10.774,10.774,0,0,1,.451,1.309,4.25,4.25,0,0,0,1.225.028,4.321,4.321,0,0,0,.351-1.018,1.679,1.679,0,0,1,2.246-.968c.348.137.637.435,1.01.491a5.916,5.916,0,0,0,.839-.838,4.823,4.823,0,0,0-.472-.948,1.675,1.675,0,0,1,.515-2.082,7.147,7.147,0,0,1,1.426-.527,3.741,3.741,0,0,0,0-1.265,6.683,6.683,0,0,1-1.431-.529,1.677,1.677,0,0,1-.5-2.087c.133-.323.42-.6.457-.948a5.612,5.612,0,0,0-.831-.83,4.289,4.289,0,0,0-.944.461,1.711,1.711,0,0,1-2.229-.748c-.183-.377-.218-.8-.387-1.186a4.287,4.287,0,0,0-1.2-.017M196.8,26.831c-.017,1.781.009,3.563-.014,5.344a3.751,3.751,0,0,0,1.9-2.67c.132-.914.208-1.835.321-2.75A12.679,12.679,0,0,1,196.8,26.831Z" transform="translate(-138.793)" fill="#f9b131"/>
    <path id="Path_181652" data-name="Path 181652" d="M118.963,40.318c2-.051,4.011,0,6.017-.023.315.01.689-.046.937.2a.737.737,0,0,1-.014,1.083,1.17,1.17,0,0,1-.817.189c-1.955-.009-3.91,0-5.865,0a.772.772,0,0,1-.771-.427A.728.728,0,0,1,118.963,40.318Z" transform="translate(-88.694 -36.359)" fill="#f9b131"/>
    <path id="Path_181653" data-name="Path 181653" d="M118.893,75.95a2.57,2.57,0,0,1,.659-.05c1.24.012,2.481-.007,3.721.008a.722.722,0,0,1,.742.684.731.731,0,0,1-.738.771c-1.24.019-2.48,0-3.721.01-.321,0-.7.029-.937-.237A.736.736,0,0,1,118.893,75.95Z" transform="translate(-88.734 -68.488)" fill="#f9b131"/>
    <path id="Path_181654" data-name="Path 181654" d="M307.057,79.836a24.119,24.119,0,0,1,2.509-.055c.39.024.863-.095,1.172.213.27.247.214.645.224.975-.01.78,0,1.562,0,2.343a.8.8,0,0,1-.265.66,1.232,1.232,0,0,1-.831.177c-.819-.01-1.639,0-2.457,0a.757.757,0,0,1-.751-.455,3.153,3.153,0,0,1-.059-.868c.014-.778-.015-1.557.01-2.333a.715.715,0,0,1,.452-.651m1.006,1.412q0,.715,0,1.431.715,0,1.432,0c0-.478,0-.954,0-1.431Z" transform="translate(-258.528 -71.983)" fill="#f9b131"/>
    <path id="Path_181655" data-name="Path 181655" d="M365.721,94.718a1.572,1.572,0,0,1,.64-.088c1.467.007,2.933,0,4.4,0a.907.907,0,0,1,.7.218.733.733,0,0,1-.034,1.068,1.064,1.064,0,0,1-.762.184c-1.532-.011-3.065,0-4.6-.007a.729.729,0,0,1-.345-1.377Z" transform="translate(-311.524 -85.389)" fill="#f9b131"/>
    <path id="Path_181656" data-name="Path 181656" d="M307.068,141.906a24.841,24.841,0,0,1,2.5-.055c.385.024.848-.09,1.159.2a1.1,1.1,0,0,1,.237.882c-.009.814,0,1.628,0,2.442a.806.806,0,0,1-.258.662,1.068,1.068,0,0,1-.742.18c-.814-.006-1.63,0-2.444,0a.892.892,0,0,1-.71-.229,1.062,1.062,0,0,1-.209-.808c.01-.845,0-1.69,0-2.536a.744.744,0,0,1,.463-.739m1,1.413v1.431c.478,0,.955,0,1.433,0,0-.477,0-.953,0-1.43Z" transform="translate(-258.534 -127.993)" fill="#f9b131"/>
    <path id="Path_181657" data-name="Path 181657" d="M365.808,141.949a3.219,3.219,0,0,1,.757-.049c1.465.014,2.93-.011,4.395.011a.726.726,0,0,1,.7.877.745.745,0,0,1-.787.579c-1.567,0-3.135,0-4.7,0a.773.773,0,0,1-.756-.387A.733.733,0,0,1,365.808,141.949Z" transform="translate(-311.522 -128.043)" fill="#f9b131"/>
    <path id="Path_181658" data-name="Path 181658" d="M365.728,171.652a1.9,1.9,0,0,1,.742-.082c.781.014,1.563-.012,2.344.01a.726.726,0,0,1,0,1.451c-.883.018-1.766,0-2.647.007a.777.777,0,0,1-.747-.38A.735.735,0,0,1,365.728,171.652Z" transform="translate(-311.527 -154.815)" fill="#f9b131"/>
    <path id="Path_181659" data-name="Path 181659" d="M21.154,185.663a2.88,2.88,0,0,1,3.257.069,2.324,2.324,0,0,1,.892,1.589c.313,2.928.656,5.852.978,8.778a4.409,4.409,0,0,0,.387,1.519,3.9,3.9,0,0,0,1.587,1.668c-.016-1.711,0-3.422-.01-5.132a2.663,2.663,0,0,1,.3-1.4,2.265,2.265,0,0,1,4.162.464c.249,1.142.352,2.312.582,3.457a2.362,2.362,0,0,0,.737,1.213c.622.615,1.235,1.238,1.86,1.851.205.211.455.452.422.775a.732.732,0,0,1-.7.689c-.319.026-.555-.222-.765-.423-.531-.542-1.066-1.077-1.6-1.611A5.543,5.543,0,0,1,32.245,198a3.83,3.83,0,0,1-.466-1.4c-.136-.863-.272-1.727-.4-2.591a1.2,1.2,0,0,0-.324-.78.855.855,0,0,0-1.226.228,1.724,1.724,0,0,0-.12.791c.012,1.531,0,3.063,0,4.594a1.816,1.816,0,0,0,.574,1.406c.483.5.966.992,1.459,1.479a1.163,1.163,0,0,1,.439.728.733.733,0,0,1-.679.758.9.9,0,0,1-.7-.343c-.521-.523-1.033-1.059-1.556-1.58a2.433,2.433,0,0,0-1.023-.442,5.183,5.183,0,0,1-3.388-4.5c-.309-2.784-.627-5.566-.934-8.35a1.623,1.623,0,0,0-.388-.994,1.2,1.2,0,0,0-1.567-.157,1.272,1.272,0,0,0-.395,1.05c0,3.1,0,6.194,0,9.292a9.5,9.5,0,0,0,1.723,5.383,16.329,16.329,0,0,1,2.053,3.232,5.027,5.027,0,0,1,.355,1.921c0,1.056,0,2.111,0,3.167H35.86a10.484,10.484,0,0,1,.1-2.144,13.253,13.253,0,0,1,.544-1.485,6.122,6.122,0,0,0,.169-3.351.964.964,0,0,1,.117-.953.732.732,0,0,1,1.231.3,7.6,7.6,0,0,1-.161,4.573,7.7,7.7,0,0,0-.516,1.467,11.067,11.067,0,0,0-.017,1.579c.327.032.717-.042.979.206a1.053,1.053,0,0,1,.241.841q-.007,2.054,0,4.106a1.747,1.747,0,0,1-.1.692.917.917,0,0,1-.515.381H23.614a.9.9,0,0,1-.523-.386,1.743,1.743,0,0,1-.092-.681q.01-2.054,0-4.106a1.054,1.054,0,0,1,.244-.85c.262-.246.65-.172.977-.2q0-1.528,0-3.055a3.91,3.91,0,0,0-.264-1.533,12.807,12.807,0,0,0-1.729-2.663,10.971,10.971,0,0,1-2.071-5.282,20.151,20.151,0,0,1-.07-2.329c0-2.769-.006-5.538,0-8.307a2.448,2.448,0,0,1,1.063-2.049m3.315,26.7c0,1.094,0,2.188,0,3.282H37.077c0-1.094,0-2.188,0-3.282Q30.772,212.364,24.47,212.361Z" transform="translate(0 -167.108)" fill="#f9b131"/>
    <path id="Path_181660" data-name="Path 181660" d="M223.35,239.662a3.463,3.463,0,1,1-2.364,1.731,3.484,3.484,0,0,1,2.364-1.731m.027,1.5a2,2,0,1,0,2.481,1.111A2.01,2.01,0,0,0,223.378,241.166Z" transform="translate(-180.895 -216.2)" fill="#f9b131"/>
  </g>
</svg>
