<svg xmlns="http://www.w3.org/2000/svg" width="55.802" height="50" viewBox="0 0 55.802 50">
  <g id="t4-ico2" transform="translate(0 -26.598)">
    <path id="Path_181661" data-name="Path 181661" d="M3.749,28.317a1.759,1.759,0,0,1,1.7-1.706c1.272-.014,2.545-.01,3.817,0a.819.819,0,0,1,.86.906.81.81,0,0,1-.789.715c-1.319.044-2.641-.038-3.958.04q0,1.617,0,3.235,22.523,0,45.045,0c0-1.078,0-2.156,0-3.233a7.72,7.72,0,0,0-1.053-.033q-18.036,0-36.073,0a.863.863,0,0,1-.972-.725.845.845,0,0,1,.963-.91q18.477,0,36.954,0a1.764,1.764,0,0,1,1.8,1.624c.033,1.218,0,2.439.012,3.658a1.742,1.742,0,0,0,.293.82c1.086,2.148,2.16,4.3,3.246,6.449a2.286,2.286,0,0,1,.2.909v2a8.83,8.83,0,0,1-.28,2.193A4.738,4.738,0,0,1,51.9,47.432q0,11.339,0,22.68a5.725,5.725,0,0,1,2.445.266,2.625,2.625,0,0,1,1.462,2.24v2.652a1.36,1.36,0,0,1-1.412,1.323q-26.376.02-52.755.007a1.749,1.749,0,0,1-1.083-.265A1.4,1.4,0,0,1,0,75.267V72.636a2.619,2.619,0,0,1,1.459-2.258,5.718,5.718,0,0,1,2.447-.267q0-11.339,0-22.68a4.745,4.745,0,0,1-3.42-2.648A6.363,6.363,0,0,1,0,42.3V40.384a3,3,0,0,1,.21-1.239C1.295,37,2.366,34.854,3.448,32.712a1.769,1.769,0,0,0,.3-.82c0-1.192-.012-2.384.005-3.575M2.188,38.858c1.941,0,3.882,0,5.824,0,.681-1.905,1.369-3.808,2.05-5.713q-2.5,0-5,0Q3.623,36,2.188,38.858M11.8,33.141Q10.775,36,9.749,38.858q2.951,0,5.9,0c.407-1.906.829-3.809,1.227-5.718-1.693,0-3.384,0-5.077,0m6.754,0Q17.941,36,17.327,38.858q2.974,0,5.949,0,.206-2.858.411-5.716-2.565,0-5.131,0m6.363,5.716q2.984,0,5.966,0c-.138-1.906-.266-3.814-.414-5.72-1.714.007-3.429,0-5.143,0q-.206,2.858-.409,5.716m7.2-5.716q.2,2.859.411,5.716,2.975,0,5.949,0Q37.862,36,37.247,33.141q-2.567,0-5.131,0m8.032,5.716q2.953,0,5.905,0Q45.028,36,44,33.141q-2.541,0-5.08,0,.61,2.859,1.227,5.716m5.591-5.715Q46.763,36,47.791,38.856c1.941.005,3.882,0,5.823,0Q52.177,36,50.738,33.139c-1.665,0-3.332,0-5,0M1.676,40.495c0,.759-.007,1.516,0,2.275a3.177,3.177,0,0,0,.473,1.672A3.035,3.035,0,0,0,7.746,43.1c.05-.868.01-1.737.023-2.6q-3.047,0-6.092,0m7.727,0c.005.795-.011,1.589.008,2.384a3.037,3.037,0,0,0,6.074,0c.019-.795,0-1.589.008-2.384q-3.044,0-6.089,0m7.725,0c.005.8-.013,1.595.009,2.391a3.036,3.036,0,0,0,6.059.231c.053-.873.012-1.748.024-2.622q-3.046,0-6.091,0m7.728,0c.017.911-.043,1.827.037,2.736a3.034,3.034,0,0,0,6.014,0c.078-.908.02-1.823.037-2.733q-3.044,0-6.088,0m7.725,0c0,.8-.013,1.6.008,2.392a3.037,3.037,0,0,0,6.07.092c.033-.827.005-1.656.014-2.484q-3.046,0-6.091,0m7.727,0c0,.795-.012,1.589.008,2.382a3.036,3.036,0,0,0,6.067.1c.032-.826.005-1.653.014-2.481q-3.046,0-6.089,0m7.724,0c.005.792-.011,1.585.008,2.377a3.038,3.038,0,0,0,6.074.069c.027-.814,0-1.63.011-2.446q-3.046,0-6.092,0M5.542,47.432q0,11.341,0,22.68.729,0,1.456,0,0-8.768,0-17.533a2.547,2.547,0,0,1,.218-1.4A1.54,1.54,0,0,1,8.6,50.43c3.129,0,6.259-.008,9.388,0a1.524,1.524,0,0,1,1.5,1.5c.01,6.058,0,12.116,0,18.175q15.384,0,30.768,0,0-11.339,0-22.677a4.945,4.945,0,0,1-3.043-1.969,4.681,4.681,0,0,1-7.722,0,4.69,4.69,0,0,1-7.731,0,4.684,4.684,0,0,1-7.726,0,4.687,4.687,0,0,1-7.728,0,4.682,4.682,0,0,1-7.724,0,4.935,4.935,0,0,1-3.044,1.967m3.092,4.632q0,9.024,0,18.047,4.612,0,9.223,0,0-9.024,0-18.047H8.634M2.03,71.941a.968.968,0,0,0-.39.792c-.014.742,0,1.484,0,2.228H54.166c-.008-.774.02-1.548-.012-2.32a.978.978,0,0,0-1.068-.893q-24.961,0-49.924,0A1.85,1.85,0,0,0,2.03,71.941Z" fill="#f9b131"/>
    <path id="Path_181662" data-name="Path 181662" d="M194.375,246.73a1.518,1.518,0,0,1,1.475-1.492c3.233-.015,6.465,0,9.7-.008a1.142,1.142,0,0,1,.837.219.814.814,0,0,1,.031,1.168.981.981,0,0,1-.754.251c-3.22,0-6.439-.01-9.659.005.009,4.285,0,8.571,0,12.856q11.782,0,23.563,0,0-6.431,0-12.862c-3.26,0-6.521,0-9.781,0a.819.819,0,1,1-.008-1.63q4.96,0,9.919,0a1.524,1.524,0,0,1,1.5,1.506q.01,6.533,0,13.068a1.541,1.541,0,0,1-1.6,1.554q-11.828,0-23.658,0a1.575,1.575,0,0,1-1.579-1.773C194.376,255.3,194.363,251.016,194.375,246.73Z" transform="translate(-173.172 -194.803)" fill="#f9b131"/>
    <path id="Path_181663" data-name="Path 181663" d="M136.409,326.417a.809.809,0,0,1,1.118.459,5.369,5.369,0,0,1,.057,1.162c-.008.392.062.865-.26,1.162a.817.817,0,0,1-1.321-.32,8.634,8.634,0,0,1-.056-1.5A.929.929,0,0,1,136.409,326.417Z" transform="translate(-121.125 -267.066)" fill="#f9b131"/>
  </g>
</svg>
