<svg id="t4-ico3" xmlns="http://www.w3.org/2000/svg" width="37.653" height="50" viewBox="0 0 37.653 50">
  <path id="Path_152263" data-name="Path 152263" d="M259.476,109.715h9.469a.681.681,0,0,0,0-1.362h-9.469a.681.681,0,0,0,0,1.362Z" transform="translate(-239.695 -97.772)" fill="#f9b131"/>
  <path id="Path_152264" data-name="Path 152264" d="M258.8,141.669a.681.681,0,0,0,.681.681h9.469a.681.681,0,1,0,0-1.362h-9.469A.681.681,0,0,0,258.8,141.669Z" transform="translate(-239.695 -127.22)" fill="#f9b131"/>
  <path id="Path_152265" data-name="Path 152265" d="M259.476,174.986h9.469a.681.681,0,0,0,0-1.363h-9.469a.681.681,0,0,0,0,1.363Z" transform="translate(-239.695 -156.668)" fill="#f9b131"/>
  <path id="Path_152266" data-name="Path 152266" d="M275.786,356.434a.681.681,0,0,0-.681-.681h-8.8a.681.681,0,1,0,0,1.362h8.8A.681.681,0,0,0,275.786,356.434Z" transform="translate(-245.855 -321.012)" fill="#f9b131"/>
  <path id="Path_152267" data-name="Path 152267" d="M118.41,288.36a.681.681,0,0,0-.681-.681h-9.469a.681.681,0,0,0,0,1.363h9.469A.681.681,0,0,0,118.41,288.36Z" transform="translate(-103.246 -259.585)" fill="#f9b131"/>
  <path id="Path_152268" data-name="Path 152268" d="M108.259,256.408h9.469a.681.681,0,1,0,0-1.362h-9.469a.681.681,0,0,0,0,1.362Z" transform="translate(-103.246 -230.138)" fill="#f9b131"/>
  <path id="Path_152269" data-name="Path 152269" d="M107.142,72.694a7.061,7.061,0,1,0,7.061,7.061A7.069,7.069,0,0,0,107.142,72.694Zm0,12.657a5.6,5.6,0,0,1-.732-11.144v5.548a.732.732,0,0,0,.732.732h5.548A5.6,5.6,0,0,1,107.142,85.351Zm.732-6.328V74.207a5.608,5.608,0,0,1,4.816,4.816Z" transform="translate(-96.481 -65.595)" fill="#f9b131"/>
  <path id="Path_152270" data-name="Path 152270" d="M236.417,233.889v6.54a1.188,1.188,0,0,0,1.187,1.187H248.98a1.188,1.188,0,0,0,1.187-1.187v-6.54a1.188,1.188,0,0,0-1.187-1.187H237.6A1.188,1.188,0,0,0,236.417,233.889Zm1.465.278H248.7v5.984h-10.82Z" transform="translate(-219.503 -209.977)" fill="#f9b131"/>
  <path id="Path_152271" data-name="Path 152271" d="M100.078,347.2a1.188,1.188,0,0,0,1.187,1.187h1.99a1.188,1.188,0,0,0,1.187-1.187v-9.935a1.188,1.188,0,0,0-1.187-1.187h-1.99a1.188,1.188,0,0,0-1.187,1.187Zm1.465-9.657h1.434v9.379h-1.434Z" transform="translate(-96.478 -303.262)" fill="#f9b131"/>
  <path id="Path_152272" data-name="Path 152272" d="M156.635,362.775a1.188,1.188,0,0,0-1.187,1.187v7.328a1.188,1.188,0,0,0,1.187,1.187h1.99a1.188,1.188,0,0,0,1.187-1.187v-7.328a1.188,1.188,0,0,0-1.187-1.187Zm1.712,8.237h-1.434V364.24h1.434Z" transform="translate(-146.441 -327.348)" fill="#f9b131"/>
  <path id="Path_152273" data-name="Path 152273" d="M212,402.485h1.99a1.188,1.188,0,0,0,1.187-1.187v-4.081a1.188,1.188,0,0,0-1.187-1.187H212a1.188,1.188,0,0,0-1.187,1.187V401.3A1.188,1.188,0,0,0,212,402.485Zm.278-4.989h1.434v3.524h-1.434Z" transform="translate(-196.404 -357.356)" fill="#f9b131"/>
  <path id="Path_152274" data-name="Path 152274" d="M275.1,390.03h-8.8a.681.681,0,0,0,0,1.363h8.8a.681.681,0,1,0,0-1.363Z" transform="translate(-245.854 -351.941)" fill="#f9b131"/>
  <path id="Path_152275" data-name="Path 152275" d="M275.1,424.307h-8.8a.681.681,0,1,0,0,1.362h8.8a.681.681,0,1,0,0-1.362Z" transform="translate(-245.854 -382.871)" fill="#f9b131"/>
  <path id="Path_152276" data-name="Path 152276" d="M100.136,9.081a.732.732,0,0,0,.732-.732V2.455A2.458,2.458,0,0,0,98.413,0H69.059A2.458,2.458,0,0,0,66.6,2.455V3.39H65.67a2.458,2.458,0,0,0-2.455,2.455V37.223a.732.732,0,1,0,1.465,0V5.844a.991.991,0,0,1,.99-.99H95.024a.991.991,0,0,1,.99.99v41.7a.991.991,0,0,1-.99.99H65.67a.991.991,0,0,1-.99-.99v-6.9a.732.732,0,1,0-1.465,0v6.9A2.458,2.458,0,0,0,65.67,50H95.024a2.458,2.458,0,0,0,2.455-2.455V46.61h.935a2.458,2.458,0,0,0,2.455-2.455V11.766a.732.732,0,1,0-1.465,0V44.156a.991.991,0,0,1-.99.99h-.935V5.844A2.458,2.458,0,0,0,95.024,3.39H68.069V2.455a.991.991,0,0,1,.99-.99H98.413a.991.991,0,0,1,.99.99V8.349a.732.732,0,0,0,.732.732Z" transform="translate(-63.215 0)" fill="#f9b131"/>
</svg>
