<svg xmlns="http://www.w3.org/2000/svg" xmlns:xlink="http://www.w3.org/1999/xlink" width="295" height="280" viewBox="0 0 295 280">
  <defs>
    <clipPath id="clip-path">
      <rect id="Rectangle_37929" data-name="Rectangle 37929" width="269.986" height="178.423" fill="none"/>
    </clipPath>
  </defs>
  <g id="t5-c6" transform="translate(-6151 7852)">
    <path id="Rectangle_38456" data-name="Rectangle 38456" d="M20,3A17,17,0,0,0,3,20V260a17,17,0,0,0,17,17H275a17,17,0,0,0,17-17V20A17,17,0,0,0,275,3H20m0-3H275a20,20,0,0,1,20,20V260a20,20,0,0,1-20,20H20A20,20,0,0,1,0,260V20A20,20,0,0,1,20,0Z" transform="translate(6151 -7852)" fill="#f9b131"/>
    <path id="Rectangle_38460" data-name="Rectangle 38460" d="M0,0H295a0,0,0,0,1,0,0V52a20,20,0,0,1-20,20H20A20,20,0,0,1,0,52V0A0,0,0,0,1,0,0Z" transform="translate(6151 -7644)" fill="#f9b131"/>
    <path id="Path_184776" data-name="Path 184776" d="M27.481,10.865a7.546,7.546,0,0,1-.694,3.313A5.132,5.132,0,0,1,24.813,16.4a5.494,5.494,0,0,1-2.914.778,5.572,5.572,0,0,1-2.9-.751,5.123,5.123,0,0,1-1.973-2.149,7.329,7.329,0,0,1-.743-3.208v-.721a7.58,7.58,0,0,1,.69-3.318A5.119,5.119,0,0,1,18.951,4.81,5.854,5.854,0,0,1,24.783,4.8,5.211,5.211,0,0,1,26.765,7a7.362,7.362,0,0,1,.716,3.274Zm-3.138-.536a5.381,5.381,0,0,0-.637-2.9,2.044,2.044,0,0,0-1.824-.989q-2.32,0-2.452,3.48l-.009.94a5.535,5.535,0,0,0,.624,2.892A2.041,2.041,0,0,0,21.9,14.768a2.016,2.016,0,0,0,1.8-.993,5.383,5.383,0,0,0,.642-2.856Zm10.345-.158-.976-.07a1.752,1.752,0,0,0-1.793.879V17H28.958V7.49h2.777l.1,1.222a2.294,2.294,0,0,1,2.083-1.4,2.888,2.888,0,0,1,.826.105Zm.554,2a6.421,6.421,0,0,1,.475-2.549,3.821,3.821,0,0,1,1.362-1.709,3.591,3.591,0,0,1,2.065-.6,2.855,2.855,0,0,1,2.32,1l.105-.826h2.689V16.64a4.009,4.009,0,0,1-.584,2.184,3.75,3.75,0,0,1-1.692,1.424,6.219,6.219,0,0,1-2.566.5,5.365,5.365,0,0,1-2.026-.4,3.657,3.657,0,0,1-1.5-1.028l1.239-1.74a2.716,2.716,0,0,0,2.18.976,1.764,1.764,0,0,0,1.969-2.021v-.3a2.781,2.781,0,0,1-2.153.94,3.437,3.437,0,0,1-2.812-1.332,5.517,5.517,0,0,1-1.072-3.564Zm2.971.185a3.383,3.383,0,0,0,.439,1.85,1.387,1.387,0,0,0,1.23.681,1.573,1.573,0,0,0,1.4-.642v-4A1.534,1.534,0,0,0,39.9,9.6a1.4,1.4,0,0,0-1.239.708A3.858,3.858,0,0,0,38.212,12.359ZM51.3,17a3.344,3.344,0,0,1-.281-.853,2.754,2.754,0,0,1-2.285,1.028,3.374,3.374,0,0,1-2.285-.813,2.588,2.588,0,0,1-.94-2.043,2.66,2.66,0,0,1,1.143-2.338,5.821,5.821,0,0,1,3.322-.791h.914v-.5q0-1.316-1.134-1.316A.927.927,0,0,0,48.7,10.413H45.736a2.655,2.655,0,0,1,1.173-2.239,4.931,4.931,0,0,1,2.993-.86,4.323,4.323,0,0,1,2.874.888,3.086,3.086,0,0,1,1.081,2.435v4.21a4.311,4.311,0,0,0,.4,2V17Zm-1.854-1.934a1.652,1.652,0,0,0,.918-.237,1.487,1.487,0,0,0,.523-.536V12.772h-.861q-1.547,0-1.547,1.389a.848.848,0,0,0,.272.655A.986.986,0,0,0,49.445,15.066ZM58.216,7.49l.1,1.116a3.225,3.225,0,0,1,2.716-1.292,2.713,2.713,0,0,1,2.219.888,4.226,4.226,0,0,1,.76,2.672V17H61.038V11a1.6,1.6,0,0,0-.29-1.059A1.342,1.342,0,0,0,59.693,9.6a1.413,1.413,0,0,0-1.292.686V17H55.439V7.49ZM68.772,17H65.8V7.49h2.971ZM65.625,5.029a1.334,1.334,0,0,1,.457-1.043,1.934,1.934,0,0,1,2.373,0,1.334,1.334,0,0,1,.457,1.043,1.334,1.334,0,0,1-.457,1.043,1.934,1.934,0,0,1-2.373,0A1.334,1.334,0,0,1,65.625,5.029Zm8.464,9.686h4.333V17H70.345V15.348l4.219-5.572H70.53V7.49h7.8v1.6ZM85.216,17a3.344,3.344,0,0,1-.281-.853,2.754,2.754,0,0,1-2.285,1.028,3.374,3.374,0,0,1-2.285-.813,2.588,2.588,0,0,1-.94-2.043,2.66,2.66,0,0,1,1.143-2.338,5.821,5.821,0,0,1,3.322-.791H84.8v-.5q0-1.316-1.134-1.316a.927.927,0,0,0-1.055,1.042H79.653a2.655,2.655,0,0,1,1.173-2.239,4.931,4.931,0,0,1,2.993-.86,4.323,4.323,0,0,1,2.874.888,3.086,3.086,0,0,1,1.081,2.435v4.21a4.311,4.311,0,0,0,.4,2V17Zm-1.854-1.934a1.652,1.652,0,0,0,.918-.237,1.487,1.487,0,0,0,.523-.536V12.772h-.861q-1.547,0-1.547,1.389a.848.848,0,0,0,.272.655A.986.986,0,0,0,83.362,15.066Zm10.072-.176a1.317,1.317,0,0,0,.967-.338,1.241,1.241,0,0,0,.334-.945h2.777a3.288,3.288,0,0,1-1.121,2.566,4.168,4.168,0,0,1-2.887,1,4.22,4.22,0,0,1-3.27-1.3,5.125,5.125,0,0,1-1.2-3.6v-.123A5.792,5.792,0,0,1,89.571,9.6a3.872,3.872,0,0,1,1.534-1.7,4.573,4.573,0,0,1,2.373-.593,4.116,4.116,0,0,1,2.944,1.028,3.647,3.647,0,0,1,1.09,2.786H94.735A1.626,1.626,0,0,0,94.375,10a1.244,1.244,0,0,0-.967-.4q-1.151,0-1.345,1.468A10.357,10.357,0,0,0,92,12.351a4.068,4.068,0,0,0,.343,1.986A1.187,1.187,0,0,0,93.434,14.891ZM101.889,17H98.918V7.49h2.971ZM98.743,5.029A1.334,1.334,0,0,1,99.2,3.986a1.934,1.934,0,0,1,2.373,0,1.334,1.334,0,0,1,.457,1.043,1.334,1.334,0,0,1-.457,1.043,1.934,1.934,0,0,1-2.373,0A1.334,1.334,0,0,1,98.743,5.029Zm4.6,7.128a5.613,5.613,0,0,1,.554-2.536,3.96,3.96,0,0,1,1.591-1.709,4.791,4.791,0,0,1,2.435-.6,4.373,4.373,0,0,1,3.366,1.323,5.076,5.076,0,0,1,1.23,3.6v.105a4.925,4.925,0,0,1-1.235,3.529,4.384,4.384,0,0,1-3.344,1.305,4.434,4.434,0,0,1-3.261-1.217,4.761,4.761,0,0,1-1.327-3.3Zm2.962.185a3.538,3.538,0,0,0,.413,1.934,1.376,1.376,0,0,0,1.222.615q1.582,0,1.617-2.435v-.3q0-2.558-1.635-2.558-1.485,0-1.608,2.206ZM108.323,3.5h3.129l-2.443,2.76-2.417,0Zm8.218,3.99.1,1.116a3.225,3.225,0,0,1,2.716-1.292,2.713,2.713,0,0,1,2.219.888,4.226,4.226,0,0,1,.76,2.672V17h-2.971V11a1.6,1.6,0,0,0-.29-1.059,1.342,1.342,0,0,0-1.055-.338,1.413,1.413,0,0,0-1.292.686V17h-2.962V7.49Zm11.54,4.685a5.809,5.809,0,0,1,.976-3.56,3.211,3.211,0,0,1,2.725-1.3,2.731,2.731,0,0,1,2.145,1V3.5H136.9V17h-2.663l-.149-1.02a2.8,2.8,0,0,1-2.32,1.2,3.205,3.205,0,0,1-2.689-1.3A5.993,5.993,0,0,1,128.081,12.175Zm2.962.185q0,2.531,1.477,2.531a1.458,1.458,0,0,0,1.406-.826V10.443a1.419,1.419,0,0,0-1.389-.844q-1.371,0-1.485,2.215Zm12.138,4.816a4.889,4.889,0,0,1-3.542-1.305,4.507,4.507,0,0,1-1.354-3.4v-.246a5.84,5.84,0,0,1,.541-2.575A3.955,3.955,0,0,1,140.4,7.925a4.763,4.763,0,0,1,2.461-.611,4.117,4.117,0,0,1,3.164,1.244,4.887,4.887,0,0,1,1.16,3.467v1.151H141.3a2.135,2.135,0,0,0,.694,1.257,2.066,2.066,0,0,0,1.389.457,2.662,2.662,0,0,0,2.2-.984l1.354,1.6a3.784,3.784,0,0,1-1.569,1.217A5.3,5.3,0,0,1,143.18,17.176ZM142.846,9.6q-1.3,0-1.547,1.723h2.988v-.229a1.467,1.467,0,0,0-.36-1.1A1.434,1.434,0,0,0,142.846,9.6Zm13.14,7.4h-2.971V3.5h2.971Zm7.181,0a3.344,3.344,0,0,1-.281-.853,2.754,2.754,0,0,1-2.285,1.028,3.374,3.374,0,0,1-2.285-.813,2.588,2.588,0,0,1-.94-2.043,2.66,2.66,0,0,1,1.143-2.338,5.821,5.821,0,0,1,3.322-.791h.914v-.5q0-1.316-1.134-1.316a.927.927,0,0,0-1.055,1.042H157.6a2.655,2.655,0,0,1,1.173-2.239,4.931,4.931,0,0,1,2.993-.86,4.323,4.323,0,0,1,2.874.888,3.086,3.086,0,0,1,1.081,2.435v4.21a4.311,4.311,0,0,0,.4,2V17Zm-1.854-1.934a1.652,1.652,0,0,0,.918-.237,1.487,1.487,0,0,0,.523-.536V12.772h-.861q-1.547,0-1.547,1.389a.848.848,0,0,0,.272.655A.986.986,0,0,0,161.312,15.066Zm11.03-.738a.684.684,0,0,0-.4-.606,6.016,6.016,0,0,0-1.5-.475,6.853,6.853,0,0,1-1.828-.646,3.062,3.062,0,0,1-1.1-.971,2.319,2.319,0,0,1-.378-1.31,2.628,2.628,0,0,1,1.081-2.158,4.453,4.453,0,0,1,2.83-.848,4.934,4.934,0,0,1,3.023.853,2.666,2.666,0,0,1,1.143,2.241h-2.971q0-1.143-1.2-1.143a1.194,1.194,0,0,0-.782.259.8.8,0,0,0-.316.646.737.737,0,0,0,.387.642,3.654,3.654,0,0,0,1.235.4,10.671,10.671,0,0,1,1.49.378A2.706,2.706,0,0,1,175.2,14.24a2.491,2.491,0,0,1-1.156,2.118,5.068,5.068,0,0,1-2.993.817,5.172,5.172,0,0,1-2.18-.439,3.645,3.645,0,0,1-1.494-1.2,2.707,2.707,0,0,1-.536-1.591h2.769a1.145,1.145,0,0,0,.439.962,1.808,1.808,0,0,0,1.081.3,1.422,1.422,0,0,0,.91-.246A.787.787,0,0,0,172.342,14.328Zm12.516-.853,1.5-5.985h3.12l-3.1,9.51h-3.023l-3.1-9.51h3.129Zm9.993,3.7a4.889,4.889,0,0,1-3.542-1.305,4.507,4.507,0,0,1-1.354-3.4v-.246a5.84,5.84,0,0,1,.541-2.575,3.955,3.955,0,0,1,1.578-1.727,4.763,4.763,0,0,1,2.461-.611A4.117,4.117,0,0,1,197.7,8.558a4.887,4.887,0,0,1,1.16,3.467v1.151H192.97a2.135,2.135,0,0,0,.694,1.257,2.066,2.066,0,0,0,1.389.457,2.662,2.662,0,0,0,2.2-.984l1.354,1.6a3.784,3.784,0,0,1-1.569,1.217A5.3,5.3,0,0,1,194.851,17.176ZM194.517,9.6q-1.3,0-1.547,1.723h2.988v-.229a1.467,1.467,0,0,0-.36-1.1A1.434,1.434,0,0,0,194.517,9.6ZM202.77,7.49l.1,1.116a3.225,3.225,0,0,1,2.716-1.292A2.713,2.713,0,0,1,207.8,8.2a4.226,4.226,0,0,1,.76,2.672V17h-2.971V11a1.6,1.6,0,0,0-.29-1.059,1.342,1.342,0,0,0-1.055-.338,1.413,1.413,0,0,0-1.292.686V17h-2.962V7.49Zm10.881-2.364V7.49h1.564V9.547h-1.564V13.9a1.111,1.111,0,0,0,.193.747,1.037,1.037,0,0,0,.765.211,4.345,4.345,0,0,0,.738-.053v2.118a5.466,5.466,0,0,1-1.67.255,3.1,3.1,0,0,1-2.259-.721,2.954,2.954,0,0,1-.729-2.188V9.547h-1.213V7.49h1.213V5.126ZM221.737,17a3.344,3.344,0,0,1-.281-.853,2.754,2.754,0,0,1-2.285,1.028,3.374,3.374,0,0,1-2.285-.813,2.588,2.588,0,0,1-.94-2.043,2.66,2.66,0,0,1,1.143-2.338,5.821,5.821,0,0,1,3.322-.791h.914v-.5q0-1.316-1.134-1.316a.927.927,0,0,0-1.055,1.042h-2.962a2.655,2.655,0,0,1,1.173-2.239,4.931,4.931,0,0,1,2.993-.86,4.323,4.323,0,0,1,2.874.888,3.086,3.086,0,0,1,1.081,2.435v4.21a4.311,4.311,0,0,0,.4,2V17Zm-1.854-1.934a1.652,1.652,0,0,0,.918-.237,1.487,1.487,0,0,0,.523-.536V12.772h-.861q-1.547,0-1.547,1.389a.848.848,0,0,0,.272.655A.986.986,0,0,0,219.882,15.066Zm11.03-.738a.684.684,0,0,0-.4-.606,6.016,6.016,0,0,0-1.5-.475,6.853,6.853,0,0,1-1.828-.646,3.062,3.062,0,0,1-1.1-.971,2.319,2.319,0,0,1-.378-1.31,2.628,2.628,0,0,1,1.081-2.158,4.453,4.453,0,0,1,2.83-.848,4.934,4.934,0,0,1,3.023.853,2.666,2.666,0,0,1,1.143,2.241h-2.971q0-1.143-1.2-1.143a1.194,1.194,0,0,0-.782.259.8.8,0,0,0-.316.646.737.737,0,0,0,.387.642,3.654,3.654,0,0,0,1.235.4,10.671,10.671,0,0,1,1.49.378,2.706,2.706,0,0,1,2.145,2.646,2.491,2.491,0,0,1-1.156,2.118,5.068,5.068,0,0,1-2.993.817,5.172,5.172,0,0,1-2.18-.439,3.645,3.645,0,0,1-1.494-1.2,2.707,2.707,0,0,1-.536-1.591h2.769a1.145,1.145,0,0,0,.439.962,1.808,1.808,0,0,0,1.081.3,1.422,1.422,0,0,0,.91-.246A.787.787,0,0,0,230.913,14.328Z" transform="translate(6174 -7618)" fill="#12263f"/>
    <g id="Group_118360" data-name="Group 118360" transform="translate(5669 -10647)">
      <g id="Group_117911" data-name="Group 117911" transform="translate(495 2809.165)">
        <g id="Group_117910" data-name="Group 117910" clip-path="url(#clip-path)">
          <path id="Path_181250" data-name="Path 181250" d="M239.544,21.06C198.881,5.446,157.552,19.25,129.523,49.315S42.669,28.563,11.471,58.579C-9.819,79.064-.068,131.73,29.126,154.541c39.681,31.005,187.508,31.936,212.036,21.3,41.913-18.181.268-51.849,19.832-84.124,23.082-38.075-3.481-63.754-21.45-70.654" transform="translate(0 -7.29)" fill="#e8feff"/>
          <path id="Path_181251" data-name="Path 181251" d="M30.842,331.223c19.551-1.079,86.061.749,106.288,1.461s43.707-.94,55.9-3.371,82.7.207,79.5,6.742-31.411,2.923-63.4,5.55-103.944-.328-120.175,0-31.113-.657-52.028-1.97-17.416-7.787-6.083-8.412" transform="translate(-10.89 -164.28)" fill="#c4fdff"/>
          <path id="Path_181252" data-name="Path 181252" d="M192.464,215.782v-.865a21.85,21.85,0,0,0,20.373-13.776l.8.322a22.711,22.711,0,0,1-21.176,14.319" transform="translate(-96.272 -100.613)" fill="#42e0e6"/>
          <path id="Path_181253" data-name="Path 181253" d="M192.464,236.053v-.865a28.906,28.906,0,0,0,18.117-6.3l.537.678a29.763,29.763,0,0,1-18.654,6.482" transform="translate(-96.272 -114.494)" fill="#42e0e6"/>
          <path id="Path_181254" data-name="Path 181254" d="M234.561,229.591l-.484-.717A37.253,37.253,0,0,0,247.341,213l.792.349a38.112,38.112,0,0,1-13.572,16.24" transform="translate(-117.088 -106.546)" fill="#42e0e6"/>
          <rect id="Rectangle_37909" data-name="Rectangle 37909" width="0.865" height="22.627" transform="translate(169.23 22.554) rotate(-42.221)" fill="#a8fdff"/>
          <path id="Path_181255" data-name="Path 181255" d="M120.208,179.434l-15.374-10.94,3.439-7.7a42.9,42.9,0,0,1-6.072-9.7l-8.439-.267-3.134-18.6,7.886-3.019a42.88,42.88,0,0,1,2.556-11.158l-5.771-6.15,10.937-15.373,7.7,3.439a42.9,42.9,0,0,1,9.707-6.072l.267-8.437,18.6-3.137,3.017,7.886a42.888,42.888,0,0,1,11.161,2.556l6.149-5.771,15.373,10.937-3.439,7.7a42.967,42.967,0,0,1,6.072,9.706l8.436.267,3.135,18.6-7.884,3.017a43.264,43.264,0,0,1-.764,5.026l-.093.436-20.754-5.113.073-.4a21.824,21.824,0,1,0-27.445,17.047l.38.108-3.979,21.018-.44-.1a42.859,42.859,0,0,1-5.16-1.571Zm-14.3-11.234,14.219,10.119,6.028-5.657.253.1a41.755,41.755,0,0,0,4.864,1.526l3.664-19.352a22.7,22.7,0,1,1,28.981-18.014l19.1,4.705a42.417,42.417,0,0,0,.681-4.753l.023-.27,7.728-2.957-2.9-17.207-8.27-.262-.11-.247a42.1,42.1,0,0,0-6.229-9.958l-.174-.207,3.371-7.549L162.919,88.1l-6.027,5.657-.253-.1a42.015,42.015,0,0,0-11.449-2.622l-.27-.023-2.957-7.73-17.207,2.9-.262,8.27-.247.11a42.066,42.066,0,0,0-9.958,6.229l-.207.174-7.549-3.37L96.414,111.814l5.657,6.028-.1.253a42.032,42.032,0,0,0-2.622,11.447l-.023.27-7.73,2.959,2.9,17.207,8.273.262.11.247a42.065,42.065,0,0,0,6.229,9.955l.174.207Z" transform="translate(-45.332 -41.172)" fill="#42e0e6"/>
          <path id="Path_181256" data-name="Path 181256" d="M190.915,130.2l-1.51-8.953-8.354-.264a42.6,42.6,0,0,0-6.292-10.06l3.4-7.625-14.8-10.529-6.088,5.714A42.1,42.1,0,0,0,152.608,97l-3.762,20.249a22.293,22.293,0,0,1,15.066,25.227l19.924,4.908a42.911,42.911,0,0,0,.781-5.243l7.8-2.987Zm-67.043-4.669a22.155,22.155,0,0,1,6.234-5.91L119.939,101.8a42.274,42.274,0,0,0-5.445,3.89l-7.624-3.4-5.264,7.4-5.263,7.4,5.714,6.09a42.439,42.439,0,0,0-2.65,11.564L91.6,137.725l1.51,8.953,1.508,8.953,8.354.264a42.515,42.515,0,0,0,6.294,10.058l-3.4,7.625,7.4,5.268,7.4,5.263,6.087-5.714a42.026,42.026,0,0,0,5.359,1.648l3.821-20.185a22.274,22.274,0,0,1-12.051-34.328" transform="translate(-45.818 -46.404)" fill="#0cc0c7"/>
          <rect id="Rectangle_37910" data-name="Rectangle 37910" width="0.921" height="41.872" transform="translate(92.034 127.89)" fill="#08878c"/>
          <rect id="Rectangle_37911" data-name="Rectangle 37911" width="0.921" height="41.872" transform="translate(71.341 127.89)" fill="#08878c"/>
          <path id="Path_181257" data-name="Path 181257" d="M150.993,273.341h-4.745a12.783,12.783,0,0,1-12.783-12.783V233.67a12.782,12.782,0,0,1,12.783-12.783h4.746a12.783,12.783,0,0,1,12.783,12.783v26.888a12.783,12.783,0,0,1-12.783,12.783" transform="translate(-66.76 -110.49)" fill="#b0b0a8"/>
          <path id="Path_181258" data-name="Path 181258" d="M151.146,272.137h-3.387a12.63,12.63,0,0,1-12.63-12.63v-24.3a12.63,12.63,0,0,1,12.631-12.63h3.387a12.63,12.63,0,0,1,12.63,12.63v24.3a12.63,12.63,0,0,1-12.63,12.63" transform="translate(-67.593 -111.335)" fill="#fff"/>
          <rect id="Rectangle_37912" data-name="Rectangle 37912" width="9.032" height="2.04" transform="translate(77.344 109.999)" fill="#08878c"/>
          <path id="Path_181259" data-name="Path 181259" d="M111.172,44.749a17.307,17.307,0,0,0,1.079-4.708l3.178-1.216-.614-3.645-.614-3.645-3.4-.108a17.286,17.286,0,0,0-2.562-4.095l1.386-3.1-3.012-2.143L103.6,19.942l-2.479,2.327a17.289,17.289,0,0,0-4.708-1.08L95.2,18.011l-3.645.614-3.645.614-.108,3.4A17.308,17.308,0,0,0,83.7,25.2l-3.1-1.386-2.143,3.011L76.314,29.84l2.327,2.479a17.292,17.292,0,0,0-1.079,4.708l-3.178,1.216L75,41.888l.614,3.645,3.4.107a17.288,17.288,0,0,0,2.562,4.095l-1.386,3.1L83.2,54.983l3.011,2.143L88.691,54.8A17.31,17.31,0,0,0,93.4,55.879l1.216,3.178,3.645-.614,3.645-.614.108-3.4a17.3,17.3,0,0,0,4.094-2.562l3.1,1.386,2.143-3.011,2.143-3.012Zm-21.52,1.169a9.063,9.063,0,1,1,12.639-2.129,9.063,9.063,0,0,1-12.639,2.129" transform="translate(-37.208 -9.009)" fill="#0cc0c7"/>
          <path id="Path_181260" data-name="Path 181260" d="M153.29,248.752l-.6-1.567a8.523,8.523,0,0,1-1.79-.41l-1.223,1.148-3.392-2.414.683-1.531a8.534,8.534,0,0,1-.974-1.557l-1.677-.053-.692-4.1,1.567-.6a8.517,8.517,0,0,1,.41-1.79l-1.148-1.223,2.414-3.392,1.531.684a8.513,8.513,0,0,1,1.556-.974l.053-1.677,4.105-.692.6,1.567a8.508,8.508,0,0,1,1.79.41l1.223-1.148,3.392,2.414-.684,1.531a8.509,8.509,0,0,1,.974,1.557l1.677.053.691,4.1-1.567.6a8.541,8.541,0,0,1-.41,1.79l1.148,1.223-2.413,3.392-1.531-.684a8.535,8.535,0,0,1-1.557.974l-.053,1.677Zm-2.59-2.975.253.1a7.656,7.656,0,0,0,2.083.477l.27.023.539,1.408,2.708-.457.048-1.506.247-.11a7.659,7.659,0,0,0,1.811-1.134l.207-.174,1.375.614,1.593-2.238-1.031-1.1.1-.253a7.652,7.652,0,0,0,.477-2.083l.023-.27,1.407-.538-.456-2.709-1.506-.048-.11-.247a7.668,7.668,0,0,0-1.134-1.811l-.174-.207.614-1.375-2.238-1.593-1.1,1.031-.253-.1a7.651,7.651,0,0,0-2.083-.477l-.27-.023-.539-1.408-2.709.457-.047,1.506-.248.11a7.669,7.669,0,0,0-1.811,1.134l-.207.174-1.375-.614-1.592,2.238,1.03,1.1-.1.253a7.67,7.67,0,0,0-.477,2.083l-.023.27-1.408.538.457,2.709,1.506.048.11.247a7.652,7.652,0,0,0,1.133,1.811l.174.207-.614,1.375,2.238,1.593Z" transform="translate(-71.844 -114.347)" fill="#f9b131"/>
          <path id="Path_181261" data-name="Path 181261" d="M161.067,248.33l-.361-.786a3.808,3.808,0,0,0,2.2-3.1l.861.079a4.672,4.672,0,0,1-2.7,3.809m-4.644-.428-.019-.013a4.678,4.678,0,0,1-1.957-3.8c0-.145.007-.291.02-.436l.861.081c-.011.118-.017.237-.017.355a3.813,3.813,0,0,0,1.6,3.1Zm4.893-6.915a3.778,3.778,0,0,0-2.2-.7,3.845,3.845,0,0,0-1.589.346l-.359-.787a4.719,4.719,0,0,1,1.948-.424,4.636,4.636,0,0,1,2.7.861Z" transform="translate(-77.256 -119.76)" fill="#f9b131"/>
          <path id="Path_181262" data-name="Path 181262" d="M170.62,276.779l-.331-.864a4.639,4.639,0,0,1-.738-.169l-.674.633-2.052-1.46.377-.845a4.643,4.643,0,0,1-.4-.641l-.925-.03-.418-2.483.864-.331a4.641,4.641,0,0,1,.169-.738l-.633-.674,1.46-2.052.844.377a4.674,4.674,0,0,1,.642-.4l.029-.925,2.483-.418.331.864a4.7,4.7,0,0,1,.738.169l.674-.633,2.052,1.46-.377.844a4.647,4.647,0,0,1,.4.642l.925.029.418,2.483-.864.331a4.644,4.644,0,0,1-.169.738l.633.674-1.46,2.052-.844-.377a4.677,4.677,0,0,1-.642.4l-.029.925Zm-1.272-2.028.253.1a3.8,3.8,0,0,0,1.036.237l.27.023.268.7,1.087-.183.023-.75.248-.11a3.815,3.815,0,0,0,.9-.563l.207-.174.684.305.639-.9-.513-.546.1-.253a3.811,3.811,0,0,0,.237-1.035l.023-.27.7-.268-.183-1.087-.75-.023-.11-.248a3.824,3.824,0,0,0-.564-.9l-.174-.207.306-.684-.9-.639-.546.513-.253-.1a3.8,3.8,0,0,0-1.036-.237l-.27-.023-.268-.7-1.087.183-.023.749-.247.11a3.8,3.8,0,0,0-.9.563l-.207.175-.685-.306-.639.9.513.546-.1.253a3.818,3.818,0,0,0-.237,1.036l-.023.27-.7.268.183,1.087.75.023.11.247a3.8,3.8,0,0,0,.563.9l.174.207-.305.684.9.639Zm1.615-.83a2.667,2.667,0,1,1,.446-.038,2.63,2.63,0,0,1-.446.038m.008-4.439a1.786,1.786,0,1,0,1.034.33,1.786,1.786,0,0,0-1.034-.33" transform="translate(-82.764 -132.935)" fill="#f9b131"/>
          <path id="Path_181263" data-name="Path 181263" d="M129.594,292.993a1.812,1.812,0,0,1,.234.618,2.963,2.963,0,0,0,.285.73,6.951,6.951,0,0,1,.347,1.218,5.591,5.591,0,0,0-.164.815c.027.176.128.525-.029.548s-.338-.263-.338-.263a.233.233,0,0,1-.119.224.392.392,0,0,1-.4.014s-.1.178-.217.2a.491.491,0,0,1-.4-.053.479.479,0,0,1-.3.1.394.394,0,0,1-.333-.207s-.3.06-.384-.079a1.335,1.335,0,0,1-.107-.413,4.806,4.806,0,0,1,.377-2.08,1.844,1.844,0,0,0-.1-1.616Z" transform="translate(-63.858 -146.435)" fill="#eea886"/>
          <path id="Path_181264" data-name="Path 181264" d="M129.955,298.857s.026-1.02-.242-1.237-.3.151-.3.151.036-.363-.257-.412-.305.383-.305.383a.284.284,0,0,0-.356-.223c-.308.057-.234.415-.234.415s-.294-.351-.485-.014a1.5,1.5,0,0,0-.011,1.241s.091.154.384.079a.405.405,0,0,0,.635.111s.449.247.613-.149a.372.372,0,0,0,.559-.345" transform="translate(-63.842 -148.74)" fill="#db9c7c"/>
          <path id="Path_181265" data-name="Path 181265" d="M133.1,261.466s-1.745,5.818-2.335,7.964c-.185.673-.633,7.1-.712,7.358s-2.293.613-2.293.613.268-8.04.293-8.478,2.442-9.418,3.146-9.738c.527-.24.805-.041,1.469.451a1.554,1.554,0,0,1,.432,1.829" transform="translate(-63.909 -129.596)" fill="#2f5380"/>
          <rect id="Rectangle_37913" data-name="Rectangle 37913" width="4.775" height="0.355" transform="translate(86.216 123.719) rotate(-33.153)" fill="#4da8f2"/>
          <path id="Path_181266" data-name="Path 181266" d="M178.8,244.1a1.043,1.043,0,0,1-.1.317s-.131.156-.217.272a.942.942,0,0,0-.062.092,1.924,1.924,0,0,1-.33.513c-.19.193-.931.807-.931.807l-.635-.539-.659-.3a12.42,12.42,0,0,1,.526-1.8.568.568,0,0,1,.047-.054,2.427,2.427,0,0,1,.413-.284c.032-.027.371-.271.492-.239a.409.409,0,0,1,.3.254.978.978,0,0,1,.451.29.607.607,0,0,1,.392.364s.3.118.311.307" transform="translate(-87.968 -121.492)" fill="#efaa88"/>
          <path id="Path_181267" data-name="Path 181267" d="M133.522,343.182s-.159,1.1-.179,1.27-1.77-.1-1.77-.1l-.141-1.315a10.359,10.359,0,0,1,2.091.142" transform="translate(-65.743 -171.592)" fill="#424773"/>
          <path id="Path_181268" data-name="Path 181268" d="M133.088,345.51a4.73,4.73,0,0,0,1.091.956c.537.29,1.379.4,1.7.705.229.217.834,1.15-1.393,1.131s-3.3.131-3.54-.226.345-2.641.345-2.641a4.714,4.714,0,0,0,1.8.075" transform="translate(-65.47 -172.79)" fill="#1a2e48"/>
          <path id="Path_181269" data-name="Path 181269" d="M158.612,343.182s-.159,1.1-.179,1.27-1.77-.1-1.77-.1l-.141-1.315a10.359,10.359,0,0,1,2.091.142" transform="translate(-78.293 -171.592)" fill="#424773"/>
          <path id="Path_181270" data-name="Path 181270" d="M158.177,345.51a4.73,4.73,0,0,0,1.091.956c.536.29,2.51.528,2.827.829.229.216.609,1.089-2.524,1.008-2.227-.058-3.3.131-3.54-.226s.345-2.641.345-2.641a4.277,4.277,0,0,0,1.8.075" transform="translate(-78.019 -172.79)" fill="#1a2e48"/>
          <path id="Path_181271" data-name="Path 181271" d="M134.7,286.546a10.2,10.2,0,0,0-1.522,4.974c.123,2.362-.6,4.94-.843,7.407-.275,2.75-1.4,9.262-1.443,10.732s.175,6.169.175,6.169l2.256.052s1.895-11.383,2.385-12.545,2.924-9.442,3.006-10.371-4.014-6.419-4.014-6.419" transform="translate(-65.469 -143.333)" fill="#244063"/>
          <path id="Path_181272" data-name="Path 181272" d="M146.342,286.449s1.239,6.473,1.4,7.918.272,7,.354,7.9.764,11.795.982,13.163H146.2s-2.214-7.937-2.214-11.693-1.71-8.164-2.814-10.642-3.631-2.536-4.31-7.133c0,0,8.565-.97,9.484.488" transform="translate(-68.458 -142.882)" fill="#244063"/>
          <path id="Path_181273" data-name="Path 181273" d="M142.622,242.394s2.207-.825,3.225.856.92,5.044-.192,5.457-2.784.2-3.354-.854a8.415,8.415,0,0,1-1.059-3.587,2.214,2.214,0,0,1,1.38-1.872" transform="translate(-70.65 -121.147)" fill="#eea886"/>
          <path id="Path_181274" data-name="Path 181274" d="M146.043,253.285a1.907,1.907,0,0,0,.06.89c.152.293-2.859.3-2.859.3a19.89,19.89,0,0,0-.708-2.946c-.463-1.349,3.508,1.755,3.508,1.755" transform="translate(-71.279 -125.648)" fill="#eea886"/>
          <path id="Path_181275" data-name="Path 181275" d="M141.723,246.774s.208.343,1.056.21,1.884-1.262,2.238-1.386.358-.332.358-.332l.222.324.376.024s-.343-1.01.174-1.421-.537-3.268-3.258-2.318c0,0-2.09.576-2.014,1.765a6.6,6.6,0,0,0,.848,3.134" transform="translate(-70.466 -120.892)" fill="#1a2e48"/>
          <path id="Path_181276" data-name="Path 181276" d="M146.684,256.265s-.009-.561-.264-.615a18.148,18.148,0,0,0-3.118-.176v.653s.6.37,3.382.138" transform="translate(-71.681 -127.774)" fill="#a8fdff"/>
          <path id="Path_181277" data-name="Path 181277" d="M148.973,247.554c-.047-.2-.554-.769-.749-.159s.293,1.43.565,1.36.3-.7.183-1.2" transform="translate(-74.121 -123.612)" fill="#eea886"/>
          <path id="Path_181278" data-name="Path 181278" d="M146.14,252.937c-1.75-.231-4.221-.849-4.221-.849l-3.382-.138a32.9,32.9,0,0,0-4.326,1.235,33.785,33.785,0,0,1-.435,3.482l1.014,2.138s.585,4.235.707,6.119c.056.864-1.207,8.109-1.207,8.109a23.358,23.358,0,0,0,3.661.653c2.309.254,8.076-.092,8.112-.364s-1.117-10.152-1.168-10.664c-.078-.785.27-4.957.27-4.957.533-.413,5.212-2.585,6.489-3.717.341-.3,1.783-1.707,2.193-2.192a39.361,39.361,0,0,0,2.786-3.507c.164-.18-1.627-1.143-1.785-1.2-.138-.046-2.051,2.512-2.806,3.33a21.233,21.233,0,0,1-1.737,1.382,17.325,17.325,0,0,1-4.166,1.135" transform="translate(-66.916 -123.596)" fill="#2f5380"/>
          <path id="Path_181279" data-name="Path 181279" d="M141.469,242.993s-2.814.22-.086,4.437Z" transform="translate(-70.126 -121.547)" fill="#1a2e48"/>
          <path id="Path_181280" data-name="Path 181280" d="M180.695,242.554l.231-.352-.425.055Z" transform="translate(-90.288 -121.152)" fill="#dfe1e8"/>
          <path id="Path_181281" data-name="Path 181281" d="M337.025,22.785a2.22,2.22,0,0,0,2.218-2.218h-.522a1.7,1.7,0,1,1-1.7-1.7h.261V0h-.523V18.365a2.218,2.218,0,0,0,.261,4.42" transform="translate(-167.474)" fill="#1a2e48"/>
          <rect id="Rectangle_37914" data-name="Rectangle 37914" width="1.248" height="12.677" transform="translate(168.95 5.575)" fill="#a8fdff"/>
          <path id="Path_181282" data-name="Path 181282" d="M308.867,60.952l-.64-.581,15.538-17.1.568.661Z" transform="translate(-154.178 -21.642)" fill="#a8fdff"/>
          <path id="Path_181283" data-name="Path 181283" d="M334.268,92.217a42.386,42.386,0,0,0,4.95-4.356L324.969,73.094a22.285,22.285,0,0,1-32.947-.192L278.037,87.95a42.128,42.128,0,0,0,4.72,4.151l-1.627,8.2,8.38,3.493,8.381,3.491,4.673-6.928a42.612,42.612,0,0,0,11.866.031l4.641,6.943,8.4-3.458,8.395-3.458Z" transform="translate(-139.077 -36.466)" fill="#0cc0c7"/>
          <path id="Path_181284" data-name="Path 181284" d="M293.454,219.116H279.478V231.38l2.134-2.134h11.843Z" transform="translate(-139.797 -109.604)" fill="#ffd48a"/>
          <path id="Path_181285" data-name="Path 181285" d="M279.773,263.514s.3-.748.352-.861a1.945,1.945,0,0,1,.692-.479,2.264,2.264,0,0,1,.97-.237.346.346,0,0,1,.212.2.667.667,0,0,1,.055.333.406.406,0,0,1,.143.364.353.353,0,0,1,.08.384.3.3,0,0,1,.082.315,2.681,2.681,0,0,0-.379.284,5.614,5.614,0,0,1-1.376.679s-.7.012-.832-.98" transform="translate(-139.945 -131.02)" fill="#eea886"/>
          <path id="Path_181286" data-name="Path 181286" d="M281.864,264.282a1.985,1.985,0,0,1-.048.52c-.055.114.822.369.822.369s-.281-.886-.774-.89" transform="translate(-140.966 -132.196)" fill="#cf8c6c"/>
          <path id="Path_181287" data-name="Path 181287" d="M249.171,342.335l.383-1.193,1.621.262-.243,1.076Z" transform="translate(-124.637 -170.642)" fill="#1a2e48"/>
          <path id="Path_181288" data-name="Path 181288" d="M275.746,342.627l.091.656,1.774-.3-.094-.979Z" transform="translate(-137.931 -171.075)" fill="#1a2e48"/>
          <path id="Path_181289" data-name="Path 181289" d="M258.633,301.121s-.261,1.424-.564,3c-.053.275-.106.556-.161.834-.3,1.522-.6,2.988-.707,3.291-.251.689-5.683,10.642-5.683,10.642s-2.221-.169-2.3-.455c0,0,4.553-10.807,4.527-11.2s.556-11.473.556-11.473,4.215,4.719,4.336,5.359" transform="translate(-124.659 -147.943)" fill="#2f5380"/>
          <path id="Path_181290" data-name="Path 181290" d="M266.161,293.342s2.125,10.883,2.307,11.716.987,11.982.987,11.982-.477.985-2.242.614c0,0-2.406-11.978-2.608-12.38-.787-1.557-4.649-9.1-5.022-10.181a6.471,6.471,0,0,1-.264-2.334s2.869-1.612,6.843.583" transform="translate(-129.706 -146.155)" fill="#2f5380"/>
          <path id="Path_181291" data-name="Path 181291" d="M270.167,265.331s.932,2.324,1.167,2.255,2.913-3.214,2.913-3.214,1.226,1.53,1.062,1.705c-.229.244-3.393,5.5-3.828,5.409s-2.38-3.31-2.38-3.31-.11-2.425,1.068-2.845" transform="translate(-134.605 -132.241)" fill="#08878c"/>
          <path id="Path_181292" data-name="Path 181292" d="M260.732,257.413a38.947,38.947,0,0,1,3.085,2.58c.667.733,2.508,3.772,2.375,4.686a66.4,66.4,0,0,0-.766,8.883c-.013,2.083.65,2.615.237,2.645-.474.035-6.557,2.24-7.458,2.508,0,0,.59-7.335.889-8.182s-.956-9.716,1.638-13.121" transform="translate(-129.157 -128.76)" fill="#0cc0c7"/>
          <path id="Path_181293" data-name="Path 181293" d="M288.386,250.4l.542,2.732.543,2.733a14.893,14.893,0,0,0-6.626-.272l-.239-1.206-.241-1.212a14.943,14.943,0,0,0,6.021-2.775" transform="translate(-141.242 -125.253)" fill="#d9d0c4"/>
          <path id="Path_181294" data-name="Path 181294" d="M275.7,343.769s1.339-.259,1.386-.3.334-.569.541-.477.209.736.412.845,1.8,1.189,2,1.385,1.406.08,1.545.422.15,1.149-1.655.959-3.867.1-4.256-.11-.094-2.2.03-2.724" transform="translate(-137.797 -171.563)" fill="#cf8d19"/>
          <path id="Path_181295" data-name="Path 181295" d="M248.556,342.99s1.363-.042,1.416-.074.421-.508.611-.384.089.76.271.9,1.587,1.461,1.75,1.687,1.375.3,1.458.664-.035,1.158-1.787.682-3.834-.516-4.184-.789.259-2.192.465-2.685" transform="translate(-124.044 -171.327)" fill="#cf8d19"/>
          <path id="Path_181296" data-name="Path 181296" d="M268.93,295.505s.163.662.425.806-1.22,1.56-1.22,1.56a12.455,12.455,0,0,1-.585-1.446,9.087,9.087,0,0,1,1.38-.921" transform="translate(-133.831 -147.814)" fill="#eea987"/>
          <path id="Path_181297" data-name="Path 181297" d="M259.232,262.282s-1.735,8.253-1.877,9.1c-.134.8,5.086,8.435,5.086,8.435l1.736-1.03s-4.213-7.66-4.207-8.01,2.022-7,2.022-7a1.569,1.569,0,1,0-2.761-1.49" transform="translate(-128.73 -130.764)" fill="#42e0e6"/>
          <path id="Path_181298" data-name="Path 181298" d="M269.793,296.644a28.226,28.226,0,0,1,.529,3.665c-.035.86-3.239-1.352-3.076-2.208Z" transform="translate(-133.676 -148.384)" fill="#3c5780"/>
          <path id="Path_181299" data-name="Path 181299" d="M263.261,254.628s4.4,4.809,4.132,4.276c-.967-1.9-1.642-2.222-1.628-2.576.01-.271.1-1.055.117-1.32.034-.5.089-.921.089-.921s-2.187-3.07-2.09-2.024a6.366,6.366,0,0,1-.62,2.565" transform="translate(-131.686 -125.976)" fill="#eea886"/>
          <path id="Path_181300" data-name="Path 181300" d="M267.247,245.22a11.18,11.18,0,0,1,.614,1.753,7.117,7.117,0,0,0-.025.971,13.983,13.983,0,0,1,.345,1.46c-.049.278-.636.133-.717.592s-.506,1.32-.719,1.337c-.545.045-2.632-.807-2.765-1.243s-.889-2.872-1.125-3.334,3.677-3,4.034-2.269Z" transform="translate(-131.478 -122.229)" fill="#eea886"/>
          <path id="Path_181301" data-name="Path 181301" d="M260.97,245.9c-.276-1.206,1.109-1.354,1.109-1.354a3.762,3.762,0,0,1,3.062-.926c2.16.124,1.83,2.943,1.83,2.943a8.025,8.025,0,0,0-2.144-.059,10.2,10.2,0,0,0-.008,1.5l-.815-.072s.091-1.068-.3-1.119-.522,2.261-1.251,2.771a.793.793,0,0,0-.1-.323,9.365,9.365,0,0,1-.566-1.18,13.289,13.289,0,0,1-.819-2.183" transform="translate(-130.521 -121.857)" fill="#1a2e48"/>
          <path id="Path_181302" data-name="Path 181302" d="M266.329,250.076a.618.618,0,0,0-1.019-.286c-.521.385.015,1.762.522,1.755s.713-.756.5-1.468" transform="translate(-132.604 -124.858)" fill="#eea886"/>
          <path id="Path_181303" data-name="Path 181303" d="M264.878,255.068a1.582,1.582,0,0,0,.223.534,4.678,4.678,0,0,0,1.616.845l-.093.863s-1.842-.723-1.746-2.242" transform="translate(-132.493 -127.587)" fill="#c48a6f"/>
          <path id="Path_181304" data-name="Path 181304" d="M282.419,263.633l.311-.148-1.408-2.988-.79.372,1.194,2.533a.487.487,0,0,0,.694.231" transform="translate(-140.325 -130.303)" fill="#e8734d"/>
          <path id="Path_181305" data-name="Path 181305" d="M282.692,261.986s-.882.483-.821.635a.256.256,0,0,0,.174.17l-.272.364s-.044.342.342.291c0,0-.075.316.292.221,0,0,.043.23.221.217a3.372,3.372,0,0,0,.732-.348s.085-.123-.082-.316a.347.347,0,0,0-.08-.384.382.382,0,0,0-.143-.364s.081-.43-.268-.53c0,0-.057.024-.094.044" transform="translate(-140.944 -131.026)" fill="#db9c7c"/>
          <path id="Path_181306" data-name="Path 181306" d="M277.97,258.669l3.107-.58-.506-2.547-3.082.7Z" transform="translate(-138.803 -127.825)" fill="#cf8d19"/>
          <path id="Path_181307" data-name="Path 181307" d="M280.47,263.339a3.412,3.412,0,0,1,1.071.135c.086.035.163.084.163.178s-.135.211-.433.235a2.522,2.522,0,0,0-.673.19s-.314-.065-.128-.739" transform="translate(-140.264 -131.724)" fill="#eea886"/>
          <path id="Path_181308" data-name="Path 181308" d="M265,308.655c-.052.275-.106.556-.161.833l-1.764-4.67c.233.471,1.925,3.836,1.925,3.836" transform="translate(-131.594 -152.473)" fill="#244063"/>
          <path id="Path_181309" data-name="Path 181309" d="M320.593,293.883h28.485l-8.977,27.57.84.273L350.294,293H319.952l-9.265,28.453.84.273Z" transform="translate(-155.409 -146.561)" fill="#cf8d19"/>
          <path id="Path_181310" data-name="Path 181310" d="M339.7,321.452l-8.977-27.57h28.485l9.067,27.843.839-.273L359.851,293H329.508l9.354,28.726Z" transform="translate(-164.823 -146.561)" fill="#cf8d19"/>
          <rect id="Rectangle_37915" data-name="Rectangle 37915" width="34.864" height="0.883" transform="translate(162.534 155.12)" fill="#cf8d19"/>
          <rect id="Rectangle_37916" data-name="Rectangle 37916" width="41.713" height="0.883" transform="translate(158.942 164.706)" fill="#cf8d19"/>
          <path id="Path_181311" data-name="Path 181311" d="M389.034,182.605s.2-.691-.106-.962a2.3,2.3,0,0,1-.486-.869c-.071-.2-.518-.735-.266-.827s.78.846.93,1.021.319-.841.5-1,1.843.215,1.646.9a6.429,6.429,0,0,1-.87,1.41,4.385,4.385,0,0,1-.124.5Z" transform="translate(-194.131 -90.002)" fill="#e09e7f"/>
          <path id="Path_181312" data-name="Path 181312" d="M390.939,177.891a15.841,15.841,0,0,1,.906-2.147c.164-.1.272-.048.211.146s-.66,2-.66,2,1.286-2.28,1.4-2.387c.069-.063.284.015.261.122s-1.169,2.44-1.169,2.44,1.205-2.127,1.33-2.188a.169.169,0,0,1,.211.232c-.079.164-1.086,2.2-1.086,2.2a9.921,9.921,0,0,1,1.111-1.482c.083.007.273.065.009.443s-.791,1.333-.791,1.333Z" transform="translate(-195.551 -87.778)" fill="#e09e7f"/>
          <path id="Path_181313" data-name="Path 181313" d="M329.942,221.969s-.658.29-.968.02a2.3,2.3,0,0,0-.925-.369c-.208-.044-.8-.417-.855-.155s.941.662,1.133.788-.791.427-.928.624.454,1.8,1.106,1.513,1.16-1.019,1.284-1.046a4.37,4.37,0,0,0,.482-.189Z" transform="translate(-163.665 -110.733)" fill="#e09e7f"/>
          <path id="Path_181314" data-name="Path 181314" d="M325.743,224.178a15.934,15.934,0,0,0-2.01,1.18c-.073.175-.012.277.172.191s1.9-.917,1.9-.917-2.092,1.574-2.184,1.7c-.053.076.052.281.156.243s2.266-1.479,2.266-1.479-1.951,1.474-1.995,1.605a.168.168,0,0,0,.258.178c.152-.1,2.04-1.364,2.04-1.364a9.951,9.951,0,0,0-1.324,1.294c.017.082.1.262.44-.049s1.218-.959,1.218-.959Z" transform="translate(-161.871 -112.136)" fill="#e09e7f"/>
          <path id="Path_181315" data-name="Path 181315" d="M331.306,212.578l1.037,1.278s6.672-2.757,7.693-3.714a10.827,10.827,0,0,0,1.651-1.2h0c.3-.234.584-.456.849-.65l.179-.16h0l1.842-1.645s3.346-1.777,1.982-3.7a1.312,1.312,0,0,0-1.438-.1,12.6,12.6,0,0,0-2.429,1.788c-.3.286-2.232,1.935-2.336,2.04-.386.391-1.7,1.562-2.379,2.074-1.2.9-6.653,3.985-6.653,3.985" transform="translate(-165.722 -101.307)" fill="#244063"/>
          <path id="Path_181316" data-name="Path 181316" d="M364.6,190.274v0a7.98,7.98,0,0,1-.907,1.5c-1.18,1.514-3.932,1.551-3.972-2.605a6.42,6.42,0,0,1,.249-1.944,2.935,2.935,0,0,1,1.887-2.152c.978-.054,2.689.188,3.26,1.461a5.053,5.053,0,0,1-.515,3.739" transform="translate(-179.936 -92.572)" fill="#eea987"/>
          <path id="Path_181317" data-name="Path 181317" d="M364.852,190.087v0s-.141.038-.649-.989c-.1-.205-.18-.058-.224-.149l-.81-.316s.8-1.339-.247-1.71a5.359,5.359,0,0,0-2.7.113c.349-3.3,1.887-2.152,1.887-2.152.978-.054,3.069.005,3.639,1.278.4.905-.268,2.587-.895,3.923" transform="translate(-180.185 -92.385)" fill="#1a2e48"/>
          <path id="Path_181318" data-name="Path 181318" d="M367.336,191.677c.06-.278.609-.517.842.08s-.547,1.23-.753,1.1-.189-.719-.089-1.18" transform="translate(-183.709 -95.733)" fill="#eea987"/>
          <path id="Path_181319" data-name="Path 181319" d="M342.8,288.673a6.348,6.348,0,0,1-2.09,1.134c-.954.207-1.455.7-1.462,1.261s2.747.94,3.839.369c1.63-.853,1.8-.6,1.977-1.022a5.833,5.833,0,0,0,.047-1.689,10.652,10.652,0,0,0-2.311-.053" transform="translate(-169.693 -144.378)" fill="#1a2e48"/>
          <path id="Path_181320" data-name="Path 181320" d="M346.4,287.816a3.862,3.862,0,0,0-.105.472c.018.01,2.151.249,2.086-.122-.052-.3-.127-.628-.127-.628Z" transform="translate(-173.219 -143.829)" fill="#2e2626"/>
          <path id="Path_181321" data-name="Path 181321" d="M370.635,290.174a3.335,3.335,0,0,1-1.6,1.284c-.884.212-1.21.549-1.253,1.082s2.084,1.232,3.578.3c.982-.616,1.348-.581,1.546-.972a5.2,5.2,0,0,0,.067-1.62,11.576,11.576,0,0,0-2.336-.069" transform="translate(-183.966 -145.135)" fill="#1a2e48"/>
          <path id="Path_181322" data-name="Path 181322" d="M373.938,289.249a4.045,4.045,0,0,0-.028.461c.017.01,1.986.358,1.975,0a2.78,2.78,0,0,0-.125-.633Z" transform="translate(-187.031 -144.601)" fill="#2f6b8c"/>
          <path id="Path_181323" data-name="Path 181323" d="M351.652,233.092s-2.676,6.637-3.445,8.891a33.85,33.85,0,0,0-1.7,7c-.16,1.788-.788,10.227-.9,10.75s3,.347,3,.347,1.752-10.641,2.23-12.545c.444-1.773,4.652-9.818,5.057-9.334s1.753,8.719,2.053,10.117,1.106,12.408,1.106,12.408,2.734.438,3.285,0c0,0-.431-9.817-.623-12.439-.073-1,.632-11.962-1.058-16.384-.893-2.337-9.012,1.189-9.012,1.189" transform="translate(-172.876 -115.6)" fill="#f9b131"/>
          <path id="Path_181324" data-name="Path 181324" d="M359.846,201.734a14.069,14.069,0,0,0-2.615.742,13.507,13.507,0,0,0-1.012,3.919,28.011,28.011,0,0,0,.491,5.157c.326,1.2-.288,6.2-.494,7.866,0,0,4.013,1.825,10.8.4,0,0-1.193-5.176-.992-6.823.257-2.109.943-6.727.943-6.727s.623-4.4.048-4.292a12.177,12.177,0,0,1-4.311-.245Z" transform="translate(-178.182 -100.909)" fill="#244063"/>
          <path id="Path_181325" data-name="Path 181325" d="M362.443,199.057s.71.534,3.086-.513a6.557,6.557,0,0,1,.229-2.815c.466-1.521-3.064,1.586-3.064,1.586.039.027.046.179.024.391,0,.013,0,.027-.005.041a4.046,4.046,0,0,1-.095.519l-.017.068c-.134.509-.159.278-.159.723" transform="translate(-181.297 -97.695)" fill="#eea886"/>
          <path id="Path_181326" data-name="Path 181326" d="M362.8,199.554h0c1.7.218,2.631-1.615,2.658-1.67a2.21,2.21,0,0,1-2.563,1.148,4.121,4.121,0,0,1-.1.522" transform="translate(-181.474 -98.983)" fill="#a77860"/>
          <path id="Path_181327" data-name="Path 181327" d="M362.274,201.684s-.544.81.214.948a3.59,3.59,0,0,0,3.152-1.058,7.176,7.176,0,0,0-3.366.11" transform="translate(-181.118 -100.749)" fill="#eea886"/>
          <path id="Path_181328" data-name="Path 181328" d="M370.243,197.181c-.241-.5.368-1.795,1.4-2.7a7.59,7.59,0,0,1,2.114-1.322c.426-.159,3.331-1.1,3.471-1.459.178-.46.949-2.72,1.012-2.918.125-.394,1.575-4.865,1.575-4.865l1.806.414s-1.347,6.465-1.515,7.294a2.981,2.981,0,0,1-1.42,2.286c-1.236.789-3.945,2.79-4.218,2.9s-3.153,2.591-4.226.376" transform="translate(-185.173 -91.997)" fill="#244063"/>
          <path id="Path_181329" data-name="Path 181329" d="M458.462,212.986,458,204.638l-17.972-2.6-2.8,7.873a43.208,43.208,0,0,0-5.128.878l4.236,20.074a22.318,22.318,0,0,1,18.569,3.467l9.769-18.128a42.444,42.444,0,0,0-6.211-3.219" transform="translate(-216.14 -101.063)" fill="#0cc0c7"/>
          <path id="Path_181330" data-name="Path 181330" d="M444.346,342.145a3.815,3.815,0,0,0-1.008.533,5.387,5.387,0,0,1-2.008,1.151c-.776.14-1.6.128-1.472.959s2.682,1.241,4.987.537,2.34-.767,2.34-.972a14.6,14.6,0,0,0-.454-2.335c-.1-.07-2.383.126-2.383.126" transform="translate(-220.014 -171.074)" fill="#1a2e48"/>
          <path id="Path_181331" data-name="Path 181331" d="M472.24,340.1a4.233,4.233,0,0,1-1.653,1.074c-.765.154-1.769.4-1.82.905a.619.619,0,0,0,.3.664,14.521,14.521,0,0,0,5.252-.253c.867-.326-.132-3.04-.132-3.04Z" transform="translate(-234.479 -169.797)" fill="#1a2e48"/>
          <path id="Path_181332" data-name="Path 181332" d="M456.676,258.009s-2.61,2.909-2.524,2.049a6.427,6.427,0,0,0-.39-2.049c-.133-.419-.248-.722-.248-.722h0c.022-.041,2.841-4.041,2.739-2.79a15.419,15.419,0,0,0,.424,3.513" transform="translate(-226.852 -127.18)" fill="#eea987"/>
          <path id="Path_181333" data-name="Path 181333" d="M456.934,299.613s-1.147,4-.953,4.707A27.223,27.223,0,0,0,458.413,308c.36.522,6.073,9.49,6.138,9.64s3.293-.626,3.422-1.314c0,0-4.525-9.289-5.6-10.515a4.672,4.672,0,0,1-1.153-3.918c.172-1.42,2.272-6.02,1.949-7.913s-6.041,3.632-6.234,5.629" transform="translate(-228.075 -146.859)" fill="#f9b131"/>
          <path id="Path_181334" data-name="Path 181334" d="M444.725,293.645s-7.706,5.838-8.569,7.032.1,2.968.234,3.549,5.325,12.076,5.389,13.077c0,0,3.486.29,4.1-.484,0,0-3.792-10.912-4.341-12.784s1.338-2.326,2.855-3,8.173-4.584,8.56-6.053a4.383,4.383,0,0,0,0-2.353s-1.864-1.205-8.231,1.019" transform="translate(-217.992 -146.211)" fill="#f9b131"/>
          <path id="Path_181335" data-name="Path 181335" d="M447.749,261.763s-5.169-1.806-5.079-2.927,4.626-6.662,4.626-6.662l1.535,1-2.208,5.783,3.915,1.475Z" transform="translate(-221.427 -126.14)" fill="#1a2e48"/>
          <path id="Path_181336" data-name="Path 181336" d="M456.976,259.979a9.412,9.412,0,0,1-.6-1.467,25.236,25.236,0,0,0-2.859,2.531,5.119,5.119,0,0,1,.042,1.334Z" transform="translate(-226.851 -129.31)" fill="#244063"/>
          <path id="Path_181337" data-name="Path 181337" d="M455.1,261.382a1.384,1.384,0,0,0-1.312.258c-.8.516-3.531,3.256-4.026,3.428,0,0,1.177,5.126,1.242,6.481s.952,8.446.436,9.35c0,0,1.983-.542,4.431-1.35a27.694,27.694,0,0,0,4.915-2.273,41.651,41.651,0,0,1-1.917-5.633c-.183-1.429-1.606-8.529-3.768-10.259" transform="translate(-224.975 -130.714)" fill="#244063"/>
          <path id="Path_181338" data-name="Path 181338" d="M446.677,252.558a2.39,2.39,0,0,1-.491-1.468c-.07-1.117-.031-.722-.031-.722Z" transform="translate(-223.165 -125.203)" fill="#eea987"/>
          <path id="Path_181339" data-name="Path 181339" d="M449.354,252.115a6.278,6.278,0,0,0-1.9-.65,2.845,2.845,0,0,0-1.355.466s-.286-1.031-.042-1.44,3.3,1.624,3.3,1.624" transform="translate(-223.072 -125.271)" fill="#5c5c5c"/>
          <path id="Path_181340" data-name="Path 181340" d="M455.343,256.285a4.76,4.76,0,0,1-1.58,2.737l0,0c-.133-.419-.248-.722-.248-.722h0a4.6,4.6,0,0,0,1.831-2.017" transform="translate(-226.851 -128.196)" fill="#a87860"/>
          <path id="Path_181341" data-name="Path 181341" d="M448.149,248.133s-.85,2.525-.935,3.111-1.826-.547-1.826-.547a25.674,25.674,0,0,0,.965-3.189c.173-1.045,1.8.626,1.8.626" transform="translate(-222.787 -123.633)" fill="#efaa88"/>
          <path id="Path_181342" data-name="Path 181342" d="M450.605,258.716a2.011,2.011,0,0,0-1.634-1.52c-1.6-.092-5.231-.1-5.349-.309-.149-.262,1.611-7.309,1.611-7.309a11.162,11.162,0,0,0-2.4-.688s-3.958,10.455-3.489,10.77c1.706,1.146,9.307,1.433,9.307,1.433s1.6-.375,1.906-1.446a2.012,2.012,0,0,0,.05-.93" transform="translate(-219.743 -124.497)" fill="#244063"/>
          <path id="Path_181343" data-name="Path 181343" d="M448.438,241.6a1.332,1.332,0,0,0-.28.32s-.085.245-.157.415a1.114,1.114,0,0,1-.06.129,2.434,2.434,0,0,0-.346.7c-.087.335-.276,1.548-.276,1.548l1.006.343.79.283a11.484,11.484,0,0,0,1.6-1.509.892.892,0,0,0,.029-.087,3.114,3.114,0,0,0,.041-.639c.008-.053.054-.585-.059-.7a.521.521,0,0,0-.478-.167,1.249,1.249,0,0,0-.614-.305.772.772,0,0,0-.656-.191s-.324-.249-.54-.14" transform="translate(-223.753 -120.836)" fill="#efaa88"/>
          <path id="Path_181344" data-name="Path 181344" d="M446.777,247.406s-.325,1.576.1,1.678c.352.084.1,1.61.08,1.854s.656.212.831.312,1.087,1.7,1.62,1.6a8.083,8.083,0,0,0,3.057-2.462c.437-.85.064-3.986-.736-5.116s-4.371-.625-4.952,2.132" transform="translate(-223.423 -122.407)" fill="#eea886"/>
          <path id="Path_181345" data-name="Path 181345" d="M446.431,247.174s-.548-.391-.218-2.175c.381-2.057,4.18-.882,4.483-.894s2.244-.192,2.118,2.646c-.136,3.048-.278,2.991-.278,2.991s-.656-1.618-1.2-1.584c-.59.037-1.538.186-1.538.186s.1-1.414-.7-1.37-1.99-.307-2.663.2" transform="translate(-223.147 -121.942)" fill="#1a2e48"/>
          <path id="Path_181346" data-name="Path 181346" d="M454.189,252.147c-.007-.16-.036-.877.515-.933s.621.815.36,1.414-.835.411-.876-.481" transform="translate(-227.188 -125.658)" fill="#eea886"/>
          <path id="Path_181347" data-name="Path 181347" d="M45.883,231.385h10.83v9.5l-1.653-1.653H45.883Z" transform="translate(-22.951 -115.741)" fill="#ffd48a"/>
          <path id="Path_181348" data-name="Path 181348" d="M91.777,325.386,89.6,310.9l.419-.064L92.2,325.322Z" transform="translate(-44.818 -155.485)" fill="#5c5049"/>
          <path id="Path_181349" data-name="Path 181349" d="M86.457,325.386,84.279,310.9l.419-.064,2.178,14.482Z" transform="translate(-42.157 -155.485)" fill="#5c5049"/>
          <path id="Path_181350" data-name="Path 181350" d="M62.011,325.386l-.419-.064,2.178-14.482.419.064Z" transform="translate(-30.809 -155.485)" fill="#5c5049"/>
          <path id="Path_181351" data-name="Path 181351" d="M85.169,292.994l1.706-17.946a34.194,34.194,0,0,0-4.786-.294l-2.709,18.24Z" transform="translate(-39.706 -137.427)" fill="#ffd48a"/>
          <rect id="Rectangle_37917" data-name="Rectangle 37917" width="5.79" height="0.912" transform="translate(39.673 154.655)" fill="#f9b131"/>
          <path id="Path_181352" data-name="Path 181352" d="M70.895,292.284l-.9-17.1s7.55-.82,12.188-.113Z" transform="translate(-35.01 -137.448)" fill="#ffd48a"/>
          <path id="Path_181353" data-name="Path 181353" d="M76.527,259.659s1.166-3.419-1.059-4.479a3.436,3.436,0,0,0-4.471,1.3,5.921,5.921,0,0,0,.042,3.388c.3,1.051.26,2.651-.4,3.187a3.711,3.711,0,0,0-1.44,3.234c.025,1.123,4.418-2.871,4.418-2.871Z" transform="translate(-34.613 -127.463)" fill="#1a2e48"/>
          <path id="Path_181354" data-name="Path 181354" d="M77.037,334.257s-.069,2.416.276,2.561,1.651-.695,2.227-1.526-.722-2.765-.935-3.831c-.089-.447-1.1-1.25-1.6-1.02a2.415,2.415,0,0,0-.856.82,2.92,2.92,0,0,1,.887,3" transform="translate(-38.091 -165.27)" fill="#b0b0a8"/>
          <path id="Path_181355" data-name="Path 181355" d="M76.15,331.3a13.383,13.383,0,0,1,.649,1.464c.22.64.261,2.411.4,2.534s1.233-.429,1.379-1.092a4.848,4.848,0,0,0-.72-2.683,4.332,4.332,0,0,0-.852-1.045,1.1,1.1,0,0,0-.856.82" transform="translate(-38.091 -165.31)" fill="#de9673"/>
          <path id="Path_181356" data-name="Path 181356" d="M81.061,332.522l1.176,1.716-.223.152-.909-1.326Z" transform="translate(-40.548 -166.331)" fill="#b0b0a8"/>
          <path id="Path_181357" data-name="Path 181357" d="M68.175,293.913a1.6,1.6,0,0,1,0,1.678c-.575.707-4.441,2.649-4.413,3.77a9.688,9.688,0,0,0,.991,3.323c.254.446,1.193,2.294,1.681,3.376s3.309,6.256,3.86,7.422.212-4.666.212-4.666l-2.821-8.271,6.59-6.42s-.8-1.775-6.1-.212" transform="translate(-31.895 -146.696)" fill="#de9673"/>
          <path id="Path_181358" data-name="Path 181358" d="M72.713,272.549a12.736,12.736,0,0,0-2.554.83c-.726.424-2.338,2.375-2.338,3.214s7.049,1.623,7.049,1.623l1.336,4.878s3.563-.87,3.987-1.591-1.4-5.854-1.657-6.935-1.587-1.811-3.072-2.019a10.2,10.2,0,0,0-2.751,0" transform="translate(-33.925 -136.285)" fill="#a8fdff"/>
          <path id="Path_181359" data-name="Path 181359" d="M78.278,294.877s-.127.834.212,1.188,1.9,2.415,1.075,4.44a2.548,2.548,0,0,1-2.234,1.824H75.049a24.28,24.28,0,0,1,.448,5.553c-.214,2.206-1.22,7.242-1.241,7.5s-.965,1.05-1.24.647c0,0-.025-3.033-.174-4.178s-.781-5.726-.972-6.4-1.314-2.736-1.314-2.948-1.1-3.533,1.3-4.381,3.244-3.219,6.423-3.237" transform="translate(-35.168 -147.5)" fill="#eea886"/>
          <path id="Path_181360" data-name="Path 181360" d="M72.046,338.842s-1.573,1.835-1.4,2.165,1.72.5,2.691.214,1.178-2.6,1.683-3.567c.212-.4-.072-1.666-.6-1.8a2.42,2.42,0,0,0-1.182.1,2.92,2.92,0,0,1-1.194,2.887" transform="translate(-35.332 -167.978)" fill="#d1d1c7"/>
          <path id="Path_181361" data-name="Path 181361" d="M74.146,335.863a13.355,13.355,0,0,1-.416,1.546c-.231.636-1.313,2.04-1.282,2.223a1.736,1.736,0,0,0,1.759.018,4.855,4.855,0,0,0,1.127-2.539,4.323,4.323,0,0,0-.006-1.348,1.1,1.1,0,0,0-1.182.1" transform="translate(-36.239 -167.886)" fill="#eea886"/>
          <path id="Path_181362" data-name="Path 181362" d="M78.98,339.494l-.165,2.074-.269-.021.128-1.6Z" transform="translate(-39.289 -169.818)" fill="#d1d1c7"/>
          <path id="Path_181363" data-name="Path 181363" d="M76.282,299.7a2.464,2.464,0,0,1-2.234,1.824H71.767a4.509,4.509,0,0,0-3.282-1.767,6.889,6.889,0,0,0-1.757.042l-.023,0c-3.1.458-2.5,1.595-2.489,1.624a5.562,5.562,0,0,1-.462-2.165c.3-2.451,3.838-2.965,4.413-3.671a1.6,1.6,0,0,0,0-1.678c5.3-1.563,6.1.212,6.1.212.232-.032.828-.375,1.082-.377,0,0,.265.58.452,1.1.165.462,1.259,2.805.481,4.85" transform="translate(-31.885 -146.696)" fill="#244063"/>
          <path id="Path_181364" data-name="Path 181364" d="M74.091,279.142l.785,7.3H64.548l-.785-7.3Z" transform="translate(-31.895 -139.629)" fill="#ded1c5"/>
          <rect id="Rectangle_37918" data-name="Rectangle 37918" width="1.725" height="0.656" transform="translate(42.078 146.152)" fill="#ded1c5"/>
          <rect id="Rectangle_37919" data-name="Rectangle 37919" width="32.894" height="0.993" transform="translate(25.535 146.808)" fill="#1a2e48"/>
          <path id="Path_181365" data-name="Path 181365" d="M77.321,256.662s2.314.685,1.983,3.9-1.842,3.046-1.983,3.07-1.937.141-2.5-3.754,2.5-3.211,2.5-3.211" transform="translate(-37.389 -128.361)" fill="#eea886"/>
          <path id="Path_181366" data-name="Path 181366" d="M79.488,268.733a5.3,5.3,0,0,0,.082,1.724c.2.661-2.695.68-2.693.136A5.575,5.575,0,0,0,76.9,268.4c-.278-1.059,2.592.332,2.592.332" transform="translate(-38.455 -134.058)" fill="#eea886"/>
          <path id="Path_181367" data-name="Path 181367" d="M76.555,257.9a6.933,6.933,0,0,0,2.581,2.464s.722-3.356-2.262-4.059-2.517,3.39-2.294,4.481a8.866,8.866,0,0,1,1.975-2.886" transform="translate(-37.221 -128.163)" fill="#1a2e48"/>
          <path id="Path_181368" data-name="Path 181368" d="M77.6,269.734a1.565,1.565,0,0,0,2.086.1.934.934,0,0,1-.939.688,1.173,1.173,0,0,1-1.148-.788" transform="translate(-38.817 -134.924)" fill="#a77860"/>
          <path id="Path_181369" data-name="Path 181369" d="M75.326,257.45s.662-1.282,1.78-1.339a2.206,2.206,0,0,1,1.782.912,1.9,1.9,0,0,0-1.781-1.092c-1.344,0-1.781,1.518-1.781,1.518" transform="translate(-37.679 -128.02)" fill="#f9b131"/>
          <path id="Path_181370" data-name="Path 181370" d="M79.625,272.477s-.041,2.223-1.8,2.289-1.4-2.132-1.4-2.132a6.127,6.127,0,0,1,3.2-.157" transform="translate(-38.213 -136.231)" fill="#eea886"/>
          <rect id="Rectangle_37920" data-name="Rectangle 37920" width="0.731" height="25.071" transform="translate(57.698 147.801)" fill="#1a2e48"/>
          <rect id="Rectangle_37921" data-name="Rectangle 37921" width="0.731" height="25.071" transform="translate(25.535 147.801)" fill="#1a2e48"/>
          <path id="Path_181371" data-name="Path 181371" d="M223.081,54.558a3.373,3.373,0,0,1-1.748-1.168,2.527,2.527,0,0,1-.511-2.08,15.346,15.346,0,0,0-.09-4.045,6.78,6.78,0,1,1,7.9,1.9,14.607,14.607,0,0,0-1.652,3.479,2.963,2.963,0,0,1-3.653,1.976q-.127-.027-.249-.063m4.607-17.6a6.225,6.225,0,0,0-6.481,10l.051.06.012.079a16.005,16.005,0,0,1,.1,4.289l0,.021a1.979,1.979,0,0,0,.406,1.636,2.858,2.858,0,0,0,1.674,1.026,2.413,2.413,0,0,0,3-1.562l0-.01,0-.01a15.255,15.255,0,0,1,1.763-3.7l.047-.074.081-.033a6.224,6.224,0,0,0-.652-11.726" transform="translate(-109.632 -18.088)" fill="#f9b131"/>
          <path id="Path_181372" data-name="Path 181372" d="M225.481,60.508l.647-7.413,1.246,1.563,1.153-.841.6,1.143,1.659-.9-2.375,7.063-.525-.177,1.926-5.727-.913.494-.566-1.071-1.064.777-.712-.893-.526,6.029Z" transform="translate(-112.788 -26.558)" fill="#f9b131"/>
          <rect id="Rectangle_37922" data-name="Rectangle 37922" width="1.938" height="4.809" transform="translate(111.076 37.256) rotate(-77.771)" fill="#f9b131"/>
          <rect id="Rectangle_37923" data-name="Rectangle 37923" width="3.119" height="6.355" transform="translate(110.49 36.312) rotate(-77.773)" fill="#f9b131"/>
          <path id="Path_181373" data-name="Path 181373" d="M54.332,140.483,54,140.368l2.81-8.181,6.279-1.739,2.16-8.968,4.835-2.2,1.009-6.966.351.051L70.4,119.522l-4.854,2.21-2.169,9-6.3,1.744Z" transform="translate(-27.01 -56.18)" fill="#42e0e6"/>
          <path id="Path_181374" data-name="Path 181374" d="M72.257,147.332a.945.945,0,1,1-1.331-.118.945.945,0,0,1,1.331.118" transform="translate(-35.308 -73.527)" fill="#fff"/>
          <path id="Path_181375" data-name="Path 181375" d="M72.075,148.623a1.122,1.122,0,1,1,.14-1.581,1.124,1.124,0,0,1-.14,1.581m-1.213-1.45a.768.768,0,1,0,1.082.1.768.768,0,0,0-1.082-.1" transform="translate(-35.131 -73.351)" fill="#ffd078"/>
          <path id="Path_181376" data-name="Path 181376" d="M76.639,129.461a.945.945,0,1,1-1.331-.118.945.945,0,0,1,1.331.118" transform="translate(-37.5 -64.588)" fill="#fff"/>
          <path id="Path_181377" data-name="Path 181377" d="M76.457,130.751a1.122,1.122,0,1,1,.14-1.581,1.124,1.124,0,0,1-.14,1.581m-1.213-1.45a.768.768,0,1,0,1.082.1.769.769,0,0,0-1.082-.1" transform="translate(-37.323 -64.411)" fill="#ffd078"/>
          <path id="Path_181378" data-name="Path 181378" d="M86.163,124.936a.945.945,0,1,1-1.331-.118.945.945,0,0,1,1.331.118" transform="translate(-42.264 -62.325)" fill="#fff"/>
          <path id="Path_181379" data-name="Path 181379" d="M85.981,126.227a1.122,1.122,0,1,1,.14-1.581,1.124,1.124,0,0,1-.14,1.581m-1.213-1.45a.768.768,0,1,0,1.082.1.768.768,0,0,0-1.082-.1" transform="translate(-42.087 -62.148)" fill="#ffd078"/>
          <path id="Path_181380" data-name="Path 181380" d="M59.745,150.977a.945.945,0,1,1-1.331-.118.945.945,0,0,1,1.331.118" transform="translate(-29.05 -75.351)" fill="#fff"/>
          <path id="Path_181381" data-name="Path 181381" d="M59.563,152.267a1.122,1.122,0,1,1,.14-1.581,1.124,1.124,0,0,1-.14,1.581m-1.213-1.45a.768.768,0,1,0,1.082.1.768.768,0,0,0-1.082-.1" transform="translate(-28.873 -75.174)" fill="#ffd078"/>
          <rect id="Rectangle_37924" data-name="Rectangle 37924" width="15.209" height="1.066" transform="translate(210.343 60.617)" fill="#ffd48a"/>
          <rect id="Rectangle_37925" data-name="Rectangle 37925" width="15.209" height="4.482" transform="translate(210.343 62.626)" fill="#ffd48a"/>
          <rect id="Rectangle_37926" data-name="Rectangle 37926" width="8.972" height="0.67" transform="translate(203.199 68.615)" fill="#ffd48a"/>
          <rect id="Rectangle_37927" data-name="Rectangle 37927" width="8.972" height="1.814" transform="translate(203.199 69.578)" fill="#ffd48a"/>
          <rect id="Rectangle_37928" data-name="Rectangle 37928" width="0.67" height="12.559" transform="translate(228.049 54.87)" fill="#ffd48a"/>
          <path id="Path_181382" data-name="Path 181382" d="M445.384,190.715l-10.948-6.123,3.763-.248Z" transform="translate(-217.309 -92.21)" fill="#d6d6d6"/>
          <path id="Path_181383" data-name="Path 181383" d="M450.14,191.593l-3.369-5.419-2.827-.075Z" transform="translate(-222.065 -93.088)" fill="#e8e8e8"/>
          <path id="Path_181384" data-name="Path 181384" d="M439.253,187.657l-.219,1.38,8.65,3.335Z" transform="translate(-219.609 -93.868)" fill="#c2c2c2"/>
          <path id="Path_181385" data-name="Path 181385" d="M78.221,179.273a32.751,32.751,0,0,1-.261-4.4c0-.276,0-.563.009-.858l.865.018q-.009.433-.009.839a32.487,32.487,0,0,0,.252,4.27Zm1.07-10.348-.854-.138a30.3,30.3,0,0,1,1.275-5.105l.817.285a29.373,29.373,0,0,0-1.238,4.958m177.19-3.9a16.518,16.518,0,0,0-3.528-2.743l.455-.736a17.444,17.444,0,0,1,3.722,2.909Zm-74.509-2.673,0-.865c1.734,0,3.472-.046,5.167-.126l.041.864c-1.708.081-3.459.123-5.206.127m-5.2-.1c-1.7-.068-3.444-.172-5.2-.309l.067-.863c1.741.137,3.478.24,5.162.308Zm15.605-.4L192.29,161c1.714-.163,3.44-.371,5.128-.617l.125.856c-1.7.248-3.443.457-5.171.622m-25.98-.411c-1.669-.189-3.4-.412-5.158-.662l.122-.856c1.745.249,3.472.471,5.133.659Zm36.285-1.093-.167-.848c1.239-.245,2.49-.517,3.72-.808q.672-.16,1.335-.309l.19.844q-.657.148-1.326.307c-1.24.294-2.5.568-3.752.815m45.71-.365a40.02,40.02,0,0,0-4.867-1.615l.221-.836a40.8,40.8,0,0,1,4.973,1.651Zm-92.289-.006c-1.647-.277-3.321-.576-5.115-.914l.16-.85c1.79.337,3.458.635,5.1.911Zm-73.384-.6-.731-.462a19.231,19.231,0,0,1,3.4-4.05l.578.644a18.357,18.357,0,0,0-3.246,3.868M212.821,158.2l-.154-.851c1.738-.315,3.47-.586,5.147-.806l.112.858c-1.663.218-3.381.487-5.1.8m-66.936-.131q-2.553-.519-5.083-1.058l.179-.846q2.526.536,5.076,1.056Zm92.6-.737c-1.641-.253-3.363-.439-5.117-.552l.056-.863c1.78.115,3.527.3,5.193.561Zm-15.425-.464-.065-.862c1.769-.132,3.522-.208,5.211-.226l.008.865c-1.67.017-3.405.092-5.155.223m-87.335-.943q-2.546-.547-5.072-1.085l.179-.846q2.527.535,5.074,1.086Zm-10.147-2.137c-1.829-.369-3.493-.691-5.085-.986l.157-.851c1.6.3,3.266.619,5.1.989ZM90.153,152.71l-.377-.779a22.462,22.462,0,0,1,4.988-1.7l.184.845a21.621,21.621,0,0,0-4.8,1.631m25.241-.793c-1.765-.283-3.488-.534-5.119-.744l.11-.858c1.64.212,3.371.463,5.146.749Zm-10.256-1.309-.066-.006c-1.268-.113-2.509-.164-3.692-.17q-.7,0-1.37.026l-.033-.864c.459-.017.942-.026,1.406-.026,1.206,0,2.473.058,3.766.173l.064.005Z" transform="translate(-38.996 -74.815)" fill="#a8fdff"/>
        </g>
      </g>
    </g>
  </g>
</svg>
