<svg xmlns="http://www.w3.org/2000/svg" xmlns:xlink="http://www.w3.org/1999/xlink" width="295" height="280" viewBox="0 0 295 280">
  <defs>
    <clipPath id="clip-path">
      <rect id="Rectangle_37787" data-name="Rectangle 37787" width="263.928" height="173.161" fill="none"/>
    </clipPath>
    <clipPath id="clip-path-3">
      <rect id="Rectangle_37771" data-name="Rectangle 37771" width="41.067" height="40.242" fill="none"/>
    </clipPath>
    <clipPath id="clip-path-4">
      <rect id="Rectangle_37773" data-name="Rectangle 37773" width="128.332" height="77.083" fill="none"/>
    </clipPath>
    <clipPath id="clip-path-5">
      <rect id="Rectangle_37776" data-name="Rectangle 37776" width="23.847" height="35.303" fill="none"/>
    </clipPath>
    <clipPath id="clip-path-6">
      <path id="Path_180598" data-name="Path 180598" d="M11.044,42.926A6.253,6.253,0,1,1,17.3,49.179a6.253,6.253,0,0,1-6.253-6.253m-5.55,0a11.8,11.8,0,1,0,11.8-11.8,11.8,11.8,0,0,0-11.8,11.8" transform="translate(-5.494 -31.122)" fill="none"/>
    </clipPath>
  </defs>
  <g id="t5-c1" transform="translate(-5881 9225)">
    <path id="Rectangle_36599" data-name="Rectangle 36599" d="M20,3A17,17,0,0,0,3,20V260a17,17,0,0,0,17,17H275a17,17,0,0,0,17-17V20A17,17,0,0,0,275,3H20m0-3H275a20,20,0,0,1,20,20V260a20,20,0,0,1-20,20H20A20,20,0,0,1,0,260V20A20,20,0,0,1,20,0Z" transform="translate(5881 -9225)" fill="#f9b131"/>
    <path id="Rectangle_37365" data-name="Rectangle 37365" d="M0,0H295a0,0,0,0,1,0,0V52a20,20,0,0,1-20,20H20A20,20,0,0,1,0,52V0A0,0,0,0,1,0,0Z" transform="translate(5881 -9017)" fill="#f9b131"/>
    <path id="Path_184773" data-name="Path 184773" d="M49.805,17H46.729V4.2h3.076Zm1.635-4.825a5.809,5.809,0,0,1,.976-3.56,3.211,3.211,0,0,1,2.725-1.3,2.731,2.731,0,0,1,2.145,1V3.5h2.971V17H57.592l-.149-1.02a2.8,2.8,0,0,1-2.32,1.2,3.205,3.205,0,0,1-2.689-1.3A5.993,5.993,0,0,1,51.44,12.175Zm2.962.185q0,2.531,1.477,2.531a1.458,1.458,0,0,0,1.406-.826V10.443A1.419,1.419,0,0,0,55.9,9.6q-1.371,0-1.485,2.215ZM66.54,17.176A4.889,4.889,0,0,1,63,15.871a4.507,4.507,0,0,1-1.354-3.4v-.246a5.84,5.84,0,0,1,.541-2.575,3.955,3.955,0,0,1,1.578-1.727,4.763,4.763,0,0,1,2.461-.611,4.117,4.117,0,0,1,3.164,1.244,4.887,4.887,0,0,1,1.16,3.467v1.151H64.659a2.135,2.135,0,0,0,.694,1.257,2.066,2.066,0,0,0,1.389.457,2.662,2.662,0,0,0,2.2-.984l1.354,1.6a3.784,3.784,0,0,1-1.569,1.217A5.3,5.3,0,0,1,66.54,17.176ZM66.206,9.6q-1.3,0-1.547,1.723h2.988v-.229a1.467,1.467,0,0,0-.36-1.1A1.434,1.434,0,0,0,66.206,9.6ZM74.458,7.49l.1,1.116a3.225,3.225,0,0,1,2.716-1.292A2.713,2.713,0,0,1,79.49,8.2a4.226,4.226,0,0,1,.76,2.672V17H77.28V11a1.6,1.6,0,0,0-.29-1.059A1.342,1.342,0,0,0,75.935,9.6a1.413,1.413,0,0,0-1.292.686V17H71.681V7.49ZM85.339,5.126V7.49H86.9V9.547H85.339V13.9a1.111,1.111,0,0,0,.193.747,1.037,1.037,0,0,0,.765.211,4.345,4.345,0,0,0,.738-.053v2.118a5.466,5.466,0,0,1-1.67.255,3.1,3.1,0,0,1-2.259-.721,2.954,2.954,0,0,1-.729-2.188V9.547H81.165V7.49h1.213V5.126ZM91.193,17H88.222V7.49h2.971ZM88.046,5.029A1.334,1.334,0,0,1,88.5,3.986a1.934,1.934,0,0,1,2.373,0,1.334,1.334,0,0,1,.457,1.043,1.334,1.334,0,0,1-.457,1.043,1.934,1.934,0,0,1-2.373,0A1.334,1.334,0,0,1,88.046,5.029ZM93.707,17V9.547h-1.38V7.49h1.38V7.174a3.631,3.631,0,0,1,1.248-2.909A4.987,4.987,0,0,1,98.2,3.315a11.509,11.509,0,0,1,3.094.51l-.4,2.338-.492-.132a7.832,7.832,0,0,0-2.021-.255q-1.7,0-1.7,1.547V7.49h1.863V9.547H96.677V17Zm8.947,0H99.674V7.49h2.979Zm5.827-2.109a1.317,1.317,0,0,0,.967-.338,1.241,1.241,0,0,0,.334-.945h2.777a3.288,3.288,0,0,1-1.121,2.566,4.168,4.168,0,0,1-2.887,1,4.22,4.22,0,0,1-3.27-1.3,5.125,5.125,0,0,1-1.2-3.6v-.123a5.792,5.792,0,0,1,.532-2.544,3.872,3.872,0,0,1,1.534-1.7,4.573,4.573,0,0,1,2.373-.593,4.116,4.116,0,0,1,2.944,1.028,3.647,3.647,0,0,1,1.09,2.786h-2.777a1.626,1.626,0,0,0-.36-1.134,1.244,1.244,0,0,0-.967-.4q-1.151,0-1.345,1.468a10.357,10.357,0,0,0-.062,1.283,4.068,4.068,0,0,0,.343,1.986A1.187,1.187,0,0,0,108.481,14.891ZM119.168,17a3.344,3.344,0,0,1-.281-.853,2.754,2.754,0,0,1-2.285,1.028,3.374,3.374,0,0,1-2.285-.813,2.588,2.588,0,0,1-.94-2.043,2.66,2.66,0,0,1,1.143-2.338,5.821,5.821,0,0,1,3.322-.791h.914v-.5q0-1.316-1.134-1.316a.927.927,0,0,0-1.055,1.042H113.6a2.655,2.655,0,0,1,1.173-2.239,4.931,4.931,0,0,1,2.993-.86,4.323,4.323,0,0,1,2.874.888,3.086,3.086,0,0,1,1.081,2.435v4.21a4.311,4.311,0,0,0,.4,2V17Zm-1.854-1.934a1.652,1.652,0,0,0,.918-.237,1.487,1.487,0,0,0,.523-.536V12.772h-.861q-1.547,0-1.547,1.389a.848.848,0,0,0,.272.655A.986.986,0,0,0,117.314,15.066Zm10.072-.176a1.317,1.317,0,0,0,.967-.338,1.241,1.241,0,0,0,.334-.945h2.777a3.288,3.288,0,0,1-1.121,2.566,4.168,4.168,0,0,1-2.887,1,4.22,4.22,0,0,1-3.27-1.3,5.125,5.125,0,0,1-1.2-3.6v-.123a5.792,5.792,0,0,1,.532-2.544,3.872,3.872,0,0,1,1.534-1.7,4.573,4.573,0,0,1,2.373-.593,4.116,4.116,0,0,1,2.944,1.028,3.647,3.647,0,0,1,1.09,2.786h-2.777a1.626,1.626,0,0,0-.36-1.134,1.244,1.244,0,0,0-.967-.4q-1.151,0-1.345,1.468a10.357,10.357,0,0,0-.062,1.283,4.068,4.068,0,0,0,.343,1.986A1.187,1.187,0,0,0,127.386,14.891ZM135.841,17h-2.971V7.49h2.971ZM132.695,5.029a1.334,1.334,0,0,1,.457-1.043,1.934,1.934,0,0,1,2.373,0,1.334,1.334,0,0,1,.457,1.043,1.334,1.334,0,0,1-.457,1.043,1.934,1.934,0,0,1-2.373,0A1.334,1.334,0,0,1,132.695,5.029Zm4.6,7.128a5.613,5.613,0,0,1,.554-2.536,3.96,3.96,0,0,1,1.591-1.709,4.791,4.791,0,0,1,2.435-.6,4.373,4.373,0,0,1,3.366,1.323,5.076,5.076,0,0,1,1.23,3.6v.105a4.925,4.925,0,0,1-1.235,3.529,4.384,4.384,0,0,1-3.344,1.305,4.434,4.434,0,0,1-3.261-1.217,4.761,4.761,0,0,1-1.327-3.3Zm2.962.185a3.538,3.538,0,0,0,.413,1.934,1.376,1.376,0,0,0,1.222.615q1.582,0,1.617-2.435v-.3q0-2.558-1.635-2.558-1.485,0-1.608,2.206ZM142.275,3.5H145.4L142.96,6.26l-2.417,0Zm8.218,3.99.1,1.116a3.225,3.225,0,0,1,2.716-1.292,2.713,2.713,0,0,1,2.219.888,4.226,4.226,0,0,1,.76,2.672V17h-2.971V11a1.6,1.6,0,0,0-.29-1.059,1.342,1.342,0,0,0-1.055-.338,1.413,1.413,0,0,0-1.292.686V17h-2.962V7.49Zm11.54,4.685a5.809,5.809,0,0,1,.976-3.56,3.211,3.211,0,0,1,2.725-1.3,2.731,2.731,0,0,1,2.145,1V3.5h2.971V17h-2.663l-.149-1.02a2.8,2.8,0,0,1-2.32,1.2,3.205,3.205,0,0,1-2.689-1.3A5.993,5.993,0,0,1,162.033,12.175Zm2.962.185q0,2.531,1.477,2.531a1.458,1.458,0,0,0,1.406-.826V10.443a1.419,1.419,0,0,0-1.389-.844q-1.371,0-1.485,2.215Zm12.138,4.816a4.889,4.889,0,0,1-3.542-1.305,4.507,4.507,0,0,1-1.354-3.4v-.246a5.84,5.84,0,0,1,.541-2.575,3.955,3.955,0,0,1,1.578-1.727,4.763,4.763,0,0,1,2.461-.611,4.117,4.117,0,0,1,3.164,1.244,4.887,4.887,0,0,1,1.16,3.467v1.151h-5.889a2.135,2.135,0,0,0,.694,1.257,2.066,2.066,0,0,0,1.389.457,2.662,2.662,0,0,0,2.2-.984l1.354,1.6a3.784,3.784,0,0,1-1.569,1.217A5.3,5.3,0,0,1,177.132,17.176ZM176.8,9.6q-1.3,0-1.547,1.723h2.988v-.229a1.467,1.467,0,0,0-.36-1.1A1.434,1.434,0,0,0,176.8,9.6Zm8.657,7.4h-2.971V3.5h2.971ZM52.319,39.891a1.317,1.317,0,0,0,.967-.338,1.241,1.241,0,0,0,.334-.945H56.4a3.288,3.288,0,0,1-1.121,2.566,4.168,4.168,0,0,1-2.887,1,4.22,4.22,0,0,1-3.27-1.3,5.125,5.125,0,0,1-1.2-3.6v-.123a5.792,5.792,0,0,1,.532-2.544,3.872,3.872,0,0,1,1.534-1.7,4.573,4.573,0,0,1,2.373-.593,4.116,4.116,0,0,1,2.944,1.028,3.647,3.647,0,0,1,1.09,2.786H53.62A1.626,1.626,0,0,0,53.259,35a1.244,1.244,0,0,0-.967-.4q-1.151,0-1.345,1.468a10.357,10.357,0,0,0-.062,1.283,4.068,4.068,0,0,0,.343,1.986A1.187,1.187,0,0,0,52.319,39.891Zm4.957-2.733a5.613,5.613,0,0,1,.554-2.536,3.96,3.96,0,0,1,1.591-1.709,4.791,4.791,0,0,1,2.435-.6,4.373,4.373,0,0,1,3.366,1.323,5.076,5.076,0,0,1,1.23,3.6v.105a4.925,4.925,0,0,1-1.235,3.529,4.384,4.384,0,0,1-3.344,1.305,4.434,4.434,0,0,1-3.261-1.217,4.761,4.761,0,0,1-1.327-3.3Zm2.962.185a3.538,3.538,0,0,0,.413,1.934,1.376,1.376,0,0,0,1.222.615q1.582,0,1.617-2.435v-.3q0-2.558-1.635-2.558-1.485,0-1.608,2.206ZM70.477,32.49l.1,1.116a3.225,3.225,0,0,1,2.716-1.292,2.713,2.713,0,0,1,2.219.888,4.226,4.226,0,0,1,.76,2.672V42H73.3V36a1.6,1.6,0,0,0-.29-1.059,1.342,1.342,0,0,0-1.055-.338,1.413,1.413,0,0,0-1.292.686V42H67.7V32.49Zm12.41,6.838a.684.684,0,0,0-.4-.606,6.016,6.016,0,0,0-1.5-.475,6.853,6.853,0,0,1-1.828-.646,3.062,3.062,0,0,1-1.1-.971,2.319,2.319,0,0,1-.378-1.31,2.628,2.628,0,0,1,1.081-2.158,4.453,4.453,0,0,1,2.83-.848,4.934,4.934,0,0,1,3.023.853,2.666,2.666,0,0,1,1.143,2.241H82.791q0-1.143-1.2-1.143a1.194,1.194,0,0,0-.782.259.8.8,0,0,0-.316.646.737.737,0,0,0,.387.642,3.654,3.654,0,0,0,1.235.4,10.671,10.671,0,0,1,1.49.378,2.706,2.706,0,0,1,2.145,2.646,2.491,2.491,0,0,1-1.156,2.118,5.068,5.068,0,0,1-2.993.817,5.172,5.172,0,0,1-2.18-.439,3.645,3.645,0,0,1-1.494-1.2,2.707,2.707,0,0,1-.536-1.591h2.769a1.145,1.145,0,0,0,.439.962,1.808,1.808,0,0,0,1.081.3,1.422,1.422,0,0,0,.91-.246A.787.787,0,0,0,82.887,39.328Zm9.905,1.644a3.054,3.054,0,0,1-2.54,1.2,3,3,0,0,1-2.369-.91,3.826,3.826,0,0,1-.8-2.615V32.49h2.962v6.179a1.065,1.065,0,0,0,1.187,1.222,1.548,1.548,0,0,0,1.45-.729V32.49h2.979V42H92.88Zm7.286-8.481.1,1.116a3.27,3.27,0,0,1,2.716-1.292,2.407,2.407,0,0,1,2.435,1.433,3.165,3.165,0,0,1,2.795-1.433q2.892,0,2.971,3.5V42h-2.971V36a1.813,1.813,0,0,0-.246-1.063,1.048,1.048,0,0,0-.9-.334,1.4,1.4,0,0,0-1.31.782l.009.123V42h-2.971V36.015a1.906,1.906,0,0,0-.237-1.081,1.045,1.045,0,0,0-.905-.334,1.42,1.42,0,0,0-1.3.782V42H97.3V32.49ZM115.908,42h-2.971V32.49h2.971Zm-3.146-11.971a1.334,1.334,0,0,1,.457-1.043,1.934,1.934,0,0,1,2.373,0,1.42,1.42,0,0,1,0,2.087,1.934,1.934,0,0,1-2.373,0A1.334,1.334,0,0,1,112.761,30.029Zm4.6,7.146a5.809,5.809,0,0,1,.976-3.56,3.211,3.211,0,0,1,2.725-1.3,2.731,2.731,0,0,1,2.145,1V28.5h2.971V42H123.51l-.149-1.02a2.8,2.8,0,0,1-2.32,1.2,3.205,3.205,0,0,1-2.689-1.3A5.993,5.993,0,0,1,117.358,37.175Zm2.962.185q0,2.531,1.477,2.531a1.458,1.458,0,0,0,1.406-.826V35.443a1.419,1.419,0,0,0-1.389-.844q-1.371,0-1.485,2.215Zm7.163-.2a5.613,5.613,0,0,1,.554-2.536,3.96,3.96,0,0,1,1.591-1.709,4.791,4.791,0,0,1,2.435-.6,4.373,4.373,0,0,1,3.366,1.323,5.076,5.076,0,0,1,1.23,3.6v.105a4.925,4.925,0,0,1-1.235,3.529,4.384,4.384,0,0,1-3.344,1.305,4.434,4.434,0,0,1-3.261-1.217,4.761,4.761,0,0,1-1.327-3.3Zm2.962.185a3.538,3.538,0,0,0,.413,1.934,1.376,1.376,0,0,0,1.222.615q1.582,0,1.617-2.435v-.3q0-2.558-1.635-2.558-1.485,0-1.608,2.206Zm13.271-2.171-.976-.07a1.752,1.752,0,0,0-1.793.879V42h-2.962V32.49h2.777l.1,1.222a2.294,2.294,0,0,1,2.083-1.4,2.888,2.888,0,0,1,.826.105ZM149.957,42V34.547h-1.38V32.49h1.38v-.316a3.631,3.631,0,0,1,1.248-2.909,4.987,4.987,0,0,1,3.243-.949,11.509,11.509,0,0,1,3.094.51l-.4,2.338-.492-.132a7.832,7.832,0,0,0-2.021-.255q-1.7,0-1.7,1.547v.167h1.863v2.057h-1.863V42Zm8.947,0h-2.979V32.49H158.9Zm4.526-9.51.1,1.116a3.225,3.225,0,0,1,2.716-1.292,2.713,2.713,0,0,1,2.219.888,4.226,4.226,0,0,1,.76,2.672V42h-2.971V36a1.6,1.6,0,0,0-.29-1.059,1.342,1.342,0,0,0-1.055-.338,1.413,1.413,0,0,0-1.292.686V42h-2.962V32.49ZM176.218,42a3.344,3.344,0,0,1-.281-.853,2.754,2.754,0,0,1-2.285,1.028,3.374,3.374,0,0,1-2.285-.813,2.588,2.588,0,0,1-.94-2.043,2.66,2.66,0,0,1,1.143-2.338,5.821,5.821,0,0,1,3.322-.791h.914v-.5q0-1.316-1.134-1.316a.927.927,0,0,0-1.055,1.042h-2.962a2.655,2.655,0,0,1,1.173-2.239,4.931,4.931,0,0,1,2.993-.86,4.323,4.323,0,0,1,2.874.888,3.086,3.086,0,0,1,1.081,2.435v4.21a4.311,4.311,0,0,0,.4,2V42Zm-1.854-1.934a1.652,1.652,0,0,0,.918-.237,1.487,1.487,0,0,0,.523-.536V37.772h-.861q-1.547,0-1.547,1.389a.848.848,0,0,0,.272.655A.986.986,0,0,0,174.364,40.066ZM183.54,42h-2.971V28.5h2.971Z" transform="translate(5913 -9004)" fill="#12263f"/>
    <g id="Group_117838" data-name="Group 117838" transform="translate(5897 -9205.666)">
      <g id="Group_117837" data-name="Group 117837" clip-path="url(#clip-path)">
        <g id="Group_117832" data-name="Group 117832">
          <g id="Group_117831" data-name="Group 117831" clip-path="url(#clip-path)">
            <path id="Path_180472" data-name="Path 180472" d="M29.544,20.868c39.463-15.153,79.573-1.756,106.776,27.422s84.293-20.14,114.571,8.991c20.663,19.88,11.2,70.993-17.134,93.132C195.247,180.5,51.778,181.408,27.974,171.082c-40.677-17.645-.26-50.32-19.247-81.643-22.4-36.952,3.378-61.874,20.817-68.57" transform="translate(0 -7.505)" fill="#e7f3fe"/>
            <path id="Path_180473" data-name="Path 180473" d="M251.15,331.141c-18.975-1.047-83.523.727-103.154,1.418s-42.418-.912-54.255-3.271-80.258.2-77.153,6.543,30.485,2.837,61.534,5.386,100.879-.319,116.631,0,30.2-.637,50.494-1.912,16.9-7.557,5.9-8.164" transform="translate(-8.489 -169.121)" fill="#cce2ff"/>
            <g id="Group_117824" data-name="Group 117824" transform="translate(185.5)" opacity="0.5">
              <g id="Group_117823" data-name="Group 117823">
                <g id="Group_117822" data-name="Group 117822" clip-path="url(#clip-path-3)">
                  <path id="Path_180474" data-name="Path 180474" d="M423.368,22.426a20.671,20.671,0,0,0,.13-2.305c0-.411-.014-.819-.037-1.225l-3.81-1.233A16.756,16.756,0,0,0,418.3,13.1l2.526-3.108a20.6,20.6,0,0,0-2-2.908l-3.81,1.243a16.938,16.938,0,0,0-3.772-2.9l.217-4A20.386,20.386,0,0,0,408.137.245l-2.353,3.246a16.961,16.961,0,0,0-4.756-.125L398.85,0a20.391,20.391,0,0,0-3.384,1l0,4.009a16.884,16.884,0,0,0-3.92,2.7l-3.738-1.443a20.637,20.637,0,0,0-2.153,2.8L388.02,12.3a16.737,16.737,0,0,0-1.59,4.486l-3.869,1.029a20.67,20.67,0,0,0-.13,2.305c0,.411.014.82.037,1.225l3.81,1.233a16.751,16.751,0,0,0,1.349,4.564L385.1,30.251a20.581,20.581,0,0,0,2,2.909l3.81-1.243a16.927,16.927,0,0,0,3.772,2.9l-.217,4A20.388,20.388,0,0,0,397.793,40l2.353-3.247a16.911,16.911,0,0,0,4.756.125l2.178,3.367a20.344,20.344,0,0,0,3.384-1l0-4.008a16.887,16.887,0,0,0,3.92-2.7l3.738,1.442a20.572,20.572,0,0,0,2.153-2.8l-2.359-3.238a16.751,16.751,0,0,0,1.59-4.486Zm-20.4,5.748a8.054,8.054,0,1,1,8.054-8.054,8.054,8.054,0,0,1-8.054,8.054" transform="translate(-382.432)" fill="#1a2e48"/>
                </g>
              </g>
            </g>
            <path id="Path_180475" data-name="Path 180475" d="M446.97,45.531a.415.415,0,0,1-.319-.68,13.508,13.508,0,0,0,2.38-13.013.415.415,0,0,1,.785-.271,14.343,14.343,0,0,1-2.527,13.815.415.415,0,0,1-.319.149" transform="translate(-229.952 -16.111)" fill="#fff"/>
            <path id="Path_180476" data-name="Path 180476" d="M439.484,17.453a.412.412,0,0,1-.284-.113,13.414,13.414,0,0,0-4.643-2.861.415.415,0,1,1,.283-.78,14.231,14.231,0,0,1,4.93,3.037.415.415,0,0,1-.285.717" transform="translate(-223.633 -7.042)" fill="#fff"/>
            <path id="Path_180477" data-name="Path 180477" d="M417.884,13.215a.415.415,0,0,1-.1-.817,14.369,14.369,0,0,1,3.515-.435.415.415,0,0,1,0,.83,13.548,13.548,0,0,0-3.312.409.41.41,0,0,1-.1.013" transform="translate(-214.975 -6.16)" fill="#fff"/>
            <g id="Group_117827" data-name="Group 117827" transform="translate(65.282 0.059)" opacity="0.5">
              <g id="Group_117826" data-name="Group 117826">
                <g id="Group_117825" data-name="Group 117825" clip-path="url(#clip-path-4)">
                  <rect id="Rectangle_37772" data-name="Rectangle 37772" width="128.332" height="77.083" fill="#f9b131"/>
                </g>
              </g>
            </g>
            <rect id="Rectangle_37774" data-name="Rectangle 37774" width="120.736" height="70.764" transform="translate(71.534 1.939)" fill="#fff"/>
            <path id="Path_180478" data-name="Path 180478" d="M353.943,75.41c5.754-5.477,15.587-5.353,15.38,2.987s.481,9.124,2.849,13.5c8.216,15.181-9.792,14.287-17.3,14.785s-6.887-13.651-5.56-21.493,2.95-8.176,4.633-9.778" transform="translate(-179.455 -36.899)" fill="#1a2e48"/>
            <path id="Path_180479" data-name="Path 180479" d="M357.364,177.979c-1.845,15.491-5.2,26.942-5.57,34.286s-1.867,36.26-1.867,36.26,4.107-.288,4.481-.91,7.717-16.928,7.344-27.01,7.335-25.412,7.335-25.412l-1.858-15.041Z" transform="translate(-180.194 -91.65)" fill="#1a2e48"/>
            <path id="Path_180480" data-name="Path 180480" d="M363.283,191.883,360.4,193.09c-.784,4.912-1.654,9.329-2.418,13.246,4.591,2.968,6.962,12.856,7.978,18.9.518-6.765,3.709-14.938,5.69-19.458Z" transform="translate(-184.341 -98.81)" fill="#1a2e48"/>
            <path id="Path_180481" data-name="Path 180481" d="M383.306,174.76s6.217,7.931,6.022,16.928c-.3,13.7-1.79,17.607.809,31.968,1.015,5.609-2.24,23.958-2.24,23.958a10.415,10.415,0,0,1-4.275-.526c.125-1.348-1.8-23.279-5.54-33.36-1.813-4.882-4.359-18.554-5.729-26.4s-1.618-9.46-1.121-9.46,12.074-3.112,12.074-3.112" transform="translate(-191.043 -89.992)" fill="#1a2e48"/>
            <path id="Path_180482" data-name="Path 180482" d="M318.61,121.129s.276-4.1-.166-5.371-4.26-2.374-4.26-2.374-.166,5.864.222,6.584a21.9,21.9,0,0,0,2.655,2.766Z" transform="translate(-161.77 -58.387)" fill="#f09959"/>
            <path id="Path_180483" data-name="Path 180483" d="M341.949,123.187c-8.741,9.408-11.593,13.366-12.257,13.366-2.075-3.662-8.966-11.407-8.966-11.407l-2.938,1.889s6.79,17.74,11.1,17.923,13.086-6.117,13.2-6.841-.142-14.929-.142-14.929" transform="translate(-163.645 -63.435)" fill="#a2dff2"/>
            <path id="Path_180484" data-name="Path 180484" d="M348.8,144.038c4.276-1.741,9.175-5.382,9.258-5.922.111-.724-.142-14.929-.142-14.929-1.906,2.051-3.569,3.87-5.013,5.461-1.565,5.831-1.463,12.18-4.1,15.39" transform="translate(-179.616 -63.435)" fill="#96cfe0"/>
            <path id="Path_180485" data-name="Path 180485" d="M371.466,110.418s8.364,4.192,10.19,11.614-3.576,16.589-4.24,21.482-15.933,5.753-15.933.516c0-5.021-3.825-15.679-3.609-18.394.506-6.37,9.818-14.173,9.818-14.173Z" transform="translate(-184.282 -56.859)" fill="#a2dff2"/>
            <path id="Path_180486" data-name="Path 180486" d="M373.671,90.6l3.591,11.072a96.44,96.44,0,0,0-10.4,10.076c.255-4.736,4.223-9.9,4.223-9.9l-2.716-10.456Z" transform="translate(-188.917 -46.653)" fill="#f09959"/>
            <path id="Path_180487" data-name="Path 180487" d="M376.945,95.762,375.27,90.6l-5.3.793,2.716,10.456s-.265.422-.656,1.087a12.76,12.76,0,0,0,4.913-7.172" transform="translate(-190.516 -46.653)" fill="#e38540"/>
            <path id="Path_180488" data-name="Path 180488" d="M366.1,87.422c-.969,3.523-4.719,5.463-7.383,4.731s-3.235-3.86-2.267-7.383,3.914-5.787,6.579-5.054,4.04,4.183,3.071,7.707" transform="translate(-183.327 -40.979)" fill="#f09959"/>
            <path id="Path_180489" data-name="Path 180489" d="M360.6,161.491c1.163,7.368-3.154,23.131-3.154,23.131s2.575.584,10.292-.162,11.12-8.449,12.282-8.664,1.758,7.168,2.332,7.752.66-9.324-.838-13.218c-2.655-6.9-2.135-9.832-1.143-14.015,1.765-7.438-19.77,5.177-19.77,5.177" transform="translate(-184.065 -79.285)" fill="#a2dff2"/>
            <path id="Path_180490" data-name="Path 180490" d="M341.411,315.941c.695,2.824-.678,5.064-2.515,6.7-1.493,1.328-6.085,1.892-5.864,2.556s5.643.874,7.469.6,2.323-1.162,4.6-1.161c1.49,0,1.767-1.211,1.1-2.709s-.9-2.325-.3-3.668-4.493-2.314-4.493-2.314" transform="translate(-171.49 -162.693)" fill="#1a2e48"/>
            <path id="Path_180491" data-name="Path 180491" d="M400.878,313.76c-.111,2.932-.451,5.116.268,6.475,2.777,2.324,5.086,4.963,4.2,5.145-4.2.868-5.809-1.652-8.188-2.368-2.92-.879.277-4.548-.867-9.253-.636-2.616,4.408-1.989,4.408-1.989Z" transform="translate(-203.865 -160.512)" fill="#1a2e48"/>
            <path id="Path_180492" data-name="Path 180492" d="M387.486,155.065a13.8,13.8,0,0,0-.628-2.4c-2.655-6.9-2.135-9.833-1.143-14.015a3.3,3.3,0,0,0,.1-.873c.224-.746.433-1.5.616-2.262l-.9-8.136-6.5-7.718c-4.87,7.137-1.584,16.016-2.314,20.912s-8.892,11.139-8.892,11.139l.265,1.737a4.411,4.411,0,0,0,4.961,3.707c3.363-.467,7.775-1.4,9.739-3.227,1.9-1.763,3.583-.4,4.694,1.139" transform="translate(-189.411 -61.617)" fill="#96cfe0"/>
            <path id="Path_180493" data-name="Path 180493" d="M365.227,185.157s-3.6,1.008-4.033,1.233-.669,1.416-.669,1.416-2.062,1.791-1.272,2.425,2.2,2.239,4.066,1.493c1.145-.458,2.032-4.665,2.783-4.7s-.875-1.868-.875-1.868" transform="translate(-184.903 -95.346)" fill="#f09959"/>
            <path id="Path_180494" data-name="Path 180494" d="M381.042,117.716c3.856.109,7.351,7.054,8.57,13.078s2.5,14.59,2.5,14.59-6.39,5.043-12.7,6.517c-5.508,1.286-8.32,1.789-8.32,1.789l-1.118-3.145,13.178-7.74s-4.846-9.128-5.327-16.016.289-9.156,3.219-9.073" transform="translate(-190.516 -60.616)" fill="#a2dff2"/>
            <rect id="Rectangle_37775" data-name="Rectangle 37775" width="9.803" height="6.226" transform="translate(143.825 55.544) rotate(-11.346)" fill="#f5dc95"/>
            <path id="Path_180495" data-name="Path 180495" d="M316.332,121.995c.132-2.525-1.118-5.968-1.837-5.963s.221,2.256-.166,3.75c-.21.81,2,2.213,2,2.213" transform="translate(-161.804 -59.75)" fill="#f09959"/>
            <path id="Path_180496" data-name="Path 180496" d="M358.377,79.818c.213,6.915,8.291,6.385,10.5,5.959s-2.694,14.589,1.521,15.456c3.1.636,2.4-4.206,5.837-3.882,1.522.143,3.051,2.495,3.051,2.495a4.7,4.7,0,0,0-1.391-2.495c-1.162-1.046-4.208-7.464-5.009-12.055s-6.222-7.562-7.826-7.654-5.533,1.734-5.533,1.734Z" transform="translate(-184.545 -39.98)" fill="#1a2e48"/>
            <path id="Path_180497" data-name="Path 180497" d="M380.478,111.223a1.612,1.612,0,0,1-.333-.035c-1.349-.288-2-1.705-2.059-4.462a64.294,64.294,0,0,1,.757-8.607c.167-1.3.34-2.639.482-3.938a.2.2,0,0,1,.4.044c-.143,1.3-.316,2.646-.484,3.946-.8,6.213-1.556,12.081.986,12.622a1.124,1.124,0,0,0,.236.025c1.46,0,2.774-2.845,3.54-5.616a.2.2,0,0,1,.39.108c-.506,1.829-1.866,5.914-3.918,5.914" transform="translate(-194.692 -48.405)" fill="#1a2e48"/>
            <path id="Path_180498" data-name="Path 180498" d="M379.337,112.831a1.594,1.594,0,0,1-1.195-.531c-2.754-2.911-.031-17.515.086-18.135a.2.2,0,0,1,.4.075c-.029.15-2.8,15.02-.19,17.782a1.206,1.206,0,0,0,1.1.391c1.43-.189,2.256-2.129,2.984-3.841.707-1.66,1.371-3.229,2.555-3.187a.2.2,0,0,1-.015.4h-.029c-.887,0-1.5,1.429-2.139,2.942-.771,1.811-1.644,3.864-3.3,4.083a1.933,1.933,0,0,1-.251.017" transform="translate(-194.091 -48.405)" fill="#1a2e48"/>
            <path id="Path_180499" data-name="Path 180499" d="M378.133,94.746a1.281,1.281,0,1,1,.069-2.075,1.506,1.506,0,0,1-.069,2.075" transform="translate(-193.497 -47.62)" fill="#f09959"/>
            <path id="Path_180500" data-name="Path 180500" d="M235.806,145.175a7.231,7.231,0,0,1-3.539,10.088c-3.9,1.615-8.172.7-10.144-3.245a7.656,7.656,0,1,1,13.683-6.843" transform="translate(-113.93 -72.441)" fill="#1a2e48"/>
            <path id="Path_180501" data-name="Path 180501" d="M224.732,160.265a3.689,3.689,0,0,1-2.384-1.121,6.093,6.093,0,0,1-1.809-3.428,11.918,11.918,0,0,1,.664-6.109.2.2,0,1,1,.382.132,11.52,11.52,0,0,0-.649,5.9,5.686,5.686,0,0,0,1.68,3.2c1.383,1.227,2.31,1,2.32,1a.2.2,0,0,1,.108.389,1.226,1.226,0,0,1-.313.033" transform="translate(-113.486 -76.97)" fill="#1a2e48"/>
            <path id="Path_180502" data-name="Path 180502" d="M240.55,181.584c2.244.5,5.078,6.739,6.465,10.735,1.4,4.03,3.772,9.029,5.325,10.582s11.76,5.154,11.76,5.154-25.218.049-24.7,0,1.152-26.47,1.152-26.47" transform="translate(-123.274 -93.506)" fill="#f9b131"/>
            <path id="Path_180503" data-name="Path 180503" d="M255.01,206.052c-1.38-.2-6.361.444-4.241-.444s1.825-2.022,1.825-2.022-3.008,2.515-3.551.316c-.468-1.9-.647-8.591-2.421-15.3-1.467-3.327-3.386-6.655-5-7.017,0,0-.057,2.363-.15,5.675.619,7.331,1.671,18.1,1.937,20.815,3.342.005,8.937,0,13.617-.006l3.113-.148a33.426,33.426,0,0,0-5.128-1.868" transform="translate(-124.345 -93.506)" fill="#cf8d19"/>
            <path id="Path_180504" data-name="Path 180504" d="M215.131,178.735s-7.139,3.989-8.8,4.837,4.662,25.748,6.069,26.815,13.793.184,15.2-1.161-1.082-5.47.138-13.732-3.722-15.394-4.357-15.378a42.706,42.706,0,0,1-4.779-1.382Z" transform="translate(-106.105 -92.039)" fill="#f9b131"/>
            <path id="Path_180505" data-name="Path 180505" d="M212.421,215.908c1.407,1.067,10.271,1.091,14.044-.083.426-.132,2.359-.9,2.4-1.627-.455-.085-2.263.132-3-.037-2.551-.586-3.957-3.748-3.957-3.748s-1.405-.505-4.548-1.837-1.85-5.362-1.923-7.138-3.107-7.581-8.8-11.982l-.522.234c-.406,4.047,5,25.23,6.3,26.217" transform="translate(-106.129 -97.56)" fill="#cf8d19"/>
            <path id="Path_180506" data-name="Path 180506" d="M293.69,203.715H276.5l-7.829,16.661h18.935l7.087-15.081a1.108,1.108,0,0,0-1-1.579" transform="translate(-138.351 -104.902)" fill="#75a1de"/>
            <path id="Path_180507" data-name="Path 180507" d="M258.568,220.536H248.225a1.162,1.162,0,0,1,0-2.323h9.6l6.492-13.973a1.162,1.162,0,1,1,2.107.979l-6.8,14.645a1.162,1.162,0,0,1-1.054.672" transform="translate(-127.224 -104.826)" fill="#3e6bab"/>
            <path id="Path_180508" data-name="Path 180508" d="M232.474,231.213c4.487.838,5.59,1.868,8.037,2.263,2.772.447,2.443,1.06.384,1.06s-7.236.08-9.011-.315.591-3.008.591-3.008" transform="translate(-119.067 -119.062)" fill="#f09959"/>
            <path id="Path_180509" data-name="Path 180509" d="M197.375,189.212c-3.439,11-8.314,23.473-7.538,23.473s20.524.8,21.3.133.555-3.216.444-3.549-11.227-2.306-11.227-2.306a25.594,25.594,0,0,0,2.019-8.427c.555-5.575-4.346-11.409-5-9.324" transform="translate(-97.714 -97.211)" fill="#f9b131"/>
            <path id="Path_180510" data-name="Path 180510" d="M227.22,159.037l-2.77,10.124s4.681,7.306,5.968,6.657-.719-5.939-.719-6.657,2.006-8.136,2.006-8.136Z" transform="translate(-115.58 -81.896)" fill="#f09959"/>
            <path id="Path_180511" data-name="Path 180511" d="M231.762,169.676a2.7,2.7,0,0,1-.1-.516c0-.718,2.006-8.135,2.006-8.135l-4.485-1.988-.917,3.35a17.465,17.465,0,0,0,3.491,7.289" transform="translate(-117.548 -81.896)" fill="#e38540"/>
            <path id="Path_180512" data-name="Path 180512" d="M240.948,153.9c.528,2.936.18,6.834-2.427,7.826s-5.747-.906-7.013-4.236-.18-6.834,2.427-7.826a5.5,5.5,0,0,1,7.013,4.236" transform="translate(-118.942 -76.926)" fill="#f09959"/>
            <path id="Path_180513" data-name="Path 180513" d="M230.272,160.575a1.774,1.774,0,0,1-.709,2.346c-.757.269-1.667-.344-2.032-1.37a1.774,1.774,0,0,1,.709-2.346c.757-.269,1.667.344,2.032,1.37" transform="translate(-117.089 -81.949)" fill="#f09959"/>
            <path id="Path_180514" data-name="Path 180514" d="M238.928,148.624c-.888,6.889-9.257,6-9.257,6s-1.726-2.269-2.5-1.079,1.077-6.984,5.88-7.241c1.578-.084,5.88,2.32,5.88,2.32" transform="translate(-116.892 -75.338)" fill="#1a2e48"/>
            <path id="Path_180515" data-name="Path 180515" d="M224.432,140.569a4.542,4.542,0,1,1-4.533-4.253,4.4,4.4,0,0,1,4.533,4.253" transform="translate(-110.902 -70.196)" fill="#1a2e48"/>
            <path id="Path_180516" data-name="Path 180516" d="M206.1,308.332h1.037l6.693-31.012h-2.28Z" transform="translate(-106.129 -142.805)" fill="#1a2e48"/>
            <path id="Path_180517" data-name="Path 180517" d="M263.167,307.168H262.13l-7.789-32.108h2.28Z" transform="translate(-130.972 -141.641)" fill="#1a2e48"/>
            <path id="Path_180518" data-name="Path 180518" d="M218.545,258.554c-4.153,0-6.783-.746-8.462-2.381-2.081-2.027-2.512-5.167-2.518-9.259,0-3.22-.081-5.317-.256-7.012a1.162,1.162,0,0,1,2.311-.238c.183,1.777.263,3.944.268,7.247.006,4.146.532,6.347,1.816,7.6,1.316,1.282,3.7,1.811,7.716,1.711a45.649,45.649,0,0,0,8.7-1.075c2.824-.574,4.864-.989,7.283.168a1.162,1.162,0,1,1-1,2.1c-1.717-.821-3.174-.524-5.818.013a47.675,47.675,0,0,1-9.1,1.121q-.478.012-.933.012" transform="translate(-106.75 -122.877)" fill="#1a2e48"/>
            <path id="Path_180519" data-name="Path 180519" d="M211.03,238.338l6.356.264-1.692,17.549s-4.738-3.024-4.664-6.279,0-11.534,0-11.534" transform="translate(-108.669 -122.732)" fill="#1a2e48"/>
            <path id="Path_180520" data-name="Path 180520" d="M274.776,241.352c5.374-.815,7.2-.558,10.49,5.563s7.667,17.143,10.185,18.566c3.792,2.143,5.048,7.4,6.6,7.163s2.559.452.865,1.86-4.43,2.607-5.365,2.357-1.661-4.292-4.1-5.6-1.709-2.39-1.548-3.551-7.132-6.506-12.629-13.153c-3.359-4.062-5.089-6.743-5.345-9.172a6.373,6.373,0,0,1,.847-4.029" transform="translate(-141.039 -124.11)" fill="#f09959"/>
            <path id="Path_180521" data-name="Path 180521" d="M288.1,263.548a122.905,122.905,0,0,1-3.677-13.185c-1.673-6.814-3.428-8.432-4.539-9.159a13.471,13.471,0,0,0-5.107.147,6.375,6.375,0,0,0-.848,4.029c.257,2.43,1.986,5.111,5.345,9.172a96.5,96.5,0,0,0,8.826,9" transform="translate(-141.039 -124.111)" fill="#e38540"/>
            <path id="Path_180522" data-name="Path 180522" d="M273.561,246.74s-1.43,10.79-2.761,11.886c-.953.784-1.627.837-2.293-2.382s1.036-15.228,1.036-15.228Z" transform="translate(-138.187 -124.111)" fill="#2e5b9a"/>
            <path id="Path_180523" data-name="Path 180523" d="M262.693,254.61l-13.234,2.224,7.471-10.714,5.687-1.158,3.409.784Z" transform="translate(-128.458 -126.143)" fill="#f09959"/>
            <path id="Path_180524" data-name="Path 180524" d="M310.739,296.04c-.429,1.729-.378,3.007.368,3.648a51.082,51.082,0,0,1,3.563,5.4l.877-.133-2.031-4.355Z" transform="translate(-159.875 -152.445)" fill="#1a2e48"/>
            <path id="Path_180525" data-name="Path 180525" d="M316.436,305.109c.936.25,3.671-.949,5.365-2.357s.692-2.1-.865-1.86a.667.667,0,0,1-.261-.013c-.778,1.737-3.335,3.04-4.16,1.2a21.021,21.021,0,0,0-5.733-6.212.351.351,0,0,1,0,.081c-.161,1.161-.895,2.239,1.549,3.551s3.168,5.354,4.1,5.6" transform="translate(-159.92 -152.359)" fill="#1a2e48"/>
            <path id="Path_180526" data-name="Path 180526" d="M217.627,242.11c-4.7,8.426-1.488,13.782,4.219,14.327s14.716-.5,19.967-4.86,9.562-8.978,8.96-9.667-33.146.2-33.146.2" transform="translate(-110.902 -124.436)" fill="#e38540"/>
            <path id="Path_180527" data-name="Path 180527" d="M273.816,250.1c.961-2.885,2.07-5.1,4.216-5.138,2.256-.042,3.644,1.132,3.741,4.823.114,4.4.269,18.953.066,25.426-.154,4.9,1.274,6.469,1.153,11.577-.091,3.846,4.01,1.9,2.426,3.9-1.089,1.372-4.332.924-6.324.67-1.775-.226.919-5.545-1.538-6.967a2.851,2.851,0,0,1-.818-4.7c1.331-1.5.148-5.938-.74-9.044a68.6,68.6,0,0,1-3.168-13.812,17.6,17.6,0,0,1,.985-6.731" transform="translate(-140.464 -126.144)" fill="#f09959"/>
            <path id="Path_180528" data-name="Path 180528" d="M287.269,325.879a9.3,9.3,0,0,1-2.247.46c-1.479.049-1.923-1.578-2.022-3.789a10.6,10.6,0,0,0-2.925-6.2c-.026.035-.053.069-.082.1a2.851,2.851,0,0,0,.818,4.7c2.456,1.422-.237,6.741,1.538,6.967,1.992.254,5.235.7,6.325-.67,1.029-1.3-.248-1.4-1.4-1.57" transform="translate(-143.718 -162.903)" fill="#1a2e48"/>
            <path id="Path_180529" data-name="Path 180529" d="M279.541,315.425s-2.157,2.253-1.96,3.19a35.825,35.825,0,0,1,.974,5.128c.111,1.824.21,3.919.21,3.919s.777,0,.838-.221.493-7.415.493-7.415Z" transform="translate(-142.933 -162.427)" fill="#1a2e48"/>
            <path id="Path_180530" data-name="Path 180530" d="M214.255,241.016s-2.785,11.819.734,15.1,18.13.329,21.572.133c2.33-.133,4.586,2.711,4.586,2.711s-1.627-6.594-.518-11.92,2.9-5.683,2.9-5.683l-2.382-.336Z" transform="translate(-109.792 -124.111)" fill="#75a1de"/>
            <path id="Path_180531" data-name="Path 180531" d="M213.424,234.645c1.191,2.527-1.282,6.891-.415,8.148s5.828.176,9.08-2.441,9.405-3.192,9.405-3.192Z" transform="translate(-109.591 -120.83)" fill="#cf8d19"/>
            <path id="Path_180532" data-name="Path 180532" d="M220.694,275.487c9.837.37,20.192.195,20.192-1.27s-.444-2.5-8.062-1.91-12.8,1.405-15.089.888,2.958,2.293,2.958,2.293" transform="translate(-111.824 -140.136)" fill="#1a2e48"/>
            <path id="Path_180533" data-name="Path 180533" d="M292.175,240.741H154.108a1.339,1.339,0,0,1,0-2.678H292.175a1.339,1.339,0,1,1,0,2.678" transform="translate(-78.668 -122.59)" fill="#2e5b9a"/>
            <path id="Path_180534" data-name="Path 180534" d="M468.5,158.858a6.371,6.371,0,0,1-3.939,7.549c-2.564.728-4.394-1.556-5.347-4.916s.353-6.673,2.917-7.4,5.415,1.407,6.368,4.767" transform="translate(-236.313 -79.276)" fill="#f09959"/>
            <path id="Path_180535" data-name="Path 180535" d="M445.9,298.293s6.572,10.206,7.459,10.65,3.106.555,2.274,2.219-1.165,8.21-1.941,8.543-7.433,1.109-6.435,0,1.613-.555,2.116-2.552,1.212-5.769.269-6.545-6.712-7.766-6.712-7.766Z" transform="translate(-228.087 -153.605)" fill="#f09959"/>
            <path id="Path_180536" data-name="Path 180536" d="M366.672,307.33s-7.988,13.166-9.467,14.349-6.361,2.959-2.367,3.255,5.917-1.331,8.432-2.071,5.621-1.184,4.438-3.106-.692-6.121,1.859-8.784-2.895-3.642-2.895-3.642" transform="translate(-181.931 -158.259)" fill="#f09959"/>
            <path id="Path_180537" data-name="Path 180537" d="M418.031,244.379s-19.775-.517-27.615,5.918c-4.586,6.953-15.68,27.466-16.542,29.726a11.114,11.114,0,0,0,5.4,1.512c4.365-5.2,10.132-9.7,12.427-13.783,2.827-5.03,3.7-7.545,8.284-7.989s14.941-1.922,18.047-1.922,0-13.462,0-13.462" transform="translate(-192.525 -125.837)" fill="#6791c9"/>
            <path id="Path_180538" data-name="Path 180538" d="M491.468,310.772h-1.037L483,279.76h2.28Z" transform="translate(-248.719 -144.062)" fill="#1a2e48"/>
            <path id="Path_180539" data-name="Path 180539" d="M436.445,309.608h1.037L446.01,277.5h-2.28Z" transform="translate(-224.746 -142.898)" fill="#1a2e48"/>
            <path id="Path_180540" data-name="Path 180540" d="M446.857,241.6l-11.5,1.984s-15.278.14-22.262,1.441c-6.353,1.184-7.29,8.4,0,18.343,4.141,5.647,7.643,10.151,14.8,15.23,1.821-1.337,2.518-1.843,3.021-5.061-.518-.711-1.86-5.158-2.276-6.028-3.96-8.278-9.247-11.289-9.32-12.1.888-1.442,23.51,7.518,28.007,2.247,4.295-5.032-.477-16.054-.477-16.054" transform="translate(-210.087 -124.41)" fill="#75a1de"/>
            <path id="Path_180541" data-name="Path 180541" d="M473.545,187.8a12.029,12.029,0,0,0-9,2.239,18.089,18.089,0,0,0-5.2,13.794c.222,8.875-1.373,9.445.291,11.886,6.941,2.866,18.811,15.181,16.016,1.979-2.024-9.559,4.439-16.684-.775-27.288-.424-.863-.955-1.7-1.339-2.609" transform="translate(-236.297 -96.639)" fill="#f9b131"/>
            <path id="Path_180542" data-name="Path 180542" d="M459.351,209.525c-.135,4.627-.788,5.99-.289,7.441,2.829.289,8.005,1.421,9.3,3.232,1.479,2.071,2.959,2.367,2.269.838s-2.515-3.7.3-11.144,4.142-12.475,1.38-17.653Z" transform="translate(-236.297 -98.993)" fill="#cf8d19"/>
            <path id="Path_180543" data-name="Path 180543" d="M479.569,177.987a36.112,36.112,0,0,1-2.322-9.373l-4.882,1.443s2.773,6.213.111,8.431a25.5,25.5,0,0,0-1.9,1.738,12.029,12.029,0,0,1,9-2.239" transform="translate(-242.32 -86.827)" fill="#f09959"/>
            <path id="Path_180544" data-name="Path 180544" d="M479.3,170.066l-1.031-.914-3.981,1.176-.009.022a16.257,16.257,0,0,1,1.244,4.863,14.048,14.048,0,0,0,3.971-3.944c-.081-.454-.145-.86-.194-1.2" transform="translate(-244.23 -87.104)" fill="#e38540"/>
            <path id="Path_180545" data-name="Path 180545" d="M450.56,190.652c-5.028,1.758-4.47,7.055-9.1,14.866-2.395,4.042-4.619,3.982-4.619,3.982a107.124,107.124,0,0,1-12.409-.785c-4.254-.52-4.524.746-1.565,1.8,5.966,2.133,12.158,4.429,17.15,3.875s13.531-13.292,13.971-16.608c.609-4.586-.9-8.018-3.432-7.133" transform="translate(-216.743 -98.104)" fill="#f09959"/>
            <path id="Path_180546" data-name="Path 180546" d="M458.082,246.868q-.468,0-.959-.012a47.686,47.686,0,0,1-9.1-1.121c-2.645-.537-4.1-.833-5.818-.013a1.162,1.162,0,1,1-1-2.1c2.419-1.156,4.459-.742,7.283-.167a45.7,45.7,0,0,0,8.7,1.075c4.371.108,7.044-.547,8.41-2.062,1.22-1.353,1.579-3.608,1.131-7.1-.152-1.182-.3-2.164-.438-3.031a20.875,20.875,0,0,1-.318-6.516,76.737,76.737,0,0,1,2.827-11.367,1.162,1.162,0,0,1,2.227.662c-3.32,11.18-3.151,12.272-2.441,16.867.136.88.291,1.879.446,3.09.542,4.212,0,7.056-1.709,8.949-1.76,1.952-4.63,2.841-9.234,2.841" transform="translate(-226.853 -110.007)" fill="#1a2e48"/>
            <path id="Path_180547" data-name="Path 180547" d="M367.215,330.206c-5.3,2.592-8.153,4.078-9.852,3.936-.4-.033-.733-.075-1.012-.118-1.89,1.117-4.907,2.437-1.512,2.689,3.994.3,5.917-1.331,8.432-2.071s5.621-1.184,4.438-3.107a4.042,4.042,0,0,1-.492-1.33" transform="translate(-181.931 -170.039)" fill="#1a2e48"/>
            <path id="Path_180548" data-name="Path 180548" d="M458.424,320.7c-.13,4.2-.706,8.355-3.273,9.14A4.3,4.3,0,0,1,453.3,330c-.4.5-.9.5-1.558,1.239-1,1.109,5.658.333,6.435,0s1.109-6.878,1.941-8.542c.684-1.367-.691-1.686-1.7-2" transform="translate(-232.572 -165.142)" fill="#1a2e48"/>
            <path id="Path_180549" data-name="Path 180549" d="M397.2,220.535H380.36a1.162,1.162,0,0,1-1.054-.672l-6.8-14.645a1.162,1.162,0,0,1,2.108-.979l6.492,13.973h16.1a1.162,1.162,0,0,1,0,2.323" transform="translate(-191.763 -104.826)" fill="#75a1de"/>
            <path id="Path_180550" data-name="Path 180550" d="M414.9,226.418c-3.4-.049-6.777-2.077-8.453-1.781s-7.15,4.093-6.459,4.241,5.03-2.1,5.177-2.136a7.289,7.289,0,0,0,3.4,2.142c2.318.585.017-1.736,7.2.433,4.671,1.411-.867-2.9-.867-2.9" transform="translate(-205.942 -115.661)" fill="#f09959"/>
            <path id="Path_180551" data-name="Path 180551" d="M475.859,179.633l.5,4.028s-4.4.262-6.593,1.495-5.424,4.794-5.424,4.794l2.642-4.548.38-2.909Z" transform="translate(-239.112 -92.502)" fill="#f2e5de"/>
            <path id="Path_180552" data-name="Path 180552" d="M457,189.713c-3.27-.613-4.784,2.318-6.9,7.1a68.732,68.732,0,0,1-6.459,11.341c-.72.749-12.13,0-12.13,0s-.346,3.3,0,3.7,2.317.345,2.317.345.789.63,1.528,1.129,7,1.435,9.912,1.287,5.572-.394,5.966-.838,8.333-12.673,8.826-17.061-1.388-6.689-3.057-7" transform="translate(-222.123 -97.651)" fill="#f2e5de"/>
            <path id="Path_180553" data-name="Path 180553" d="M458.747,145.956c-6.185.3-5.215,9.6-5.215,9.6a12.034,12.034,0,0,0,4.972-.059,18.545,18.545,0,0,1-.148-3.551,23.232,23.232,0,0,0,.888,3.328c.711.326,1.516.037,2.885-.293a6.085,6.085,0,0,0,4.048,4.633c1.5.472,3.092,1.036,4.867.148s.8-9.961-.144-11.785c-1.415-2.739-3.766-5.19-7.835-3.9a30.2,30.2,0,0,0-4.318,1.874" transform="translate(-233.517 -74.011)" fill="#1a2e48"/>
            <path id="Path_180554" data-name="Path 180554" d="M486.516,170.4l2.529,3.693s-2.8,7,5.348,10.174c6.383,2.484,5.632,6.862,2.747,11.264s1.726,8.246,1.726,8.246.7-4.877,6.905-5.8c8.456-1.255,10.851-12.609,4.534-18.286-5.226-4.7-6.816-.807-10.355-5.023s-10.217-1.368-10.217-1.368l-2.448-3.57Z" transform="translate(-250.53 -87.403)" fill="#1a2e48"/>
            <path id="Path_180555" data-name="Path 180555" d="M516.415,193.215a.2.2,0,0,1-.177-.3c2.131-3.895.392-8.615-.483-9.893-.093-.135-.18-.272-.273-.417-.859-1.342-1.93-3.012-7.633-4.039a9.044,9.044,0,0,1-3.648-1.921c-2.433-1.786-5.191-3.811-11.182-1.053a.2.2,0,1,1-.169-.367c6.208-2.857,9.068-.758,11.591,1.094a8.755,8.755,0,0,0,3.48,1.849c5.877,1.058,7,2.81,7.9,4.219.091.142.177.276.266.406a10.95,10.95,0,0,1,1.445,4.194,9.844,9.844,0,0,1-.941,6.121.2.2,0,0,1-.178.105" transform="translate(-253.731 -89.51)" fill="#1a2e48"/>
            <path id="Path_180556" data-name="Path 180556" d="M476.741,169.569a8.824,8.824,0,0,1-1.31-.106c-2.156-.323-5.048-1.549-5.275-8.437a.2.2,0,0,1,.2-.209.2.2,0,0,1,.209.2c.094,2.851.661,4.962,1.683,6.273a4.74,4.74,0,0,0,3.248,1.778c2.013.3,3.348-.072,3.968-1.11a.2.2,0,1,1,.347.208,3.28,3.28,0,0,1-3.065,1.408" transform="translate(-242.105 -82.812)" fill="#1a2e48"/>
            <path id="Path_180557" data-name="Path 180557" d="M69.5,188.936c-7.178,4.1-17.163,21.168-15.055,23.952s13.423-4.537,13.423-4.537Z" transform="translate(-27.891 -97.292)" fill="#96cfe0"/>
            <path id="Path_180558" data-name="Path 180558" d="M99.273,146.56c-2.741-.075-1.724-2.112-4.876-1.3-1.657.428-.434,1.11-2.587.888s-3.212-.444-3.484.961-.4,1.85-1.438,2.071-1.5,2.071,0,3.328.773,1.775.439,2.81.8,1.11,1.418,2.071-.567,1.143.321,1.977a3.143,3.143,0,0,0,2.132.76l3.736-7.164Z" transform="translate(-44.248 -74.704)" fill="#1a2e48"/>
            <path id="Path_180559" data-name="Path 180559" d="M223.713,322.21a21.135,21.135,0,0,0,7.1-1.109c3.106-1.22,5.214-3.106,4.659-.888s-3.106,6.025-5.325,6.4-3,2.812-4.216,2.812-3-2.812-6.1-4.217c-2.831-1.281,3.883-2.994,3.883-2.994" transform="translate(-112.842 -164.364)" fill="#1a2e48"/>
            <path id="Path_180560" data-name="Path 180560" d="M158.385,321.836a15.355,15.355,0,0,0,4.6,3.927c3.019,1.664,6.5,2.466,4.343,3.218a14.164,14.164,0,0,1-8.4.443c-2.16-.628-4.693-.759-5.362-1.78s.787-3.584.181-7.415c-.486-3.069,4.633,1.606,4.633,1.606" transform="translate(-78.988 -164.364)" fill="#1a2e48"/>
            <path id="Path_180561" data-name="Path 180561" d="M118.964,247.892s23.136,8.663,25,11.084,26.184,24.482,26.184,26.109S166,289.672,166,289.672s-20.858-12.8-26.035-19.3-17.814-9.647-24.532-10.25,3.526-12.225,3.526-12.225" transform="translate(-58.269 -127.651)" fill="#cf8d19"/>
            <path id="Path_180562" data-name="Path 180562" d="M106.85,247.613s15.828-.592,19.231,0,10.865.585,5.984,14.361c-3.826,10.8-5.089,24.469-5.089,24.469l-7.608,1.869s.3-24.582,3.932-31.128a122.032,122.032,0,0,0-14.22,3.209c-12.475,3.568-19.315,1.781-19.315,1.781l-1.857-6.509Z" transform="translate(-45.267 -127.372)" fill="#f9b131"/>
            <path id="Path_180563" data-name="Path 180563" d="M95.6,163.64l-3.867,11.427,4.886,3.217,2.769-9.874Z" transform="translate(-47.24 -84.266)" fill="#a86b48"/>
            <path id="Path_180564" data-name="Path 180564" d="M99.663,176.725,102,168.41l-3.788-4.771-1.414,4.18a23.8,23.8,0,0,0,2.87,8.907" transform="translate(-49.843 -84.265)" fill="#7a4e34"/>
            <path id="Path_180565" data-name="Path 180565" d="M109.575,161.432c.126,3.475-1.582,6.483-4.3,6.751s-5.19-2.321-5.531-5.782,1.582-6.484,4.3-6.751,5.333.3,5.531,5.782" transform="translate(-51.345 -80.124)" fill="#a86b48"/>
            <path id="Path_180566" data-name="Path 180566" d="M80.954,186.511c-11.872,8.017-4.488,20.973-1.881,30.44,2.221,8.064,2.148,12.937,2.481,12.937s8.5-1.22,13.157-5.436a71.442,71.442,0,0,0,7.81-8.3s-5.97-1.063-7.921-8.786c-.99-3.921-.54-6.049-2.8-12.262s-10.848-8.6-10.848-8.6" transform="translate(-38.315 -96.043)" fill="#a2dff2"/>
            <path id="Path_180567" data-name="Path 180567" d="M87.907,183.209l1.271-3.111s4.031,2.662,5.64,3.92a9.087,9.087,0,0,0,2.6,1.553s.581,4.46.2,4.055a22.851,22.851,0,0,0-9.716-6.418" transform="translate(-45.267 -92.741)" fill="#a2dff2"/>
            <path id="Path_180568" data-name="Path 180568" d="M77.06,310.772H78.1L85.53,279.76h-2.28Z" transform="translate(-39.682 -144.062)" fill="#1a2e48"/>
            <path id="Path_180569" data-name="Path 180569" d="M130.92,309.608h-1.037L121.354,277.5h2.28Z" transform="translate(-62.491 -142.898)" fill="#1a2e48"/>
            <path id="Path_180570" data-name="Path 180570" d="M86.007,251.452c-4.153,0-6.783-.746-8.462-2.381-2.081-2.027-2.512-5.167-2.518-9.259-.013-8.6-.488-10.38-2.91-15.632a1.162,1.162,0,0,1,2.11-.973c2.56,5.552,3.11,7.593,3.124,16.6.006,4.146.532,6.347,1.816,7.6,1.316,1.282,3.7,1.811,7.716,1.711a45.648,45.648,0,0,0,8.7-1.075c2.823-.574,4.864-.989,7.283.168a1.162,1.162,0,1,1-1,2.1c-1.717-.821-3.174-.524-5.818.013a47.677,47.677,0,0,1-9.1,1.121q-.478.012-.933.012" transform="translate(-37.081 -114.592)" fill="#1a2e48"/>
            <path id="Path_180571" data-name="Path 180571" d="M187.508,220.259H170.67a1.161,1.161,0,1,1,0-2.323h16.1l6.492-13.973a1.162,1.162,0,0,1,2.107.98l-6.8,14.645a1.162,1.162,0,0,1-1.054.672" transform="translate(-87.288 -104.684)" fill="#3e6bab"/>
            <path id="Path_180572" data-name="Path 180572" d="M88.813,198.715s2.958,9.023,6.62,12.759,11.029,4.99,13.336,4.843c-1.839-.739-5.341-2.843-6.75-8.419-.99-3.92-.54-6.049-2.8-12.262-1.676-4.612-6.841-7.112-9.391-8.1,3.183,2.287,7.164,6.052,8.387,8.917,1.358,3.18-9.4,2.256-9.4,2.256" transform="translate(-45.734 -96.574)" fill="#96cfe0"/>
            <path id="Path_180573" data-name="Path 180573" d="M170.936,224.65s5.1-2.33,5.658-2.108,6.213,3.638,6.213,4.2-4.993-2.109-4.993-2.109a3.878,3.878,0,0,1,.222,2.188c-.333.71-4.17.71-7.632.487s.532-2.662.532-2.662" transform="translate(-87.022 -114.59)" fill="#a86b48"/>
            <path id="Path_180574" data-name="Path 180574" d="M88.257,195.64c-4.7,9.642,11.433,19.416,21.006,20.285s20.948-2.264,20.948-2.264l-1.282-3.13s-19.18-2.5-19.666-2.854S89.98,192.109,88.257,195.64" transform="translate(-45.015 -100.471)" fill="#a2dff2"/>
            <path id="Path_180575" data-name="Path 180575" d="M98.359,162.63a1.991,1.991,0,0,1-.714,2.648c-.83.316-1.857-.357-2.293-1.5a1.991,1.991,0,0,1,.714-2.648c.83-.316,1.857.358,2.293,1.5" transform="translate(-49.001 -82.931)" fill="#a86b48"/>
            <path id="Path_180576" data-name="Path 180576" d="M108.76,148c1.3-.542,2.764-1.123,2.311,1.085-.2.962,0,.691.345,1.578s-.87,1.585-1.265,2.078.574,1.029-.214,1.621-1.829-.219-2.564,0c-2.194.655-1.923-1.071-3.156-1.43s-1.837-.3-2.071.485.863,3.386-.074,3.139-1.148,1.849-1.4,3.033-.894-.817-.853-2.171c.064-2.077-.452-2.949-1.217-3.529s-1.09-5.863,2.608-6.061a18.3,18.3,0,0,0,5.3-.888c1.578-.333,1.658,1.308,2.25,1.06" transform="translate(-50.524 -75.644)" fill="#1a2e48"/>
            <path id="Path_180577" data-name="Path 180577" d="M264.439,31.015a13.86,13.86,0,1,0-24.051,9.393,6.289,6.289,0,0,1,1.665,4.262v6.213a7.33,7.33,0,0,0,7.308,7.308H251.8a7.33,7.33,0,0,0,7.308-7.308V44.67A6.353,6.353,0,0,1,260.8,40.38a13.81,13.81,0,0,0,3.643-9.365" transform="translate(-121.898 -8.834)" fill="#f9b131"/>
            <g id="Group_117830" data-name="Group 117830" transform="translate(116.758 11.187)" opacity="0.5">
              <g id="Group_117829" data-name="Group 117829">
                <g id="Group_117828" data-name="Group 117828" clip-path="url(#clip-path-5)">
                  <path id="Path_180578" data-name="Path 180578" d="M264.558,34.988a11.924,11.924,0,1,0-20.691,8.08,5.409,5.409,0,0,1,1.432,3.667V52.08a6.306,6.306,0,0,0,6.287,6.287h2.1a6.306,6.306,0,0,0,6.287-6.287V46.736a5.465,5.465,0,0,1,1.455-3.691,11.88,11.88,0,0,0,3.134-8.057" transform="translate(-240.711 -23.064)" fill="#fff"/>
                </g>
              </g>
            </g>
            <path id="Path_180579" data-name="Path 180579" d="M258.93,65.735h-4.564a.416.416,0,0,1-.414-.377c-.008-.089-.86-8.9-4.8-11.367a.415.415,0,0,1,.441-.7c3.843,2.407,4.935,9.831,5.145,11.618h3.752a13.606,13.606,0,0,1,.374-3.327,18.264,18.264,0,0,1,4.464-8.22.415.415,0,0,1,.611.562c-5.18,5.639-4.6,11.3-4.6,11.353a.415.415,0,0,1-.412.462" transform="translate(-128.2 -27.408)" fill="#42e0e6"/>
            <path id="Path_180580" data-name="Path 180580" d="M261.8,50.047c-1.541,0-3.642-1.095-5.854-2.282-2.858,1.522-5.527,2.887-7.021,1.981A2.69,2.69,0,0,1,247.9,47.2a2.632,2.632,0,0,1,1.033-2.43c1.5-.886,4.171.527,7.015,2.054,2.9-1.546,5.631-2.986,7.122-2.078a2.626,2.626,0,0,1,.986,2.463,2.776,2.776,0,0,1-1.091,2.552,2.25,2.25,0,0,1-1.164.286M256.83,47.3c2.278,1.211,4.662,2.37,5.714,1.751.44-.26.67-.881.682-1.848.012-.912-.186-1.5-.587-1.744-1.017-.619-3.488.61-5.809,1.841m-6.774-1.973a1.358,1.358,0,0,0-.7.162c-.407.241-.618.821-.626,1.723-.009.957.2,1.573.626,1.83,1.024.62,3.416-.533,5.71-1.744-1.855-.99-3.8-1.971-5.012-1.971" transform="translate(-127.656 -22.897)" fill="#42e0e6"/>
            <path id="Path_180581" data-name="Path 180581" d="M263.569,101.943h-2.406a1.826,1.826,0,1,1,0-3.651h2.406a1.826,1.826,0,1,1,0,3.651" transform="translate(-133.545 -50.615)" fill="#42e0e6"/>
            <path id="Path_180582" data-name="Path 180582" d="M246.885,77.477v4.395a7.676,7.676,0,0,0,7.653,7.653h2.552a7.676,7.676,0,0,0,7.653-7.653V77.477Z" transform="translate(-127.133 -39.897)" fill="#0cc0c7"/>
            <path id="Path_180583" data-name="Path 180583" d="M263.873,78.1H246.5a1.051,1.051,0,0,1,0-2.1h17.372a1.051,1.051,0,1,1,0,2.1" transform="translate(-126.394 -39.133)" fill="#42e0e6"/>
            <path id="Path_180584" data-name="Path 180584" d="M264.054,81.355,246.7,83.5a1,1,0,0,1-1.11-.866l-.014-.11a1,1,0,0,1,.866-1.11l17.35-2.143a1,1,0,0,1,1.11.866l.014.11a1,1,0,0,1-.866,1.11" transform="translate(-126.457 -40.815)" fill="#42e0e6"/>
            <path id="Path_180585" data-name="Path 180585" d="M264.054,87.615,246.7,89.758a1,1,0,0,1-1.11-.866l-.014-.11a1,1,0,0,1,.866-1.11l17.35-2.143a1,1,0,0,1,1.11.866l.014.11a1,1,0,0,1-.866,1.11" transform="translate(-126.457 -44.039)" fill="#42e0e6"/>
            <path id="Path_180586" data-name="Path 180586" d="M265,94.315,250.552,96.1a.917.917,0,0,1-1.019-.795l-.034-.273a.917.917,0,0,1,.8-1.019l14.451-1.785a.917.917,0,0,1,1.019.795l.034.272a.917.917,0,0,1-.8,1.019" transform="translate(-128.475 -47.489)" fill="#42e0e6"/>
            <path id="Path_180587" data-name="Path 180587" d="M490.488,93.77H499.8a9.314,9.314,0,1,1-9.314-9.314Z" transform="translate(-247.779 -43.49)" fill="#42e0e6"/>
            <path id="Path_180588" data-name="Path 180588" d="M512.906,91.082a9.314,9.314,0,0,0-9.314-9.314v9.314Z" transform="translate(-259.323 -42.106)" fill="#f9b131"/>
            <path id="Path_180589" data-name="Path 180589" d="M484.39,100.97a9.314,9.314,0,0,0,9.314,9.314,9.358,9.358,0,0,1-9.314-9.314" transform="translate(-249.435 -51.994)" fill="#f39892"/>
            <path id="Path_180590" data-name="Path 180590" d="M493.7,81.768a9.314,9.314,0,0,0-9.314,9.314,9.358,9.358,0,0,1,9.314-9.314" transform="translate(-249.435 -42.106)" fill="#f39892"/>
            <path id="Path_180591" data-name="Path 180591" d="M503.592,110.284a9.314,9.314,0,0,0,9.314-9.314,9.358,9.358,0,0,1-9.314,9.314" transform="translate(-259.323 -51.994)" fill="#f39892"/>
            <rect id="Rectangle_37777" data-name="Rectangle 37777" width="2.034" height="5.886" transform="translate(79.352 44.604)" fill="#42e0e6"/>
            <rect id="Rectangle_37778" data-name="Rectangle 37778" width="2.034" height="3.971" transform="translate(105.426 46.519)" fill="#42e0e6"/>
            <rect id="Rectangle_37779" data-name="Rectangle 37779" width="2.034" height="13.772" transform="translate(87.973 36.718)" fill="#42e0e6"/>
            <rect id="Rectangle_37780" data-name="Rectangle 37780" width="2.034" height="6.19" transform="translate(92.284 44.3)" fill="#42e0e6"/>
            <rect id="Rectangle_37781" data-name="Rectangle 37781" width="2.034" height="7.942" transform="translate(96.594 42.548)" fill="#42e0e6"/>
            <rect id="Rectangle_37782" data-name="Rectangle 37782" width="2.034" height="9.772" transform="translate(83.663 40.718)" fill="#42e0e6"/>
            <rect id="Rectangle_37783" data-name="Rectangle 37783" width="2.034" height="12.036" transform="translate(100.919 38.454)" fill="#42e0e6"/>
          </g>
        </g>
        <g id="Group_117834" data-name="Group 117834" transform="translate(2.665 15.096)">
          <g id="Group_117833" data-name="Group 117833" clip-path="url(#clip-path-6)">
            <path id="Path_180592" data-name="Path 180592" d="M38.447,61.98,27.779,55.457l-1.93,12.355a12.518,12.518,0,0,0,12.6-5.831" transform="translate(-15.976 -43.653)" fill="#1a2e48"/>
            <path id="Path_180593" data-name="Path 180593" d="M40.506,55.692c.029-.047.066-.112.065-.109a12.507,12.507,0,0,0,.277-12.31c-3.775,1.978-1.527.776-11.021,5.91,10.686,6.534,9.026,5.527,10.679,6.509" transform="translate(-18.024 -37.379)" fill="#f9b131"/>
            <path id="Path_180594" data-name="Path 180594" d="M5.651,37.874,17.378,42.2l11-5.948A12.513,12.513,0,0,0,5.651,37.874" transform="translate(-5.575 -30.392)" fill="#42e0e6"/>
            <path id="Path_180595" data-name="Path 180595" d="M14.613,63.224l1.93-12.355L4.815,46.548a12.531,12.531,0,0,0,9.8,16.676" transform="translate(-4.74 -39.066)" fill="#f9b131"/>
            <path id="Path_180596" data-name="Path 180596" d="M3.829,44.481a1.2,1.2,0,0,1,.593.153,11.926,11.926,0,0,1,.426-1.664l6.368,2.346v-.006a1.134,1.134,0,0,1,.277-.777l-.637-.235L5.137,42.192a12.253,12.253,0,0,1,1.842-3.1,1.239,1.239,0,0,1-.635-.534,13.1,13.1,0,0,0-1.984,3.344l-.007,0-.145.387-.146.39.007,0A12.794,12.794,0,0,0,3.6,44.5a1.185,1.185,0,0,1,.227-.023" transform="translate(-4.52 -34.953)" fill="#fff"/>
            <path id="Path_180597" data-name="Path 180597" d="M27.667,35.978l.007,0-.2-.365c0-.008-.008-.015-.013-.022l-.161-.3-.006,0a12.769,12.769,0,0,0-5.155-5A13.118,13.118,0,0,0,7.812,31.854a1.281,1.281,0,0,1,.527.642,12.12,12.12,0,0,1,6.986-2.788,11.9,11.9,0,0,1,11.218,5.934L23.293,37.4c-.67.361-1.608.868-3.178,1.718l-3.893,2.106-.1.054-.327-.2-.017.114-2.288-.843a1.144,1.144,0,0,1-.306.771l2.463.908-1.812,11.6A12.168,12.168,0,0,1,4.019,41.895a1.181,1.181,0,0,1-.4.074,1.219,1.219,0,0,1-.427-.078A13,13,0,0,0,13.708,54.448v.007l.409.065.411.065v-.007a12.931,12.931,0,0,0,12.395-5.753l.008.005.081-.133s.132-.217.132-.217l.058-.1.009-.015.006-.012.131-.215-.006,0a12.97,12.97,0,0,0,.324-12.16M14.655,53.758l1.769-11.325,4.6,2.815c1.856,1.135,2.918,1.785,3.586,2.192l1.589.972a12.042,12.042,0,0,1-11.546,5.346m11.987-6.064-.079-.047c-.436-.258-.625-.37-1.494-.9l-8.128-4.97,6.747-3.649c.99-.533,1.4-.746,2.4-1.271l.862-.451a12.139,12.139,0,0,1-.311,11.288" transform="translate(-4.307 -29.951)" fill="#e7f3fe"/>
          </g>
        </g>
        <g id="Group_117836" data-name="Group 117836">
          <g id="Group_117835" data-name="Group 117835" clip-path="url(#clip-path)">
            <path id="Path_180599" data-name="Path 180599" d="M130.337,43.015H102.5a3.963,3.963,0,0,1-3.962-3.962V30.818a3.963,3.963,0,0,1,3.963-3.963h27.833a3.962,3.962,0,0,1,3.962,3.962v8.235a3.962,3.962,0,0,1-3.962,3.962" transform="translate(-50.743 -13.829)" fill="#42e0e6"/>
            <path id="Path_180600" data-name="Path 180600" d="M131.158,46.764h-27.4a3.2,3.2,0,0,1-3.2-3.2V38.809a3.2,3.2,0,0,1,3.2-3.2h27.4a3.2,3.2,0,0,1,3.2,3.2v4.753a3.2,3.2,0,0,1-3.2,3.2" transform="translate(-51.781 -18.336)" fill="#fff"/>
            <path id="Path_180601" data-name="Path 180601" d="M102.35,30.568h-.14a.63.63,0,1,1,0-1.261h.14a.63.63,0,0,1,0,1.261" transform="translate(-52.308 -15.092)" fill="#fff"/>
            <path id="Path_180602" data-name="Path 180602" d="M107.6,30.568h-.14a.63.63,0,1,1,0-1.261h.14a.63.63,0,0,1,.63.63h0a.63.63,0,0,1-.63.63" transform="translate(-55.012 -15.092)" fill="#fff"/>
            <path id="Path_180603" data-name="Path 180603" d="M112.852,30.568h-.14a.63.63,0,0,1-.631-.63h0a.63.63,0,0,1,.631-.63h.14a.63.63,0,0,1,0,1.261" transform="translate(-57.716 -15.092)" fill="#fff"/>
            <path id="Path_180604" data-name="Path 180604" d="M147.86,39.514H129.98a.535.535,0,1,1,0-1.07h17.88a.535.535,0,1,1,0,1.07" transform="translate(-66.657 -19.797)" fill="#42e0e6"/>
            <path id="Path_180605" data-name="Path 180605" d="M120.135,56.527h-17.88a.535.535,0,1,1,0-1.07h17.88a.535.535,0,1,1,0,1.07" transform="translate(-52.38 -28.557)" fill="#9ec8ff"/>
            <path id="Path_180606" data-name="Path 180606" d="M143.964,56.527h-1.146a.535.535,0,1,1,0-1.07h1.146a.535.535,0,1,1,0,1.07" transform="translate(-73.268 -28.557)" fill="#9ec8ff"/>
            <path id="Path_180607" data-name="Path 180607" d="M149.714,56.527h-1.146a.535.535,0,1,1,0-1.07h1.146a.535.535,0,1,1,0,1.07" transform="translate(-76.229 -28.557)" fill="#9ec8ff"/>
            <path id="Path_180608" data-name="Path 180608" d="M135.945,44.683H106.336a.363.363,0,0,1,0-.726h29.609a.363.363,0,0,1,0,.726" transform="translate(-54.571 -22.636)" fill="#9ec8ff"/>
            <path id="Path_180609" data-name="Path 180609" d="M135.945,47.912H106.336a.363.363,0,0,1,0-.726h29.609a.363.363,0,0,1,0,.726" transform="translate(-54.571 -24.298)" fill="#9ec8ff"/>
            <path id="Path_180610" data-name="Path 180610" d="M335.712,29.509H320.443v-8.9h11.483l3.786,3.786Z" transform="translate(-165.011 -10.613)" fill="#f9b131"/>
            <path id="Path_180611" data-name="Path 180611" d="M343.539,20.609V25.36h4.066v-.913l-3.812-3.812Z" transform="translate(-176.904 -10.613)" fill="#cf8d19"/>
            <path id="Path_180612" data-name="Path 180612" d="M344.117,20.609v3.838H347.9Z" transform="translate(-177.202 -10.613)" fill="#f9b131"/>
            <path id="Path_180613" data-name="Path 180613" d="M330.511,26.921h-6.805a.27.27,0,0,1,0-.539h6.805a.27.27,0,0,1,0,.539" transform="translate(-166.553 -13.585)" fill="#fff"/>
            <path id="Path_180614" data-name="Path 180614" d="M330.511,29.766h-6.805a.27.27,0,0,1,0-.539h6.805a.27.27,0,0,1,0,.539" transform="translate(-166.553 -15.05)" fill="#fff"/>
            <path id="Path_180615" data-name="Path 180615" d="M330.511,32.76h-6.805a.27.27,0,0,1,0-.539h6.805a.27.27,0,0,1,0,.539" transform="translate(-166.553 -16.592)" fill="#fff"/>
            <path id="Path_180616" data-name="Path 180616" d="M335.213,21.535a.456.456,0,1,1-.456-.456.456.456,0,0,1,.456.456" transform="translate(-172.147 -10.855)" fill="#3e6bab"/>
            <rect id="Rectangle_37785" data-name="Rectangle 37785" width="11.701" height="9.705" transform="translate(93.296 20.08) rotate(-79.066)" fill="#f9b131"/>
            <path id="Path_180617" data-name="Path 180617" d="M206.829,30.186l-5.052-.976a.249.249,0,0,1,.095-.489l5.052.976a.249.249,0,0,1-.095.489" transform="translate(-103.801 -14.788)" fill="#1a2e48"/>
            <path id="Path_180618" data-name="Path 180618" d="M206.326,32.789l-5.052-.976a.249.249,0,0,1,.095-.489l5.052.976a.249.249,0,0,1-.095.489" transform="translate(-103.542 -16.128)" fill="#1a2e48"/>
            <path id="Path_180619" data-name="Path 180619" d="M205.809,35.465l-5.052-.976a.249.249,0,0,1,.095-.489l5.052.976a.249.249,0,0,1-.095.489" transform="translate(-103.276 -17.506)" fill="#1a2e48"/>
            <path id="Path_180620" data-name="Path 180620" d="M204.483,20.363a.415.415,0,1,1-.329-.486.415.415,0,0,1,.329.486" transform="translate(-104.874 -10.232)" fill="#3e6bab"/>
            <path id="Path_180621" data-name="Path 180621" d="M350.8,53.166,336.05,51.612l.974-9.243L348.716,43.6l2.732,3.376Z" transform="translate(-173.048 -21.818)" fill="#9ec8ff"/>
            <path id="Path_180622" data-name="Path 180622" d="M349.205,45.041l-10.976-1.156-.822,7.8,13.646,1.437.481-4.566-2.67-.281Z" transform="translate(-173.747 -22.598)" fill="#fff"/>
            <path id="Path_180623" data-name="Path 180623" d="M350.832,50.684l-7.11-.749a.3.3,0,0,1,.063-.593l7.11.749a.3.3,0,0,1-.063.592" transform="translate(-176.861 -25.408)" fill="#9ec8ff"/>
            <path id="Path_180624" data-name="Path 180624" d="M350.491,53.914l-7.11-.749a.3.3,0,0,1,.062-.593l7.11.749a.3.3,0,1,1-.063.592" transform="translate(-176.685 -27.071)" fill="#9ec8ff"/>
            <path id="Path_180625" data-name="Path 180625" d="M350.136,57.287l-7.11-.749a.3.3,0,0,1,.063-.593l7.11.749a.3.3,0,0,1-.063.592" transform="translate(-176.503 -28.808)" fill="#9ec8ff"/>
            <path id="Path_180626" data-name="Path 180626" d="M349.4,46.285a.456.456,0,1,1-.456-.456.456.456,0,0,1,.456.456" transform="translate(-179.455 -23.6)" fill="#3e6bab"/>
            <path id="Path_180627" data-name="Path 180627" d="M506.692,26.5A5.091,5.091,0,1,1,501.6,21.41a5.091,5.091,0,0,1,5.091,5.091" transform="translate(-255.676 -11.025)" fill="#f9b131"/>
            <path id="Path_180628" data-name="Path 180628" d="M504.232,31.9h-.009a.249.249,0,0,1-.177-.084l-1.383-1.572a.249.249,0,0,1,.373-.329l1.21,1.374,2.766-2.708a.249.249,0,0,1,.349.356l-2.954,2.891a.249.249,0,0,1-.174.071" transform="translate(-258.812 -14.682)" fill="#1a2e48"/>
            <path id="Path_180629" data-name="Path 180629" d="M37.888,115.3H56.753a6.611,6.611,0,1,0,0-13.223H37.888a6.611,6.611,0,1,0,0,13.223" transform="translate(-16.106 -52.565)" fill="#42e0e6"/>
            <path id="Path_180630" data-name="Path 180630" d="M80.515,124.046v7.3l-8.406-8.406s8.235,1.111,8.406,1.111" transform="translate(-37.132 -63.305)" fill="#42e0e6"/>
            <path id="Path_180631" data-name="Path 180631" d="M40,115.382H58.167a5.316,5.316,0,0,0,5.3-5.3h0a5.316,5.316,0,0,0-5.3-5.3H40a5.316,5.316,0,0,0-5.3,5.3h0a5.316,5.316,0,0,0,5.3,5.3" transform="translate(-17.869 -53.957)" fill="#fff"/>
            <path id="Path_180632" data-name="Path 180632" d="M61.1,108.976H74.1a.57.57,0,0,0,0-1.14H61.1a.57.57,0,0,0,0,1.14" transform="translate(-31.172 -55.53)" fill="#42e0e6"/>
            <path id="Path_180633" data-name="Path 180633" d="M39,114H63.1a.32.32,0,1,0,0-.64H39a.32.32,0,1,0,0,.64" transform="translate(-19.918 -58.374)" fill="#42e0e6"/>
            <path id="Path_180634" data-name="Path 180634" d="M39,116.556H63.1a.32.32,0,0,0,0-.64H39a.32.32,0,1,0,0,.64" transform="translate(-19.918 -59.691)" fill="#42e0e6"/>
            <path id="Path_180635" data-name="Path 180635" d="M442.633,106.7h.272a1.222,1.222,0,0,0,0-2.443h-.272a1.221,1.221,0,0,0-1.221,1.221h0a1.221,1.221,0,0,0,1.221,1.221" transform="translate(-227.304 -53.686)" fill="#1a2e48"/>
            <path id="Path_180636" data-name="Path 180636" d="M432.457,106.7h.272a1.222,1.222,0,0,0,0-2.443h-.272a1.222,1.222,0,0,0,0,2.443" transform="translate(-222.064 -53.686)" fill="#1a2e48"/>
            <path id="Path_180637" data-name="Path 180637" d="M422.281,106.7h.272a1.222,1.222,0,0,0,0-2.443h-.272a1.221,1.221,0,0,0-1.221,1.221h0a1.221,1.221,0,0,0,1.221,1.221" transform="translate(-216.824 -53.686)" fill="#1a2e48"/>
          </g>
        </g>
      </g>
    </g>
  </g>
</svg>
