<svg xmlns="http://www.w3.org/2000/svg" xmlns:xlink="http://www.w3.org/1999/xlink" width="295" height="280" viewBox="0 0 295 280">
  <defs>
    <clipPath id="clip-path">
      <rect id="Rectangle_37852" data-name="Rectangle 37852" width="263.928" height="161.374" fill="none"/>
    </clipPath>
    <clipPath id="clip-path-3">
      <rect id="Rectangle_37838" data-name="Rectangle 37838" width="1.977" height="4.07" fill="none"/>
    </clipPath>
    <clipPath id="clip-path-4">
      <rect id="Rectangle_37837" data-name="Rectangle 37837" width="1.976" height="4.07" fill="none"/>
    </clipPath>
    <clipPath id="clip-path-11">
      <rect id="Rectangle_37846" data-name="Rectangle 37846" width="5.107" height="10.517" fill="none"/>
    </clipPath>
    <clipPath id="clip-path-13">
      <rect id="Rectangle_37848" data-name="Rectangle 37848" width="6.154" height="12.673" fill="none"/>
    </clipPath>
    <clipPath id="clip-path-15">
      <rect id="Rectangle_37850" data-name="Rectangle 37850" width="3.977" height="8.189" fill="none"/>
    </clipPath>
  </defs>
  <g id="t5-c4" transform="translate(-6596 8183)">
    <path id="Rectangle_38453" data-name="Rectangle 38453" d="M20,3A17,17,0,0,0,3,20V260a17,17,0,0,0,17,17H275a17,17,0,0,0,17-17V20A17,17,0,0,0,275,3H20m0-3H275a20,20,0,0,1,20,20V260a20,20,0,0,1-20,20H20A20,20,0,0,1,0,260V20A20,20,0,0,1,20,0Z" transform="translate(6596 -8183)" fill="#42e0e6"/>
    <path id="Rectangle_38454" data-name="Rectangle 38454" d="M0,0H295a0,0,0,0,1,0,0V52a20,20,0,0,1-20,20H20A20,20,0,0,1,0,52V0A0,0,0,0,1,0,0Z" transform="translate(6596 -7975)" fill="#42e0e6"/>
    <path id="Path_184779" data-name="Path 184779" d="M26.51,15.418a4.96,4.96,0,0,1-2.083,1.274,8.984,8.984,0,0,1-3.006.483A5.36,5.36,0,0,1,17.4,15.638a6.226,6.226,0,0,1-1.608-4.28l-.009-1.107a7.637,7.637,0,0,1,.668-3.3,4.96,4.96,0,0,1,1.912-2.171,5.407,5.407,0,0,1,2.878-.76,5.669,5.669,0,0,1,3.713,1.094A4.637,4.637,0,0,1,26.5,8.378H23.53a2.426,2.426,0,0,0-.686-1.529,2.212,2.212,0,0,0-1.494-.457,2.013,2.013,0,0,0-1.793.984,5.256,5.256,0,0,0-.642,2.813v.773a5.145,5.145,0,0,0,.655,2.878,2.316,2.316,0,0,0,2.061.962,2.592,2.592,0,0,0,1.793-.536V12.28H21.28V10.162H26.51Zm6.258,1.758a4.889,4.889,0,0,1-3.542-1.305,4.507,4.507,0,0,1-1.354-3.4v-.246a5.84,5.84,0,0,1,.541-2.575A3.955,3.955,0,0,1,29.99,7.925a4.763,4.763,0,0,1,2.461-.611,4.117,4.117,0,0,1,3.164,1.244,4.887,4.887,0,0,1,1.16,3.467v1.151H30.887a2.135,2.135,0,0,0,.694,1.257,2.066,2.066,0,0,0,1.389.457,2.662,2.662,0,0,0,2.2-.984l1.354,1.6a3.784,3.784,0,0,1-1.569,1.217A5.3,5.3,0,0,1,32.768,17.176ZM32.434,9.6q-1.3,0-1.547,1.723h2.988v-.229a1.467,1.467,0,0,0-.36-1.1A1.434,1.434,0,0,0,32.434,9.6Zm10.512,4.729a.684.684,0,0,0-.4-.606,6.016,6.016,0,0,0-1.5-.475,6.853,6.853,0,0,1-1.828-.646,3.062,3.062,0,0,1-1.1-.971,2.319,2.319,0,0,1-.378-1.31,2.628,2.628,0,0,1,1.081-2.158,4.453,4.453,0,0,1,2.83-.848,4.934,4.934,0,0,1,3.023.853,2.666,2.666,0,0,1,1.143,2.241H42.849q0-1.143-1.2-1.143a1.194,1.194,0,0,0-.782.259.8.8,0,0,0-.316.646.737.737,0,0,0,.387.642,3.654,3.654,0,0,0,1.235.4,10.671,10.671,0,0,1,1.49.378A2.706,2.706,0,0,1,45.8,14.24a2.491,2.491,0,0,1-1.156,2.118,5.068,5.068,0,0,1-2.993.817,5.172,5.172,0,0,1-2.18-.439,3.645,3.645,0,0,1-1.494-1.2,2.707,2.707,0,0,1-.536-1.591h2.769a1.145,1.145,0,0,0,.439.962,1.808,1.808,0,0,0,1.081.3,1.422,1.422,0,0,0,.91-.246A.787.787,0,0,0,42.945,14.328Zm7.69-9.2V7.49H52.2V9.547H50.636V13.9a1.111,1.111,0,0,0,.193.747,1.037,1.037,0,0,0,.765.211,4.345,4.345,0,0,0,.738-.053v2.118a5.466,5.466,0,0,1-1.67.255,3.1,3.1,0,0,1-2.259-.721,2.954,2.954,0,0,1-.729-2.188V9.547H46.461V7.49h1.213V5.126ZM56.489,17H53.519V7.49h2.971ZM53.343,5.029A1.334,1.334,0,0,1,53.8,3.986a1.934,1.934,0,0,1,2.373,0,1.334,1.334,0,0,1,.457,1.043,1.334,1.334,0,0,1-.457,1.043,1.934,1.934,0,0,1-2.373,0A1.334,1.334,0,0,1,53.343,5.029Zm4.6,7.128a5.613,5.613,0,0,1,.554-2.536,3.96,3.96,0,0,1,1.591-1.709,4.791,4.791,0,0,1,2.435-.6,4.373,4.373,0,0,1,3.366,1.323,5.076,5.076,0,0,1,1.23,3.6v.105a4.925,4.925,0,0,1-1.235,3.529,4.384,4.384,0,0,1-3.344,1.305,4.434,4.434,0,0,1-3.261-1.217,4.761,4.761,0,0,1-1.327-3.3Zm2.962.185a3.538,3.538,0,0,0,.413,1.934,1.376,1.376,0,0,0,1.222.615q1.582,0,1.617-2.435v-.3q0-2.558-1.635-2.558-1.485,0-1.608,2.206ZM71.141,7.49l.1,1.116a3.225,3.225,0,0,1,2.716-1.292,2.713,2.713,0,0,1,2.219.888,4.226,4.226,0,0,1,.76,2.672V17H73.962V11a1.6,1.6,0,0,0-.29-1.059A1.342,1.342,0,0,0,72.617,9.6a1.413,1.413,0,0,0-1.292.686V17H68.363V7.49ZM83.929,17a3.344,3.344,0,0,1-.281-.853,2.754,2.754,0,0,1-2.285,1.028,3.374,3.374,0,0,1-2.285-.813,2.588,2.588,0,0,1-.94-2.043,2.66,2.66,0,0,1,1.143-2.338A5.821,5.821,0,0,1,82.6,11.19h.914v-.5q0-1.316-1.134-1.316a.927.927,0,0,0-1.055,1.042H78.365a2.655,2.655,0,0,1,1.173-2.239,4.931,4.931,0,0,1,2.993-.86,4.323,4.323,0,0,1,2.874.888,3.086,3.086,0,0,1,1.081,2.435v4.21a4.311,4.311,0,0,0,.4,2V17Zm-1.854-1.934a1.652,1.652,0,0,0,.918-.237,1.487,1.487,0,0,0,.523-.536V12.772h-.861q-1.547,0-1.547,1.389a.848.848,0,0,0,.272.655A.986.986,0,0,0,82.074,15.066Zm11.8-4.9L92.9,10.1a1.752,1.752,0,0,0-1.793.879V17H88.147V7.49h2.777l.1,1.222a2.294,2.294,0,0,1,2.083-1.4,2.888,2.888,0,0,1,.826.105Zm9.571,4.72a1.317,1.317,0,0,0,.967-.338,1.241,1.241,0,0,0,.334-.945h2.777a3.288,3.288,0,0,1-1.121,2.566,4.168,4.168,0,0,1-2.887,1,4.22,4.22,0,0,1-3.27-1.3,5.125,5.125,0,0,1-1.2-3.6v-.123A5.792,5.792,0,0,1,99.586,9.6a3.872,3.872,0,0,1,1.534-1.7,4.573,4.573,0,0,1,2.373-.593,4.116,4.116,0,0,1,2.944,1.028,3.647,3.647,0,0,1,1.09,2.786H104.75A1.626,1.626,0,0,0,104.39,10a1.244,1.244,0,0,0-.967-.4q-1.151,0-1.345,1.468a10.357,10.357,0,0,0-.062,1.283,4.068,4.068,0,0,0,.343,1.986A1.187,1.187,0,0,0,103.449,14.891ZM114.137,17a3.344,3.344,0,0,1-.281-.853,2.754,2.754,0,0,1-2.285,1.028,3.374,3.374,0,0,1-2.285-.813,2.588,2.588,0,0,1-.94-2.043,2.66,2.66,0,0,1,1.143-2.338,5.821,5.821,0,0,1,3.322-.791h.914v-.5q0-1.316-1.134-1.316a.927.927,0,0,0-1.055,1.042h-2.962a2.655,2.655,0,0,1,1.173-2.239,4.931,4.931,0,0,1,2.993-.86,4.323,4.323,0,0,1,2.874.888,3.086,3.086,0,0,1,1.081,2.435v4.21a4.311,4.311,0,0,0,.4,2V17Zm-1.854-1.934a1.652,1.652,0,0,0,.918-.237,1.487,1.487,0,0,0,.523-.536V12.772h-.861q-1.547,0-1.547,1.389a.848.848,0,0,0,.272.655A.986.986,0,0,0,112.282,15.066Zm8.771-7.576.1,1.116a3.225,3.225,0,0,1,2.716-1.292,2.713,2.713,0,0,1,2.219.888,4.226,4.226,0,0,1,.76,2.672V17h-2.971V11a1.6,1.6,0,0,0-.29-1.059A1.342,1.342,0,0,0,122.53,9.6a1.413,1.413,0,0,0-1.292.686V17h-2.962V7.49ZM133.842,17a3.344,3.344,0,0,1-.281-.853,2.754,2.754,0,0,1-2.285,1.028,3.374,3.374,0,0,1-2.285-.813,2.588,2.588,0,0,1-.94-2.043,2.66,2.66,0,0,1,1.143-2.338,5.821,5.821,0,0,1,3.322-.791h.914v-.5q0-1.316-1.134-1.316a.927.927,0,0,0-1.055,1.042h-2.962a2.655,2.655,0,0,1,1.173-2.239,4.931,4.931,0,0,1,2.993-.86,4.323,4.323,0,0,1,2.874.888,3.086,3.086,0,0,1,1.081,2.435v4.21a4.311,4.311,0,0,0,.4,2V17Zm-1.854-1.934a1.652,1.652,0,0,0,.918-.237,1.487,1.487,0,0,0,.523-.536V12.772h-.861q-1.547,0-1.547,1.389a.848.848,0,0,0,.272.655A.986.986,0,0,0,131.987,15.066ZM141.163,17h-2.971V3.5h2.971Zm6.425.176a4.889,4.889,0,0,1-3.542-1.305,4.507,4.507,0,0,1-1.354-3.4v-.246a5.84,5.84,0,0,1,.541-2.575,3.955,3.955,0,0,1,1.578-1.727,4.763,4.763,0,0,1,2.461-.611,4.117,4.117,0,0,1,3.164,1.244,4.887,4.887,0,0,1,1.16,3.467v1.151h-5.889a2.135,2.135,0,0,0,.694,1.257,2.066,2.066,0,0,0,1.389.457,2.662,2.662,0,0,0,2.2-.984l1.354,1.6a3.784,3.784,0,0,1-1.569,1.217A5.3,5.3,0,0,1,147.588,17.176ZM147.254,9.6q-1.3,0-1.547,1.723H148.7v-.229a1.467,1.467,0,0,0-.36-1.1A1.434,1.434,0,0,0,147.254,9.6Zm10.512,4.729a.684.684,0,0,0-.4-.606,6.016,6.016,0,0,0-1.5-.475,6.853,6.853,0,0,1-1.828-.646,3.062,3.062,0,0,1-1.1-.971,2.319,2.319,0,0,1-.378-1.31,2.628,2.628,0,0,1,1.081-2.158,4.453,4.453,0,0,1,2.83-.848,4.934,4.934,0,0,1,3.023.853,2.666,2.666,0,0,1,1.143,2.241h-2.971q0-1.143-1.2-1.143a1.194,1.194,0,0,0-.782.259.8.8,0,0,0-.316.646.737.737,0,0,0,.387.642,3.654,3.654,0,0,0,1.235.4,10.671,10.671,0,0,1,1.49.378,2.706,2.706,0,0,1,2.145,2.646,2.491,2.491,0,0,1-1.156,2.118,5.068,5.068,0,0,1-2.993.817,5.172,5.172,0,0,1-2.18-.439,3.645,3.645,0,0,1-1.494-1.2,2.707,2.707,0,0,1-.536-1.591h2.769a1.145,1.145,0,0,0,.439.962,1.808,1.808,0,0,0,1.081.3,1.422,1.422,0,0,0,.91-.246A.787.787,0,0,0,157.766,14.328Zm8.35-2.153a5.809,5.809,0,0,1,.976-3.56,3.211,3.211,0,0,1,2.725-1.3,2.731,2.731,0,0,1,2.145,1V3.5h2.971V17h-2.663l-.149-1.02a2.8,2.8,0,0,1-2.32,1.2,3.205,3.205,0,0,1-2.689-1.3A5.993,5.993,0,0,1,166.115,12.175Zm2.962.185q0,2.531,1.477,2.531a1.458,1.458,0,0,0,1.406-.826V10.443a1.419,1.419,0,0,0-1.389-.844q-1.371,0-1.485,2.215Zm12.138,4.816a4.889,4.889,0,0,1-3.542-1.305,4.507,4.507,0,0,1-1.354-3.4v-.246a5.84,5.84,0,0,1,.541-2.575,3.955,3.955,0,0,1,1.578-1.727,4.763,4.763,0,0,1,2.461-.611,4.117,4.117,0,0,1,3.164,1.244,4.887,4.887,0,0,1,1.16,3.467v1.151h-5.889a2.135,2.135,0,0,0,.694,1.257,2.066,2.066,0,0,0,1.389.457,2.662,2.662,0,0,0,2.2-.984l1.354,1.6a3.784,3.784,0,0,1-1.569,1.217A5.3,5.3,0,0,1,181.215,17.176ZM180.881,9.6q-1.3,0-1.547,1.723h2.988v-.229a1.467,1.467,0,0,0-.36-1.1A1.434,1.434,0,0,0,180.881,9.6Zm13.808,3.876,1.5-5.985h3.12l-3.1,9.51h-3.023l-3.1-9.51h3.129Zm9.993,3.7a4.889,4.889,0,0,1-3.542-1.305,4.507,4.507,0,0,1-1.354-3.4v-.246a5.84,5.84,0,0,1,.541-2.575A3.955,3.955,0,0,1,201.9,7.925a4.763,4.763,0,0,1,2.461-.611,4.117,4.117,0,0,1,3.164,1.244,4.887,4.887,0,0,1,1.16,3.467v1.151H202.8a2.135,2.135,0,0,0,.694,1.257,2.066,2.066,0,0,0,1.389.457,2.662,2.662,0,0,0,2.2-.984l1.354,1.6a3.784,3.784,0,0,1-1.569,1.217A5.3,5.3,0,0,1,204.682,17.176ZM204.348,9.6q-1.3,0-1.547,1.723h2.988v-.229a1.467,1.467,0,0,0-.36-1.1A1.434,1.434,0,0,0,204.348,9.6ZM212.6,7.49l.1,1.116a3.225,3.225,0,0,1,2.716-1.292,2.713,2.713,0,0,1,2.219.888,4.226,4.226,0,0,1,.76,2.672V17h-2.971V11a1.6,1.6,0,0,0-.29-1.059,1.342,1.342,0,0,0-1.055-.338,1.413,1.413,0,0,0-1.292.686V17h-2.962V7.49Zm10.881-2.364V7.49h1.564V9.547h-1.564V13.9a1.111,1.111,0,0,0,.193.747,1.037,1.037,0,0,0,.765.211,4.345,4.345,0,0,0,.738-.053v2.118a5.466,5.466,0,0,1-1.67.255,3.1,3.1,0,0,1-2.259-.721,2.954,2.954,0,0,1-.729-2.188V9.547h-1.213V7.49h1.213V5.126ZM231.567,17a3.344,3.344,0,0,1-.281-.853A2.754,2.754,0,0,1,229,17.176a3.374,3.374,0,0,1-2.285-.813,2.588,2.588,0,0,1-.94-2.043,2.66,2.66,0,0,1,1.143-2.338,5.821,5.821,0,0,1,3.322-.791h.914v-.5q0-1.316-1.134-1.316a.927.927,0,0,0-1.055,1.042H226a2.655,2.655,0,0,1,1.173-2.239,4.931,4.931,0,0,1,2.993-.86,4.323,4.323,0,0,1,2.874.888,3.086,3.086,0,0,1,1.081,2.435v4.21a4.311,4.311,0,0,0,.4,2V17Zm-1.854-1.934a1.652,1.652,0,0,0,.918-.237,1.487,1.487,0,0,0,.523-.536V12.772h-.861q-1.547,0-1.547,1.389a.848.848,0,0,0,.272.655A.986.986,0,0,0,229.713,15.066Z" transform="translate(6619 -7949)" fill="#12263f"/>
    <g id="Group_118358" data-name="Group 118358" transform="translate(6611.536 -8160)">
      <g id="Group_117880" data-name="Group 117880" clip-path="url(#clip-path)">
        <path id="Path_180861" data-name="Path 180861" d="M161.531,140.161H142.274V128.13h19.257Zm-18.247-1.041H160.52v-9.95H143.284Z" transform="translate(-67.176 -58.484)" fill="#e4e6e7"/>
        <g id="Group_117879" data-name="Group 117879">
          <g id="Group_117878" data-name="Group 117878" clip-path="url(#clip-path)">
            <path id="Path_180862" data-name="Path 180862" d="M102.164,208.108a10.62,10.62,0,1,1,10.308-10.615,10.477,10.477,0,0,1-10.308,10.615m0-20.19a9.579,9.579,0,1,0,9.3,9.575,9.45,9.45,0,0,0-9.3-9.575" transform="translate(-43.37 -85.298)" fill="#dcdcdb"/>
            <path id="Path_180863" data-name="Path 180863" d="M59.279,238.244a6.937,6.937,0,1,1,6.734-6.934,6.844,6.844,0,0,1-6.734,6.934m0-12.828A5.9,5.9,0,1,0,65,231.31a5.817,5.817,0,0,0-5.723-5.894" transform="translate(-24.809 -102.414)" fill="#ffd48a"/>
            <path id="Path_180864" data-name="Path 180864" d="M458.54,137.377a14.561,14.561,0,0,1-10.515-4.485,15.638,15.638,0,0,1,0-21.656,14.568,14.568,0,0,1,21.029,0,15.638,15.638,0,0,1,0,21.656,14.561,14.561,0,0,1-10.515,4.485m0-29.585a13.57,13.57,0,0,0-9.8,4.18,14.574,14.574,0,0,0,0,20.184,13.578,13.578,0,0,0,19.6,0,14.575,14.575,0,0,0,0-20.184,13.57,13.57,0,0,0-9.8-4.18" transform="translate(-209.482 -48.725)" fill="#ffd48a"/>
            <path id="Path_180865" data-name="Path 180865" d="M244.055,278.076a11.2,11.2,0,1,1,10.875-11.2,11.053,11.053,0,0,1-10.875,11.2m0-21.357a10.162,10.162,0,1,0,9.864,10.158,10.025,10.025,0,0,0-9.864-10.158" transform="translate(-110.098 -116.702)" fill="#ffd48a"/>
            <path id="Path_180866" data-name="Path 180866" d="M230.671,285.174a5.566,5.566,0,1,1,5.4-5.563,5.491,5.491,0,0,1-5.4,5.563m0-10.086a4.525,4.525,0,1,0,4.392,4.522,4.463,4.463,0,0,0-4.392-4.522" transform="translate(-106.362 -125.086)" fill="#a8fdff"/>
            <path id="Path_180867" data-name="Path 180867" d="M408.2,244.4H388.947V210.4H408.2Zm-18.246-1.041h17.236v-31.91H389.958Z" transform="translate(-183.644 -96.036)" fill="#ffd48a"/>
            <path id="Path_180868" data-name="Path 180868" d="M102.307,255.95h-.562v-.508h.562Zm0-1.087h-.562v-1.156h.562Zm0-1.734h-.562v-1.156h.562Zm0-1.734h-.562v-1.156h.562Zm0-1.735h-.562V248.5h.562Zm0-1.734h-.562V246.77h.562Zm0-1.735h-.562v-1.156h.562Zm0-1.734h-.562V243.3h.562Zm0-1.735h-.562v-1.156h.562Zm0-1.734h-.562v-1.156h.562Zm0-1.734h-.562V238.1h.562Zm-28.8-.091-.281-.5.973-.578.281.5Zm1.459-.868-.281-.5.972-.578.281.5Zm27.341-.776h-.562v-1.156h.562Zm-25.882-.091-.281-.5.973-.578.281.5Zm1.459-.868-.281-.5.972-.578.281.5Zm24.423-.776h-.562v-1.156h.562Zm-22.965-.091-.28-.5.972-.578.281.5Zm1.459-.867-.281-.5.973-.578.28.5Zm21.506-.776h-.562v-1.156h.562Zm-20.047-.091-.281-.5.972-.578.281.5Zm1.458-.867-.281-.5.973-.578.281.5Zm18.589-.776h-.562v-1.156h.562Zm-17.13-.091-.281-.5.972-.578.281.5Zm1.458-.867-.28-.5.972-.578.281.5Zm15.671-.776h-.562v-1.156h.562ZM88.1,230.489l-.281-.5.972-.578.281.5Zm1.458-.868-.28-.5.972-.578.281.5Zm12.754-.776h-.562V227.69h.562Zm-11.295-.091-.281-.5.973-.578.28.5Zm1.459-.868-.281-.5.972-.578.281.5Zm9.836-.776h-.562v-1.156h.562Zm-8.377-.091-.281-.5.973-.578.281.5Zm1.459-.868-.281-.5.972-.578.281.5Zm6.918-.776h-.562V224.22h.562Zm-5.46-.091-.281-.5.973-.578.281.5Zm1.459-.868-.281-.5.972-.578.281.5Zm4-.776h-.562v-1.156h.562Zm-2.543-.091-.28-.5.972-.578.281.5Zm1.459-.868-.281-.5.943-.561.421.251v.035h-.261l.121.215Z" transform="translate(-34.575 -101.157)" fill="#585a5c"/>
            <path id="Path_181035" data-name="Path 181035" d="M0,0,10.3-.135l-.008.566L-.008.566Z" transform="translate(37.995 103.378) rotate(-57.789)" fill="#585a5c"/>
            <path id="Path_181036" data-name="Path 181036" d="M0,0,4.632-.068,4.624.5-.008.57Z" transform="translate(51.823 80.712) rotate(-43.781)" fill="#585a5c"/>
            <path id="Path_180869" data-name="Path 180869" d="M86.348,137.679l-.505-.252.054-.115.505.252Zm.3-.635-.5-.252.49-1.04.505.252Zm.736-1.56-.505-.253.491-1.041.505.253Zm.736-1.561-.505-.252.491-1.04.5.252Zm.736-1.561-.505-.252.49-1.04.505.252Zm.736-1.561-.505-.252.49-1.04.505.252Z" transform="translate(-40.531 -59.114)" fill="#585a5c"/>
            <path id="Path_181037" data-name="Path 181037" d="M0,0,.57-.008l-.155,10.6-.57.008Z" transform="matrix(0.713, -0.702, 0.702, 0.713, 30.768, 72.013)" fill="#585a5c"/>
            <rect id="Rectangle_37798" data-name="Rectangle 37798" width="13.525" height="0.577" transform="translate(23.405 89.208) rotate(-0.215)" fill="#585a5c"/>
            <path id="Path_181038" data-name="Path 181038" d="M0,0H.578L.554,10.3H-.024Z" transform="translate(54.062 87.882) rotate(-85.434)" fill="#585a5c"/>
            <path id="Path_180870" data-name="Path 180870" d="M9.973,109.159l-.513-.235.456-1.057.513.235Zm.684-1.586-.513-.234.456-1.057.513.235Zm.684-1.585-.513-.235.456-1.057.513.235Zm.684-1.585-.513-.235.456-1.057.513.235Zm.684-1.585-.513-.235.456-1.057.513.235Zm.684-1.585L12.88,101l.456-1.057.513.234Zm.684-1.586-.513-.235.456-1.057.513.235Zm.684-1.585-.513-.235.456-1.057.513.235Zm.684-1.585-.513-.235.456-1.057.513.235Zm13.818-.058-.244-.071.087-.314-.023-.01.072-.166.018-.066.009,0,.254-.589.513.235-.353.819Zm-.784-.23-1.08-.317.154-.556,1.08.317Zm-1.62-.475-1.08-.317.154-.556,1.08.317Zm-1.62-.476-1.079-.317.154-.556,1.08.317Zm4.938-.327-.513-.235.456-1.057.513.235Zm-14.049-.02-.513-.235.456-1.057.513.235Zm7.492-.128-1.08-.317.154-.556,1.08.317ZM22,94.288l-1.08-.317.154-.556,1.08.317Zm-1.62-.475L19.3,93.5l.154-.556,1.08.317Zm-1.62-.476-1.08-.317.154-.556,1.08.317Zm12.1-.01-.513-.235.456-1.057.513.234Zm-14.049-.02-.513-.235.306-.71.334-.16.355.1-.154.556-.12-.035Zm14.733-1.565-.513-.235.456-1.057.513.235Zm.684-1.585-.513-.235.456-1.057.513.235Zm.684-1.585-.513-.235.456-1.057.513.234Zm.684-1.586-.513-.235.456-1.057.513.235ZM34.28,85.4l-.513-.235.456-1.057.513.235Zm12.943-.635-.472-.314.609-.972.472.314Zm-.821-.081L45.5,84l.331-.466.906.684Zm-11.438-.869-.513-.235.456-1.057.513.234Zm10.079-.157-.906-.683.331-.466.906.683Zm3.093-.351L47.664,83l.609-.972.472.313Zm-4.452-.674-.906-.683.331-.466.906.683Zm-8.036-.4L35.135,82l.456-1.057.513.235Zm13.4-.38-.472-.313.609-.972.472.313Zm-6.723-.241-.906-.683.331-.466.906.683Zm-5.994-.964-.513-.235.456-1.057.513.235Zm4.636-.061-.906-.684.331-.466.906.684Zm8.995-.191-.472-.313.609-.972.472.314Zm-10.354-.834-.906-.684.331-.466.906.684Zm-2.593-.5-.513-.235.456-1.057.514.235Zm13.859-.125-.472-.314.609-.972.472.314Zm-12.625-.4-.906-.683.332-.466.906.683Zm13.538-1.056-.472-.314.609-.972.472.314ZM52.7,76.02l-.472-.313.609-.972.472.313Z" transform="translate(-4.467 -34.112)" fill="#585a5c"/>
            <path id="Path_180871" data-name="Path 180871" d="M206.095,156.08a45.2,45.2,0,0,1-18.156-3.775,46.435,46.435,0,0,1-14.826-10.293,47.976,47.976,0,0,1-10-15.267,49.511,49.511,0,0,1,0-37.393,47.976,47.976,0,0,1,10-15.268l.794.818a46.817,46.817,0,0,0-9.756,14.9,48.328,48.328,0,0,0,0,36.492,46.829,46.829,0,0,0,9.756,14.9,45.326,45.326,0,0,0,14.469,10.046,44.455,44.455,0,0,0,35.437,0,45.326,45.326,0,0,0,14.469-10.046,46.829,46.829,0,0,0,9.756-14.9,48.328,48.328,0,0,0,0-36.492,46.817,46.817,0,0,0-9.756-14.9,45.317,45.317,0,0,0-14.469-10.046,44.453,44.453,0,0,0-35.329-.047l-.434-1.066a45.552,45.552,0,0,1,36.2.048,46.445,46.445,0,0,1,14.826,10.294,47.976,47.976,0,0,1,10,15.268,49.511,49.511,0,0,1,0,37.393,47.976,47.976,0,0,1-10,15.267A46.435,46.435,0,0,1,224.251,152.3a45.2,45.2,0,0,1-18.156,3.775" transform="translate(-75.286 -27.393)" fill="#e4e6e7"/>
            <path id="Path_180872" data-name="Path 180872" d="M203.664,156.544a48.11,48.11,0,0,1-24.244-6.577,49.592,49.592,0,0,1-14.393-12.638,51.062,51.062,0,0,1-8.887-17.981,51.982,51.982,0,0,1,4.564-38.6,50.277,50.277,0,0,1,12.272-14.821A48.637,48.637,0,0,1,202.42,54.919l.03,1.156a47.537,47.537,0,0,0-28.775,10.757,49.135,49.135,0,0,0-11.993,14.484,50.794,50.794,0,0,0-4.46,37.723,49.9,49.9,0,0,0,8.684,17.572,48.459,48.459,0,0,0,14.065,12.35,47.2,47.2,0,0,0,54.618-5.124,49.073,49.073,0,0,0,6.894-7.3,50.237,50.237,0,0,0,5.28-8.54l1,.519a51.386,51.386,0,0,1-5.4,8.737,50.23,50.23,0,0,1-7.055,7.474,48.483,48.483,0,0,1-18.405,9.943,47.913,47.913,0,0,1-13.241,1.877" transform="translate(-72.862 -25.067)" fill="#e4e6e7"/>
            <path id="Path_180873" data-name="Path 180873" d="M215.258,156.962q-1.562,0-3.13-.1a51.228,51.228,0,0,1-17.541-4.246,51.843,51.843,0,0,1-15.374-10.378l.772-.84a50.727,50.727,0,0,0,15.042,10.155,50.078,50.078,0,0,0,51.162-6.485,52.057,52.057,0,0,0,13.477-15.731,54.4,54.4,0,0,0,5.262-39.387,53.161,53.161,0,0,0-8.851-18.894,51.459,51.459,0,0,0-15.4-13.949A50.142,50.142,0,0,0,221.92,50.6l.147-1.146a51.225,51.225,0,0,1,19.173,6.65,52.589,52.589,0,0,1,15.734,14.254,54.338,54.338,0,0,1,9.044,19.308,55.585,55.585,0,0,1-5.377,40.249,53.184,53.184,0,0,1-13.772,16.075,51.678,51.678,0,0,1-16.742,8.745,50.759,50.759,0,0,1-14.868,2.224" transform="translate(-84.617 -22.574)" fill="#e4e6e7"/>
            <path id="Path_180874" data-name="Path 180874" d="M129.684,22.731H110.427V10.7h19.257ZM111.438,21.69h17.236V11.74H111.438Z" transform="translate(-52.139 -4.884)" fill="#ffd48a"/>
            <path id="Path_180875" data-name="Path 180875" d="M32.185,94.288a14.263,14.263,0,0,1-14.049,14.467,14.474,14.474,0,0,1,0-28.935A14.263,14.263,0,0,1,32.185,94.288" transform="translate(-1.93 -36.434)" fill="#e4e6e7"/>
            <path id="Path_180876" data-name="Path 180876" d="M7.411,68.895a3.762,3.762,0,0,1-3.705,3.816,3.817,3.817,0,0,1,0-7.632,3.762,3.762,0,0,1,3.705,3.816" transform="translate(0 -29.705)" fill="#e4e6e7"/>
            <rect id="Rectangle_37800" data-name="Rectangle 37800" width="18.246" height="11.853" transform="translate(195.395 143.405)" fill="#dcdcdb"/>
            <rect id="Rectangle_37801" data-name="Rectangle 37801" width="44.534" height="22.874" transform="translate(153.4 2.03)" fill="#ffd48a"/>
            <rect id="Rectangle_37802" data-name="Rectangle 37802" width="22.267" height="11.437" transform="translate(234.585 6.337)" fill="#dcdcdb"/>
            <path id="Path_180877" data-name="Path 180877" d="M238.864,206.577l-1.757,10.556a40.475,40.475,0,0,0,17.887-.834l-2.686-10.349a30.419,30.419,0,0,1-13.444.627" transform="translate(-111.952 -94.004)" fill="#a6a8ab"/>
            <path id="Path_180878" data-name="Path 180878" d="M182.75,111.328A32.328,32.328,0,0,1,196.248,91l-5.71-8.951a43.013,43.013,0,0,0-17.959,27.043q-.225,1.087-.394,2.172l10.269,1.694q.127-.815.3-1.632" transform="translate(-81.298 -37.452)" fill="#dcdcdb"/>
            <path id="Path_180879" data-name="Path 180879" d="M209.266,196.126l-6.223,8.584a41.345,41.345,0,0,0,3.783,2.593l5.3-9.217a31.12,31.12,0,0,1-2.861-1.96" transform="translate(-95.868 -89.52)" fill="#dcdcdb"/>
            <path id="Path_180880" data-name="Path 180880" d="M185.851,169l-9.757,3.711a43.523,43.523,0,0,0,9.652,15.53l7.359-7.57A32.713,32.713,0,0,1,185.851,169" transform="translate(-83.144 -77.14)" fill="#dcdcdb"/>
            <path id="Path_180881" data-name="Path 180881" d="M218.016,200.945l-4.922,9.438a40.987,40.987,0,0,0,5.025,2.337l3.666-10.023a30.879,30.879,0,0,1-3.77-1.751" transform="translate(-100.614 -91.719)" fill="#dcdcdb"/>
            <path id="Path_180882" data-name="Path 180882" d="M225.735,215.16q1.093.369,2.214.678l2.7-10.343q-.84-.232-1.657-.508Z" transform="translate(-106.582 -93.564)" fill="#dcdcdb"/>
            <path id="Path_180883" data-name="Path 180883" d="M271.167,185.8l3.6,10.047A42.638,42.638,0,0,0,300.7,166.587l-10.044-2.778A32.048,32.048,0,0,1,271.167,185.8" transform="translate(-128.033 -74.769)" fill="#a6a8ab"/>
            <path id="Path_180884" data-name="Path 180884" d="M241.609,79.832l-.6-10.695a40.469,40.469,0,0,0-5.505.706l1.967,10.52a30.443,30.443,0,0,1,4.138-.531" transform="translate(-111.195 -31.557)" fill="#dcdcdb"/>
            <path id="Path_180885" data-name="Path 180885" d="M181.793,140.344l-10.33-1.249a44.108,44.108,0,0,0,.462,13.182l10.215-2.025a33.139,33.139,0,0,1-.347-9.908" transform="translate(-80.82 -63.489)" fill="#dcdcdb"/>
            <path id="Path_180886" data-name="Path 180886" d="M256.481,80.439A31.494,31.494,0,0,1,277.4,96.346l9.117-5.153A41.907,41.907,0,0,0,258.65,69.965a40.863,40.863,0,0,0-9.389-.952l.163,10.711a30.7,30.7,0,0,1,7.057.715" transform="translate(-117.69 -31.498)" fill="#dcdcdb"/>
            <path id="Path_180887" data-name="Path 180887" d="M218.824,85.327l-4.115-9.837a41.529,41.529,0,0,0-4.936,2.6l5.341,9.19a31.282,31.282,0,0,1,3.71-1.958" transform="translate(-99.046 -34.457)" fill="#dcdcdb"/>
            <path id="Path_180888" data-name="Path 180888" d="M183.423,162.066,173.3,164.531q.14.609.3,1.212l10.05-2.766q-.118-.453-.223-.911" transform="translate(-81.825 -73.973)" fill="#dcdcdb"/>
            <path id="Path_180889" data-name="Path 180889" d="M222.208,72.821l3.711,10.006a30.7,30.7,0,0,1,3.984-1.266l-2.394-10.424a40.835,40.835,0,0,0-5.3,1.684" transform="translate(-104.917 -32.47)" fill="#dcdcdb"/>
            <path id="Path_180890" data-name="Path 180890" d="M320.122,146.9l-10.4.228a33.34,33.34,0,0,1-.454,6.033l10.251,1.809a44.4,44.4,0,0,0,.6-8.07" transform="translate(-146.023 -67.05)" fill="#dcdcdb"/>
            <path id="Path_180891" data-name="Path 180891" d="M307.551,130.269l10.336-1.218a44.017,44.017,0,0,0-3.3-12.63l-9.542,4.263a33.067,33.067,0,0,1,2.5,9.584" transform="translate(-144.031 -53.14)" fill="#dcdcdb"/>
            <path id="Path_180892" data-name="Path 180892" d="M370.279,175.706l-2.349.935,1.23,1.059-8.483,10.441-6.254-5.388L343.488,196.21l1.278,1.1,9.866-12.143,6.1,5.254.156.135,9.552-11.757,1.231,1.061.479-2.545.479-2.546Z" transform="translate(-162.181 -79.772)" fill="#42e0e6"/>
            <rect id="Rectangle_37803" data-name="Rectangle 37803" width="4.96" height="15.338" transform="translate(182.76 122.836)" fill="#a6a8ab"/>
            <rect id="Rectangle_37804" data-name="Rectangle 37804" width="4.96" height="24.236" transform="translate(189.684 114.107)" fill="#a6a8ab"/>
            <rect id="Rectangle_37805" data-name="Rectangle 37805" width="4.96" height="20.584" transform="translate(196.619 117.759)" fill="#a6a8ab"/>
            <rect id="Rectangle_37806" data-name="Rectangle 37806" width="4.96" height="28.793" transform="translate(203.555 109.55)" fill="#a6a8ab"/>
            <path id="Path_180893" data-name="Path 180893" d="M136.674,209.445a10.525,10.525,0,0,0-6.505-9.805,9.235,9.235,0,0,0,3.627-7.373,8.908,8.908,0,1,0-17.809,0,9.235,9.235,0,0,0,3.627,7.373,10.525,10.525,0,0,0-6.505,9.805v6.579h9.217l-.179-.317,1.372-9.84-1.372-3.153,1.372-3.153h2.745l1.372,3.153-1.372,3.153,1.372,9.84-.179.317h9.217Z" transform="translate(-53.406 -83.573)" fill="#dcdcdb"/>
            <path id="Path_180894" data-name="Path 180894" d="M134.348,219.691l1.372-3.153-1.372-3.153H131.6l-1.373,3.153,1.373,3.153-1.373,9.84.18.317L132.765,234h.421l2.355-4.148.179-.317Z" transform="translate(-61.489 -97.398)" fill="#0cc0c7"/>
            <path id="Path_180895" data-name="Path 180895" d="M91.57,14.779a9.4,9.4,0,0,0-6.662,2.78l6.662,7.081Z" transform="translate(-40.09 -6.746)" fill="#f9b131"/>
            <path id="Path_180896" data-name="Path 180896" d="M81.5,24.819A10.072,10.072,0,0,0,80.351,37.6l7.812-5.7Z" transform="translate(-37.105 -11.328)" fill="#a8fdff"/>
            <path id="Path_180897" data-name="Path 180897" d="M103.35,30.2a10.475,10.475,0,0,0-.087-1.3q-.031-.242-.073-.479a10.114,10.114,0,0,0-.231-1.009q-.06-.213-.129-.421-.151-.457-.343-.894-.083-.19-.174-.376-.2-.41-.435-.8c-.069-.114-.138-.227-.211-.337q-.272-.409-.579-.79c-.081-.1-.164-.2-.25-.3-.191-.218-.392-.427-.6-.628-.093-.089-.188-.176-.284-.261q-.326-.29-.677-.55c-.1-.078-.21-.154-.318-.227-.245-.167-.5-.325-.756-.468q-.176-.1-.356-.188a9.55,9.55,0,0,0-.945-.412c-.132-.049-.266-.1-.4-.14a9.523,9.523,0,0,0-.963-.256q-.226-.047-.456-.084a9.517,9.517,0,0,0-1.106-.108c-.13,0-.261-.01-.392-.01a.193.193,0,0,0-.19.2v9.761l-.677.494-1.847,1.349L86.71,35.008l-1.049.766a.2.2,0,0,0-.078.127.2.2,0,0,0,.033.146c.012.017.025.033.036.05.169.241.349.472.536.7.083.1.167.2.253.292.2.216.4.421.612.617.1.088.191.173.288.257.248.211.5.413.766.6.108.075.219.145.329.215q.378.242.775.448c.121.062.241.123.364.18.284.132.575.247.87.351.135.047.271.092.408.133a9.391,9.391,0,0,0,.976.242c.155.029.311.052.467.073a9.394,9.394,0,0,0,1.258.09h.027c.176,0,.351-.005.525-.015a9.451,9.451,0,0,0,1.386-.18c.24-.049.476-.109.708-.176a9.524,9.524,0,0,0,2.032-.845,9.827,9.827,0,0,0,1.8-1.3,9.957,9.957,0,0,0,.873-.9,10.047,10.047,0,0,0,2.083-3.946c.065-.24.123-.483.171-.731a10.286,10.286,0,0,0,.175-1.426c.009-.179.014-.359.014-.541V30.2" transform="translate(-40.408 -9.208)" fill="#dcdcdb"/>
            <path id="Path_180898" data-name="Path 180898" d="M124.7,84.338l1.831.858,1.44-3.261-1.83-.858a2.777,2.777,0,0,1-.6-1.832q.034-.4.034-.8a2.851,2.851,0,0,1,.737-1.912l1.883-.726-1.22-3.355-1.883.726a2.754,2.754,0,0,1-1.836-1c-.073-.084-.147-.167-.223-.249a2.963,2.963,0,0,1-.89-2.009l.832-1.885-3.167-1.483-.833,1.885a2.782,2.782,0,0,1-2.055.628q-.169-.008-.336-.01h-.1a2.7,2.7,0,0,1-1.856-.759l-.705-1.939-3.258,1.257.705,1.939a2.908,2.908,0,0,1-.974,1.89c-.082.076-.163.152-.242.231a2.784,2.784,0,0,1-1.95.916l-1.831-.858-1.44,3.261,1.831.857a2.965,2.965,0,0,1,.61,2.117q-.008.174-.009.347v0c0,.032,0,.064,0,.1a2.847,2.847,0,0,1-.737,1.911l-1.883.726,1.221,3.355,1.883-.727a2.755,2.755,0,0,1,1.836,1q.224.258.468.5a2.785,2.785,0,0,1,.714,1.789l-.833,1.885,3.167,1.484.832-1.885a2.982,2.982,0,0,1,2.394-.619l-.007-.008a2.764,2.764,0,0,1,1.956.768l.705,1.939,3.258-1.257-.705-1.939a3.159,3.159,0,0,1,1.268-2.181h-.037a2.689,2.689,0,0,1,1.837-.819m-10.47-.844a5.64,5.64,0,0,1-2.68-7.37,5.346,5.346,0,0,1,7.156-2.76,5.64,5.64,0,0,1,2.681,7.369,5.347,5.347,0,0,1-7.156,2.761" transform="translate(-49.456 -30.288)" fill="#c4fdff"/>
            <path id="Path_180899" data-name="Path 180899" d="M149.816,65.293l.757.725,1.219-1.348-.757-.726a1.443,1.443,0,0,1,0-.995q.08-.188.143-.383a1.427,1.427,0,0,1,.662-.808l1.033-.038-.064-1.841-1.033.038s-.4-.117-.737-.8c-.022-.053-.045-.106-.069-.159a1.539,1.539,0,0,1-.116-1.129l.7-.779-1.31-1.255-.7.779a1.414,1.414,0,0,1-1.1-.039c-.054-.021-.108-.041-.163-.061h0l-.045-.016a1.424,1.424,0,0,1-.785-.682l-.037-1.064-1.787.066.037,1.064a1.46,1.46,0,0,1-.774.759c-.052.023-.1.047-.155.072a1.415,1.415,0,0,1-1.1.12l-.757-.726-1.219,1.349.757.725a1.54,1.54,0,0,1-.037,1.134c-.021.056-.041.111-.06.168h0l-.016.047a1.43,1.43,0,0,1-.662.808l-1.033.038.064,1.841,1.033-.038s.4.117.736.8q.068.164.149.323a1.442,1.442,0,0,1,.065.992l-.7.779,1.309,1.255.7-.779a1.519,1.519,0,0,1,1.265.1l0,0a1.455,1.455,0,0,1,.832.7l.037,1.064,1.787-.066-.037-1.064s.135-.484.963-.851l-.018-.007a1.366,1.366,0,0,1,1.026-.091m-4.972-2.169a2.925,2.925,0,0,1-.141-4.043,2.725,2.725,0,0,1,3.927-.145,2.925,2.925,0,0,1,.141,4.043,2.725,2.725,0,0,1-3.927.145" transform="translate(-66.388 -24.975)" fill="#0cc0c7"/>
            <rect id="Rectangle_37807" data-name="Rectangle 37807" width="55.695" height="37.609" transform="translate(177.403 10.061)" fill="#a6a8ab"/>
            <rect id="Rectangle_37808" data-name="Rectangle 37808" width="46.042" height="27.329" transform="translate(182.23 15.201)" fill="#fff"/>
            <path id="Path_180900" data-name="Path 180900" d="M378.2,54.531,374.89,34.35l-4.276,9.415h-9.9v-.809h9.4l5.131-11.3,3.124,19.034,2.584-10.131h9.462v.809h-8.856Z" transform="translate(-170.312 -14.449)" fill="#f9b131"/>
            <rect id="Rectangle_37809" data-name="Rectangle 37809" width="16.609" height="4.833" transform="translate(196.946 47.67)" fill="#585a5c"/>
            <rect id="Rectangle_37810" data-name="Rectangle 37810" width="26.363" height="2.606" transform="translate(192.069 52.503)" fill="#a6a8ab"/>
            <path id="Path_180901" data-name="Path 180901" d="M391.488,55.651H341.453V23.871h50.035Zm-49.754-.289h49.474V24.16H341.733Z" transform="translate(-161.219 -10.896)" fill="#e6e6e6"/>
            <path id="Path_180902" data-name="Path 180902" d="M75.6,161.9h-.014V158.6a6.664,6.664,0,0,1,0-13.323v-3.294a9.772,9.772,0,0,1,9.59,8.687,9.691,9.691,0,1,0-9.59,11.223,9.52,9.52,0,0,0,7.156-3.261A9.52,9.52,0,0,1,75.6,161.9" transform="translate(-31.126 -64.809)" fill="#0cc0c7"/>
            <path id="Path_180903" data-name="Path 180903" d="M84.237,141.987v3.294a6.664,6.664,0,0,1,0,13.322V161.9h.014a9.522,9.522,0,0,0,7.142-3.261c.052-.059.1-.118.154-.179a10.088,10.088,0,0,0,2.357-6.515,10.356,10.356,0,0,0-.078-1.268,9.77,9.77,0,0,0-9.589-8.687" transform="translate(-39.773 -64.809)" fill="#08878c"/>
            <path id="Path_180904" data-name="Path 180904" d="M126.541,159.821a2.676,2.676,0,0,0-2.637-2.715v-1.343a4.059,4.059,0,0,0,0,8.115v-1.343a2.676,2.676,0,0,0,2.637-2.715m-4.634,0a2,2,0,1,1,2,2.057,2.028,2.028,0,0,1-2-2.057" transform="translate(-56.642 -71.097)" fill="#42e0e6"/>
            <path id="Path_180905" data-name="Path 180905" d="M134.558,161.008a4.137,4.137,0,0,1,.124.545,4.137,4.137,0,0,0-.124-.545" transform="translate(-63.533 -73.491)" fill="#1b75ba"/>
            <path id="Path_180906" data-name="Path 180906" d="M134.307,160.322q.074.18.131.369-.057-.188-.131-.369" transform="translate(-63.414 -73.177)" fill="#1b75ba"/>
            <path id="Path_180907" data-name="Path 180907" d="M134.158,159.992c.015.031.027.063.041.095-.014-.032-.026-.064-.041-.095" transform="translate(-63.344 -73.027)" fill="#1b75ba"/>
            <path id="Path_180908" data-name="Path 180908" d="M134.276,164.365a4.1,4.1,0,0,1-.595,1.6,4.1,4.1,0,0,0,.595-1.6" transform="translate(-63.118 -75.023)" fill="#1b75ba"/>
            <path id="Path_180909" data-name="Path 180909" d="M131.317,159.159a4.117,4.117,0,0,0-.124-.545l0,0q-.057-.188-.131-.369c-.012-.029-.025-.057-.037-.085s-.027-.064-.042-.095a3.933,3.933,0,0,0-3.552-2.3h0v1.343a2.716,2.716,0,0,1,0,5.43v1.343a3.911,3.911,0,0,0,3.3-1.842,4.111,4.111,0,0,0,.594-1.6,4.188,4.188,0,0,0,.045-.618c0-.14-.007-.279-.02-.415-.008-.083-.02-.165-.033-.247" transform="translate(-60.167 -71.096)" fill="#08878c"/>
            <path id="Path_180910" data-name="Path 180910" d="M92.976,125.767a3.429,3.429,0,1,0-3.329-3.428,3.379,3.379,0,0,0,3.329,3.428" transform="translate(-42.327 -54.276)" fill="#f9b131"/>
            <path id="Path_180911" data-name="Path 180911" d="M66.1,188.2a4.453,4.453,0,1,0,4.322,4.451A4.388,4.388,0,0,0,66.1,188.2" transform="translate(-29.169 -85.902)" fill="#a6a8ab"/>
            <path id="Path_180912" data-name="Path 180912" d="M60.1,131.8a1.794,1.794,0,1,0-1.794,1.847A1.821,1.821,0,0,0,60.1,131.8" transform="translate(-26.681 -59.314)" fill="#a6a8ab"/>
            <path id="Path_180913" data-name="Path 180913" d="M103.7,138.374a1.848,1.848,0,1,0,1.794,1.847,1.821,1.821,0,0,0-1.794-1.847" transform="translate(-48.118 -63.16)" fill="#a6a8ab"/>
            <path id="Path_180914" data-name="Path 180914" d="M38.715,159.378a2.52,2.52,0,1,0,2.446,2.519,2.483,2.483,0,0,0-2.446-2.519" transform="translate(-17.125 -72.747)" fill="#0cc0c7"/>
            <rect id="Rectangle_37811" data-name="Rectangle 37811" width="21.025" height="28.146" transform="translate(219.08 126.703)" fill="#585a5c"/>
            <rect id="Rectangle_37812" data-name="Rectangle 37812" width="16.101" height="7.742" transform="translate(221.542 128.896)" fill="#fff"/>
            <path id="Path_180915" data-name="Path 180915" d="M427.454,256.326h-2.04v-2.1h-1.73v2.1h-2.04v1.781h2.04v2.1h1.73v-2.1h2.04Z" transform="translate(-199.083 -116.039)" fill="#fff"/>
            <path id="Path_180916" data-name="Path 180916" d="M427.429,270.938l-1.223-1.26-1.443,1.486-1.442-1.486-1.223,1.26,1.442,1.485-1.442,1.485,1.223,1.26,1.442-1.486,1.443,1.486,1.223-1.26-1.442-1.485Z" transform="translate(-199.297 -123.092)" fill="#fff"/>
            <rect id="Rectangle_37813" data-name="Rectangle 37813" width="5.809" height="1.781" transform="translate(230.901 140.287)" fill="#fff"/>
            <path id="Path_181039" data-name="Path 181039" d="M0,0,5.9-.086,5.869,1.669l-5.9.086Z" transform="translate(231.14 150.815) rotate(-44.987)" fill="#fff"/>
            <path id="Path_180917" data-name="Path 180917" d="M439.174,269.461a1.119,1.119,0,0,1,0,1.55,1.043,1.043,0,0,1-1.505,0,1.119,1.119,0,0,1,0-1.55,1.042,1.042,0,0,1,1.505,0" transform="translate(-206.501 -122.846)" fill="#fff"/>
            <path id="Path_180918" data-name="Path 180918" d="M446.315,276.6a1.119,1.119,0,0,1,0,1.55,1.043,1.043,0,0,1-1.505,0,1.119,1.119,0,0,1,0-1.55,1.042,1.042,0,0,1,1.505,0" transform="translate(-209.873 -126.106)" fill="#fff"/>
            <rect id="Rectangle_37815" data-name="Rectangle 37815" width="3.906" height="2.656" transform="translate(94.73 15.595)" fill="#a6a8ab"/>
            <rect id="Rectangle_37816" data-name="Rectangle 37816" width="3.906" height="2.656" transform="translate(94.73 12.055)" fill="#dcdcdb"/>
            <rect id="Rectangle_37817" data-name="Rectangle 37817" width="3.906" height="8.293" transform="translate(94.73 19.268)" fill="#4e4e4f"/>
            <rect id="Rectangle_37818" data-name="Rectangle 37818" width="3.906" height="2.656" transform="translate(89.801 15.595)" fill="#a6a8ab"/>
            <rect id="Rectangle_37819" data-name="Rectangle 37819" width="3.906" height="2.656" transform="translate(89.801 12.055)" fill="#a6a8ab"/>
            <rect id="Rectangle_37820" data-name="Rectangle 37820" width="3.906" height="2.656" transform="translate(89.801 8.541)" fill="#dcdcdb"/>
            <rect id="Rectangle_37821" data-name="Rectangle 37821" width="3.906" height="2.656" transform="translate(89.801 5)" fill="#dcdcdb"/>
            <rect id="Rectangle_37822" data-name="Rectangle 37822" width="3.906" height="8.293" transform="translate(89.801 19.268)" fill="#4e4e4f"/>
            <rect id="Rectangle_37823" data-name="Rectangle 37823" width="3.906" height="2.656" transform="translate(99.788 19.202)" fill="#a6a8ab"/>
            <rect id="Rectangle_37824" data-name="Rectangle 37824" width="3.906" height="2.656" transform="translate(99.788 15.662)" fill="#dcdcdb"/>
            <rect id="Rectangle_37825" data-name="Rectangle 37825" width="3.906" height="2.656" transform="translate(104.222 24.904)" fill="#4e4e4f"/>
            <rect id="Rectangle_37826" data-name="Rectangle 37826" width="3.906" height="4.686" transform="translate(99.788 22.874)" fill="#4e4e4f"/>
            <path id="Path_180919" data-name="Path 180919" d="M8.081,135a1.6,1.6,0,0,0-.982,2.008,1.535,1.535,0,0,0,1.95,1.012,1.6,1.6,0,0,0,.982-2.008A1.535,1.535,0,0,0,8.081,135" transform="translate(-3.315 -61.584)" fill="#0cc0c7"/>
            <path id="Path_180920" data-name="Path 180920" d="M21.239,104.793a1.6,1.6,0,0,0-.982,2.008,1.535,1.535,0,0,0,1.95,1.012,1.6,1.6,0,0,0,.982-2.008,1.534,1.534,0,0,0-1.95-1.012" transform="translate(-9.528 -47.795)" fill="#a6a8ab"/>
            <path id="Path_180921" data-name="Path 180921" d="M45.1,111.036a1.6,1.6,0,0,0-.982,2.008,1.535,1.535,0,0,0,1.95,1.012,1.6,1.6,0,0,0,.982-2.008,1.534,1.534,0,0,0-1.95-1.012" transform="translate(-20.794 -50.645)" fill="#a6a8ab"/>
            <path id="Path_180922" data-name="Path 180922" d="M60.48,77a1.6,1.6,0,0,0-.982,2.008,1.535,1.535,0,0,0,1.95,1.012,1.6,1.6,0,0,0,.982-2.008A1.534,1.534,0,0,0,60.48,77" transform="translate(-28.055 -35.111)" fill="#f9b131"/>
            <path id="Path_180923" data-name="Path 180923" d="M78.456,89.939a1.6,1.6,0,0,0-.982,2.008,1.535,1.535,0,0,0,1.95,1.012,1.6,1.6,0,0,0,.982-2.008,1.534,1.534,0,0,0-1.95-1.012" transform="translate(-36.543 -41.015)" fill="#a6a8ab"/>
            <path id="Path_180924" data-name="Path 180924" d="M92.192,73.191a1.535,1.535,0,0,0-1.95-1.012,1.6,1.6,0,0,0-.982,2.008,1.534,1.534,0,0,0,1.95,1.012,1.6,1.6,0,0,0,.982-2.008" transform="translate(-42.107 -32.909)" fill="#a6a8ab"/>
            <path id="Path_180925" data-name="Path 180925" d="M25.851,198.336H19.511c-3.425,0-3.352.45-3.06,2.1S20.6,204.2,20.6,204.2l1.617,1.86,2.536-1.86s3.862-2.117,4.154-3.767.364-2.1-3.06-2.1" transform="translate(-7.708 -90.529)" fill="#a6a8ab"/>
            <path id="Path_180926" data-name="Path 180926" d="M22.193,206.079,20.562,204.2a20.322,20.322,0,0,1-1.966-1.264c-1.336-.981-2.075-1.829-2.2-2.521-.134-.759-.223-1.262.05-1.6.321-.4,1.116-.536,3.038-.536h6.339c1.922,0,2.717.14,3.038.536.273.336.184.839.05,1.6-.122.693-.861,1.54-2.2,2.521a20.229,20.229,0,0,1-1.97,1.267Zm-2.706-7.738c-1.879,0-2.69.14-2.995.516-.256.316-.169.807-.037,1.551.286,1.619,4.1,3.726,4.138,3.747l.008.006L22.2,206l2.515-1.845c.042-.023,3.856-2.131,4.142-3.749.131-.744.218-1.235-.038-1.551-.3-.376-1.116-.516-2.994-.516Z" transform="translate(-7.682 -90.504)" fill="#fff"/>
            <path id="Path_180927" data-name="Path 180927" d="M29.33,215.1c0,4.5-4.089,8.148-9.133,8.148s-9.133-3.648-9.133-8.148,4.089-10.661,9.133-10.661S29.33,210.6,29.33,215.1" transform="translate(-5.224 -93.315)" fill="#a6a8ab"/>
            <path id="Path_180928" data-name="Path 180928" d="M19.445,223.389a10.484,10.484,0,0,1-7.009-2.6,8.543,8.543,0,0,1-2.966-6.417,12.848,12.848,0,0,1,2.862-7.564,11.471,11.471,0,0,1,3.138-2.816,7.453,7.453,0,0,1,7.95,0,11.477,11.477,0,0,1,3.137,2.816,12.848,12.848,0,0,1,2.862,7.564,8.542,8.542,0,0,1-2.965,6.417,10.486,10.486,0,0,1-7.009,2.6m0-18.809c-1.193,0-3.532.432-5.8,3.322a11.2,11.2,0,0,0-2.487,6.473c0,4.014,3.719,7.28,8.291,7.28s8.29-3.266,8.29-7.28a11.2,11.2,0,0,0-2.487-6.473c-2.271-2.89-4.611-3.322-5.8-3.322" transform="translate(-4.471 -92.587)" fill="#fff"/>
            <path id="Path_180929" data-name="Path 180929" d="M27.991,217.047a3.617,3.617,0,0,0-1.424-.615l-.524-.127v-2.136c.035.015.07.032.1.049a1.216,1.216,0,0,1,.664,1.087h1.653a2.552,2.552,0,0,0-.975-2.062,3.385,3.385,0,0,0-1.446-.638v-1.244H24.585v1.208a3,3,0,0,0-1.736.716,2.47,2.47,0,0,0-.814,1.893,2.089,2.089,0,0,0,.832,1.835,5.256,5.256,0,0,0,1.718.63v2.3a1.357,1.357,0,0,1-.728-.438,1.752,1.752,0,0,1-.314-.869H21.9a2.534,2.534,0,0,0,.932,2.08,3.467,3.467,0,0,0,1.752.7v1.224h1.458V221.44a3.223,3.223,0,0,0,1.812-.732,2.461,2.461,0,0,0,.873-1.93,2.1,2.1,0,0,0-.736-1.731m-3.963-1.317a.731.731,0,0,1-.4-.679.881.881,0,0,1,.406-.771,1.547,1.547,0,0,1,.552-.223v1.883a2.776,2.776,0,0,1-.557-.21m2.3,4.164a2.043,2.043,0,0,1-.289.077v-1.986a2.78,2.78,0,0,1,.665.275.729.729,0,0,1,.361.65.983.983,0,0,1-.736.984" transform="translate(-10.341 -96.474)" fill="#fff"/>
            <path id="Path_180930" data-name="Path 180930" d="M469.212,66.64a6.439,6.439,0,0,0-2.536-1.1l-.933-.227v-3.8c.064.027.126.056.185.087a2.167,2.167,0,0,1,1.183,1.936h2.944a4.545,4.545,0,0,0-1.737-3.672,6.035,6.035,0,0,0-2.575-1.135V56.515h-2.595v2.151a5.336,5.336,0,0,0-3.091,1.275,4.4,4.4,0,0,0-1.45,3.37,3.722,3.722,0,0,0,1.482,3.267,9.355,9.355,0,0,0,3.059,1.121v4.1a2.42,2.42,0,0,1-1.3-.779,3.118,3.118,0,0,1-.558-1.547h-2.924a4.509,4.509,0,0,0,1.659,3.7,6.174,6.174,0,0,0,3.121,1.253v2.179h2.595v-2.15a5.741,5.741,0,0,0,3.227-1.3,4.384,4.384,0,0,0,1.553-3.436,3.742,3.742,0,0,0-1.311-3.083m-7.056-2.345a1.3,1.3,0,0,1-.714-1.209,1.568,1.568,0,0,1,.724-1.372,2.751,2.751,0,0,1,.982-.4v3.353a4.936,4.936,0,0,1-.992-.373m4.1,7.415a3.647,3.647,0,0,1-.516.138V68.312a4.924,4.924,0,0,1,1.184.49,1.3,1.3,0,0,1,.642,1.157,1.75,1.75,0,0,1-1.31,1.751" transform="translate(-216.422 -25.796)" fill="#c4fdff"/>
            <path id="Path_180931" data-name="Path 180931" d="M193.7,252.47h-3.855l-3.656,6.4-3.679-6.4h-3.876l4.719,8.088h-1.762v2.66H184.4v.491h-2.814v2.66H184.4v3.418h3.458v-3.418h2.88v-2.66h-2.88v-.491h2.88v-2.66h-1.773Z" transform="translate(-84.341 -115.238)" fill="#c4fdff"/>
            <path id="Path_180932" data-name="Path 180932" d="M26.012,41.7a4.449,4.449,0,0,1-1.036,2.5,2.993,2.993,0,0,1-2.354.949,3.744,3.744,0,0,1-1.884-.442,3.629,3.629,0,0,1-1.256-1.175c-.055-.084-.107-.171-.157-.259h2.909V40.75H18.6q-.021-.232-.029-.466h3.668V37.756H18.855a5.155,5.155,0,0,1,.627-1.407,3.6,3.6,0,0,1,1.256-1.186,3.75,3.75,0,0,1,1.884-.442,3.327,3.327,0,0,1,1.161.2,3.363,3.363,0,0,1,1.727,1.422,2.819,2.819,0,0,1,.377,1.067h3.181a6.334,6.334,0,0,0-.712-2.371,5.739,5.739,0,0,0-1.434-1.735,6.269,6.269,0,0,0-1.967-1.066,7.8,7.8,0,0,0-5.421.258,6.622,6.622,0,0,0-2.312,1.724A7.761,7.761,0,0,0,15.778,36.8a8.961,8.961,0,0,0-.267.954H13.539v2.528H15.28c0,.157.012.313.022.466H13.539v2.528h2.289a7.5,7.5,0,0,0,1.394,2.393,6.62,6.62,0,0,0,2.312,1.692,7.473,7.473,0,0,0,3.087.614,7.165,7.165,0,0,0,2.532-.431,5.835,5.835,0,0,0,2.009-1.25,6.25,6.25,0,0,0,1.381-1.982,8.03,8.03,0,0,0,.649-2.608Z" transform="translate(-6.393 -14.55)" fill="#a6a8ab"/>
            <path id="Path_180933" data-name="Path 180933" d="M74.26,238.321c-.4-.089-.811-.183-1.21-.28l.194-.844c.393.1.794.189,1.192.277Z" transform="translate(-34.491 -108.266)" fill="#ee7822"/>
            <path id="Path_180934" data-name="Path 180934" d="M74.3,244.221a4.274,4.274,0,0,0,1.679-3.411,4.122,4.122,0,1,0-8.241,0,4.274,4.274,0,0,0,1.679,3.411,4.87,4.87,0,0,0-3.01,4.537V251.8h10.9v-3.044a4.87,4.87,0,0,0-3.01-4.537" transform="translate(-31.355 -107.979)" fill="#dcdcdb"/>
            <path id="Path_180935" data-name="Path 180935" d="M73.089,236.567a4.16,4.16,0,0,0-4.076,3.655c.083,0,3.086.012,4.076-1.89,0,0,.969,1.883,4.075,1.89a4.159,4.159,0,0,0-4.075-3.655" transform="translate(-32.585 -107.979)" fill="#cf8d19"/>
            <path id="Path_180936" data-name="Path 180936" d="M126.322,271.095a4.436,4.436,0,0,0-1.565-1.071,4.014,4.014,0,0,0,1.576-3.2,4.145,4.145,0,0,0-.042-.553c-.481-.01-2.942-.141-3.808-1.739-.866,1.6-3.326,1.73-3.808,1.739a4.146,4.146,0,0,0-.042.553,4.014,4.014,0,0,0,1.576,3.2,4.436,4.436,0,0,0-1.565,1.071,4.623,4.623,0,0,0-1.262,3.189v2.858h10.2v-2.858a4.623,4.623,0,0,0-1.262-3.189" transform="translate(-55.424 -120.741)" fill="#dcdcdb"/>
            <path id="Path_180937" data-name="Path 180937" d="M118.805,264.249v2.871a4.183,4.183,0,0,0,.505,2,4.422,4.422,0,0,1,1.556-1.066,3.993,3.993,0,0,1-1.568-3.187,4.1,4.1,0,0,1,.042-.55c.479-.01,2.926-.14,3.788-1.73v-1.681h0v-.12h0v-.653H122.8a4.06,4.06,0,0,0-4,4.118" transform="translate(-56.095 -118.734)" fill="#244063"/>
            <path id="Path_180938" data-name="Path 180938" d="M127.374,260.131H127v.653h.035l.027,0-.035,0-.027,0v.119h.027l-.027,0v1.681c.006-.011.013-.022.02-.034l.008.013a.105.105,0,0,0,.008-.013,3.9,3.9,0,0,0,2.246,1.537l.039.011c.062.018.125.034.189.05.088.021.177.041.271.058l.132.024c.118.02.24.037.366.049l.076.008c.149.013.3.022.461.026h.027a4.134,4.134,0,0,1,.041.552,3.992,3.992,0,0,1-1.568,3.187,4.421,4.421,0,0,1,1.547,1.056l.01.01a4.191,4.191,0,0,0,.5-2v-2.871a4.059,4.059,0,0,0-4-4.118" transform="translate(-59.962 -118.734)" fill="#244063"/>
            <path id="Path_180939" data-name="Path 180939" d="M232.518,0V1.567h14.418v18.51h1.409V0Z" transform="translate(-109.785)" fill="#a6a8ab"/>
            <path id="Path_180940" data-name="Path 180940" d="M241.44,24.483h-13.8V3.735h16.542V21.354Z" transform="translate(-107.483 -1.705)" fill="#dcdcdb"/>
            <path id="Path_180941" data-name="Path 180941" d="M256.527,36.15h-2.744v3.129Z" transform="translate(-119.825 -16.5)" fill="#a6a8ab"/>
            <rect id="Rectangle_37827" data-name="Rectangle 37827" width="10.007" height="0.289" transform="translate(125.193 4.802)" fill="#585a5c"/>
            <rect id="Rectangle_37828" data-name="Rectangle 37828" width="13.729" height="0.289" transform="translate(121.471 5.911)" fill="#585a5c"/>
            <rect id="Rectangle_37829" data-name="Rectangle 37829" width="13.729" height="0.289" transform="translate(121.471 7.15)" fill="#585a5c"/>
            <rect id="Rectangle_37830" data-name="Rectangle 37830" width="13.729" height="0.289" transform="translate(121.471 14.31)" fill="#585a5c"/>
            <rect id="Rectangle_37831" data-name="Rectangle 37831" width="13.729" height="0.289" transform="translate(121.471 15.549)" fill="#585a5c"/>
            <rect id="Rectangle_37832" data-name="Rectangle 37832" width="13.729" height="0.289" transform="translate(121.471 16.858)" fill="#585a5c"/>
            <rect id="Rectangle_37833" data-name="Rectangle 37833" width="13.729" height="0.289" transform="translate(121.471 18.096)" fill="#585a5c"/>
            <rect id="Rectangle_37834" data-name="Rectangle 37834" width="11.007" height="0.289" transform="translate(121.471 19.413)" fill="#585a5c"/>
            <rect id="Rectangle_37835" data-name="Rectangle 37835" width="8.726" height="4.422" transform="translate(121.471 8.753)" fill="#0cc0c7"/>
            <rect id="Rectangle_37836" data-name="Rectangle 37836" width="3.951" height="4.422" transform="translate(130.974 8.753)" fill="#cf8d19"/>
            <path id="Path_180942" data-name="Path 180942" d="M262.139,278.966H248.174l2.273-6.331h9.418Z" transform="translate(-117.177 -124.442)" fill="#a6a8ab"/>
            <path id="Path_180943" data-name="Path 180943" d="M289.421,278.966H275.457l2.273-6.331h9.418Z" transform="translate(-130.059 -124.442)" fill="#a6a8ab"/>
            <path id="Path_180944" data-name="Path 180944" d="M316.7,278.966H302.739l2.273-6.331h9.418Z" transform="translate(-142.94 -124.442)" fill="#a6a8ab"/>
            <path id="Path_180945" data-name="Path 180945" d="M275.78,265.843H261.815l2.273-6.331h9.418Z" transform="translate(-123.618 -118.452)" fill="#a6a8ab"/>
            <path id="Path_180946" data-name="Path 180946" d="M303.063,265.843H289.1l2.273-6.331h9.418Z" transform="translate(-136.5 -118.452)" fill="#a6a8ab"/>
            <path id="Path_180947" data-name="Path 180947" d="M289.835,253.154H275.87l2.273-6.331h9.418Z" transform="translate(-130.254 -112.66)" fill="#a6a8ab"/>
            <path id="Path_180948" data-name="Path 180948" d="M450.169,189.2a7.222,7.222,0,0,0-10.424,0,7.752,7.752,0,0,0,0,10.735,7.222,7.222,0,0,0,10.424,0,7.752,7.752,0,0,0,0-10.735m-4.942,12.4v-1.2h-.54v1.2a6.944,6.944,0,0,1-6.555-6.75H439.3v-.556h-1.168a6.944,6.944,0,0,1,6.555-6.75v1.2h.54v-1.2a6.944,6.944,0,0,1,6.555,6.75h-1.168v.556h1.168a6.944,6.944,0,0,1-6.555,6.75" transform="translate(-206.609 -85.346)" fill="#585a5c"/>
            <path id="Path_180949" data-name="Path 180949" d="M451.579,191.892h-.54v5.2H453.4v-.556h-1.826Z" transform="translate(-212.961 -87.587)" fill="#585a5c"/>
            <path id="Path_180950" data-name="Path 180950" d="M282.986,110.462l-6.77-4.025-6.77,4.025,6.77,4.025Z" transform="translate(-127.221 -48.582)" fill="#42e0e6"/>
            <path id="Path_180951" data-name="Path 180951" d="M269.447,113.841v44.375l6.77,4.025V117.866Z" transform="translate(-127.221 -51.962)" fill="#a6a8ab"/>
            <path id="Path_180952" data-name="Path 180952" d="M282.272,117.866v44.375l6.77-4.025V113.841Z" transform="translate(-133.277 -51.962)" fill="#dcdcdb"/>
            <path id="Path_180953" data-name="Path 180953" d="M263.749,171.018l-6.77-4.024-6.77,4.024,6.77,4.025Z" transform="translate(-118.138 -76.223)" fill="#f9b131"/>
            <path id="Path_180954" data-name="Path 180954" d="M250.21,174.4v17.85l6.77,4.025v-17.85Z" transform="translate(-118.138 -79.602)" fill="#a6a8ab"/>
            <path id="Path_180955" data-name="Path 180955" d="M263.035,178.422v17.85l6.77-4.025V174.4Z" transform="translate(-124.194 -79.602)" fill="#dcdcdb"/>
            <path id="Path_180956" data-name="Path 180956" d="M244.512,144.451l-6.77-4.024-6.77,4.024,6.77,4.025Z" transform="translate(-109.055 -64.097)" fill="#42e0e6"/>
            <path id="Path_180957" data-name="Path 180957" d="M230.972,147.831v38.682l6.77,4.025V151.856Z" transform="translate(-109.055 -67.476)" fill="#a6a8ab"/>
            <path id="Path_180958" data-name="Path 180958" d="M243.8,151.855v38.682l6.77-4.025V147.83Z" transform="translate(-115.111 -67.476)" fill="#dcdcdb"/>
            <path id="Path_180959" data-name="Path 180959" d="M225.274,194.534l-6.77-4.025-6.77,4.025,6.77,4.025Z" transform="translate(-99.972 -86.956)" fill="#f9b131"/>
            <path id="Path_180960" data-name="Path 180960" d="M211.735,197.913v17.851l6.77,4.025v-17.85Z" transform="translate(-99.972 -90.336)" fill="#a6a8ab"/>
            <path id="Path_180961" data-name="Path 180961" d="M224.56,201.938v17.85l6.77-4.025V197.913Z" transform="translate(-106.028 -90.336)" fill="#dcdcdb"/>
            <path id="Path_180962" data-name="Path 180962" d="M234.6,67.943l-4.063,3.27,3,1.109L222.813,97l-15.235-5.64-13.814,31.807,3.113,1.152,12.463-28.7,14.854,5.5.381.141,12.068-27.785,3,1.11-.491-4.955-.491-4.956Z" transform="translate(-91.487 -29.52)" fill="#0cc0c7"/>
            <path id="Path_180963" data-name="Path 180963" d="M405.705,132.713h-5.487a1.377,1.377,0,0,1,.036.315,1.352,1.352,0,0,1-.025.263h5.463a1.168,1.168,0,0,1,.013-.578" transform="translate(-188.966 -60.576)" fill="#585a5c"/>
            <path id="Path_180964" data-name="Path 180964" d="M424.987,125.625h-3.066a1.15,1.15,0,0,1,0,.578h3.066a1.15,1.15,0,0,1,0-.578" transform="translate(-199.213 -57.34)" fill="#585a5c"/>
            <path id="Path_180965" data-name="Path 180965" d="M415.94,127.134l-2.26,2.327a1.149,1.149,0,0,1,.412.394l2.222-2.288a1.157,1.157,0,0,1-.374-.433" transform="translate(-195.322 -58.029)" fill="#585a5c"/>
            <path id="Path_180966" data-name="Path 180966" d="M433.382,129.5l-2.146-2.21a1.15,1.15,0,0,1-.408.4l2.138,2.2a1.14,1.14,0,0,1,.415-.39" transform="translate(-203.419 -58.101)" fill="#585a5c"/>
            <path id="Path_180967" data-name="Path 180967" d="M451.38,137.553l-2.905-2.992a1.322,1.322,0,0,1-.4.409l2.912,3a1.145,1.145,0,0,1,.391-.415" transform="translate(-211.563 -61.419)" fill="#585a5c"/>
            <path id="Path_180968" data-name="Path 180968" d="M446.75,133.464l-.729-.751h-1.032a1.012,1.012,0,0,0,0,.578h.8l.565.582a.98.98,0,0,0,.4-.409" transform="translate(-210.084 -60.576)" fill="#585a5c"/>
            <path id="Path_180969" data-name="Path 180969" d="M484.718,132.713h-5.779a1.406,1.406,0,0,1,.036.315,1.44,1.44,0,0,1-.025.263H484.7a1.232,1.232,0,0,1-.03-.263,1.2,1.2,0,0,1,.043-.315" transform="translate(-226.134 -60.576)" fill="#585a5c"/>
            <path id="Path_180970" data-name="Path 180970" d="M441.7,132.713h-2.977a1.166,1.166,0,0,1,0,.578H441.7a1.359,1.359,0,0,1,0-.578" transform="translate(-207.148 -60.576)" fill="#585a5c"/>
            <path id="Path_180971" data-name="Path 180971" d="M461.825,141.352H457.51a1.166,1.166,0,0,1,0,.578h4.315a1.151,1.151,0,0,1,0-.578" transform="translate(-216.017 -64.519)" fill="#585a5c"/>
            <path id="Path_180972" data-name="Path 180972" d="M476.671,133.29a1,1,0,0,0,.035-.263,1.022,1.022,0,0,0-.051-.316h-1.179l-.629.647a.987.987,0,0,0,.34.467l.52-.536Z" transform="translate(-224.203 -60.575)" fill="#585a5c"/>
            <path id="Path_180973" data-name="Path 180973" d="M471.713,134.39l-2.962,3.05a1.145,1.145,0,0,1,.414.391l2.9-2.991a1.329,1.329,0,0,1-.357-.45" transform="translate(-221.324 -61.341)" fill="#585a5c"/>
            <path id="Path_180974" data-name="Path 180974" d="M397.834,133.29h.923a1.024,1.024,0,0,0,.035-.263,1,1,0,0,0-.051-.316h-.907Z" transform="translate(-187.84 -60.575)" fill="#585a5c"/>
            <path id="Path_180975" data-name="Path 180975" d="M435.8,144.133l-3.827-2.553a1.337,1.337,0,0,1-.327.471l3.857,2.573a1.16,1.16,0,0,1,.3-.491" transform="translate(-203.806 -64.623)" fill="#585a5c"/>
            <path id="Path_180976" data-name="Path 180976" d="M381.474,136.013l-2.763-3.286a1.158,1.158,0,0,1-.367.446l2.726,3.243a1.142,1.142,0,0,1,.4-.4" transform="translate(-178.638 -60.582)" fill="#585a5c"/>
            <path id="Path_180977" data-name="Path 180977" d="M366.221,131.069h-9.934a1.173,1.173,0,0,1-.012.578h9.891a1.2,1.2,0,0,1-.015-.18,1.183,1.183,0,0,1,.07-.4" transform="translate(-168.218 -59.825)" fill="#585a5c"/>
            <path id="Path_180978" data-name="Path 180978" d="M408.579,140.269H387.386a1.227,1.227,0,0,1,.017.194,1.2,1.2,0,0,1-.064.384h21.282a1.355,1.355,0,0,1-.055-.384,1.387,1.387,0,0,1,.014-.194" transform="translate(-182.885 -64.024)" fill="#585a5c"/>
            <path id="Path_180979" data-name="Path 180979" d="M430.052,140.789l-.779-.52h-1.064a1.023,1.023,0,0,0-.018.194,1.01,1.01,0,0,0,.075.384h.841l.611.407a.983.983,0,0,0,.334-.466" transform="translate(-202.173 -64.024)" fill="#585a5c"/>
            <path id="Path_180980" data-name="Path 180980" d="M344.148,132.428l-4.321,4.365.071.073-.4.409-.075-.077-4.363,4.408a1.124,1.124,0,0,1,.5.307l8.94-9.031a1.152,1.152,0,0,1-.352-.454" transform="translate(-158.202 -60.446)" fill="#585a5c"/>
            <path id="Path_180981" data-name="Path 180981" d="M340.177,136.992l-.071-.073-4.093-4.215a1.16,1.16,0,0,1-.359.448l4.052,4.172.075.077Z" transform="translate(-158.481 -60.571)" fill="#585a5c"/>
            <path id="Path_180982" data-name="Path 180982" d="M347.308,147.376l2.962-3.05a1.145,1.145,0,0,1-.414-.391l-2.9,2.991a1.329,1.329,0,0,1,.357.45" transform="translate(-163.815 -65.698)" fill="#585a5c"/>
            <path id="Path_180983" data-name="Path 180983" d="M356.3,142.816h4.315a1.167,1.167,0,0,1,0-.578H356.3a1.15,1.15,0,0,1,0,.578" transform="translate(-168.232 -64.923)" fill="#585a5c"/>
            <path id="Path_180984" data-name="Path 180984" d="M367.655,144.242l2.905,2.992a1.323,1.323,0,0,1,.4-.409l-2.912-3a1.145,1.145,0,0,1-.391.415" transform="translate(-173.591 -65.648)" fill="#585a5c"/>
            <path id="Path_180985" data-name="Path 180985" d="M403.694,155.236l2.26-2.327a1.147,1.147,0,0,1-.412-.394L403.32,154.8a1.157,1.157,0,0,1,.374.433" transform="translate(-190.43 -69.614)" fill="#585a5c"/>
            <path id="Path_180986" data-name="Path 180986" d="M343.654,150.429a1,1,0,0,0,.016.578h1.179l.629-.647a.988.988,0,0,0-.341-.467l-.52.536Z" transform="translate(-162.242 -68.417)" fill="#585a5c"/>
            <path id="Path_180987" data-name="Path 180987" d="M377.622,151.456H380.6a1.166,1.166,0,0,1,0-.578h-2.977a1.359,1.359,0,0,1,0,.578" transform="translate(-178.297 -68.867)" fill="#585a5c"/>
            <path id="Path_180988" data-name="Path 180988" d="M386.323,152.97l2.146,2.21a1.15,1.15,0,0,1,.407-.4l-2.138-2.2a1.146,1.146,0,0,1-.416.39" transform="translate(-182.405 -69.644)" fill="#585a5c"/>
            <path id="Path_180989" data-name="Path 180989" d="M394.259,158.543h3.066a1.18,1.18,0,0,1-.037-.289,1.193,1.193,0,0,1,.037-.289h-3.066a1.2,1.2,0,0,1,.037.289,1.181,1.181,0,0,1-.037.289" transform="translate(-186.152 -72.102)" fill="#585a5c"/>
            <path id="Path_180990" data-name="Path 180990" d="M411.375,151.456h5.663a1.168,1.168,0,0,1-.013-.578h-5.636a1.168,1.168,0,0,1-.013.578" transform="translate(-194.234 -68.867)" fill="#585a5c"/>
            <path id="Path_180991" data-name="Path 180991" d="M330.158,150.879h-2.491a1.2,1.2,0,0,1,.03.263,1.174,1.174,0,0,1-.043.316h2.517a1.167,1.167,0,0,1-.013-.578" transform="translate(-154.704 -68.867)" fill="#585a5c"/>
            <path id="Path_180992" data-name="Path 180992" d="M336.527,151.456h3.444a1.377,1.377,0,0,1-.037-.315,1.393,1.393,0,0,1,.025-.263H336.54a1.167,1.167,0,0,1-.013.578" transform="translate(-158.894 -68.867)" fill="#585a5c"/>
            <path id="Path_180993" data-name="Path 180993" d="M373.626,150.217l.729.751h1.032a1.012,1.012,0,0,0,0-.578h-.8l-.565-.582a.98.98,0,0,0-.4.409" transform="translate(-176.41 -68.378)" fill="#585a5c"/>
            <path id="Path_180994" data-name="Path 180994" d="M343.018,150.558a1.291,1.291,0,0,0,2.553-.315,1.356,1.356,0,0,0-.137-.6,1.331,1.331,0,0,0-.357-.451,1.264,1.264,0,0,0-.8-.286,1.307,1.307,0,0,0-1.269,1.071,1.368,1.368,0,0,0,.012.578m1.258-1.3a.932.932,0,0,1,.56.188.986.986,0,0,1,.341.466,1,1,0,0,1,.057.332.974.974,0,0,1-.958.987.962.962,0,0,1-.907-.671,1,1,0,0,1-.051-.315,1.023,1.023,0,0,1,.035-.263.965.965,0,0,1,.923-.724" transform="translate(-161.941 -67.968)" fill="#1a2e48"/>
            <path id="Path_180995" data-name="Path 180995" d="M352.7,142.82a1.1,1.1,0,0,0,.529.136,1.132,1.132,0,0,0,1.09-.871,1.164,1.164,0,0,0,0-.578,1.123,1.123,0,0,0-2.216.289,1.178,1.178,0,0,0,.183.633,1.145,1.145,0,0,0,.414.391" transform="translate(-166.249 -64.192)" fill="#f9b131"/>
            <path id="Path_180996" data-name="Path 180996" d="M364.446,142.085a1.133,1.133,0,0,0,1.09.871,1.093,1.093,0,0,0,.586-.171,1.149,1.149,0,0,0,.391-.415,1.178,1.178,0,0,0,.148-.574,1.123,1.123,0,0,0-2.216-.289,1.15,1.15,0,0,0,0,.578" transform="translate(-172.058 -64.192)" fill="#a6a8ab"/>
            <path id="Path_180997" data-name="Path 180997" d="M372.978,149.575a1.349,1.349,0,0,0-.2.715,1.292,1.292,0,0,0,2.558.289,1.359,1.359,0,0,0,0-.578,1.305,1.305,0,0,0-1.264-1.044,1.259,1.259,0,0,0-.695.209,1.316,1.316,0,0,0-.4.409m1.092-.271a.963.963,0,0,1,.916.7,1.011,1.011,0,0,1,0,.578.963.963,0,0,1-.916.7.974.974,0,0,1-.958-.987,1,1,0,0,1,.112-.462.974.974,0,0,1,.4-.409.926.926,0,0,1,.449-.116" transform="translate(-176.008 -67.99)" fill="#1a2e48"/>
            <path id="Path_180998" data-name="Path 180998" d="M383.23,150.725a1.132,1.132,0,0,0,1.089.871,1.1,1.1,0,0,0,.526-.134,1.145,1.145,0,0,0,.415-.39,1.178,1.178,0,0,0,.185-.636,1.123,1.123,0,0,0-2.216-.289,1.15,1.15,0,0,0,0,.578" transform="translate(-180.927 -68.136)" fill="#42e0e6"/>
            <path id="Path_180999" data-name="Path 180999" d="M390.235,156.907a1.179,1.179,0,0,0-.174.617,1.123,1.123,0,0,0,2.216.289,1.166,1.166,0,0,0,0-.578,1.132,1.132,0,0,0-1.09-.871,1.094,1.094,0,0,0-.545.145,1.149,1.149,0,0,0-.407.4" transform="translate(-184.17 -71.371)" fill="#a6a8ab"/>
            <path id="Path_181000" data-name="Path 181000" d="M400.035,157.813a1.122,1.122,0,0,0,2.216-.289,1.177,1.177,0,0,0-.126-.531,1.156,1.156,0,0,0-.374-.433,1.1,1.1,0,0,0-.627-.2,1.133,1.133,0,0,0-1.09.87,1.2,1.2,0,0,0-.037.289,1.181,1.181,0,0,0,.037.289" transform="translate(-188.862 -71.371)" fill="#a6a8ab"/>
            <path id="Path_181001" data-name="Path 181001" d="M407.78,151.409a1.1,1.1,0,0,0,.535.139,1.132,1.132,0,0,0,1.083-.845,1.166,1.166,0,0,0,.013-.578,1.123,1.123,0,0,0-2.223.263,1.182,1.182,0,0,0,.179.627,1.149,1.149,0,0,0,.412.394" transform="translate(-192.257 -68.114)" fill="#a6a8ab"/>
            <path id="Path_181002" data-name="Path 181002" d="M325.691,150.125a1.159,1.159,0,1,0-.013.578,1.168,1.168,0,0,0,.013-.578" transform="translate(-152.728 -68.114)" fill="#a6a8ab"/>
            <path id="Path_181003" data-name="Path 181003" d="M422.064,150.7a1.132,1.132,0,0,0,1.083.845,1.16,1.16,0,1,0-1.1-1.423,1.168,1.168,0,0,0,.013.578" transform="translate(-199.26 -68.114)" fill="#f9b131"/>
            <path id="Path_181004" data-name="Path 181004" d="M476.655,131.858a1.291,1.291,0,0,0-2.553.315,1.356,1.356,0,0,0,.137.6,1.33,1.33,0,0,0,.357.451,1.264,1.264,0,0,0,.8.286,1.307,1.307,0,0,0,1.269-1.07,1.393,1.393,0,0,0,.025-.263,1.377,1.377,0,0,0-.037-.315m-1.258,1.3a.932.932,0,0,1-.56-.188.989.989,0,0,1-.341-.466,1,1,0,0,1-.057-.332.974.974,0,0,1,.958-.987.962.962,0,0,1,.907.671.99.99,0,0,1,.015.578.964.964,0,0,1-.922.723" transform="translate(-223.851 -59.721)" fill="#1a2e48"/>
            <path id="Path_181005" data-name="Path 181005" d="M467.27,139.886a1.092,1.092,0,0,0-.529-.136,1.133,1.133,0,0,0-1.089.871,1.164,1.164,0,0,0,0,.578,1.122,1.122,0,0,0,2.216-.289,1.181,1.181,0,0,0-.183-.633,1.146,1.146,0,0,0-.414-.391" transform="translate(-219.843 -63.788)" fill="#a6a8ab"/>
            <path id="Path_181006" data-name="Path 181006" d="M455.528,140.621a1.133,1.133,0,0,0-1.09-.871,1.093,1.093,0,0,0-.586.171,1.145,1.145,0,0,0-.391.415,1.178,1.178,0,0,0-.148.574,1.123,1.123,0,0,0,2.216.289,1.151,1.151,0,0,0,0-.578" transform="translate(-214.035 -63.788)" fill="#42e0e6"/>
            <path id="Path_181007" data-name="Path 181007" d="M446.694,132.84a1.349,1.349,0,0,0,.2-.715,1.291,1.291,0,0,0-2.558-.289,1.357,1.357,0,0,0,0,.578,1.305,1.305,0,0,0,1.264,1.044,1.259,1.259,0,0,0,.695-.209,1.323,1.323,0,0,0,.4-.409m-1.092.271a.963.963,0,0,1-.916-.7,1.011,1.011,0,0,1,0-.578.963.963,0,0,1,.916-.7.974.974,0,0,1,.958.987,1,1,0,0,1-.112.462.974.974,0,0,1-.4.409.925.925,0,0,1-.449.116" transform="translate(-209.783 -59.698)" fill="#1a2e48"/>
            <path id="Path_181008" data-name="Path 181008" d="M436.744,131.982a1.132,1.132,0,0,0-1.089-.871,1.1,1.1,0,0,0-.526.134,1.144,1.144,0,0,0-.415.39,1.178,1.178,0,0,0-.185.636,1.123,1.123,0,0,0,2.216.289,1.151,1.151,0,0,0,0-.578" transform="translate(-205.166 -59.844)" fill="#a6a8ab"/>
            <path id="Path_181009" data-name="Path 181009" d="M429.739,125.8a1.179,1.179,0,0,0,.174-.617,1.144,1.144,0,0,0-1.126-1.16,1.132,1.132,0,0,0-1.089.871,1.148,1.148,0,0,0,0,.578,1.131,1.131,0,0,0,1.089.871,1.094,1.094,0,0,0,.545-.145,1.15,1.15,0,0,0,.408-.4" transform="translate(-201.923 -56.609)" fill="#a6a8ab"/>
            <path id="Path_181010" data-name="Path 181010" d="M419.939,124.894a1.123,1.123,0,0,0-2.216.289,1.173,1.173,0,0,0,.126.531,1.153,1.153,0,0,0,.374.433,1.1,1.1,0,0,0,.627.2,1.133,1.133,0,0,0,1.09-.871,1.15,1.15,0,0,0,0-.578" transform="translate(-197.231 -56.609)" fill="#42e0e6"/>
            <path id="Path_181011" data-name="Path 181011" d="M412.194,131.3a1.1,1.1,0,0,0-.535-.139,1.132,1.132,0,0,0-1.083.845,1.168,1.168,0,0,0-.013.578,1.123,1.123,0,0,0,2.223-.263,1.177,1.177,0,0,0-.179-.627,1.149,1.149,0,0,0-.412-.394" transform="translate(-193.836 -59.866)" fill="#a6a8ab"/>
            <path id="Path_181012" data-name="Path 181012" d="M490.932,131.159a1.131,1.131,0,0,0-1.083.845,1.188,1.188,0,0,0-.043.315,1.225,1.225,0,0,0,.03.263,1.131,1.131,0,1,0,1.1-1.422" transform="translate(-231.265 -59.866)" fill="#a6a8ab"/>
            <path id="Path_181013" data-name="Path 181013" d="M397.934,131.858a1.334,1.334,0,1,0,.012.578,1.4,1.4,0,0,0,.025-.263,1.347,1.347,0,0,0-.037-.315m-1.258,1.3a.987.987,0,0,1,0-1.973.962.962,0,0,1,.907.671,1,1,0,0,1,.051.315,1.029,1.029,0,0,1-.035.263.965.965,0,0,1-.923.723" transform="translate(-186.682 -59.721)" fill="#1a2e48"/>
            <path id="Path_181014" data-name="Path 181014" d="M333.778,149.274a1.086,1.086,0,0,0-.31-.046,1.133,1.133,0,0,0-1.1.9,1.166,1.166,0,0,0,.013.578,1.117,1.117,0,0,0,2.166,0,1.165,1.165,0,0,0,.013-.578,1.171,1.171,0,0,0-.288-.545,1.12,1.12,0,0,0-.5-.307" transform="translate(-156.917 -68.114)" fill="#42e0e6"/>
            <path id="Path_181015" data-name="Path 181015" d="M354.311,130.319a1.123,1.123,0,0,0-2.222.266,1.181,1.181,0,0,0,.1.472,1.151,1.151,0,0,0,.352.454,1.1,1.1,0,0,0,.676.234,1.132,1.132,0,0,0,1.084-.848,1.165,1.165,0,0,0,.011-.578" transform="translate(-166.241 -59.075)" fill="#a6a8ab"/>
            <path id="Path_181016" data-name="Path 181016" d="M377.125,131.331a1.183,1.183,0,0,0,.112-.5,1.143,1.143,0,0,0-1.126-1.16,1.128,1.128,0,0,0-1.057.762,1.138,1.138,0,0,0-.054.578,1.136,1.136,0,0,0,1.111.98,1.1,1.1,0,0,0,.647-.211,1.154,1.154,0,0,0,.367-.446" transform="translate(-177.052 -59.186)" fill="#a6a8ab"/>
            <path id="Path_181017" data-name="Path 181017" d="M385.429,139.458a1.136,1.136,0,0,0-1.11-.966,1.1,1.1,0,0,0-.556.152,1.141,1.141,0,0,0-.4.4,1.18,1.18,0,0,0-.167.6,1.144,1.144,0,0,0,1.126,1.16,1.128,1.128,0,0,0,1.062-.776,1.186,1.186,0,0,0,.064-.384,1.169,1.169,0,0,0-.017-.194" transform="translate(-180.927 -63.213)" fill="#a6a8ab"/>
            <path id="Path_181018" data-name="Path 181018" d="M430.041,140.025a1.362,1.362,0,0,0,.1-.519,1.293,1.293,0,0,0-2.576-.194,1.382,1.382,0,0,0-.014.194,1.35,1.35,0,0,0,.055.384,1.3,1.3,0,0,0,1.24.95,1.268,1.268,0,0,0,.867-.344,1.343,1.343,0,0,0,.326-.471m-1.193.468a.96.96,0,0,1-.883-.6,1.007,1.007,0,0,1-.076-.384,1.022,1.022,0,0,1,.019-.194.956.956,0,0,1,1.9.194,1.007,1.007,0,0,1-.055.326.989.989,0,0,1-.334.466.932.932,0,0,1-.57.2" transform="translate(-201.872 -63.068)" fill="#1a2e48"/>
            <path id="Path_181019" data-name="Path 181019" d="M439.985,145.683a1.1,1.1,0,0,0-.779.323,1.16,1.16,0,0,0-.3.491,1.188,1.188,0,0,0-.051.346,1.127,1.127,0,1,0,1.126-1.16" transform="translate(-207.21 -66.496)" fill="#a6a8ab"/>
            <path id="Path_181020" data-name="Path 181020" d="M334.413,131.318a1.183,1.183,0,0,0,.107-.49,1.127,1.127,0,1,0-1.126,1.16,1.1,1.1,0,0,0,.661-.222,1.159,1.159,0,0,0,.359-.448" transform="translate(-156.882 -59.186)" fill="#f9b131"/>
            <path id="Path_181021" data-name="Path 181021" d="M418.09,183.237a2.036,2.036,0,1,0,1.976,2.035,2.006,2.006,0,0,0-1.976-2.035" transform="translate(-196.471 -83.637)" fill="#e6e6e6"/>
            <g id="Group_117847" data-name="Group 117847" transform="translate(219.642 99.6)" opacity="0.5" style="mix-blend-mode: multiply;isolation: isolate">
              <g id="Group_117846" data-name="Group 117846">
                <g id="Group_117845" data-name="Group 117845" clip-path="url(#clip-path-3)">
                  <g id="Group_117844" data-name="Group 117844" transform="translate(0 0.001)">
                    <g id="Group_117843" data-name="Group 117843" clip-path="url(#clip-path-4)">
                      <path id="Path_181022" data-name="Path 181022" d="M418.09,187.307a2.036,2.036,0,0,1,0-4.07Z" transform="translate(-416.113 -183.238)" fill="#e6e6e6"/>
                    </g>
                  </g>
                </g>
              </g>
            </g>
            <path id="Path_181023" data-name="Path 181023" d="M177.7,214.292a2.036,2.036,0,1,0,1.976,2.035,2.006,2.006,0,0,0-1.976-2.035" transform="translate(-82.969 -97.812)" fill="#e6e6e6"/>
            <g id="Group_117852" data-name="Group 117852" transform="translate(92.754 116.48)" opacity="0.5" style="mix-blend-mode: multiply;isolation: isolate">
              <g id="Group_117851" data-name="Group 117851">
                <g id="Group_117850" data-name="Group 117850" clip-path="url(#clip-path-4)">
                  <g id="Group_117849" data-name="Group 117849" transform="translate(0 0)">
                    <g id="Group_117848" data-name="Group 117848" clip-path="url(#clip-path-4)">
                      <path id="Path_181024" data-name="Path 181024" d="M177.7,218.362a2.036,2.036,0,0,1,0-4.07Z" transform="translate(-175.723 -214.292)" fill="#e6e6e6"/>
                    </g>
                  </g>
                </g>
              </g>
            </g>
            <path id="Path_181025" data-name="Path 181025" d="M24.265,178.059a2.036,2.036,0,1,0,1.976,2.035,2.006,2.006,0,0,0-1.976-2.035" transform="translate(-10.524 -81.273)" fill="#e6e6e6"/>
            <g id="Group_117857" data-name="Group 117857" transform="translate(11.765 96.785)" opacity="0.5" style="mix-blend-mode: multiply;isolation: isolate">
              <g id="Group_117856" data-name="Group 117856">
                <g id="Group_117855" data-name="Group 117855" clip-path="url(#clip-path-4)">
                  <g id="Group_117854" data-name="Group 117854" transform="translate(0 0.001)">
                    <g id="Group_117853" data-name="Group 117853" clip-path="url(#clip-path-4)">
                      <path id="Path_181026" data-name="Path 181026" d="M24.265,182.128a2.036,2.036,0,0,1,0-4.07Z" transform="translate(-22.288 -178.059)" fill="#e6e6e6"/>
                    </g>
                  </g>
                </g>
              </g>
            </g>
            <path id="Path_181027" data-name="Path 181027" d="M59.309,14.412a2.036,2.036,0,1,0,1.976,2.035,2.006,2.006,0,0,0-1.976-2.035" transform="translate(-27.07 -6.578)" fill="#e6e6e6"/>
            <g id="Group_117862" data-name="Group 117862" transform="translate(30.262 7.834)" opacity="0.5" style="mix-blend-mode: multiply;isolation: isolate">
              <g id="Group_117861" data-name="Group 117861">
                <g id="Group_117860" data-name="Group 117860" clip-path="url(#clip-path-4)">
                  <g id="Group_117859" data-name="Group 117859" transform="translate(0 0.001)">
                    <g id="Group_117858" data-name="Group 117858" clip-path="url(#clip-path-4)">
                      <path id="Path_181028" data-name="Path 181028" d="M59.309,18.482a2.036,2.036,0,0,1,0-4.07Z" transform="translate(-57.332 -14.413)" fill="#e6e6e6"/>
                    </g>
                  </g>
                </g>
              </g>
            </g>
            <path id="Path_181029" data-name="Path 181029" d="M482.04,216.726a5.26,5.26,0,1,0,5.106,5.258,5.184,5.184,0,0,0-5.106-5.258" transform="translate(-225.188 -98.923)" fill="#e8feff"/>
            <g id="Group_117867" data-name="Group 117867" transform="translate(251.746 117.803)" opacity="0.5" style="mix-blend-mode: multiply;isolation: isolate">
              <g id="Group_117866" data-name="Group 117866">
                <g id="Group_117865" data-name="Group 117865" clip-path="url(#clip-path-11)">
                  <g id="Group_117864" data-name="Group 117864" transform="translate(0 0)">
                    <g id="Group_117863" data-name="Group 117863" clip-path="url(#clip-path-11)">
                      <path id="Path_181030" data-name="Path 181030" d="M482.04,227.242a5.26,5.26,0,0,1,0-10.516Z" transform="translate(-476.934 -216.726)" fill="#c4fdff"/>
                    </g>
                  </g>
                </g>
              </g>
            </g>
            <path id="Path_181031" data-name="Path 181031" d="M305.294,55.1a6.338,6.338,0,1,0,6.153,6.336,6.246,6.246,0,0,0-6.153-6.336" transform="translate(-141.242 -25.15)" fill="#e6e6e6"/>
            <g id="Group_117872" data-name="Group 117872" transform="translate(157.899 29.95)" opacity="0.5" style="mix-blend-mode: multiply;isolation: isolate">
              <g id="Group_117871" data-name="Group 117871">
                <g id="Group_117870" data-name="Group 117870" clip-path="url(#clip-path-13)">
                  <g id="Group_117869" data-name="Group 117869">
                    <g id="Group_117868" data-name="Group 117868" clip-path="url(#clip-path-13)">
                      <path id="Path_181032" data-name="Path 181032" d="M305.294,67.771a6.338,6.338,0,0,1,0-12.671Z" transform="translate(-299.14 -55.1)" fill="#e6e6e6"/>
                    </g>
                  </g>
                </g>
              </g>
            </g>
            <path id="Path_181033" data-name="Path 181033" d="M67.258,276.75a4.1,4.1,0,1,0,3.976,4.094,4.037,4.037,0,0,0-3.976-4.094" transform="translate(-29.879 -126.32)" fill="#e6e6e6"/>
            <g id="Group_117877" data-name="Group 117877" transform="translate(33.403 150.43)" opacity="0.5" style="mix-blend-mode: multiply;isolation: isolate">
              <g id="Group_117876" data-name="Group 117876">
                <g id="Group_117875" data-name="Group 117875" clip-path="url(#clip-path-15)">
                  <g id="Group_117874" data-name="Group 117874" transform="translate(0 0)">
                    <g id="Group_117873" data-name="Group 117873" clip-path="url(#clip-path-15)">
                      <path id="Path_181034" data-name="Path 181034" d="M67.258,284.939a4.1,4.1,0,0,1,0-8.189Z" transform="translate(-63.282 -276.75)" fill="#e6e6e6"/>
                    </g>
                  </g>
                </g>
              </g>
            </g>
          </g>
        </g>
      </g>
    </g>
  </g>
</svg>
