<svg xmlns="http://www.w3.org/2000/svg" xmlns:xlink="http://www.w3.org/1999/xlink" width="295" height="280" viewBox="0 0 295 280">
  <defs>
    <clipPath id="clip-path">
      <rect id="Rectangle_37794" data-name="Rectangle 37794" width="263.928" height="178.588" fill="none"/>
    </clipPath>
  </defs>
  <g id="t5-c3" transform="translate(-6241 8188)">
    <path id="Rectangle_38451" data-name="Rectangle 38451" d="M20,3A17,17,0,0,0,3,20V260a17,17,0,0,0,17,17H275a17,17,0,0,0,17-17V20A17,17,0,0,0,275,3H20m0-3H275a20,20,0,0,1,20,20V260a20,20,0,0,1-20,20H20A20,20,0,0,1,0,260V20A20,20,0,0,1,20,0Z" transform="translate(6241 -8188)" fill="#f9b131"/>
    <path id="Rectangle_38452" data-name="Rectangle 38452" d="M0,0H295a0,0,0,0,1,0,0V52a20,20,0,0,1-20,20H20A20,20,0,0,1,0,52V0A0,0,0,0,1,0,0Z" transform="translate(6241 -7980)" fill="#f9b131"/>
    <path id="Path_184780" data-name="Path 184780" d="M42.642,11.568H37.791v3.059h5.73V17H34.706V4.2h8.833V6.585H37.791v2.7h4.852Zm6.979,2.76a.684.684,0,0,0-.4-.606,6.016,6.016,0,0,0-1.5-.475,6.853,6.853,0,0,1-1.828-.646,3.062,3.062,0,0,1-1.1-.971,2.319,2.319,0,0,1-.378-1.31A2.628,2.628,0,0,1,45.5,8.163a4.453,4.453,0,0,1,2.83-.848,4.934,4.934,0,0,1,3.023.853,2.666,2.666,0,0,1,1.143,2.241H49.524q0-1.143-1.2-1.143a1.194,1.194,0,0,0-.782.259.8.8,0,0,0-.316.646.737.737,0,0,0,.387.642,3.654,3.654,0,0,0,1.235.4,10.671,10.671,0,0,1,1.49.378,2.706,2.706,0,0,1,2.145,2.646,2.491,2.491,0,0,1-1.156,2.118,5.068,5.068,0,0,1-2.993.817,5.172,5.172,0,0,1-2.18-.439,3.645,3.645,0,0,1-1.494-1.2,2.707,2.707,0,0,1-.536-1.591h2.769a1.145,1.145,0,0,0,.439.962,1.808,1.808,0,0,0,1.081.3,1.422,1.422,0,0,0,.91-.246A.787.787,0,0,0,49.621,14.328Zm7.69-9.2V7.49h1.564V9.547H57.311V13.9a1.111,1.111,0,0,0,.193.747,1.037,1.037,0,0,0,.765.211,4.345,4.345,0,0,0,.738-.053v2.118a5.466,5.466,0,0,1-1.67.255,3.1,3.1,0,0,1-2.259-.721,2.954,2.954,0,0,1-.729-2.188V9.547H53.136V7.49h1.213V5.126Zm8.481,5.045-.976-.07a1.752,1.752,0,0,0-1.793.879V17H60.062V7.49h2.777l.1,1.222a2.294,2.294,0,0,1,2.083-1.4,2.888,2.888,0,0,1,.826.105Zm6.732,5.8a3.054,3.054,0,0,1-2.54,1.2,3,3,0,0,1-2.369-.91,3.826,3.826,0,0,1-.8-2.615V7.49h2.962v6.179a1.065,1.065,0,0,0,1.187,1.222,1.548,1.548,0,0,0,1.45-.729V7.49H75.39V17H72.613Zm8.508-1.081A1.317,1.317,0,0,0,82,14.552a1.241,1.241,0,0,0,.334-.945h2.777a3.288,3.288,0,0,1-1.121,2.566,4.168,4.168,0,0,1-2.887,1,4.22,4.22,0,0,1-3.27-1.3,5.125,5.125,0,0,1-1.2-3.6v-.123A5.792,5.792,0,0,1,77.17,9.6a3.872,3.872,0,0,1,1.534-1.7,4.573,4.573,0,0,1,2.373-.593,4.116,4.116,0,0,1,2.944,1.028,3.647,3.647,0,0,1,1.09,2.786H82.333A1.626,1.626,0,0,0,81.973,10a1.244,1.244,0,0,0-.967-.4q-1.151,0-1.345,1.468a10.357,10.357,0,0,0-.062,1.283,4.068,4.068,0,0,0,.343,1.986A1.187,1.187,0,0,0,81.033,14.891Zm8.78-9.765V7.49h1.564V9.547H89.813V13.9a1.111,1.111,0,0,0,.193.747,1.037,1.037,0,0,0,.765.211,4.345,4.345,0,0,0,.738-.053v2.118a5.466,5.466,0,0,1-1.67.255,3.1,3.1,0,0,1-2.259-.721,2.954,2.954,0,0,1-.729-2.188V9.547H85.638V7.49h1.213V5.126Zm8.394,10.846a3.054,3.054,0,0,1-2.54,1.2,3,3,0,0,1-2.369-.91,3.826,3.826,0,0,1-.8-2.615V7.49h2.962v6.179a1.065,1.065,0,0,0,1.187,1.222,1.548,1.548,0,0,0,1.45-.729V7.49h2.979V17H98.294Zm10.239-5.8-.976-.07a1.752,1.752,0,0,0-1.793.879V17h-2.962V7.49h2.777l.1,1.222a2.294,2.294,0,0,1,2.083-1.4,2.888,2.888,0,0,1,.826.105ZM114.607,17a3.344,3.344,0,0,1-.281-.853,2.754,2.754,0,0,1-2.285,1.028,3.374,3.374,0,0,1-2.285-.813,2.588,2.588,0,0,1-.94-2.043,2.66,2.66,0,0,1,1.143-2.338,5.821,5.821,0,0,1,3.322-.791h.914v-.5q0-1.316-1.134-1.316a.927.927,0,0,0-1.055,1.042h-2.962a2.655,2.655,0,0,1,1.173-2.239,4.931,4.931,0,0,1,2.993-.86,4.323,4.323,0,0,1,2.874.888,3.086,3.086,0,0,1,1.081,2.435v4.21a4.311,4.311,0,0,0,.4,2V17Zm-1.854-1.934a1.652,1.652,0,0,0,.918-.237,1.487,1.487,0,0,0,.523-.536V12.772h-.861q-1.547,0-1.547,1.389a.848.848,0,0,0,.272.655A.986.986,0,0,0,112.752,15.066Zm11.8-4.9-.976-.07a1.752,1.752,0,0,0-1.793.879V17h-2.962V7.49H121.6l.1,1.222a2.294,2.294,0,0,1,2.083-1.4,2.888,2.888,0,0,1,.826.105Zm9.571,4.72a1.317,1.317,0,0,0,.967-.338,1.241,1.241,0,0,0,.334-.945h2.777a3.288,3.288,0,0,1-1.121,2.566,4.168,4.168,0,0,1-2.887,1,4.22,4.22,0,0,1-3.27-1.3,5.125,5.125,0,0,1-1.2-3.6v-.123a5.792,5.792,0,0,1,.532-2.544,3.872,3.872,0,0,1,1.534-1.7,4.573,4.573,0,0,1,2.373-.593,4.116,4.116,0,0,1,2.944,1.028,3.647,3.647,0,0,1,1.09,2.786h-2.777a1.626,1.626,0,0,0-.36-1.134,1.244,1.244,0,0,0-.967-.4q-1.151,0-1.345,1.468a10.357,10.357,0,0,0-.062,1.283,4.068,4.068,0,0,0,.343,1.986A1.187,1.187,0,0,0,134.127,14.891ZM144.815,17a3.344,3.344,0,0,1-.281-.853,2.754,2.754,0,0,1-2.285,1.028,3.374,3.374,0,0,1-2.285-.813,2.588,2.588,0,0,1-.94-2.043,2.66,2.66,0,0,1,1.143-2.338,5.821,5.821,0,0,1,3.322-.791h.914v-.5q0-1.316-1.134-1.316a.927.927,0,0,0-1.055,1.042h-2.962a2.655,2.655,0,0,1,1.173-2.239,4.931,4.931,0,0,1,2.993-.86,4.323,4.323,0,0,1,2.874.888,3.086,3.086,0,0,1,1.081,2.435v4.21a4.311,4.311,0,0,0,.4,2V17Zm-1.854-1.934a1.652,1.652,0,0,0,.918-.237,1.487,1.487,0,0,0,.523-.536V12.772h-.861q-1.547,0-1.547,1.389a.848.848,0,0,0,.272.655A.986.986,0,0,0,142.96,15.066Zm8.771-7.576.1,1.116a3.225,3.225,0,0,1,2.716-1.292,2.713,2.713,0,0,1,2.219.888,4.226,4.226,0,0,1,.76,2.672V17h-2.971V11a1.6,1.6,0,0,0-.29-1.059,1.342,1.342,0,0,0-1.055-.338,1.413,1.413,0,0,0-1.292.686V17h-2.962V7.49ZM164.52,17a3.344,3.344,0,0,1-.281-.853,2.754,2.754,0,0,1-2.285,1.028,3.374,3.374,0,0,1-2.285-.813,2.588,2.588,0,0,1-.94-2.043,2.66,2.66,0,0,1,1.143-2.338,5.821,5.821,0,0,1,3.322-.791h.914v-.5q0-1.316-1.134-1.316a.927.927,0,0,0-1.055,1.042h-2.962a2.655,2.655,0,0,1,1.173-2.239,4.931,4.931,0,0,1,2.993-.86A4.323,4.323,0,0,1,166,8.2a3.086,3.086,0,0,1,1.081,2.435v4.21a4.311,4.311,0,0,0,.4,2V17Zm-1.854-1.934a1.652,1.652,0,0,0,.918-.237,1.487,1.487,0,0,0,.523-.536V12.772h-.861q-1.547,0-1.547,1.389a.848.848,0,0,0,.272.655A.986.986,0,0,0,162.666,15.066ZM171.841,17h-2.971V3.5h2.971Zm6.425.176a4.889,4.889,0,0,1-3.542-1.305,4.507,4.507,0,0,1-1.354-3.4v-.246a5.84,5.84,0,0,1,.541-2.575,3.955,3.955,0,0,1,1.578-1.727,4.763,4.763,0,0,1,2.461-.611,4.117,4.117,0,0,1,3.164,1.244,4.887,4.887,0,0,1,1.16,3.467v1.151h-5.889a2.135,2.135,0,0,0,.694,1.257,2.066,2.066,0,0,0,1.389.457,2.662,2.662,0,0,0,2.2-.984l1.354,1.6a3.784,3.784,0,0,1-1.569,1.217A5.3,5.3,0,0,1,178.266,17.176ZM177.932,9.6q-1.3,0-1.547,1.723h2.988v-.229a1.467,1.467,0,0,0-.36-1.1A1.434,1.434,0,0,0,177.932,9.6Zm10.512,4.729a.684.684,0,0,0-.4-.606,6.016,6.016,0,0,0-1.5-.475,6.853,6.853,0,0,1-1.828-.646,3.062,3.062,0,0,1-1.1-.971,2.319,2.319,0,0,1-.378-1.31,2.628,2.628,0,0,1,1.081-2.158,4.453,4.453,0,0,1,2.83-.848,4.934,4.934,0,0,1,3.023.853,2.666,2.666,0,0,1,1.143,2.241h-2.971q0-1.143-1.2-1.143a1.194,1.194,0,0,0-.782.259.8.8,0,0,0-.316.646.737.737,0,0,0,.387.642,3.654,3.654,0,0,0,1.235.4,10.671,10.671,0,0,1,1.49.378A2.706,2.706,0,0,1,191.3,14.24a2.491,2.491,0,0,1-1.156,2.118,5.068,5.068,0,0,1-2.993.817,5.172,5.172,0,0,1-2.18-.439,3.645,3.645,0,0,1-1.494-1.2,2.707,2.707,0,0,1-.536-1.591h2.769a1.145,1.145,0,0,0,.439.962,1.808,1.808,0,0,0,1.081.3,1.422,1.422,0,0,0,.91-.246A.787.787,0,0,0,188.444,14.328Zm8.35-2.153a5.809,5.809,0,0,1,.976-3.56,3.211,3.211,0,0,1,2.725-1.3,2.731,2.731,0,0,1,2.145,1V3.5h2.971V17h-2.663l-.149-1.02a2.8,2.8,0,0,1-2.32,1.2,3.205,3.205,0,0,1-2.689-1.3A5.993,5.993,0,0,1,196.793,12.175Zm2.962.185q0,2.531,1.477,2.531a1.458,1.458,0,0,0,1.406-.826V10.443A1.419,1.419,0,0,0,201.25,9.6q-1.371,0-1.485,2.215Zm12.138,4.816a4.889,4.889,0,0,1-3.542-1.305,4.507,4.507,0,0,1-1.354-3.4v-.246a5.84,5.84,0,0,1,.541-2.575,3.955,3.955,0,0,1,1.578-1.727,4.763,4.763,0,0,1,2.461-.611,4.117,4.117,0,0,1,3.164,1.244,4.887,4.887,0,0,1,1.16,3.467v1.151h-5.889a2.135,2.135,0,0,0,.694,1.257,2.066,2.066,0,0,0,1.389.457,2.662,2.662,0,0,0,2.2-.984l1.354,1.6a3.784,3.784,0,0,1-1.569,1.217A5.3,5.3,0,0,1,211.893,17.176ZM211.559,9.6q-1.3,0-1.547,1.723H213v-.229a1.467,1.467,0,0,0-.36-1.1A1.434,1.434,0,0,0,211.559,9.6ZM45.336,37.175a5.809,5.809,0,0,1,.976-3.56,3.211,3.211,0,0,1,2.725-1.3,2.731,2.731,0,0,1,2.145,1V28.5h2.971V42H51.488l-.149-1.02a2.8,2.8,0,0,1-2.32,1.2,3.205,3.205,0,0,1-2.689-1.3A5.993,5.993,0,0,1,45.336,37.175Zm2.962.185q0,2.531,1.477,2.531a1.458,1.458,0,0,0,1.406-.826V35.443a1.419,1.419,0,0,0-1.389-.844q-1.371,0-1.485,2.215ZM58.959,42H55.988V32.49h2.971ZM55.813,30.029a1.334,1.334,0,0,1,.457-1.043,1.934,1.934,0,0,1,2.373,0,1.42,1.42,0,0,1,0,2.087,1.934,1.934,0,0,1-2.373,0A1.334,1.334,0,0,1,55.813,30.029Zm9.949,9.3a.684.684,0,0,0-.4-.606,6.016,6.016,0,0,0-1.5-.475,6.853,6.853,0,0,1-1.828-.646,3.062,3.062,0,0,1-1.1-.971,2.319,2.319,0,0,1-.378-1.31,2.628,2.628,0,0,1,1.081-2.158,4.453,4.453,0,0,1,2.83-.848,4.934,4.934,0,0,1,3.023.853,2.666,2.666,0,0,1,1.143,2.241H65.665q0-1.143-1.2-1.143a1.194,1.194,0,0,0-.782.259.8.8,0,0,0-.316.646.737.737,0,0,0,.387.642,3.654,3.654,0,0,0,1.235.4,10.671,10.671,0,0,1,1.49.378,2.706,2.706,0,0,1,2.145,2.646,2.491,2.491,0,0,1-1.156,2.118,5.068,5.068,0,0,1-2.993.817,5.172,5.172,0,0,1-2.18-.439,3.645,3.645,0,0,1-1.494-1.2,2.707,2.707,0,0,1-.536-1.591h2.769a1.145,1.145,0,0,0,.439.962,1.808,1.808,0,0,0,1.081.3,1.422,1.422,0,0,0,.91-.246A.787.787,0,0,0,65.762,39.328Zm7.69-9.2V32.49h1.564v2.057H73.452V38.9a1.111,1.111,0,0,0,.193.747,1.037,1.037,0,0,0,.765.211,4.345,4.345,0,0,0,.738-.053v2.118a5.466,5.466,0,0,1-1.67.255,3.1,3.1,0,0,1-2.259-.721,2.954,2.954,0,0,1-.729-2.188v-4.72H69.277V32.49H70.49V30.126Zm8.481,5.045-.976-.07a1.752,1.752,0,0,0-1.793.879V42H76.2V32.49H78.98l.1,1.222a2.294,2.294,0,0,1,2.083-1.4,2.888,2.888,0,0,1,.826.105ZM86.126,42H83.155V32.49h2.971ZM82.979,30.029a1.334,1.334,0,0,1,.457-1.043,1.934,1.934,0,0,1,2.373,0,1.42,1.42,0,0,1,0,2.087,1.934,1.934,0,0,1-2.373,0A1.334,1.334,0,0,1,82.979,30.029Zm13.8,7.295a5.8,5.8,0,0,1-.967,3.595,3.238,3.238,0,0,1-2.725,1.257,2.81,2.81,0,0,1-2.338-1.151L90.626,42H87.972V28.5h2.962v4.755a2.711,2.711,0,0,1,2.136-.94,3.239,3.239,0,0,1,2.742,1.274,5.826,5.826,0,0,1,.967,3.586Zm-2.971-.189a3.866,3.866,0,0,0-.365-1.952,1.229,1.229,0,0,0-1.121-.584,1.418,1.418,0,0,0-1.389.763v3.773a1.426,1.426,0,0,0,1.406.755,1.258,1.258,0,0,0,1.327-1.018A7.309,7.309,0,0,0,93.808,37.135Zm9.94,3.836a3.054,3.054,0,0,1-2.54,1.2,3,3,0,0,1-2.369-.91,3.826,3.826,0,0,1-.8-2.615V32.49H101v6.179a1.065,1.065,0,0,0,1.187,1.222,1.548,1.548,0,0,0,1.45-.729V32.49h2.979V42h-2.777Zm8.508-1.081a1.317,1.317,0,0,0,.967-.338,1.241,1.241,0,0,0,.334-.945h2.777a3.288,3.288,0,0,1-1.121,2.566,4.168,4.168,0,0,1-2.887,1,4.22,4.22,0,0,1-3.27-1.3,5.125,5.125,0,0,1-1.2-3.6v-.123a5.792,5.792,0,0,1,.532-2.544,3.872,3.872,0,0,1,1.534-1.7,4.573,4.573,0,0,1,2.373-.593,4.116,4.116,0,0,1,2.944,1.028,3.647,3.647,0,0,1,1.09,2.786h-2.777A1.626,1.626,0,0,0,113.2,35a1.244,1.244,0,0,0-.967-.4q-1.151,0-1.345,1.468a10.357,10.357,0,0,0-.062,1.283,4.068,4.068,0,0,0,.343,1.986A1.187,1.187,0,0,0,112.256,39.891ZM120.711,42H117.74V32.49h2.971Zm-3.146-11.971a1.334,1.334,0,0,1,.457-1.043,1.934,1.934,0,0,1,2.373,0,1.42,1.42,0,0,1,0,2.087,1.934,1.934,0,0,1-2.373,0A1.334,1.334,0,0,1,117.564,30.029Zm4.6,7.128a5.613,5.613,0,0,1,.554-2.536,3.96,3.96,0,0,1,1.591-1.709,4.791,4.791,0,0,1,2.435-.6,4.373,4.373,0,0,1,3.366,1.323,5.076,5.076,0,0,1,1.23,3.6v.105a4.925,4.925,0,0,1-1.235,3.529,4.384,4.384,0,0,1-3.344,1.305,4.434,4.434,0,0,1-3.261-1.217,4.761,4.761,0,0,1-1.327-3.3Zm2.962.185a3.538,3.538,0,0,0,.413,1.934,1.376,1.376,0,0,0,1.222.615q1.582,0,1.617-2.435v-.3q0-2.558-1.635-2.558-1.485,0-1.608,2.206Zm2.021-8.842h3.129l-2.443,2.76-2.417,0Zm8.218,3.99.1,1.116a3.225,3.225,0,0,1,2.716-1.292,2.713,2.713,0,0,1,2.219.888,4.226,4.226,0,0,1,.76,2.672V42h-2.971V36a1.6,1.6,0,0,0-.29-1.059,1.342,1.342,0,0,0-1.055-.338,1.413,1.413,0,0,0-1.292.686V42h-2.962V32.49Zm15.715,5.361,1.582-5.361h3.173l-3.876,11.1-.167.4a2.944,2.944,0,0,1-2.918,1.846,4.642,4.642,0,0,1-1.222-.175v-2.11h.387a2.026,2.026,0,0,0,.954-.18,1.094,1.094,0,0,0,.488-.647l.237-.633-3.3-9.605h3.164Zm13.8.624,1.5-5.985h3.12L166.4,42h-3.023l-3.1-9.51H163.4Zm9.993,3.7a4.889,4.889,0,0,1-3.542-1.305,4.507,4.507,0,0,1-1.354-3.4v-.246a5.84,5.84,0,0,1,.541-2.575,3.955,3.955,0,0,1,1.578-1.727,4.763,4.763,0,0,1,2.461-.611,4.117,4.117,0,0,1,3.164,1.244,4.887,4.887,0,0,1,1.16,3.467v1.151h-5.889a2.135,2.135,0,0,0,.694,1.257,2.066,2.066,0,0,0,1.389.457,2.662,2.662,0,0,0,2.2-.984l1.354,1.6a3.784,3.784,0,0,1-1.569,1.217A5.3,5.3,0,0,1,174.869,42.176Zm-.334-7.576q-1.3,0-1.547,1.723h2.988v-.229a1.467,1.467,0,0,0-.36-1.1A1.434,1.434,0,0,0,174.535,34.6Zm8.253-2.109.1,1.116a3.225,3.225,0,0,1,2.716-1.292,2.713,2.713,0,0,1,2.219.888,4.226,4.226,0,0,1,.76,2.672V42h-2.971V36a1.6,1.6,0,0,0-.29-1.059,1.342,1.342,0,0,0-1.055-.338,1.413,1.413,0,0,0-1.292.686V42h-2.962V32.49Zm10.881-2.364V32.49h1.564v2.057h-1.564V38.9a1.111,1.111,0,0,0,.193.747,1.037,1.037,0,0,0,.765.211,4.345,4.345,0,0,0,.738-.053v2.118a5.466,5.466,0,0,1-1.67.255,3.1,3.1,0,0,1-2.259-.721,2.954,2.954,0,0,1-.729-2.188v-4.72h-1.213V32.49h1.213V30.126ZM201.755,42a3.344,3.344,0,0,1-.281-.853,2.754,2.754,0,0,1-2.285,1.028,3.374,3.374,0,0,1-2.285-.813,2.588,2.588,0,0,1-.94-2.043,2.66,2.66,0,0,1,1.143-2.338,5.821,5.821,0,0,1,3.322-.791h.914v-.5q0-1.316-1.134-1.316a.927.927,0,0,0-1.055,1.042h-2.962a2.655,2.655,0,0,1,1.173-2.239,4.931,4.931,0,0,1,2.993-.86,4.323,4.323,0,0,1,2.874.888,3.086,3.086,0,0,1,1.081,2.435v4.21a4.311,4.311,0,0,0,.4,2V42ZM199.9,40.066a1.652,1.652,0,0,0,.918-.237,1.487,1.487,0,0,0,.523-.536V37.772h-.861q-1.547,0-1.547,1.389a.848.848,0,0,0,.272.655A.986.986,0,0,0,199.9,40.066Z" transform="translate(6264 -7967)" fill="#12263f"/>
    <g id="Group_118357" data-name="Group 118357" transform="translate(6257 -8174)">
      <g id="Group_117841" data-name="Group 117841" clip-path="url(#clip-path)">
        <path id="Path_180720" data-name="Path 180720" d="M24.806,176.582s-38-48.36-11.355-93.472C23.394,66.278,48.78,56.825,72.115,64.494,85.9,69.024,106.8,68.355,127.229,28.43c27.854-54.448,143.484-29.69,120.914,65.7-9.507,40.183,25.928,42.012,8.376,82.534Z" transform="translate(-1.968 0)" fill="#e8feff"/>
        <path id="Path_180721" data-name="Path 180721" d="M241.865,135.2l-89.153,84.359-46.895-45.182c-8.779,8.744-22.338,22.24-35.979,35.784C60.517,219.42,52.97,226.9,46.853,232.951l-42.6-.049c11.814-11.377,59.385-58.658,91.432-90.61l9.8-9.77L152.891,178.2l69.6-65.856Z" transform="translate(-2.108 -55.665)" fill="#c4fdff"/>
        <path id="Path_180722" data-name="Path 180722" d="M414.466,85.04,456.914,133.2l12-55.022Z" transform="translate(-205.368 -38.736)" fill="#c4fdff"/>
        <path id="Path_180723" data-name="Path 180723" d="M115.76,273.8a89.02,89.02,0,0,0-1.029-10.922c-.738-4.265-1.4-6.718-1.409-6.744-.1-.375-1.5-1.893-4.621-1.846s-2.824,2.037-2.824,2.037a.638.638,0,0,0,.022.177,95.552,95.552,0,0,1,2.77,23.9c0,.188-.023.514-.009.73,0,0,7.231.187,7.233,0a36.05,36.05,0,0,0-.133-7.33" transform="translate(-52.458 -126)" fill="#b0b0a8"/>
        <path id="Path_180724" data-name="Path 180724" d="M117.461,280.335c0,.187-.1.336-.221.336h0c-.12,0-.216-.152-.217-.336h-6.2c0,.187-.1.336-.221.336h0c-.122,0-.219-.157-.218-.347a93.709,93.709,0,0,0-.514-10.586A83.159,83.159,0,0,0,107.5,256.5a.662.662,0,0,1-.022-.177s-.3-1.99,2.824-2.037,4.524,1.471,4.622,1.846c.006.02.381,1.409.881,3.907.165.827.344,1.776.528,2.837a89.142,89.142,0,0,1,1.028,10.921,28.144,28.144,0,0,1,.1,6.535" transform="translate(-53.251 -126)" fill="#d1d1c7"/>
        <path id="Path_180725" data-name="Path 180725" d="M112.332,304.638h24.3s-.566-2.29-14.637-1.949c-9.958.242-9.66,1.949-9.66,1.949" transform="translate(-55.66 -149.965)" fill="#d1d1c7"/>
        <path id="Path_180726" data-name="Path 180726" d="M108.413,330.849c2.817-14.261,2.093-23.012,2.089-23.122-.007-.219.4-.419.615-.426s1.193-.065,1.305.123c.147.246.714,11.028-3.484,23.425Z" transform="translate(-53.719 -152.262)" fill="#b0b0a8"/>
        <path id="Path_180727" data-name="Path 180727" d="M149.334,330.849c-2.817-14.261-2.093-23.012-2.089-23.122.007-.219-.4-.419-.615-.426s-1.193-.065-1.305.123c-.147.246-.714,11.028,3.484,23.425Z" transform="translate(-71.954 -152.262)" fill="#b0b0a8"/>
        <path id="Path_180728" data-name="Path 180728" d="M158.245,330.849c-2.817-14.261-2.093-23.012-2.089-23.122.007-.219-.4-.419-.615-.426s-1.193-.065-1.305.123c-.147.246-.714,11.028,3.484,23.425Z" transform="translate(-76.369 -152.262)" fill="#b0b0a8"/>
        <path id="Path_180729" data-name="Path 180729" d="M117.384,330.849c2.817-14.261,2.093-23.012,2.089-23.122-.007-.219.4-.419.615-.426s1.193-.065,1.305.123c.147.246.714,11.028-3.484,23.425Z" transform="translate(-58.164 -152.262)" fill="#b0b0a8"/>
        <path id="Path_180730" data-name="Path 180730" d="M136.347,306.735H111.7a.322.322,0,0,1-.32-.321v-.681a.321.321,0,0,1,.32-.32h24.65a.321.321,0,0,1,.32.32v.681a.322.322,0,0,1-.32.321" transform="translate(-55.187 -151.332)" fill="#b0b0a8"/>
        <path id="Path_180731" data-name="Path 180731" d="M157.458,262.824l8.076-1.749.476,1.159s-8.911,5.3-9.746,5.042,1.194-4.453,1.194-4.453" transform="translate(-77.329 -129.363)" fill="#ffb27d"/>
        <path id="Path_180732" data-name="Path 180732" d="M144.093,330.618a.718.718,0,0,0-.128.767l0,0a4.768,4.768,0,0,0,1.507,1.653q.136.11.242.2l.054.048.042.038c.662.611.413.751,1.6,1.99,1.357,1.412,2.291,1.438,2.557,1.309.225-.11-.232-.859-.738-1.7l-.074-.123-.2-.338c-.593-1.013-.441-1.488-.3-3,.115-1.225,1.906-6.845,1.906-6.845l-2.6-.448s-.783,4.475-1.646,5.164c-.462.367-.978.372-1.422.644l-.092.059a3.41,3.41,0,0,0-.711.572" transform="translate(-71.307 -160.631)" fill="#ffb27d"/>
        <path id="Path_180733" data-name="Path 180733" d="M144.093,336.323a.718.718,0,0,0-.128.767l0,0a5.531,5.531,0,0,0,1.51,1.648c.09.074.169.143.239.207l.054.048.042.038c.662.611.413.751,1.6,1.99,1.357,1.412,2.291,1.438,2.557,1.309.225-.11-.232-.859-.738-1.7a5.774,5.774,0,0,1-2.419-1.782c-.817-1.043-1.363-2.383-1.919-3.159l-.092.059a3.41,3.41,0,0,0-.711.572" transform="translate(-71.307 -166.336)" fill="#1a2e48"/>
        <path id="Path_180734" data-name="Path 180734" d="M183.8,328.217c.16.8,1.305.669,2.584.356s.975.059,2.794-.142,2.371-.88,2.426-1.15c.05-.24-.849-.325-1.814-.436l-.365-.044a7.866,7.866,0,0,1-2.875-1.416,11.549,11.549,0,0,1-2.335-2.773l-2.5.2s1.309,1.989,1.816,2.853a3.016,3.016,0,0,1,.245,1.7,3.2,3.2,0,0,0,.019.854" transform="translate(-90.042 -159.855)" fill="#ffb27d"/>
        <path id="Path_180735" data-name="Path 180735" d="M188.389,332.731c1.278-.312.975.059,2.794-.142s2.371-.88,2.426-1.151c.049-.24-.85-.324-1.814-.435l-.009.018a5.129,5.129,0,0,1-2.606.81c-1.234.03-2.542-.324-3.395-.31a3.205,3.205,0,0,0,.019.854c.161.8,1.305.668,2.584.356" transform="translate(-92.048 -164.012)" fill="#1a2e48"/>
        <path id="Path_180736" data-name="Path 180736" d="M174.837,259.376s.594-1.456,1.249-1.516,2.735-.386,2.883-.089a2.057,2.057,0,0,1-.446,1.754,15.886,15.886,0,0,1-3.21,1.011Z" transform="translate(-86.632 -127.665)" fill="#ffb27d"/>
        <path id="Path_180737" data-name="Path 180737" d="M158.48,298.166,153.1,312.639a4.917,4.917,0,0,1-1.618-.148,6.964,6.964,0,0,1-1.564-.761s1.334-13.9,3.78-16.788,4.781,3.224,4.781,3.224" transform="translate(-74.285 -145.759)" fill="#244063"/>
        <path id="Path_180738" data-name="Path 180738" d="M121.8,286.3s15.453-5.225,18.9-4.114,13.795,21.7,13.795,21.7a2,2,0,0,1-.871.55,8.21,8.21,0,0,1-2.028.208s-9.339-8-10.451-10.339-1.556-4.559-2.668-4.336-14.341,5.448-17.343,2.335a8.665,8.665,0,0,1-2.217-7.157Z" transform="translate(-58.878 -139.745)" fill="#2f5380"/>
        <path id="Path_180739" data-name="Path 180739" d="M129.589,216.86a3.752,3.752,0,0,0-2.029-.388.95.95,0,0,1,.428-.2,3.154,3.154,0,0,0-1.122.294c-4.83-1.862-5.589,5.25-5.487,6.9s.113,3.554-2.3,5.035c-4.744,2.915-.742,8-.742,8,.037.022,2.207,3.7,2.207,3.7-.122-1.335,6.038-8.38,9.252-10.49a9.284,9.284,0,0,0,1.081-3.347,8.779,8.779,0,0,1-.657,3.028c2.721-2.5,1.137-11.531-.633-12.537" transform="translate(-57.855 -107.154)" fill="#1a2e48"/>
        <path id="Path_180740" data-name="Path 180740" d="M137.757,238.473a4.457,4.457,0,0,1-2.731.5,3.547,3.547,0,0,1-1.819-1.744c.47-.093.606-.739.6-3.513l.212.041,3.571.707s-.081,1.124-.083,2.182c0,.889.051,1.732.255,1.827" transform="translate(-66.004 -115.806)" fill="#ffb27d"/>
        <path id="Path_180741" data-name="Path 180741" d="M138.38,234.5s-.081,1.124-.084,2.182c-2-.057-3.054-1.879-3.487-2.89Z" transform="translate(-66.798 -115.847)" fill="#ed975d"/>
        <path id="Path_180742" data-name="Path 180742" d="M132.772,225.821a10.493,10.493,0,0,1-1.3-3.069c-.18-1.01.335-4.754,4.1-4.215a5.11,5.11,0,0,1,2.12.8c.817.552,2,1.743.678,5.01l-.343,1.1Z" transform="translate(-65.13 -108.259)" fill="#1a2e48"/>
        <path id="Path_180743" data-name="Path 180743" d="M138.511,229.351s-4.728.078-4.731-2.867-.616-4.918,2.4-5.092,3.606.949,3.846,1.931-.289,5.932-1.518,6.028" transform="translate(-66.262 -109.691)" fill="#ffb27d"/>
        <path id="Path_180744" data-name="Path 180744" d="M136.843,220.678s-1.295,3.455-3.281,3.966a3.912,3.912,0,0,1-2.848-.021,5.628,5.628,0,0,0,1.84-3.324s3.313-2.265,4.289-.621" transform="translate(-64.769 -109.05)" fill="#1a2e48"/>
        <path id="Path_180745" data-name="Path 180745" d="M142.227,221.27a4.175,4.175,0,0,1,1.2,1.521c.236.75.342,2.294.792,2.242,0,0,.975-2.348-.121-3.677-1.162-1.409-1.873-.086-1.873-.086" transform="translate(-70.474 -109.36)" fill="#1a2e48"/>
        <path id="Path_180746" data-name="Path 180746" d="M119.366,254.64c-.466-1.955,1.12-5.749,2.776-8.891a24.548,24.548,0,0,1,3.2-5.073c3.962,2.351,4.321.4,4.321.4s3.6.478,4.619,2.232c1.264,2.177,2.63,8.259,3.987,9.41a2.554,2.554,0,0,0,.1,1.767q.071.254.157.483a9.248,9.248,0,0,0,.681,1.4c-.69.419-2.022,1.216-3,.643-1.5-.875-2.663-3.54-3.32-4.6l-.008-.012c-1.427,8.081.514,9.921-.469,10.773-1.038.9-2.52-.428-5.782.985-2.139.928-5.108,2.269-7.106,2.5-1.048.123-1.83-.06-2.085-.767-.741-2.057,2.817-7.52,1.927-11.247" transform="translate(-58.14 -119.254)" fill="#2f5380"/>
        <path id="Path_180747" data-name="Path 180747" d="M141.126,233.413s.088.374,1.019.316c0,0,.781-.048.758-.46a2.516,2.516,0,0,0-1.776.143" transform="translate(-69.928 -115.538)" fill="#fff"/>
        <path id="Path_180748" data-name="Path 180748" d="M117.438,274.453c.255.708,1.037.89,2.085.767,1.383-.6,7.358-2.918,7.291-4.486-.1-2.322-1.149-2.4-.408-5.262.6-2.3-4.925-6.581-5.806-7.511-1.656,3.141-1.7,3.29-1.235,5.245.889,3.727-2.668,9.19-1.927,11.247" transform="translate(-58.14 -127.82)" fill="#244063"/>
        <path id="Path_180749" data-name="Path 180749" d="M115.733,257.513a8.75,8.75,0,0,1,2.889-2.67c-.167-.431,4.457-6.1,4.457-6.978s1.234-7.188,1.234-7.188-3.853.238-5.187,2.1c-1.668,2.327-5.133,11.281-3.393,14.738" transform="translate(-57.11 -119.256)" fill="#2f5380"/>
        <path id="Path_180750" data-name="Path 180750" d="M119.041,268.756l7.7,2.009-.723,1.3s-9.37-.065-9.867-.636,2.89-2.67,2.89-2.67" transform="translate(-57.528 -133.169)" fill="#ffb27d"/>
        <path id="Path_180751" data-name="Path 180751" d="M148.161,263.927c.657,1.061,1.824,3.726,3.32,4.6.981.573,2.313-.224,3-.643a9.276,9.276,0,0,1-.681-1.4c-.55.126-1.222.287-1.655.418-.843.255-3.986-2.978-3.986-2.978" transform="translate(-73.414 -130.776)" fill="#244063"/>
        <path id="Path_180752" data-name="Path 180752" d="M136.48,272.2a11.823,11.823,0,0,1,2.994-.524c.576.16,2.549,1.467,2.272,1.821s-2.016-.212-2.816-.1-1.419.5-1.994.417a6.677,6.677,0,0,1-1.179-.312Z" transform="translate(-67.268 -134.603)" fill="#ffb27d"/>
        <path id="Path_180753" data-name="Path 180753" d="M137.19,271.774a9.08,9.08,0,0,0,1.52-.954.094.094,0,0,1,.147.017c.09.142.175.417-.241.69a2.23,2.23,0,0,1-1.426.247" transform="translate(-67.978 -134.178)" fill="#ffb27d"/>
        <path id="Path_180754" data-name="Path 180754" d="M148.259,278.6h-11.28a.9.9,0,0,1,.9-.9h10.381Z" transform="translate(-67.873 -137.6)" fill="#cf8d19"/>
        <path id="Path_180755" data-name="Path 180755" d="M155.054,255.13h17.44l-4.183,12.286H150.757Z" transform="translate(-74.7 -126.417)" fill="#ed7d2b"/>
        <path id="Path_180756" data-name="Path 180756" d="M173,255.13l-4.184,12.285H151.266l4.3-12.285Z" transform="translate(-74.953 -126.417)" fill="#f9b131"/>
        <path id="Path_180757" data-name="Path 180757" d="M174.022,266.245a1.134,1.134,0,0,1-1.046.85.654.654,0,0,1-.653-.85,1.134,1.134,0,0,1,1.046-.85.655.655,0,0,1,.654.85" transform="translate(-85.375 -131.503)" fill="#f6f6eb"/>
        <path id="Path_180758" data-name="Path 180758" d="M178.825,255.13l-4.184,12.285H163.017c7.7-2.628,9.75-10.642,10.094-12.285Z" transform="translate(-80.775 -126.417)" fill="#cf8d19"/>
        <path id="Path_180759" data-name="Path 180759" d="M93.677,318.931a.451.451,0,0,0,.447-.366l2.191-12.416,3.151-17.857.881-4.993-2.244-.064-.389,2.9L94.979,306.5l-1.62,12.074a.316.316,0,0,0,.319.354" transform="translate(-46.258 -140.343)" fill="#42e0e6"/>
        <path id="Path_180760" data-name="Path 180760" d="M101.992,286.134a3.22,3.22,0,0,1,1.753,2.159l.881-4.993-2.244-.065Z" transform="translate(-50.537 -140.343)" fill="#08878c"/>
        <path id="Path_180761" data-name="Path 180761" d="M198.082,318.931a.451.451,0,0,1-.447-.366l-2.191-12.416-3.151-17.857-.881-4.993,2.244-.064.389,2.9,2.734,20.37,1.62,12.074a.316.316,0,0,1-.319.354" transform="translate(-94.845 -140.343)" fill="#42e0e6"/>
        <path id="Path_180762" data-name="Path 180762" d="M194.046,286.134a3.22,3.22,0,0,0-1.753,2.159l-.881-4.993,2.244-.065Z" transform="translate(-94.845 -140.343)" fill="#08878c"/>
        <path id="Path_180763" data-name="Path 180763" d="M89.263,283.4h58.3a.953.953,0,0,0,.95-.951v-2.019a.954.954,0,0,0-.95-.951h-58.3a.954.954,0,0,0-.951.951v2.019a.954.954,0,0,0,.951.951" transform="translate(-43.759 -138.481)" fill="#42e0e6"/>
        <path id="Path_180764" data-name="Path 180764" d="M263.71,352.872H.218A.219.219,0,0,1,0,352.655v-.463a.219.219,0,0,1,.218-.218H263.71a.219.219,0,0,1,.218.218v.463a.219.219,0,0,1-.218.218" transform="translate(0 -174.403)" fill="#1a2e48"/>
        <path id="Path_180765" data-name="Path 180765" d="M352.043,267.656s-1.64,2.034-1.127,2.311,1.867.8,2.186.469a9.471,9.471,0,0,0,.419-2.723Z" transform="translate(-173.83 -132.624)" fill="#ffb27d"/>
        <path id="Path_180766" data-name="Path 180766" d="M351.748,267.723a2.407,2.407,0,0,0-.934.581c-.264.349-.847.88-.7,1.028s.98-.5.98-.5Z" transform="translate(-173.469 -132.657)" fill="#ffb27d"/>
        <path id="Path_180767" data-name="Path 180767" d="M359.414,213.841s-1.848,17.2-2.012,17.691c-.036.106-.181.651-.385,1.434-.291,1.118-.7,2.726-1.091,4.255-.588,2.31-1.128,4.441-1.128,4.441l-1.6-.528s-.083-8.359.329-10.284,1.732-13.752,2.4-15.343,3.491-1.666,3.491-1.666" transform="translate(-175.004 -105.958)" fill="#f6f6eb"/>
        <path id="Path_180768" data-name="Path 180768" d="M346.209,283.953l-10.077-2.643a2.472,2.472,0,0,1-1.759-3.01l1.145-4.367a2.472,2.472,0,0,1,3.01-1.759l10.078,2.643a2.473,2.473,0,0,1,1.759,3.01l-1.145,4.367a2.472,2.472,0,0,1-3.01,1.759" transform="translate(-165.642 -134.822)" fill="#cf8d19"/>
        <path id="Path_180769" data-name="Path 180769" d="M338.14,273.683l-1.158,4.417a2.48,2.48,0,0,0,.6,2.33,2.428,2.428,0,0,0,.662.5h0a2.438,2.438,0,0,0,.5.192l10.06,2.637a2.481,2.481,0,0,0,3.021-1.765l1.159-4.418a2.482,2.482,0,0,0-1.766-3.021l-3.463-.908L348,272.7a.818.818,0,0,0-.583-1l-.379-.1-2.107-.552-.524-.137a.816.816,0,0,0-1,.582l-.248.942-2.006-.527c-.079-.021-.158-.037-.237-.049h0a2.485,2.485,0,0,0-2.154.713h0a2.448,2.448,0,0,0-.628,1.1m9.122-.166-3.6-.943.247-.942a.3.3,0,0,1,.372-.217l.9.237,1.658.434.448.118a.317.317,0,0,1,.084.037.306.306,0,0,1,.134.335Z" transform="translate(-166.935 -134.227)" fill="#f9b131"/>
        <path id="Path_180770" data-name="Path 180770" d="M353.129,271.98s.447-.754.28-1.017-.772.781-.772.781.412-.9.259-1.044-.786.883-.786.883.393-.871.255-.9-.606.733-.606.733.243-.652.021-.621-.7.627-.7.627Z" transform="translate(-173.958 -134.123)" fill="#ffb27d"/>
        <path id="Path_180771" data-name="Path 180771" d="M358.875,243.865c-.291,1.119-.7,2.727-1.092,4.255a16.552,16.552,0,0,1-.772-3.374c-.371-2.847.77-8.911.77-8.911Z" transform="translate(-176.862 -116.856)" fill="#d1d1c7"/>
        <path id="Path_180772" data-name="Path 180772" d="M401.643,266.254a14.225,14.225,0,0,1,2.007,1.9,9.755,9.755,0,0,1,.747,2.673c-.029.541-1.369-1.238-1.762-1.382s.411.731.32.918-.928-.425-1.248-.625-.544-1.557-1.021-2.3.957-1.192.957-1.192" transform="translate(-198.493 -131.929)" fill="#ffb27d"/>
        <path id="Path_180773" data-name="Path 180773" d="M356.21,347.586h8.907c.638-.433-.172-4.664-.172-4.664s-2.431-.923-2.851.954-3.1,2.471-4.513,2.7a1.524,1.524,0,0,0-1.372,1.012" transform="translate(-176.502 -169.806)" fill="#1a2e48"/>
        <path id="Path_180774" data-name="Path 180774" d="M382.395,347.586H391.3c.638-.433-.172-4.664-.172-4.664s-2.431-.923-2.851.954-3.1,2.471-4.513,2.7a1.524,1.524,0,0,0-1.372,1.012" transform="translate(-189.477 -169.806)" fill="#1a2e48"/>
        <path id="Path_180775" data-name="Path 180775" d="M360.96,266.146s.4,5,.871,11c.639,8.157,2.364,28.38,2.364,28.38s1.131.965,3.636.437a79.174,79.174,0,0,0,2.77-14.939c.01-.13.02-.262.029-.394.593-8.106,1.516-25.175,1.516-25.175Z" transform="translate(-178.856 -131.533)" fill="#0cc0c7"/>
        <path id="Path_180776" data-name="Path 180776" d="M360.689,263.4s.537,6.721,1.007,12.725l8.771,13.877c.01-.13.02-.262.029-.393.593-8.106,1.516-25.176,1.516-25.176Z" transform="translate(-178.722 -130.517)" fill="#08878c"/>
        <path id="Path_180777" data-name="Path 180777" d="M365.756,260.4s6.361,15.834,8.394,21.835c1.448,4.276,5.533,19.273,5.533,19.273a4.106,4.106,0,0,0,3.27-.5s1.52-15.323-1.55-19.643c-1.629-2.292-.4-23.829-7.008-24.013s-8.639,3.052-8.639,3.052" transform="translate(-181.232 -127.512)" fill="#0cc0c7"/>
        <path id="Path_180778" data-name="Path 180778" d="M374.336,240.07c-2.652,1.5-14.015,1.463-14.541.289-1.176-2.623-1.47-15.95-.916-20.038,0,0,.287-6.283.916-6.005,4.2-1.928,10.99-.177,10.99-.177,1.831.539,1.674,4.725,2.186,10.6.066.757.139,1.547.22,2.363.361,3.63.887,7.8,1.687,12.2.053.29-.149.546-.542.767" transform="translate(-177.691 -105.745)" fill="#f6f6eb"/>
        <path id="Path_180779" data-name="Path 180779" d="M372.069,208.9c-.071,1.124-1.536,1-3.3.594s-1.124-1.44-1.124-1.44.026-.8.137-1.755c.041-.348.092-.718.158-1.077.031-.176.066-.349.105-.516.23-.989,3.52-.035,3.5.232-.065.717.456,3.08.525,3.963" transform="translate(-182.114 -101.216)" fill="#ffb27d"/>
        <path id="Path_180780" data-name="Path 180780" d="M368.9,215.816l-.139-1.552,1.951.368-.751,1.386Z" transform="translate(-182.721 -106.168)" fill="#244063"/>
        <path id="Path_180781" data-name="Path 180781" d="M366.7,210.327l-1.165,1.773a2.579,2.579,0,0,0,1.011,1.881l1.594-1.484a2.867,2.867,0,0,1-1.439-2.17" transform="translate(-181.121 -104.217)" fill="#d1d1c7"/>
        <path id="Path_180782" data-name="Path 180782" d="M370.694,212.774a4.166,4.166,0,0,0,.969,1.729s2.489-.669,3.081-1.944l-1.3-1.673s-.063,1.265-2.754,1.888" transform="translate(-183.679 -104.494)" fill="#d1d1c7"/>
        <path id="Path_180783" data-name="Path 180783" d="M371.809,206.267a6.1,6.1,0,0,1-3.778.8c.041-.348.091-.718.158-1.077.433-.105.8-.171.8-.171Z" transform="translate(-182.36 -101.985)" fill="#e2915a"/>
        <path id="Path_180784" data-name="Path 180784" d="M371.806,198.331c-.774,2.131-3.6,1.587-4.8,1.245-.339-.1-.549-.176-.549-.176-.371-.169-.487-.818-.454-1.637a12.681,12.681,0,0,1,1.072-4.464c.553-.83,1.476-1.674,4.216-.5s1.51,2.8.517,5.531" transform="translate(-181.351 -95.245)" fill="#ffb27d"/>
        <path id="Path_180785" data-name="Path 180785" d="M374.276,195.745c-.865.705-2.723,2.011-2.723,2.011a3.371,3.371,0,0,0,.46-.948.934.934,0,0,0,.034-.321,1.77,1.77,0,0,1,.254-.984c.113-.184.154-.374.011-.51-.235-.222-.636-.018-.9.162a.53.53,0,0,1-.579.015l0,0c-.739-.463.077-1.278-.524-1.955s-3.2-.77-3.1-1.194c-.887-.5-.328-2.351-.312-2.449a9.6,9.6,0,0,0,2.864-.285,4.236,4.236,0,0,1,3.165.847.721.721,0,0,0-.072-.316.67.67,0,0,1,.192.418c.02.02.028.033.022.037a.857.857,0,0,1,.407.094s-.11-.034-.162.031a.092.092,0,0,1-.022.017c1.727,1.22,1.7,4.746.984,5.333" transform="translate(-181.704 -93.754)" fill="#1a2e48"/>
        <path id="Path_180786" data-name="Path 180786" d="M368.1,203.276s-.139.268-.837.046c0,0-.587-.187-.489-.5a1.976,1.976,0,0,1,1.327.45" transform="translate(-181.731 -100.498)" fill="#fff"/>
        <path id="Path_180787" data-name="Path 180787" d="M367.53,217.34s-1.556,19.667-1.534,21.305,1.724,3.372,1.724,3.372a7.208,7.208,0,0,0,1.621-3.053c.265-1.567-.751-21.422-.751-21.422Z" transform="translate(-181.351 -107.692)" fill="#2f5380"/>
        <path id="Path_180788" data-name="Path 180788" d="M382.746,214.855s2.512.6,4.5,4.417,3.555,11.511,4.5,13.542,1.6,8.428,1.6,8.428l-1.5.737s-3.625-6.555-4.161-8.705c-.291-1.163-4.723-10.474-4.723-10.474Z" transform="translate(-189.651 -106.461)" fill="#f6f6eb"/>
        <path id="Path_180789" data-name="Path 180789" d="M386.373,250.146h0c-4.73-.681-3.375-16.337-3-16.4s1.731,2.8,1.731,2.8l.13.635c.361,3.63.887,7.8,1.687,12.2.053.29-.149.546-.542.767" transform="translate(-189.728 -115.821)" fill="#d1d1c7"/>
        <path id="Path_180790" data-name="Path 180790" d="M487.391,334.947s1.791,1.635,1.442,2.8-1.966,1.936-2.184,3.355-1.092,2.194-1.879,2.194H481.02s-.579-1,.819-1.3,1.925-1.97,1.838-3.518a27.249,27.249,0,0,1,.131-3.614l2.971-.688Z" transform="translate(-238.287 -165.583)" fill="#1a2e48"/>
        <path id="Path_180791" data-name="Path 180791" d="M439.866,342.675s.321,3.72-.465,4.107l-10.063-.021s0-1.161,1.616-1.419,4.456-1.2,4.937-3.313,3.975.645,3.975.645" transform="translate(-212.737 -169.082)" fill="#1a2e48"/>
        <path id="Path_180792" data-name="Path 180792" d="M433.366,239.041s.531,6.521,1.155,14.359c.848,10.648,1.868,23.727,1.969,26.2.174,4.3.874,11.185.874,11.185s1.659,1.635,4.98.946a111.074,111.074,0,0,0,3.8-20.219c.013-.171.026-.342.039-.514.786-10.582,2.009-32.865,2.009-32.865Z" transform="translate(-214.733 -117.997)" fill="#2f5380"/>
        <path id="Path_180793" data-name="Path 180793" d="M433.366,239.041s.531,6.521,1.155,14.359l11.628,18.116c.013-.171.026-.342.039-.514.786-10.582,2.009-32.865,2.009-32.865Z" transform="translate(-214.733 -117.997)" fill="#244063"/>
        <path id="Path_180794" data-name="Path 180794" d="M438.171,237.28s9.567,23.616,15.858,34.714,8.257,14.2,8.257,14.2,3.6-1.42,3.932-2.388c0,0-2.405-21.426-6.618-26.649-2.38-2.951-4.434-9.5-4.331-12.6a40.068,40.068,0,0,0-1.829-11.535Z" transform="translate(-217.114 -115.463)" fill="#2f5380"/>
        <path id="Path_180795" data-name="Path 180795" d="M420.969,242.151a18.582,18.582,0,0,0-1.918,3.064,12.723,12.723,0,0,0-.072,3.625c.214.675,1.327-2.013,1.778-2.323s-.282,1.057-.106,1.266,1.036-.84,1.375-1.2.18-2.148.542-3.238-1.6-1.2-1.6-1.2" transform="translate(-207.552 -119.986)" fill="#ffb27d"/>
        <path id="Path_180796" data-name="Path 180796" d="M430.468,172.477s-2.414,22.472-2.629,23.112c-.047.139-.236.851-.5,1.874-.38,1.462-.917,3.562-1.426,5.559-.768,3.017-1.6,5.626-1.6,5.626a2.12,2.12,0,0,1-1.244.161,1.315,1.315,0,0,1-.923-.564s.088-11.033.627-13.547,2.264-17.966,3.135-20.045,4.561-2.176,4.561-2.176" transform="translate(-209.173 -85.462)" fill="#f9b131"/>
        <path id="Path_180797" data-name="Path 180797" d="M429.948,211.7c-.38,1.462-.917,3.562-1.426,5.559a21.63,21.63,0,0,1-1.009-4.408c-.485-3.719,1.006-11.642,1.006-11.642Z" transform="translate(-211.785 -99.699)" fill="#cf8d19"/>
        <path id="Path_180798" data-name="Path 180798" d="M450.147,206.743c-3.465,1.955-18.31,1.912-19,.377-1.536-3.426-1.921-20.837-1.2-26.178,0,0,.375-8.207,1.2-7.845,5.483-2.519,14.358-.231,14.358-.231,2.393.7,2.187,6.173,2.855,13.852.086.99.181,2.022.288,3.087.472,4.742,1.159,10.19,2.2,15.936.07.378-.194.713-.708,1" transform="translate(-212.867 -85.184)" fill="#f9b131"/>
        <path id="Path_180799" data-name="Path 180799" d="M447.186,166.025c-.092,1.468-2.006,1.3-4.309.776s-1.468-1.882-1.468-1.882.034-1.043.18-2.293c.053-.454.12-.938.207-1.407.04-.23.086-.456.137-.675.3-1.292,4.6-.045,4.568.3-.084.938.6,4.024.686,5.177" transform="translate(-218.646 -79.266)" fill="#ffb27d"/>
        <path id="Path_180800" data-name="Path 180800" d="M443.045,175.057l-.182-2.028,2.549.481-.981,1.811Z" transform="translate(-219.439 -85.736)" fill="#1a2e48"/>
        <path id="Path_180801" data-name="Path 180801" d="M440.165,167.886l-1.523,2.316a3.37,3.37,0,0,0,1.321,2.458l2.083-1.939s-1.346-.514-1.881-2.835" transform="translate(-217.347 -83.188)" fill="#f6f6eb"/>
        <path id="Path_180802" data-name="Path 180802" d="M445.389,171.082a5.448,5.448,0,0,0,1.265,2.259s3.251-.874,4.026-2.54l-1.693-2.186s-.082,1.653-3.6,2.467" transform="translate(-220.691 -83.549)" fill="#f6f6eb"/>
        <path id="Path_180803" data-name="Path 180803" d="M446.846,162.583a7.98,7.98,0,0,1-4.937,1.049c.053-.455.12-.938.207-1.407.566-.137,1.039-.223,1.039-.223Z" transform="translate(-218.966 -80.273)" fill="#e2915a"/>
        <path id="Path_180804" data-name="Path 180804" d="M446.841,152.214c-1.012,2.784-4.7,2.073-6.274,1.626-.442-.125-.716-.23-.716-.23-.486-.22-.636-1.068-.593-2.139a16.567,16.567,0,0,1,1.4-5.831c.723-1.085,1.928-2.188,5.508-.652s1.973,3.659.676,7.225" transform="translate(-217.649 -71.467)" fill="#ffb27d"/>
        <path id="Path_180805" data-name="Path 180805" d="M450.069,148.835c-1.13.922-3.558,2.627-3.558,2.627a4.393,4.393,0,0,0,.6-1.24,1.227,1.227,0,0,0,.044-.419,2.312,2.312,0,0,1,.331-1.286c.148-.24.2-.489.015-.666-.307-.291-.83-.024-1.174.211a.693.693,0,0,1-.757.02l0,0c-.965-.6.1-1.67-.684-2.555s-4.181-1.005-4.046-1.56c-1.159-.655-.428-3.072-.407-3.2a12.525,12.525,0,0,0,3.741-.372,5.533,5.533,0,0,1,4.134,1.106.942.942,0,0,0-.094-.412.875.875,0,0,1,.251.546c.026.026.037.044.029.048a1.118,1.118,0,0,1,.532.123s-.144-.045-.212.04a.1.1,0,0,1-.029.023c2.257,1.594,2.224,6.2,1.286,6.967" transform="translate(-218.111 -69.517)" fill="#1a2e48"/>
        <path id="Path_180806" data-name="Path 180806" d="M442,158.675s-.182.351-1.094.06c0,0-.767-.244-.639-.648a2.583,2.583,0,0,1,1.733.588" transform="translate(-218.145 -78.33)" fill="#fff"/>
        <path id="Path_180807" data-name="Path 180807" d="M441.254,177.048s-2.033,25.694-2,27.834,2.253,4.4,2.253,4.4a9.416,9.416,0,0,0,2.119-3.988c.346-2.048-.981-27.987-.981-27.987Z" transform="translate(-217.648 -87.727)" fill="#244063"/>
        <path id="Path_180808" data-name="Path 180808" d="M465.872,219.908h0c-6.18-.889-4.409-21.343-3.925-21.424s2.262,3.656,2.262,3.656l.17.829c.472,4.742,1.159,10.19,2.2,15.936.07.378-.194.713-.708,1" transform="translate(-228.592 -98.348)" fill="#cf8d19"/>
        <path id="Path_180809" data-name="Path 180809" d="M487.836,259.39l-13.069,3.8A3.23,3.23,0,0,1,470.776,261l-1.648-5.663a3.23,3.23,0,0,1,2.193-3.992l13.069-3.8a3.23,3.23,0,0,1,3.992,2.193l1.648,5.663a3.23,3.23,0,0,1-2.193,3.992" transform="translate(-232.39 -122.594)" fill="#cf8d19"/>
        <path id="Path_180810" data-name="Path 180810" d="M472.539,253.782l1.667,5.729a3.239,3.239,0,0,0,2.237,2.208,3.179,3.179,0,0,0,1.077.114h0a3.191,3.191,0,0,0,.691-.121l13.045-3.8a3.241,3.241,0,0,0,2.2-4.007l-1.666-5.73a3.243,3.243,0,0,0-4.008-2.2l-4.492,1.307-.355-1.222a1.068,1.068,0,0,0-1.322-.726l-.493.143-2.732.8-.679.2a1.067,1.067,0,0,0-.726,1.322l.355,1.222-2.6.757a3.164,3.164,0,0,0-.3.1h0a3.245,3.245,0,0,0-1.935,2.246h0a3.2,3.2,0,0,0,.036,1.657m10.113-6.31-4.669,1.359-.355-1.222a.4.4,0,0,1,.27-.493l1.173-.341,2.15-.627.581-.168a.406.406,0,0,1,.119-.016.4.4,0,0,1,.376.287Z" transform="translate(-234.08 -121.544)" fill="#f9b131"/>
        <path id="Path_180811" data-name="Path 180811" d="M484.844,241.415s-.405,3.389.354,3.34,2.619-.413,2.746-1-1.424-3.306-1.424-3.306Z" transform="translate(-240.187 -119.144)" fill="#ffb27d"/>
        <path id="Path_180812" data-name="Path 180812" d="M484.349,242.342a3.145,3.145,0,0,0-.631,1.291c-.05.569-.327,1.562-.067,1.626s.736-1.238.736-1.238Z" transform="translate(-239.595 -120.081)" fill="#ffb27d"/>
        <path id="Path_180813" data-name="Path 180813" d="M461.134,173.8s3.282.785,5.877,5.77,4.645,15.038,5.883,17.692,2.182,10.616,2.182,10.616a1.22,1.22,0,0,1-.861.54,4.078,4.078,0,0,1-1.05.068s-4.88-7.816-5.58-10.625c-.38-1.52-6.17-13.684-6.17-13.684Z" transform="translate(-228.492 -86.119)" fill="#f9b131"/>
        <path id="Path_180814" data-name="Path 180814" d="M51.992,340.646,51.5,337.1l2.066-1.726.651,4.689Z" transform="translate(-25.518 -166.18)" fill="#ffb27d"/>
        <path id="Path_180815" data-name="Path 180815" d="M57.756,347.687H49.334a4.626,4.626,0,0,1,.238-2.258c.421-.934,1.078-1.511,1.137-2.227a2.53,2.53,0,0,0,2.412.742,9.253,9.253,0,0,0,1.461,1.894c.55.4,3,.254,3.174,1.848" transform="translate(-24.422 -170.057)" fill="#1a2e48"/>
        <path id="Path_180816" data-name="Path 180816" d="M52.465,246.482c-.551,4.431-1,8.608-1.368,12.5A297.776,297.776,0,0,0,49.522,292.4s-.142.375-1.357.381a6.941,6.941,0,0,1-1.36-.146s-4.388-13.545-4.05-21.253a11.821,11.821,0,0,1,.343-2.5c1.053-3.944-3.9-19.026,1.484-24.642s8.137.2,7.883,2.234" transform="translate(-20.823 -119.846)" fill="#f9b131"/>
        <path id="Path_180817" data-name="Path 180817" d="M52.465,246.482c-.551,4.431-1,8.608-1.368,12.5l-8.341,12.4a11.821,11.821,0,0,1,.343-2.5c1.053-3.944-3.9-19.026,1.484-24.642s8.137.2,7.883,2.234" transform="translate(-20.823 -119.846)" fill="#cf8d19"/>
        <path id="Path_180818" data-name="Path 180818" d="M75.425,162.647s-.2-1.013-.431-1.785A5.557,5.557,0,0,1,76.085,158c.488-.276,1.759,1.236,1.4,2.4-.185.6-.488,2.537-.488,2.537Z" transform="translate(-37.154 -78.272)" fill="#ffb27d"/>
        <path id="Path_180819" data-name="Path 180819" d="M74.7,165.075s-.265-.587-.505-.682-.5-1.055-.672-1.435c0,0,.17-.249.467.071.181.2.585.768.585.768Z" transform="translate(-36.432 -80.7)" fill="#ffb27d"/>
        <path id="Path_180820" data-name="Path 180820" d="M4.02,171.938c-.051.106-.123.3-.187.476,0-.049,0-.1,0-.145a5.554,5.554,0,0,0-1.882-2.419c-.547-.122-1.32,1.7-.636,2.7.351.517,1.209,2.283,1.209,2.283L3.94,174.1s.082-.639.283-.8.165-1.154.222-1.569c0,0-.236-.188-.426.2" transform="translate(-0.517 -84.159)" fill="#ffb27d"/>
        <path id="Path_180821" data-name="Path 180821" d="M24.332,339.138c-.119-1.135-.148-4.122-.148-4.122s3.044-.973,2.932-.3a21.5,21.5,0,0,0-.4,4.91l-1.23.736Z" transform="translate(-11.983 -165.733)" fill="#ffb27d"/>
        <path id="Path_180822" data-name="Path 180822" d="M40.406,249.982s-11.758,32.23-14.073,46.211a2.345,2.345,0,0,1-1.537.246,1.718,1.718,0,0,1-1.445-.926s-2.124-16.756,2.1-22.574c2.9-4-1.251-21.549,5.5-22.957s9.452,0,9.452,0" transform="translate(-11.306 -123.556)" fill="#f9b131"/>
        <path id="Path_180823" data-name="Path 180823" d="M34.687,182.9h0a.24.24,0,0,0-.01-.042q-.1-.425-.225-.84h0a18.953,18.953,0,0,0-.855-2.367c-.182-.409-.37-.787-.564-1.125-.029-.052-.058-.1-.086-.15h0a3.377,3.377,0,0,0-1.342-1.454,4.029,4.029,0,0,0-2.213-.092,1.019,1.019,0,0,1,.422-.283,3.371,3.371,0,0,0-1.144.487c-5.415-1.211-5.1,6.45-4.73,8.186s-1.376,2.58-3.835,4.357c-4.693,3.39-4.614,6.983-4.614,6.983.042.018.088.038.136.063.189-.465.59-1.345,1.01-1.531a18.067,18.067,0,0,0-.451,1.82c.715.394,1.7,1,2.778,1.693h0c1.437.92,3.023,1.978,4.294,2.838a2.924,2.924,0,0,1-.031-1.131l.405,1.255.053.163c.811.55,1.451.99,1.776,1.215l.089.061.146.1c-.108-.443.366-1.6,1.16-3.056.054-.1.112-.205.171-.31.257-.461.543-.946.852-1.446.111-.181.223-.362.34-.546v0c.093-.148.188-.3.286-.445v0c.23-.356.468-.714.711-1.073.629-.93,1.3-1.853,1.954-2.7a23.683,23.683,0,0,1,2.68-3.006c.026-.053.05-.107.072-.162a5.349,5.349,0,0,0,.29-.926q.035-.145.061-.292a12.71,12.71,0,0,0,.2-2.3,13.008,13.008,0,0,1-.029,2.315q-.023.187-.05.347h0a4.665,4.665,0,0,1-.142.609,3.171,3.171,0,0,0,.342-.526,3.729,3.729,0,0,0,.178-.394c.634-1.618.463-4.031-.086-6.3" transform="translate(-7.675 -87.477)" fill="#1a2e48"/>
        <path id="Path_180824" data-name="Path 180824" d="M46.592,200.179a4.772,4.772,0,0,1-2.818.96,3.8,3.8,0,0,1-2.2-1.562c.484-.173.526-.879.077-3.82l.233.011,3.9.187s.091,1.2.256,2.328c.137.943.328,1.828.559,1.9" transform="translate(-20.598 -96.998)" fill="#ffb27d"/>
        <path id="Path_180825" data-name="Path 180825" d="M46.082,195.966s.091,1.2.255,2.328c-2.127.255-3.536-1.511-4.154-2.514Z" transform="translate(-20.902 -97.009)" fill="#ed975d"/>
        <path id="Path_180826" data-name="Path 180826" d="M39.314,187.056a11.268,11.268,0,0,1-1.861-3.05c-.35-1.043-.395-5.094,3.68-5.116a5.483,5.483,0,0,1,2.375.516c.953.456,2.391,1.533,1.509,5.206l-.189,1.224Z" transform="translate(-18.485 -88.639)" fill="#1a2e48"/>
        <path id="Path_180827" data-name="Path 180827" d="M47.3,225.923a16.51,16.51,0,0,1-11.442,1.465c-.075-.018-5.245-.843-5.245-.843.089-.243.757-4.237.844-4.46,1.13-2.916,3.2-18.742,4.921-19.523a3.907,3.907,0,0,0,2.777.712c1.241-.109,1.656-.646,1.553-1.222,1.373.649,2.429,1.253,2.429,1.253,1.255,1.881,4.163,22.618,4.163,22.618" transform="translate(-15.171 -100.117)" fill="#fff"/>
        <path id="Path_180828" data-name="Path 180828" d="M45.754,189.921s-5,.828-5.469-2.294-1.429-5.119,1.745-5.78,3.974.437,4.384,1.442.63,6.336-.659,6.632" transform="translate(-19.709 -90.006)" fill="#ffb27d"/>
        <path id="Path_180829" data-name="Path 180829" d="M42.975,180.755s-.828,3.868-2.854,4.723-3.024.427-3.024.427a6.031,6.031,0,0,0,1.427-3.815s3.156-2.925,4.451-1.335" transform="translate(-18.382 -89.33)" fill="#1a2e48"/>
        <path id="Path_180830" data-name="Path 180830" d="M48.161,181.185a4.475,4.475,0,0,1,1.515,1.424c.368.758.724,2.378,1.193,2.252,0,0,.664-2.644-.708-3.88-1.455-1.31-2,.2-2,.2" transform="translate(-23.864 -89.411)" fill="#1a2e48"/>
        <path id="Path_180831" data-name="Path 180831" d="M64.962,167.111a3.2,3.2,0,0,0-.894-.276,2.777,2.777,0,0,0-.786.082s-1.411,8.772-1.516,9.236-6.052,7.165-7.656,7.138a7.262,7.262,0,0,0-3.482,1.309s3.372,7.131,3.54,8.47c.183,1.457,1.929,23.9,1.929,23.9s-.1,1.044,1.847.483a6.661,6.661,0,0,0,2.439-1.026s-1.792-17.67-2.168-23.164a10.506,10.506,0,0,0-.343-2.05,2.079,2.079,0,0,1,.336-1.766c2.466-3.386,6.361-8.871,6.578-10.037.319-1.713.175-12.3.175-12.3" transform="translate(-25.087 -82.664)" fill="#08878c"/>
        <path id="Path_180832" data-name="Path 180832" d="M30.071,347.687H21.649a4.626,4.626,0,0,1,.238-2.258c.421-.934,1.078-1.511,1.137-2.227a2.53,2.53,0,0,0,2.412.742,9.235,9.235,0,0,0,1.461,1.894c.55.4,3,.254,3.174,1.848" transform="translate(-10.704 -170.057)" fill="#1a2e48"/>
        <path id="Path_180833" data-name="Path 180833" d="M27.12,199.174c-.284-1.747-3.908-8.76-3.908-8.76a7.458,7.458,0,0,0-3.8-.139c-1.508.546-9.309-3.859-9.559-4.264s-4.428-8.192-4.428-8.192a.97.97,0,0,0-.9.089,1.016,1.016,0,0,0-.552.846s3.225,9.8,4.083,11.319c.518.915,4.867,4.1,8.239,6.483a2.115,2.115,0,0,1,.876,2.011c-.454,3.352-.569,5.24-1.09,10.993-.433,4.772-.6,14.011-.6,14.011a31.209,31.209,0,0,0,6.378,1.479c2.6.173,3.172-2.572,3.172-2.572s2.379-21.507,2.087-23.3" transform="translate(-1.968 -88.076)" fill="#08878c"/>
        <path id="Path_180834" data-name="Path 180834" d="M48.378,194.541a2.233,2.233,0,0,0,1.325.249c.492-.074.6-.657.6-.657a1.938,1.938,0,0,0-.887,0,3.785,3.785,0,0,0-1.041.406" transform="translate(-23.971 -96.17)" fill="#fff"/>
        <path id="Path_180835" data-name="Path 180835" d="M364.5,54.442s-2.484-4.415,0-5.313,3.608-.07,3.727.936a27.532,27.532,0,0,1-.946,4.969Z" transform="translate(-180.064 -24.153)" fill="#ffb27d"/>
        <path id="Path_180836" data-name="Path 180836" d="M334.59,87.175a80.354,80.354,0,0,1-12.453,1.279,69.457,69.457,0,0,1-9.572-.431q-1.129-.129-2.17-.289a43.09,43.09,0,0,1-11.383-3.084s6.7-14.026,12.113-13.488c6.351.633,17.111,6.331,18.181,4.733,1.2-1.8,2.212-17.242,2.212-17.242,2.816-1.929,4.5.1,4.5.1s5.5,27.168-1.426,28.417" transform="translate(-148.161 -28.651)" fill="#f9b131"/>
        <path id="Path_180837" data-name="Path 180837" d="M346.261,108.434a80.355,80.355,0,0,1-12.453,1.279,69.457,69.457,0,0,1-9.572-.431c-1.69-5.373-2.9-10.861.493-7.552,5.994,5.836,21.531,6.7,21.531,6.7" transform="translate(-159.832 -49.91)" fill="#cf8d19"/>
        <path id="Path_180838" data-name="Path 180838" d="M297.909,338.359s-.482,5.576.7,6.156l15.084-.031s0-1.741-2.423-2.127-6.679-1.806-7.4-4.965-5.959.967-5.959.967" transform="translate(-147.566 -166.588)" fill="#1a2e48"/>
        <path id="Path_180839" data-name="Path 180839" d="M301.12,189.557c-.075,3.646-.25,7.407-.593,10.787-1.629,16.039-2.2,35.416-2.436,39.152-.406,6.485-1.687,16.847-1.687,16.847s-2.541,2.412-7.494,1.261a168.618,168.618,0,0,1-5.021-30.636q-.021-.387-.041-.776c-.106-2.078-.218-4.453-.331-7.014-.755-17.156-1.575-42.642-1.575-42.642l18.928-4.445s.435,8.377.25,17.466" transform="translate(-139.702 -85.271)" fill="#2f5380"/>
        <path id="Path_180840" data-name="Path 180840" d="M301.12,189.557c-4.8,8.276-13.941,23.524-17.6,29.621-.755-17.156-1.575-42.642-1.575-42.642l18.928-4.445s.435,8.377.25,17.466" transform="translate(-139.702 -85.271)" fill="#244063"/>
        <path id="Path_180841" data-name="Path 180841" d="M221.087,174.933s-3.08,3.622-3.357,4.626a20.129,20.129,0,0,0-.507,5.71c.264,1.087,2.312-3.032,3.057-3.472s-.559,1.638-.3,1.985,1.725-1.213,2.3-1.741.517-3.369,1.205-5.048-2.393-2.06-2.393-2.06" transform="translate(-107.597 -86.679)" fill="#ffb27d"/>
        <path id="Path_180842" data-name="Path 180842" d="M221.335,326.777s-2.685,2.45-2.161,4.191,2.947,2.9,3.274,5.029,1.637,3.288,2.816,3.288h5.619s.868-1.5-1.228-1.949-2.885-2.951-2.755-5.273a40.892,40.892,0,0,0-.2-5.416l-4.453-1.031Z" transform="translate(-108.567 -161.343)" fill="#1a2e48"/>
        <path id="Path_180843" data-name="Path 180843" d="M268.942,176.012s-17.719,37.912-27.149,54.547-12.375,21.277-12.375,21.277-5.4-2.127-5.894-3.578c0,0,3.606-32.114,9.92-39.943,3.568-4.423,7.759-17.7,7.956-22.341s4.336-15.723,4.336-15.723Z" transform="translate(-110.756 -84.36)" fill="#2f5380"/>
        <path id="Path_180844" data-name="Path 180844" d="M292.752,131.2a30.709,30.709,0,0,1-17.02,4.274c-4.376-.191-13.058-1.432-14.459-4.913-.328-.817-.088-1.855.406-3.446,1.281-4.138,4.266-12.016,3.365-29.485a28.5,28.5,0,0,1,.118-4.584c.939-8.6,5.87-13.7,10.636-15.365,11.624-4.063,15.5,1.565,15.5,1.565s5.138,4.071,5.913,12.566c1.547,16.993-4.456,39.389-4.456,39.389" transform="translate(-129.386 -37.761)" fill="#f9b131"/>
        <path id="Path_180845" data-name="Path 180845" d="M296.962,66.618s5.334,3.244,11.118,2.327c0,0,1.144-.291.581-1.634a17.085,17.085,0,0,0,.514-1.791,27.011,27.011,0,0,0,.662-2.922l-3.283-3.451-3.109-3.3c-.859,7.881-6.483,10.768-6.483,10.768" transform="translate(-147.145 -27.674)" fill="#ffb27d"/>
        <path id="Path_180846" data-name="Path 180846" d="M308.826,61.774s1.786,4.775,6.228,6.681c.507-1.853.837-3.791.837-3.791l-3.458-2.582Z" transform="translate(-153.024 -30.609)" fill="#ed985f"/>
        <path id="Path_180847" data-name="Path 180847" d="M318.317,52.547s-10.18,1.272-10.9-4.983-2.51-10.305,3.96-11.382,8.008,1.171,8.762,3.2.8,12.67-1.827,13.162" transform="translate(-151.941 -17.79)" fill="#ffb27d"/>
        <path id="Path_180848" data-name="Path 180848" d="M301.064,31.361c-.088-.109-.3-.2-.767-.245a1.912,1.912,0,0,1,.89-.215,2.374,2.374,0,0,1,1.655-2.039,1.417,1.417,0,0,0-.724.994c1.358-1.293,4.195-2.164,11.926-1.258,10.189,1.193,6.574,7.608,5.221,8.338s-4.6-1.534-7.074-1.432-3.076,3.647-3.931,4.1-.493-.395-1.605-.948-1.29,1.316-1.01,2.548-1.335,2.78-1.335,2.78L302.8,42.237c-1.507-1.752-2.717-8.974-1.945-10.474.068-.132.136-.267.205-.4" transform="translate(-148.797 -13.986)" fill="#1a2e48"/>
        <path id="Path_180849" data-name="Path 180849" d="M346.355,50.519l-17.283.154-.118-2.6,17.23-1.335Z" transform="translate(-162.997 -23.158)" fill="#2f5380"/>
        <path id="Path_180850" data-name="Path 180850" d="M370.613,49.289l-18.817.272-.214-4.727,18.763-1.454Z" transform="translate(-174.209 -21.495)" fill="#2f5380"/>
        <path id="Path_180851" data-name="Path 180851" d="M398.586,48.167l-15.868.02-.29-6.382,15.8-1.438Z" transform="translate(-189.494 -20.002)" fill="#1a2e48"/>
        <path id="Path_180852" data-name="Path 180852" d="M413.628,48.171h0a.887.887,0,0,0,.846-.927l-.372-8.2a.887.887,0,1,0-1.773.081l.372,8.2a.888.888,0,0,0,.927.846" transform="translate(-204.309 -18.928)" fill="#244063"/>
        <path id="Path_180853" data-name="Path 180853" d="M328.176,52h0a.789.789,0,0,1-.824-.752l-.1-2.126a.789.789,0,1,1,1.576-.072l.1,2.127a.789.789,0,0,1-.752.824" transform="translate(-162.155 -23.93)" fill="#2f5380"/>
        <path id="Path_180854" data-name="Path 180854" d="M262.225,143.637c1.281-4.137,4.266-12.016,3.364-29.485a28.68,28.68,0,0,1,.118-4.584h0c3.826-.329,9.673,3.806,9.673,3.806s-3.6,21.955-13.156,30.262" transform="translate(-129.933 -54.282)" fill="#cf8d19"/>
        <path id="Path_180855" data-name="Path 180855" d="M260.07,77.194s-9.808,1.686-14.925,7.931-13.345,15.052-15.291,18.136-7.347,24.07-7.347,24.07.356.675,1.846,1.068a3.513,3.513,0,0,0,2.46-.207s7.156-12.247,9.849-18.365c1.118-2.542,20.472-12.609,27.747-11.566,2.857.41-4.341-21.066-4.341-21.066" transform="translate(-110.253 -38.25)" fill="#f9b131"/>
        <path id="Path_180856" data-name="Path 180856" d="M363.241,44.58s2.11,1.291,3.372.745,1.151-1.046,1.151-1.046-3.813-1.058-4.522.3" transform="translate(-179.986 -21.746)" fill="#ffb27d"/>
        <path id="Path_180857" data-name="Path 180857" d="M278.336,90.284s-4.3,27.177-34.846,35.089l-3.327,6.564,5.845.989s34.771-10.073,34.3-43.123Z" transform="translate(-119.001 -44.497)" fill="#0cc0c7"/>
        <path id="Path_180858" data-name="Path 180858" d="M313.121,82.158l-1.41.138v2.041l2.077,2.159,1.975-.48V83.183l-1.42-1.025Z" transform="translate(-154.453 -40.709)" fill="#08878c"/>
        <path id="Path_180859" data-name="Path 180859" d="M299.135,71.445s-1.365.308-4.484,2.9c0,0,3.1,6.586,9.649,7.374a21.876,21.876,0,0,1,.367-4.87s-5.188-1.857-5.532-5.4" transform="translate(-146 -35.401)" fill="#cf8d19"/>
        <path id="Path_180860" data-name="Path 180860" d="M314.5,80.379s3.194,1.7,3.431,4.338c0,0,1.221-1.934.867-3.274a10.916,10.916,0,0,0-1.449-2.875s.108,1.614-2.849,1.811" transform="translate(-155.837 -38.931)" fill="#cf8d19"/>
      </g>
    </g>
  </g>
</svg>
