<svg xmlns="http://www.w3.org/2000/svg" width="400" height="220" viewBox="0 0 400 220">
  <g id="t5-f1" transform="translate(-2764 4774)">
    <rect id="Rectangle_38469" data-name="Rectangle 38469" width="400" height="220" rx="20" transform="translate(2764 -4774)" fill="#42e0e6"/>
    <path id="Rectangle_38469_-_Outline" data-name="Rectangle 38469 - Outline" d="M20,3A17,17,0,0,0,3,20V200a17,17,0,0,0,17,17H380a17,17,0,0,0,17-17V20A17,17,0,0,0,380,3H20m0-3H380a20,20,0,0,1,20,20V200a20,20,0,0,1-20,20H20A20,20,0,0,1,0,200V20A20,20,0,0,1,20,0Z" transform="translate(2764 -4774)" fill="#66f9ff"/>
    <path id="Path_184782" data-name="Path 184782" d="M54.176,4.781l3.174,9.893,3.164-9.893h4.512V19H61.588V15.68l.332-6.8L58.482,19H56.217L52.77,8.873,53.1,15.68V19H49.674V4.781ZM70.523,19h-3.3V8.434h3.3Zm-3.5-13.3a1.482,1.482,0,0,1,.508-1.159,2.149,2.149,0,0,1,2.637,0A1.482,1.482,0,0,1,70.68,5.7a1.482,1.482,0,0,1-.508,1.159,2.149,2.149,0,0,1-2.637,0A1.482,1.482,0,0,1,67.027,5.7Zm9.8,5.645,1.533-2.91h3.418L79,13.58,81.92,19H78.482l-1.66-3.125L75.191,19H71.734l2.93-5.42L71.891,8.434h3.457Zm9.844-5.537V8.434h1.738v2.285H86.676v4.834a1.234,1.234,0,0,0,.215.83,1.152,1.152,0,0,0,.85.234,4.828,4.828,0,0,0,.82-.059v2.354a6.074,6.074,0,0,1-1.855.283,3.448,3.448,0,0,1-2.51-.8,3.282,3.282,0,0,1-.811-2.432V10.719H82.037V8.434h1.348V5.807ZM95.66,19a3.716,3.716,0,0,1-.312-.947A3.06,3.06,0,0,1,92.809,19.2a3.749,3.749,0,0,1-2.539-.9,2.875,2.875,0,0,1-1.045-2.271,2.955,2.955,0,0,1,1.27-2.6,6.468,6.468,0,0,1,3.691-.879H95.2v-.559q0-1.462-1.26-1.462a1.03,1.03,0,0,0-1.172,1.158H89.479a2.95,2.95,0,0,1,1.3-2.487,5.479,5.479,0,0,1,3.325-.956,4.8,4.8,0,0,1,3.193.986,3.429,3.429,0,0,1,1.2,2.705v4.678a4.79,4.79,0,0,0,.449,2.227V19ZM93.6,16.852a1.836,1.836,0,0,0,1.021-.264,1.653,1.653,0,0,0,.581-.6V14.3h-.957q-1.719,0-1.719,1.543a.942.942,0,0,0,.3.728A1.1,1.1,0,0,0,93.6,16.852Z" transform="translate(2890 -4603)" fill="#12263f"/>
    <rect id="Rectangle_38470" data-name="Rectangle 38470" width="165" height="1.5" transform="translate(2882 -4626)" fill="#fff"/>
    <g id="_000000ff" data-name="#000000ff" transform="translate(2919 -4737)">
      <path id="Path_179500" data-name="Path 179500" d="M40.918,0h8.174c.244,1.218.492,2.436.731,3.656a22.933,22.933,0,0,1,2.524,1.049q1.55-1.036,3.1-2.074,2.9,2.892,5.785,5.79c-.686,1.046-1.4,2.074-2.069,3.131a17.6,17.6,0,0,1,1.03,2.484c1.222.262,2.449.49,3.672.742,0,2.73.007,5.462,0,8.193-1.223.241-2.447.476-3.667.735a20.432,20.432,0,0,1-1.03,2.5c.686,1.041,1.382,2.072,2.067,3.111-.686.693-1.38,1.378-2.064,2.072q6.7,2.687,13.41,5.368c0,2.3-.009,4.605.007,6.908a10.365,10.365,0,0,1,6.43,3.693,10.216,10.216,0,0,1,2.262,6.244c0,1.406.06,2.818-.077,4.221a10.212,10.212,0,0,1-4.259,7.1c-.009.707-.009,1.415-.011,2.122,2.248.519,4.5,1.007,6.754,1.51a8.158,8.158,0,0,1,3.449,1.461A7.31,7.31,0,0,1,90,75.667V90H0V75.665a7.313,7.313,0,0,1,2.774-5.574A7.9,7.9,0,0,1,6.151,68.6c2.3-.515,4.611-1.018,6.912-1.543-.011-.682.04-1.366-.023-2.046a2.828,2.828,0,0,0-.635-.6A10.027,10.027,0,0,1,8.738,57.12c-.049-1.167-.026-2.336-.019-3.505A10.213,10.213,0,0,1,17.4,43.678c.032-2.3.007-4.609.014-6.913q6.7-2.695,13.41-5.37c-.684-.694-1.378-1.38-2.064-2.072.686-1.039,1.382-2.071,2.067-3.111a23.682,23.682,0,0,1-1.046-2.519c-1.218-.236-2.433-.483-3.651-.722-.011-2.73,0-5.462,0-8.191,1.223-.253,2.45-.485,3.672-.747a16.82,16.82,0,0,1,1.03-2.475c-.668-1.058-1.385-2.087-2.069-3.134,1.93-1.932,3.855-3.869,5.8-5.788,1.03.7,2.065,1.382,3.1,2.072a22.517,22.517,0,0,1,2.519-1.049c.248-1.218.469-2.443.742-3.656m2.364,2.911c-.2,1.025-.415,2.048-.608,3.074a17,17,0,0,0-5.117,2.13c-.888-.568-1.756-1.167-2.637-1.749Q33.708,7.577,32.5,8.789c.578.879,1.169,1.753,1.747,2.631a16.47,16.47,0,0,0-2.118,5.115c-1.032.214-2.067.41-3.1.622,0,1.141,0,2.282,0,3.422,1.027.207,2.053.418,3.083.613a17.249,17.249,0,0,0,2.132,5.138q-.881,1.31-1.747,2.624c.807.807,1.612,1.617,2.424,2.419.875-.584,1.747-1.174,2.63-1.749a16.454,16.454,0,0,0,5.1,2.115c.223,1.028.418,2.064.629,3.094q1.714.005,3.428,0c.209-1.03.41-2.062.626-3.09a16.391,16.391,0,0,0,5.106-2.123c.884.573,1.754,1.167,2.631,1.749q1.216-1.2,2.424-2.421-.873-1.313-1.749-2.621A16.822,16.822,0,0,0,57.878,21.2c1.03-.206,2.06-.41,3.09-.619,0-1.143,0-2.283,0-3.426-1.032-.211-2.065-.411-3.1-.624a16.779,16.779,0,0,0-2.12-5.119c.58-.877,1.169-1.747,1.747-2.624q-1.208-1.213-2.422-2.422c-.86.584-1.737,1.143-2.586,1.744a17.973,17.973,0,0,0-5.159-2.118c-.2-1.028-.413-2.055-.617-3.083-1.144,0-2.289-.007-3.433,0m-8.721,32.2c-.5-.487-1-.984-1.492-1.477-4.249,1.695-8.492,3.4-12.741,5.091-.009,1.647,0,3.294-.005,4.943a10.721,10.721,0,0,1,4.052,1.556,10.211,10.211,0,0,1,4.649,8.4c0,1.29.044,2.584-.046,3.872a10.208,10.208,0,0,1-4.3,7.443q-.005,1.063,0,2.125c2.266.5,4.53,1,6.794,1.515a1.606,1.606,0,0,0,.865.014q3.425-.77,6.854-1.526c.007-.714.011-1.429,0-2.143a10.179,10.179,0,0,1-4.08-6.057,22.633,22.633,0,0,1-.267-4.9,10.251,10.251,0,0,1,3.317-7.7,10.367,10.367,0,0,1,5.393-2.591c0-1.974,0-3.948,0-5.922-.884-.007-1.768.011-2.653-.014-.236-1.227-.473-2.454-.742-3.674a18.717,18.717,0,0,1-2.51-1.02c-1.021.7-2.062,1.371-3.083,2.069m15.27-.974c-.309,1.188-.432,2.422-.773,3.6-.87.035-1.742-.007-2.612.018.009,1.972,0,3.945.005,5.917a10.526,10.526,0,0,1,4.194,1.647,10.224,10.224,0,0,1,4.514,8.471A36.185,36.185,0,0,1,55.051,58a10.21,10.21,0,0,1-4.238,6.931q-.016,1.068,0,2.136c2.412.517,4.811,1.1,7.228,1.586,2.438-.469,4.853-1.069,7.284-1.589q0-1.063,0-2.123a10.311,10.311,0,0,1-3.9-5.354,11.617,11.617,0,0,1-.455-3.688,32.012,32.012,0,0,1,.095-3.533,10.265,10.265,0,0,1,3.087-5.975,10.4,10.4,0,0,1,5.527-2.725c-.005-1.647.005-3.3-.007-4.943-4.25-1.687-8.49-3.4-12.739-5.089-.5.494-.988.993-1.491,1.482-1.028-.7-2.067-1.383-3.1-2.076-.8.441-1.7.689-2.508,1.1M18.353,46.494a7.252,7.252,0,0,0-6.305,4.816,15.456,15.456,0,0,0-.431,5.128,7.423,7.423,0,0,0,1.6,4.686,7.243,7.243,0,0,0,12.892-4.372c.025-1.162.049-2.329-.021-3.489a7.244,7.244,0,0,0-7.738-6.769m26.188,0a7.208,7.208,0,0,0-5.2,2.725,7.472,7.472,0,0,0-1.591,4.751c.025,1.73-.162,3.53.478,5.179a7.233,7.233,0,0,0,13.929-1.47,30.683,30.683,0,0,0,.088-4.061,7.291,7.291,0,0,0-2.551-5.409,7.189,7.189,0,0,0-5.149-1.716m26.19,0a7.248,7.248,0,0,0-6.43,4.836,13.456,13.456,0,0,0-.434,4.579,8.172,8.172,0,0,0,.84,4.039,7.234,7.234,0,0,0,5.6,3.853,7.227,7.227,0,0,0,8.037-6.646c.083-1.236.062-2.479.021-3.716a7.247,7.247,0,0,0-7.629-6.945M15.971,66.347a13.762,13.762,0,0,0,.021,1.475,3.368,3.368,0,0,0,3.538,1.765,4,4,0,0,0,2.215-1.753,12.711,12.711,0,0,0,.028-1.487,10.6,10.6,0,0,1-5.8,0m26.125,0c0,.5,0,.993-.005,1.489a3.769,3.769,0,0,0,2.914,1.832,3.773,3.773,0,0,0,2.9-1.833c-.005-.5-.005-.991,0-1.487a10.66,10.66,0,0,1-5.81,0m26.13,0c.063.613-.206,1.361.274,1.854a3.6,3.6,0,0,0,2.514,1.464,3.555,3.555,0,0,0,2.994-1.842,14.265,14.265,0,0,0,.021-1.477,10.6,10.6,0,0,1-5.8,0M6.305,71.539a4.358,4.358,0,0,0-3,2.442,5.825,5.825,0,0,0-.4,2.66c.005,3.484,0,6.968,0,10.452q11.609.005,23.219,0c.009-3.252,0-6.5,0-9.756a11.6,11.6,0,0,1,.36-3.734,7.652,7.652,0,0,1,1.638-2.8q-2.117-.475-4.238-.94a6.424,6.424,0,0,1-4.9,2.705,6.313,6.313,0,0,1-5.129-2.709q-3.781.831-7.557,1.68m26.422-.07a4.659,4.659,0,0,0-2.484,1.3,4.443,4.443,0,0,0-1.209,3.161c-.009,3.718.005,7.436-.007,11.153q15.971.021,31.941.005c-.005-3.781.011-7.56-.007-11.341a4.34,4.34,0,0,0-3.285-4.177c-2.545-.594-5.1-1.134-7.65-1.714a9.15,9.15,0,0,1-1.519,1.489,5.677,5.677,0,0,1-5.3.937,7.309,7.309,0,0,1-3.234-2.431c-2.415.541-4.832,1.074-7.247,1.614M61.87,70.8A7.434,7.434,0,0,1,63.765,74.7a30.568,30.568,0,0,1,.105,3.7c.011,2.9-.025,5.806.016,8.71,7.736-.03,15.472,0,23.207-.014,0-3.774.009-7.548-.005-11.322a4.35,4.35,0,0,0-2.034-3.67,6.319,6.319,0,0,0-2.09-.726c-2.275-.5-4.547-1.013-6.822-1.51a6,6,0,0,1-10.03-.007Q63.989,70.329,61.87,70.8Z" fill="#12263f"/>
      <path id="Path_179501" data-name="Path 179501" d="M206.54,49.766a10.153,10.153,0,1,1-7.648,6.409,10.2,10.2,0,0,1,7.648-6.409m-1.832,3.762a7.246,7.246,0,0,0-2.257,10.357,7.426,7.426,0,0,0,4.491,2.978c.005-1.884,0-3.771,0-5.657q1.45,0,2.9,0c.005,1.886,0,3.772.005,5.658a7.4,7.4,0,0,0,4.964-3.762,7.238,7.238,0,0,0-10.1-9.575Z" transform="translate(-163.394 -40.88)" fill="#12263f"/>
      <path id="Path_179502" data-name="Path 179502" d="M99.09,57.771c.963-.005,1.927.007,2.89-.011.033.97.014,1.941.014,2.911-.969,0-1.935,0-2.9,0Z" transform="translate(-81.672 -47.607)" fill="#12263f"/>
      <path id="Path_179503" data-name="Path 179503" d="M396.362,57.818a23.929,23.929,0,0,1,2.893-.065v2.9c-.967,0-1.935,0-2.9,0C396.356,59.709,396.323,58.762,396.362,57.818Z" transform="translate(-326.673 -47.589)" fill="#12263f"/>
      <path id="Path_179504" data-name="Path 179504" d="M247.746,82.594q1.448,0,2.9,0v2.9q-1.45,0-2.9,0Q247.742,84.042,247.746,82.594Z" transform="translate(-204.195 -68.074)" fill="#12263f"/>
      <path id="Path_179505" data-name="Path 179505" d="M66.06,107.338c.969,0,1.935,0,2.9,0,0,.967,0,1.935,0,2.9-.969,0-1.939,0-2.907,0C66.058,109.275,66.056,108.306,66.06,107.338Z" transform="translate(-54.446 -88.47)" fill="#12263f"/>
      <path id="Path_179506" data-name="Path 179506" d="M99.09,107.34q1.453,0,2.9,0c0,.967,0,1.935,0,2.9-.969,0-1.939,0-2.907,0C99.088,109.277,99.086,108.309,99.09,107.34Z" transform="translate(-81.67 -88.472)" fill="#12263f"/>
      <path id="Path_179507" data-name="Path 179507" d="M396.372,107.342q1.45,0,2.9,0c0,.969,0,1.937,0,2.907-.97,0-1.939,0-2.907,0C396.372,109.277,396.37,108.309,396.372,107.342Z" transform="translate(-326.696 -88.472)" fill="#12263f"/>
      <path id="Path_179508" data-name="Path 179508" d="M429.4,107.34c.967,0,1.935,0,2.9,0,0,.969,0,1.937,0,2.907-.97,0-1.939,0-2.907,0C429.4,109.275,429.4,108.306,429.4,107.34Z" transform="translate(-353.92 -88.47)" fill="#12263f"/>
      <path id="Path_179509" data-name="Path 179509" d="M66.056,156.895c.972.005,1.942-.019,2.914.018-.016.96,0,1.921-.011,2.883-.969,0-1.935,0-2.9,0C66.056,158.827,66.055,157.862,66.056,156.895Z" transform="translate(-54.444 -129.313)" fill="#12263f"/>
      <path id="Path_179510" data-name="Path 179510" d="M99.09,156.9c.969,0,1.939,0,2.907,0,0,.967,0,1.934,0,2.9-.969,0-1.935,0-2.9,0Z" transform="translate(-81.672 -129.32)" fill="#12263f"/>
      <path id="Path_179511" data-name="Path 179511" d="M396.36,156.911c.969-.018,1.939-.007,2.909-.009v2.9c-.969,0-1.937,0-2.9,0C396.358,158.84,396.365,157.875,396.36,156.911Z" transform="translate(-326.687 -129.321)" fill="#12263f"/>
      <path id="Path_179512" data-name="Path 179512" d="M429.4,156.909c.969-.007,1.937,0,2.907,0v2.9c-.969,0-1.935,0-2.9,0C429.4,158.841,429.4,157.874,429.4,156.909Z" transform="translate(-353.918 -129.324)" fill="#12263f"/>
      <path id="Path_179513" data-name="Path 179513" d="M66.06,206.43c.969,0,1.935,0,2.9,0,0,.967,0,1.935,0,2.9-.969.007-1.937,0-2.907,0C66.058,208.367,66.056,207.4,66.06,206.43Z" transform="translate(-54.446 -170.143)" fill="#12263f"/>
      <path id="Path_179514" data-name="Path 179514" d="M429.4,206.415c.965,0,1.932,0,2.9-.005.014.97.005,1.941.007,2.911-.969,0-1.939,0-2.907,0C429.4,208.351,429.4,207.384,429.4,206.415Z" transform="translate(-353.92 -170.127)" fill="#12263f"/>
    </g>
  </g>
</svg>
