<svg xmlns="http://www.w3.org/2000/svg" width="400" height="220" viewBox="0 0 400 220">
  <g id="t5-f2" transform="translate(-3616 4774)">
    <rect id="Rectangle_38466" data-name="Rectangle 38466" width="400" height="220" rx="20" transform="translate(3616 -4774)" fill="#ffbf4d"/>
    <path id="Rectangle_38466_-_Outline" data-name="Rectangle 38466 - Outline" d="M20,3A17,17,0,0,0,3,20V200a17,17,0,0,0,17,17H380a17,17,0,0,0,17-17V20A17,17,0,0,0,380,3H20m0-3H380a20,20,0,0,1,20,20V200a20,20,0,0,1-20,20H20A20,20,0,0,1,0,200V20A20,20,0,0,1,20,0Z" transform="translate(3616 -4774)" fill="#f9b131"/>
    <path id="Path_184784" data-name="Path 184784" d="M44.122,14.176V19H40.694V4.781h5.674a6.608,6.608,0,0,1,2.886.6A4.526,4.526,0,0,1,51.2,7.091a4.667,4.667,0,0,1,.688,2.515A4.114,4.114,0,0,1,50.4,12.931a6.179,6.179,0,0,1-4.087,1.245Zm0-2.646h2.246a2.118,2.118,0,0,0,1.519-.5,1.85,1.85,0,0,0,.522-1.406,2.287,2.287,0,0,0-.537-1.592,1.9,1.9,0,0,0-1.465-.605H44.122Zm15.83-.117-1.084-.078a1.947,1.947,0,0,0-1.992.977V19H53.585V8.434h3.086l.107,1.357a2.548,2.548,0,0,1,2.314-1.553,3.209,3.209,0,0,1,.918.117ZM64.61,19h-3.3V8.434h3.3Zm-3.5-13.3a1.482,1.482,0,0,1,.508-1.159,2.149,2.149,0,0,1,2.637,0A1.482,1.482,0,0,1,64.767,5.7a1.482,1.482,0,0,1-.508,1.159,2.149,2.149,0,0,1-2.637,0A1.482,1.482,0,0,1,61.114,5.7Zm9.736,9.385,1.67-6.65h3.467L72.54,19H69.181L65.733,8.434H69.21ZM82.774,19a3.716,3.716,0,0,1-.312-.947A3.06,3.06,0,0,1,79.923,19.2a3.749,3.749,0,0,1-2.539-.9,2.875,2.875,0,0,1-1.045-2.271,2.955,2.955,0,0,1,1.27-2.6,6.468,6.468,0,0,1,3.691-.879h1.016v-.559q0-1.462-1.26-1.462a1.03,1.03,0,0,0-1.172,1.158H76.593a2.95,2.95,0,0,1,1.3-2.487,5.479,5.479,0,0,1,3.325-.956,4.8,4.8,0,0,1,3.193.986,3.429,3.429,0,0,1,1.2,2.705v4.678a4.79,4.79,0,0,0,.449,2.227V19Zm-2.061-2.148a1.836,1.836,0,0,0,1.021-.264,1.653,1.653,0,0,0,.581-.6V14.3h-.957q-1.719,0-1.719,1.543a.942.942,0,0,0,.3.728A1.1,1.1,0,0,0,80.714,16.852Zm6.309-3.213a6.455,6.455,0,0,1,1.084-3.955,3.568,3.568,0,0,1,3.027-1.445,3.035,3.035,0,0,1,2.383,1.113V4h3.3V19H93.858l-.166-1.133A3.116,3.116,0,0,1,91.114,19.2a3.562,3.562,0,0,1-2.988-1.445A6.659,6.659,0,0,1,87.022,13.639Zm3.291.205q0,2.813,1.641,2.813a1.62,1.62,0,0,0,1.563-.918V11.715a1.576,1.576,0,0,0-1.543-.937q-1.523,0-1.65,2.461ZM104.64,19a3.716,3.716,0,0,1-.312-.947,3.06,3.06,0,0,1-2.539,1.143,3.749,3.749,0,0,1-2.539-.9A2.875,2.875,0,0,1,98.2,16.021a2.955,2.955,0,0,1,1.27-2.6,6.468,6.468,0,0,1,3.691-.879h1.016v-.559q0-1.462-1.26-1.462a1.03,1.03,0,0,0-1.172,1.158H98.458a2.95,2.95,0,0,1,1.3-2.487,5.479,5.479,0,0,1,3.325-.956,4.8,4.8,0,0,1,3.193.986,3.429,3.429,0,0,1,1.2,2.705v4.678a4.79,4.79,0,0,0,.449,2.227V19Zm-2.061-2.148a1.836,1.836,0,0,0,1.021-.264,1.653,1.653,0,0,0,.581-.6V14.3h-.957q-1.719,0-1.719,1.543a.942.942,0,0,0,.3.728A1.1,1.1,0,0,0,102.579,16.852Z" transform="translate(3742 -4603)" fill="#12263f"/>
    <rect id="Rectangle_38468" data-name="Rectangle 38468" width="165" height="1.5" transform="translate(3734 -4626)" fill="#fff"/>
    <g id="Group_118371" data-name="Group 118371" transform="translate(3771 -4737)">
      <path id="Path_175142" data-name="Path 175142" d="M49.663,323.321h5.943a2.41,2.41,0,0,0,2.407-2.407v-6.646a2.41,2.41,0,0,0-2.407-2.407H49.663a2.41,2.41,0,0,0-2.407,2.407v6.646A2.41,2.41,0,0,0,49.663,323.321Zm.23-8.823h5.484v6.187H49.893Z" transform="translate(-38.949 -257.042)" fill="#12263f"/>
      <path id="Path_175143" data-name="Path 175143" d="M150.053,323.321H156a2.41,2.41,0,0,0,2.407-2.407v-6.646A2.41,2.41,0,0,0,156,311.861h-5.943a2.41,2.41,0,0,0-2.407,2.407v6.646A2.41,2.41,0,0,0,150.053,323.321Zm.23-8.823h5.484v6.187h-5.484Z" transform="translate(-121.693 -257.042)" fill="#12263f"/>
      <path id="Path_175144" data-name="Path 175144" d="M250.444,323.321h5.943a2.41,2.41,0,0,0,2.407-2.407v-6.646a2.41,2.41,0,0,0-2.407-2.407h-5.943a2.41,2.41,0,0,0-2.407,2.407v6.646A2.41,2.41,0,0,0,250.444,323.321Zm.23-8.823h5.484v6.187h-5.484Z" transform="translate(-204.437 -257.042)" fill="#12263f"/>
      <path id="Path_175145" data-name="Path 175145" d="M266.754,3.208a6.48,6.48,0,0,0-9.594-1.819,6.5,6.5,0,0,0-8,0,6.458,6.458,0,0,0-6.605-.832,6.353,6.353,0,0,0-3.866,5.907,6.353,6.353,0,0,0,3.865,5.906,6.458,6.458,0,0,0,6.606-.832,6.5,6.5,0,0,0,8.007,0,6.508,6.508,0,0,0,7.356.455,4.88,4.88,0,1,0,2.235-8.78Zm-.816,6.54a2.1,2.1,0,0,0-2.6-.137,3.841,3.841,0,0,1-4.758-.33,2.109,2.109,0,0,0-2.842,0,3.834,3.834,0,0,1-5.166,0,2.1,2.1,0,0,0-2.849.006,3.773,3.773,0,0,1-4.125.66,3.7,3.7,0,0,1-2.28-3.488,3.7,3.7,0,0,1,2.28-3.488,3.765,3.765,0,0,1,4.124.66,2.105,2.105,0,0,0,2.849.006,3.834,3.834,0,0,1,5.165,0,2.107,2.107,0,0,0,2.845,0,3.836,3.836,0,0,1,5.994,1.089,2.1,2.1,0,0,0,2.336,1.127h0a2.243,2.243,0,1,1-.978,3.893Z" transform="translate(-196.728 -0.001)" fill="#12263f"/>
      <path id="Path_175146" data-name="Path 175146" d="M87.408,155.833h-.951V126.81a2.3,2.3,0,0,0-2.3-2.3H80.309l-.523-5.6a1.318,1.318,0,1,0-2.625.245l.5,5.357H65.28L66.728,109h9.485L76.587,113a1.318,1.318,0,0,0,2.625-.245l-1.487-15.94a2.237,2.237,0,0,0,1.333-2.043V91.558a2.238,2.238,0,0,0-2.235-2.235H66.118a2.238,2.238,0,0,0-2.235,2.235v3.215a2.237,2.237,0,0,0,1.333,2.043c-.113,1.208-2.472,26.488-2.584,27.694H59.12v-6.487a2.39,2.39,0,0,0-3.464-2.135l-14.183,7.14v-5.005a2.39,2.39,0,0,0-3.464-2.135l-14.183,7.14v-5.005a2.39,2.39,0,0,0-3.464-2.135L4.859,123.7a2.378,2.378,0,0,0-1.315,2.135v30H2.593A2.6,2.6,0,0,0,0,158.425v2.6a2.6,2.6,0,0,0,2.593,2.592H41.924a1.318,1.318,0,0,0,0-2.637H2.637v-2.516H87.364v2.516H48.076a1.318,1.318,0,0,0,0,2.637H87.408A2.6,2.6,0,0,0,90,161.029v-2.6A2.6,2.6,0,0,0,87.408,155.833ZM66.974,106.359l.225-2.412h8.543l.225,2.412Zm.471-5.049.4-4.3h7.248l.4,4.3Zm-.926-9.351h9.9v2.412h-9.9ZM21.19,155.833H6.18V125.982l15.01-7.556Zm17.647,0H23.827V125.982l15.01-7.556Zm17.647,0H41.474V125.982l15.01-7.556Zm21.542,0H64.915v-2.19h13.11Zm0-4.826H64.915v-2.19h13.11Zm0-4.826H64.915v-2.19h13.11Zm0-4.826H64.915V139.2h13.11Zm.681-4.792H64.234v-2.412H78.707Zm5.114,19.271H80.662V138.566a2.227,2.227,0,0,0,.681-1.6v-3.215a2.238,2.238,0,0,0-2.235-2.235H63.833a2.238,2.238,0,0,0-2.235,2.235v3.215a2.227,2.227,0,0,0,.681,1.6v17.267H59.12V127.148h24.7Z" transform="translate(0 -73.622)" fill="#12263f"/>
    </g>
  </g>
</svg>
