<svg id="t5-g1" xmlns="http://www.w3.org/2000/svg" xmlns:xlink="http://www.w3.org/1999/xlink" width="1023.881" height="360.149" viewBox="0 0 1023.881 360.149">
  <defs>
    <clipPath id="clip-path">
      <rect id="Rectangle_38266" data-name="Rectangle 38266" width="1023.881" height="360.149" fill="none"/>
    </clipPath>
  </defs>
  <g id="Group_118259" data-name="Group 118259" clip-path="url(#clip-path)">
    <path id="Path_183499" data-name="Path 183499" d="M591.4,360.149H494.244a9.621,9.621,0,0,1-9.61-9.61V303.31a9.621,9.621,0,0,1,9.61-9.61H591.4a9.623,9.623,0,0,1,9.612,9.61v47.229a9.622,9.622,0,0,1-9.612,9.61m-97.157-64.7a7.869,7.869,0,0,0-7.86,7.86v47.229a7.869,7.869,0,0,0,7.86,7.86H591.4a7.87,7.87,0,0,0,7.862-7.86V303.31a7.87,7.87,0,0,0-7.862-7.86Z" fill="#ffd48a"/>
    <path id="Path_183500" data-name="Path 183500" d="M597.83,352.132H500.673a8.736,8.736,0,0,1-8.736-8.736V296.168a8.736,8.736,0,0,1,8.736-8.736H597.83a8.736,8.736,0,0,1,8.736,8.736V343.4a8.736,8.736,0,0,1-8.736,8.736" fill="#ffe1ad"/>
    <path id="Path_183501" data-name="Path 183501" d="M597.83,353.006H500.673a9.621,9.621,0,0,1-9.61-9.61V296.168a9.622,9.622,0,0,1,9.61-9.611H597.83a9.623,9.623,0,0,1,9.612,9.611V343.4a9.622,9.622,0,0,1-9.612,9.61m-97.157-64.7a7.869,7.869,0,0,0-7.86,7.861V343.4a7.869,7.869,0,0,0,7.86,7.86H597.83a7.87,7.87,0,0,0,7.862-7.86V296.168a7.87,7.87,0,0,0-7.862-7.861Z" fill="#f9b131"/>
    <path id="Path_183502" data-name="Path 183502" d="M730.215,360.149H633.058a9.621,9.621,0,0,1-9.61-9.61V303.31a9.621,9.621,0,0,1,9.61-9.61h97.157a9.623,9.623,0,0,1,9.612,9.61v47.229a9.622,9.622,0,0,1-9.612,9.61m-97.157-64.7a7.869,7.869,0,0,0-7.86,7.86v47.229a7.869,7.869,0,0,0,7.86,7.86h97.157a7.87,7.87,0,0,0,7.862-7.86V303.31a7.87,7.87,0,0,0-7.862-7.86Z" fill="#ffd48a"/>
    <path id="Path_183503" data-name="Path 183503" d="M736.643,352.132H639.486a8.736,8.736,0,0,1-8.736-8.736V296.168a8.736,8.736,0,0,1,8.736-8.736h97.157a8.736,8.736,0,0,1,8.736,8.736V343.4a8.736,8.736,0,0,1-8.736,8.736" fill="#ffe1ad"/>
    <path id="Path_183504" data-name="Path 183504" d="M736.643,353.006H639.486a9.621,9.621,0,0,1-9.61-9.61V296.168a9.622,9.622,0,0,1,9.61-9.611h97.157a9.623,9.623,0,0,1,9.611,9.611V343.4a9.622,9.622,0,0,1-9.611,9.61m-97.157-64.7a7.869,7.869,0,0,0-7.86,7.861V343.4a7.869,7.869,0,0,0,7.86,7.86h97.157a7.87,7.87,0,0,0,7.861-7.86V296.168a7.87,7.87,0,0,0-7.861-7.861Z" fill="#f9b131"/>
    <path id="Path_183505" data-name="Path 183505" d="M286.319,197.17h-172.2a9.621,9.621,0,0,1-9.61-9.611V150.337a9.621,9.621,0,0,1,9.61-9.61h172.2a9.622,9.622,0,0,1,9.611,9.61v37.222a9.621,9.621,0,0,1-9.611,9.611m-172.2-54.693a7.869,7.869,0,0,0-7.86,7.86v37.222a7.869,7.869,0,0,0,7.86,7.861h172.2a7.869,7.869,0,0,0,7.861-7.861V150.337a7.869,7.869,0,0,0-7.861-7.86Z" fill="#c4fdff"/>
    <path id="Path_183506" data-name="Path 183506" d="M292.748,189.153h-172.2a8.736,8.736,0,0,1-8.736-8.736V143.2a8.736,8.736,0,0,1,8.736-8.736h172.2a8.736,8.736,0,0,1,8.736,8.736v37.221a8.736,8.736,0,0,1-8.736,8.736" fill="#c4fdff"/>
    <path id="Path_183507" data-name="Path 183507" d="M292.748,190.652h-172.2a10.246,10.246,0,0,1-10.235-10.235V143.2a10.247,10.247,0,0,1,10.235-10.236h172.2A10.247,10.247,0,0,1,302.984,143.2v37.222a10.246,10.246,0,0,1-10.236,10.235m-172.2-54.693a7.244,7.244,0,0,0-7.235,7.236v37.222a7.244,7.244,0,0,0,7.235,7.235h172.2a7.244,7.244,0,0,0,7.236-7.235V143.2a7.244,7.244,0,0,0-7.236-7.236Z" fill="#42e0e6"/>
    <path id="Path_183508" data-name="Path 183508" d="M163.145,161.3H157.3v4.355h6.826v1.993h-9.3V153.43h9.229v1.992H157.3v3.926h5.84Z" fill="#12263f"/>
    <path id="Path_183509" data-name="Path 183509" d="M168.315,157.083l.068,1.221a3.8,3.8,0,0,1,3.077-1.416q3.3,0,3.359,3.779v6.982h-2.373V160.8a2.177,2.177,0,0,0-.435-1.49,1.829,1.829,0,0,0-1.421-.483,2.285,2.285,0,0,0-2.138,1.3v7.519h-2.373V157.083Z" fill="#12263f"/>
    <path id="Path_183510" data-name="Path 183510" d="M186.957,165.95a2.147,2.147,0,0,0,1.475-.518,1.771,1.771,0,0,0,.625-1.279h2.236a3.5,3.5,0,0,1-.615,1.841,4.044,4.044,0,0,1-1.563,1.352,4.643,4.643,0,0,1-2.129.5,4.506,4.506,0,0,1-3.515-1.436,5.688,5.688,0,0,1-1.3-3.965V162.2a5.6,5.6,0,0,1,1.289-3.862,4.463,4.463,0,0,1,3.516-1.451,4.344,4.344,0,0,1,3.071,1.1,3.936,3.936,0,0,1,1.245,2.886h-2.236a2.173,2.173,0,0,0-.621-1.494,1.992,1.992,0,0,0-1.479-.586,2.086,2.086,0,0,0-1.777.835,4.259,4.259,0,0,0-.635,2.534v.381a4.334,4.334,0,0,0,.62,2.563,2.084,2.084,0,0,0,1.792.845" fill="#12263f"/>
    <path id="Path_183511" data-name="Path 183511" d="M199.686,166.614a3.681,3.681,0,0,1-2.969,1.23,3.278,3.278,0,0,1-2.6-1,4.282,4.282,0,0,1-.884-2.911v-6.845H195.6V163.9q0,2.012,1.67,2.012a2.345,2.345,0,0,0,2.334-1.24v-7.588h2.373v10.566h-2.236Z" fill="#12263f"/>
    <path id="Path_183512" data-name="Path 183512" d="M209.252,167.845a4.911,4.911,0,0,1-3.657-1.421,5.151,5.151,0,0,1-1.4-3.784v-.293a6.337,6.337,0,0,1,.61-2.827,4.639,4.639,0,0,1,1.714-1.939,4.529,4.529,0,0,1,2.461-.693,4.148,4.148,0,0,1,3.335,1.377,5.823,5.823,0,0,1,1.176,3.9v.957h-6.9a3.169,3.169,0,0,0,.874,2.07,2.625,2.625,0,0,0,1.929.762,3.212,3.212,0,0,0,2.656-1.318l1.279,1.221a4.266,4.266,0,0,1-1.694,1.469,5.294,5.294,0,0,1-2.378.523m-.283-9.053a2,2,0,0,0-1.577.684,3.54,3.54,0,0,0-.767,1.9h4.522V161.2a2.888,2.888,0,0,0-.635-1.8,1.983,1.983,0,0,0-1.543-.61" fill="#12263f"/>
    <path id="Path_183513" data-name="Path 183513" d="M221.454,164.778a1.077,1.077,0,0,0-.522-.967,5.563,5.563,0,0,0-1.734-.586,8.913,8.913,0,0,1-2.021-.644,2.7,2.7,0,0,1-1.778-2.49,2.813,2.813,0,0,1,1.153-2.286,4.555,4.555,0,0,1,2.929-.918,4.742,4.742,0,0,1,3.062.938,2.974,2.974,0,0,1,1.167,2.432h-2.373a1.46,1.46,0,0,0-.508-1.138,1.946,1.946,0,0,0-1.348-.454,2.1,2.1,0,0,0-1.274.361,1.14,1.14,0,0,0-.493.967.962.962,0,0,0,.459.849,6.265,6.265,0,0,0,1.855.611,8.8,8.8,0,0,1,2.193.732,3.1,3.1,0,0,1,1.181,1.021,2.6,2.6,0,0,1,.386,1.445,2.754,2.754,0,0,1-1.182,2.31,5.045,5.045,0,0,1-3.1.883,5.47,5.47,0,0,1-2.315-.468,3.823,3.823,0,0,1-1.582-1.289,3.048,3.048,0,0,1-.566-1.768h2.3a1.676,1.676,0,0,0,.635,1.294,2.466,2.466,0,0,0,1.553.454,2.4,2.4,0,0,0,1.426-.356,1.106,1.106,0,0,0,.488-.933" fill="#12263f"/>
    <path id="Path_183514" data-name="Path 183514" d="M229.027,154.514v2.568h1.865v1.758h-1.865v5.9a1.3,1.3,0,0,0,.239.874,1.114,1.114,0,0,0,.855.268,3.663,3.663,0,0,0,.83-.1v1.835a5.839,5.839,0,0,1-1.563.225q-2.734,0-2.734-3.017V158.84h-1.738v-1.758h1.738v-2.568Z" fill="#12263f"/>
    <path id="Path_183515" data-name="Path 183515" d="M232.908,154.329a1.272,1.272,0,0,1,.347-.915,1.3,1.3,0,0,1,.991-.365,1.315,1.315,0,0,1,1,.365,1.263,1.263,0,0,1,.352.915,1.231,1.231,0,0,1-.352.9,1.327,1.327,0,0,1-1,.359,1.311,1.311,0,0,1-.991-.359,1.239,1.239,0,0,1-.347-.9m2.52,13.32h-2.373V157.083h2.373Z" fill="#12263f"/>
    <path id="Path_183516" data-name="Path 183516" d="M237.766,162.268a6.22,6.22,0,0,1,.616-2.8,4.5,4.5,0,0,1,1.728-1.914,4.87,4.87,0,0,1,2.559-.669,4.614,4.614,0,0,1,3.471,1.377,5.413,5.413,0,0,1,1.441,3.653l.01.556a6.29,6.29,0,0,1-.6,2.793,4.434,4.434,0,0,1-1.719,1.9,4.9,4.9,0,0,1-2.583.674,4.584,4.584,0,0,1-3.579-1.489,5.705,5.705,0,0,1-1.343-3.97Zm2.373.205a4.26,4.26,0,0,0,.674,2.554,2.191,2.191,0,0,0,1.875.923,2.167,2.167,0,0,0,1.87-.938,4.7,4.7,0,0,0,.669-2.744,4.2,4.2,0,0,0-.688-2.539,2.322,2.322,0,0,0-3.716-.015,4.616,4.616,0,0,0-.684,2.759m3.184-9.824h2.705l-2.705,2.959-1.9-.005Z" fill="#12263f"/>
    <path id="Path_183517" data-name="Path 183517" d="M252,157.083l.068,1.221a3.8,3.8,0,0,1,3.077-1.416q3.3,0,3.359,3.779v6.982h-2.373V160.8a2.177,2.177,0,0,0-.435-1.49,1.829,1.829,0,0,0-1.421-.483,2.285,2.285,0,0,0-2.138,1.3v7.519h-2.373V157.083Z" fill="#12263f"/>
    <path id="Path_183518" data-name="Path 183518" d="M106.767,360.149H9.611A9.621,9.621,0,0,1,0,350.539V303.31a9.622,9.622,0,0,1,9.611-9.61h97.156a9.623,9.623,0,0,1,9.612,9.61v47.229a9.622,9.622,0,0,1-9.612,9.61M9.611,295.45a7.869,7.869,0,0,0-7.861,7.86v47.229a7.869,7.869,0,0,0,7.861,7.86h97.156a7.87,7.87,0,0,0,7.862-7.86V303.31a7.87,7.87,0,0,0-7.862-7.86Z" fill="#ffd48a"/>
    <path id="Path_183519" data-name="Path 183519" d="M113.2,352.132H16.039A8.736,8.736,0,0,1,7.3,343.4V296.168a8.736,8.736,0,0,1,8.736-8.736H113.2a8.736,8.736,0,0,1,8.736,8.736V343.4a8.736,8.736,0,0,1-8.736,8.736" fill="#ffe1ad"/>
    <path id="Path_183520" data-name="Path 183520" d="M113.2,353.006H16.039a9.621,9.621,0,0,1-9.61-9.61V296.168a9.622,9.622,0,0,1,9.61-9.611H113.2a9.623,9.623,0,0,1,9.612,9.611V343.4a9.622,9.622,0,0,1-9.612,9.61m-97.157-64.7a7.869,7.869,0,0,0-7.86,7.861V343.4a7.869,7.869,0,0,0,7.86,7.86H113.2a7.87,7.87,0,0,0,7.862-7.86V296.168a7.87,7.87,0,0,0-7.862-7.861Z" fill="#f9b131"/>
    <path id="Path_183521" data-name="Path 183521" d="M39.016,320.268v4.483h-2.1V312.665h4.623a4.668,4.668,0,0,1,3.217,1.056,3.546,3.546,0,0,1,1.192,2.791,3.431,3.431,0,0,1-1.166,2.767,4.9,4.9,0,0,1-3.267.989Zm0-1.693h2.523a2.489,2.489,0,0,0,1.711-.527,1.939,1.939,0,0,0,.589-1.524,2.091,2.091,0,0,0-.6-1.564,2.307,2.307,0,0,0-1.644-.6H39.016Z" fill="#12263f"/>
    <path id="Path_183522" data-name="Path 183522" d="M53.2,323.871a3.128,3.128,0,0,1-2.523,1.046,2.788,2.788,0,0,1-2.212-.855,3.636,3.636,0,0,1-.751-2.473V315.77h2.017v5.794q0,1.709,1.419,1.709a1.994,1.994,0,0,0,1.984-1.053v-6.45h2.017v8.981h-1.9ZM52.044,312h2.3l-2.3,2.516-1.618-.005Z" fill="#12263f"/>
    <path id="Path_183523" data-name="Path 183523" d="M65.255,320.351a5.4,5.4,0,0,1-.934,3.329,3.043,3.043,0,0,1-2.569,1.236,2.932,2.932,0,0,1-2.457-1.136l-.1.97H57.369V312h2.017v4.632a2.92,2.92,0,0,1,2.349-1.029,3.078,3.078,0,0,1,2.581,1.219,5.487,5.487,0,0,1,.939,3.413Zm-2.017-.175a3.8,3.8,0,0,0-.516-2.191,1.711,1.711,0,0,0-1.494-.731,1.873,1.873,0,0,0-1.842,1.147v3.7a1.892,1.892,0,0,0,1.86,1.171,1.7,1.7,0,0,0,1.461-.706,3.7,3.7,0,0,0,.531-2.133Z" fill="#12263f"/>
    <rect id="Rectangle_38260" data-name="Rectangle 38260" width="2.018" height="12.75" transform="translate(67.242 312.001)" fill="#12263f"/>
    <path id="Path_183524" data-name="Path 183524" d="M71.629,313.428a1.083,1.083,0,0,1,.3-.777,1.106,1.106,0,0,1,.843-.311,1.119,1.119,0,0,1,.846.311,1.07,1.07,0,0,1,.3.777,1.049,1.049,0,0,1-.3.766,1.131,1.131,0,0,1-.846.3,1.118,1.118,0,0,1-.843-.3,1.062,1.062,0,0,1-.3-.766m2.142,11.323H71.753V315.77h2.018Z" fill="#12263f"/>
    <path id="Path_183525" data-name="Path 183525" d="M79.825,323.306a1.821,1.821,0,0,0,1.254-.44,1.5,1.5,0,0,0,.531-1.087h1.9a2.966,2.966,0,0,1-.523,1.564,3.426,3.426,0,0,1-1.328,1.15,3.948,3.948,0,0,1-1.81.423,3.828,3.828,0,0,1-2.988-1.22,4.838,4.838,0,0,1-1.1-3.369v-.209a4.763,4.763,0,0,1,1.095-3.283,3.8,3.8,0,0,1,2.989-1.232,3.693,3.693,0,0,1,2.61.933,3.354,3.354,0,0,1,1.058,2.454h-1.9a1.849,1.849,0,0,0-.527-1.271,1.7,1.7,0,0,0-1.258-.5,1.775,1.775,0,0,0-1.51.71,3.627,3.627,0,0,0-.54,2.154v.324a3.675,3.675,0,0,0,.528,2.179,1.77,1.77,0,0,0,1.522.718" fill="#12263f"/>
    <path id="Path_183526" data-name="Path 183526" d="M90.571,324.75a3.12,3.12,0,0,1-.233-.838,3.14,3.14,0,0,1-2.357,1,3.178,3.178,0,0,1-2.209-.771,2.477,2.477,0,0,1-.855-1.91,2.55,2.55,0,0,1,1.067-2.2,5.176,5.176,0,0,1,3.051-.767h1.237v-.59a1.572,1.572,0,0,0-.391-1.116,1.543,1.543,0,0,0-1.187-.419,1.777,1.777,0,0,0-1.129.344,1.066,1.066,0,0,0-.44.876H85.108a2.239,2.239,0,0,1,.49-1.382,3.259,3.259,0,0,1,1.332-1.009,4.693,4.693,0,0,1,1.881-.365,3.766,3.766,0,0,1,2.515.793,2.828,2.828,0,0,1,.963,2.228v4.051a4.591,4.591,0,0,0,.34,1.934v.141ZM88.354,323.3a2.3,2.3,0,0,0,1.125-.29,1.942,1.942,0,0,0,.793-.78v-1.694H89.184a2.965,2.965,0,0,0-1.685.391,1.264,1.264,0,0,0-.565,1.1,1.176,1.176,0,0,0,.387.926,1.49,1.49,0,0,0,1.033.344" fill="#12263f"/>
    <path id="Path_183527" data-name="Path 183527" d="M245.581,360.149H148.424a9.621,9.621,0,0,1-9.61-9.61V303.31a9.621,9.621,0,0,1,9.61-9.61h97.157a9.623,9.623,0,0,1,9.612,9.61v47.229a9.622,9.622,0,0,1-9.612,9.61m-97.157-64.7a7.869,7.869,0,0,0-7.86,7.86v47.229a7.869,7.869,0,0,0,7.86,7.86h97.157a7.87,7.87,0,0,0,7.862-7.86V303.31a7.87,7.87,0,0,0-7.862-7.86Z" fill="#ffd48a"/>
    <path id="Path_183528" data-name="Path 183528" d="M252.01,352.132H154.853a8.736,8.736,0,0,1-8.736-8.736V296.168a8.736,8.736,0,0,1,8.736-8.736H252.01a8.736,8.736,0,0,1,8.736,8.736V343.4a8.736,8.736,0,0,1-8.736,8.736" fill="#ffe1ad"/>
    <path id="Path_183529" data-name="Path 183529" d="M252.009,353.006H154.852a9.621,9.621,0,0,1-9.61-9.61V296.168a9.622,9.622,0,0,1,9.61-9.611h97.157a9.623,9.623,0,0,1,9.611,9.611V343.4a9.622,9.622,0,0,1-9.611,9.61m-97.157-64.7a7.869,7.869,0,0,0-7.86,7.861V343.4a7.869,7.869,0,0,0,7.86,7.86h97.157a7.87,7.87,0,0,0,7.861-7.86V296.168a7.87,7.87,0,0,0-7.861-7.861Z" fill="#f9b131"/>
    <path id="Path_183530" data-name="Path 183530" d="M177.431,320.268v4.483h-2.1V312.665h4.623a4.668,4.668,0,0,1,3.217,1.056,3.546,3.546,0,0,1,1.192,2.791,3.431,3.431,0,0,1-1.166,2.767,4.9,4.9,0,0,1-3.267.989Zm0-1.693h2.523a2.489,2.489,0,0,0,1.711-.527,1.939,1.939,0,0,0,.589-1.524,2.091,2.091,0,0,0-.6-1.564,2.307,2.307,0,0,0-1.644-.6h-2.582Z" fill="#12263f"/>
    <path id="Path_183531" data-name="Path 183531" d="M190.875,317.612a5.029,5.029,0,0,0-.822-.066,1.849,1.849,0,0,0-1.867,1.062v6.143h-2.018v-8.982h1.926l.05,1a2.272,2.272,0,0,1,2.025-1.171,1.9,1.9,0,0,1,.714.116Z" fill="#12263f"/>
    <path id="Path_183532" data-name="Path 183532" d="M192.322,313.428a1.083,1.083,0,0,1,.295-.777,1.107,1.107,0,0,1,.843-.311,1.123,1.123,0,0,1,.847.311,1.073,1.073,0,0,1,.3.777,1.052,1.052,0,0,1-.3.766,1.135,1.135,0,0,1-.847.3,1.119,1.119,0,0,1-.843-.3,1.062,1.062,0,0,1-.295-.766m2.143,11.323h-2.018V315.77h2.018Z" fill="#12263f"/>
    <path id="Path_183533" data-name="Path 183533" d="M200,322.194l1.9-6.425h2.083l-3.112,8.982h-1.752l-3.138-8.982h2.092Z" fill="#12263f"/>
    <path id="Path_183534" data-name="Path 183534" d="M210.651,324.75a3.12,3.12,0,0,1-.233-.838,3.14,3.14,0,0,1-2.357,1,3.178,3.178,0,0,1-2.209-.771,2.477,2.477,0,0,1-.855-1.91,2.55,2.55,0,0,1,1.067-2.2,5.176,5.176,0,0,1,3.051-.767h1.237v-.59a1.572,1.572,0,0,0-.391-1.116,1.543,1.543,0,0,0-1.187-.419,1.777,1.777,0,0,0-1.129.344,1.066,1.066,0,0,0-.44.876h-2.017a2.239,2.239,0,0,1,.49-1.382,3.259,3.259,0,0,1,1.332-1.009,4.693,4.693,0,0,1,1.881-.365,3.766,3.766,0,0,1,2.515.793,2.828,2.828,0,0,1,.963,2.228v4.051a4.591,4.591,0,0,0,.34,1.934v.141Zm-2.217-1.453a2.3,2.3,0,0,0,1.125-.29,1.942,1.942,0,0,0,.793-.78v-1.694h-1.088a2.965,2.965,0,0,0-1.685.391,1.264,1.264,0,0,0-.565,1.1,1.176,1.176,0,0,0,.387.926,1.49,1.49,0,0,0,1.033.344" fill="#12263f"/>
    <path id="Path_183535" data-name="Path 183535" d="M214.273,320.194a5.338,5.338,0,0,1,.963-3.333,3.083,3.083,0,0,1,2.581-1.258,2.933,2.933,0,0,1,2.308,1V312h2.018v12.75h-1.827l-.1-.93a2.974,2.974,0,0,1-2.416,1.1,3.069,3.069,0,0,1-2.553-1.27,5.538,5.538,0,0,1-.975-3.453m2.017.174a3.744,3.744,0,0,0,.527,2.138,1.712,1.712,0,0,0,1.5.767,1.905,1.905,0,0,0,1.81-1.1v-3.834a1.877,1.877,0,0,0-1.793-1.08,1.725,1.725,0,0,0-1.511.776,4.168,4.168,0,0,0-.531,2.337" fill="#12263f"/>
    <path id="Path_183536" data-name="Path 183536" d="M229.783,324.75a3.12,3.12,0,0,1-.233-.838,3.14,3.14,0,0,1-2.357,1,3.178,3.178,0,0,1-2.209-.771,2.477,2.477,0,0,1-.855-1.91,2.55,2.55,0,0,1,1.067-2.2,5.176,5.176,0,0,1,3.051-.767h1.237v-.59a1.572,1.572,0,0,0-.391-1.116,1.543,1.543,0,0,0-1.187-.419,1.777,1.777,0,0,0-1.129.344,1.066,1.066,0,0,0-.44.876H224.32a2.239,2.239,0,0,1,.49-1.382,3.259,3.259,0,0,1,1.332-1.009,4.693,4.693,0,0,1,1.881-.365,3.766,3.766,0,0,1,2.515.793,2.828,2.828,0,0,1,.963,2.228v4.051a4.591,4.591,0,0,0,.34,1.934v.141Zm-2.217-1.453a2.3,2.3,0,0,0,1.125-.29,1.942,1.942,0,0,0,.793-.78v-1.694H228.4a2.965,2.965,0,0,0-1.685.391,1.264,1.264,0,0,0-.565,1.1,1.176,1.176,0,0,0,.387.926,1.49,1.49,0,0,0,1.033.344" fill="#12263f"/>
    <path id="Path_183537" data-name="Path 183537" d="M384.394,360.149H287.237a9.621,9.621,0,0,1-9.61-9.61V303.31a9.621,9.621,0,0,1,9.61-9.61h97.157a9.622,9.622,0,0,1,9.611,9.61v47.229a9.622,9.622,0,0,1-9.611,9.61m-97.157-64.7a7.869,7.869,0,0,0-7.86,7.86v47.229a7.869,7.869,0,0,0,7.86,7.86h97.157a7.87,7.87,0,0,0,7.861-7.86V303.31a7.87,7.87,0,0,0-7.861-7.86Z" fill="#ffd48a"/>
    <path id="Path_183538" data-name="Path 183538" d="M390.823,352.132H293.666a8.736,8.736,0,0,1-8.736-8.736V296.168a8.736,8.736,0,0,1,8.736-8.736h97.157a8.736,8.736,0,0,1,8.736,8.736V343.4a8.736,8.736,0,0,1-8.736,8.736" fill="#ffe1ad"/>
    <path id="Path_183539" data-name="Path 183539" d="M390.823,353.006H293.666a9.621,9.621,0,0,1-9.61-9.61V296.168a9.622,9.622,0,0,1,9.61-9.611h97.157a9.623,9.623,0,0,1,9.611,9.611V343.4a9.622,9.622,0,0,1-9.611,9.61m-97.157-64.7a7.869,7.869,0,0,0-7.86,7.861V343.4a7.869,7.869,0,0,0,7.86,7.86h97.157a7.87,7.87,0,0,0,7.861-7.86V296.168a7.87,7.87,0,0,0-7.861-7.861Z" fill="#f9b131"/>
    <path id="Path_183540" data-name="Path 183540" d="M324.454,312.665l3.486,9.264,3.479-9.264h2.714v12.086h-2.092v-3.984l.208-5.33-3.57,9.314h-1.5l-3.561-9.3.207,5.321v3.984h-2.092V312.665Z" fill="#12263f"/>
    <path id="Path_183541" data-name="Path 183541" d="M336.594,313.428a1.079,1.079,0,0,1,.3-.777,1.1,1.1,0,0,1,.842-.311,1.12,1.12,0,0,1,.847.311,1.074,1.074,0,0,1,.3.777,1.053,1.053,0,0,1-.3.766,1.132,1.132,0,0,1-.847.3,1.117,1.117,0,0,1-.842-.3,1.058,1.058,0,0,1-.3-.766m2.142,11.323h-2.018V315.77h2.018Z" fill="#12263f"/>
    <path id="Path_183542" data-name="Path 183542" d="M344.325,318.724l1.711-2.955h2.24l-2.747,4.425,2.839,4.556h-2.225l-1.793-3.071-1.785,3.071h-2.24l2.838-4.556-2.738-4.425h2.224Z" fill="#12263f"/>
    <path id="Path_183543" data-name="Path 183543" d="M352.348,313.586v2.183h1.586v1.494h-1.586v5.013a1.106,1.106,0,0,0,.2.744.944.944,0,0,0,.726.228,3.086,3.086,0,0,0,.706-.084v1.561a4.943,4.943,0,0,1-1.328.191q-2.325,0-2.325-2.564v-5.089h-1.477v-1.494h1.477v-2.183Z" fill="#12263f"/>
    <path id="Path_183544" data-name="Path 183544" d="M361.011,324.75a3.12,3.12,0,0,1-.233-.838,3.14,3.14,0,0,1-2.357,1,3.178,3.178,0,0,1-2.209-.771,2.477,2.477,0,0,1-.855-1.91,2.55,2.55,0,0,1,1.067-2.2,5.176,5.176,0,0,1,3.051-.767h1.237v-.59a1.572,1.572,0,0,0-.391-1.116,1.543,1.543,0,0,0-1.187-.419,1.777,1.777,0,0,0-1.129.344,1.066,1.066,0,0,0-.44.876h-2.017a2.239,2.239,0,0,1,.49-1.382,3.259,3.259,0,0,1,1.332-1.009,4.693,4.693,0,0,1,1.881-.365,3.766,3.766,0,0,1,2.515.793,2.828,2.828,0,0,1,.963,2.228v4.051a4.591,4.591,0,0,0,.34,1.934v.141Zm-2.217-1.453a2.305,2.305,0,0,0,1.125-.29,1.942,1.942,0,0,0,.793-.78v-1.694h-1.088a2.965,2.965,0,0,0-1.685.391,1.264,1.264,0,0,0-.565,1.1,1.176,1.176,0,0,0,.387.926,1.49,1.49,0,0,0,1.033.344" fill="#12263f"/>
    <path id="Path_183545" data-name="Path 183545" d="M517.06,319.645h-4.865v5.105h-2.1V312.665h7.678v1.693h-5.578v3.594h4.865Z" fill="#12263f"/>
    <path id="Path_183546" data-name="Path 183546" d="M519.411,313.428a1.087,1.087,0,0,1,.295-.777,1.3,1.3,0,0,1,1.69,0,1.073,1.073,0,0,1,.3.777,1.052,1.052,0,0,1-.3.766,1.323,1.323,0,0,1-1.69,0,1.066,1.066,0,0,1-.295-.766m2.143,11.323h-2.018V315.77h2.018Z" fill="#12263f"/>
    <path id="Path_183547" data-name="Path 183547" d="M525.79,315.769l.059,1.038a3.227,3.227,0,0,1,2.615-1.2q2.8,0,2.855,3.212v5.935H529.3v-5.818a1.856,1.856,0,0,0-.369-1.267,1.558,1.558,0,0,0-1.207-.411,1.945,1.945,0,0,0-1.819,1.105v6.391H523.89v-8.981Z" fill="#12263f"/>
    <path id="Path_183548" data-name="Path 183548" d="M538.911,324.75a3.082,3.082,0,0,1-.233-.838,3.14,3.14,0,0,1-2.357,1,3.178,3.178,0,0,1-2.209-.771,2.475,2.475,0,0,1-.856-1.91,2.55,2.55,0,0,1,1.067-2.2,5.176,5.176,0,0,1,3.051-.767h1.238v-.59a1.572,1.572,0,0,0-.391-1.116,1.543,1.543,0,0,0-1.187-.419,1.775,1.775,0,0,0-1.129.344,1.066,1.066,0,0,0-.44.876h-2.017a2.239,2.239,0,0,1,.49-1.382,3.252,3.252,0,0,1,1.332-1.009,4.686,4.686,0,0,1,1.881-.365,3.763,3.763,0,0,1,2.514.793,2.824,2.824,0,0,1,.963,2.228v4.051a4.574,4.574,0,0,0,.341,1.934v.141Zm-2.217-1.453a2.3,2.3,0,0,0,1.125-.29,1.941,1.941,0,0,0,.793-.78v-1.694h-1.088a2.962,2.962,0,0,0-1.685.391,1.262,1.262,0,0,0-.565,1.1,1.176,1.176,0,0,0,.387.926,1.489,1.489,0,0,0,1.033.344" fill="#12263f"/>
    <path id="Path_183549" data-name="Path 183549" d="M544.782,315.769l.059,1.038a3.227,3.227,0,0,1,2.615-1.2q2.8,0,2.855,3.212v5.935h-2.017v-5.818a1.856,1.856,0,0,0-.369-1.267,1.558,1.558,0,0,0-1.207-.411,1.945,1.945,0,0,0-1.819,1.105v6.391h-2.017v-8.981Z" fill="#12263f"/>
    <path id="Path_183550" data-name="Path 183550" d="M556.224,323.306a1.821,1.821,0,0,0,1.254-.44,1.5,1.5,0,0,0,.531-1.087h1.9a2.964,2.964,0,0,1-.522,1.564,3.426,3.426,0,0,1-1.328,1.15,3.949,3.949,0,0,1-1.811.423,3.829,3.829,0,0,1-2.988-1.22,4.838,4.838,0,0,1-1.1-3.369v-.209a4.763,4.763,0,0,1,1.095-3.283,3.8,3.8,0,0,1,2.989-1.232,3.7,3.7,0,0,1,2.611.933,3.353,3.353,0,0,1,1.057,2.454h-1.9a1.84,1.84,0,0,0-.527-1.271,1.694,1.694,0,0,0-1.258-.5,1.775,1.775,0,0,0-1.51.71,3.636,3.636,0,0,0-.539,2.154v.324a3.675,3.675,0,0,0,.528,2.179,1.768,1.768,0,0,0,1.521.718" fill="#12263f"/>
    <path id="Path_183551" data-name="Path 183551" d="M561.606,313.428a1.087,1.087,0,0,1,.295-.777,1.3,1.3,0,0,1,1.69,0,1.074,1.074,0,0,1,.3.777,1.053,1.053,0,0,1-.3.766,1.323,1.323,0,0,1-1.69,0,1.066,1.066,0,0,1-.295-.766m2.143,11.323h-2.018V315.77h2.018Z" fill="#12263f"/>
    <path id="Path_183552" data-name="Path 183552" d="M570.069,324.916a4.167,4.167,0,0,1-3.107-1.208,4.375,4.375,0,0,1-1.192-3.216v-.25a5.383,5.383,0,0,1,.52-2.4,3.947,3.947,0,0,1,1.455-1.648,3.858,3.858,0,0,1,2.092-.589,3.523,3.523,0,0,1,2.836,1.171,4.95,4.95,0,0,1,1,3.311v.814H567.8a2.684,2.684,0,0,0,.744,1.759,2.225,2.225,0,0,0,1.638.648,2.735,2.735,0,0,0,2.258-1.12l1.088,1.037a3.622,3.622,0,0,1-1.441,1.249,4.508,4.508,0,0,1-2.022.444m-.24-7.695a1.7,1.7,0,0,0-1.34.582,3.013,3.013,0,0,0-.652,1.618h3.844v-.149a2.456,2.456,0,0,0-.54-1.531,1.688,1.688,0,0,0-1.312-.52" fill="#12263f"/>
    <path id="Path_183553" data-name="Path 183553" d="M580.11,317.612a5.02,5.02,0,0,0-.822-.066,1.849,1.849,0,0,0-1.867,1.062v6.143H575.4v-8.982h1.926l.051,1a2.27,2.27,0,0,1,2.025-1.171,1.9,1.9,0,0,1,.713.116Z" fill="#12263f"/>
    <path id="Path_183554" data-name="Path 183554" d="M586.673,324.75a3.085,3.085,0,0,1-.233-.838,3.14,3.14,0,0,1-2.357,1,3.178,3.178,0,0,1-2.209-.771,2.475,2.475,0,0,1-.856-1.91,2.55,2.55,0,0,1,1.067-2.2,5.176,5.176,0,0,1,3.051-.767h1.238v-.59a1.572,1.572,0,0,0-.391-1.116,1.543,1.543,0,0,0-1.187-.419,1.775,1.775,0,0,0-1.129.344,1.066,1.066,0,0,0-.44.876H581.21a2.239,2.239,0,0,1,.49-1.382,3.252,3.252,0,0,1,1.332-1.009,4.686,4.686,0,0,1,1.881-.365,3.763,3.763,0,0,1,2.514.793,2.824,2.824,0,0,1,.963,2.228v4.051a4.573,4.573,0,0,0,.341,1.934v.141Zm-2.217-1.453a2.3,2.3,0,0,0,1.125-.29,1.942,1.942,0,0,0,.793-.78v-1.694h-1.088a2.962,2.962,0,0,0-1.685.391,1.262,1.262,0,0,0-.565,1.1,1.176,1.176,0,0,0,.387.926,1.489,1.489,0,0,0,1.033.344" fill="#12263f"/>
    <path id="Path_183555" data-name="Path 183555" d="M869.028,360.149H771.871a9.621,9.621,0,0,1-9.61-9.61V303.31a9.621,9.621,0,0,1,9.61-9.61h97.157a9.622,9.622,0,0,1,9.611,9.61v47.229a9.622,9.622,0,0,1-9.611,9.61m-97.157-64.7a7.869,7.869,0,0,0-7.86,7.86v47.229a7.869,7.869,0,0,0,7.86,7.86h97.157a7.87,7.87,0,0,0,7.861-7.86V303.31a7.87,7.87,0,0,0-7.861-7.86Z" fill="#ffd48a"/>
    <path id="Path_183556" data-name="Path 183556" d="M659.108,320.816a4.374,4.374,0,0,1-1.428,3.018,4.875,4.875,0,0,1-3.312,1.083,4.722,4.722,0,0,1-2.545-.685,4.5,4.5,0,0,1-1.7-1.946,7.031,7.031,0,0,1-.623-2.931v-1.129a7.078,7.078,0,0,1,.607-3.013,4.546,4.546,0,0,1,1.738-2.009,4.857,4.857,0,0,1,2.619-.705,4.673,4.673,0,0,1,3.221,1.083,4.53,4.53,0,0,1,1.42,3.067h-2.092a2.981,2.981,0,0,0-.76-1.88,2.511,2.511,0,0,0-1.789-.577,2.454,2.454,0,0,0-2.1,1,5.01,5.01,0,0,0-.75,2.937V319.2a5.3,5.3,0,0,0,.7,2.991,2.328,2.328,0,0,0,2.055,1.03,2.715,2.715,0,0,0,1.859-.556,2.908,2.908,0,0,0,.789-1.851Z" fill="#12263f"/>
    <path id="Path_183557" data-name="Path 183557" d="M660.581,320.176a5.282,5.282,0,0,1,.524-2.378,3.817,3.817,0,0,1,1.469-1.627,4.134,4.134,0,0,1,2.173-.568,3.919,3.919,0,0,1,2.952,1.171,4.6,4.6,0,0,1,1.224,3.1l.008.474a5.345,5.345,0,0,1-.51,2.374,3.772,3.772,0,0,1-1.461,1.619,4.172,4.172,0,0,1-2.2.572,3.9,3.9,0,0,1-3.043-1.265,4.854,4.854,0,0,1-1.141-3.375Zm2.018.175a3.615,3.615,0,0,0,.572,2.171,2,2,0,0,0,3.184-.013,4,4,0,0,0,.568-2.333,3.566,3.566,0,0,0-.586-2.158,1.971,1.971,0,0,0-3.158-.012,3.925,3.925,0,0,0-.58,2.345" fill="#12263f"/>
    <path id="Path_183558" data-name="Path 183558" d="M672.7,315.769l.059.938a3.23,3.23,0,0,1,2.589-1.1,2.481,2.481,0,0,1,2.465,1.378,3.186,3.186,0,0,1,2.756-1.378,2.805,2.805,0,0,1,2.213.821,3.623,3.623,0,0,1,.742,2.424v5.9h-2.017v-5.843a1.78,1.78,0,0,0-.373-1.254,1.635,1.635,0,0,0-1.237-.4,1.683,1.683,0,0,0-1.125.37,1.94,1.94,0,0,0-.609.967l.008,6.159h-2.018v-5.91a1.439,1.439,0,0,0-1.619-1.586,1.773,1.773,0,0,0-1.717.989v6.507H670.8v-8.981Z" fill="#12263f"/>
    <path id="Path_183559" data-name="Path 183559" d="M689.723,324.916a4.167,4.167,0,0,1-3.107-1.208,4.375,4.375,0,0,1-1.192-3.216v-.25a5.384,5.384,0,0,1,.52-2.4,3.947,3.947,0,0,1,1.455-1.648,3.858,3.858,0,0,1,2.092-.589,3.523,3.523,0,0,1,2.836,1.171,4.95,4.95,0,0,1,1,3.311v.814h-5.869a2.683,2.683,0,0,0,.744,1.759,2.225,2.225,0,0,0,1.638.648,2.735,2.735,0,0,0,2.258-1.12l1.088,1.037a3.622,3.622,0,0,1-1.441,1.249,4.508,4.508,0,0,1-2.022.444m-.24-7.695a1.7,1.7,0,0,0-1.34.582,3.013,3.013,0,0,0-.652,1.618h3.844v-.149a2.456,2.456,0,0,0-.54-1.531,1.688,1.688,0,0,0-1.312-.52" fill="#12263f"/>
    <path id="Path_183560" data-name="Path 183560" d="M699.765,317.612a5.038,5.038,0,0,0-.822-.066,1.849,1.849,0,0,0-1.867,1.062v6.143h-2.018v-8.982h1.926l.049,1a2.273,2.273,0,0,1,2.025-1.171,1.907,1.907,0,0,1,.715.116Z" fill="#12263f"/>
    <path id="Path_183561" data-name="Path 183561" d="M704.739,323.306a1.821,1.821,0,0,0,1.254-.44,1.5,1.5,0,0,0,.531-1.087h1.9a2.964,2.964,0,0,1-.522,1.564,3.427,3.427,0,0,1-1.328,1.15,3.95,3.95,0,0,1-1.811.423,3.828,3.828,0,0,1-2.988-1.22,4.838,4.838,0,0,1-1.1-3.369v-.209a4.763,4.763,0,0,1,1.1-3.283,3.8,3.8,0,0,1,2.989-1.232,3.7,3.7,0,0,1,2.611.933,3.353,3.353,0,0,1,1.057,2.454h-1.9a1.84,1.84,0,0,0-.527-1.271,1.694,1.694,0,0,0-1.258-.5,1.775,1.775,0,0,0-1.51.71,3.635,3.635,0,0,0-.539,2.154v.324a3.675,3.675,0,0,0,.528,2.179,1.768,1.768,0,0,0,1.521.718" fill="#12263f"/>
    <path id="Path_183562" data-name="Path 183562" d="M710.122,313.428a1.087,1.087,0,0,1,.295-.777,1.3,1.3,0,0,1,1.689,0,1.07,1.07,0,0,1,.3.777,1.049,1.049,0,0,1-.3.766,1.322,1.322,0,0,1-1.689,0,1.066,1.066,0,0,1-.295-.766m2.143,11.323h-2.018V315.77h2.018Z" fill="#12263f"/>
    <path id="Path_183563" data-name="Path 183563" d="M720,324.75a1.309,1.309,0,1,0-2.59.166,3.178,3.178,0,0,1-2.209-.771,2.479,2.479,0,0,1-.854-1.91,2.55,2.55,0,0,1,1.067-2.2,5.176,5.176,0,0,1,3.051-.767H719.7v-.59a1.572,1.572,0,0,0-.391-1.116,1.543,1.543,0,0,0-1.187-.419,1.778,1.778,0,0,0-1.129.344,1.066,1.066,0,0,0-.44.876h-2.017a2.239,2.239,0,0,1,.49-1.382,3.266,3.266,0,0,1,1.332-1.009,4.7,4.7,0,0,1,1.881-.365,3.769,3.769,0,0,1,2.516.793,2.831,2.831,0,0,1,.963,2.228v4.051a4.608,4.608,0,0,0,.339,1.934v.141ZM717.78,323.3a2.305,2.305,0,0,0,1.125-.29,1.942,1.942,0,0,0,.793-.78v-1.694H718.61a2.967,2.967,0,0,0-1.685.391,1.266,1.266,0,0,0-.565,1.1,1.176,1.176,0,0,0,.387.926,1.492,1.492,0,0,0,1.033.344" fill="#12263f"/>
    <rect id="Rectangle_38261" data-name="Rectangle 38261" width="2.018" height="12.75" transform="translate(724.126 312.001)" fill="#12263f"/>
    <path id="Path_183564" data-name="Path 183564" d="M875.457,352.132H778.3a8.736,8.736,0,0,1-8.736-8.736V296.168a8.736,8.736,0,0,1,8.736-8.736h97.157a8.736,8.736,0,0,1,8.736,8.736V343.4a8.736,8.736,0,0,1-8.736,8.736" fill="#ffe1ad"/>
    <path id="Path_183565" data-name="Path 183565" d="M875.457,353.006H778.3a9.621,9.621,0,0,1-9.61-9.61V296.168a9.622,9.622,0,0,1,9.61-9.611h97.157a9.623,9.623,0,0,1,9.611,9.611V343.4a9.622,9.622,0,0,1-9.611,9.61m-97.157-64.7a7.869,7.869,0,0,0-7.86,7.861V343.4a7.869,7.869,0,0,0,7.86,7.86h97.157a7.87,7.87,0,0,0,7.861-7.86V296.168a7.87,7.87,0,0,0-7.861-7.861Z" fill="#f9b131"/>
    <path id="Path_183566" data-name="Path 183566" d="M779.848,324.751V312.665h3.571a5.587,5.587,0,0,1,2.841.714,4.849,4.849,0,0,1,1.922,2.025,6.414,6.414,0,0,1,.682,3.005v.605a6.393,6.393,0,0,1-.686,3.022,4.817,4.817,0,0,1-1.951,2.01,5.866,5.866,0,0,1-2.9.705Zm2.1-10.393v8.7h1.371a3.156,3.156,0,0,0,2.535-1.031,4.479,4.479,0,0,0,.9-2.962v-.671a4.6,4.6,0,0,0-.856-3,3.029,3.029,0,0,0-2.48-1.036Z" fill="#12263f"/>
    <path id="Path_183567" data-name="Path 183567" d="M794.885,324.916a4.174,4.174,0,0,1-3.109-1.208,4.382,4.382,0,0,1-1.19-3.216v-.25a5.382,5.382,0,0,1,.518-2.4,3.958,3.958,0,0,1,1.457-1.648,3.849,3.849,0,0,1,2.093-.589,3.518,3.518,0,0,1,2.833,1.171,4.939,4.939,0,0,1,1,3.311v.814h-5.87a2.692,2.692,0,0,0,.742,1.759,2.23,2.23,0,0,0,1.641.648,2.735,2.735,0,0,0,2.257-1.12l1.086,1.037a3.63,3.63,0,0,1-1.439,1.249,4.514,4.514,0,0,1-2.022.444m-.239-7.695a1.7,1.7,0,0,0-1.343.582,3.012,3.012,0,0,0-.649,1.618H796.5v-.149a2.45,2.45,0,0,0-.541-1.531,1.683,1.683,0,0,0-1.31-.52" fill="#12263f"/>
    <path id="Path_183568" data-name="Path 183568" d="M812.491,320.351a5.346,5.346,0,0,1-.946,3.324,3.289,3.289,0,0,1-4.906.271V328.2h-2.017V315.769h1.859l.084.913a2.959,2.959,0,0,1,2.414-1.079,3.063,3.063,0,0,1,2.578,1.224,5.491,5.491,0,0,1,.934,3.4Zm-2.008-.175a3.762,3.762,0,0,0-.535-2.133,1.746,1.746,0,0,0-1.533-.789,1.856,1.856,0,0,0-1.776,1.022v3.984a1.874,1.874,0,0,0,1.793,1.046,1.735,1.735,0,0,0,1.506-.776,4.121,4.121,0,0,0,.545-2.354" fill="#12263f"/>
    <path id="Path_183569" data-name="Path 183569" d="M819.069,317.612a5.019,5.019,0,0,0-.822-.066,1.849,1.849,0,0,0-1.867,1.062v6.143h-2.018v-8.982h1.926l.051,1a2.27,2.27,0,0,1,2.025-1.171,1.9,1.9,0,0,1,.713.116Z" fill="#12263f"/>
    <path id="Path_183570" data-name="Path 183570" d="M819.836,320.176a5.282,5.282,0,0,1,.524-2.378,3.817,3.817,0,0,1,1.469-1.627A4.134,4.134,0,0,1,824,315.6a3.919,3.919,0,0,1,2.952,1.171,4.6,4.6,0,0,1,1.224,3.1l.008.474a5.345,5.345,0,0,1-.51,2.374,3.772,3.772,0,0,1-1.461,1.619,4.172,4.172,0,0,1-2.2.572,3.9,3.9,0,0,1-3.043-1.265,4.854,4.854,0,0,1-1.141-3.375Zm2.018.175a3.615,3.615,0,0,0,.572,2.171,2,2,0,0,0,3.184-.013,4,4,0,0,0,.568-2.333,3.567,3.567,0,0,0-.586-2.158,1.971,1.971,0,0,0-3.158-.012,3.925,3.925,0,0,0-.58,2.345" fill="#12263f"/>
    <path id="Path_183571" data-name="Path 183571" d="M833.753,323.306a1.821,1.821,0,0,0,1.254-.44,1.506,1.506,0,0,0,.531-1.087h1.9a2.967,2.967,0,0,1-.524,1.564,3.426,3.426,0,0,1-1.328,1.15,3.947,3.947,0,0,1-1.809.423,3.829,3.829,0,0,1-2.988-1.22,4.838,4.838,0,0,1-1.1-3.369v-.209a4.763,4.763,0,0,1,1.095-3.283,3.8,3.8,0,0,1,2.989-1.232,3.691,3.691,0,0,1,2.609.933,3.354,3.354,0,0,1,1.059,2.454h-1.9a1.858,1.858,0,0,0-.527-1.271,1.7,1.7,0,0,0-1.258-.5,1.775,1.775,0,0,0-1.51.71,3.62,3.62,0,0,0-.541,2.154v.324a3.676,3.676,0,0,0,.528,2.179,1.772,1.772,0,0,0,1.523.718" fill="#12263f"/>
    <path id="Path_183572" data-name="Path 183572" d="M843.087,324.916a4.167,4.167,0,0,1-3.107-1.208,4.375,4.375,0,0,1-1.192-3.216v-.25a5.383,5.383,0,0,1,.52-2.4,3.947,3.947,0,0,1,1.455-1.648,3.858,3.858,0,0,1,2.092-.589,3.523,3.523,0,0,1,2.836,1.171,4.95,4.95,0,0,1,1,3.311v.814h-5.869a2.684,2.684,0,0,0,.744,1.759,2.225,2.225,0,0,0,1.638.648,2.735,2.735,0,0,0,2.258-1.12l1.088,1.037a3.622,3.622,0,0,1-1.441,1.249,4.509,4.509,0,0,1-2.022.444m-.24-7.695a1.7,1.7,0,0,0-1.34.582,3.013,3.013,0,0,0-.652,1.618H844.7v-.149a2.455,2.455,0,0,0-.54-1.531,1.688,1.688,0,0,0-1.312-.52" fill="#12263f"/>
    <path id="Path_183573" data-name="Path 183573" d="M853.46,322.31a.912.912,0,0,0-.445-.821,4.667,4.667,0,0,0-1.473-.5,7.582,7.582,0,0,1-1.719-.549,2.289,2.289,0,0,1-1.509-2.116,2.394,2.394,0,0,1,.978-1.943,3.869,3.869,0,0,1,2.49-.78,4.026,4.026,0,0,1,2.6.8,2.526,2.526,0,0,1,.992,2.067H853.36a1.248,1.248,0,0,0-.431-.968,1.664,1.664,0,0,0-1.147-.385,1.8,1.8,0,0,0-1.084.306.971.971,0,0,0-.418.823.816.816,0,0,0,.391.722,5.394,5.394,0,0,0,1.576.519,7.483,7.483,0,0,1,1.863.622,2.632,2.632,0,0,1,1,.867,2.213,2.213,0,0,1,.328,1.229,2.34,2.34,0,0,1-1,1.963,4.283,4.283,0,0,1-2.631.751,4.629,4.629,0,0,1-1.967-.4,3.235,3.235,0,0,1-1.346-1.1,2.6,2.6,0,0,1-.48-1.5h1.959a1.42,1.42,0,0,0,.539,1.1,2.1,2.1,0,0,0,1.32.386,2.038,2.038,0,0,0,1.211-.3.939.939,0,0,0,.416-.793" fill="#12263f"/>
    <path id="Path_183574" data-name="Path 183574" d="M856.991,320.176a5.281,5.281,0,0,1,.524-2.378,3.817,3.817,0,0,1,1.469-1.627,4.134,4.134,0,0,1,2.173-.568,3.92,3.92,0,0,1,2.952,1.171,4.6,4.6,0,0,1,1.224,3.1l.008.474a5.345,5.345,0,0,1-.51,2.374,3.772,3.772,0,0,1-1.461,1.619,4.171,4.171,0,0,1-2.2.572,3.9,3.9,0,0,1-3.043-1.265,4.854,4.854,0,0,1-1.141-3.375Zm2.018.175a3.615,3.615,0,0,0,.572,2.171,2,2,0,0,0,3.184-.013,4,4,0,0,0,.568-2.333,3.567,3.567,0,0,0-.586-2.158,1.972,1.972,0,0,0-3.158-.012,3.926,3.926,0,0,0-.58,2.345" fill="#12263f"/>
    <path id="Path_183575" data-name="Path 183575" d="M872.253,322.31a.912.912,0,0,0-.445-.821,4.666,4.666,0,0,0-1.473-.5,7.582,7.582,0,0,1-1.719-.549,2.289,2.289,0,0,1-1.509-2.116,2.394,2.394,0,0,1,.978-1.943,3.869,3.869,0,0,1,2.49-.78,4.026,4.026,0,0,1,2.6.8,2.526,2.526,0,0,1,.992,2.067h-2.016a1.248,1.248,0,0,0-.431-.968,1.664,1.664,0,0,0-1.147-.385,1.8,1.8,0,0,0-1.084.306.971.971,0,0,0-.418.823.816.816,0,0,0,.391.722,5.394,5.394,0,0,0,1.576.519,7.484,7.484,0,0,1,1.863.622,2.632,2.632,0,0,1,1,.867,2.213,2.213,0,0,1,.328,1.229,2.34,2.34,0,0,1-1,1.963,4.283,4.283,0,0,1-2.631.751,4.629,4.629,0,0,1-1.967-.4,3.234,3.234,0,0,1-1.346-1.1,2.6,2.6,0,0,1-.48-1.5h1.959a1.42,1.42,0,0,0,.539,1.1,2.1,2.1,0,0,0,1.32.386,2.038,2.038,0,0,0,1.211-.3.939.939,0,0,0,.416-.793" fill="#12263f"/>
    <path id="Path_183576" data-name="Path 183576" d="M1007.842,360.149H910.685a9.621,9.621,0,0,1-9.61-9.61V303.31a9.621,9.621,0,0,1,9.61-9.61h97.157a9.622,9.622,0,0,1,9.611,9.61v47.229a9.622,9.622,0,0,1-9.611,9.61m-97.157-64.7a7.869,7.869,0,0,0-7.86,7.86v47.229a7.869,7.869,0,0,0,7.86,7.86h97.157a7.87,7.87,0,0,0,7.861-7.86V303.31a7.87,7.87,0,0,0-7.861-7.86Z" fill="#ffd48a"/>
    <path id="Path_183577" data-name="Path 183577" d="M1014.27,352.132H917.113a8.736,8.736,0,0,1-8.736-8.736V296.168a8.736,8.736,0,0,1,8.736-8.736h97.157a8.736,8.736,0,0,1,8.736,8.736V343.4a8.736,8.736,0,0,1-8.736,8.736" fill="#ffe1ad"/>
    <path id="Path_183578" data-name="Path 183578" d="M1014.27,353.006H917.113a9.621,9.621,0,0,1-9.611-9.61V296.168a9.622,9.622,0,0,1,9.611-9.611h97.157a9.623,9.623,0,0,1,9.611,9.611V343.4a9.622,9.622,0,0,1-9.611,9.61m-97.157-64.7a7.869,7.869,0,0,0-7.861,7.861V343.4a7.869,7.869,0,0,0,7.861,7.86h97.157a7.87,7.87,0,0,0,7.861-7.86V296.168a7.87,7.87,0,0,0-7.861-7.861Z" fill="#f9b131"/>
    <path id="Path_183579" data-name="Path 183579" d="M918.557,314.551V302.465h3.57a5.593,5.593,0,0,1,2.842.714,4.861,4.861,0,0,1,1.922,2.025,6.426,6.426,0,0,1,.681,3.005v.6a6.393,6.393,0,0,1-.685,3.022,4.818,4.818,0,0,1-1.951,2.01,5.866,5.866,0,0,1-2.9.7Zm2.1-10.393v8.7h1.37a3.158,3.158,0,0,0,2.536-1.031,4.49,4.49,0,0,0,.9-2.962v-.671a4.6,4.6,0,0,0-.856-3,3.031,3.031,0,0,0-2.481-1.036Z" fill="#12263f"/>
    <path id="Path_183580" data-name="Path 183580" d="M933.594,314.716a4.171,4.171,0,0,1-3.109-1.208,4.379,4.379,0,0,1-1.191-3.216v-.25a5.382,5.382,0,0,1,.519-2.4,3.949,3.949,0,0,1,1.456-1.648,3.856,3.856,0,0,1,2.093-.589,3.52,3.52,0,0,1,2.834,1.171,4.945,4.945,0,0,1,1,3.311v.814h-5.87a2.688,2.688,0,0,0,.743,1.759,2.229,2.229,0,0,0,1.64.648,2.738,2.738,0,0,0,2.258-1.12l1.086,1.037a3.619,3.619,0,0,1-1.44,1.249,4.511,4.511,0,0,1-2.021.444m-.24-7.7a1.7,1.7,0,0,0-1.341.582,3,3,0,0,0-.651,1.618h3.844v-.149a2.462,2.462,0,0,0-.541-1.531,1.687,1.687,0,0,0-1.311-.52" fill="#12263f"/>
    <path id="Path_183581" data-name="Path 183581" d="M948.038,307.412a5.033,5.033,0,0,0-.822-.066,1.849,1.849,0,0,0-1.867,1.062v6.143h-2.018v-8.982h1.926l.05,1.005a2.271,2.271,0,0,1,2.025-1.171,1.9,1.9,0,0,1,.714.116Z" fill="#12263f"/>
    <path id="Path_183582" data-name="Path 183582" d="M953.278,314.716a4.171,4.171,0,0,1-3.108-1.208,4.379,4.379,0,0,1-1.191-3.216v-.25a5.382,5.382,0,0,1,.519-2.4,3.949,3.949,0,0,1,1.456-1.648,3.853,3.853,0,0,1,2.092-.589,3.521,3.521,0,0,1,2.835,1.171,4.945,4.945,0,0,1,1,3.311v.814h-5.869a2.688,2.688,0,0,0,.743,1.759,2.227,2.227,0,0,0,1.639.648,2.735,2.735,0,0,0,2.258-1.12l1.087,1.037a3.626,3.626,0,0,1-1.44,1.249,4.512,4.512,0,0,1-2.022.444m-.24-7.7a1.7,1.7,0,0,0-1.341.582,3.012,3.012,0,0,0-.651,1.618h3.844v-.149a2.456,2.456,0,0,0-.54-1.531,1.688,1.688,0,0,0-1.312-.52" fill="#12263f"/>
    <path id="Path_183583" data-name="Path 183583" d="M962.306,313.106a1.821,1.821,0,0,0,1.254-.44,1.5,1.5,0,0,0,.531-1.087h1.9a2.966,2.966,0,0,1-.523,1.564,3.426,3.426,0,0,1-1.328,1.15,3.948,3.948,0,0,1-1.81.423,3.828,3.828,0,0,1-2.988-1.22,4.838,4.838,0,0,1-1.1-3.369v-.209a4.763,4.763,0,0,1,1.1-3.283,3.8,3.8,0,0,1,2.989-1.232,3.693,3.693,0,0,1,2.61.933,3.354,3.354,0,0,1,1.058,2.454h-1.9a1.849,1.849,0,0,0-.527-1.271,1.7,1.7,0,0,0-1.258-.5,1.775,1.775,0,0,0-1.51.71,3.628,3.628,0,0,0-.54,2.154v.324a3.675,3.675,0,0,0,.528,2.179,1.77,1.77,0,0,0,1.522.718" fill="#12263f"/>
    <path id="Path_183584" data-name="Path 183584" d="M973.126,313.67a3.13,3.13,0,0,1-2.523,1.046,2.785,2.785,0,0,1-2.212-.856,3.632,3.632,0,0,1-.751-2.472v-5.82h2.016v5.794q0,1.71,1.419,1.71a1.994,1.994,0,0,0,1.985-1.053v-6.451h2.017v8.982h-1.9Z" fill="#12263f"/>
    <path id="Path_183585" data-name="Path 183585" d="M982,307.412a5.033,5.033,0,0,0-.822-.066,1.849,1.849,0,0,0-1.867,1.062v6.143H977.3v-8.982h1.926l.05,1.005A2.271,2.271,0,0,1,981.3,305.4a1.9,1.9,0,0,1,.714.116Z" fill="#12263f"/>
    <path id="Path_183586" data-name="Path 183586" d="M988.482,312.11a.913.913,0,0,0-.444-.821,4.676,4.676,0,0,0-1.474-.5,7.617,7.617,0,0,1-1.719-.549,2.291,2.291,0,0,1-1.509-2.116,2.394,2.394,0,0,1,.978-1.943,3.873,3.873,0,0,1,2.49-.78,4.031,4.031,0,0,1,2.6.8,2.529,2.529,0,0,1,.992,2.067h-2.017a1.248,1.248,0,0,0-.431-.968,1.662,1.662,0,0,0-1.147-.385,1.794,1.794,0,0,0-1.083.306.972.972,0,0,0-.419.823.818.818,0,0,0,.391.722,5.394,5.394,0,0,0,1.576.519,7.479,7.479,0,0,1,1.864.622,2.632,2.632,0,0,1,1,.867,2.212,2.212,0,0,1,.328,1.229,2.341,2.341,0,0,1-1,1.963,4.278,4.278,0,0,1-2.631.751,4.632,4.632,0,0,1-1.967-.4,3.241,3.241,0,0,1-1.346-1.1,2.6,2.6,0,0,1-.48-1.5H985a1.42,1.42,0,0,0,.539,1.1,2.1,2.1,0,0,0,1.32.386,2.036,2.036,0,0,0,1.211-.3.939.939,0,0,0,.416-.793" fill="#12263f"/>
    <path id="Path_183587" data-name="Path 183587" d="M992.014,309.976a5.294,5.294,0,0,1,.523-2.378,3.819,3.819,0,0,1,1.47-1.627,4.134,4.134,0,0,1,2.173-.568,3.921,3.921,0,0,1,2.952,1.171,4.6,4.6,0,0,1,1.224,3.1l.008.474a5.345,5.345,0,0,1-.51,2.374,3.785,3.785,0,0,1-1.461,1.619,4.174,4.174,0,0,1-2.2.572,3.9,3.9,0,0,1-3.043-1.265,4.849,4.849,0,0,1-1.141-3.375Zm2.017.175a3.614,3.614,0,0,0,.573,2.171,1.862,1.862,0,0,0,1.594.784,1.842,1.842,0,0,0,1.589-.8,4,4,0,0,0,.569-2.333,3.567,3.567,0,0,0-.586-2.158,1.972,1.972,0,0,0-3.158-.012,3.918,3.918,0,0,0-.581,2.345" fill="#12263f"/>
    <path id="Path_183588" data-name="Path 183588" d="M1007.275,312.11a.913.913,0,0,0-.444-.821,4.675,4.675,0,0,0-1.474-.5,7.618,7.618,0,0,1-1.719-.549,2.291,2.291,0,0,1-1.509-2.116,2.394,2.394,0,0,1,.978-1.943,3.873,3.873,0,0,1,2.49-.78,4.031,4.031,0,0,1,2.6.8,2.529,2.529,0,0,1,.992,2.067h-2.017a1.248,1.248,0,0,0-.431-.968,1.663,1.663,0,0,0-1.147-.385,1.794,1.794,0,0,0-1.083.306.972.972,0,0,0-.419.823.818.818,0,0,0,.391.722,5.392,5.392,0,0,0,1.576.519,7.48,7.48,0,0,1,1.864.622,2.632,2.632,0,0,1,1,.867,2.212,2.212,0,0,1,.328,1.229,2.341,2.341,0,0,1-1,1.963,4.279,4.279,0,0,1-2.631.751,4.632,4.632,0,0,1-1.967-.4,3.241,3.241,0,0,1-1.346-1.1,2.6,2.6,0,0,1-.48-1.5h1.959a1.42,1.42,0,0,0,.539,1.1,2.1,2.1,0,0,0,1.32.386,2.036,2.036,0,0,0,1.211-.3.939.939,0,0,0,.416-.793" fill="#12263f"/>
    <path id="Path_183589" data-name="Path 183589" d="M1011.471,317.273l-1.088-.647a5.888,5.888,0,0,0,.66-1.316,3.944,3.944,0,0,0,.187-1.141V312.6h1.817l-.008,1.453a4.046,4.046,0,0,1-.444,1.764,4.373,4.373,0,0,1-1.124,1.457" fill="#12263f"/>
    <path id="Path_183590" data-name="Path 183590" d="M953.927,335.116a4.171,4.171,0,0,1-3.108-1.208,4.379,4.379,0,0,1-1.191-3.216v-.25a5.383,5.383,0,0,1,.519-2.4,3.949,3.949,0,0,1,1.456-1.648,3.853,3.853,0,0,1,2.092-.589,3.521,3.521,0,0,1,2.835,1.171,4.945,4.945,0,0,1,1,3.311v.814h-5.869a2.688,2.688,0,0,0,.743,1.759,2.227,2.227,0,0,0,1.639.648,2.735,2.735,0,0,0,2.258-1.12l1.087,1.037a3.626,3.626,0,0,1-1.44,1.249,4.512,4.512,0,0,1-2.022.444m-.239-7.7a1.7,1.7,0,0,0-1.342.582,3.012,3.012,0,0,0-.651,1.618h3.844v-.149a2.455,2.455,0,0,0-.54-1.531,1.687,1.687,0,0,0-1.311-.52" fill="#12263f"/>
    <path id="Path_183591" data-name="Path 183591" d="M961.793,323.787v2.183h1.586v1.494h-1.586v5.013a1.107,1.107,0,0,0,.2.744.945.945,0,0,0,.726.228,3.086,3.086,0,0,0,.706-.084v1.561a4.944,4.944,0,0,1-1.328.191q-2.325,0-2.325-2.564v-5.089H958.3V325.97h1.477v-2.183Z" fill="#12263f"/>
    <path id="Path_183592" data-name="Path 183592" d="M968.777,333.506a1.821,1.821,0,0,0,1.254-.44,1.5,1.5,0,0,0,.531-1.087h1.9a2.966,2.966,0,0,1-.523,1.564,3.426,3.426,0,0,1-1.328,1.15,3.948,3.948,0,0,1-1.81.423,3.828,3.828,0,0,1-2.988-1.22,4.838,4.838,0,0,1-1.1-3.369v-.209a4.763,4.763,0,0,1,1.1-3.283,3.8,3.8,0,0,1,2.989-1.232,3.694,3.694,0,0,1,2.61.933,3.354,3.354,0,0,1,1.058,2.454h-1.9a1.849,1.849,0,0,0-.527-1.271,1.7,1.7,0,0,0-1.258-.5,1.775,1.775,0,0,0-1.51.71,3.627,3.627,0,0,0-.54,2.154v.324a3.675,3.675,0,0,0,.528,2.179,1.77,1.77,0,0,0,1.522.718" fill="#12263f"/>
    <path id="Path_183593" data-name="Path 183593" d="M975.414,332.826a1.15,1.15,0,0,1,.871.319,1.112,1.112,0,0,1,.308.8,1.071,1.071,0,0,1-.308.784,1.356,1.356,0,0,1-1.726,0,1.054,1.054,0,0,1-.315-.788,1.111,1.111,0,0,1,.307-.8,1.14,1.14,0,0,1,.863-.319" fill="#12263f"/>
    <path id="Path_183594" data-name="Path 183594" d="M840.359,197.17h-172.2a9.621,9.621,0,0,1-9.61-9.611V150.337a9.622,9.622,0,0,1,9.61-9.61h172.2a9.622,9.622,0,0,1,9.611,9.61v37.222a9.621,9.621,0,0,1-9.611,9.611m-172.2-54.693a7.869,7.869,0,0,0-7.86,7.86v37.222a7.869,7.869,0,0,0,7.86,7.861h172.2a7.869,7.869,0,0,0,7.861-7.861V150.337a7.869,7.869,0,0,0-7.861-7.86Z" fill="#c4fdff"/>
    <path id="Path_183595" data-name="Path 183595" d="M846.788,189.153h-172.2a8.736,8.736,0,0,1-8.736-8.736V143.2a8.736,8.736,0,0,1,8.736-8.736h172.2a8.736,8.736,0,0,1,8.736,8.736v37.221a8.736,8.736,0,0,1-8.736,8.736" fill="#c4fdff"/>
    <path id="Path_183596" data-name="Path 183596" d="M846.788,190.652h-172.2a10.246,10.246,0,0,1-10.236-10.235V143.2a10.247,10.247,0,0,1,10.236-10.236h172.2A10.247,10.247,0,0,1,857.023,143.2v37.222a10.246,10.246,0,0,1-10.235,10.235m-172.2-54.693a7.244,7.244,0,0,0-7.236,7.236v37.222a7.244,7.244,0,0,0,7.236,7.235h172.2a7.244,7.244,0,0,0,7.235-7.235V143.2a7.244,7.244,0,0,0-7.235-7.236Z" fill="#42e0e6"/>
    <path id="Path_183597" data-name="Path 183597" d="M721.456,161.3h-5.84v4.355h6.826v1.993h-9.3V153.43h9.229v1.992h-6.758v3.926h5.84Z" fill="#12263f"/>
    <path id="Path_183598" data-name="Path 183598" d="M726.626,157.083l.068,1.221a3.8,3.8,0,0,1,3.077-1.416q3.3,0,3.359,3.779v6.982h-2.373V160.8a2.182,2.182,0,0,0-.434-1.49,1.831,1.831,0,0,0-1.422-.483,2.285,2.285,0,0,0-2.138,1.3v7.519H724.39V157.083Z" fill="#12263f"/>
    <path id="Path_183599" data-name="Path 183599" d="M743.159,157.083l.068,1.1a3.8,3.8,0,0,1,3.047-1.3,2.923,2.923,0,0,1,2.9,1.621,3.743,3.743,0,0,1,3.242-1.621,3.292,3.292,0,0,1,2.6.966,4.251,4.251,0,0,1,.875,2.852v6.943H753.52v-6.875a2.1,2.1,0,0,0-.439-1.474,1.923,1.923,0,0,0-1.455-.469,1.974,1.974,0,0,0-1.324.435,2.287,2.287,0,0,0-.717,1.137l.01,7.246h-2.374V160.7a1.693,1.693,0,0,0-1.9-1.865,2.088,2.088,0,0,0-2.021,1.162v7.656h-2.373V157.083Z" fill="#12263f"/>
    <path id="Path_183600" data-name="Path 183600" d="M764.842,167.649a3.7,3.7,0,0,1-.273-.986,3.691,3.691,0,0,1-2.773,1.181,3.729,3.729,0,0,1-2.6-.908,2.907,2.907,0,0,1-1.006-2.246,3,3,0,0,1,1.256-2.593,6.081,6.081,0,0,1,3.588-.9h1.455V160.5a1.848,1.848,0,0,0-.459-1.314,1.818,1.818,0,0,0-1.4-.493,2.1,2.1,0,0,0-1.328.4,1.259,1.259,0,0,0-.517,1.03h-2.373a2.642,2.642,0,0,1,.576-1.626,3.838,3.838,0,0,1,1.568-1.186,5.513,5.513,0,0,1,2.211-.43,4.428,4.428,0,0,1,2.959.933,3.327,3.327,0,0,1,1.133,2.622v4.766a5.431,5.431,0,0,0,.4,2.275v.166Zm-2.607-1.709a2.7,2.7,0,0,0,1.324-.342,2.278,2.278,0,0,0,.932-.918v-1.992h-1.279a3.5,3.5,0,0,0-1.983.459,1.491,1.491,0,0,0-.664,1.3,1.388,1.388,0,0,0,.455,1.089,1.757,1.757,0,0,0,1.215.4" fill="#12263f"/>
    <path id="Path_183601" data-name="Path 183601" d="M772.524,154.514v2.568h1.865v1.758h-1.865v5.9a1.308,1.308,0,0,0,.238.874,1.118,1.118,0,0,0,.856.268,3.669,3.669,0,0,0,.83-.1v1.835a5.85,5.85,0,0,1-1.563.225q-2.736,0-2.734-3.017V158.84h-1.738v-1.758h1.738v-2.568Z" fill="#12263f"/>
    <path id="Path_183602" data-name="Path 183602" d="M781.053,167.845a4.907,4.907,0,0,1-3.656-1.421,5.148,5.148,0,0,1-1.4-3.784v-.293a6.311,6.311,0,0,1,.612-2.827,4.628,4.628,0,0,1,1.712-1.939,4.534,4.534,0,0,1,2.461-.693,4.15,4.15,0,0,1,3.336,1.377,5.829,5.829,0,0,1,1.176,3.9v.957h-6.9a3.169,3.169,0,0,0,.875,2.07,2.623,2.623,0,0,0,1.928.762,3.209,3.209,0,0,0,2.656-1.318l1.279,1.221a4.263,4.263,0,0,1-1.693,1.469,5.3,5.3,0,0,1-2.379.523m-.282-9.053a2,2,0,0,0-1.577.684,3.549,3.549,0,0,0-.768,1.9h4.522V161.2a2.882,2.882,0,0,0-.635-1.8,1.98,1.98,0,0,0-1.542-.61" fill="#12263f"/>
    <path id="Path_183603" data-name="Path 183603" d="M792.866,159.251a5.88,5.88,0,0,0-.967-.078,2.176,2.176,0,0,0-2.2,1.25v7.226h-2.373V157.083h2.266l.058,1.182a2.673,2.673,0,0,1,2.383-1.377,2.254,2.254,0,0,1,.84.136Z" fill="#12263f"/>
    <path id="Path_183604" data-name="Path 183604" d="M794.569,154.329a1.279,1.279,0,0,1,.346-.915,1.536,1.536,0,0,1,1.988,0,1.263,1.263,0,0,1,.352.915,1.231,1.231,0,0,1-.352.9,1.556,1.556,0,0,1-1.988,0,1.247,1.247,0,0,1-.346-.9m2.52,13.32h-2.373V157.083h2.373Z" fill="#12263f"/>
    <path id="Path_183605" data-name="Path 183605" d="M806.184,167.649a3.7,3.7,0,0,1-.273-.986,3.691,3.691,0,0,1-2.773,1.181,3.729,3.729,0,0,1-2.6-.908,2.907,2.907,0,0,1-1.006-2.246,3,3,0,0,1,1.256-2.593,6.081,6.081,0,0,1,3.588-.9h1.455V160.5a1.848,1.848,0,0,0-.459-1.314,1.819,1.819,0,0,0-1.4-.493,2.1,2.1,0,0,0-1.328.4,1.26,1.26,0,0,0-.517,1.03h-2.373a2.642,2.642,0,0,1,.576-1.626,3.838,3.838,0,0,1,1.568-1.186,5.512,5.512,0,0,1,2.211-.43,4.428,4.428,0,0,1,2.959.933,3.327,3.327,0,0,1,1.133,2.622v4.766a5.43,5.43,0,0,0,.4,2.275v.166Zm-2.607-1.709a2.7,2.7,0,0,0,1.324-.342,2.278,2.278,0,0,0,.932-.918v-1.992h-1.279a3.5,3.5,0,0,0-1.983.459,1.491,1.491,0,0,0-.664,1.3,1.388,1.388,0,0,0,.455,1.089,1.757,1.757,0,0,0,1.215.4" fill="#12263f"/>
    <path id="Path_183606" data-name="Path 183606" d="M759.278,134.459h-3V101.344H204.931v33.116h-3V98.344H759.278Z" fill="#42e0e6"/>
    <rect id="Rectangle_38262" data-name="Rectangle 38262" width="3" height="43.65" transform="translate(482.319 56.193)" fill="#42e0e6"/>
    <path id="Path_183607" data-name="Path 183607" d="M603.518,64.21H351.264a9.621,9.621,0,0,1-9.611-9.611V17.377a9.622,9.622,0,0,1,9.611-9.61H603.518a9.622,9.622,0,0,1,9.611,9.61V54.6a9.621,9.621,0,0,1-9.611,9.611M351.264,9.517a7.869,7.869,0,0,0-7.861,7.86V54.6a7.869,7.869,0,0,0,7.861,7.861H603.518a7.869,7.869,0,0,0,7.861-7.861V17.377a7.869,7.869,0,0,0-7.861-7.86Z" fill="#c4fdff"/>
    <path id="Path_183608" data-name="Path 183608" d="M609.946,56.193H357.691a8.735,8.735,0,0,1-8.735-8.736V10.236A8.735,8.735,0,0,1,357.691,1.5H609.946a8.736,8.736,0,0,1,8.736,8.736V47.457a8.736,8.736,0,0,1-8.736,8.736" fill="#42e0e6"/>
    <path id="Path_183609" data-name="Path 183609" d="M609.946,57.693H357.692a10.247,10.247,0,0,1-10.236-10.236V10.236A10.247,10.247,0,0,1,357.692,0H609.946a10.248,10.248,0,0,1,10.236,10.236V47.457a10.247,10.247,0,0,1-10.236,10.236M357.692,3a7.244,7.244,0,0,0-7.236,7.236V47.457a7.244,7.244,0,0,0,7.236,7.236H609.946a7.244,7.244,0,0,0,7.236-7.236V10.236A7.244,7.244,0,0,0,609.946,3Z" fill="#0cc0c7"/>
    <path id="Path_183610" data-name="Path 183610" d="M383.779,22.843h-4.355V34.689h-2.93V22.843h-4.3V20.47h11.582Z" fill="#12263f"/>
    <path id="Path_183611" data-name="Path 183611" d="M385.444,21.388a1.39,1.39,0,0,1,.425-1.045,1.832,1.832,0,0,1,2.31,0,1.493,1.493,0,0,1,0,2.1,1.811,1.811,0,0,1-2.3,0,1.384,1.384,0,0,1-.435-1.055m3,13.3H385.61V24.123h2.832Z" fill="#12263f"/>
    <path id="Path_183612" data-name="Path 183612" d="M400.478,29.5a6.333,6.333,0,0,1-1.108,3.91,3.553,3.553,0,0,1-2.993,1.471,3.289,3.289,0,0,1-2.588-1.114v4.981h-2.822V24.123h2.617l.1,1.035a3.319,3.319,0,0,1,2.676-1.23,3.573,3.573,0,0,1,3.037,1.445,6.5,6.5,0,0,1,1.084,3.984Zm-2.822-.215a4.186,4.186,0,0,0-.522-2.283,1.7,1.7,0,0,0-1.519-.8,1.848,1.848,0,0,0-1.826,1.018V31.56a1.877,1.877,0,0,0,1.846,1.049q2.02,0,2.021-3.32" fill="#12263f"/>
    <path id="Path_183613" data-name="Path 183613" d="M401.987,29.308a6.273,6.273,0,0,1,.605-2.8,4.437,4.437,0,0,1,1.743-1.9,5.09,5.09,0,0,1,2.642-.674,4.8,4.8,0,0,1,3.491,1.309,5.249,5.249,0,0,1,1.509,3.554l.019.723a5.516,5.516,0,0,1-1.357,3.9,5.259,5.259,0,0,1-7.29.006,5.62,5.62,0,0,1-1.362-3.984Zm2.822.2a3.954,3.954,0,0,0,.566,2.305,2.035,2.035,0,0,0,3.223.009,4.325,4.325,0,0,0,.576-2.519,3.913,3.913,0,0,0-.576-2.289,1.873,1.873,0,0,0-1.621-.811,1.841,1.841,0,0,0-1.6.807,4.389,4.389,0,0,0-.566,2.5" fill="#12263f"/>
    <path id="Path_183614" data-name="Path 183614" d="M419.657,31.769a.91.91,0,0,0-.513-.816,5.857,5.857,0,0,0-1.645-.532q-3.77-.791-3.77-3.2a2.906,2.906,0,0,1,1.167-2.349,4.716,4.716,0,0,1,3.052-.942,5.065,5.065,0,0,1,3.218.947,2.985,2.985,0,0,1,1.206,2.461H419.55a1.366,1.366,0,0,0-.391-1,1.656,1.656,0,0,0-1.221-.394,1.686,1.686,0,0,0-1.1.322,1.016,1.016,0,0,0-.391.821.868.868,0,0,0,.444.755,4.479,4.479,0,0,0,1.5.5,12.321,12.321,0,0,1,1.778.475,2.92,2.92,0,0,1,2.236,2.842,2.755,2.755,0,0,1-1.24,2.338,5.356,5.356,0,0,1-3.2.894,5.586,5.586,0,0,1-2.359-.474,3.952,3.952,0,0,1-1.616-1.3,3.021,3.021,0,0,1-.586-1.781h2.676a1.477,1.477,0,0,0,.557,1.152,2.21,2.21,0,0,0,1.386.4,2.045,2.045,0,0,0,1.226-.308.958.958,0,0,0,.415-.805" fill="#12263f"/>
    <path id="Path_183615" data-name="Path 183615" d="M429.159,29.328a6.366,6.366,0,0,1,1.108-3.936,3.6,3.6,0,0,1,3.032-1.465,3.232,3.232,0,0,1,2.549,1.153V19.689h2.832v15h-2.549l-.136-1.123a3.322,3.322,0,0,1-2.715,1.318,3.587,3.587,0,0,1-2.993-1.47,6.57,6.57,0,0,1-1.128-4.086m2.822.2a4.19,4.19,0,0,0,.518,2.285,1.685,1.685,0,0,0,1.5.8,1.887,1.887,0,0,0,1.846-1.109V27.31a1.86,1.86,0,0,0-1.826-1.107q-2.04,0-2.041,3.326" fill="#12263f"/>
    <path id="Path_183616" data-name="Path 183616" d="M445.931,34.885a5.193,5.193,0,0,1-3.784-1.426,5.067,5.067,0,0,1-1.46-3.8v-.273a6.39,6.39,0,0,1,.615-2.848,4.53,4.53,0,0,1,1.744-1.934,4.9,4.9,0,0,1,2.573-.677,4.383,4.383,0,0,1,3.413,1.367,5.552,5.552,0,0,1,1.245,3.877v1.152h-6.729a2.625,2.625,0,0,0,.826,1.66,2.5,2.5,0,0,0,1.743.625,3.05,3.05,0,0,0,2.549-1.181l1.386,1.552a4.228,4.228,0,0,1-1.718,1.4,5.633,5.633,0,0,1-2.4.5m-.322-8.682a1.763,1.763,0,0,0-1.362.568,2.935,2.935,0,0,0-.669,1.629H447.5v-.226A2.105,2.105,0,0,0,447,26.717a1.824,1.824,0,0,0-1.387-.514" fill="#12263f"/>
    <path id="Path_183617" data-name="Path 183617" d="M465.472,31.759h-5.137l-.977,2.93h-3.115l5.293-14.219h2.715l5.322,14.219h-3.115Zm-4.346-2.373h3.555l-1.787-5.322Z" fill="#12263f"/>
    <path id="Path_183618" data-name="Path 183618" d="M470.477,29.328a6.366,6.366,0,0,1,1.108-3.936,3.6,3.6,0,0,1,3.032-1.465,3.232,3.232,0,0,1,2.549,1.153V19.689H480v15h-2.549l-.136-1.123a3.322,3.322,0,0,1-2.715,1.318,3.587,3.587,0,0,1-2.993-1.47,6.57,6.57,0,0,1-1.128-4.086m2.822.2a4.19,4.19,0,0,0,.518,2.285,1.685,1.685,0,0,0,1.5.8,1.886,1.886,0,0,0,1.846-1.109V27.31A1.86,1.86,0,0,0,475.34,26.2q-2.04,0-2.041,3.326" fill="#12263f"/>
    <path id="Path_183619" data-name="Path 183619" d="M485.032,24.123l.088,1.182a3.714,3.714,0,0,1,3.037-1.377,2.819,2.819,0,0,1,2.8,1.611,3.628,3.628,0,0,1,3.174-1.611,3.154,3.154,0,0,1,2.558,1,4.6,4.6,0,0,1,.84,3.013v6.748H494.7V27.936a2.014,2.014,0,0,0-.352-1.317,1.555,1.555,0,0,0-1.24-.416,1.761,1.761,0,0,0-1.758,1.213l.01,7.273h-2.822V27.945a2,2,0,0,0-.361-1.332,1.578,1.578,0,0,0-1.231-.41,1.827,1.827,0,0,0-1.738,1v7.488h-2.822V24.123Z" fill="#12263f"/>
    <path id="Path_183620" data-name="Path 183620" d="M499.881,21.388a1.387,1.387,0,0,1,.425-1.045,1.83,1.83,0,0,1,2.309,0,1.491,1.491,0,0,1-.005,2.1,1.811,1.811,0,0,1-2.295,0,1.384,1.384,0,0,1-.434-1.055m3,13.3h-2.832V24.123h2.832Z" fill="#12263f"/>
    <path id="Path_183621" data-name="Path 183621" d="M508,24.123l.088,1.221a3.682,3.682,0,0,1,3.037-1.416,3.064,3.064,0,0,1,2.5.986,4.6,4.6,0,0,1,.84,2.949v6.826h-2.822V27.916a1.832,1.832,0,0,0-.391-1.307,1.746,1.746,0,0,0-1.3-.406,1.942,1.942,0,0,0-1.787,1.018v7.468h-2.822V24.123Z" fill="#12263f"/>
    <path id="Path_183622" data-name="Path 183622" d="M516.784,21.388a1.391,1.391,0,0,1,.425-1.045,1.832,1.832,0,0,1,2.31,0,1.493,1.493,0,0,1-.005,2.1,1.811,1.811,0,0,1-2.295,0,1.385,1.385,0,0,1-.435-1.055m3,13.3H516.95V24.123h2.832Z" fill="#12263f"/>
    <path id="Path_183623" data-name="Path 183623" d="M528.029,31.769a.91.91,0,0,0-.513-.816,5.857,5.857,0,0,0-1.645-.532q-3.77-.791-3.77-3.2a2.906,2.906,0,0,1,1.167-2.349,4.716,4.716,0,0,1,3.052-.942,5.065,5.065,0,0,1,3.218.947,2.985,2.985,0,0,1,1.206,2.461h-2.822a1.366,1.366,0,0,0-.391-1,1.656,1.656,0,0,0-1.221-.394,1.687,1.687,0,0,0-1.1.322,1.016,1.016,0,0,0-.391.821.868.868,0,0,0,.444.755,4.479,4.479,0,0,0,1.5.5,12.32,12.32,0,0,1,1.778.475,2.92,2.92,0,0,1,2.236,2.842,2.755,2.755,0,0,1-1.24,2.338,5.356,5.356,0,0,1-3.2.894,5.586,5.586,0,0,1-2.359-.474,3.951,3.951,0,0,1-1.616-1.3,3.021,3.021,0,0,1-.586-1.781h2.676A1.477,1.477,0,0,0,525,32.482a2.21,2.21,0,0,0,1.386.4,2.045,2.045,0,0,0,1.226-.308.958.958,0,0,0,.415-.805" fill="#12263f"/>
    <path id="Path_183624" data-name="Path 183624" d="M536.169,21.525v2.6h1.807v2.07h-1.807v5.273a1.259,1.259,0,0,0,.225.84,1.132,1.132,0,0,0,.859.254,4.558,4.558,0,0,0,.83-.068V34.63a5.855,5.855,0,0,1-1.709.254q-2.969,0-3.027-3V26.193H531.8v-2.07h1.543v-2.6Z" fill="#12263f"/>
    <path id="Path_183625" data-name="Path 183625" d="M545.685,26.769a7.516,7.516,0,0,0-1.016-.078,2.066,2.066,0,0,0-2.1,1.084v6.914h-2.822V24.123h2.666l.078,1.259a2.613,2.613,0,0,1,2.353-1.455,2.91,2.91,0,0,1,.879.127Z" fill="#12263f"/>
    <path id="Path_183626" data-name="Path 183626" d="M553.072,34.689a3.127,3.127,0,0,1-.283-.947,3.417,3.417,0,0,1-2.666,1.142,3.76,3.76,0,0,1-2.573-.9,2.892,2.892,0,0,1-1.021-2.266,2.983,2.983,0,0,1,1.245-2.578,6.131,6.131,0,0,1,3.6-.908h1.3v-.606a1.74,1.74,0,0,0-.376-1.172,1.484,1.484,0,0,0-1.187-.439,1.675,1.675,0,0,0-1.118.342,1.154,1.154,0,0,0-.405.937h-2.823a2.828,2.828,0,0,1,.567-1.7,3.743,3.743,0,0,1,1.6-1.226,5.863,5.863,0,0,1,2.325-.444,4.606,4.606,0,0,1,3.1.981,3.434,3.434,0,0,1,1.148,2.759v4.58a5.046,5.046,0,0,0,.42,2.276v.166Zm-2.334-1.963a2.434,2.434,0,0,0,1.152-.279,1.829,1.829,0,0,0,.782-.746V29.884h-1.055q-2.12,0-2.256,1.465l-.01.166a1.13,1.13,0,0,0,.371.869,1.445,1.445,0,0,0,1.016.342" fill="#12263f"/>
    <path id="Path_183627" data-name="Path 183627" d="M562.267,32.609a1.86,1.86,0,0,0,1.27-.43,1.5,1.5,0,0,0,.507-1.142h2.647A3.626,3.626,0,0,1,566.1,33a3.865,3.865,0,0,1-1.577,1.386,4.921,4.921,0,0,1-2.212.494,4.583,4.583,0,0,1-3.574-1.441,5.7,5.7,0,0,1-1.309-3.979v-.185a5.632,5.632,0,0,1,1.3-3.9,4.534,4.534,0,0,1,3.564-1.455,4.444,4.444,0,0,1,3.179,1.127,3.994,3.994,0,0,1,1.216,3h-2.647a1.935,1.935,0,0,0-.507-1.34,1.889,1.889,0,0,0-2.779.2,4.161,4.161,0,0,0-.5,2.332v.292a4.215,4.215,0,0,0,.5,2.348,1.72,1.72,0,0,0,1.514.715" fill="#12263f"/>
    <path id="Path_183628" data-name="Path 183628" d="M568.482,21.388a1.391,1.391,0,0,1,.425-1.045,1.832,1.832,0,0,1,2.31,0,1.493,1.493,0,0,1-.005,2.1,1.811,1.811,0,0,1-2.295,0,1.385,1.385,0,0,1-.435-1.055m3,13.3h-2.832V24.123h2.832Z" fill="#12263f"/>
    <path id="Path_183629" data-name="Path 183629" d="M573.565,29.308a6.263,6.263,0,0,1,.606-2.8,4.424,4.424,0,0,1,1.743-1.9,5.086,5.086,0,0,1,2.641-.674,4.811,4.811,0,0,1,3.492,1.309,5.25,5.25,0,0,1,1.508,3.555l.02.722a5.516,5.516,0,0,1-1.358,3.9,5.26,5.26,0,0,1-7.29,0,5.618,5.618,0,0,1-1.362-3.984Zm2.822.2a3.952,3.952,0,0,0,.567,2.305,2.035,2.035,0,0,0,3.222.01,4.328,4.328,0,0,0,.577-2.52,3.913,3.913,0,0,0-.577-2.289,1.87,1.87,0,0,0-1.621-.81,1.839,1.839,0,0,0-1.6.806,4.388,4.388,0,0,0-.567,2.5m2.725-9.818h3.076l-2.705,3.027h-2.295Z" fill="#12263f"/>
    <path id="Path_183630" data-name="Path 183630" d="M588.111,24.123l.088,1.221a3.683,3.683,0,0,1,3.037-1.416,3.064,3.064,0,0,1,2.5.986,4.6,4.6,0,0,1,.84,2.949v6.826h-2.822V27.916a1.832,1.832,0,0,0-.391-1.307,1.746,1.746,0,0,0-1.3-.406,1.942,1.942,0,0,0-1.787,1.018v7.468h-2.822V24.123Z" fill="#12263f"/>
    <path id="Path_183631" data-name="Path 183631" d="M343.244,287.432h-2V242.914H59.189v44.518h-2V240.914H343.244Z" fill="#f9b131"/>
    <path id="Path_183632" data-name="Path 183632" d="M689.065,287.432h-2V242.914H550.252v44.518h-2V240.914H689.065Z" fill="#f9b131"/>
    <path id="Path_183633" data-name="Path 183633" d="M966.691,287.432h-2V242.914H827.878v44.518h-2V240.914H966.691Z" fill="#f9b131"/>
    <rect id="Rectangle_38263" data-name="Rectangle 38263" width="2" height="98.279" transform="translate(202.432 189.153)" fill="#f9b131"/>
    <line id="Line_516" data-name="Line 516" x2="138.813" transform="translate(688.065 241.914)" fill="#ffe1ad"/>
    <rect id="Rectangle_38264" data-name="Rectangle 38264" width="138.812" height="2" transform="translate(688.066 240.915)" fill="#f9b131"/>
    <line id="Line_517" data-name="Line 517" y2="44.647" transform="translate(757.779 197.267)" fill="#ffe1ad"/>
    <rect id="Rectangle_38265" data-name="Rectangle 38265" width="2" height="44.647" transform="translate(756.778 197.268)" fill="#f9b131"/>
  </g>
</svg>
