<svg xmlns="http://www.w3.org/2000/svg" width="820" height="291" viewBox="0 0 820 291">
  <g id="t5-i2" transform="translate(-5950 11140)">
    <path id="Path_182256" data-name="Path 182256" d="M18.161,0H801.838A18.161,18.161,0,0,1,820,18.161V272.839A18.161,18.161,0,0,1,801.838,291H18.161A18.161,18.161,0,0,1,0,272.839V18.161A18.161,18.161,0,0,1,18.161,0" transform="translate(5950 -11140)" fill="#f6f6eb" opacity="0.4"/>
    <path id="Path_182257" data-name="Path 182257" d="M389.574,68.151h-275.7a8.736,8.736,0,0,1-8.736-8.736V27.2a8.736,8.736,0,0,1,8.736-8.736h275.7A8.736,8.736,0,0,1,398.31,27.2V59.415a8.736,8.736,0,0,1-8.736,8.736" transform="translate(5950 -11140)" fill="#e8feff"/>
    <path id="Rectangle_38187" data-name="Rectangle 38187" d="M8.736-1.5h275.7A10.248,10.248,0,0,1,294.672,8.736V40.954A10.248,10.248,0,0,1,284.436,51.19H8.736A10.248,10.248,0,0,1-1.5,40.954V8.736A10.248,10.248,0,0,1,8.736-1.5Zm275.7,49.69a7.244,7.244,0,0,0,7.236-7.236V8.736A7.244,7.244,0,0,0,284.436,1.5H8.736A7.244,7.244,0,0,0,1.5,8.736V40.954A7.244,7.244,0,0,0,8.736,48.19Z" transform="translate(6055.138 -11121.539)" fill="#0cc0c7"/>
    <path id="Path_182258" data-name="Path 182258" d="M795.432,68.151H574.427a8.736,8.736,0,0,1-8.736-8.736V27.2a8.736,8.736,0,0,1,8.736-8.736H795.432a8.736,8.736,0,0,1,8.736,8.736V59.415a8.736,8.736,0,0,1-8.736,8.736" transform="translate(5950 -11140)" fill="#e8feff"/>
    <path id="Rectangle_38188" data-name="Rectangle 38188" d="M8.736-1.5h221A10.248,10.248,0,0,1,239.977,8.736V40.954A10.248,10.248,0,0,1,229.741,51.19H8.736A10.248,10.248,0,0,1-1.5,40.954V8.736A10.248,10.248,0,0,1,8.736-1.5ZM229.741,48.19a7.244,7.244,0,0,0,7.236-7.236V8.736A7.244,7.244,0,0,0,229.741,1.5h-221A7.244,7.244,0,0,0,1.5,8.736V40.954A7.244,7.244,0,0,0,8.736,48.19Z" transform="translate(6515.691 -11121.539)" fill="#0cc0c7"/>
    <path id="Path_182259" data-name="Path 182259" d="M174.2,43h-5.062v3.445h5.941v2.118H166.5v-12.8h8.56v2.135h-5.923v3.05H174.2Z" transform="translate(5950 -11140)" fill="#12263f"/>
    <path id="Path_182260" data-name="Path 182260" d="M181.788,45.939a.814.814,0,0,0-.462-.733,5.232,5.232,0,0,0-1.48-.48q-3.393-.711-3.393-2.883a2.614,2.614,0,0,1,1.051-2.114,4.241,4.241,0,0,1,2.746-.848,4.563,4.563,0,0,1,2.9.853,2.688,2.688,0,0,1,1.085,2.215h-2.54a1.234,1.234,0,0,0-.351-.9,1.5,1.5,0,0,0-1.1-.355,1.521,1.521,0,0,0-.993.29.916.916,0,0,0-.352.738.78.78,0,0,0,.4.681,4.07,4.07,0,0,0,1.348.449,11.066,11.066,0,0,1,1.6.426,2.628,2.628,0,0,1,2.013,2.558,2.478,2.478,0,0,1-1.116,2.1,4.813,4.813,0,0,1-2.883.805,5.041,5.041,0,0,1-2.122-.426,3.541,3.541,0,0,1-1.455-1.17,2.71,2.71,0,0,1-.528-1.6h2.408a1.331,1.331,0,0,0,.5,1.038,1.99,1.99,0,0,0,1.248.36,1.849,1.849,0,0,0,1.1-.276.865.865,0,0,0,.374-.726" transform="translate(5950 -11140)" fill="#12263f"/>
    <path id="Path_182261" data-name="Path 182261" d="M189.114,36.719v2.338h1.626V40.92h-1.626v4.746a1.131,1.131,0,0,0,.2.756,1.018,1.018,0,0,0,.774.229,4.052,4.052,0,0,0,.747-.062v1.925a5.241,5.241,0,0,1-1.538.228,2.425,2.425,0,0,1-2.725-2.7V40.92h-1.389V39.057h1.389V36.719Z" transform="translate(5950 -11140)" fill="#12263f"/>
    <path id="Path_182262" data-name="Path 182262" d="M197.679,41.439a6.873,6.873,0,0,0-.914-.07,1.861,1.861,0,0,0-1.89.975v6.223h-2.54v-9.51h2.4l.07,1.134a2.354,2.354,0,0,1,2.118-1.31,2.636,2.636,0,0,1,.791.115Z" transform="translate(5950 -11140)" fill="#12263f"/>
    <path id="Path_182263" data-name="Path 182263" d="M204.775,47.6a3.185,3.185,0,0,1-2.6,1.143,3,3,0,0,1-2.333-.879,3.751,3.751,0,0,1-.822-2.576V39.057h2.54v6.15q0,1.488,1.354,1.488a1.833,1.833,0,0,0,1.775-.9v-6.74h2.549v9.51h-2.391Z" transform="translate(5950 -11140)" fill="#12263f"/>
    <path id="Path_182264" data-name="Path 182264" d="M213.288,46.695a1.666,1.666,0,0,0,1.143-.387,1.355,1.355,0,0,0,.457-1.028h2.381a3.252,3.252,0,0,1-.527,1.771,3.475,3.475,0,0,1-1.42,1.248,4.448,4.448,0,0,1-1.99.444,4.127,4.127,0,0,1-3.217-1.3,5.128,5.128,0,0,1-1.178-3.581V43.7a5.073,5.073,0,0,1,1.169-3.507,4.082,4.082,0,0,1,3.208-1.309,4,4,0,0,1,2.862,1.015,3.6,3.6,0,0,1,1.093,2.7h-2.381a1.747,1.747,0,0,0-.457-1.206,1.7,1.7,0,0,0-2.5.183,3.75,3.75,0,0,0-.453,2.1v.265a3.791,3.791,0,0,0,.449,2.112,1.548,1.548,0,0,0,1.362.643" transform="translate(5950 -11140)" fill="#12263f"/>
    <path id="Path_182265" data-name="Path 182265" d="M221.941,36.719v2.338h1.626V40.92h-1.626v4.746a1.131,1.131,0,0,0,.2.756,1.018,1.018,0,0,0,.774.229,4.052,4.052,0,0,0,.747-.062v1.925a5.241,5.241,0,0,1-1.538.228,2.425,2.425,0,0,1-2.725-2.7V40.92h-1.389V39.057H219.4V36.719Z" transform="translate(5950 -11140)" fill="#12263f"/>
    <path id="Path_182266" data-name="Path 182266" d="M230.857,47.6a3.185,3.185,0,0,1-2.6,1.143,3,3,0,0,1-2.333-.879,3.751,3.751,0,0,1-.822-2.576V39.057h2.54v6.15q0,1.488,1.354,1.488a1.833,1.833,0,0,0,1.775-.9v-6.74h2.549v9.51h-2.391Z" transform="translate(5950 -11140)" fill="#12263f"/>
    <path id="Path_182267" data-name="Path 182267" d="M240.758,41.439a6.873,6.873,0,0,0-.914-.07,1.861,1.861,0,0,0-1.89.975v6.223h-2.54v-9.51h2.4l.07,1.134A2.354,2.354,0,0,1,240,38.881a2.636,2.636,0,0,1,.791.115Z" transform="translate(5950 -11140)" fill="#12263f"/>
    <path id="Path_182268" data-name="Path 182268" d="M247.407,48.567a2.783,2.783,0,0,1-.255-.853,3.073,3.073,0,0,1-2.4,1.028,3.377,3.377,0,0,1-2.316-.808,2.6,2.6,0,0,1-.918-2.039,2.686,2.686,0,0,1,1.121-2.321,5.526,5.526,0,0,1,3.238-.817h1.169v-.545a1.567,1.567,0,0,0-.339-1.055,1.331,1.331,0,0,0-1.067-.4,1.51,1.51,0,0,0-1.007.308,1.044,1.044,0,0,0-.364.843h-2.54a2.552,2.552,0,0,1,.51-1.529,3.365,3.365,0,0,1,1.441-1.1,5.262,5.262,0,0,1,2.092-.4,4.159,4.159,0,0,1,2.791.883,3.1,3.1,0,0,1,1.032,2.483v4.122a4.548,4.548,0,0,0,.378,2.048v.15Zm-2.1-1.767a2.175,2.175,0,0,0,1.037-.251,1.635,1.635,0,0,0,.7-.672V44.242H246.1q-1.906,0-2.03,1.319l-.009.149a1.014,1.014,0,0,0,.334.782,1.3,1.3,0,0,0,.914.308" transform="translate(5950 -11140)" fill="#12263f"/>
    <path id="Path_182269" data-name="Path 182269" d="M257.083,48.567V40.921h-1.415V39.057h1.415v-.808A3.282,3.282,0,0,1,258,35.766a3.553,3.553,0,0,1,2.571-.884,5.994,5.994,0,0,1,1.292.174l-.026,1.953a3.281,3.281,0,0,0-.774-.079q-1.432,0-1.432,1.357v.77h1.889v1.864h-1.889v7.646Z" transform="translate(5950 -11140)" fill="#12263f"/>
    <path id="Path_182270" data-name="Path 182270" d="M263,36.6a1.252,1.252,0,0,1,.382-.94,1.649,1.649,0,0,1,2.079,0,1.34,1.34,0,0,1-.005,1.889,1.624,1.624,0,0,1-2.064,0A1.242,1.242,0,0,1,263,36.6m2.7,11.971h-2.549v-9.51H265.7Z" transform="translate(5950 -11140)" fill="#12263f"/>
    <path id="Path_182271" data-name="Path 182271" d="M270.31,39.057l.079,1.1a3.321,3.321,0,0,1,2.734-1.275,2.758,2.758,0,0,1,2.249.888,4.132,4.132,0,0,1,.756,2.654v6.144h-2.54v-6.1a1.658,1.658,0,0,0-.351-1.177,1.575,1.575,0,0,0-1.169-.365,1.749,1.749,0,0,0-1.609.916v6.722h-2.54v-9.51Z" transform="translate(5950 -11140)" fill="#12263f"/>
    <path id="Path_182272" data-name="Path 182272" d="M283.744,48.567a2.783,2.783,0,0,1-.255-.853,3.073,3.073,0,0,1-2.4,1.028,3.377,3.377,0,0,1-2.316-.808,2.6,2.6,0,0,1-.918-2.039,2.686,2.686,0,0,1,1.121-2.321,5.526,5.526,0,0,1,3.238-.817h1.169v-.545a1.568,1.568,0,0,0-.339-1.055,1.331,1.331,0,0,0-1.067-.4,1.51,1.51,0,0,0-1.007.308,1.044,1.044,0,0,0-.364.843h-2.54a2.552,2.552,0,0,1,.51-1.529,3.365,3.365,0,0,1,1.441-1.1,5.262,5.262,0,0,1,2.092-.4,4.158,4.158,0,0,1,2.791.883,3.1,3.1,0,0,1,1.032,2.483v4.122a4.548,4.548,0,0,0,.378,2.048v.15Zm-2.1-1.767a2.175,2.175,0,0,0,1.037-.251,1.635,1.635,0,0,0,.7-.672V44.242h-.949q-1.906,0-2.03,1.319l-.009.149a1.014,1.014,0,0,0,.334.782,1.3,1.3,0,0,0,.914.308" transform="translate(5950 -11140)" fill="#12263f"/>
    <path id="Path_182273" data-name="Path 182273" d="M290.4,39.057l.079,1.1a3.321,3.321,0,0,1,2.734-1.275,2.758,2.758,0,0,1,2.249.888,4.132,4.132,0,0,1,.756,2.654v6.144h-2.54v-6.1a1.658,1.658,0,0,0-.351-1.177,1.576,1.576,0,0,0-1.169-.365,1.749,1.749,0,0,0-1.609.916v6.722h-2.54v-9.51Z" transform="translate(5950 -11140)" fill="#12263f"/>
    <path id="Path_182274" data-name="Path 182274" d="M302.279,46.695a1.666,1.666,0,0,0,1.143-.387,1.355,1.355,0,0,0,.457-1.028h2.381a3.252,3.252,0,0,1-.527,1.771,3.475,3.475,0,0,1-1.42,1.248,4.448,4.448,0,0,1-1.99.444,4.127,4.127,0,0,1-3.217-1.3,5.128,5.128,0,0,1-1.178-3.581V43.7a5.073,5.073,0,0,1,1.169-3.507,4.082,4.082,0,0,1,3.208-1.309,4,4,0,0,1,2.862,1.015,3.6,3.6,0,0,1,1.093,2.7h-2.381a1.747,1.747,0,0,0-.457-1.206,1.7,1.7,0,0,0-2.5.183,3.75,3.75,0,0,0-.453,2.1v.265a3.792,3.792,0,0,0,.449,2.112,1.548,1.548,0,0,0,1.362.643" transform="translate(5950 -11140)" fill="#12263f"/>
    <path id="Path_182275" data-name="Path 182275" d="M307.873,36.6a1.253,1.253,0,0,1,.382-.94,1.649,1.649,0,0,1,2.079,0,1.34,1.34,0,0,1-.005,1.889,1.624,1.624,0,0,1-2.064,0,1.242,1.242,0,0,1-.392-.949m2.7,11.971h-2.549v-9.51h2.549Z" transform="translate(5950 -11140)" fill="#12263f"/>
    <path id="Path_182276" data-name="Path 182276" d="M317.221,48.742a4.664,4.664,0,0,1-3.4-1.283A4.557,4.557,0,0,1,312.5,44.04v-.246a5.743,5.743,0,0,1,.554-2.561,4.068,4.068,0,0,1,1.569-1.741,4.4,4.4,0,0,1,2.316-.611,3.941,3.941,0,0,1,3.071,1.231,4.994,4.994,0,0,1,1.121,3.489v1.037h-6.055a2.355,2.355,0,0,0,.743,1.494,2.241,2.241,0,0,0,1.568.563,2.742,2.742,0,0,0,2.294-1.064l1.248,1.4a3.794,3.794,0,0,1-1.547,1.26,5.07,5.07,0,0,1-2.162.453m-.29-7.813a1.591,1.591,0,0,0-1.227.512,2.658,2.658,0,0,0-.6,1.466h3.533v-.2a1.888,1.888,0,0,0-.457-1.31,1.634,1.634,0,0,0-1.248-.464" transform="translate(5950 -11140)" fill="#12263f"/>
    <path id="Path_182277" data-name="Path 182277" d="M328.1,41.439a6.872,6.872,0,0,0-.914-.07,1.861,1.861,0,0,0-1.89.975v6.223h-2.54v-9.51h2.4l.07,1.134a2.354,2.354,0,0,1,2.118-1.31,2.636,2.636,0,0,1,.791.115Z" transform="translate(5950 -11140)" fill="#12263f"/>
    <path id="Path_182278" data-name="Path 182278" d="M334.746,48.567a2.783,2.783,0,0,1-.255-.853,3.073,3.073,0,0,1-2.4,1.028,3.377,3.377,0,0,1-2.316-.808,2.6,2.6,0,0,1-.918-2.039,2.686,2.686,0,0,1,1.121-2.321,5.526,5.526,0,0,1,3.238-.817h1.169v-.545a1.567,1.567,0,0,0-.339-1.055,1.331,1.331,0,0,0-1.067-.4,1.51,1.51,0,0,0-1.007.308,1.044,1.044,0,0,0-.364.843h-2.54a2.552,2.552,0,0,1,.51-1.529,3.365,3.365,0,0,1,1.441-1.1,5.262,5.262,0,0,1,2.092-.4,4.159,4.159,0,0,1,2.791.883,3.1,3.1,0,0,1,1.032,2.483v4.122a4.549,4.549,0,0,0,.378,2.048v.15Zm-2.1-1.767a2.175,2.175,0,0,0,1.037-.251,1.635,1.635,0,0,0,.7-.672V44.242h-.949q-1.906,0-2.03,1.319l-.009.149a1.014,1.014,0,0,0,.334.782,1.3,1.3,0,0,0,.914.308" transform="translate(5950 -11140)" fill="#12263f"/>
    <path id="Path_182279" data-name="Path 182279" d="M603.461,43H598.4v3.445h5.941v2.118h-8.578V35.77h8.56V37.9H598.4v3.05h5.062Z" transform="translate(5950 -11140)" fill="#12263f"/>
    <path id="Path_182280" data-name="Path 182280" d="M611.049,45.938a.813.813,0,0,0-.461-.733,5.232,5.232,0,0,0-1.48-.48q-3.393-.711-3.393-2.883a2.614,2.614,0,0,1,1.051-2.114,4.241,4.241,0,0,1,2.746-.848,4.563,4.563,0,0,1,2.9.853,2.687,2.687,0,0,1,1.084,2.215h-2.539a1.234,1.234,0,0,0-.351-.9,1.5,1.5,0,0,0-1.1-.355,1.518,1.518,0,0,0-.992.29.916.916,0,0,0-.352.738.78.78,0,0,0,.4.681,4.062,4.062,0,0,0,1.347.449,11.064,11.064,0,0,1,1.6.426,2.629,2.629,0,0,1,2.014,2.558,2.479,2.479,0,0,1-1.117,2.1,4.813,4.813,0,0,1-2.883.805,5.036,5.036,0,0,1-2.121-.426,3.541,3.541,0,0,1-1.455-1.17,2.71,2.71,0,0,1-.528-1.6h2.408a1.331,1.331,0,0,0,.5,1.038,1.99,1.99,0,0,0,1.248.36,1.855,1.855,0,0,0,1.1-.276.867.867,0,0,0,.373-.726" transform="translate(5950 -11140)" fill="#12263f"/>
    <path id="Path_182281" data-name="Path 182281" d="M618.375,36.718v2.338H620v1.863h-1.627v4.746a1.131,1.131,0,0,0,.2.756,1.018,1.018,0,0,0,.774.229,4.041,4.041,0,0,0,.746-.062v1.925a5.235,5.235,0,0,1-1.537.228,2.425,2.425,0,0,1-2.725-2.7V40.919h-1.389V39.056h1.389V36.718Z" transform="translate(5950 -11140)" fill="#12263f"/>
    <path id="Path_182282" data-name="Path 182282" d="M626.94,41.438a6.873,6.873,0,0,0-.914-.07,1.86,1.86,0,0,0-1.889.975v6.223H621.6v-9.51H624l.07,1.134a2.353,2.353,0,0,1,2.117-1.31,2.635,2.635,0,0,1,.791.115Z" transform="translate(5950 -11140)" fill="#12263f"/>
    <path id="Path_182283" data-name="Path 182283" d="M634.037,47.6a3.185,3.185,0,0,1-2.6,1.143,3.006,3.006,0,0,1-2.334-.879,3.751,3.751,0,0,1-.822-2.576V39.056h2.541v6.15q0,1.488,1.354,1.488a1.833,1.833,0,0,0,1.775-.9v-6.74H636.5v9.51h-2.391Z" transform="translate(5950 -11140)" fill="#12263f"/>
    <path id="Path_182284" data-name="Path 182284" d="M642.549,46.694a1.666,1.666,0,0,0,1.143-.387,1.355,1.355,0,0,0,.457-1.028h2.382A3.252,3.252,0,0,1,646,47.05a3.481,3.481,0,0,1-1.42,1.248,4.454,4.454,0,0,1-1.99.444,4.127,4.127,0,0,1-3.217-1.3,5.128,5.128,0,0,1-1.178-3.581V43.7a5.073,5.073,0,0,1,1.168-3.507,4.084,4.084,0,0,1,3.209-1.309,4,4,0,0,1,2.862,1.015,3.6,3.6,0,0,1,1.093,2.7h-2.382a1.747,1.747,0,0,0-.457-1.206,1.7,1.7,0,0,0-2.5.183,3.74,3.74,0,0,0-.454,2.1v.265a3.79,3.79,0,0,0,.45,2.112,1.546,1.546,0,0,0,1.361.643" transform="translate(5950 -11140)" fill="#12263f"/>
    <path id="Path_182285" data-name="Path 182285" d="M651.2,36.718v2.338h1.627v1.863H651.2v4.746a1.131,1.131,0,0,0,.2.756,1.018,1.018,0,0,0,.774.229,4.041,4.041,0,0,0,.746-.062v1.925a5.234,5.234,0,0,1-1.537.228,2.425,2.425,0,0,1-2.725-2.7V40.919h-1.389V39.056h1.389V36.718Z" transform="translate(5950 -11140)" fill="#12263f"/>
    <path id="Path_182286" data-name="Path 182286" d="M660.117,47.6a3.185,3.185,0,0,1-2.6,1.143,3,3,0,0,1-2.332-.879,3.751,3.751,0,0,1-.822-2.576V39.056H656.9v6.15q0,1.488,1.354,1.488a1.833,1.833,0,0,0,1.775-.9v-6.74h2.549v9.51h-2.391Z" transform="translate(5950 -11140)" fill="#12263f"/>
    <path id="Path_182287" data-name="Path 182287" d="M670.02,41.438a6.873,6.873,0,0,0-.914-.07,1.863,1.863,0,0,0-1.891.975v6.223h-2.539v-9.51h2.4l.07,1.134a2.356,2.356,0,0,1,2.119-1.31,2.636,2.636,0,0,1,.791.115Z" transform="translate(5950 -11140)" fill="#12263f"/>
    <path id="Path_182288" data-name="Path 182288" d="M676.669,48.566a2.754,2.754,0,0,1-.257-.853,3.07,3.07,0,0,1-2.4,1.028,3.373,3.373,0,0,1-2.315-.808,2.6,2.6,0,0,1-.919-2.039,2.687,2.687,0,0,1,1.122-2.321,5.523,5.523,0,0,1,3.237-.817h1.169v-.545a1.577,1.577,0,0,0-.338-1.055,1.337,1.337,0,0,0-1.068-.395,1.506,1.506,0,0,0-1.007.308,1.045,1.045,0,0,0-.365.843H670.99a2.559,2.559,0,0,1,.51-1.529,3.362,3.362,0,0,1,1.442-1.1,5.262,5.262,0,0,1,2.092-.4,4.159,4.159,0,0,1,2.791.883,3.1,3.1,0,0,1,1.03,2.483v4.122a4.575,4.575,0,0,0,.379,2.048v.15Zm-2.1-1.767a2.178,2.178,0,0,0,1.037-.251,1.646,1.646,0,0,0,.7-.672V44.241h-.95q-1.906,0-2.029,1.319l-.01.149a1.015,1.015,0,0,0,.335.782,1.3,1.3,0,0,0,.914.308" transform="translate(5950 -11140)" fill="#12263f"/>
    <path id="Path_182289" data-name="Path 182289" d="M690.027,48.741a4.666,4.666,0,0,1-3.406-1.283,4.561,4.561,0,0,1-1.315-3.419v-.246a5.73,5.73,0,0,1,.556-2.561,4.059,4.059,0,0,1,1.568-1.741,4.4,4.4,0,0,1,2.316-.611,3.939,3.939,0,0,1,3.07,1.231,4.994,4.994,0,0,1,1.122,3.489v1.037h-6.055a2.354,2.354,0,0,0,.742,1.494,2.241,2.241,0,0,0,1.568.563,2.742,2.742,0,0,0,2.295-1.064l1.249,1.4a3.8,3.8,0,0,1-1.548,1.26,5.07,5.07,0,0,1-2.162.453m-.29-7.813a1.593,1.593,0,0,0-1.228.512,2.665,2.665,0,0,0-.6,1.466h3.532v-.2a1.883,1.883,0,0,0-.457-1.31,1.633,1.633,0,0,0-1.247-.464" transform="translate(5950 -11140)" fill="#12263f"/>
    <path id="Path_182290" data-name="Path 182290" d="M699.514,46.694a1.666,1.666,0,0,0,1.143-.387,1.355,1.355,0,0,0,.457-1.028H703.5a3.251,3.251,0,0,1-.527,1.771,3.481,3.481,0,0,1-1.42,1.248,4.455,4.455,0,0,1-1.99.444,4.127,4.127,0,0,1-3.217-1.3,5.128,5.128,0,0,1-1.178-3.581V43.7a5.072,5.072,0,0,1,1.168-3.507,4.084,4.084,0,0,1,3.209-1.309A4,4,0,0,1,702.4,39.9a3.6,3.6,0,0,1,1.093,2.7h-2.382a1.747,1.747,0,0,0-.457-1.206,1.7,1.7,0,0,0-2.5.183,3.741,3.741,0,0,0-.454,2.1v.265a3.79,3.79,0,0,0,.45,2.112,1.546,1.546,0,0,0,1.361.643" transform="translate(5950 -11140)" fill="#12263f"/>
    <path id="Path_182291" data-name="Path 182291" d="M704.731,43.723a5.642,5.642,0,0,1,.545-2.522,3.983,3.983,0,0,1,1.568-1.714,4.577,4.577,0,0,1,2.377-.606,4.335,4.335,0,0,1,3.143,1.177,4.735,4.735,0,0,1,1.357,3.2l.018.65a4.975,4.975,0,0,1-1.221,3.512,4.735,4.735,0,0,1-6.56,0,5.052,5.052,0,0,1-1.227-3.586Zm2.539.181a3.549,3.549,0,0,0,.51,2.072,1.83,1.83,0,0,0,2.9.009,3.884,3.884,0,0,0,.52-2.267,3.516,3.516,0,0,0-.52-2.059,1.686,1.686,0,0,0-1.459-.731,1.659,1.659,0,0,0-1.441.727,3.949,3.949,0,0,0-.51,2.249" transform="translate(5950 -11140)" fill="#12263f"/>
    <path id="Path_182292" data-name="Path 182292" d="M717.82,39.056l.08,1.1a3.319,3.319,0,0,1,2.733-1.275,2.758,2.758,0,0,1,2.249.888,4.132,4.132,0,0,1,.756,2.654v6.144H721.1v-6.1a1.658,1.658,0,0,0-.351-1.177,1.578,1.578,0,0,0-1.17-.365,1.748,1.748,0,0,0-1.608.916v6.722h-2.541v-9.51Z" transform="translate(5950 -11140)" fill="#12263f"/>
    <path id="Path_182293" data-name="Path 182293" d="M725.35,43.723A5.628,5.628,0,0,1,725.9,41.2a3.972,3.972,0,0,1,1.568-1.714,4.578,4.578,0,0,1,2.377-.607,4.336,4.336,0,0,1,3.143,1.178,4.735,4.735,0,0,1,1.357,3.2l.018.651a4.974,4.974,0,0,1-1.221,3.512,4.735,4.735,0,0,1-6.561,0,5.053,5.053,0,0,1-1.226-3.586Zm2.539.181a3.549,3.549,0,0,0,.51,2.072,1.83,1.83,0,0,0,2.9.009,3.886,3.886,0,0,0,.52-2.267,3.516,3.516,0,0,0-.52-2.059,1.684,1.684,0,0,0-1.459-.731,1.655,1.655,0,0,0-1.441.727,3.95,3.95,0,0,0-.51,2.249m2.453-8.838h2.768l-2.434,2.725H728.61Z" transform="translate(5950 -11140)" fill="#12263f"/>
    <path id="Path_182294" data-name="Path 182294" d="M738.484,39.056l.078,1.063A3.345,3.345,0,0,1,741.3,38.88a2.536,2.536,0,0,1,2.521,1.45,3.268,3.268,0,0,1,2.857-1.45,2.838,2.838,0,0,1,2.3.9,4.141,4.141,0,0,1,.756,2.712v6.073h-2.549V42.488a1.821,1.821,0,0,0-.316-1.186,1.4,1.4,0,0,0-1.117-.374,1.585,1.585,0,0,0-1.582,1.093l.009,6.545h-2.541V42.5a1.794,1.794,0,0,0-.324-1.2,1.413,1.413,0,0,0-1.107-.37,1.646,1.646,0,0,0-1.565.9v6.739H736.1v-9.51Z" transform="translate(5950 -11140)" fill="#12263f"/>
    <path id="Path_182295" data-name="Path 182295" d="M751.848,36.6a1.252,1.252,0,0,1,.381-.94,1.65,1.65,0,0,1,2.08,0,1.342,1.342,0,0,1-.006,1.89,1.629,1.629,0,0,1-2.065,0,1.248,1.248,0,0,1-.39-.95m2.7,11.971H752v-9.51h2.549Z" transform="translate(5950 -11140)" fill="#12263f"/>
    <path id="Path_182296" data-name="Path 182296" d="M760.774,46.694a1.666,1.666,0,0,0,1.143-.387,1.355,1.355,0,0,0,.457-1.028h2.38a3.252,3.252,0,0,1-.527,1.771,3.469,3.469,0,0,1-1.42,1.248,4.445,4.445,0,0,1-1.99.444,4.127,4.127,0,0,1-3.217-1.3,5.128,5.128,0,0,1-1.178-3.581V43.7a5.073,5.073,0,0,1,1.17-3.507,4.08,4.08,0,0,1,3.207-1.309,4,4,0,0,1,2.862,1.015,3.591,3.591,0,0,1,1.093,2.7h-2.38a1.747,1.747,0,0,0-.457-1.206,1.7,1.7,0,0,0-2.5.183,3.76,3.76,0,0,0-.452,2.1v.265a3.792,3.792,0,0,0,.448,2.112,1.55,1.55,0,0,0,1.363.643" transform="translate(5950 -11140)" fill="#12263f"/>
    <path id="Path_182297" data-name="Path 182297" d="M771.9,48.566a2.783,2.783,0,0,1-.254-.853,3.075,3.075,0,0,1-2.4,1.028,3.379,3.379,0,0,1-2.316-.808,2.6,2.6,0,0,1-.918-2.039,2.686,2.686,0,0,1,1.121-2.321,5.526,5.526,0,0,1,3.238-.817h1.17v-.545a1.563,1.563,0,0,0-.34-1.055,1.327,1.327,0,0,0-1.066-.395,1.514,1.514,0,0,0-1.008.308,1.046,1.046,0,0,0-.363.843h-2.541a2.552,2.552,0,0,1,.51-1.529,3.365,3.365,0,0,1,1.441-1.1,5.262,5.262,0,0,1,2.092-.4,4.159,4.159,0,0,1,2.791.883,3.1,3.1,0,0,1,1.033,2.483v4.122a4.551,4.551,0,0,0,.377,2.048v.15Zm-2.1-1.767a2.175,2.175,0,0,0,1.037-.251,1.634,1.634,0,0,0,.7-.672V44.241h-.949q-1.906,0-2.031,1.319l-.008.149a1.014,1.014,0,0,0,.334.782,1.3,1.3,0,0,0,.914.308" transform="translate(5950 -11140)" fill="#12263f"/>
    <path id="Path_182298" data-name="Path 182298" d="M198.812,181.049a91.489,91.489,0,1,1-91.49-91.49,91.49,91.49,0,0,1,91.49,91.49" transform="translate(5950 -11140)" fill="#ffe1ad"/>
    <path id="Ellipse_5765" data-name="Ellipse 5765" d="M91.49-1.5A93.67,93.67,0,0,1,110.229.389a92.488,92.488,0,0,1,33.254,13.993,93.257,93.257,0,0,1,33.689,40.912,92.533,92.533,0,0,1,5.419,17.457,93.882,93.882,0,0,1,0,37.478A92.488,92.488,0,0,1,168.6,143.483a93.257,93.257,0,0,1-40.911,33.689,92.533,92.533,0,0,1-17.457,5.419,93.882,93.882,0,0,1-37.478,0A92.488,92.488,0,0,1,39.5,168.6,93.257,93.257,0,0,1,5.808,127.686,92.533,92.533,0,0,1,.389,110.229a93.882,93.882,0,0,1,0-37.478A92.488,92.488,0,0,1,14.382,39.5,93.257,93.257,0,0,1,55.294,5.808,92.533,92.533,0,0,1,72.751.389,93.67,93.67,0,0,1,91.49-1.5Zm0,182.98A89.99,89.99,0,1,0,1.5,91.49,90.092,90.092,0,0,0,91.49,181.48Z" transform="matrix(0.001, -1, 1, 0.001, 5965.714, -10867.578)" fill="#f9b131"/>
    <path id="Path_182299" data-name="Path 182299" d="M487.615,181.049a91.49,91.49,0,1,1-91.49-91.49,91.49,91.49,0,0,1,91.49,91.49" transform="translate(5950 -11140)" fill="#ffe1ad"/>
    <path id="Ellipse_5766" data-name="Ellipse 5766" d="M91.49-1.5A93.67,93.67,0,0,1,110.229.389a92.488,92.488,0,0,1,33.254,13.993,93.257,93.257,0,0,1,33.689,40.912,92.533,92.533,0,0,1,5.419,17.457,93.882,93.882,0,0,1,0,37.478A92.488,92.488,0,0,1,168.6,143.483a93.257,93.257,0,0,1-40.911,33.689,92.533,92.533,0,0,1-17.457,5.419,93.882,93.882,0,0,1-37.478,0A92.488,92.488,0,0,1,39.5,168.6,93.257,93.257,0,0,1,5.808,127.686,92.533,92.533,0,0,1,.389,110.229a93.882,93.882,0,0,1,0-37.478A92.488,92.488,0,0,1,14.382,39.5,93.257,93.257,0,0,1,55.294,5.808,92.533,92.533,0,0,1,72.751.389,93.67,93.67,0,0,1,91.49-1.5Zm0,182.98A89.99,89.99,0,1,0,1.5,91.49,90.092,90.092,0,0,0,91.49,181.48Z" transform="translate(6254.52 -10867.577) rotate(-89.927)" fill="#f9b131"/>
    <path id="Path_182300" data-name="Path 182300" d="M776.419,181.049a91.49,91.49,0,1,1-91.49-91.49,91.49,91.49,0,0,1,91.49,91.49" transform="translate(5950 -11140)" fill="#ffe1ad"/>
    <path id="Ellipse_5767" data-name="Ellipse 5767" d="M91.49-1.5A93.67,93.67,0,0,1,110.229.389a92.488,92.488,0,0,1,33.254,13.993,93.257,93.257,0,0,1,33.689,40.912,92.533,92.533,0,0,1,5.419,17.457,93.882,93.882,0,0,1,0,37.478A92.488,92.488,0,0,1,168.6,143.483a93.257,93.257,0,0,1-40.911,33.689,92.533,92.533,0,0,1-17.457,5.419,93.882,93.882,0,0,1-37.478,0A92.488,92.488,0,0,1,39.5,168.6,93.257,93.257,0,0,1,5.808,127.686,92.533,92.533,0,0,1,.389,110.229a93.882,93.882,0,0,1,0-37.478A92.488,92.488,0,0,1,14.382,39.5,93.257,93.257,0,0,1,55.294,5.808,92.533,92.533,0,0,1,72.751.389,93.67,93.67,0,0,1,91.49-1.5Zm0,182.98A89.99,89.99,0,1,0,1.5,91.49,90.092,90.092,0,0,0,91.49,181.48Z" transform="matrix(0.001, -1, 1, 0.001, 6543.326, -10867.574)" fill="#f9b131"/>
    <path id="Path_182301" data-name="Path 182301" d="M569.456,158.414V169.53a4.272,4.272,0,0,1-4.272,4.272H515.871a4.272,4.272,0,0,1-4.272-4.272V158.414a4.272,4.272,0,0,1,4.272-4.272h49.313a4.272,4.272,0,0,1,4.272,4.272" transform="translate(5950 -11140)" fill="#e8feff"/>
    <path id="Rectangle_38189" data-name="Rectangle 38189" d="M4.272-1.5H53.585a5.779,5.779,0,0,1,5.772,5.772V15.388a5.779,5.779,0,0,1-5.772,5.772H4.272A5.779,5.779,0,0,1-1.5,15.388V4.272A5.779,5.779,0,0,1,4.272-1.5ZM53.585,18.16a2.775,2.775,0,0,0,2.772-2.772V4.272A2.775,2.775,0,0,0,53.585,1.5H4.272A2.775,2.775,0,0,0,1.5,4.272V15.388A2.775,2.775,0,0,0,4.272,18.16Z" transform="translate(6461.599 -10985.858)" fill="#0cc0c7"/>
    <path id="Path_182302" data-name="Path 182302" d="M569.456,192.569v11.116a4.272,4.272,0,0,1-4.272,4.272H515.871a4.272,4.272,0,0,1-4.272-4.272V192.569a4.272,4.272,0,0,1,4.272-4.272h49.313a4.272,4.272,0,0,1,4.272,4.272" transform="translate(5950 -11140)" fill="#e8feff"/>
    <path id="Rectangle_38190" data-name="Rectangle 38190" d="M4.272-1.5H53.585a5.779,5.779,0,0,1,5.772,5.772V15.388a5.779,5.779,0,0,1-5.772,5.772H4.272A5.779,5.779,0,0,1-1.5,15.388V4.272A5.779,5.779,0,0,1,4.272-1.5ZM53.585,18.16a2.775,2.775,0,0,0,2.772-2.772V4.272A2.775,2.775,0,0,0,53.585,1.5H4.272A2.775,2.775,0,0,0,1.5,4.272V15.388A2.775,2.775,0,0,0,4.272,18.16Z" transform="translate(6461.599 -10951.703)" fill="#0cc0c7"/>
    <path id="Path_182303" data-name="Path 182303" d="M276.38,171.219H261.554V156.393a4.272,4.272,0,0,0-4.272-4.272H246.166a4.272,4.272,0,0,0-4.272,4.272v14.826H227.068a4.272,4.272,0,0,0-4.272,4.272v11.116a4.271,4.271,0,0,0,4.272,4.272h14.826v14.827a4.272,4.272,0,0,0,4.272,4.272h11.116a4.272,4.272,0,0,0,4.272-4.272V190.879H276.38a4.271,4.271,0,0,0,4.272-4.272V175.491a4.272,4.272,0,0,0-4.272-4.272" transform="translate(5950 -11140)" fill="#e8feff"/>
    <path id="Path_182304" data-name="Path 182304" d="M246.166,150.621h11.116a5.779,5.779,0,0,1,5.772,5.772v13.326H276.38a5.779,5.779,0,0,1,5.772,5.772v11.116a5.779,5.779,0,0,1-5.772,5.772H263.054v13.327a5.779,5.779,0,0,1-5.772,5.772H246.166a5.779,5.779,0,0,1-5.772-5.772V192.379H227.068a5.779,5.779,0,0,1-5.772-5.772V175.491a5.779,5.779,0,0,1,5.772-5.772h13.326V156.393A5.779,5.779,0,0,1,246.166,150.621Zm30.214,38.758a2.775,2.775,0,0,0,2.772-2.772V175.491a2.775,2.775,0,0,0-2.772-2.772H260.054V156.393a2.775,2.775,0,0,0-2.772-2.772H246.166a2.775,2.775,0,0,0-2.772,2.772v16.326H227.068a2.775,2.775,0,0,0-2.772,2.772v11.116a2.775,2.775,0,0,0,2.772,2.772h16.326v16.327a2.775,2.775,0,0,0,2.772,2.772h11.116a2.775,2.775,0,0,0,2.772-2.772V189.379Z" transform="translate(5950 -11140)" fill="#0cc0c7"/>
    <path id="Path_182305" data-name="Path 182305" d="M83.395,147.262v4.509H80.758v-12.8H85.75a5.783,5.783,0,0,1,2.536.526,3.9,3.9,0,0,1,1.683,1.5,4.184,4.184,0,0,1,.588,2.212,3.68,3.68,0,0,1-1.287,2.967,5.374,5.374,0,0,1-3.564,1.084Zm0-2.136H85.75a2.319,2.319,0,0,0,1.6-.491,1.794,1.794,0,0,0,.549-1.406,2.112,2.112,0,0,0-.555-1.521,2.069,2.069,0,0,0-1.529-.6H83.395Z" transform="translate(5950 -11140)" fill="#12263f"/>
    <path id="Path_182306" data-name="Path 182306" d="M97.795,151.772a2.783,2.783,0,0,1-.256-.853,3.071,3.071,0,0,1-2.4,1.028,3.376,3.376,0,0,1-2.316-.808,2.6,2.6,0,0,1-.918-2.039,2.686,2.686,0,0,1,1.121-2.321,5.526,5.526,0,0,1,3.238-.817h1.168v-.545a1.572,1.572,0,0,0-.338-1.055,1.334,1.334,0,0,0-1.068-.4,1.5,1.5,0,0,0-1.006.308,1.042,1.042,0,0,0-.365.843H92.117a2.552,2.552,0,0,1,.51-1.529,3.365,3.365,0,0,1,1.441-1.1,5.262,5.262,0,0,1,2.092-.4,4.159,4.159,0,0,1,2.791.883,3.1,3.1,0,0,1,1.031,2.483v4.122a4.547,4.547,0,0,0,.379,2.048v.15Zm-2.1-1.767a2.175,2.175,0,0,0,1.037-.251,1.635,1.635,0,0,0,.7-.672v-1.635h-.949q-1.907,0-2.029,1.319l-.01.149a1.014,1.014,0,0,0,.334.782,1.3,1.3,0,0,0,.914.308" transform="translate(5950 -11140)" fill="#12263f"/>
    <path id="Path_182307" data-name="Path 182307" d="M107.266,149.143a.815.815,0,0,0-.463-.733,5.232,5.232,0,0,0-1.48-.48q-3.393-.711-3.393-2.883a2.614,2.614,0,0,1,1.051-2.114,4.241,4.241,0,0,1,2.746-.848,4.563,4.563,0,0,1,2.9.853,2.689,2.689,0,0,1,1.086,2.215h-2.541a1.234,1.234,0,0,0-.351-.9,1.492,1.492,0,0,0-1.1-.355,1.524,1.524,0,0,0-.994.29.916.916,0,0,0-.352.738.78.78,0,0,0,.4.681,4.077,4.077,0,0,0,1.349.449,11.066,11.066,0,0,1,1.6.426,2.627,2.627,0,0,1,2.012,2.558,2.477,2.477,0,0,1-1.115,2.1,4.813,4.813,0,0,1-2.883.805,5.045,5.045,0,0,1-2.123-.426,3.547,3.547,0,0,1-1.455-1.17,2.71,2.71,0,0,1-.528-1.6h2.408a1.332,1.332,0,0,0,.5,1.038,1.99,1.99,0,0,0,1.248.36,1.844,1.844,0,0,0,1.1-.276.864.864,0,0,0,.375-.726" transform="translate(5950 -11140)" fill="#12263f"/>
    <path id="Path_182308" data-name="Path 182308" d="M111.531,139.8a1.255,1.255,0,0,1,.383-.94,1.647,1.647,0,0,1,2.078,0,1.342,1.342,0,0,1,0,1.89,1.628,1.628,0,0,1-2.064,0,1.247,1.247,0,0,1-.393-.95m2.7,11.971h-2.549v-9.51h2.549Z" transform="translate(5950 -11140)" fill="#12263f"/>
    <path id="Path_182309" data-name="Path 182309" d="M120.061,148.669l1.768-6.407h2.654l-3.209,9.51h-2.426l-3.207-9.51h2.654Z" transform="translate(5950 -11140)" fill="#12263f"/>
    <path id="Path_182310" data-name="Path 182310" d="M125.252,146.928a5.642,5.642,0,0,1,.545-2.522,3.983,3.983,0,0,1,1.568-1.714,4.577,4.577,0,0,1,2.377-.606,4.335,4.335,0,0,1,3.143,1.177,4.735,4.735,0,0,1,1.357,3.2l.018.65a4.974,4.974,0,0,1-1.221,3.512,4.735,4.735,0,0,1-6.56,0,5.053,5.053,0,0,1-1.227-3.586Zm2.539.181a3.549,3.549,0,0,0,.51,2.072,1.83,1.83,0,0,0,2.9.009,3.884,3.884,0,0,0,.52-2.267,3.516,3.516,0,0,0-.52-2.059,1.686,1.686,0,0,0-1.459-.731,1.659,1.659,0,0,0-1.441.727,3.949,3.949,0,0,0-.51,2.249" transform="translate(5950 -11140)" fill="#12263f"/>
    <rect id="Rectangle_38191" data-name="Rectangle 38191" width="88.714" height="1.286" transform="translate(6012.965 -10968.068)" fill="#f9b131"/>
    <path id="Path_182311" data-name="Path 182311" d="M41.214,190.814l3.719,9.281,3.718-9.281H50.6v11.375H49.1v-4.43l.14-4.781L45.5,202.189H44.355L40.628,193l.149,4.757v4.43h-1.5V190.814Z" transform="translate(5950 -11140)" fill="#12263f"/>
    <path id="Path_182312" data-name="Path 182312" d="M56.687,202.345a3.692,3.692,0,0,1-2.8-1.129,4.189,4.189,0,0,1-1.078-3.019v-.266a5.075,5.075,0,0,1,.48-2.246,3.747,3.747,0,0,1,1.344-1.547,3.379,3.379,0,0,1,1.871-.558,3.17,3.17,0,0,1,2.563,1.085,4.706,4.706,0,0,1,.914,3.11v.6H54.257a3.013,3.013,0,0,0,.73,2.02,2.3,2.3,0,0,0,1.778.769,2.522,2.522,0,0,0,1.3-.312,3.241,3.241,0,0,0,.929-.828l.883.687a3.547,3.547,0,0,1-3.187,1.633m-.18-7.578a1.928,1.928,0,0,0-1.469.637,3.1,3.1,0,0,0-.734,1.785h4.234v-.109a2.752,2.752,0,0,0-.594-1.708,1.816,1.816,0,0,0-1.437-.6" transform="translate(5950 -11140)" fill="#12263f"/>
    <path id="Path_182313" data-name="Path 182313" d="M61.464,197.892a4.949,4.949,0,0,1,.922-3.129,3.135,3.135,0,0,1,4.765-.168v-4.406H68.6v12H67.268l-.07-.906a2.944,2.944,0,0,1-2.414,1.062,2.889,2.889,0,0,1-2.395-1.2A5.009,5.009,0,0,1,61.464,198Zm1.445.164a3.75,3.75,0,0,0,.594,2.25,1.917,1.917,0,0,0,1.64.813,2.109,2.109,0,0,0,2.008-1.235V196a2.123,2.123,0,0,0-1.992-1.2,1.927,1.927,0,0,0-1.656.82,4.128,4.128,0,0,0-.594,2.43" transform="translate(5950 -11140)" fill="#12263f"/>
    <path id="Path_182314" data-name="Path 182314" d="M71.007,191.494a.858.858,0,0,1,.215-.594.807.807,0,0,1,.637-.242.818.818,0,0,1,.64.242.852.852,0,0,1,.219.594.856.856,0,1,1-1.711,0m1.562,10.695H71.124v-8.453h1.445Z" transform="translate(5950 -11140)" fill="#12263f"/>
    <path id="Path_182315" data-name="Path 182315" d="M74.659,197.884a5.01,5.01,0,0,1,.487-2.234,3.636,3.636,0,0,1,1.361-1.532,3.7,3.7,0,0,1,1.987-.539,3.564,3.564,0,0,1,2.793,1.2,4.6,4.6,0,0,1,1.067,3.179v.1a5.036,5.036,0,0,1-.472,2.215A3.6,3.6,0,0,1,80.53,201.8a3.752,3.752,0,0,1-2.021.547,3.556,3.556,0,0,1-2.784-1.2,4.571,4.571,0,0,1-1.066-3.164Zm1.453.172a3.624,3.624,0,0,0,.651,2.258,2.211,2.211,0,0,0,3.5-.012,3.95,3.95,0,0,0,.65-2.418,3.61,3.61,0,0,0-.661-2.254,2.1,2.1,0,0,0-1.754-.863,2.076,2.076,0,0,0-1.726.851,3.923,3.923,0,0,0-.656,2.438" transform="translate(5950 -11140)" fill="#12263f"/>
    <path id="Path_182316" data-name="Path 182316" d="M89.248,199.947a1.063,1.063,0,0,0-.441-.91,4.268,4.268,0,0,0-1.539-.559,7.265,7.265,0,0,1-1.743-.562,2.489,2.489,0,0,1-.953-.782,1.863,1.863,0,0,1-.308-1.078,2.192,2.192,0,0,1,.879-1.757,3.425,3.425,0,0,1,2.246-.719,3.533,3.533,0,0,1,2.332.742,2.358,2.358,0,0,1,.894,1.9H89.162a1.3,1.3,0,0,0-.5-1.023,1.89,1.89,0,0,0-1.269-.43,1.977,1.977,0,0,0-1.235.344,1.081,1.081,0,0,0-.445.9.878.878,0,0,0,.414.79,5.109,5.109,0,0,0,1.5.507,7.863,7.863,0,0,1,1.754.578,2.558,2.558,0,0,1,1,.809,1.99,1.99,0,0,1,.324,1.152,2.163,2.163,0,0,1-.906,1.817,3.8,3.8,0,0,1-2.351.683,4.264,4.264,0,0,1-1.8-.359,2.914,2.914,0,0,1-1.223-1,2.42,2.42,0,0,1-.441-1.394H85.42A1.5,1.5,0,0,0,86,200.74a2.258,2.258,0,0,0,1.434.426,2.335,2.335,0,0,0,1.316-.332,1.021,1.021,0,0,0,.5-.887" transform="translate(5950 -11140)" fill="#12263f"/>
    <path id="Path_182317" data-name="Path 182317" d="M97.568,202.189v-7.336H96.232v-1.117h1.336v-.867a2.876,2.876,0,0,1,.727-2.1,2.742,2.742,0,0,1,2.054-.742,3.815,3.815,0,0,1,.992.132l-.078,1.165a4.138,4.138,0,0,0-.781-.071,1.407,1.407,0,0,0-1.086.412,1.67,1.67,0,0,0-.383,1.179v.894h1.805v1.117H99.013v7.336Z" transform="translate(5950 -11140)" fill="#12263f"/>
    <path id="Path_182318" data-name="Path 182318" d="M102.58,191.494a.863.863,0,0,1,.215-.594.81.81,0,0,1,.637-.242.818.818,0,0,1,.64.242.852.852,0,0,1,.219.594.9.9,0,0,1-1.5.586.837.837,0,0,1-.215-.586m1.563,10.695H102.7v-8.453h1.445Z" transform="translate(5950 -11140)" fill="#12263f"/>
    <path id="Path_182319" data-name="Path 182319" d="M107.983,193.736l.047,1.062a3.079,3.079,0,0,1,2.531-1.218q2.679,0,2.7,3.023v5.586h-1.445V196.6a1.947,1.947,0,0,0-.418-1.351,1.673,1.673,0,0,0-1.277-.438,2.089,2.089,0,0,0-1.235.375,2.545,2.545,0,0,0-.828.985v6.023h-1.445v-8.453Z" transform="translate(5950 -11140)" fill="#12263f"/>
    <path id="Path_182320" data-name="Path 182320" d="M120.821,202.19a3.052,3.052,0,0,1-.2-.891,3.223,3.223,0,0,1-2.406,1.047,2.987,2.987,0,0,1-2.051-.707,2.29,2.29,0,0,1-.8-1.793,2.391,2.391,0,0,1,1-2.051,4.734,4.734,0,0,1,2.825-.73H120.6V196.4a1.627,1.627,0,0,0-.453-1.208,1.822,1.822,0,0,0-1.336-.449,2.1,2.1,0,0,0-1.3.391,1.15,1.15,0,0,0-.523.945h-1.454a1.99,1.99,0,0,1,.45-1.222,3.06,3.06,0,0,1,1.218-.934,4.088,4.088,0,0,1,1.692-.344,3.338,3.338,0,0,1,2.289.731,2.631,2.631,0,0,1,.859,2.011v3.891a4.756,4.756,0,0,0,.3,1.852v.125Zm-2.4-1.1a2.534,2.534,0,0,0,1.289-.352,2.13,2.13,0,0,0,.883-.914v-1.734h-1.133q-2.655,0-2.656,1.555a1.315,1.315,0,0,0,.453,1.062,1.742,1.742,0,0,0,1.164.383" transform="translate(5950 -11140)" fill="#12263f"/>
    <path id="Path_182321" data-name="Path 182321" d="M125.833,193.736l.047,1.062a3.079,3.079,0,0,1,2.531-1.218q2.679,0,2.7,3.023v5.586h-1.445V196.6a1.947,1.947,0,0,0-.418-1.351,1.673,1.673,0,0,0-1.277-.438,2.089,2.089,0,0,0-1.235.375,2.545,2.545,0,0,0-.828.985v6.023h-1.445v-8.453Z" transform="translate(5950 -11140)" fill="#12263f"/>
    <path id="Path_182322" data-name="Path 182322" d="M136.845,201.166a2.081,2.081,0,0,0,1.352-.469,1.65,1.65,0,0,0,.64-1.172H140.2a2.612,2.612,0,0,1-.5,1.383,3.291,3.291,0,0,1-1.23,1.047,3.544,3.544,0,0,1-1.629.391,3.48,3.48,0,0,1-2.746-1.153,4.588,4.588,0,0,1-1.02-3.152V197.8a5.1,5.1,0,0,1,.453-2.195,3.457,3.457,0,0,1,1.3-1.493,3.7,3.7,0,0,1,2-.531,3.387,3.387,0,0,1,2.363.852,3.041,3.041,0,0,1,1,2.211h-1.367a1.994,1.994,0,0,0-.621-1.348,1.929,1.929,0,0,0-1.379-.527,2.022,2.022,0,0,0-1.707.793,3.726,3.726,0,0,0-.605,2.292v.274a3.65,3.65,0,0,0,.6,2.25,2.034,2.034,0,0,0,1.719.789" transform="translate(5950 -11140)" fill="#12263f"/>
    <path id="Path_182323" data-name="Path 182323" d="M142,191.494a.858.858,0,0,1,.215-.594.81.81,0,0,1,.637-.242.818.818,0,0,1,.64.242.852.852,0,0,1,.219.594.856.856,0,1,1-1.711,0m1.563,10.695h-1.445v-8.453h1.445Z" transform="translate(5950 -11140)" fill="#12263f"/>
    <path id="Path_182324" data-name="Path 182324" d="M149.54,202.345a3.694,3.694,0,0,1-2.8-1.129,4.189,4.189,0,0,1-1.078-3.019v-.266a5.089,5.089,0,0,1,.48-2.246,3.742,3.742,0,0,1,1.345-1.547,3.374,3.374,0,0,1,1.871-.558,3.168,3.168,0,0,1,2.562,1.085,4.7,4.7,0,0,1,.914,3.11v.6h-5.726a3.017,3.017,0,0,0,.729,2.02,2.3,2.3,0,0,0,1.778.769,2.516,2.516,0,0,0,1.3-.312,3.227,3.227,0,0,0,.929-.828l.883.687a3.546,3.546,0,0,1-3.187,1.633m-.179-7.578a1.928,1.928,0,0,0-1.47.637,3.094,3.094,0,0,0-.733,1.785h4.233v-.109a2.752,2.752,0,0,0-.593-1.708,1.819,1.819,0,0,0-1.437-.6" transform="translate(5950 -11140)" fill="#12263f"/>
    <path id="Path_182325" data-name="Path 182325" d="M158.755,195.033a4.385,4.385,0,0,0-.711-.055,1.906,1.906,0,0,0-1.93,1.211v6h-1.445v-8.453h1.406l.024.977a2.249,2.249,0,0,1,2.015-1.133,1.476,1.476,0,0,1,.641.109Z" transform="translate(5950 -11140)" fill="#12263f"/>
    <path id="Path_182326" data-name="Path 182326" d="M159.7,197.884a5,5,0,0,1,.488-2.234,3.641,3.641,0,0,1,1.36-1.532,3.7,3.7,0,0,1,1.988-.539,3.565,3.565,0,0,1,2.793,1.2,4.6,4.6,0,0,1,1.066,3.179v.1a5.036,5.036,0,0,1-.472,2.215,3.6,3.6,0,0,1-1.352,1.527,3.748,3.748,0,0,1-2.02.547,3.556,3.556,0,0,1-2.785-1.2,4.576,4.576,0,0,1-1.066-3.164Zm1.453.172a3.624,3.624,0,0,0,.652,2.258,2.211,2.211,0,0,0,3.5-.012,3.95,3.95,0,0,0,.649-2.418,3.61,3.61,0,0,0-.66-2.254,2.1,2.1,0,0,0-1.754-.863,2.078,2.078,0,0,0-1.727.851,3.929,3.929,0,0,0-.656,2.438" transform="translate(5950 -11140)" fill="#12263f"/>
    <path id="Path_182327" data-name="Path 182327" d="M174.293,199.947a1.063,1.063,0,0,0-.441-.91,4.268,4.268,0,0,0-1.539-.559,7.265,7.265,0,0,1-1.743-.562,2.489,2.489,0,0,1-.953-.782,1.863,1.863,0,0,1-.308-1.078,2.192,2.192,0,0,1,.879-1.757,3.425,3.425,0,0,1,2.246-.719,3.533,3.533,0,0,1,2.332.742,2.358,2.358,0,0,1,.894,1.9h-1.453a1.3,1.3,0,0,0-.5-1.023,1.89,1.89,0,0,0-1.269-.43,1.977,1.977,0,0,0-1.235.344,1.081,1.081,0,0,0-.445.9.878.878,0,0,0,.414.79,5.109,5.109,0,0,0,1.5.507,7.863,7.863,0,0,1,1.754.578,2.558,2.558,0,0,1,1,.809,1.99,1.99,0,0,1,.324,1.152,2.163,2.163,0,0,1-.906,1.817,3.8,3.8,0,0,1-2.351.683,4.264,4.264,0,0,1-1.8-.359,2.914,2.914,0,0,1-1.223-1,2.42,2.42,0,0,1-.441-1.394h1.445a1.5,1.5,0,0,0,.582,1.152,2.258,2.258,0,0,0,1.434.426,2.335,2.335,0,0,0,1.316-.332,1.021,1.021,0,0,0,.5-.887" transform="translate(5950 -11140)" fill="#12263f"/>
    <path id="Path_182328" data-name="Path 182328" d="M85.307,221.39a3.052,3.052,0,0,1-.2-.891,3.223,3.223,0,0,1-2.406,1.047,2.987,2.987,0,0,1-2.051-.707,2.29,2.29,0,0,1-.8-1.793,2.391,2.391,0,0,1,1-2.051,4.734,4.734,0,0,1,2.825-.73h1.406V215.6a1.627,1.627,0,0,0-.453-1.208,1.822,1.822,0,0,0-1.336-.449,2.1,2.1,0,0,0-1.3.391,1.15,1.15,0,0,0-.523.945H80.018a1.99,1.99,0,0,1,.45-1.222,3.06,3.06,0,0,1,1.218-.934,4.088,4.088,0,0,1,1.692-.344,3.338,3.338,0,0,1,2.289.731,2.631,2.631,0,0,1,.859,2.011v3.891a4.756,4.756,0,0,0,.3,1.852v.125Zm-2.4-1.1a2.534,2.534,0,0,0,1.289-.352,2.13,2.13,0,0,0,.883-.914v-1.734H83.948q-2.655,0-2.656,1.555a1.315,1.315,0,0,0,.453,1.062,1.742,1.742,0,0,0,1.164.383" transform="translate(5950 -11140)" fill="#12263f"/>
    <path id="Path_182329" data-name="Path 182329" d="M90.445,212.936v9.43q0,2.438-2.211,2.437a2.7,2.7,0,0,1-.883-.139v-1.15a2.778,2.778,0,0,0,.656.063.985.985,0,0,0,.739-.262A1.3,1.3,0,0,0,89,222.4v-9.468Zm-1.594-2.242a.864.864,0,0,1,.215-.59.789.789,0,0,1,.629-.246.818.818,0,0,1,.64.242.854.854,0,0,1,.219.594.782.782,0,0,1-.859.82.809.809,0,0,1-.633-.234.842.842,0,0,1-.211-.586" transform="translate(5950 -11140)" fill="#12263f"/>
    <path id="Path_182330" data-name="Path 182330" d="M96.441,221.545a3.692,3.692,0,0,1-2.8-1.129,4.189,4.189,0,0,1-1.078-3.019v-.266a5.075,5.075,0,0,1,.48-2.246,3.747,3.747,0,0,1,1.344-1.547,3.379,3.379,0,0,1,1.871-.558,3.17,3.17,0,0,1,2.563,1.085,4.706,4.706,0,0,1,.914,3.11v.6H94.011a3.013,3.013,0,0,0,.73,2.02,2.3,2.3,0,0,0,1.778.769,2.522,2.522,0,0,0,1.3-.312,3.241,3.241,0,0,0,.929-.828l.883.687a3.547,3.547,0,0,1-3.187,1.633m-.18-7.578a1.928,1.928,0,0,0-1.469.637,3.1,3.1,0,0,0-.734,1.785h4.234v-.109a2.752,2.752,0,0,0-.594-1.708,1.816,1.816,0,0,0-1.437-.605" transform="translate(5950 -11140)" fill="#12263f"/>
    <path id="Path_182331" data-name="Path 182331" d="M102.937,212.936l.047,1.062a3.079,3.079,0,0,1,2.531-1.218q2.679,0,2.7,3.023v5.586h-1.445v-5.594a1.947,1.947,0,0,0-.418-1.351,1.673,1.673,0,0,0-1.277-.438,2.089,2.089,0,0,0-1.235.375,2.545,2.545,0,0,0-.828.985v6.023H101.57v-8.453Z" transform="translate(5950 -11140)" fill="#12263f"/>
    <path id="Path_182332" data-name="Path 182332" d="M110.174,217.084a5,5,0,0,1,.488-2.234,3.64,3.64,0,0,1,1.36-1.532,3.7,3.7,0,0,1,1.988-.539,3.565,3.565,0,0,1,2.793,1.2,4.6,4.6,0,0,1,1.066,3.179v.1a5.036,5.036,0,0,1-.472,2.215A3.6,3.6,0,0,1,116.045,221a3.748,3.748,0,0,1-2.02.547,3.556,3.556,0,0,1-2.785-1.195,4.576,4.576,0,0,1-1.066-3.164Zm1.453.172a3.624,3.624,0,0,0,.652,2.258,2.211,2.211,0,0,0,3.5-.012,3.95,3.95,0,0,0,.649-2.418,3.61,3.61,0,0,0-.66-2.254,2.1,2.1,0,0,0-1.754-.863,2.078,2.078,0,0,0-1.727.851,3.929,3.929,0,0,0-.656,2.438" transform="translate(5950 -11140)" fill="#12263f"/>
    <path id="Path_182333" data-name="Path 182333" d="M124.764,219.147a1.063,1.063,0,0,0-.441-.91,4.268,4.268,0,0,0-1.539-.559,7.265,7.265,0,0,1-1.743-.562,2.489,2.489,0,0,1-.953-.782,1.863,1.863,0,0,1-.308-1.078,2.192,2.192,0,0,1,.879-1.757,3.425,3.425,0,0,1,2.246-.719,3.533,3.533,0,0,1,2.332.742,2.358,2.358,0,0,1,.894,1.9h-1.453a1.3,1.3,0,0,0-.5-1.023,1.89,1.89,0,0,0-1.269-.43,1.977,1.977,0,0,0-1.235.344,1.081,1.081,0,0,0-.445.9.878.878,0,0,0,.414.79,5.109,5.109,0,0,0,1.5.507,7.863,7.863,0,0,1,1.754.578,2.558,2.558,0,0,1,1,.809,1.99,1.99,0,0,1,.324,1.152,2.163,2.163,0,0,1-.906,1.817,3.8,3.8,0,0,1-2.351.683,4.264,4.264,0,0,1-1.8-.359,2.914,2.914,0,0,1-1.223-1,2.42,2.42,0,0,1-.441-1.394h1.445a1.5,1.5,0,0,0,.582,1.152,2.258,2.258,0,0,0,1.434.426,2.335,2.335,0,0,0,1.316-.332,1.021,1.021,0,0,0,.5-.887" transform="translate(5950 -11140)" fill="#12263f"/>
    <path id="Path_182334" data-name="Path 182334" d="M128.283,220.631a.9.9,0,0,1,.223-.625.847.847,0,0,1,.668-.25.871.871,0,0,1,.675.25.886.886,0,0,1,.231.625.841.841,0,0,1-.231.6.89.89,0,0,1-.675.242.8.8,0,0,1-.891-.844" transform="translate(5950 -11140)" fill="#12263f"/>
    <path id="Path_182335" data-name="Path 182335" d="M330.1,190.814l3.719,9.281,3.718-9.281h1.946v11.375h-1.5v-4.43l.14-4.781-3.734,9.211h-1.148L329.512,193l.149,4.757v4.43h-1.5V190.814Z" transform="translate(5950 -11140)" fill="#12263f"/>
    <path id="Path_182336" data-name="Path 182336" d="M345.571,202.345a3.691,3.691,0,0,1-2.8-1.129A4.189,4.189,0,0,1,341.7,198.2v-.266a5.075,5.075,0,0,1,.48-2.246,3.74,3.74,0,0,1,1.344-1.547,3.377,3.377,0,0,1,1.871-.558,3.171,3.171,0,0,1,2.563,1.085,4.706,4.706,0,0,1,.914,3.11v.6h-5.727a3,3,0,0,0,.73,2.02,2.3,2.3,0,0,0,1.778.769,2.527,2.527,0,0,0,1.3-.312,3.254,3.254,0,0,0,.929-.828l.883.687a3.55,3.55,0,0,1-3.187,1.633m-.18-7.578a1.925,1.925,0,0,0-1.469.637,3.1,3.1,0,0,0-.734,1.785h4.234v-.109a2.764,2.764,0,0,0-.594-1.708,1.817,1.817,0,0,0-1.437-.6" transform="translate(5950 -11140)" fill="#12263f"/>
    <path id="Path_182337" data-name="Path 182337" d="M350.348,197.892a4.943,4.943,0,0,1,.922-3.129,3.135,3.135,0,0,1,4.765-.168v-4.406h1.445v12h-1.328l-.07-.906a2.944,2.944,0,0,1-2.414,1.062,2.888,2.888,0,0,1-2.395-1.2,5.009,5.009,0,0,1-.925-3.141Zm1.445.164a3.743,3.743,0,0,0,.594,2.25,1.914,1.914,0,0,0,1.64.813,2.11,2.11,0,0,0,2.008-1.235V196a2.125,2.125,0,0,0-1.992-1.2,1.925,1.925,0,0,0-1.656.82,4.121,4.121,0,0,0-.594,2.43" transform="translate(5950 -11140)" fill="#12263f"/>
    <path id="Path_182338" data-name="Path 182338" d="M359.891,191.494a.853.853,0,0,1,.215-.594.805.805,0,0,1,.636-.242.822.822,0,0,1,.641.242.861.861,0,0,1,.219.594.782.782,0,0,1-.86.82.819.819,0,0,1-.636-.234.829.829,0,0,1-.215-.586m1.562,10.695h-1.445v-8.453h1.445Z" transform="translate(5950 -11140)" fill="#12263f"/>
    <path id="Path_182339" data-name="Path 182339" d="M363.541,197.884a5.011,5.011,0,0,1,.488-2.234,3.654,3.654,0,0,1,1.36-1.532,3.708,3.708,0,0,1,1.988-.539,3.564,3.564,0,0,1,2.793,1.2,4.6,4.6,0,0,1,1.066,3.179v.1a5.022,5.022,0,0,1-.472,2.215,3.588,3.588,0,0,1-1.352,1.527,3.746,3.746,0,0,1-2.02.547,3.558,3.558,0,0,1-2.785-1.2,4.576,4.576,0,0,1-1.066-3.164Zm1.453.172a3.63,3.63,0,0,0,.652,2.258,2.211,2.211,0,0,0,3.5-.012,3.943,3.943,0,0,0,.649-2.418,3.6,3.6,0,0,0-.66-2.254,2.2,2.2,0,0,0-3.481-.012,3.929,3.929,0,0,0-.656,2.438" transform="translate(5950 -11140)" fill="#12263f"/>
    <path id="Path_182340" data-name="Path 182340" d="M378.131,199.947a1.061,1.061,0,0,0-.441-.91,4.253,4.253,0,0,0-1.539-.559,7.281,7.281,0,0,1-1.743-.562,2.5,2.5,0,0,1-.953-.782,1.87,1.87,0,0,1-.308-1.078,2.192,2.192,0,0,1,.879-1.757,3.427,3.427,0,0,1,2.246-.719,3.529,3.529,0,0,1,2.332.742,2.356,2.356,0,0,1,.894,1.9h-1.453a1.3,1.3,0,0,0-.5-1.023,1.888,1.888,0,0,0-1.269-.43,1.98,1.98,0,0,0-1.235.344,1.081,1.081,0,0,0-.445.9.88.88,0,0,0,.414.79,5.131,5.131,0,0,0,1.5.507,7.829,7.829,0,0,1,1.754.578,2.544,2.544,0,0,1,1,.809,1.983,1.983,0,0,1,.324,1.152,2.16,2.16,0,0,1-.906,1.817,3.8,3.8,0,0,1-2.351.683,4.27,4.27,0,0,1-1.8-.359,2.927,2.927,0,0,1-1.223-1,2.428,2.428,0,0,1-.441-1.394H374.3a1.5,1.5,0,0,0,.582,1.152,2.26,2.26,0,0,0,1.434.426,2.333,2.333,0,0,0,1.316-.332,1.018,1.018,0,0,0,.5-.887" transform="translate(5950 -11140)" fill="#12263f"/>
    <path id="Path_182341" data-name="Path 182341" d="M386.451,202.189v-7.336h-1.336v-1.117h1.336v-.867a2.876,2.876,0,0,1,.727-2.1,2.742,2.742,0,0,1,2.054-.742,3.809,3.809,0,0,1,.992.132l-.078,1.165a4.122,4.122,0,0,0-.781-.071,1.409,1.409,0,0,0-1.086.412,1.674,1.674,0,0,0-.383,1.179v.894h1.8v1.117h-1.8v7.336Z" transform="translate(5950 -11140)" fill="#12263f"/>
    <path id="Path_182342" data-name="Path 182342" d="M391.463,191.494a.863.863,0,0,1,.215-.594.809.809,0,0,1,.637-.242.817.817,0,0,1,.64.242.847.847,0,0,1,.219.594.9.9,0,0,1-1.5.586.837.837,0,0,1-.215-.586m1.563,10.695h-1.445v-8.453h1.445Z" transform="translate(5950 -11140)" fill="#12263f"/>
    <path id="Path_182343" data-name="Path 182343" d="M396.865,193.736l.047,1.062a3.082,3.082,0,0,1,2.531-1.218q2.681,0,2.7,3.023v5.586H400.7V196.6a1.942,1.942,0,0,0-.418-1.351,1.672,1.672,0,0,0-1.277-.438,2.091,2.091,0,0,0-1.235.375,2.562,2.562,0,0,0-.828.985v6.023H395.5v-8.453Z" transform="translate(5950 -11140)" fill="#12263f"/>
    <path id="Path_182344" data-name="Path 182344" d="M409.7,202.19a2.988,2.988,0,0,1-.2-.891,3.225,3.225,0,0,1-2.406,1.047,2.983,2.983,0,0,1-2.051-.707,2.286,2.286,0,0,1-.8-1.793,2.389,2.389,0,0,1,1-2.051,4.73,4.73,0,0,1,2.825-.73h1.406V196.4a1.631,1.631,0,0,0-.453-1.208,1.826,1.826,0,0,0-1.336-.449,2.1,2.1,0,0,0-1.3.391,1.148,1.148,0,0,0-.523.945h-1.454a1.984,1.984,0,0,1,.45-1.222,3.046,3.046,0,0,1,1.218-.934,4.085,4.085,0,0,1,1.692-.344,3.342,3.342,0,0,1,2.289.731,2.638,2.638,0,0,1,.859,2.011v3.891a4.738,4.738,0,0,0,.3,1.852v.125Zm-2.4-1.1a2.534,2.534,0,0,0,1.289-.352,2.136,2.136,0,0,0,.883-.914v-1.734h-1.133q-2.656,0-2.656,1.555a1.312,1.312,0,0,0,.453,1.062,1.739,1.739,0,0,0,1.164.383" transform="translate(5950 -11140)" fill="#12263f"/>
    <path id="Path_182345" data-name="Path 182345" d="M414.717,193.736l.047,1.062a3.076,3.076,0,0,1,2.531-1.218q2.677,0,2.7,3.023v5.586h-1.445V196.6a1.952,1.952,0,0,0-.418-1.351,1.673,1.673,0,0,0-1.277-.438,2.087,2.087,0,0,0-1.235.375,2.528,2.528,0,0,0-.828.985v6.023H413.35v-8.453Z" transform="translate(5950 -11140)" fill="#12263f"/>
    <path id="Path_182346" data-name="Path 182346" d="M425.729,201.166a2.083,2.083,0,0,0,1.352-.469,1.657,1.657,0,0,0,.64-1.172h1.367a2.629,2.629,0,0,1-.5,1.383,3.306,3.306,0,0,1-1.23,1.047,3.55,3.55,0,0,1-1.629.391,3.479,3.479,0,0,1-2.746-1.153,4.588,4.588,0,0,1-1.02-3.152V197.8a5.087,5.087,0,0,1,.453-2.195,3.444,3.444,0,0,1,1.3-1.493,3.7,3.7,0,0,1,2-.531,3.391,3.391,0,0,1,2.363.852,3.048,3.048,0,0,1,1,2.211h-1.367a2,2,0,0,0-.621-1.348,1.931,1.931,0,0,0-1.379-.527,2.022,2.022,0,0,0-1.707.793,3.719,3.719,0,0,0-.605,2.292v.274a3.643,3.643,0,0,0,.6,2.25,2.032,2.032,0,0,0,1.719.789" transform="translate(5950 -11140)" fill="#12263f"/>
    <path id="Path_182347" data-name="Path 182347" d="M430.881,191.494a.853.853,0,0,1,.215-.594.806.806,0,0,1,.637-.242.82.82,0,0,1,.64.242.856.856,0,0,1,.219.594.782.782,0,0,1-.859.82.82.82,0,0,1-.637-.234.828.828,0,0,1-.215-.586m1.563,10.695H431v-8.453h1.445Z" transform="translate(5950 -11140)" fill="#12263f"/>
    <path id="Path_182348" data-name="Path 182348" d="M438.424,202.345a3.691,3.691,0,0,1-2.8-1.129,4.189,4.189,0,0,1-1.078-3.019v-.266a5.076,5.076,0,0,1,.48-2.246,3.74,3.74,0,0,1,1.344-1.547,3.377,3.377,0,0,1,1.871-.558,3.171,3.171,0,0,1,2.563,1.085,4.706,4.706,0,0,1,.914,3.11v.6h-5.727a3,3,0,0,0,.73,2.02,2.3,2.3,0,0,0,1.778.769,2.527,2.527,0,0,0,1.3-.312,3.254,3.254,0,0,0,.929-.828l.883.687a3.55,3.55,0,0,1-3.187,1.633m-.18-7.578a1.925,1.925,0,0,0-1.469.637,3.1,3.1,0,0,0-.734,1.785h4.234v-.109a2.764,2.764,0,0,0-.594-1.708,1.817,1.817,0,0,0-1.437-.6" transform="translate(5950 -11140)" fill="#12263f"/>
    <path id="Path_182349" data-name="Path 182349" d="M447.639,195.033a4.393,4.393,0,0,0-.711-.055,1.9,1.9,0,0,0-1.93,1.211v6h-1.445v-8.453h1.406l.024.977A2.247,2.247,0,0,1,447,193.58a1.476,1.476,0,0,1,.641.109Z" transform="translate(5950 -11140)" fill="#12263f"/>
    <path id="Path_182350" data-name="Path 182350" d="M448.586,197.884a5.011,5.011,0,0,1,.488-2.234,3.654,3.654,0,0,1,1.36-1.532,3.708,3.708,0,0,1,1.988-.539,3.564,3.564,0,0,1,2.793,1.2,4.6,4.6,0,0,1,1.066,3.179v.1a5.022,5.022,0,0,1-.472,2.215,3.588,3.588,0,0,1-1.352,1.527,3.746,3.746,0,0,1-2.02.547,3.558,3.558,0,0,1-2.785-1.2,4.576,4.576,0,0,1-1.066-3.164Zm1.453.172a3.63,3.63,0,0,0,.652,2.258,2.211,2.211,0,0,0,3.5-.012,3.943,3.943,0,0,0,.649-2.418,3.6,3.6,0,0,0-.66-2.254,2.2,2.2,0,0,0-3.481-.012,3.929,3.929,0,0,0-.656,2.438" transform="translate(5950 -11140)" fill="#12263f"/>
    <path id="Path_182351" data-name="Path 182351" d="M463.176,199.947a1.061,1.061,0,0,0-.441-.91,4.252,4.252,0,0,0-1.539-.559,7.28,7.28,0,0,1-1.743-.562,2.5,2.5,0,0,1-.953-.782,1.87,1.87,0,0,1-.308-1.078,2.192,2.192,0,0,1,.879-1.757,3.427,3.427,0,0,1,2.246-.719,3.529,3.529,0,0,1,2.332.742,2.355,2.355,0,0,1,.894,1.9H463.09a1.3,1.3,0,0,0-.5-1.023,1.888,1.888,0,0,0-1.269-.43,1.979,1.979,0,0,0-1.235.344,1.081,1.081,0,0,0-.445.9.88.88,0,0,0,.414.79,5.131,5.131,0,0,0,1.5.507,7.828,7.828,0,0,1,1.754.578,2.544,2.544,0,0,1,1,.809,1.983,1.983,0,0,1,.324,1.152,2.16,2.16,0,0,1-.906,1.817,3.794,3.794,0,0,1-2.351.683,4.27,4.27,0,0,1-1.8-.359,2.927,2.927,0,0,1-1.223-1,2.428,2.428,0,0,1-.441-1.394h1.445a1.5,1.5,0,0,0,.582,1.152,2.26,2.26,0,0,0,1.434.426,2.333,2.333,0,0,0,1.316-.332,1.018,1.018,0,0,0,.5-.887" transform="translate(5950 -11140)" fill="#12263f"/>
    <path id="Path_182352" data-name="Path 182352" d="M374.9,217.256a5.064,5.064,0,0,1-.883,3.109,2.829,2.829,0,0,1-2.39,1.18,3.1,3.1,0,0,1-2.422-.976v4.07h-1.445v-11.7h1.32l.07.937a2.977,2.977,0,0,1,2.453-1.093,2.883,2.883,0,0,1,2.411,1.148,5.131,5.131,0,0,1,.886,3.2Zm-1.445-.164a3.737,3.737,0,0,0-.609-2.258,1.966,1.966,0,0,0-1.672-.828,2.125,2.125,0,0,0-1.969,1.164v4.039a2.128,2.128,0,0,0,1.984,1.156,1.956,1.956,0,0,0,1.653-.824,4.084,4.084,0,0,0,.613-2.449" transform="translate(5950 -11140)" fill="#12263f"/>
    <path id="Path_182353" data-name="Path 182353" d="M380.981,214.233a4.4,4.4,0,0,0-.711-.055,1.9,1.9,0,0,0-1.93,1.211v6h-1.445v-8.453H378.3l.024.977a2.247,2.247,0,0,1,2.015-1.133,1.476,1.476,0,0,1,.641.109Z" transform="translate(5950 -11140)" fill="#12263f"/>
    <path id="Path_182354" data-name="Path 182354" d="M381.93,217.084a4.984,4.984,0,0,1,.488-2.234,3.634,3.634,0,0,1,1.36-1.532,3.7,3.7,0,0,1,1.988-.539,3.567,3.567,0,0,1,2.793,1.2,4.6,4.6,0,0,1,1.066,3.179v.1a5.05,5.05,0,0,1-.472,2.215A3.6,3.6,0,0,1,387.8,221a3.751,3.751,0,0,1-2.02.547A3.555,3.555,0,0,1,383,220.35a4.576,4.576,0,0,1-1.066-3.164Zm1.453.172a3.618,3.618,0,0,0,.652,2.258,2.211,2.211,0,0,0,3.5-.012,3.956,3.956,0,0,0,.649-2.418,3.616,3.616,0,0,0-.66-2.254,2.1,2.1,0,0,0-1.754-.863,2.076,2.076,0,0,0-1.727.851,3.929,3.929,0,0,0-.656,2.438" transform="translate(5950 -11140)" fill="#12263f"/>
    <path id="Path_182355" data-name="Path 182355" d="M398.738,217.256a5.064,5.064,0,0,1-.883,3.109,2.829,2.829,0,0,1-2.39,1.18,3.1,3.1,0,0,1-2.422-.976v4.07H391.6v-11.7h1.32l.07.937a2.977,2.977,0,0,1,2.453-1.093,2.883,2.883,0,0,1,2.411,1.148,5.131,5.131,0,0,1,.886,3.2Zm-1.445-.164a3.737,3.737,0,0,0-.609-2.258,1.966,1.966,0,0,0-1.672-.828,2.125,2.125,0,0,0-1.969,1.164v4.039a2.128,2.128,0,0,0,1.984,1.156,1.956,1.956,0,0,0,1.653-.824,4.084,4.084,0,0,0,.613-2.449" transform="translate(5950 -11140)" fill="#12263f"/>
    <path id="Path_182356" data-name="Path 182356" d="M400.74,210.694a.869.869,0,0,1,.215-.594.812.812,0,0,1,.637-.242.821.821,0,0,1,.641.242.853.853,0,0,1,.218.594.825.825,0,0,1-.218.586.835.835,0,0,1-.641.234.826.826,0,0,1-.637-.234.84.84,0,0,1-.215-.586m1.563,10.7h-1.445v-8.453H402.3Z" transform="translate(5950 -11140)" fill="#12263f"/>
    <path id="Path_182357" data-name="Path 182357" d="M404.393,217.084a5.01,5.01,0,0,1,.488-2.234,3.654,3.654,0,0,1,1.36-1.532,3.708,3.708,0,0,1,1.988-.539,3.564,3.564,0,0,1,2.793,1.2,4.6,4.6,0,0,1,1.066,3.179v.1a5.022,5.022,0,0,1-.472,2.215A3.588,3.588,0,0,1,410.264,221a3.746,3.746,0,0,1-2.02.547,3.558,3.558,0,0,1-2.785-1.195,4.576,4.576,0,0,1-1.066-3.164Zm1.453.172a3.63,3.63,0,0,0,.652,2.258,2.211,2.211,0,0,0,3.5-.012,3.943,3.943,0,0,0,.649-2.418,3.6,3.6,0,0,0-.66-2.254,2.2,2.2,0,0,0-3.481-.012,3.929,3.929,0,0,0-.656,2.438" transform="translate(5950 -11140)" fill="#12263f"/>
    <path id="Path_182358" data-name="Path 182358" d="M418.983,219.147a1.061,1.061,0,0,0-.441-.91,4.253,4.253,0,0,0-1.539-.559,7.28,7.28,0,0,1-1.743-.562,2.5,2.5,0,0,1-.953-.782,1.87,1.87,0,0,1-.308-1.078,2.192,2.192,0,0,1,.879-1.757,3.427,3.427,0,0,1,2.246-.719,3.529,3.529,0,0,1,2.332.742,2.355,2.355,0,0,1,.894,1.9H418.9a1.3,1.3,0,0,0-.5-1.023,1.888,1.888,0,0,0-1.269-.43,1.979,1.979,0,0,0-1.235.344,1.081,1.081,0,0,0-.445.9.88.88,0,0,0,.414.79,5.131,5.131,0,0,0,1.5.507,7.828,7.828,0,0,1,1.754.578,2.544,2.544,0,0,1,1,.809,1.983,1.983,0,0,1,.324,1.152,2.16,2.16,0,0,1-.906,1.817,3.8,3.8,0,0,1-2.351.683,4.27,4.27,0,0,1-1.8-.359,2.927,2.927,0,0,1-1.223-1,2.428,2.428,0,0,1-.441-1.394h1.445a1.5,1.5,0,0,0,.582,1.152,2.26,2.26,0,0,0,1.434.426,2.332,2.332,0,0,0,1.316-.332,1.018,1.018,0,0,0,.5-.887" transform="translate(5950 -11140)" fill="#12263f"/>
    <path id="Path_182359" data-name="Path 182359" d="M422.5,220.631a.9.9,0,0,1,.223-.625.847.847,0,0,1,.668-.25.87.87,0,0,1,.675.25.882.882,0,0,1,.231.625.836.836,0,0,1-.231.6.888.888,0,0,1-.675.242.8.8,0,0,1-.891-.844" transform="translate(5950 -11140)" fill="#12263f"/>
    <path id="Path_182360" data-name="Path 182360" d="M354.317,147.262v4.509H351.68v-12.8h4.992a5.783,5.783,0,0,1,2.536.526,3.9,3.9,0,0,1,1.683,1.5,4.184,4.184,0,0,1,.589,2.212,3.678,3.678,0,0,1-1.288,2.967,5.369,5.369,0,0,1-3.563,1.084Zm0-2.136h2.355a2.319,2.319,0,0,0,1.6-.491,1.794,1.794,0,0,0,.549-1.406,2.112,2.112,0,0,0-.554-1.521,2.069,2.069,0,0,0-1.529-.6h-2.417Z" transform="translate(5950 -11140)" fill="#12263f"/>
    <path id="Path_182361" data-name="Path 182361" d="M368.717,151.772a2.783,2.783,0,0,1-.255-.853,3.073,3.073,0,0,1-2.4,1.028,3.377,3.377,0,0,1-2.316-.808,2.6,2.6,0,0,1-.918-2.039,2.686,2.686,0,0,1,1.121-2.321,5.526,5.526,0,0,1,3.238-.817h1.169v-.545a1.567,1.567,0,0,0-.339-1.055,1.331,1.331,0,0,0-1.067-.4,1.51,1.51,0,0,0-1.007.308,1.044,1.044,0,0,0-.364.843h-2.54a2.552,2.552,0,0,1,.51-1.529,3.365,3.365,0,0,1,1.441-1.1,5.263,5.263,0,0,1,2.092-.4,4.158,4.158,0,0,1,2.791.883,3.1,3.1,0,0,1,1.032,2.483v4.122a4.549,4.549,0,0,0,.378,2.048v.15Zm-2.1-1.767a2.175,2.175,0,0,0,1.037-.251,1.635,1.635,0,0,0,.7-.672v-1.635h-.949q-1.907,0-2.03,1.319l-.009.149a1.014,1.014,0,0,0,.334.782,1.3,1.3,0,0,0,.914.308" transform="translate(5950 -11140)" fill="#12263f"/>
    <path id="Path_182362" data-name="Path 182362" d="M376.078,139.923v2.338H377.7v1.863h-1.626v4.746a1.131,1.131,0,0,0,.2.756,1.018,1.018,0,0,0,.774.229,4.052,4.052,0,0,0,.747-.062v1.925a5.241,5.241,0,0,1-1.538.228,2.425,2.425,0,0,1-2.725-2.7v-5.124h-1.389v-1.863h1.389v-2.338Z" transform="translate(5950 -11140)" fill="#12263f"/>
    <path id="Path_182363" data-name="Path 182363" d="M384.643,144.643a6.871,6.871,0,0,0-.914-.07,1.861,1.861,0,0,0-1.89.975v6.223H379.3v-9.51h2.4l.07,1.134a2.354,2.354,0,0,1,2.118-1.31,2.636,2.636,0,0,1,.791.115Z" transform="translate(5950 -11140)" fill="#12263f"/>
    <path id="Path_182364" data-name="Path 182364" d="M386.027,139.8a1.253,1.253,0,0,1,.381-.94,1.649,1.649,0,0,1,2.079,0,1.342,1.342,0,0,1,0,1.89,1.629,1.629,0,0,1-2.065,0,1.245,1.245,0,0,1-.391-.95m2.7,11.971h-2.549v-9.51h2.549Z" transform="translate(5950 -11140)" fill="#12263f"/>
    <path id="Path_182365" data-name="Path 182365" d="M393.379,142.261l.079,1.063a3.343,3.343,0,0,1,2.734-1.239,2.537,2.537,0,0,1,2.522,1.45,3.267,3.267,0,0,1,2.856-1.45,2.838,2.838,0,0,1,2.3.9,4.141,4.141,0,0,1,.756,2.712v6.073H402.08v-6.078a1.821,1.821,0,0,0-.316-1.186,1.4,1.4,0,0,0-1.116-.374,1.584,1.584,0,0,0-1.582,1.093l.008,6.545h-2.54V145.7a1.794,1.794,0,0,0-.325-1.2,1.413,1.413,0,0,0-1.107-.37,1.646,1.646,0,0,0-1.565.9v6.739H391v-9.51Z" transform="translate(5950 -11140)" fill="#12263f"/>
    <path id="Path_182366" data-name="Path 182366" d="M406.364,146.928a5.642,5.642,0,0,1,.545-2.522,3.99,3.99,0,0,1,1.568-1.714,4.584,4.584,0,0,1,2.378-.606A4.331,4.331,0,0,1,414,143.263a4.731,4.731,0,0,1,1.358,3.2l.018.65a4.97,4.97,0,0,1-1.222,3.512,4.735,4.735,0,0,1-6.56,0,5.053,5.053,0,0,1-1.227-3.586Zm2.54.181a3.549,3.549,0,0,0,.51,2.072,1.83,1.83,0,0,0,2.9.009,3.885,3.885,0,0,0,.519-2.267,3.516,3.516,0,0,0-.519-2.059,1.686,1.686,0,0,0-1.459-.731,1.659,1.659,0,0,0-1.441.727,3.949,3.949,0,0,0-.51,2.249" transform="translate(5950 -11140)" fill="#12263f"/>
    <path id="Path_182367" data-name="Path 182367" d="M419.455,142.261l.079,1.1a3.321,3.321,0,0,1,2.734-1.275,2.757,2.757,0,0,1,2.249.888,4.132,4.132,0,0,1,.756,2.654v6.144h-2.54v-6.1a1.658,1.658,0,0,0-.351-1.177,1.575,1.575,0,0,0-1.169-.365,1.749,1.749,0,0,0-1.609.916v6.722h-2.54v-9.51Z" transform="translate(5950 -11140)" fill="#12263f"/>
    <path id="Path_182368" data-name="Path 182368" d="M427.361,139.8a1.254,1.254,0,0,1,.382-.94,1.649,1.649,0,0,1,2.079,0,1.342,1.342,0,0,1,0,1.89,1.629,1.629,0,0,1-2.065,0,1.246,1.246,0,0,1-.392-.95m2.7,11.971h-2.549v-9.51h2.549Z" transform="translate(5950 -11140)" fill="#12263f"/>
    <path id="Path_182369" data-name="Path 182369" d="M431.936,146.928a5.642,5.642,0,0,1,.545-2.522,3.99,3.99,0,0,1,1.568-1.714,4.583,4.583,0,0,1,2.378-.606,4.331,4.331,0,0,1,3.142,1.177,4.731,4.731,0,0,1,1.358,3.2l.018.65a4.97,4.97,0,0,1-1.222,3.512,4.735,4.735,0,0,1-6.56,0,5.053,5.053,0,0,1-1.227-3.586Zm2.54.181a3.549,3.549,0,0,0,.51,2.072,1.83,1.83,0,0,0,2.9.009,3.885,3.885,0,0,0,.519-2.267,3.516,3.516,0,0,0-.519-2.059,1.686,1.686,0,0,0-1.459-.731,1.659,1.659,0,0,0-1.441.727,3.949,3.949,0,0,0-.51,2.249" transform="translate(5950 -11140)" fill="#12263f"/>
    <rect id="Rectangle_38192" data-name="Rectangle 38192" width="88.714" height="1.286" transform="translate(6301.769 -10968.068)" fill="#f9b131"/>
    <path id="Path_182370" data-name="Path 182370" d="M658.549,202.189V190.814h3.211a5.173,5.173,0,0,1,2.625.657,4.434,4.434,0,0,1,1.762,1.867,6.086,6.086,0,0,1,.629,2.781v.727a6.088,6.088,0,0,1-.622,2.82,4.362,4.362,0,0,1-1.773,1.859,5.492,5.492,0,0,1-2.684.664Zm1.5-10.148v8.922h1.578a3.432,3.432,0,0,0,2.7-1.079,4.459,4.459,0,0,0,.965-3.073v-.665a4.539,4.539,0,0,0-.91-3.014,3.243,3.243,0,0,0-2.582-1.091Z" transform="translate(5950 -11140)" fill="#12263f"/>
    <path id="Path_182371" data-name="Path 182371" d="M672.483,202.345a3.691,3.691,0,0,1-2.8-1.129,4.189,4.189,0,0,1-1.078-3.019v-.266a5.075,5.075,0,0,1,.48-2.246,3.74,3.74,0,0,1,1.344-1.547,3.377,3.377,0,0,1,1.871-.558,3.171,3.171,0,0,1,2.563,1.085,4.706,4.706,0,0,1,.914,3.11v.6h-5.727a3,3,0,0,0,.73,2.02,2.3,2.3,0,0,0,1.778.769,2.526,2.526,0,0,0,1.3-.312,3.254,3.254,0,0,0,.929-.828l.883.687a3.55,3.55,0,0,1-3.187,1.633m-.18-7.578a1.925,1.925,0,0,0-1.469.637,3.1,3.1,0,0,0-.734,1.785h4.234v-.109a2.764,2.764,0,0,0-.594-1.708,1.817,1.817,0,0,0-1.437-.6" transform="translate(5950 -11140)" fill="#12263f"/>
    <path id="Path_182372" data-name="Path 182372" d="M682.533,199.947a1.066,1.066,0,0,0-.441-.91,4.283,4.283,0,0,0-1.539-.559,7.25,7.25,0,0,1-1.743-.562,2.482,2.482,0,0,1-.953-.782,1.856,1.856,0,0,1-.308-1.078,2.192,2.192,0,0,1,.879-1.757,3.425,3.425,0,0,1,2.246-.719,3.536,3.536,0,0,1,2.332.742,2.361,2.361,0,0,1,.894,1.9h-1.453a1.3,1.3,0,0,0-.5-1.023,1.892,1.892,0,0,0-1.269-.43,1.975,1.975,0,0,0-1.235.344,1.081,1.081,0,0,0-.445.9.876.876,0,0,0,.414.79,5.086,5.086,0,0,0,1.5.507,7.9,7.9,0,0,1,1.754.578,2.573,2.573,0,0,1,1,.809,2,2,0,0,1,.324,1.152,2.165,2.165,0,0,1-.906,1.817,3.8,3.8,0,0,1-2.351.683,4.257,4.257,0,0,1-1.8-.359,2.9,2.9,0,0,1-1.223-1,2.413,2.413,0,0,1-.441-1.394h1.445a1.49,1.49,0,0,0,.582,1.152,2.256,2.256,0,0,0,1.434.426,2.337,2.337,0,0,0,1.316-.332,1.023,1.023,0,0,0,.5-.887" transform="translate(5950 -11140)" fill="#12263f"/>
    <path id="Path_182373" data-name="Path 182373" d="M687.982,191.689v2.047h1.578v1.117h-1.578V200.1a1.173,1.173,0,0,0,.211.763.888.888,0,0,0,.719.254,3.556,3.556,0,0,0,.687-.094v1.165a4.24,4.24,0,0,1-1.109.155,1.8,1.8,0,0,1-1.461-.586,2.516,2.516,0,0,1-.492-1.664v-5.242H685v-1.117h1.539v-2.047Z" transform="translate(5950 -11140)" fill="#12263f"/>
    <path id="Path_182374" data-name="Path 182374" d="M691.414,191.494a.863.863,0,0,1,.215-.594.963.963,0,0,1,1.277,0,.847.847,0,0,1,.219.594.9.9,0,0,1-1.5.586.837.837,0,0,1-.215-.586m1.563,10.695h-1.445v-8.453h1.445Z" transform="translate(5950 -11140)" fill="#12263f"/>
    <path id="Path_182375" data-name="Path 182375" d="M696.817,193.736l.047,1.062a3.081,3.081,0,0,1,2.53-1.218q2.682,0,2.7,3.023v5.586h-1.444V196.6a1.942,1.942,0,0,0-.419-1.351,1.67,1.67,0,0,0-1.276-.438,2.1,2.1,0,0,0-1.236.375,2.58,2.58,0,0,0-.828.985v6.023H695.45v-8.453Z" transform="translate(5950 -11140)" fill="#12263f"/>
    <path id="Path_182376" data-name="Path 182376" d="M704.055,197.884a5.01,5.01,0,0,1,.488-2.234,3.654,3.654,0,0,1,1.36-1.532,3.708,3.708,0,0,1,1.988-.539,3.564,3.564,0,0,1,2.793,1.2,4.6,4.6,0,0,1,1.066,3.179v.1a5.022,5.022,0,0,1-.472,2.215,3.588,3.588,0,0,1-1.352,1.527,3.746,3.746,0,0,1-2.02.547,3.558,3.558,0,0,1-2.785-1.2,4.576,4.576,0,0,1-1.066-3.164Zm1.453.172a3.63,3.63,0,0,0,.652,2.258,2.211,2.211,0,0,0,3.5-.012,3.943,3.943,0,0,0,.649-2.418,3.6,3.6,0,0,0-.66-2.254,2.2,2.2,0,0,0-3.481-.012,3.929,3.929,0,0,0-.656,2.438" transform="translate(5950 -11140)" fill="#12263f"/>
    <path id="Path_182377" data-name="Path 182377" d="M634.9,217.092a4.955,4.955,0,0,1,.922-3.129,3.135,3.135,0,0,1,4.765-.168v-4.406h1.445v12h-1.328l-.07-.906a2.944,2.944,0,0,1-2.414,1.062,2.889,2.889,0,0,1-2.4-1.2,5.009,5.009,0,0,1-.925-3.141Zm1.445.164a3.756,3.756,0,0,0,.594,2.25,1.919,1.919,0,0,0,1.64.813,2.108,2.108,0,0,0,2.008-1.235V215.2a2.122,2.122,0,0,0-1.992-1.2,1.929,1.929,0,0,0-1.656.82,4.135,4.135,0,0,0-.594,2.43" transform="translate(5950 -11140)" fill="#12263f"/>
    <path id="Path_182378" data-name="Path 182378" d="M647.944,221.545a3.694,3.694,0,0,1-2.8-1.129,4.189,4.189,0,0,1-1.078-3.019v-.266a5.075,5.075,0,0,1,.48-2.246,3.754,3.754,0,0,1,1.344-1.547,3.382,3.382,0,0,1,1.871-.558,3.169,3.169,0,0,1,2.563,1.085,4.706,4.706,0,0,1,.914,3.11v.6h-5.727a3.018,3.018,0,0,0,.73,2.02,2.3,2.3,0,0,0,1.778.769,2.516,2.516,0,0,0,1.3-.312,3.227,3.227,0,0,0,.929-.828l.883.687a3.545,3.545,0,0,1-3.187,1.633m-.18-7.578a1.931,1.931,0,0,0-1.469.637,3.109,3.109,0,0,0-.734,1.785h4.234v-.109a2.74,2.74,0,0,0-.594-1.708,1.813,1.813,0,0,0-1.437-.605" transform="translate(5950 -11140)" fill="#12263f"/>
    <rect id="Rectangle_38193" data-name="Rectangle 38193" width="1.445" height="12" transform="translate(6607.319 -10930.611)" fill="#12263f"/>
    <path id="Path_182379" data-name="Path 182379" d="M660.854,217.084a4.984,4.984,0,0,1,.488-2.234,3.634,3.634,0,0,1,1.36-1.532,3.7,3.7,0,0,1,1.988-.539,3.566,3.566,0,0,1,2.793,1.2,4.6,4.6,0,0,1,1.066,3.179v.1a5.051,5.051,0,0,1-.472,2.215A3.6,3.6,0,0,1,666.725,221a3.751,3.751,0,0,1-2.02.547,3.555,3.555,0,0,1-2.785-1.195,4.576,4.576,0,0,1-1.066-3.164Zm1.453.172a3.618,3.618,0,0,0,.652,2.258,2.211,2.211,0,0,0,3.5-.012,3.956,3.956,0,0,0,.649-2.418,3.616,3.616,0,0,0-.66-2.254,2.1,2.1,0,0,0-1.754-.863,2.076,2.076,0,0,0-1.727.851,3.929,3.929,0,0,0-.656,2.438" transform="translate(5950 -11140)" fill="#12263f"/>
    <path id="Path_182380" data-name="Path 182380" d="M675.443,219.147a1.066,1.066,0,0,0-.441-.91,4.284,4.284,0,0,0-1.539-.559,7.25,7.25,0,0,1-1.743-.562,2.482,2.482,0,0,1-.953-.782,1.855,1.855,0,0,1-.308-1.078,2.192,2.192,0,0,1,.879-1.757,3.425,3.425,0,0,1,2.246-.719,3.536,3.536,0,0,1,2.332.742,2.361,2.361,0,0,1,.894,1.9h-1.453a1.3,1.3,0,0,0-.5-1.023,1.892,1.892,0,0,0-1.269-.43,1.975,1.975,0,0,0-1.235.344,1.081,1.081,0,0,0-.445.9.876.876,0,0,0,.414.79,5.087,5.087,0,0,0,1.5.507,7.9,7.9,0,0,1,1.754.578,2.573,2.573,0,0,1,1,.809,2,2,0,0,1,.324,1.152,2.165,2.165,0,0,1-.906,1.817,3.8,3.8,0,0,1-2.351.683,4.258,4.258,0,0,1-1.8-.359,2.9,2.9,0,0,1-1.223-1,2.413,2.413,0,0,1-.441-1.394h1.445a1.49,1.49,0,0,0,.582,1.152,2.256,2.256,0,0,0,1.434.426,2.337,2.337,0,0,0,1.316-.332,1.023,1.023,0,0,0,.5-.887" transform="translate(5950 -11140)" fill="#12263f"/>
    <path id="Path_182381" data-name="Path 182381" d="M684.412,212.936l.039.937a3.12,3.12,0,0,1,2.508-1.093,2.418,2.418,0,0,1,2.414,1.359,3.189,3.189,0,0,1,1.1-.984,3.234,3.234,0,0,1,1.6-.375q2.781,0,2.828,2.945v5.664h-1.445v-5.578a1.944,1.944,0,0,0-.414-1.355,1.824,1.824,0,0,0-1.391-.45,1.913,1.913,0,0,0-1.336.481,1.943,1.943,0,0,0-.617,1.293v5.609H688.24V215.85a1.613,1.613,0,0,0-1.8-1.844,1.932,1.932,0,0,0-1.945,1.211v6.172h-1.445v-8.453Z" transform="translate(5950 -11140)" fill="#12263f"/>
    <path id="Path_182382" data-name="Path 182382" d="M700.745,221.545a3.691,3.691,0,0,1-2.8-1.129,4.189,4.189,0,0,1-1.078-3.019v-.266a5.076,5.076,0,0,1,.48-2.246,3.74,3.74,0,0,1,1.344-1.547,3.377,3.377,0,0,1,1.871-.558,3.171,3.171,0,0,1,2.563,1.085,4.706,4.706,0,0,1,.914,3.11v.6h-5.727a3,3,0,0,0,.73,2.02,2.3,2.3,0,0,0,1.778.769,2.527,2.527,0,0,0,1.3-.312,3.254,3.254,0,0,0,.929-.828l.883.687a3.549,3.549,0,0,1-3.187,1.633m-.18-7.578a1.925,1.925,0,0,0-1.469.637,3.1,3.1,0,0,0-.734,1.785H702.6v-.109a2.764,2.764,0,0,0-.594-1.708,1.817,1.817,0,0,0-1.437-.605" transform="translate(5950 -11140)" fill="#12263f"/>
    <path id="Path_182383" data-name="Path 182383" d="M705.522,217.092a4.944,4.944,0,0,1,.922-3.129,3.135,3.135,0,0,1,4.765-.168v-4.406h1.445v12h-1.328l-.07-.906a2.944,2.944,0,0,1-2.414,1.062,2.888,2.888,0,0,1-2.395-1.2,5.009,5.009,0,0,1-.925-3.141Zm1.445.164a3.743,3.743,0,0,0,.594,2.25,1.915,1.915,0,0,0,1.64.813,2.11,2.11,0,0,0,2.008-1.235V215.2a2.125,2.125,0,0,0-1.992-1.2,1.925,1.925,0,0,0-1.656.82,4.121,4.121,0,0,0-.594,2.43" transform="translate(5950 -11140)" fill="#12263f"/>
    <path id="Path_182384" data-name="Path 182384" d="M715.063,210.694a.869.869,0,0,1,.214-.594.812.812,0,0,1,.637-.242.821.821,0,0,1,.641.242.854.854,0,0,1,.219.594.825.825,0,0,1-.219.586.835.835,0,0,1-.641.234.826.826,0,0,1-.637-.234.84.84,0,0,1-.214-.586m1.562,10.7H715.18v-8.453h1.445Z" transform="translate(5950 -11140)" fill="#12263f"/>
    <path id="Path_182385" data-name="Path 182385" d="M718.715,217.084a5.011,5.011,0,0,1,.488-2.234,3.654,3.654,0,0,1,1.36-1.532,3.708,3.708,0,0,1,1.988-.539,3.564,3.564,0,0,1,2.793,1.2,4.6,4.6,0,0,1,1.066,3.179v.1a5.022,5.022,0,0,1-.472,2.215A3.588,3.588,0,0,1,724.586,221a3.746,3.746,0,0,1-2.02.547,3.558,3.558,0,0,1-2.785-1.195,4.576,4.576,0,0,1-1.066-3.164Zm1.453.172a3.63,3.63,0,0,0,.652,2.258,2.211,2.211,0,0,0,3.5-.012,3.943,3.943,0,0,0,.649-2.418,3.6,3.6,0,0,0-.66-2.254,2.2,2.2,0,0,0-3.481-.012,3.93,3.93,0,0,0-.656,2.438" transform="translate(5950 -11140)" fill="#12263f"/>
    <path id="Path_182386" data-name="Path 182386" d="M733.3,219.147a1.061,1.061,0,0,0-.441-.91,4.253,4.253,0,0,0-1.539-.559,7.281,7.281,0,0,1-1.743-.562,2.5,2.5,0,0,1-.953-.782,1.87,1.87,0,0,1-.308-1.078,2.192,2.192,0,0,1,.879-1.757,3.427,3.427,0,0,1,2.246-.719,3.529,3.529,0,0,1,2.332.742,2.356,2.356,0,0,1,.894,1.9h-1.453a1.3,1.3,0,0,0-.5-1.023,1.888,1.888,0,0,0-1.269-.43,1.979,1.979,0,0,0-1.235.344,1.081,1.081,0,0,0-.445.9.88.88,0,0,0,.414.79,5.131,5.131,0,0,0,1.5.507,7.829,7.829,0,0,1,1.754.578,2.544,2.544,0,0,1,1,.809,1.983,1.983,0,0,1,.324,1.152,2.16,2.16,0,0,1-.906,1.817,3.8,3.8,0,0,1-2.351.683,4.27,4.27,0,0,1-1.8-.359,2.927,2.927,0,0,1-1.223-1,2.427,2.427,0,0,1-.441-1.394h1.445a1.5,1.5,0,0,0,.582,1.152,2.26,2.26,0,0,0,1.434.426,2.333,2.333,0,0,0,1.316-.332,1.018,1.018,0,0,0,.5-.887" transform="translate(5950 -11140)" fill="#12263f"/>
    <path id="Path_182387" data-name="Path 182387" d="M639.654,240.589v-7.336h-1.336v-1.117h1.336v-.867a2.876,2.876,0,0,1,.727-2.1,2.742,2.742,0,0,1,2.054-.742,3.809,3.809,0,0,1,.992.132l-.078,1.165a4.124,4.124,0,0,0-.781-.071,1.409,1.409,0,0,0-1.086.412,1.674,1.674,0,0,0-.383,1.179v.894h1.8v1.117h-1.8v7.336Z" transform="translate(5958 -11140)" fill="#12263f"/>
    <path id="Path_182388" data-name="Path 182388" d="M644.666,229.894a.866.866,0,0,1,.215-.594.963.963,0,0,1,1.277,0,.851.851,0,0,1,.219.594.821.821,0,0,1-.219.586.854.854,0,0,1-1.492-.586m1.563,10.7h-1.445v-8.453h1.445Z" transform="translate(5958 -11140)" fill="#12263f"/>
    <path id="Path_182390" data-name="Path 182390" d="M658.932,232.136l.047,1.062a3.082,3.082,0,0,1,2.531-1.218q2.68,0,2.7,3.023v5.586h-1.445v-5.594a1.942,1.942,0,0,0-.418-1.351,1.672,1.672,0,0,0-1.277-.438,2.091,2.091,0,0,0-1.235.375,2.562,2.562,0,0,0-.828.985v6.023h-1.445v-8.453Z" transform="translate(5950 -11140)" fill="#12263f"/>
    <path id="Path_182391" data-name="Path 182391" d="M671.771,240.59a2.988,2.988,0,0,1-.2-.891,3.225,3.225,0,0,1-2.406,1.047,2.983,2.983,0,0,1-2.051-.707,2.286,2.286,0,0,1-.8-1.793,2.389,2.389,0,0,1,1-2.051,4.73,4.73,0,0,1,2.825-.73h1.406V234.8a1.631,1.631,0,0,0-.453-1.208,1.825,1.825,0,0,0-1.336-.449,2.1,2.1,0,0,0-1.3.391,1.148,1.148,0,0,0-.523.945h-1.454a1.984,1.984,0,0,1,.45-1.222,3.045,3.045,0,0,1,1.218-.934,4.084,4.084,0,0,1,1.692-.344,3.342,3.342,0,0,1,2.289.731,2.638,2.638,0,0,1,.859,2.011v3.891a4.738,4.738,0,0,0,.3,1.852v.125Zm-2.4-1.1a2.534,2.534,0,0,0,1.289-.352,2.136,2.136,0,0,0,.883-.914v-1.734h-1.133q-2.656,0-2.656,1.555a1.312,1.312,0,0,0,.453,1.062,1.739,1.739,0,0,0,1.164.383" transform="translate(5950 -11140)" fill="#12263f"/>
    <path id="Path_182392" data-name="Path 182392" d="M676.783,232.136l.047,1.062a3.076,3.076,0,0,1,2.531-1.218q2.677,0,2.7,3.023v5.586h-1.445v-5.594a1.952,1.952,0,0,0-.418-1.351,1.673,1.673,0,0,0-1.277-.438,2.087,2.087,0,0,0-1.235.375,2.527,2.527,0,0,0-.828.985v6.023h-1.445v-8.453Z" transform="translate(5950 -11140)" fill="#12263f"/>
    <path id="Path_182393" data-name="Path 182393" d="M687.795,239.566a2.083,2.083,0,0,0,1.352-.469,1.657,1.657,0,0,0,.64-1.172h1.367a2.628,2.628,0,0,1-.5,1.383,3.306,3.306,0,0,1-1.23,1.047,3.55,3.55,0,0,1-1.629.391,3.479,3.479,0,0,1-2.746-1.153,4.588,4.588,0,0,1-1.02-3.152V236.2a5.087,5.087,0,0,1,.453-2.2,3.444,3.444,0,0,1,1.3-1.493,3.7,3.7,0,0,1,2-.531,3.391,3.391,0,0,1,2.363.852,3.048,3.048,0,0,1,1,2.211h-1.367a2,2,0,0,0-.621-1.348,1.931,1.931,0,0,0-1.379-.527,2.021,2.021,0,0,0-1.707.793,3.719,3.719,0,0,0-.605,2.292v.274a3.644,3.644,0,0,0,.6,2.25,2.032,2.032,0,0,0,1.719.789" transform="translate(5950 -11140)" fill="#12263f"/>
    <path id="Path_182394" data-name="Path 182394" d="M692.947,229.894a.862.862,0,0,1,.215-.594.809.809,0,0,1,.637-.242.824.824,0,0,1,.641.242.864.864,0,0,1,.218.594.78.78,0,0,1-.859.82.823.823,0,0,1-.637-.234.831.831,0,0,1-.215-.586m1.563,10.7h-1.445v-8.453h1.445Z" transform="translate(5950 -11140)" fill="#12263f"/>
    <path id="Path_182395" data-name="Path 182395" d="M700.491,240.746a3.691,3.691,0,0,1-2.8-1.129,4.189,4.189,0,0,1-1.078-3.019v-.266a5.075,5.075,0,0,1,.48-2.246,3.74,3.74,0,0,1,1.344-1.547,3.377,3.377,0,0,1,1.871-.558,3.171,3.171,0,0,1,2.563,1.085,4.706,4.706,0,0,1,.914,3.11v.6h-5.727a3,3,0,0,0,.73,2.02,2.3,2.3,0,0,0,1.778.769,2.527,2.527,0,0,0,1.3-.312,3.253,3.253,0,0,0,.929-.828l.883.687a3.549,3.549,0,0,1-3.187,1.633m-.18-7.578a1.925,1.925,0,0,0-1.469.637,3.1,3.1,0,0,0-.734,1.785h4.234v-.109a2.764,2.764,0,0,0-.594-1.708,1.817,1.817,0,0,0-1.437-.6" transform="translate(5950 -11140)" fill="#12263f"/>
    <path id="Path_182396" data-name="Path 182396" d="M709.705,233.433a4.4,4.4,0,0,0-.711-.055,1.9,1.9,0,0,0-1.93,1.211v6h-1.445v-8.453h1.406l.024.977a2.247,2.247,0,0,1,2.015-1.133,1.476,1.476,0,0,1,.641.109Z" transform="translate(5950 -11140)" fill="#12263f"/>
    <path id="Path_182397" data-name="Path 182397" d="M710.653,236.285a5.011,5.011,0,0,1,.488-2.234,3.654,3.654,0,0,1,1.36-1.532,3.708,3.708,0,0,1,1.988-.539,3.564,3.564,0,0,1,2.793,1.2,4.6,4.6,0,0,1,1.066,3.179v.1a5.022,5.022,0,0,1-.472,2.215,3.588,3.588,0,0,1-1.352,1.527,3.746,3.746,0,0,1-2.02.547,3.558,3.558,0,0,1-2.785-1.2,4.576,4.576,0,0,1-1.066-3.164Zm1.453.172a3.63,3.63,0,0,0,.652,2.258,2.211,2.211,0,0,0,3.5-.012,3.943,3.943,0,0,0,.649-2.418,3.6,3.6,0,0,0-.66-2.254,2.2,2.2,0,0,0-3.481-.012,3.929,3.929,0,0,0-.656,2.438" transform="translate(5950 -11140)" fill="#12263f"/>
    <path id="Path_182398" data-name="Path 182398" d="M725.242,238.347a1.061,1.061,0,0,0-.441-.91,4.253,4.253,0,0,0-1.539-.559,7.28,7.28,0,0,1-1.743-.562,2.5,2.5,0,0,1-.953-.782,1.871,1.871,0,0,1-.308-1.078,2.192,2.192,0,0,1,.879-1.757,3.427,3.427,0,0,1,2.246-.719,3.529,3.529,0,0,1,2.332.742,2.356,2.356,0,0,1,.894,1.9h-1.453a1.3,1.3,0,0,0-.5-1.023,1.888,1.888,0,0,0-1.269-.43,1.979,1.979,0,0,0-1.235.344,1.081,1.081,0,0,0-.445.9.88.88,0,0,0,.414.79,5.132,5.132,0,0,0,1.5.507,7.829,7.829,0,0,1,1.754.578,2.544,2.544,0,0,1,1,.809,1.983,1.983,0,0,1,.324,1.152,2.16,2.16,0,0,1-.906,1.817,3.8,3.8,0,0,1-2.351.683,4.27,4.27,0,0,1-1.8-.359,2.927,2.927,0,0,1-1.223-1,2.428,2.428,0,0,1-.441-1.394h1.445A1.5,1.5,0,0,0,722,239.14a2.26,2.26,0,0,0,1.434.426,2.332,2.332,0,0,0,1.316-.332,1.018,1.018,0,0,0,.5-.887" transform="translate(5950 -11140)" fill="#12263f"/>
    <path id="Path_182399" data-name="Path 182399" d="M728.762,239.832a.9.9,0,0,1,.223-.625.847.847,0,0,1,.668-.25.87.87,0,0,1,.675.25.882.882,0,0,1,.231.625.837.837,0,0,1-.231.6.888.888,0,0,1-.675.242.8.8,0,0,1-.891-.844" transform="translate(5950 -11140)" fill="#12263f"/>
    <path id="Path_182400" data-name="Path 182400" d="M667.01,149.135h-4.623l-.879,2.636h-2.8l4.764-12.8h2.444l4.791,12.8H667.9ZM663.1,147h3.2l-1.607-4.79Z" transform="translate(5950 -11140)" fill="#12263f"/>
    <path id="Path_182401" data-name="Path 182401" d="M675.863,149.9a1.666,1.666,0,0,0,1.143-.387,1.355,1.355,0,0,0,.457-1.028h2.382a3.251,3.251,0,0,1-.527,1.771,3.482,3.482,0,0,1-1.42,1.248,4.455,4.455,0,0,1-1.99.444,4.127,4.127,0,0,1-3.217-1.3,5.128,5.128,0,0,1-1.178-3.581V146.9a5.072,5.072,0,0,1,1.168-3.507,4.084,4.084,0,0,1,3.209-1.309,4,4,0,0,1,2.862,1.015,3.6,3.6,0,0,1,1.093,2.7h-2.382a1.747,1.747,0,0,0-.457-1.206,1.7,1.7,0,0,0-2.5.183,3.741,3.741,0,0,0-.454,2.1v.265a3.79,3.79,0,0,0,.45,2.112,1.546,1.546,0,0,0,1.361.643" transform="translate(5950 -11140)" fill="#12263f"/>
    <path id="Path_182402" data-name="Path 182402" d="M684.518,139.923v2.338h1.625v1.863h-1.625v4.746a1.131,1.131,0,0,0,.2.756,1.018,1.018,0,0,0,.774.229,4.064,4.064,0,0,0,.748-.062v1.925a5.248,5.248,0,0,1-1.539.228,2.425,2.425,0,0,1-2.725-2.7v-5.124h-1.389v-1.863h1.389v-2.338Z" transform="translate(5950 -11140)" fill="#12263f"/>
    <path id="Path_182403" data-name="Path 182403" d="M687.721,139.8a1.253,1.253,0,0,1,.381-.94,1.65,1.65,0,0,1,2.08,0,1.342,1.342,0,0,1-.006,1.89,1.629,1.629,0,0,1-2.065,0,1.248,1.248,0,0,1-.39-.95m2.7,11.971h-2.549v-9.51h2.549Z" transform="translate(5950 -11140)" fill="#12263f"/>
    <path id="Path_182404" data-name="Path 182404" d="M696.25,148.669l1.766-6.407h2.654l-3.207,9.51h-2.426l-3.209-9.51h2.654Z" transform="translate(5950 -11140)" fill="#12263f"/>
    <path id="Path_182405" data-name="Path 182405" d="M701.44,146.928a5.642,5.642,0,0,1,.545-2.522,4,4,0,0,1,1.568-1.714,4.59,4.59,0,0,1,2.379-.606,4.327,4.327,0,0,1,3.141,1.177,4.727,4.727,0,0,1,1.359,3.2l.018.65a4.971,4.971,0,0,1-1.223,3.512,4.735,4.735,0,0,1-6.56,0,5.053,5.053,0,0,1-1.227-3.586Zm2.541.181a3.549,3.549,0,0,0,.51,2.072,1.83,1.83,0,0,0,2.9.009,3.885,3.885,0,0,0,.518-2.267,3.517,3.517,0,0,0-.518-2.059,1.686,1.686,0,0,0-1.459-.731,1.659,1.659,0,0,0-1.441.727,3.949,3.949,0,0,0-.51,2.249" transform="translate(5950 -11140)" fill="#12263f"/>
    <rect id="Rectangle_38194" data-name="Rectangle 38194" width="88.714" height="1.286" transform="translate(6590.572 -10968.068)" fill="#f9b131"/>
  </g>
</svg>
