<svg xmlns="http://www.w3.org/2000/svg" width="246.699" height="353.862" viewBox="0 0 246.699 353.862">
  <g id="t5-p5" transform="translate(-3462.302 6738.862)">
    <path id="Path_182962" data-name="Path 182962" d="M1200.5,352.362H1030.272a11.809,11.809,0,0,1-11.809-11.809V77.033a11.809,11.809,0,0,1,11.809-11.809H1200.5a11.809,11.809,0,0,1,11.809,11.809v263.52a11.809,11.809,0,0,1-11.809,11.809" transform="translate(2469 -6738.862)" fill="#ffe1ad"/>
    <path id="Rectangle_38230" data-name="Rectangle 38230" d="M11.809-1.5H182.034a13.309,13.309,0,0,1,13.309,13.309v263.52a13.309,13.309,0,0,1-13.309,13.309H11.809A13.309,13.309,0,0,1-1.5,275.329V11.809A13.309,13.309,0,0,1,11.809-1.5ZM182.034,285.638a10.321,10.321,0,0,0,10.309-10.309V11.809A10.321,10.321,0,0,0,182.034,1.5H11.809A10.321,10.321,0,0,0,1.5,11.809v263.52a10.321,10.321,0,0,0,10.309,10.309Z" transform="translate(3487.463 -6673.638)" fill="#f9b131"/>
    <path id="Path_182963" data-name="Path 182963" d="M996.557,82.857l20.486-40.426L996.557,2h220.715l20.485,40.431-20.485,40.426Z" transform="translate(2469 -6738.862)" fill="#f9b131"/>
    <path id="Path_182964" data-name="Path 182964" d="M1216.043,4l19.473,38.432-19.472,38.425H999.814L1018.37,44.24l.916-1.808-.916-1.808L999.813,4Zm2.458-4H993.3l21.5,42.432L993.3,84.857h225.2L1240,42.432Z" transform="translate(2469 -6738.862)" fill="#f9b131"/>
    <path id="Path_182965" data-name="Path 182965" d="M1214.623,80.607H998.953L1018.3,42.432,998.953,4.25h215.67l19.346,38.182-.172.339Zm-213.228-1.5H1213.7l18.586-36.675L1213.7,5.75H1001.395l18.586,36.682-1.318,2.6Z" transform="translate(2469 -6738.862)" fill="#ffd48a"/>
    <path id="Path_182966" data-name="Path 182966" d="M1081.451,35.654a4.154,4.154,0,0,1-.641,2.1,3.876,3.876,0,0,1-1.644,1.41,5.619,5.619,0,0,1-2.418.5,4.469,4.469,0,0,1-3.531-1.461,6.033,6.033,0,0,1-1.289-4.125v-.563a6.88,6.88,0,0,1,.582-2.925,4.4,4.4,0,0,1,1.675-1.938,4.67,4.67,0,0,1,2.532-.683,4.906,4.906,0,0,1,3.328,1.089,4.3,4.3,0,0,1,1.429,3h-2.734a2.032,2.032,0,0,0-.523-1.492,2.15,2.15,0,0,0-1.5-.453,1.634,1.634,0,0,0-1.5.766,4.9,4.9,0,0,0-.5,2.445v.805a5.444,5.444,0,0,0,.457,2.6,1.673,1.673,0,0,0,1.574.781,2.1,2.1,0,0,0,1.445-.445,1.889,1.889,0,0,0,.531-1.414Z" transform="translate(2469 -6738.862)" fill="#12263f"/>
    <path id="Path_182967" data-name="Path 182967" d="M1087.74,33.435l-.867-.061c-.828,0-1.36.259-1.594.781v5.35h-2.633V31.052h2.469l.086,1.086a2.037,2.037,0,0,1,1.852-1.241,2.512,2.512,0,0,1,.734.094Z" transform="translate(2469 -6738.862)" fill="#12263f"/>
    <path id="Path_182968" data-name="Path 182968" d="M1092.631,39.662a4.344,4.344,0,0,1-3.149-1.16,4.011,4.011,0,0,1-1.2-3.019v-.219a5.175,5.175,0,0,1,.481-2.289,3.511,3.511,0,0,1,1.4-1.535,4.22,4.22,0,0,1,2.189-.543,3.652,3.652,0,0,1,2.811,1.1,4.337,4.337,0,0,1,1.032,3.082v1.024h-5.234a1.911,1.911,0,0,0,.617,1.117,1.848,1.848,0,0,0,1.235.406,2.37,2.37,0,0,0,1.953-.875l1.2,1.422a3.377,3.377,0,0,1-1.4,1.082,4.715,4.715,0,0,1-1.941.4m-.3-6.734q-1.156,0-1.375,1.531h2.656v-.2a1.3,1.3,0,0,0-.32-.98,1.27,1.27,0,0,0-.961-.348" transform="translate(2469 -6738.862)" fill="#12263f"/>
    <path id="Path_182969" data-name="Path 182969" d="M1100.826,37.631a1.176,1.176,0,0,0,.859-.3,1.1,1.1,0,0,0,.3-.84h2.469a2.926,2.926,0,0,1-1,2.282,3.709,3.709,0,0,1-2.567.89,3.753,3.753,0,0,1-2.906-1.156,4.56,4.56,0,0,1-1.062-3.2v-.11a5.14,5.14,0,0,1,.472-2.261,3.443,3.443,0,0,1,1.364-1.508,4.059,4.059,0,0,1,2.109-.527,3.654,3.654,0,0,1,2.617.914,3.238,3.238,0,0,1,.969,2.476h-2.469a1.445,1.445,0,0,0-.32-1.008,1.107,1.107,0,0,0-.859-.351c-.683,0-1.081.433-1.2,1.305a9.3,9.3,0,0,0-.054,1.14,3.623,3.623,0,0,0,.3,1.766,1.056,1.056,0,0,0,.969.492" transform="translate(2469 -6738.862)" fill="#12263f"/>
    <path id="Path_182970" data-name="Path 182970" d="M1105.545,28.873a1.172,1.172,0,0,1,.406-.922,1.728,1.728,0,0,1,2.109,0,1.25,1.25,0,0,1,0,1.844,1.728,1.728,0,0,1-2.109,0,1.175,1.175,0,0,1-.406-.922m2.8,10.633H1105.7V31.053h2.641Z" transform="translate(2469 -6738.862)" fill="#12263f"/>
    <path id="Path_182971" data-name="Path 182971" d="M1112.451,31.053l.086.992a2.907,2.907,0,0,1,2.414-1.148,2.14,2.14,0,0,1,2.164,1.273A2.813,2.813,0,0,1,1119.6,30.9q2.571,0,2.641,3.109v5.5H1119.6V34.17a1.614,1.614,0,0,0-.218-.945.928.928,0,0,0-.8-.3,1.244,1.244,0,0,0-1.164.695l.008.11v5.773h-2.641v-5.32a1.686,1.686,0,0,0-.211-.961.927.927,0,0,0-.805-.3,1.26,1.26,0,0,0-1.156.695v5.883h-2.633V31.053Z" transform="translate(2469 -6738.862)" fill="#12263f"/>
    <path id="Path_182972" data-name="Path 182972" d="M1123.724,28.873a1.176,1.176,0,0,1,.406-.922,1.73,1.73,0,0,1,2.11,0,1.25,1.25,0,0,1,0,1.844,1.73,1.73,0,0,1-2.11,0,1.178,1.178,0,0,1-.406-.922m2.8,10.633h-2.641V31.053h2.641Z" transform="translate(2469 -6738.862)" fill="#12263f"/>
    <path id="Path_182973" data-name="Path 182973" d="M1132.232,39.662a4.344,4.344,0,0,1-3.149-1.16,4.011,4.011,0,0,1-1.2-3.019v-.219a5.177,5.177,0,0,1,.481-2.289,3.509,3.509,0,0,1,1.4-1.535,4.214,4.214,0,0,1,2.188-.543,3.654,3.654,0,0,1,2.812,1.1,4.341,4.341,0,0,1,1.031,3.082v1.024h-5.234a1.911,1.911,0,0,0,.617,1.117,1.848,1.848,0,0,0,1.235.406,2.37,2.37,0,0,0,1.953-.875l1.2,1.422a3.376,3.376,0,0,1-1.4,1.082,4.714,4.714,0,0,1-1.941.4m-.3-6.734q-1.157,0-1.375,1.531h2.656v-.2a1.3,1.3,0,0,0-.32-.98,1.27,1.27,0,0,0-.961-.348" transform="translate(2469 -6738.862)" fill="#12263f"/>
    <path id="Path_182974" data-name="Path 182974" d="M1139.271,31.053l.086.992a2.867,2.867,0,0,1,2.414-1.148,2.407,2.407,0,0,1,1.973.789,3.752,3.752,0,0,1,.675,2.375v5.445h-2.64V34.17a1.42,1.42,0,0,0-.258-.941,1.191,1.191,0,0,0-.938-.3,1.256,1.256,0,0,0-1.148.609v5.969H1136.8V31.053Z" transform="translate(2469 -6738.862)" fill="#12263f"/>
    <path id="Path_182975" data-name="Path 182975" d="M1148.943,28.951v2.1h1.391v1.828h-1.391v3.867a.993.993,0,0,0,.172.664.922.922,0,0,0,.68.187,3.9,3.9,0,0,0,.656-.046v1.882a4.863,4.863,0,0,1-1.485.227,2.761,2.761,0,0,1-2.007-.641,2.623,2.623,0,0,1-.649-1.945V32.881h-1.078V31.053h1.078v-2.1Z" transform="translate(2469 -6738.862)" fill="#12263f"/>
    <path id="Path_182976" data-name="Path 182976" d="M1150.8,35.2a4.988,4.988,0,0,1,.492-2.254,3.523,3.523,0,0,1,1.414-1.52,4.251,4.251,0,0,1,2.164-.531,3.885,3.885,0,0,1,2.993,1.176,4.51,4.51,0,0,1,1.093,3.2v.094a4.385,4.385,0,0,1-1.1,3.137,3.9,3.9,0,0,1-2.973,1.16,3.942,3.942,0,0,1-2.9-1.082,4.235,4.235,0,0,1-1.18-2.934Zm2.633.164a3.146,3.146,0,0,0,.367,1.719,1.227,1.227,0,0,0,1.086.547q1.407,0,1.438-2.164V35.2q0-2.274-1.454-2.274-1.318,0-1.429,1.961Z" transform="translate(2469 -6738.862)" fill="#12263f"/>
    <path id="Path_182977" data-name="Path 182977" d="M1082.99,56.33a.61.61,0,0,0-.352-.539,5.4,5.4,0,0,0-1.335-.422,5.992,5.992,0,0,1-1.626-.574,2.715,2.715,0,0,1-.976-.863,2.062,2.062,0,0,1-.336-1.165,2.336,2.336,0,0,1,.961-1.917,3.963,3.963,0,0,1,2.516-.754,4.4,4.4,0,0,1,2.687.757,2.373,2.373,0,0,1,1.016,1.993H1082.9c0-.676-.356-1.016-1.07-1.016a1.071,1.071,0,0,0-.7.23.719.719,0,0,0-.281.575.652.652,0,0,0,.344.57,3.226,3.226,0,0,0,1.1.359,9.667,9.667,0,0,1,1.324.336,2.408,2.408,0,0,1,1.906,2.352,2.216,2.216,0,0,1-1.027,1.883,4.508,4.508,0,0,1-2.66.726,4.588,4.588,0,0,1-1.938-.39,3.228,3.228,0,0,1-1.328-1.063,2.406,2.406,0,0,1-.477-1.414h2.461a1.02,1.02,0,0,0,.391.856,1.611,1.611,0,0,0,.961.269,1.254,1.254,0,0,0,.808-.219.7.7,0,0,0,.27-.57" transform="translate(2469 -6738.862)" fill="#12263f"/>
    <path id="Path_182978" data-name="Path 182978" d="M1086.427,54.4a4.994,4.994,0,0,1,.492-2.254,3.545,3.545,0,0,1,1.414-1.52,4.271,4.271,0,0,1,2.164-.531,3.893,3.893,0,0,1,2.993,1.176,4.517,4.517,0,0,1,1.093,3.2v.094a4.381,4.381,0,0,1-1.1,3.137,4.405,4.405,0,0,1-5.871.078,4.231,4.231,0,0,1-1.18-2.934Zm2.633.164a3.144,3.144,0,0,0,.367,1.719,1.223,1.223,0,0,0,1.086.547q1.407,0,1.438-2.164V54.4q0-2.274-1.454-2.274-1.318,0-1.429,1.961Z" transform="translate(2469 -6738.862)" fill="#12263f"/>
    <path id="Path_182979" data-name="Path 182979" d="M1100.17,56.33a.612.612,0,0,0-.352-.539,5.416,5.416,0,0,0-1.335-.422,5.987,5.987,0,0,1-1.627-.574,2.724,2.724,0,0,1-.976-.863,2.061,2.061,0,0,1-.335-1.165,2.337,2.337,0,0,1,.96-1.917,3.963,3.963,0,0,1,2.516-.754,4.4,4.4,0,0,1,2.687.757,2.373,2.373,0,0,1,1.016,1.993h-2.641c0-.676-.355-1.016-1.069-1.016a1.067,1.067,0,0,0-.7.23.716.716,0,0,0-.282.575.655.655,0,0,0,.344.57,3.225,3.225,0,0,0,1.1.359,9.69,9.69,0,0,1,1.323.336,2.407,2.407,0,0,1,1.906,2.352,2.218,2.218,0,0,1-1.026,1.883,4.514,4.514,0,0,1-2.661.726,4.592,4.592,0,0,1-1.938-.39,3.235,3.235,0,0,1-1.328-1.063,2.406,2.406,0,0,1-.477-1.414h2.462a1.017,1.017,0,0,0,.39.856,1.612,1.612,0,0,0,.962.269,1.259,1.259,0,0,0,.808-.219.7.7,0,0,0,.27-.57" transform="translate(2469 -6738.862)" fill="#12263f"/>
    <path id="Path_182980" data-name="Path 182980" d="M1107.005,48.15v2.1h1.391V52.08h-1.391v3.867a.99.99,0,0,0,.172.664.921.921,0,0,0,.68.187,3.9,3.9,0,0,0,.656-.046v1.882a4.8,4.8,0,0,1-1.485.227,2.752,2.752,0,0,1-2.007-.641,2.617,2.617,0,0,1-.649-1.945V52.08h-1.078V50.252h1.078v-2.1Z" transform="translate(2469 -6738.862)" fill="#12263f"/>
    <path id="Path_182981" data-name="Path 182981" d="M1113.521,58.861a4.344,4.344,0,0,1-3.149-1.16,4.008,4.008,0,0,1-1.2-3.019v-.219a5.187,5.187,0,0,1,.481-2.289,3.529,3.529,0,0,1,1.4-1.535,4.233,4.233,0,0,1,2.188-.543,3.661,3.661,0,0,1,2.812,1.1,4.348,4.348,0,0,1,1.031,3.082v1.024h-5.234a1.9,1.9,0,0,0,.617,1.117,1.839,1.839,0,0,0,1.235.406,2.365,2.365,0,0,0,1.953-.875l1.2,1.422a3.361,3.361,0,0,1-1.4,1.082,4.683,4.683,0,0,1-1.941.4m-.3-6.734c-.771,0-1.229.512-1.375,1.531h2.656v-.2a1.3,1.3,0,0,0-.32-.98,1.278,1.278,0,0,0-.961-.348" transform="translate(2469 -6738.862)" fill="#12263f"/>
    <path id="Path_182982" data-name="Path 182982" d="M1120.56,50.252l.086.992a2.868,2.868,0,0,1,2.414-1.148,2.413,2.413,0,0,1,1.973.789,3.76,3.76,0,0,1,.675,2.375v5.445h-2.64V53.369a1.427,1.427,0,0,0-.258-.941,1.2,1.2,0,0,0-.938-.3,1.256,1.256,0,0,0-1.148.609v5.969h-2.633V50.252Z" transform="translate(2469 -6738.862)" fill="#12263f"/>
    <path id="Path_182983" data-name="Path 182983" d="M1127.146,48.072a1.18,1.18,0,0,1,.406-.922,1.73,1.73,0,0,1,2.11,0,1.25,1.25,0,0,1,0,1.844,1.73,1.73,0,0,1-2.11,0,1.176,1.176,0,0,1-.406-.922m2.8,10.633H1127.3V50.252h2.641Z" transform="translate(2469 -6738.862)" fill="#12263f"/>
    <path id="Path_182984" data-name="Path 182984" d="M1139.412,54.549a5.145,5.145,0,0,1-.86,3.195,2.875,2.875,0,0,1-2.422,1.117,2.494,2.494,0,0,1-2.078-1.023l-.109.867h-2.359v-12h2.632v4.227a2.412,2.412,0,0,1,1.9-.836,2.882,2.882,0,0,1,2.437,1.133,5.18,5.18,0,0,1,.86,3.187Zm-2.641-.168a3.432,3.432,0,0,0-.324-1.734,1.093,1.093,0,0,0-1-.52,1.262,1.262,0,0,0-1.235.68V56.16a1.266,1.266,0,0,0,1.25.67,1.118,1.118,0,0,0,1.18-.9,6.52,6.52,0,0,0,.125-1.545" transform="translate(2469 -6738.862)" fill="#12263f"/>
    <rect id="Rectangle_38231" data-name="Rectangle 38231" width="2.641" height="12" transform="translate(3609.708 -6692.157)" fill="#12263f"/>
    <path id="Path_182985" data-name="Path 182985" d="M1149.06,58.861a4.344,4.344,0,0,1-3.149-1.16,4.008,4.008,0,0,1-1.2-3.019v-.219a5.189,5.189,0,0,1,.481-2.289,3.531,3.531,0,0,1,1.4-1.535,4.233,4.233,0,0,1,2.188-.543,3.661,3.661,0,0,1,2.812,1.1,4.347,4.347,0,0,1,1.031,3.082v1.024h-5.234a1.9,1.9,0,0,0,.617,1.117,1.838,1.838,0,0,0,1.235.406,2.365,2.365,0,0,0,1.953-.875l1.2,1.422a3.36,3.36,0,0,1-1.4,1.082,4.683,4.683,0,0,1-1.941.4m-.3-6.734c-.771,0-1.229.512-1.375,1.531h2.656v-.2a1.3,1.3,0,0,0-.32-.98,1.277,1.277,0,0,0-.961-.348" transform="translate(2469 -6738.862)" fill="#12263f"/>
    <path id="Path_182986" data-name="Path 182986" d="M1039.229,105.859h-4.621v3.779h5.368v1.151H1033.2V100.125h6.7v1.15h-5.3v3.435h4.621Z" transform="translate(2469 -6738.862)" fill="#12263f"/>
    <rect id="Rectangle_38232" data-name="Rectangle 38232" width="1.355" height="11.25" transform="translate(3510.632 -6639.323)" fill="#12263f"/>
    <path id="Path_182987" data-name="Path 182987" d="M1053.759,110.789a2.818,2.818,0,0,1-.19-.835,3.022,3.022,0,0,1-2.256.982,2.8,2.8,0,0,1-1.923-.663,2.145,2.145,0,0,1-.75-1.681,2.242,2.242,0,0,1,.94-1.923,4.443,4.443,0,0,1,2.648-.684h1.318v-.624a1.519,1.519,0,0,0-.424-1.13,1.7,1.7,0,0,0-1.253-.422,1.975,1.975,0,0,0-1.215.367,1.076,1.076,0,0,0-.491.886H1048.8a1.871,1.871,0,0,1,.422-1.147,2.869,2.869,0,0,1,1.143-.875,3.832,3.832,0,0,1,1.585-.322,3.136,3.136,0,0,1,2.146.684,2.475,2.475,0,0,1,.806,1.887v3.647a4.451,4.451,0,0,0,.278,1.736v.117Zm-2.248-1.033a2.379,2.379,0,0,0,1.208-.329,1.991,1.991,0,0,0,.827-.857v-1.627h-1.061q-2.492,0-2.491,1.459a1.236,1.236,0,0,0,.425,1,1.634,1.634,0,0,0,1.092.358" transform="translate(2469 -6738.862)" fill="#12263f"/>
    <path id="Path_182988" data-name="Path 182988" d="M1061.919,110.006a2.88,2.88,0,0,1-2.322.93,2.458,2.458,0,0,1-1.93-.737,3.182,3.182,0,0,1-.671-2.178v-5.157h1.357v5.121c0,1.2.486,1.8,1.464,1.8a2.024,2.024,0,0,0,2.064-1.156v-5.765h1.356v7.925h-1.289Z" transform="translate(2469 -6738.862)" fill="#12263f"/>
    <path id="Path_182989" data-name="Path 182989" d="M1066.569,102.864l.036.879a2.926,2.926,0,0,1,2.352-1.025,2.265,2.265,0,0,1,2.263,1.274,3,3,0,0,1,1.029-.923,3.046,3.046,0,0,1,1.5-.351q2.607,0,2.651,2.76v5.311h-1.355v-5.23a1.816,1.816,0,0,0-.388-1.27,1.709,1.709,0,0,0-1.3-.422,1.791,1.791,0,0,0-1.252.451,1.823,1.823,0,0,0-.579,1.212v5.259h-1.362V105.6a1.512,1.512,0,0,0-1.692-1.728,1.813,1.813,0,0,0-1.824,1.136v5.786h-1.355v-7.925Z" transform="translate(2469 -6738.862)" fill="#12263f"/>
    <path id="Path_182990" data-name="Path 182990" d="M1081.73,110.935a3.462,3.462,0,0,1-2.623-1.058,3.925,3.925,0,0,1-1.01-2.83v-.25a4.767,4.767,0,0,1,.45-2.106,3.518,3.518,0,0,1,1.26-1.45,3.174,3.174,0,0,1,1.754-.523,2.969,2.969,0,0,1,2.4,1.018,4.4,4.4,0,0,1,.857,2.914v.565h-5.368a2.818,2.818,0,0,0,.684,1.893,2.154,2.154,0,0,0,1.666.722,2.369,2.369,0,0,0,1.217-.293,3.069,3.069,0,0,0,.871-.777l.828.644a3.327,3.327,0,0,1-2.988,1.531m-.169-7.1a1.807,1.807,0,0,0-1.377.6,2.9,2.9,0,0,0-.688,1.674h3.969V106a2.583,2.583,0,0,0-.556-1.6,1.7,1.7,0,0,0-1.348-.567" transform="translate(2469 -6738.862)" fill="#12263f"/>
    <path id="Path_182991" data-name="Path 182991" d="M1087.67,102.864l.044,1a2.883,2.883,0,0,1,2.374-1.142q2.509,0,2.532,2.834v5.237h-1.354v-5.244a1.834,1.834,0,0,0-.391-1.268,1.578,1.578,0,0,0-1.2-.41,1.956,1.956,0,0,0-1.157.351,2.38,2.38,0,0,0-.776.924v5.647h-1.355v-7.925Z" transform="translate(2469 -6738.862)" fill="#12263f"/>
    <path id="Path_182992" data-name="Path 182992" d="M1096.5,100.945v1.919h1.48v1.048h-1.48v4.92a1.1,1.1,0,0,0,.2.716.834.834,0,0,0,.674.237,3.272,3.272,0,0,0,.645-.088v1.093a4.01,4.01,0,0,1-1.041.145,1.69,1.69,0,0,1-1.37-.549,2.364,2.364,0,0,1-.46-1.56v-4.914H1093.7v-1.048h1.444v-1.919Z" transform="translate(2469 -6738.862)" fill="#12263f"/>
    <path id="Path_182993" data-name="Path 182993" d="M1099.058,106.754a4.69,4.69,0,0,1,.458-2.1,3.421,3.421,0,0,1,1.274-1.435,3.479,3.479,0,0,1,1.864-.5,3.344,3.344,0,0,1,2.619,1.12,4.311,4.311,0,0,1,1,2.981v.1a4.715,4.715,0,0,1-.444,2.077,3.374,3.374,0,0,1-1.266,1.432,3.511,3.511,0,0,1-1.894.512,3.332,3.332,0,0,1-2.611-1.121,4.287,4.287,0,0,1-1-2.965Zm1.364.16a3.389,3.389,0,0,0,.61,2.117,2.072,2.072,0,0,0,3.278-.011,3.707,3.707,0,0,0,.607-2.266,3.386,3.386,0,0,0-.618-2.113,1.967,1.967,0,0,0-1.645-.81,1.947,1.947,0,0,0-1.618.8,3.684,3.684,0,0,0-.614,2.285" transform="translate(2469 -6738.862)" fill="#12263f"/>
    <path id="Path_182994" data-name="Path 182994" d="M1111.355,106.761a4.646,4.646,0,0,1,.865-2.934,2.942,2.942,0,0,1,4.468-.157V99.539h1.354v11.25H1116.8l-.065-.85a2.76,2.76,0,0,1-2.263,1,2.705,2.705,0,0,1-2.245-1.127,4.7,4.7,0,0,1-.869-2.945Zm1.356.153a3.51,3.51,0,0,0,.556,2.109,1.8,1.8,0,0,0,1.539.762,1.977,1.977,0,0,0,1.882-1.156v-3.641a2,2,0,0,0-1.869-1.121,1.809,1.809,0,0,0-1.552.77,3.869,3.869,0,0,0-.556,2.277" transform="translate(2469 -6738.862)" fill="#12263f"/>
    <path id="Path_182995" data-name="Path 182995" d="M1123.433,110.935a3.462,3.462,0,0,1-2.623-1.058,3.925,3.925,0,0,1-1.01-2.83v-.25a4.767,4.767,0,0,1,.45-2.106,3.518,3.518,0,0,1,1.26-1.45,3.174,3.174,0,0,1,1.754-.523,2.969,2.969,0,0,1,2.4,1.018,4.4,4.4,0,0,1,.857,2.914v.565h-5.368a2.818,2.818,0,0,0,.684,1.893,2.154,2.154,0,0,0,1.666.722,2.369,2.369,0,0,0,1.217-.293,3.069,3.069,0,0,0,.871-.777l.828.644a3.327,3.327,0,0,1-2.988,1.531m-.169-7.1a1.807,1.807,0,0,0-1.377.6,2.9,2.9,0,0,0-.688,1.674h3.969V106a2.583,2.583,0,0,0-.556-1.6,1.7,1.7,0,0,0-1.348-.567" transform="translate(2469 -6738.862)" fill="#12263f"/>
    <path id="Path_182996" data-name="Path 182996" d="M1135.093,110.935a3.462,3.462,0,0,1-2.623-1.058,3.925,3.925,0,0,1-1.01-2.83v-.25a4.768,4.768,0,0,1,.45-2.106,3.517,3.517,0,0,1,1.26-1.45,3.173,3.173,0,0,1,1.754-.523,2.97,2.97,0,0,1,2.4,1.018,4.4,4.4,0,0,1,.857,2.914v.565h-5.368a2.819,2.819,0,0,0,.684,1.893,2.153,2.153,0,0,0,1.666.722,2.368,2.368,0,0,0,1.217-.293,3.068,3.068,0,0,0,.871-.777l.828.644a3.327,3.327,0,0,1-2.988,1.531m-.169-7.1a1.807,1.807,0,0,0-1.377.6,2.9,2.9,0,0,0-.688,1.674h3.969V106a2.583,2.583,0,0,0-.556-1.6,1.7,1.7,0,0,0-1.348-.567" transform="translate(2469 -6738.862)" fill="#12263f"/>
    <path id="Path_182997" data-name="Path 182997" d="M1140.418,110.789v-6.877h-1.252v-1.048h1.252v-.813a2.7,2.7,0,0,1,.681-1.97,2.573,2.573,0,0,1,1.926-.7,3.6,3.6,0,0,1,.931.124l-.073,1.092a3.9,3.9,0,0,0-.733-.066,1.318,1.318,0,0,0-1.017.386,1.56,1.56,0,0,0-.36,1.105v.838h1.692v1.048h-1.692v6.877Z" transform="translate(2469 -6738.862)" fill="#12263f"/>
    <path id="Path_182998" data-name="Path 182998" d="M1144.966,100.762a.809.809,0,0,1,.2-.557.758.758,0,0,1,.6-.227.774.774,0,0,1,.6.227.8.8,0,0,1,.2.557.771.771,0,0,1-.2.549.781.781,0,0,1-.6.22.765.765,0,0,1-.6-.22.777.777,0,0,1-.2-.549m1.465,10.027h-1.355v-7.925h1.355Z" transform="translate(2469 -6738.862)" fill="#12263f"/>
    <path id="Path_182999" data-name="Path 182999" d="M1151.778,109.83a1.953,1.953,0,0,0,1.267-.439,1.555,1.555,0,0,0,.6-1.1h1.281a2.453,2.453,0,0,1-.468,1.3,3.087,3.087,0,0,1-1.154.981,3.331,3.331,0,0,1-1.527.366,3.264,3.264,0,0,1-2.574-1.08,4.3,4.3,0,0,1-.956-2.955v-.227a4.757,4.757,0,0,1,.425-2.058,3.231,3.231,0,0,1,1.219-1.4,3.465,3.465,0,0,1,1.879-.5,3.178,3.178,0,0,1,2.215.8,2.852,2.852,0,0,1,.941,2.073h-1.281a1.87,1.87,0,0,0-.583-1.264,1.811,1.811,0,0,0-1.292-.494,1.9,1.9,0,0,0-1.6.743,3.491,3.491,0,0,0-.568,2.151v.255a3.424,3.424,0,0,0,.564,2.11,1.906,1.906,0,0,0,1.611.74" transform="translate(2469 -6738.862)" fill="#12263f"/>
    <path id="Path_183000" data-name="Path 183000" d="M1156.459,100.762a.808.808,0,0,1,.2-.557.759.759,0,0,1,.6-.227.774.774,0,0,1,.6.227.8.8,0,0,1,.2.557.771.771,0,0,1-.2.549.781.781,0,0,1-.6.22.766.766,0,0,1-.6-.22.776.776,0,0,1-.2-.549m1.464,10.027h-1.355v-7.925h1.355Z" transform="translate(2469 -6738.862)" fill="#12263f"/>
    <path id="Path_183001" data-name="Path 183001" d="M1163.38,110.935a3.465,3.465,0,0,1-2.623-1.058,3.925,3.925,0,0,1-1.01-2.83v-.25a4.754,4.754,0,0,1,.451-2.106,3.5,3.5,0,0,1,1.26-1.45,3.171,3.171,0,0,1,1.754-.523,2.972,2.972,0,0,1,2.4,1.018,4.4,4.4,0,0,1,.856,2.914v.565H1161.1a2.813,2.813,0,0,0,.683,1.893,2.154,2.154,0,0,0,1.667.722,2.362,2.362,0,0,0,1.216-.293,3.071,3.071,0,0,0,.872-.777l.828.644a3.328,3.328,0,0,1-2.989,1.531m-.168-7.1a1.808,1.808,0,0,0-1.378.6,2.91,2.91,0,0,0-.688,1.674h3.969V106a2.576,2.576,0,0,0-.556-1.6,1.7,1.7,0,0,0-1.347-.567" transform="translate(2469 -6738.862)" fill="#12263f"/>
    <path id="Path_183002" data-name="Path 183002" d="M1169.32,102.864l.045,1a2.883,2.883,0,0,1,2.373-1.142q2.511,0,2.533,2.834v5.237h-1.354v-5.244a1.829,1.829,0,0,0-.392-1.268,1.577,1.577,0,0,0-1.2-.41,1.958,1.958,0,0,0-1.158.351,2.388,2.388,0,0,0-.776.924v5.647h-1.355v-7.925Z" transform="translate(2469 -6738.862)" fill="#12263f"/>
    <path id="Path_183003" data-name="Path 183003" d="M1179.494,109.83a1.953,1.953,0,0,0,1.267-.439,1.555,1.555,0,0,0,.6-1.1h1.281a2.452,2.452,0,0,1-.468,1.3,3.088,3.088,0,0,1-1.154.981,3.33,3.33,0,0,1-1.527.366,3.264,3.264,0,0,1-2.574-1.08,4.3,4.3,0,0,1-.956-2.955v-.227a4.755,4.755,0,0,1,.425-2.058,3.229,3.229,0,0,1,1.219-1.4,3.465,3.465,0,0,1,1.879-.5,3.178,3.178,0,0,1,2.215.8,2.851,2.851,0,0,1,.941,2.073h-1.281a1.87,1.87,0,0,0-.583-1.264,1.811,1.811,0,0,0-1.292-.494,1.9,1.9,0,0,0-1.6.743,3.492,3.492,0,0,0-.568,2.151v.255a3.423,3.423,0,0,0,.564,2.11,1.906,1.906,0,0,0,1.611.74" transform="translate(2469 -6738.862)" fill="#12263f"/>
    <path id="Path_183004" data-name="Path 183004" d="M1184.174,100.762a.809.809,0,0,1,.2-.557.758.758,0,0,1,.6-.227.774.774,0,0,1,.6.227.8.8,0,0,1,.2.557.771.771,0,0,1-.2.549.781.781,0,0,1-.6.22.765.765,0,0,1-.6-.22.777.777,0,0,1-.2-.549m1.465,10.027h-1.355v-7.925h1.355Z" transform="translate(2469 -6738.862)" fill="#12263f"/>
    <path id="Path_183005" data-name="Path 183005" d="M1192.7,110.789a2.819,2.819,0,0,1-.19-.835,3.022,3.022,0,0,1-2.256.982,2.8,2.8,0,0,1-1.923-.663,2.145,2.145,0,0,1-.75-1.681,2.242,2.242,0,0,1,.94-1.923,4.443,4.443,0,0,1,2.648-.684h1.318v-.624a1.52,1.52,0,0,0-.424-1.13,1.7,1.7,0,0,0-1.253-.422,1.975,1.975,0,0,0-1.215.367,1.076,1.076,0,0,0-.491.886h-1.363a1.871,1.871,0,0,1,.422-1.147,2.87,2.87,0,0,1,1.143-.875,3.832,3.832,0,0,1,1.585-.322,3.136,3.136,0,0,1,2.146.684,2.475,2.475,0,0,1,.806,1.887v3.647a4.451,4.451,0,0,0,.278,1.736v.117Zm-2.248-1.033a2.379,2.379,0,0,0,1.208-.329,1.991,1.991,0,0,0,.827-.857v-1.627h-1.061q-2.492,0-2.491,1.459a1.236,1.236,0,0,0,.425,1,1.634,1.634,0,0,0,1.092.358" transform="translate(2469 -6738.862)" fill="#12263f"/>
    <path id="Path_183006" data-name="Path 183006" d="M1195.922,112.913l-.77-.527a3.547,3.547,0,0,0,.718-1.978v-1.223h1.325v1.062a3.343,3.343,0,0,1-.362,1.479,3.477,3.477,0,0,1-.911,1.187" transform="translate(2469 -6738.862)" fill="#12263f"/>
    <path id="Path_183007" data-name="Path 183007" d="M1036.278,128.935a3.462,3.462,0,0,1-2.623-1.058,3.925,3.925,0,0,1-1.01-2.83v-.25a4.769,4.769,0,0,1,.45-2.106,3.518,3.518,0,0,1,1.26-1.45,3.174,3.174,0,0,1,1.754-.523,2.969,2.969,0,0,1,2.4,1.018,4.4,4.4,0,0,1,.857,2.914v.565H1034a2.819,2.819,0,0,0,.684,1.893,2.154,2.154,0,0,0,1.666.722,2.369,2.369,0,0,0,1.217-.293,3.069,3.069,0,0,0,.871-.777l.828.644a3.327,3.327,0,0,1-2.988,1.531m-.169-7.1a1.807,1.807,0,0,0-1.377.6,2.9,2.9,0,0,0-.688,1.674h3.969V124a2.583,2.583,0,0,0-.556-1.6,1.7,1.7,0,0,0-1.348-.567" transform="translate(2469 -6738.862)" fill="#12263f"/>
    <rect id="Rectangle_38233" data-name="Rectangle 38233" width="1.355" height="11.25" transform="translate(3510.053 -6621.323)" fill="#12263f"/>
    <path id="Path_183008" data-name="Path 183008" d="M1051.467,127.83a1.953,1.953,0,0,0,1.267-.439,1.555,1.555,0,0,0,.6-1.1h1.281a2.451,2.451,0,0,1-.468,1.3,3.087,3.087,0,0,1-1.154.981,3.33,3.33,0,0,1-1.527.366,3.264,3.264,0,0,1-2.574-1.08,4.3,4.3,0,0,1-.956-2.955v-.227a4.755,4.755,0,0,1,.425-2.058,3.229,3.229,0,0,1,1.219-1.4,3.465,3.465,0,0,1,1.879-.5,3.178,3.178,0,0,1,2.215.8,2.851,2.851,0,0,1,.941,2.073h-1.281a1.869,1.869,0,0,0-.583-1.264,1.811,1.811,0,0,0-1.292-.494,1.9,1.9,0,0,0-1.6.743,3.491,3.491,0,0,0-.568,2.151v.255a3.424,3.424,0,0,0,.564,2.11,1.906,1.906,0,0,0,1.611.74" transform="translate(2469 -6738.862)" fill="#12263f"/>
    <path id="Path_183009" data-name="Path 183009" d="M1055.781,124.754a4.689,4.689,0,0,1,.458-2.1,3.421,3.421,0,0,1,1.274-1.435,3.479,3.479,0,0,1,1.864-.5,3.344,3.344,0,0,1,2.619,1.12,4.311,4.311,0,0,1,1,2.981v.1a4.715,4.715,0,0,1-.444,2.077,3.375,3.375,0,0,1-1.266,1.432,3.511,3.511,0,0,1-1.894.512,3.332,3.332,0,0,1-2.611-1.121,4.287,4.287,0,0,1-1-2.965Zm1.363.16a3.389,3.389,0,0,0,.611,2.117,2.072,2.072,0,0,0,3.278-.011,3.707,3.707,0,0,0,.607-2.266,3.387,3.387,0,0,0-.618-2.113,1.968,1.968,0,0,0-1.645-.81,1.947,1.947,0,0,0-1.618.8,3.684,3.684,0,0,0-.615,2.285" transform="translate(2469 -6738.862)" fill="#12263f"/>
    <path id="Path_183010" data-name="Path 183010" d="M1068.525,122.08a4.077,4.077,0,0,0-.666-.051,1.784,1.784,0,0,0-1.809,1.135v5.625h-1.355v-7.925h1.318l.022.915a2.11,2.11,0,0,1,1.89-1.061,1.388,1.388,0,0,1,.6.1Z" transform="translate(2469 -6738.862)" fill="#12263f"/>
    <path id="Path_183011" data-name="Path 183011" d="M1073.6,122.08a4.075,4.075,0,0,0-.666-.051,1.785,1.785,0,0,0-1.809,1.135v5.625h-1.355v-7.925h1.318l.022.915a2.111,2.111,0,0,1,1.89-1.061,1.387,1.387,0,0,1,.6.1Z" transform="translate(2469 -6738.862)" fill="#12263f"/>
    <path id="Path_183012" data-name="Path 183012" d="M1078,128.935a3.462,3.462,0,0,1-2.623-1.058,3.925,3.925,0,0,1-1.01-2.83v-.25a4.769,4.769,0,0,1,.45-2.106,3.519,3.519,0,0,1,1.26-1.45,3.174,3.174,0,0,1,1.754-.523,2.969,2.969,0,0,1,2.4,1.018,4.4,4.4,0,0,1,.857,2.914v.565h-5.368a2.819,2.819,0,0,0,.684,1.893,2.153,2.153,0,0,0,1.666.722,2.369,2.369,0,0,0,1.217-.293,3.066,3.066,0,0,0,.871-.777l.828.644a3.327,3.327,0,0,1-2.988,1.531m-.169-7.1a1.807,1.807,0,0,0-1.377.6,2.9,2.9,0,0,0-.688,1.674h3.969V124a2.583,2.583,0,0,0-.556-1.6,1.7,1.7,0,0,0-1.348-.567" transform="translate(2469 -6738.862)" fill="#12263f"/>
    <path id="Path_183013" data-name="Path 183013" d="M1085.835,127.83a1.953,1.953,0,0,0,1.267-.439,1.558,1.558,0,0,0,.6-1.1h1.281a2.453,2.453,0,0,1-.468,1.3,3.087,3.087,0,0,1-1.154.981,3.334,3.334,0,0,1-1.527.366,3.266,3.266,0,0,1-2.575-1.08,4.3,4.3,0,0,1-.955-2.955v-.227a4.771,4.771,0,0,1,.424-2.058,3.242,3.242,0,0,1,1.219-1.4,3.469,3.469,0,0,1,1.88-.5,3.174,3.174,0,0,1,2.214.8,2.849,2.849,0,0,1,.942,2.073H1087.7a1.879,1.879,0,0,0-.583-1.264,1.814,1.814,0,0,0-1.292-.494,1.9,1.9,0,0,0-1.6.743,3.491,3.491,0,0,0-.568,2.151v.255a3.424,3.424,0,0,0,.564,2.11,1.9,1.9,0,0,0,1.611.74" transform="translate(2469 -6738.862)" fill="#12263f"/>
    <path id="Path_183014" data-name="Path 183014" d="M1092.345,118.945v1.919h1.48v1.048h-1.48v4.92a1.1,1.1,0,0,0,.2.716.836.836,0,0,0,.674.237,3.263,3.263,0,0,0,.645-.088v1.093a4,4,0,0,1-1.04.145,1.687,1.687,0,0,1-1.37-.549,2.359,2.359,0,0,1-.461-1.56v-4.914h-1.443v-1.048h1.443v-1.919Z" transform="translate(2469 -6738.862)" fill="#12263f"/>
    <path id="Path_183015" data-name="Path 183015" d="M1094.9,124.754a4.69,4.69,0,0,1,.458-2.1,3.421,3.421,0,0,1,1.274-1.435,3.479,3.479,0,0,1,1.864-.5,3.344,3.344,0,0,1,2.619,1.12,4.311,4.311,0,0,1,1,2.981v.1a4.715,4.715,0,0,1-.444,2.077,3.374,3.374,0,0,1-1.266,1.432,3.511,3.511,0,0,1-1.894.512,3.332,3.332,0,0,1-2.611-1.121,4.287,4.287,0,0,1-1-2.965Zm1.363.16a3.389,3.389,0,0,0,.611,2.117,2.072,2.072,0,0,0,3.278-.011,3.707,3.707,0,0,0,.607-2.266,3.386,3.386,0,0,0-.618-2.113,1.968,1.968,0,0,0-1.645-.81,1.947,1.947,0,0,0-1.618.8,3.684,3.684,0,0,0-.615,2.285" transform="translate(2469 -6738.862)" fill="#12263f"/>
    <rect id="Rectangle_38234" data-name="Rectangle 38234" width="1.355" height="11.25" transform="translate(3576.647 -6621.323)" fill="#12263f"/>
    <path id="Path_183016" data-name="Path 183016" d="M1110.81,124.754a4.69,4.69,0,0,1,.458-2.1,3.422,3.422,0,0,1,1.274-1.435,3.479,3.479,0,0,1,1.864-.5,3.344,3.344,0,0,1,2.619,1.12,4.311,4.311,0,0,1,1,2.981v.1a4.717,4.717,0,0,1-.444,2.077,3.374,3.374,0,0,1-1.266,1.432,3.51,3.51,0,0,1-1.894.512,3.332,3.332,0,0,1-2.611-1.121,4.287,4.287,0,0,1-1-2.965Zm1.363.16a3.388,3.388,0,0,0,.611,2.117,2.072,2.072,0,0,0,3.278-.011,3.707,3.707,0,0,0,.607-2.266,3.387,3.387,0,0,0-.618-2.113,1.968,1.968,0,0,0-1.645-.81,1.947,1.947,0,0,0-1.618.8,3.685,3.685,0,0,0-.615,2.285" transform="translate(2469 -6738.862)" fill="#12263f"/>
    <path id="Path_183017" data-name="Path 183017" d="M1119.4,124.761a4.657,4.657,0,0,1,.857-2.949,2.955,2.955,0,0,1,4.533-.069l.067-.879h1.237V128.6a3.224,3.224,0,0,1-.912,2.424,3.367,3.367,0,0,1-2.45.886,4.078,4.078,0,0,1-1.677-.366,2.88,2.88,0,0,1-1.253-1l.7-.813a2.65,2.65,0,0,0,2.132,1.077,2.078,2.078,0,0,0,1.542-.557,2.128,2.128,0,0,0,.553-1.566V128a2.785,2.785,0,0,1-2.219.937,2.705,2.705,0,0,1-2.253-1.121,4.9,4.9,0,0,1-.86-3.053m1.362.153a3.545,3.545,0,0,0,.55,2.106,1.783,1.783,0,0,0,1.537.765,1.987,1.987,0,0,0,1.883-1.164V123a2.009,2.009,0,0,0-1.867-1.136,1.8,1.8,0,0,0-1.546.77,3.867,3.867,0,0,0-.557,2.277" transform="translate(2469 -6738.862)" fill="#12263f"/>
    <path id="Path_183018" data-name="Path 183018" d="M1131.97,122.08a4.076,4.076,0,0,0-.666-.051,1.784,1.784,0,0,0-1.809,1.135v5.625h-1.355v-7.925h1.318l.022.915a2.11,2.11,0,0,1,1.89-1.061,1.387,1.387,0,0,1,.6.1Z" transform="translate(2469 -6738.862)" fill="#12263f"/>
    <path id="Path_183019" data-name="Path 183019" d="M1132.711,124.754a4.69,4.69,0,0,1,.458-2.1,3.422,3.422,0,0,1,1.274-1.435,3.479,3.479,0,0,1,1.864-.5,3.344,3.344,0,0,1,2.619,1.12,4.311,4.311,0,0,1,1,2.981v.1a4.717,4.717,0,0,1-.444,2.077,3.374,3.374,0,0,1-1.266,1.432,3.51,3.51,0,0,1-1.894.512,3.332,3.332,0,0,1-2.611-1.121,4.287,4.287,0,0,1-1-2.965Zm1.363.16a3.388,3.388,0,0,0,.611,2.117,2.072,2.072,0,0,0,3.278-.011,3.707,3.707,0,0,0,.607-2.266,3.387,3.387,0,0,0-.618-2.113,1.968,1.968,0,0,0-1.645-.81,1.947,1.947,0,0,0-1.618.8,3.685,3.685,0,0,0-.615,2.285" transform="translate(2469 -6738.862)" fill="#12263f"/>
    <path id="Path_183020" data-name="Path 183020" d="M1145.008,124.761a4.64,4.64,0,0,1,.865-2.934,2.94,2.94,0,0,1,4.467-.157v-4.131h1.355v11.25h-1.245l-.066-.85a2.759,2.759,0,0,1-2.263,1,2.706,2.706,0,0,1-2.245-1.127,4.7,4.7,0,0,1-.868-2.945Zm1.355.153a3.509,3.509,0,0,0,.557,2.109,1.8,1.8,0,0,0,1.538.762,1.976,1.976,0,0,0,1.882-1.156v-3.641a1.993,1.993,0,0,0-1.868-1.121,1.807,1.807,0,0,0-1.552.77,3.867,3.867,0,0,0-.557,2.277" transform="translate(2469 -6738.862)" fill="#12263f"/>
    <path id="Path_183021" data-name="Path 183021" d="M1157.086,128.935a3.462,3.462,0,0,1-2.623-1.058,3.925,3.925,0,0,1-1.01-2.83v-.25a4.769,4.769,0,0,1,.45-2.106,3.519,3.519,0,0,1,1.26-1.45,3.174,3.174,0,0,1,1.754-.523,2.969,2.969,0,0,1,2.4,1.018,4.4,4.4,0,0,1,.857,2.914v.565h-5.368a2.819,2.819,0,0,0,.684,1.893,2.154,2.154,0,0,0,1.666.722,2.369,2.369,0,0,0,1.217-.293,3.067,3.067,0,0,0,.871-.777l.828.644a3.327,3.327,0,0,1-2.988,1.531m-.169-7.1a1.807,1.807,0,0,0-1.377.6,2.9,2.9,0,0,0-.688,1.674h3.969V124a2.583,2.583,0,0,0-.556-1.6,1.7,1.7,0,0,0-1.348-.567" transform="translate(2469 -6738.862)" fill="#12263f"/>
    <path id="Path_183022" data-name="Path 183022" d="M1032.63,142.754a4.689,4.689,0,0,1,.458-2.1,3.42,3.42,0,0,1,1.274-1.435,3.478,3.478,0,0,1,1.864-.505,3.344,3.344,0,0,1,2.619,1.12,4.311,4.311,0,0,1,1,2.981v.1a4.715,4.715,0,0,1-.444,2.077,3.375,3.375,0,0,1-1.266,1.432,3.511,3.511,0,0,1-1.894.512,3.332,3.332,0,0,1-2.611-1.121,4.287,4.287,0,0,1-1-2.965Zm1.363.16a3.389,3.389,0,0,0,.611,2.117,2.072,2.072,0,0,0,3.278-.011,3.707,3.707,0,0,0,.607-2.266,3.387,3.387,0,0,0-.618-2.113,1.968,1.968,0,0,0-1.645-.81,1.947,1.947,0,0,0-1.618.8,3.684,3.684,0,0,0-.615,2.285" transform="translate(2469 -6738.862)" fill="#12263f"/>
    <path id="Path_183023" data-name="Path 183023" d="M1048.252,142.914a4.713,4.713,0,0,1-.834,2.919,2.667,2.667,0,0,1-2.242,1.1,2.761,2.761,0,0,1-2.322-1.063l-.065.916h-1.246v-11.25h1.356v4.2a2.745,2.745,0,0,1,2.263-1.019,2.683,2.683,0,0,1,2.266,1.091,4.85,4.85,0,0,1,.824,2.988Zm-1.355-.153a3.666,3.666,0,0,0-.534-2.139,1.771,1.771,0,0,0-1.538-.755,1.988,1.988,0,0,0-1.926,1.247v3.427a2.042,2.042,0,0,0,1.94,1.244,1.763,1.763,0,0,0,1.517-.753,3.906,3.906,0,0,0,.541-2.271" transform="translate(2469 -6738.862)" fill="#12263f"/>
    <path id="Path_183024" data-name="Path 183024" d="M1051.357,138.865v8.84q0,2.286-2.072,2.286a2.517,2.517,0,0,1-.828-.132v-1.077a2.634,2.634,0,0,0,.615.058.921.921,0,0,0,.692-.245,1.21,1.21,0,0,0,.239-.854v-8.876Zm-1.494-2.1a.814.814,0,0,1,.2-.553.741.741,0,0,1,.589-.23.777.777,0,0,1,.6.226.813.813,0,0,1,.205.557.734.734,0,0,1-.807.77.759.759,0,0,1-.593-.22.79.79,0,0,1-.2-.55" transform="translate(2469 -6738.862)" fill="#12263f"/>
    <path id="Path_183025" data-name="Path 183025" d="M1056.83,146.935a3.462,3.462,0,0,1-2.623-1.058,3.925,3.925,0,0,1-1.01-2.83v-.25a4.769,4.769,0,0,1,.45-2.106,3.518,3.518,0,0,1,1.26-1.45,3.174,3.174,0,0,1,1.754-.523,2.969,2.969,0,0,1,2.4,1.018,4.4,4.4,0,0,1,.857,2.914v.565h-5.368a2.819,2.819,0,0,0,.684,1.893,2.154,2.154,0,0,0,1.666.722,2.369,2.369,0,0,0,1.217-.293,3.069,3.069,0,0,0,.871-.777l.828.644a3.327,3.327,0,0,1-2.988,1.531m-.169-7.1a1.807,1.807,0,0,0-1.377.6,2.9,2.9,0,0,0-.688,1.674h3.969V142a2.583,2.583,0,0,0-.556-1.6,1.7,1.7,0,0,0-1.348-.567" transform="translate(2469 -6738.862)" fill="#12263f"/>
    <path id="Path_183026" data-name="Path 183026" d="M1063.326,136.945v1.919h1.48v1.048h-1.48v4.92a1.1,1.1,0,0,0,.2.716.836.836,0,0,0,.674.237,3.264,3.264,0,0,0,.645-.088v1.093a4,4,0,0,1-1.04.145,1.687,1.687,0,0,1-1.37-.549,2.359,2.359,0,0,1-.461-1.56v-4.914h-1.443v-1.048h1.443v-1.919Z" transform="translate(2469 -6738.862)" fill="#12263f"/>
    <path id="Path_183027" data-name="Path 183027" d="M1066.4,136.762a.813.813,0,0,1,.2-.557.76.76,0,0,1,.6-.227.774.774,0,0,1,.6.227.807.807,0,0,1,.2.557.733.733,0,0,1-.806.769.767.767,0,0,1-.6-.22.781.781,0,0,1-.2-.549m1.465,10.027h-1.355v-7.925h1.355Z" transform="translate(2469 -6738.862)" fill="#12263f"/>
    <path id="Path_183028" data-name="Path 183028" d="M1072.644,144.951l1.963-6.087h1.384l-2.842,7.925h-1.032l-2.871-7.925h1.383Z" transform="translate(2469 -6738.862)" fill="#12263f"/>
    <path id="Path_183029" data-name="Path 183029" d="M1076.826,142.754a4.689,4.689,0,0,1,.458-2.1,3.421,3.421,0,0,1,1.274-1.435,3.479,3.479,0,0,1,1.864-.505,3.344,3.344,0,0,1,2.619,1.12,4.311,4.311,0,0,1,1,2.981v.1a4.717,4.717,0,0,1-.444,2.077,3.375,3.375,0,0,1-1.266,1.432,3.511,3.511,0,0,1-1.894.512,3.332,3.332,0,0,1-2.611-1.121,4.287,4.287,0,0,1-1-2.965Zm1.363.16a3.388,3.388,0,0,0,.611,2.117,2.072,2.072,0,0,0,3.278-.011,3.707,3.707,0,0,0,.607-2.266,3.387,3.387,0,0,0-.618-2.113,1.968,1.968,0,0,0-1.645-.81,1.947,1.947,0,0,0-1.618.8,3.685,3.685,0,0,0-.615,2.285" transform="translate(2469 -6738.862)" fill="#12263f"/>
    <path id="Path_183030" data-name="Path 183030" d="M1090.354,144.688a1,1,0,0,0-.414-.854,3.982,3.982,0,0,0-1.442-.523,6.8,6.8,0,0,1-1.634-.527,2.335,2.335,0,0,1-.894-.733,1.758,1.758,0,0,1-.289-1.011,2.056,2.056,0,0,1,.824-1.648,3.218,3.218,0,0,1,2.106-.674,3.311,3.311,0,0,1,2.186.7,2.208,2.208,0,0,1,.839,1.779h-1.363a1.221,1.221,0,0,0-.472-.959,1.764,1.764,0,0,0-1.19-.4,1.851,1.851,0,0,0-1.157.322,1.013,1.013,0,0,0-.417.843.822.822,0,0,0,.387.739,4.752,4.752,0,0,0,1.4.475,7.387,7.387,0,0,1,1.644.543,2.389,2.389,0,0,1,.934.758,1.858,1.858,0,0,1,.3,1.08,2.028,2.028,0,0,1-.849,1.7,3.565,3.565,0,0,1-2.2.641,3.985,3.985,0,0,1-1.685-.337,2.736,2.736,0,0,1-1.146-.941,2.269,2.269,0,0,1-.414-1.308h1.355a1.4,1.4,0,0,0,.546,1.081,2.116,2.116,0,0,0,1.344.4,2.19,2.19,0,0,0,1.234-.312.956.956,0,0,0,.465-.831" transform="translate(2469 -6738.862)" fill="#12263f"/>
    <path id="Path_183031" data-name="Path 183031" d="M1099.78,144.8l1.846-5.94h1.45l-3.186,9.147q-.741,1.977-2.351,1.979l-.256-.023-.506-.1v-1.1l.366.029a1.819,1.819,0,0,0,1.074-.277,2.033,2.033,0,0,0,.632-1.019l.3-.806-2.827-7.836h1.479Z" transform="translate(2469 -6738.862)" fill="#12263f"/>
    <path id="Path_183032" data-name="Path 183032" d="M1107.668,142.761a4.64,4.64,0,0,1,.865-2.934,2.94,2.94,0,0,1,4.467-.157v-4.131h1.355v11.25h-1.245l-.066-.85a2.759,2.759,0,0,1-2.263,1,2.706,2.706,0,0,1-2.245-1.127,4.7,4.7,0,0,1-.868-2.945Zm1.355.153a3.51,3.51,0,0,0,.557,2.109,1.8,1.8,0,0,0,1.538.762,1.976,1.976,0,0,0,1.882-1.156v-3.641a1.993,1.993,0,0,0-1.868-1.121,1.807,1.807,0,0,0-1.552.77,3.868,3.868,0,0,0-.557,2.277" transform="translate(2469 -6738.862)" fill="#12263f"/>
    <path id="Path_183033" data-name="Path 183033" d="M1119.746,146.935a3.462,3.462,0,0,1-2.623-1.058,3.925,3.925,0,0,1-1.01-2.83v-.25a4.768,4.768,0,0,1,.45-2.106,3.518,3.518,0,0,1,1.26-1.45,3.174,3.174,0,0,1,1.754-.523,2.969,2.969,0,0,1,2.4,1.018,4.4,4.4,0,0,1,.857,2.914v.565h-5.368a2.819,2.819,0,0,0,.684,1.893,2.154,2.154,0,0,0,1.666.722,2.369,2.369,0,0,0,1.217-.293,3.069,3.069,0,0,0,.871-.777l.828.644a3.327,3.327,0,0,1-2.988,1.531m-.169-7.1a1.807,1.807,0,0,0-1.377.6,2.9,2.9,0,0,0-.688,1.674h3.969V142a2.583,2.583,0,0,0-.556-1.6,1.7,1.7,0,0,0-1.348-.567" transform="translate(2469 -6738.862)" fill="#12263f"/>
    <rect id="Rectangle_38235" data-name="Rectangle 38235" width="1.355" height="11.25" transform="translate(3597.234 -6603.323)" fill="#12263f"/>
    <path id="Path_183034" data-name="Path 183034" d="M1136.65,146.789a2.822,2.822,0,0,1-.19-.835,3.022,3.022,0,0,1-2.256.982,2.8,2.8,0,0,1-1.923-.663,2.145,2.145,0,0,1-.75-1.681,2.242,2.242,0,0,1,.94-1.923,4.443,4.443,0,0,1,2.648-.684h1.318v-.624a1.519,1.519,0,0,0-.424-1.13,1.7,1.7,0,0,0-1.253-.422,1.975,1.975,0,0,0-1.215.367,1.076,1.076,0,0,0-.491.886h-1.363a1.871,1.871,0,0,1,.422-1.147,2.87,2.87,0,0,1,1.143-.875,3.832,3.832,0,0,1,1.585-.322,3.137,3.137,0,0,1,2.146.684,2.475,2.475,0,0,1,.806,1.887v3.647a4.451,4.451,0,0,0,.278,1.736v.117Zm-2.248-1.033a2.379,2.379,0,0,0,1.208-.329,1.991,1.991,0,0,0,.827-.857v-1.627h-1.061q-2.492,0-2.491,1.459a1.236,1.236,0,0,0,.425,1,1.634,1.634,0,0,0,1.092.358" transform="translate(2469 -6738.862)" fill="#12263f"/>
    <path id="Path_183035" data-name="Path 183035" d="M1144.53,144.688a1,1,0,0,0-.414-.854,3.983,3.983,0,0,0-1.442-.523,6.8,6.8,0,0,1-1.634-.527,2.334,2.334,0,0,1-.894-.733,1.758,1.758,0,0,1-.289-1.011,2.055,2.055,0,0,1,.824-1.648,3.218,3.218,0,0,1,2.106-.674,3.311,3.311,0,0,1,2.186.7,2.208,2.208,0,0,1,.839,1.779h-1.363a1.221,1.221,0,0,0-.472-.959,1.764,1.764,0,0,0-1.19-.4,1.85,1.85,0,0,0-1.157.322,1.013,1.013,0,0,0-.417.843.822.822,0,0,0,.387.739,4.752,4.752,0,0,0,1.4.475,7.389,7.389,0,0,1,1.644.543,2.389,2.389,0,0,1,.934.758,1.858,1.858,0,0,1,.3,1.08,2.029,2.029,0,0,1-.849,1.7,3.565,3.565,0,0,1-2.2.641,3.985,3.985,0,0,1-1.685-.337,2.735,2.735,0,0,1-1.146-.941,2.269,2.269,0,0,1-.414-1.308h1.355a1.4,1.4,0,0,0,.546,1.081,2.116,2.116,0,0,0,1.344.4,2.19,2.19,0,0,0,1.234-.312.956.956,0,0,0,.465-.831" transform="translate(2469 -6738.862)" fill="#12263f"/>
    <path id="Path_183036" data-name="Path 183036" d="M1152.639,138.864l.036.879a2.926,2.926,0,0,1,2.352-1.025,2.266,2.266,0,0,1,2.263,1.274,3,3,0,0,1,1.029-.923,3.046,3.046,0,0,1,1.5-.351q2.607,0,2.651,2.76v5.311h-1.355v-5.23a1.816,1.816,0,0,0-.388-1.27,1.709,1.709,0,0,0-1.3-.422,1.791,1.791,0,0,0-1.252.451,1.824,1.824,0,0,0-.579,1.212v5.259h-1.362V141.6a1.512,1.512,0,0,0-1.692-1.728,1.813,1.813,0,0,0-1.824,1.136v5.786h-1.355v-7.925Z" transform="translate(2469 -6738.862)" fill="#12263f"/>
    <path id="Path_183037" data-name="Path 183037" d="M1167.8,146.935a3.462,3.462,0,0,1-2.623-1.058,3.925,3.925,0,0,1-1.01-2.83v-.25a4.769,4.769,0,0,1,.45-2.106,3.519,3.519,0,0,1,1.26-1.45,3.174,3.174,0,0,1,1.754-.523,2.969,2.969,0,0,1,2.4,1.018,4.4,4.4,0,0,1,.857,2.914v.565h-5.368a2.819,2.819,0,0,0,.684,1.893,2.153,2.153,0,0,0,1.666.722,2.369,2.369,0,0,0,1.217-.293,3.066,3.066,0,0,0,.871-.777l.828.644a3.327,3.327,0,0,1-2.988,1.531m-.169-7.1a1.807,1.807,0,0,0-1.377.6,2.9,2.9,0,0,0-.688,1.674h3.969V142a2.583,2.583,0,0,0-.556-1.6,1.7,1.7,0,0,0-1.348-.567" transform="translate(2469 -6738.862)" fill="#12263f"/>
    <path id="Path_183038" data-name="Path 183038" d="M1174.3,136.945v1.919h1.479v1.048H1174.3v4.92a1.1,1.1,0,0,0,.2.716.832.832,0,0,0,.673.237,3.264,3.264,0,0,0,.645-.088v1.093a4,4,0,0,1-1.04.145,1.687,1.687,0,0,1-1.37-.549,2.359,2.359,0,0,1-.46-1.56v-4.914H1171.5v-1.048h1.444v-1.919Z" transform="translate(2469 -6738.862)" fill="#12263f"/>
    <path id="Path_183039" data-name="Path 183039" d="M1182.251,146.789a2.8,2.8,0,0,1-.189-.835,3.024,3.024,0,0,1-2.257.982,2.8,2.8,0,0,1-1.923-.663,2.145,2.145,0,0,1-.75-1.681,2.24,2.24,0,0,1,.941-1.923,4.439,4.439,0,0,1,2.647-.684h1.318v-.624a1.523,1.523,0,0,0-.423-1.13,1.709,1.709,0,0,0-1.254-.422,1.979,1.979,0,0,0-1.215.367,1.075,1.075,0,0,0-.49.886h-1.364a1.871,1.871,0,0,1,.422-1.147,2.877,2.877,0,0,1,1.143-.875,3.836,3.836,0,0,1,1.586-.322,3.14,3.14,0,0,1,2.146.684,2.479,2.479,0,0,1,.806,1.887v3.647a4.453,4.453,0,0,0,.277,1.736v.117ZM1180,145.756a2.378,2.378,0,0,0,1.207-.329,1.986,1.986,0,0,0,.827-.857v-1.627h-1.06q-2.492,0-2.492,1.459a1.239,1.239,0,0,0,.425,1,1.635,1.635,0,0,0,1.093.358" transform="translate(2469 -6738.862)" fill="#12263f"/>
    <path id="Path_183040" data-name="Path 183040" d="M1190.131,144.688a1,1,0,0,0-.414-.854,3.984,3.984,0,0,0-1.442-.523,6.8,6.8,0,0,1-1.634-.527,2.336,2.336,0,0,1-.894-.733,1.759,1.759,0,0,1-.289-1.011,2.056,2.056,0,0,1,.824-1.648,3.218,3.218,0,0,1,2.106-.674,3.311,3.311,0,0,1,2.186.7,2.207,2.207,0,0,1,.839,1.779h-1.363a1.221,1.221,0,0,0-.472-.959,1.764,1.764,0,0,0-1.19-.4,1.851,1.851,0,0,0-1.157.322,1.013,1.013,0,0,0-.417.843.821.821,0,0,0,.387.739,4.749,4.749,0,0,0,1.4.475,7.39,7.39,0,0,1,1.644.543,2.39,2.39,0,0,1,.934.758,1.858,1.858,0,0,1,.3,1.08,2.028,2.028,0,0,1-.849,1.7,3.565,3.565,0,0,1-2.2.641,3.985,3.985,0,0,1-1.685-.337,2.736,2.736,0,0,1-1.146-.941,2.269,2.269,0,0,1-.414-1.308h1.355a1.4,1.4,0,0,0,.546,1.081,2.116,2.116,0,0,0,1.344.4,2.19,2.19,0,0,0,1.234-.312.956.956,0,0,0,.465-.831" transform="translate(2469 -6738.862)" fill="#12263f"/>
    <path id="Path_183041" data-name="Path 183041" d="M1039.683,160.914a4.75,4.75,0,0,1-.827,2.916,2.652,2.652,0,0,1-2.242,1.106,2.9,2.9,0,0,1-2.269-.916v3.816h-1.356V156.865h1.238l.066.878a2.793,2.793,0,0,1,2.3-1.025,2.7,2.7,0,0,1,2.259,1.077,4.8,4.8,0,0,1,.831,2.995Zm-1.354-.153a3.5,3.5,0,0,0-.572-2.116,1.841,1.841,0,0,0-1.567-.778,1.993,1.993,0,0,0-1.845,1.092v3.787a1.993,1.993,0,0,0,1.859,1.084,1.833,1.833,0,0,0,1.55-.773,3.823,3.823,0,0,0,.575-2.3" transform="translate(2469 -6738.862)" fill="#12263f"/>
    <path id="Path_183042" data-name="Path 183042" d="M1045.234,158.08a4.077,4.077,0,0,0-.666-.051,1.784,1.784,0,0,0-1.809,1.135v5.625H1041.4v-7.925h1.318l.022.915a2.11,2.11,0,0,1,1.89-1.061,1.388,1.388,0,0,1,.6.1Z" transform="translate(2469 -6738.862)" fill="#12263f"/>
    <path id="Path_183043" data-name="Path 183043" d="M1045.974,160.754a4.689,4.689,0,0,1,.458-2.1,3.421,3.421,0,0,1,1.274-1.435,3.478,3.478,0,0,1,1.864-.505,3.343,3.343,0,0,1,2.619,1.12,4.311,4.311,0,0,1,1,2.981v.1a4.7,4.7,0,0,1-.444,2.077,3.375,3.375,0,0,1-1.266,1.432,3.511,3.511,0,0,1-1.894.512,3.332,3.332,0,0,1-2.611-1.121,4.287,4.287,0,0,1-1-2.965Zm1.364.16a3.389,3.389,0,0,0,.61,2.117,2.072,2.072,0,0,0,3.278-.011,3.707,3.707,0,0,0,.607-2.266,3.387,3.387,0,0,0-.618-2.113,1.967,1.967,0,0,0-1.645-.81,1.944,1.944,0,0,0-1.617.8,3.678,3.678,0,0,0-.615,2.285" transform="translate(2469 -6738.862)" fill="#12263f"/>
    <path id="Path_183044" data-name="Path 183044" d="M1061.582,160.914a4.75,4.75,0,0,1-.827,2.916,2.652,2.652,0,0,1-2.242,1.106,2.9,2.9,0,0,1-2.269-.916v3.816h-1.356V156.865h1.238l.066.878a2.793,2.793,0,0,1,2.3-1.025,2.7,2.7,0,0,1,2.259,1.077,4.8,4.8,0,0,1,.831,2.995Zm-1.354-.153a3.5,3.5,0,0,0-.572-2.116,1.842,1.842,0,0,0-1.567-.778,1.993,1.993,0,0,0-1.845,1.092v3.787a1.993,1.993,0,0,0,1.859,1.084,1.833,1.833,0,0,0,1.55-.773,3.822,3.822,0,0,0,.575-2.3" transform="translate(2469 -6738.862)" fill="#12263f"/>
    <path id="Path_183045" data-name="Path 183045" d="M1068.2,164.006a2.879,2.879,0,0,1-2.322.93,2.46,2.46,0,0,1-1.93-.737,3.188,3.188,0,0,1-.67-2.178v-5.157h1.356v5.121q0,1.8,1.464,1.8a2.027,2.027,0,0,0,2.065-1.156v-5.765h1.355v7.925h-1.289Z" transform="translate(2469 -6738.862)" fill="#12263f"/>
    <path id="Path_183046" data-name="Path 183046" d="M1074.863,164.935a3.462,3.462,0,0,1-2.623-1.058,3.925,3.925,0,0,1-1.01-2.83v-.25a4.768,4.768,0,0,1,.45-2.106,3.518,3.518,0,0,1,1.26-1.45,3.174,3.174,0,0,1,1.754-.523,2.969,2.969,0,0,1,2.4,1.018,4.4,4.4,0,0,1,.857,2.914v.565h-5.368a2.819,2.819,0,0,0,.684,1.893,2.153,2.153,0,0,0,1.666.722,2.369,2.369,0,0,0,1.217-.293,3.066,3.066,0,0,0,.871-.777l.828.644a3.327,3.327,0,0,1-2.988,1.531m-.169-7.1a1.807,1.807,0,0,0-1.377.6,2.9,2.9,0,0,0-.688,1.674h3.969V160a2.583,2.583,0,0,0-.556-1.6,1.7,1.7,0,0,0-1.348-.567" transform="translate(2469 -6738.862)" fill="#12263f"/>
    <path id="Path_183047" data-name="Path 183047" d="M1084.135,162.688a1,1,0,0,0-.414-.854,3.982,3.982,0,0,0-1.442-.523,6.8,6.8,0,0,1-1.634-.527,2.334,2.334,0,0,1-.894-.733,1.758,1.758,0,0,1-.289-1.011,2.056,2.056,0,0,1,.824-1.648,3.218,3.218,0,0,1,2.106-.674,3.311,3.311,0,0,1,2.186.7,2.208,2.208,0,0,1,.839,1.779h-1.363a1.221,1.221,0,0,0-.472-.959,1.764,1.764,0,0,0-1.19-.4,1.85,1.85,0,0,0-1.157.322,1.013,1.013,0,0,0-.417.843.822.822,0,0,0,.387.739,4.752,4.752,0,0,0,1.4.475,7.387,7.387,0,0,1,1.644.543,2.389,2.389,0,0,1,.934.758,1.858,1.858,0,0,1,.3,1.08,2.028,2.028,0,0,1-.849,1.7,3.565,3.565,0,0,1-2.2.641,3.985,3.985,0,0,1-1.685-.337,2.735,2.735,0,0,1-1.146-.941,2.269,2.269,0,0,1-.414-1.308h1.355a1.4,1.4,0,0,0,.546,1.081,2.116,2.116,0,0,0,1.344.4,2.19,2.19,0,0,0,1.234-.312.956.956,0,0,0,.465-.831" transform="translate(2469 -6738.862)" fill="#12263f"/>
    <path id="Path_183048" data-name="Path 183048" d="M1089.093,154.945v1.919h1.48v1.048h-1.48v4.92a1.1,1.1,0,0,0,.2.716.836.836,0,0,0,.674.237,3.263,3.263,0,0,0,.645-.088v1.093a4,4,0,0,1-1.04.145,1.687,1.687,0,0,1-1.37-.549,2.359,2.359,0,0,1-.461-1.56v-4.914H1086.3v-1.048h1.443v-1.919Z" transform="translate(2469 -6738.862)" fill="#12263f"/>
    <path id="Path_183049" data-name="Path 183049" d="M1097.048,164.789a2.819,2.819,0,0,1-.19-.835,3.022,3.022,0,0,1-2.256.982,2.8,2.8,0,0,1-1.923-.663,2.145,2.145,0,0,1-.75-1.681,2.242,2.242,0,0,1,.94-1.923,4.443,4.443,0,0,1,2.648-.684h1.318v-.624a1.52,1.52,0,0,0-.424-1.13,1.7,1.7,0,0,0-1.253-.422,1.975,1.975,0,0,0-1.215.367,1.076,1.076,0,0,0-.491.886h-1.363a1.871,1.871,0,0,1,.422-1.147,2.87,2.87,0,0,1,1.143-.875,3.832,3.832,0,0,1,1.585-.322,3.136,3.136,0,0,1,2.146.684,2.475,2.475,0,0,1,.806,1.887v3.647a4.451,4.451,0,0,0,.278,1.736v.117Zm-2.248-1.033a2.379,2.379,0,0,0,1.208-.329,1.991,1.991,0,0,0,.827-.857v-1.627h-1.061q-2.492,0-2.491,1.459a1.236,1.236,0,0,0,.425,1,1.634,1.634,0,0,0,1.092.358" transform="translate(2469 -6738.862)" fill="#12263f"/>
    <path id="Path_183050" data-name="Path 183050" d="M1104.929,162.688a1,1,0,0,0-.414-.854,3.983,3.983,0,0,0-1.442-.523,6.8,6.8,0,0,1-1.634-.527,2.334,2.334,0,0,1-.894-.733,1.758,1.758,0,0,1-.289-1.011,2.056,2.056,0,0,1,.824-1.648,3.219,3.219,0,0,1,2.106-.674,3.311,3.311,0,0,1,2.186.7,2.207,2.207,0,0,1,.839,1.779h-1.363a1.221,1.221,0,0,0-.472-.959,1.763,1.763,0,0,0-1.19-.4,1.85,1.85,0,0,0-1.157.322,1.013,1.013,0,0,0-.417.843.821.821,0,0,0,.387.739,4.751,4.751,0,0,0,1.4.475,7.39,7.39,0,0,1,1.644.543,2.39,2.39,0,0,1,.934.758,1.858,1.858,0,0,1,.3,1.08,2.028,2.028,0,0,1-.849,1.7,3.565,3.565,0,0,1-2.2.641,3.984,3.984,0,0,1-1.685-.337,2.735,2.735,0,0,1-1.146-.941,2.27,2.27,0,0,1-.414-1.308h1.355a1.4,1.4,0,0,0,.546,1.081,2.116,2.116,0,0,0,1.344.4,2.19,2.19,0,0,0,1.234-.312.956.956,0,0,0,.465-.831" transform="translate(2469 -6738.862)" fill="#12263f"/>
    <path id="Path_183051" data-name="Path 183051" d="M1118.457,160.914a4.75,4.75,0,0,1-.827,2.916,2.652,2.652,0,0,1-2.242,1.106,2.9,2.9,0,0,1-2.269-.916v3.816h-1.356V156.865H1113l.066.878a2.793,2.793,0,0,1,2.3-1.025,2.7,2.7,0,0,1,2.259,1.077,4.8,4.8,0,0,1,.831,2.995Zm-1.354-.153a3.5,3.5,0,0,0-.572-2.116,1.842,1.842,0,0,0-1.567-.778,1.993,1.993,0,0,0-1.845,1.092v3.787a1.993,1.993,0,0,0,1.859,1.084,1.833,1.833,0,0,0,1.55-.773,3.822,3.822,0,0,0,.575-2.3" transform="translate(2469 -6738.862)" fill="#12263f"/>
    <path id="Path_183052" data-name="Path 183052" d="M1119.82,160.754a4.69,4.69,0,0,1,.458-2.1,3.422,3.422,0,0,1,1.274-1.435,3.479,3.479,0,0,1,1.864-.505,3.344,3.344,0,0,1,2.619,1.12,4.311,4.311,0,0,1,1,2.981v.1a4.715,4.715,0,0,1-.444,2.077,3.373,3.373,0,0,1-1.266,1.432,3.51,3.51,0,0,1-1.894.512,3.332,3.332,0,0,1-2.611-1.121,4.288,4.288,0,0,1-1-2.965Zm1.363.16a3.389,3.389,0,0,0,.611,2.117,2.072,2.072,0,0,0,3.278-.011,3.707,3.707,0,0,0,.607-2.266,3.387,3.387,0,0,0-.618-2.113,1.968,1.968,0,0,0-1.645-.81,1.947,1.947,0,0,0-1.618.8,3.684,3.684,0,0,0-.615,2.285" transform="translate(2469 -6738.862)" fill="#12263f"/>
    <path id="Path_183053" data-name="Path 183053" d="M1132.564,158.08a4.077,4.077,0,0,0-.666-.051,1.784,1.784,0,0,0-1.809,1.135v5.625h-1.355v-7.925h1.318l.022.915a2.11,2.11,0,0,1,1.89-1.061,1.387,1.387,0,0,1,.6.1Z" transform="translate(2469 -6738.862)" fill="#12263f"/>
    <rect id="Rectangle_38236" data-name="Rectangle 38236" width="1.355" height="11.25" transform="translate(3606.641 -6585.323)" fill="#12263f"/>
    <path id="Path_183054" data-name="Path 183054" d="M1146.056,164.789a2.818,2.818,0,0,1-.19-.835,3.022,3.022,0,0,1-2.256.982,2.8,2.8,0,0,1-1.923-.663,2.145,2.145,0,0,1-.75-1.681,2.242,2.242,0,0,1,.94-1.923,4.443,4.443,0,0,1,2.648-.684h1.318v-.624a1.519,1.519,0,0,0-.424-1.13,1.7,1.7,0,0,0-1.253-.422,1.975,1.975,0,0,0-1.215.367,1.076,1.076,0,0,0-.491.886H1141.1a1.871,1.871,0,0,1,.422-1.147,2.87,2.87,0,0,1,1.143-.875,3.832,3.832,0,0,1,1.585-.322,3.136,3.136,0,0,1,2.146.684,2.475,2.475,0,0,1,.806,1.887v3.647a4.451,4.451,0,0,0,.278,1.736v.117Zm-2.248-1.033a2.379,2.379,0,0,0,1.208-.329,1.991,1.991,0,0,0,.827-.857v-1.627h-1.061q-2.492,0-2.491,1.459a1.236,1.236,0,0,0,.425,1,1.634,1.634,0,0,0,1.092.358" transform="translate(2469 -6738.862)" fill="#12263f"/>
    <path id="Path_183055" data-name="Path 183055" d="M1157.929,164.006a2.879,2.879,0,0,1-2.322.93,2.46,2.46,0,0,1-1.93-.737,3.187,3.187,0,0,1-.67-2.178v-5.157h1.356v5.121q0,1.8,1.464,1.8a2.026,2.026,0,0,0,2.065-1.156v-5.765h1.355v7.925h-1.289Z" transform="translate(2469 -6738.862)" fill="#12263f"/>
    <path id="Path_183056" data-name="Path 183056" d="M1162.588,156.864l.044,1a2.883,2.883,0,0,1,2.373-1.142q2.511,0,2.533,2.834v5.237h-1.354v-5.244a1.829,1.829,0,0,0-.392-1.268,1.576,1.576,0,0,0-1.2-.41,1.956,1.956,0,0,0-1.157.351,2.382,2.382,0,0,0-.777.924v5.647h-1.354v-7.925Z" transform="translate(2469 -6738.862)" fill="#12263f"/>
    <path id="Path_183057" data-name="Path 183057" d="M1169.59,154.762a.809.809,0,0,1,.2-.557.758.758,0,0,1,.6-.227.774.774,0,0,1,.6.227.8.8,0,0,1,.2.557.771.771,0,0,1-.2.549.781.781,0,0,1-.6.22.765.765,0,0,1-.6-.22.777.777,0,0,1-.2-.549m1.465,10.027H1169.7v-7.925h1.355Z" transform="translate(2469 -6738.862)" fill="#12263f"/>
    <path id="Path_183058" data-name="Path 183058" d="M1172.893,160.761a4.64,4.64,0,0,1,.865-2.934,2.94,2.94,0,0,1,4.467-.157v-4.131h1.355v11.25h-1.245l-.066-.85a2.759,2.759,0,0,1-2.263,1,2.706,2.706,0,0,1-2.245-1.127,4.7,4.7,0,0,1-.868-2.945Zm1.355.153a3.509,3.509,0,0,0,.557,2.109,1.8,1.8,0,0,0,1.538.762,1.976,1.976,0,0,0,1.882-1.156v-3.641a1.993,1.993,0,0,0-1.868-1.121,1.807,1.807,0,0,0-1.552.77,3.867,3.867,0,0,0-.557,2.277" transform="translate(2469 -6738.862)" fill="#12263f"/>
    <path id="Path_183059" data-name="Path 183059" d="M1186.574,164.789a2.819,2.819,0,0,1-.19-.835,3.022,3.022,0,0,1-2.256.982,2.8,2.8,0,0,1-1.923-.663,2.145,2.145,0,0,1-.75-1.681,2.242,2.242,0,0,1,.94-1.923,4.443,4.443,0,0,1,2.648-.684h1.318v-.624a1.52,1.52,0,0,0-.424-1.13,1.7,1.7,0,0,0-1.253-.422,1.975,1.975,0,0,0-1.215.367,1.076,1.076,0,0,0-.491.886h-1.363a1.871,1.871,0,0,1,.422-1.147,2.87,2.87,0,0,1,1.143-.875,3.832,3.832,0,0,1,1.585-.322,3.136,3.136,0,0,1,2.146.684,2.475,2.475,0,0,1,.806,1.887v3.647a4.451,4.451,0,0,0,.278,1.736v.117Zm-2.248-1.033a2.379,2.379,0,0,0,1.208-.329,1.991,1.991,0,0,0,.827-.857v-1.627H1185.3q-2.492,0-2.491,1.459a1.236,1.236,0,0,0,.425,1,1.634,1.634,0,0,0,1.092.358" transform="translate(2469 -6738.862)" fill="#12263f"/>
    <path id="Path_183060" data-name="Path 183060" d="M1189.511,160.761a4.64,4.64,0,0,1,.865-2.934,2.94,2.94,0,0,1,4.467-.157v-4.131h1.355v11.25h-1.245l-.066-.85a2.759,2.759,0,0,1-2.263,1,2.706,2.706,0,0,1-2.245-1.127,4.7,4.7,0,0,1-.868-2.945Zm1.355.153a3.51,3.51,0,0,0,.557,2.109,1.8,1.8,0,0,0,1.538.762,1.976,1.976,0,0,0,1.882-1.156v-3.641a1.993,1.993,0,0,0-1.868-1.121,1.807,1.807,0,0,0-1.552.77,3.868,3.868,0,0,0-.557,2.277" transform="translate(2469 -6738.862)" fill="#12263f"/>
    <path id="Path_183061" data-name="Path 183061" d="M1039.683,178.914a4.75,4.75,0,0,1-.827,2.916,2.652,2.652,0,0,1-2.242,1.106,2.9,2.9,0,0,1-2.269-.916v3.816h-1.356V174.865h1.238l.066.878a2.793,2.793,0,0,1,2.3-1.025,2.7,2.7,0,0,1,2.259,1.077,4.8,4.8,0,0,1,.831,2.995Zm-1.354-.153a3.5,3.5,0,0,0-.572-2.116,1.841,1.841,0,0,0-1.567-.778,1.993,1.993,0,0,0-1.845,1.092v3.787a1.993,1.993,0,0,0,1.859,1.084,1.833,1.833,0,0,0,1.55-.773,3.823,3.823,0,0,0,.575-2.3" transform="translate(2469 -6738.862)" fill="#12263f"/>
    <path id="Path_183062" data-name="Path 183062" d="M1045.234,176.08a4.077,4.077,0,0,0-.666-.051,1.784,1.784,0,0,0-1.809,1.135v5.625H1041.4v-7.925h1.318l.022.915a2.11,2.11,0,0,1,1.89-1.061,1.388,1.388,0,0,1,.6.1Z" transform="translate(2469 -6738.862)" fill="#12263f"/>
    <path id="Path_183063" data-name="Path 183063" d="M1045.974,178.754a4.689,4.689,0,0,1,.458-2.1,3.421,3.421,0,0,1,1.274-1.435,3.478,3.478,0,0,1,1.864-.505,3.343,3.343,0,0,1,2.619,1.12,4.311,4.311,0,0,1,1,2.981v.1a4.7,4.7,0,0,1-.444,2.077,3.375,3.375,0,0,1-1.266,1.432,3.511,3.511,0,0,1-1.894.512,3.332,3.332,0,0,1-2.611-1.121,4.287,4.287,0,0,1-1-2.965Zm1.364.16a3.389,3.389,0,0,0,.61,2.117,2.072,2.072,0,0,0,3.278-.011,3.707,3.707,0,0,0,.607-2.266,3.387,3.387,0,0,0-.618-2.113,1.967,1.967,0,0,0-1.645-.81,1.944,1.944,0,0,0-1.617.8,3.678,3.678,0,0,0-.615,2.285" transform="translate(2469 -6738.862)" fill="#12263f"/>
    <path id="Path_183064" data-name="Path 183064" d="M1054.559,178.761a4.64,4.64,0,0,1,.865-2.934,2.94,2.94,0,0,1,4.467-.157v-4.131h1.355v11.25H1060l-.066-.85a2.759,2.759,0,0,1-2.263,1,2.706,2.706,0,0,1-2.245-1.127,4.7,4.7,0,0,1-.868-2.945Zm1.355.153a3.51,3.51,0,0,0,.557,2.109,1.8,1.8,0,0,0,1.538.762,1.976,1.976,0,0,0,1.882-1.156v-3.641a1.993,1.993,0,0,0-1.868-1.121,1.807,1.807,0,0,0-1.552.77,3.868,3.868,0,0,0-.557,2.277" transform="translate(2469 -6738.862)" fill="#12263f"/>
    <path id="Path_183065" data-name="Path 183065" d="M1068.24,182.006a2.879,2.879,0,0,1-2.322.93,2.459,2.459,0,0,1-1.93-.737,3.187,3.187,0,0,1-.67-2.178v-5.157h1.356v5.121q0,1.8,1.464,1.8a2.027,2.027,0,0,0,2.065-1.156v-5.765h1.355v7.925h-1.289Z" transform="translate(2469 -6738.862)" fill="#12263f"/>
    <path id="Path_183066" data-name="Path 183066" d="M1074.8,181.83a1.957,1.957,0,0,0,1.267-.439,1.557,1.557,0,0,0,.6-1.1h1.281a2.434,2.434,0,0,1-.468,1.3,3.091,3.091,0,0,1-1.153.981,3.333,3.333,0,0,1-1.527.366,3.266,3.266,0,0,1-2.575-1.08,4.3,4.3,0,0,1-.955-2.955v-.227a4.756,4.756,0,0,1,.424-2.058,3.243,3.243,0,0,1,1.219-1.4,3.465,3.465,0,0,1,1.879-.5,3.175,3.175,0,0,1,2.215.8,2.844,2.844,0,0,1,.941,2.073h-1.281a1.869,1.869,0,0,0-.583-1.264,1.811,1.811,0,0,0-1.292-.494,1.9,1.9,0,0,0-1.6.743,3.491,3.491,0,0,0-.568,2.151v.255a3.424,3.424,0,0,0,.564,2.11,1.907,1.907,0,0,0,1.612.74" transform="translate(2469 -6738.862)" fill="#12263f"/>
    <path id="Path_183067" data-name="Path 183067" d="M1081.306,172.945v1.919h1.48v1.048h-1.48v4.92a1.1,1.1,0,0,0,.2.716.836.836,0,0,0,.674.237,3.264,3.264,0,0,0,.645-.088v1.093a4,4,0,0,1-1.04.145,1.687,1.687,0,0,1-1.37-.549,2.359,2.359,0,0,1-.461-1.56v-4.914h-1.443v-1.048h1.443v-1.919Z" transform="translate(2469 -6738.862)" fill="#12263f"/>
    <path id="Path_183068" data-name="Path 183068" d="M1084.377,172.762a.808.808,0,0,1,.2-.557.759.759,0,0,1,.6-.227.774.774,0,0,1,.6.227.8.8,0,0,1,.2.557.771.771,0,0,1-.2.549.781.781,0,0,1-.6.22.767.767,0,0,1-.6-.22.776.776,0,0,1-.2-.549m1.464,10.027h-1.355v-7.925h1.355Z" transform="translate(2469 -6738.862)" fill="#12263f"/>
    <path id="Path_183069" data-name="Path 183069" d="M1090.625,180.951l1.963-6.087h1.384l-2.842,7.925H1090.1l-2.871-7.925h1.383Z" transform="translate(2469 -6738.862)" fill="#12263f"/>
    <path id="Path_183070" data-name="Path 183070" d="M1100.058,182.789a2.819,2.819,0,0,1-.19-.835,3.022,3.022,0,0,1-2.256.982,2.8,2.8,0,0,1-1.923-.663,2.145,2.145,0,0,1-.75-1.681,2.242,2.242,0,0,1,.94-1.923,4.443,4.443,0,0,1,2.648-.684h1.318v-.624a1.52,1.52,0,0,0-.424-1.13,1.7,1.7,0,0,0-1.253-.422,1.975,1.975,0,0,0-1.215.367,1.076,1.076,0,0,0-.491.886H1095.1a1.871,1.871,0,0,1,.422-1.147,2.871,2.871,0,0,1,1.143-.875,3.833,3.833,0,0,1,1.585-.322,3.136,3.136,0,0,1,2.146.684,2.475,2.475,0,0,1,.806,1.887v3.647a4.451,4.451,0,0,0,.278,1.736v.117Zm-2.248-1.033a2.378,2.378,0,0,0,1.208-.329,1.991,1.991,0,0,0,.827-.857v-1.627h-1.061q-2.492,0-2.491,1.459a1.236,1.236,0,0,0,.425,1,1.634,1.634,0,0,0,1.092.358" transform="translate(2469 -6738.862)" fill="#12263f"/>
    <path id="Path_183071" data-name="Path 183071" d="M1103.28,184.913l-.769-.527a3.538,3.538,0,0,0,.717-1.978v-1.223h1.326v1.062a3.343,3.343,0,0,1-.362,1.479,3.467,3.467,0,0,1-.912,1.187" transform="translate(2469 -6738.862)" fill="#12263f"/>
    <rect id="Rectangle_38237" data-name="Rectangle 38237" width="1.355" height="11.25" transform="translate(3579.1 -6567.323)" fill="#12263f"/>
    <path id="Path_183072" data-name="Path 183072" d="M1116.912,182.935a3.462,3.462,0,0,1-2.623-1.058,3.925,3.925,0,0,1-1.01-2.83v-.25a4.768,4.768,0,0,1,.45-2.106,3.518,3.518,0,0,1,1.26-1.45,3.174,3.174,0,0,1,1.754-.523,2.969,2.969,0,0,1,2.4,1.018,4.4,4.4,0,0,1,.857,2.914v.565h-5.368a2.818,2.818,0,0,0,.684,1.893,2.154,2.154,0,0,0,1.666.722,2.369,2.369,0,0,0,1.217-.293,3.069,3.069,0,0,0,.871-.777l.828.644a3.327,3.327,0,0,1-2.988,1.531m-.169-7.1a1.807,1.807,0,0,0-1.377.6,2.9,2.9,0,0,0-.688,1.674h3.969V178a2.582,2.582,0,0,0-.556-1.6,1.7,1.7,0,0,0-1.348-.567" transform="translate(2469 -6738.862)" fill="#12263f"/>
    <path id="Path_183073" data-name="Path 183073" d="M1126.184,180.688a1,1,0,0,0-.414-.854,3.984,3.984,0,0,0-1.442-.523,6.8,6.8,0,0,1-1.634-.527,2.334,2.334,0,0,1-.894-.733,1.758,1.758,0,0,1-.289-1.011,2.056,2.056,0,0,1,.824-1.648,3.219,3.219,0,0,1,2.106-.674,3.311,3.311,0,0,1,2.186.7,2.207,2.207,0,0,1,.839,1.779H1126.1a1.221,1.221,0,0,0-.472-.959,1.763,1.763,0,0,0-1.19-.4,1.85,1.85,0,0,0-1.157.322,1.013,1.013,0,0,0-.417.843.821.821,0,0,0,.387.739,4.749,4.749,0,0,0,1.4.475,7.39,7.39,0,0,1,1.644.543,2.39,2.39,0,0,1,.934.758,1.858,1.858,0,0,1,.3,1.08,2.028,2.028,0,0,1-.849,1.7,3.565,3.565,0,0,1-2.2.641,3.984,3.984,0,0,1-1.685-.337,2.735,2.735,0,0,1-1.146-.941,2.27,2.27,0,0,1-.414-1.308h1.355a1.4,1.4,0,0,0,.546,1.081,2.116,2.116,0,0,0,1.344.4,2.19,2.19,0,0,0,1.234-.312.956.956,0,0,0,.465-.831" transform="translate(2469 -6738.862)" fill="#12263f"/>
    <path id="Path_183074" data-name="Path 183074" d="M1139.711,178.914a4.75,4.75,0,0,1-.827,2.916,2.652,2.652,0,0,1-2.242,1.106,2.9,2.9,0,0,1-2.269-.916v3.816h-1.356V174.865h1.238l.066.878a2.793,2.793,0,0,1,2.3-1.025,2.7,2.7,0,0,1,2.259,1.077,4.8,4.8,0,0,1,.831,2.995Zm-1.354-.153a3.5,3.5,0,0,0-.572-2.116,1.842,1.842,0,0,0-1.567-.778,1.992,1.992,0,0,0-1.845,1.092v3.787a1.993,1.993,0,0,0,1.859,1.084,1.833,1.833,0,0,0,1.55-.773,3.822,3.822,0,0,0,.575-2.3" transform="translate(2469 -6738.862)" fill="#12263f"/>
    <path id="Path_183075" data-name="Path 183075" d="M1144.722,182.935a3.462,3.462,0,0,1-2.623-1.058,3.925,3.925,0,0,1-1.01-2.83v-.25a4.769,4.769,0,0,1,.45-2.106,3.519,3.519,0,0,1,1.26-1.45,3.174,3.174,0,0,1,1.754-.523,2.969,2.969,0,0,1,2.4,1.018,4.4,4.4,0,0,1,.857,2.914v.565h-5.368a2.819,2.819,0,0,0,.684,1.893,2.153,2.153,0,0,0,1.666.722,2.369,2.369,0,0,0,1.217-.293,3.066,3.066,0,0,0,.871-.777l.828.644a3.327,3.327,0,0,1-2.988,1.531m-.169-7.1a1.807,1.807,0,0,0-1.377.6,2.9,2.9,0,0,0-.688,1.674h3.969V178a2.583,2.583,0,0,0-.556-1.6,1.7,1.7,0,0,0-1.348-.567" transform="translate(2469 -6738.862)" fill="#12263f"/>
    <path id="Path_183076" data-name="Path 183076" d="M1153.211,176.08a4.086,4.086,0,0,0-.666-.051,1.786,1.786,0,0,0-1.81,1.135v5.625h-1.355v-7.925h1.318l.022.915a2.113,2.113,0,0,1,1.89-1.061,1.393,1.393,0,0,1,.6.1Z" transform="translate(2469 -6738.862)" fill="#12263f"/>
    <path id="Path_183077" data-name="Path 183077" d="M1155.731,174.864l.036.879a2.926,2.926,0,0,1,2.352-1.025,2.265,2.265,0,0,1,2.263,1.274,3,3,0,0,1,1.029-.923,3.046,3.046,0,0,1,1.5-.351q2.607,0,2.651,2.76v5.311H1164.2v-5.23a1.816,1.816,0,0,0-.388-1.27,1.709,1.709,0,0,0-1.3-.422,1.791,1.791,0,0,0-1.252.451,1.823,1.823,0,0,0-.579,1.212v5.259h-1.362V177.6a1.512,1.512,0,0,0-1.692-1.728A1.813,1.813,0,0,0,1155.8,177v5.786h-1.355v-7.925Z" transform="translate(2469 -6738.862)" fill="#12263f"/>
    <path id="Path_183078" data-name="Path 183078" d="M1167.611,172.762a.808.808,0,0,1,.2-.557.76.76,0,0,1,.6-.227.771.771,0,0,1,.6.227.8.8,0,0,1,.2.557.771.771,0,0,1-.2.549.779.779,0,0,1-.6.22.768.768,0,0,1-.6-.22.776.776,0,0,1-.2-.549m1.465,10.027h-1.355v-7.925h1.355Z" transform="translate(2469 -6738.862)" fill="#12263f"/>
    <path id="Path_183079" data-name="Path 183079" d="M1173.082,172.945v1.919h1.48v1.048h-1.48v4.92a1.1,1.1,0,0,0,.2.716.836.836,0,0,0,.674.237,3.264,3.264,0,0,0,.645-.088v1.093a4,4,0,0,1-1.04.145,1.687,1.687,0,0,1-1.37-.549,2.359,2.359,0,0,1-.461-1.56v-4.914h-1.443v-1.048h1.443v-1.919Z" transform="translate(2469 -6738.862)" fill="#12263f"/>
    <path id="Path_183080" data-name="Path 183080" d="M1176.152,172.762a.808.808,0,0,1,.2-.557.76.76,0,0,1,.6-.227.77.77,0,0,1,.6.227.8.8,0,0,1,.2.557.8.8,0,1,1-1.6,0m1.465,10.027h-1.355v-7.925h1.355Z" transform="translate(2469 -6738.862)" fill="#12263f"/>
    <path id="Path_183081" data-name="Path 183081" d="M1183.615,176.08a4.077,4.077,0,0,0-.666-.051,1.784,1.784,0,0,0-1.809,1.135v5.625h-1.355v-7.925h1.318l.022.915a2.11,2.11,0,0,1,1.89-1.061,1.387,1.387,0,0,1,.6.1Z" transform="translate(2469 -6738.862)" fill="#12263f"/>
    <path id="Path_183082" data-name="Path 183082" d="M1189.46,182.789a2.819,2.819,0,0,1-.19-.835,3.022,3.022,0,0,1-2.256.982,2.8,2.8,0,0,1-1.923-.663,2.145,2.145,0,0,1-.75-1.681,2.242,2.242,0,0,1,.94-1.923,4.443,4.443,0,0,1,2.648-.684h1.318v-.623a1.521,1.521,0,0,0-.424-1.131,1.709,1.709,0,0,0-1.253-.422,1.975,1.975,0,0,0-1.215.367,1.076,1.076,0,0,0-.491.886H1184.5a1.871,1.871,0,0,1,.422-1.147,2.87,2.87,0,0,1,1.143-.875,3.833,3.833,0,0,1,1.586-.322,3.136,3.136,0,0,1,2.145.685,2.473,2.473,0,0,1,.806,1.886v3.647a4.451,4.451,0,0,0,.278,1.736v.117Zm-2.248-1.033a2.379,2.379,0,0,0,1.208-.329,1.994,1.994,0,0,0,.827-.856v-1.627h-1.061q-2.49,0-2.491,1.458a1.236,1.236,0,0,0,.425,1,1.634,1.634,0,0,0,1.092.358m1.252-10.2h1.641l-1.963,2.153-1.092,0Z" transform="translate(2469 -6738.862)" fill="#12263f"/>
    <path id="Path_183083" data-name="Path 183083" d="M1037.6,198.688a1,1,0,0,0-.414-.854,3.983,3.983,0,0,0-1.442-.523,6.8,6.8,0,0,1-1.634-.527,2.334,2.334,0,0,1-.894-.733,1.758,1.758,0,0,1-.289-1.011,2.055,2.055,0,0,1,.824-1.648,3.218,3.218,0,0,1,2.106-.674,3.311,3.311,0,0,1,2.186.7,2.208,2.208,0,0,1,.839,1.779h-1.363a1.221,1.221,0,0,0-.472-.959,1.764,1.764,0,0,0-1.19-.4,1.85,1.85,0,0,0-1.157.322,1.013,1.013,0,0,0-.417.843.822.822,0,0,0,.387.739,4.752,4.752,0,0,0,1.4.475,7.389,7.389,0,0,1,1.644.543,2.389,2.389,0,0,1,.934.758,1.858,1.858,0,0,1,.3,1.08,2.029,2.029,0,0,1-.849,1.7,3.565,3.565,0,0,1-2.2.641,3.985,3.985,0,0,1-1.685-.337,2.735,2.735,0,0,1-1.146-.941,2.269,2.269,0,0,1-.414-1.308h1.355a1.4,1.4,0,0,0,.546,1.081,2.116,2.116,0,0,0,1.344.4,2.19,2.19,0,0,0,1.234-.312.956.956,0,0,0,.465-.831" transform="translate(2469 -6738.862)" fill="#12263f"/>
    <path id="Path_183084" data-name="Path 183084" d="M1044.012,200.935a3.462,3.462,0,0,1-2.623-1.058,3.925,3.925,0,0,1-1.01-2.83v-.25a4.769,4.769,0,0,1,.45-2.106,3.518,3.518,0,0,1,1.26-1.45,3.174,3.174,0,0,1,1.754-.523,2.969,2.969,0,0,1,2.4,1.018,4.4,4.4,0,0,1,.857,2.914v.565h-5.368a2.819,2.819,0,0,0,.684,1.893,2.154,2.154,0,0,0,1.666.722,2.369,2.369,0,0,0,1.217-.293,3.069,3.069,0,0,0,.871-.777l.828.644a3.327,3.327,0,0,1-2.988,1.531m-.169-7.1a1.807,1.807,0,0,0-1.377.6,2.9,2.9,0,0,0-.688,1.674h3.969V196a2.583,2.583,0,0,0-.556-1.6,1.7,1.7,0,0,0-1.348-.567" transform="translate(2469 -6738.862)" fill="#12263f"/>
    <path id="Path_183085" data-name="Path 183085" d="M1048.348,196.761a4.658,4.658,0,0,1,.857-2.949,2.955,2.955,0,0,1,4.533-.069l.067-.879h1.237V200.6a3.224,3.224,0,0,1-.912,2.424,3.368,3.368,0,0,1-2.45.886,4.078,4.078,0,0,1-1.677-.366,2.874,2.874,0,0,1-1.253-1l.7-.813a2.65,2.65,0,0,0,2.132,1.077,2.078,2.078,0,0,0,1.542-.557,2.128,2.128,0,0,0,.553-1.566V200a2.785,2.785,0,0,1-2.219.937,2.7,2.7,0,0,1-2.253-1.121,4.9,4.9,0,0,1-.86-3.053m1.362.153a3.544,3.544,0,0,0,.55,2.106,1.783,1.783,0,0,0,1.537.765,1.987,1.987,0,0,0,1.883-1.164V195a2.01,2.01,0,0,0-1.867-1.136,1.8,1.8,0,0,0-1.547.77,3.876,3.876,0,0,0-.556,2.277" transform="translate(2469 -6738.862)" fill="#12263f"/>
    <path id="Path_183086" data-name="Path 183086" d="M1061.978,200.006a2.879,2.879,0,0,1-2.322.93,2.46,2.46,0,0,1-1.93-.737,3.188,3.188,0,0,1-.67-2.178v-5.157h1.356v5.121q0,1.8,1.464,1.8a2.027,2.027,0,0,0,2.065-1.156v-5.765h1.355v7.925h-1.289Z" transform="translate(2469 -6738.862)" fill="#12263f"/>
    <path id="Path_183087" data-name="Path 183087" d="M1065.363,190.762a.808.808,0,0,1,.2-.557.76.76,0,0,1,.6-.227.771.771,0,0,1,.6.227.8.8,0,0,1,.2.557.771.771,0,0,1-.2.549.779.779,0,0,1-.6.22.768.768,0,0,1-.6-.22.776.776,0,0,1-.2-.549m1.465,10.027h-1.355v-7.925h1.355Z" transform="translate(2469 -6738.862)" fill="#12263f"/>
    <path id="Path_183088" data-name="Path 183088" d="M1072.826,194.08a4.078,4.078,0,0,0-.666-.051,1.785,1.785,0,0,0-1.809,1.135v5.625H1069v-7.925h1.318l.022.915a2.11,2.11,0,0,1,1.89-1.061,1.388,1.388,0,0,1,.6.1Z" transform="translate(2469 -6738.862)" fill="#12263f"/>
    <path id="Path_183089" data-name="Path 183089" d="M1080.964,199.83a1.952,1.952,0,0,0,1.266-.439,1.555,1.555,0,0,0,.6-1.1h1.281a2.445,2.445,0,0,1-.468,1.3,3.088,3.088,0,0,1-1.154.981,3.329,3.329,0,0,1-1.526.366,3.265,3.265,0,0,1-2.575-1.08,4.3,4.3,0,0,1-.956-2.955v-.227a4.755,4.755,0,0,1,.425-2.058,3.229,3.229,0,0,1,1.219-1.4,3.465,3.465,0,0,1,1.879-.5,3.178,3.178,0,0,1,2.215.8,2.852,2.852,0,0,1,.941,2.073h-1.281a1.87,1.87,0,0,0-.583-1.264,1.811,1.811,0,0,0-1.292-.494,1.9,1.9,0,0,0-1.6.743,3.492,3.492,0,0,0-.568,2.151v.255a3.423,3.423,0,0,0,.564,2.11,1.906,1.906,0,0,0,1.612.74" transform="translate(2469 -6738.862)" fill="#12263f"/>
    <path id="Path_183090" data-name="Path 183090" d="M1089.466,194.08a4.076,4.076,0,0,0-.666-.051,1.785,1.785,0,0,0-1.809,1.135v5.625h-1.355v-7.925h1.318l.022.915a2.111,2.111,0,0,1,1.89-1.061,1.387,1.387,0,0,1,.6.1Z" transform="translate(2469 -6738.862)" fill="#12263f"/>
    <path id="Path_183091" data-name="Path 183091" d="M1093.863,200.935a3.462,3.462,0,0,1-2.623-1.058,3.925,3.925,0,0,1-1.01-2.83v-.25a4.768,4.768,0,0,1,.45-2.106,3.518,3.518,0,0,1,1.26-1.45,3.174,3.174,0,0,1,1.754-.523,2.969,2.969,0,0,1,2.4,1.018,4.4,4.4,0,0,1,.857,2.914v.565h-5.368a2.819,2.819,0,0,0,.684,1.893,2.153,2.153,0,0,0,1.666.722,2.369,2.369,0,0,0,1.217-.293,3.066,3.066,0,0,0,.871-.777l.828.644a3.327,3.327,0,0,1-2.988,1.531m-.169-7.1a1.807,1.807,0,0,0-1.377.6,2.9,2.9,0,0,0-.688,1.674h3.969V196a2.583,2.583,0,0,0-.556-1.6,1.7,1.7,0,0,0-1.348-.567" transform="translate(2469 -6738.862)" fill="#12263f"/>
    <path id="Path_183092" data-name="Path 183092" d="M1101.7,199.83a1.953,1.953,0,0,0,1.267-.439,1.555,1.555,0,0,0,.6-1.1h1.281a2.453,2.453,0,0,1-.468,1.3,3.087,3.087,0,0,1-1.154.981,3.33,3.33,0,0,1-1.527.366,3.264,3.264,0,0,1-2.574-1.08,4.3,4.3,0,0,1-.956-2.955v-.227a4.756,4.756,0,0,1,.425-2.058,3.231,3.231,0,0,1,1.219-1.4,3.465,3.465,0,0,1,1.879-.5,3.178,3.178,0,0,1,2.215.8,2.851,2.851,0,0,1,.941,2.073h-1.281a1.87,1.87,0,0,0-.583-1.264,1.811,1.811,0,0,0-1.292-.494,1.9,1.9,0,0,0-1.6.743,3.491,3.491,0,0,0-.568,2.151v.255a3.424,3.424,0,0,0,.564,2.11,1.906,1.906,0,0,0,1.611.74" transform="translate(2469 -6738.862)" fill="#12263f"/>
    <path id="Path_183093" data-name="Path 183093" d="M1106.38,190.762a.809.809,0,0,1,.2-.557.758.758,0,0,1,.6-.227.774.774,0,0,1,.6.227.8.8,0,0,1,.2.557.771.771,0,0,1-.2.549.781.781,0,0,1-.6.22.765.765,0,0,1-.6-.22.777.777,0,0,1-.2-.549m1.465,10.027h-1.355v-7.925h1.355Z" transform="translate(2469 -6738.862)" fill="#12263f"/>
    <path id="Path_183094" data-name="Path 183094" d="M1113.3,200.935a3.462,3.462,0,0,1-2.623-1.058,3.925,3.925,0,0,1-1.01-2.83v-.25a4.768,4.768,0,0,1,.45-2.106,3.517,3.517,0,0,1,1.26-1.45,3.174,3.174,0,0,1,1.754-.523,2.969,2.969,0,0,1,2.4,1.018,4.4,4.4,0,0,1,.857,2.914v.565h-5.368a2.818,2.818,0,0,0,.684,1.893,2.153,2.153,0,0,0,1.666.722,2.368,2.368,0,0,0,1.217-.293,3.068,3.068,0,0,0,.871-.777l.828.644a3.327,3.327,0,0,1-2.988,1.531m-.169-7.1a1.807,1.807,0,0,0-1.377.6,2.9,2.9,0,0,0-.688,1.674h3.969V196a2.582,2.582,0,0,0-.556-1.6,1.7,1.7,0,0,0-1.348-.567" transform="translate(2469 -6738.862)" fill="#12263f"/>
    <path id="Path_183095" data-name="Path 183095" d="M1119.242,192.864l.045,1a2.883,2.883,0,0,1,2.373-1.142q2.511,0,2.533,2.834v5.237h-1.354v-5.244a1.829,1.829,0,0,0-.392-1.268,1.577,1.577,0,0,0-1.2-.41,1.959,1.959,0,0,0-1.158.351,2.388,2.388,0,0,0-.776.924v5.647h-1.355v-7.925Z" transform="translate(2469 -6738.862)" fill="#12263f"/>
    <path id="Path_183096" data-name="Path 183096" d="M1125.906,196.761a4.64,4.64,0,0,1,.865-2.934,2.94,2.94,0,0,1,4.467-.157v-4.131h1.355v11.25h-1.245l-.066-.85a2.759,2.759,0,0,1-2.263,1,2.706,2.706,0,0,1-2.245-1.127,4.7,4.7,0,0,1-.868-2.945Zm1.355.153a3.51,3.51,0,0,0,.557,2.109,1.8,1.8,0,0,0,1.538.762,1.976,1.976,0,0,0,1.882-1.156v-3.641a1.993,1.993,0,0,0-1.868-1.121,1.807,1.807,0,0,0-1.552.77,3.868,3.868,0,0,0-.557,2.277" transform="translate(2469 -6738.862)" fill="#12263f"/>
    <path id="Path_183097" data-name="Path 183097" d="M1134.338,196.754a4.689,4.689,0,0,1,.458-2.1,3.421,3.421,0,0,1,1.274-1.435,3.479,3.479,0,0,1,1.864-.505,3.344,3.344,0,0,1,2.619,1.12,4.311,4.311,0,0,1,1,2.981v.1a4.715,4.715,0,0,1-.444,2.077,3.375,3.375,0,0,1-1.266,1.432,3.511,3.511,0,0,1-1.894.512,3.332,3.332,0,0,1-2.611-1.121,4.287,4.287,0,0,1-1-2.965Zm1.363.16a3.389,3.389,0,0,0,.611,2.117,2.072,2.072,0,0,0,3.278-.011,3.707,3.707,0,0,0,.607-2.266,3.387,3.387,0,0,0-.618-2.113,1.968,1.968,0,0,0-1.645-.81,1.947,1.947,0,0,0-1.618.8,3.684,3.684,0,0,0-.615,2.285" transform="translate(2469 -6738.862)" fill="#12263f"/>
    <path id="Path_183098" data-name="Path 183098" d="M1146.635,196.761a4.64,4.64,0,0,1,.865-2.934,2.94,2.94,0,0,1,4.467-.157v-4.131h1.355v11.25h-1.245l-.066-.85a2.759,2.759,0,0,1-2.263,1,2.706,2.706,0,0,1-2.245-1.127,4.7,4.7,0,0,1-.868-2.945Zm1.355.153a3.51,3.51,0,0,0,.557,2.109,1.8,1.8,0,0,0,1.538.762,1.976,1.976,0,0,0,1.882-1.156v-3.641a1.993,1.993,0,0,0-1.868-1.121,1.807,1.807,0,0,0-1.552.77,3.868,3.868,0,0,0-.557,2.277" transform="translate(2469 -6738.862)" fill="#12263f"/>
    <path id="Path_183099" data-name="Path 183099" d="M1158.713,200.935a3.466,3.466,0,0,1-2.624-1.058,3.929,3.929,0,0,1-1.01-2.83v-.25a4.754,4.754,0,0,1,.451-2.106,3.511,3.511,0,0,1,1.26-1.45,3.171,3.171,0,0,1,1.754-.523,2.971,2.971,0,0,1,2.4,1.018,4.4,4.4,0,0,1,.856,2.914v.565h-5.367a2.808,2.808,0,0,0,.684,1.893,2.152,2.152,0,0,0,1.666.722,2.362,2.362,0,0,0,1.216-.293,3.058,3.058,0,0,0,.872-.777l.828.644a3.327,3.327,0,0,1-2.988,1.531m-.169-7.1a1.8,1.8,0,0,0-1.377.6,2.9,2.9,0,0,0-.688,1.674h3.969V196a2.576,2.576,0,0,0-.557-1.6,1.7,1.7,0,0,0-1.347-.567" transform="translate(2469 -6738.862)" fill="#12263f"/>
    <path id="Path_183100" data-name="Path 183100" d="M1034.263,210.864l.036.879a2.926,2.926,0,0,1,2.352-1.025,2.265,2.265,0,0,1,2.263,1.274,3,3,0,0,1,1.029-.923,3.046,3.046,0,0,1,1.5-.351q2.607,0,2.651,2.76v5.311h-1.355v-5.23a1.816,1.816,0,0,0-.388-1.27,1.709,1.709,0,0,0-1.3-.422,1.791,1.791,0,0,0-1.252.451,1.823,1.823,0,0,0-.579,1.212v5.259h-1.362V213.6a1.512,1.512,0,0,0-1.692-1.728,1.813,1.813,0,0,0-1.824,1.136v5.786h-1.355v-7.925Z" transform="translate(2469 -6738.862)" fill="#12263f"/>
    <path id="Path_183101" data-name="Path 183101" d="M1051.029,218.789a2.818,2.818,0,0,1-.19-.835,3.022,3.022,0,0,1-2.256.982,2.8,2.8,0,0,1-1.923-.663,2.145,2.145,0,0,1-.75-1.681,2.242,2.242,0,0,1,.94-1.923,4.443,4.443,0,0,1,2.648-.684h1.318v-.624a1.519,1.519,0,0,0-.424-1.13,1.7,1.7,0,0,0-1.253-.422,1.975,1.975,0,0,0-1.215.367,1.076,1.076,0,0,0-.491.886h-1.363a1.872,1.872,0,0,1,.422-1.147,2.87,2.87,0,0,1,1.143-.875,3.832,3.832,0,0,1,1.585-.322,3.136,3.136,0,0,1,2.146.684,2.475,2.475,0,0,1,.806,1.887v3.647a4.454,4.454,0,0,0,.278,1.736v.117Zm-2.248-1.033a2.379,2.379,0,0,0,1.208-.329,1.991,1.991,0,0,0,.827-.857v-1.627h-1.061q-2.492,0-2.491,1.459a1.236,1.236,0,0,0,.425,1,1.634,1.634,0,0,0,1.092.358" transform="translate(2469 -6738.862)" fill="#12263f"/>
    <path id="Path_183102" data-name="Path 183102" d="M1055.577,210.864l.045,1a2.883,2.883,0,0,1,2.373-1.142q2.511,0,2.533,2.834v5.237h-1.354v-5.244a1.829,1.829,0,0,0-.392-1.268,1.577,1.577,0,0,0-1.2-.41,1.959,1.959,0,0,0-1.158.351,2.389,2.389,0,0,0-.776.924v5.647H1054.3v-7.925Z" transform="translate(2469 -6738.862)" fill="#12263f"/>
    <path id="Path_183103" data-name="Path 183103" d="M1065.861,218.935a3.462,3.462,0,0,1-2.623-1.058,3.925,3.925,0,0,1-1.01-2.83v-.25a4.769,4.769,0,0,1,.45-2.106,3.518,3.518,0,0,1,1.26-1.45,3.174,3.174,0,0,1,1.754-.523,2.969,2.969,0,0,1,2.4,1.018,4.4,4.4,0,0,1,.857,2.914v.565h-5.368a2.819,2.819,0,0,0,.684,1.893,2.154,2.154,0,0,0,1.666.722,2.369,2.369,0,0,0,1.217-.293,3.069,3.069,0,0,0,.871-.777l.828.644a3.327,3.327,0,0,1-2.988,1.531m-.169-7.1a1.807,1.807,0,0,0-1.377.6,2.9,2.9,0,0,0-.688,1.674h3.969V214a2.583,2.583,0,0,0-.556-1.6,1.7,1.7,0,0,0-1.348-.567" transform="translate(2469 -6738.862)" fill="#12263f"/>
    <path id="Path_183104" data-name="Path 183104" d="M1074.349,212.08a4.077,4.077,0,0,0-.666-.051,1.784,1.784,0,0,0-1.809,1.135v5.625h-1.355v-7.925h1.318l.022.915a2.11,2.11,0,0,1,1.89-1.061,1.388,1.388,0,0,1,.6.1Z" transform="translate(2469 -6738.862)" fill="#12263f"/>
    <path id="Path_183105" data-name="Path 183105" d="M1080.195,218.789a2.819,2.819,0,0,1-.19-.835,3.022,3.022,0,0,1-2.256.982,2.8,2.8,0,0,1-1.923-.663,2.145,2.145,0,0,1-.75-1.681,2.242,2.242,0,0,1,.94-1.923,4.443,4.443,0,0,1,2.648-.684h1.318v-.624a1.52,1.52,0,0,0-.424-1.13,1.7,1.7,0,0,0-1.253-.422,1.975,1.975,0,0,0-1.215.367,1.076,1.076,0,0,0-.491.886h-1.363a1.871,1.871,0,0,1,.422-1.147,2.87,2.87,0,0,1,1.143-.875,3.832,3.832,0,0,1,1.585-.322,3.136,3.136,0,0,1,2.146.684,2.475,2.475,0,0,1,.806,1.887v3.647a4.454,4.454,0,0,0,.278,1.736v.117Zm-2.248-1.033a2.379,2.379,0,0,0,1.208-.329,1.991,1.991,0,0,0,.827-.857v-1.627h-1.061q-2.492,0-2.491,1.459a1.236,1.236,0,0,0,.425,1,1.634,1.634,0,0,0,1.092.358" transform="translate(2469 -6738.862)" fill="#12263f"/>
    <path id="Path_183106" data-name="Path 183106" d="M1091.79,216.688a1,1,0,0,0-.414-.854,3.983,3.983,0,0,0-1.442-.523,6.8,6.8,0,0,1-1.634-.527,2.334,2.334,0,0,1-.894-.733,1.758,1.758,0,0,1-.289-1.011,2.056,2.056,0,0,1,.824-1.648,3.218,3.218,0,0,1,2.106-.674,3.311,3.311,0,0,1,2.186.7,2.208,2.208,0,0,1,.839,1.779h-1.363a1.221,1.221,0,0,0-.472-.959,1.764,1.764,0,0,0-1.19-.4,1.85,1.85,0,0,0-1.157.322,1.013,1.013,0,0,0-.417.843.822.822,0,0,0,.387.739,4.752,4.752,0,0,0,1.4.475,7.388,7.388,0,0,1,1.644.543,2.388,2.388,0,0,1,.934.758,1.858,1.858,0,0,1,.3,1.08,2.029,2.029,0,0,1-.849,1.7,3.566,3.566,0,0,1-2.2.641,3.985,3.985,0,0,1-1.685-.337,2.735,2.735,0,0,1-1.146-.941,2.27,2.27,0,0,1-.414-1.308h1.355a1.4,1.4,0,0,0,.546,1.081,2.117,2.117,0,0,0,1.344.4,2.19,2.19,0,0,0,1.234-.312.956.956,0,0,0,.465-.831" transform="translate(2469 -6738.862)" fill="#12263f"/>
    <path id="Path_183107" data-name="Path 183107" d="M1094.551,214.754a4.689,4.689,0,0,1,.458-2.1,3.421,3.421,0,0,1,1.274-1.435,3.479,3.479,0,0,1,1.864-.505,3.344,3.344,0,0,1,2.619,1.12,4.311,4.311,0,0,1,1,2.981v.1a4.715,4.715,0,0,1-.444,2.077,3.375,3.375,0,0,1-1.266,1.432,3.511,3.511,0,0,1-1.894.512,3.332,3.332,0,0,1-2.611-1.121,4.287,4.287,0,0,1-1-2.965Zm1.363.16a3.388,3.388,0,0,0,.611,2.117,2.072,2.072,0,0,0,3.278-.011,3.707,3.707,0,0,0,.607-2.266,3.387,3.387,0,0,0-.618-2.113,1.968,1.968,0,0,0-1.645-.81,1.947,1.947,0,0,0-1.618.8,3.684,3.684,0,0,0-.615,2.285" transform="translate(2469 -6738.862)" fill="#12263f"/>
    <path id="Path_183108" data-name="Path 183108" d="M1108.079,216.688a1,1,0,0,0-.414-.854,3.984,3.984,0,0,0-1.442-.523,6.8,6.8,0,0,1-1.634-.527,2.336,2.336,0,0,1-.894-.733,1.759,1.759,0,0,1-.289-1.011,2.056,2.056,0,0,1,.824-1.648,3.219,3.219,0,0,1,2.106-.674,3.311,3.311,0,0,1,2.186.7,2.207,2.207,0,0,1,.839,1.779H1108a1.221,1.221,0,0,0-.472-.959,1.763,1.763,0,0,0-1.19-.4,1.851,1.851,0,0,0-1.157.322,1.013,1.013,0,0,0-.417.843.821.821,0,0,0,.387.739,4.749,4.749,0,0,0,1.4.475,7.39,7.39,0,0,1,1.644.543,2.39,2.39,0,0,1,.934.758,1.858,1.858,0,0,1,.3,1.08,2.028,2.028,0,0,1-.849,1.7,3.565,3.565,0,0,1-2.2.641,3.985,3.985,0,0,1-1.685-.337,2.736,2.736,0,0,1-1.146-.941,2.269,2.269,0,0,1-.414-1.308h1.355a1.4,1.4,0,0,0,.546,1.081,2.116,2.116,0,0,0,1.344.4,2.19,2.19,0,0,0,1.234-.312.956.956,0,0,0,.465-.831" transform="translate(2469 -6738.862)" fill="#12263f"/>
    <path id="Path_183109" data-name="Path 183109" d="M1113.037,208.945v1.919h1.48v1.048h-1.48v4.92a1.1,1.1,0,0,0,.2.716.836.836,0,0,0,.674.237,3.263,3.263,0,0,0,.645-.088v1.093a4,4,0,0,1-1.04.145,1.687,1.687,0,0,1-1.37-.549,2.359,2.359,0,0,1-.461-1.56v-4.914h-1.443v-1.048h1.443v-1.919Z" transform="translate(2469 -6738.862)" fill="#12263f"/>
    <path id="Path_183110" data-name="Path 183110" d="M1119.388,218.935a3.462,3.462,0,0,1-2.623-1.058,3.925,3.925,0,0,1-1.01-2.83v-.25a4.769,4.769,0,0,1,.45-2.106,3.519,3.519,0,0,1,1.26-1.45,3.174,3.174,0,0,1,1.754-.523,2.969,2.969,0,0,1,2.4,1.018,4.4,4.4,0,0,1,.857,2.914v.565h-5.368a2.819,2.819,0,0,0,.684,1.893,2.154,2.154,0,0,0,1.666.722,2.369,2.369,0,0,0,1.217-.293,3.067,3.067,0,0,0,.871-.777l.828.644a3.327,3.327,0,0,1-2.988,1.531m-.169-7.1a1.807,1.807,0,0,0-1.377.6,2.9,2.9,0,0,0-.688,1.674h3.969V214a2.583,2.583,0,0,0-.556-1.6,1.7,1.7,0,0,0-1.348-.567" transform="translate(2469 -6738.862)" fill="#12263f"/>
    <path id="Path_183111" data-name="Path 183111" d="M1125.328,210.864l.045,1a2.883,2.883,0,0,1,2.373-1.142q2.511,0,2.533,2.834v5.237h-1.354v-5.244a1.829,1.829,0,0,0-.392-1.268,1.577,1.577,0,0,0-1.2-.41,1.959,1.959,0,0,0-1.158.351,2.389,2.389,0,0,0-.776.924v5.647h-1.355v-7.925Z" transform="translate(2469 -6738.862)" fill="#12263f"/>
    <path id="Path_183112" data-name="Path 183112" d="M1132.331,208.762a.808.808,0,0,1,.2-.557.76.76,0,0,1,.6-.227.773.773,0,0,1,.6.227.8.8,0,0,1,.2.557.771.771,0,0,1-.2.549.78.78,0,0,1-.6.22.768.768,0,0,1-.6-.22.776.776,0,0,1-.2-.549m1.465,10.027h-1.355v-7.925h1.355Z" transform="translate(2469 -6738.862)" fill="#12263f"/>
    <path id="Path_183113" data-name="Path 183113" d="M1142.671,214.914a4.713,4.713,0,0,1-.834,2.919,2.667,2.667,0,0,1-2.242,1.1,2.761,2.761,0,0,1-2.322-1.063l-.065.916h-1.246v-11.25h1.356v4.2a2.745,2.745,0,0,1,2.263-1.019,2.683,2.683,0,0,1,2.266,1.091,4.851,4.851,0,0,1,.824,2.988Zm-1.355-.153a3.666,3.666,0,0,0-.534-2.139,1.771,1.771,0,0,0-1.538-.755,1.988,1.988,0,0,0-1.926,1.247v3.427a2.042,2.042,0,0,0,1.94,1.244,1.763,1.763,0,0,0,1.517-.753,3.906,3.906,0,0,0,.541-2.271" transform="translate(2469 -6738.862)" fill="#12263f"/>
    <rect id="Rectangle_38238" data-name="Rectangle 38238" width="1.355" height="11.25" transform="translate(3613.496 -6531.323)" fill="#12263f"/>
    <path id="Path_183114" data-name="Path 183114" d="M1151.308,218.935a3.462,3.462,0,0,1-2.623-1.058,3.925,3.925,0,0,1-1.01-2.83v-.25a4.768,4.768,0,0,1,.45-2.106,3.518,3.518,0,0,1,1.26-1.45,3.174,3.174,0,0,1,1.754-.523,2.969,2.969,0,0,1,2.4,1.018,4.4,4.4,0,0,1,.857,2.914v.565h-5.368a2.818,2.818,0,0,0,.684,1.893,2.154,2.154,0,0,0,1.666.722,2.369,2.369,0,0,0,1.217-.293,3.069,3.069,0,0,0,.871-.777l.828.644a3.327,3.327,0,0,1-2.988,1.531m-.169-7.1a1.807,1.807,0,0,0-1.377.6,2.9,2.9,0,0,0-.688,1.674h3.969V214a2.583,2.583,0,0,0-.556-1.6,1.7,1.7,0,0,0-1.348-.567" transform="translate(2469 -6738.862)" fill="#12263f"/>
    <path id="Path_183115" data-name="Path 183115" d="M1162.968,218.935a3.462,3.462,0,0,1-2.623-1.058,3.925,3.925,0,0,1-1.01-2.83v-.25a4.768,4.768,0,0,1,.45-2.106,3.517,3.517,0,0,1,1.26-1.45,3.173,3.173,0,0,1,1.754-.523,2.97,2.97,0,0,1,2.4,1.018,4.4,4.4,0,0,1,.857,2.914v.565h-5.368a2.819,2.819,0,0,0,.684,1.893,2.153,2.153,0,0,0,1.666.722,2.369,2.369,0,0,0,1.217-.293,3.068,3.068,0,0,0,.871-.777l.828.644a3.327,3.327,0,0,1-2.988,1.531m-.169-7.1a1.807,1.807,0,0,0-1.377.6,2.9,2.9,0,0,0-.688,1.674h3.969V214a2.583,2.583,0,0,0-.556-1.6,1.7,1.7,0,0,0-1.348-.567" transform="translate(2469 -6738.862)" fill="#12263f"/>
    <path id="Path_183116" data-name="Path 183116" d="M1168.908,210.864l.045,1a2.883,2.883,0,0,1,2.373-1.142q2.511,0,2.533,2.834v5.237h-1.354v-5.244a1.829,1.829,0,0,0-.392-1.268,1.577,1.577,0,0,0-1.2-.41,1.958,1.958,0,0,0-1.158.351,2.388,2.388,0,0,0-.776.924v5.647h-1.355v-7.925Z" transform="translate(2469 -6738.862)" fill="#12263f"/>
    <path id="Path_183117" data-name="Path 183117" d="M1182.906,218.935a3.462,3.462,0,0,1-2.623-1.058,3.925,3.925,0,0,1-1.01-2.83v-.25a4.768,4.768,0,0,1,.45-2.106,3.517,3.517,0,0,1,1.26-1.45,3.174,3.174,0,0,1,1.754-.523,2.969,2.969,0,0,1,2.4,1.018,4.4,4.4,0,0,1,.857,2.914v.565h-5.368a2.818,2.818,0,0,0,.684,1.893,2.153,2.153,0,0,0,1.666.722,2.368,2.368,0,0,0,1.217-.293,3.068,3.068,0,0,0,.871-.777l.828.644a3.327,3.327,0,0,1-2.988,1.531m-.169-7.1a1.807,1.807,0,0,0-1.377.6,2.9,2.9,0,0,0-.688,1.674h3.969V214a2.582,2.582,0,0,0-.556-1.6,1.7,1.7,0,0,0-1.348-.567" transform="translate(2469 -6738.862)" fill="#12263f"/>
    <rect id="Rectangle_38239" data-name="Rectangle 38239" width="1.355" height="11.25" transform="translate(3656.682 -6531.323)" fill="#12263f"/>
    <path id="Path_183118" data-name="Path 183118" d="M1034.827,226.945v1.919h1.48v1.048h-1.48v4.92a1.1,1.1,0,0,0,.2.716.836.836,0,0,0,.674.237,3.264,3.264,0,0,0,.645-.088v1.093a4,4,0,0,1-1.04.145,1.687,1.687,0,0,1-1.37-.549,2.359,2.359,0,0,1-.461-1.56v-4.914h-1.443v-1.048h1.443v-1.919Z" transform="translate(2469 -6738.862)" fill="#12263f"/>
    <path id="Path_183119" data-name="Path 183119" d="M1037.9,226.762a.813.813,0,0,1,.2-.557.76.76,0,0,1,.6-.227.774.774,0,0,1,.6.227.807.807,0,0,1,.2.557.733.733,0,0,1-.806.769.767.767,0,0,1-.6-.22.781.781,0,0,1-.2-.549m1.465,10.027h-1.355v-7.925h1.355Z" transform="translate(2469 -6738.862)" fill="#12263f"/>
    <path id="Path_183120" data-name="Path 183120" d="M1044.818,236.935a3.462,3.462,0,0,1-2.623-1.058,3.925,3.925,0,0,1-1.01-2.83v-.25a4.768,4.768,0,0,1,.45-2.106,3.518,3.518,0,0,1,1.26-1.45,3.174,3.174,0,0,1,1.754-.523,2.969,2.969,0,0,1,2.4,1.018,4.4,4.4,0,0,1,.857,2.914v.565h-5.368a2.818,2.818,0,0,0,.684,1.893,2.153,2.153,0,0,0,1.666.722,2.369,2.369,0,0,0,1.217-.293,3.069,3.069,0,0,0,.871-.777l.828.644a3.327,3.327,0,0,1-2.988,1.531m-.169-7.1a1.807,1.807,0,0,0-1.377.6,2.9,2.9,0,0,0-.688,1.674h3.969V232a2.582,2.582,0,0,0-.556-1.6,1.7,1.7,0,0,0-1.348-.567" transform="translate(2469 -6738.862)" fill="#12263f"/>
    <path id="Path_183121" data-name="Path 183121" d="M1050.751,228.864l.035.879a2.928,2.928,0,0,1,2.353-1.025,2.263,2.263,0,0,1,2.262,1.274,2.95,2.95,0,0,1,2.528-1.274q2.607,0,2.651,2.76v5.311h-1.355v-5.23a1.816,1.816,0,0,0-.388-1.27,1.709,1.709,0,0,0-1.3-.422,1.791,1.791,0,0,0-1.252.451,1.819,1.819,0,0,0-.579,1.212v5.259h-1.362V231.6a1.512,1.512,0,0,0-1.692-1.728,1.813,1.813,0,0,0-1.824,1.136v5.786h-1.355v-7.925Z" transform="translate(2469 -6738.862)" fill="#12263f"/>
    <path id="Path_183122" data-name="Path 183122" d="M1069.316,232.914a4.757,4.757,0,0,1-.826,2.916,2.654,2.654,0,0,1-2.243,1.106,2.9,2.9,0,0,1-2.268-.916v3.816h-1.357V228.865h1.238l.067.878a2.792,2.792,0,0,1,2.3-1.025,2.7,2.7,0,0,1,2.259,1.077,4.8,4.8,0,0,1,.831,2.995Zm-1.353-.153a3.5,3.5,0,0,0-.572-2.116,1.843,1.843,0,0,0-1.568-.778,1.99,1.99,0,0,0-1.844,1.092v3.787a1.991,1.991,0,0,0,1.859,1.084,1.832,1.832,0,0,0,1.549-.773,3.815,3.815,0,0,0,.576-2.3" transform="translate(2469 -6738.862)" fill="#12263f"/>
    <path id="Path_183123" data-name="Path 183123" d="M1070.68,232.754a4.69,4.69,0,0,1,.458-2.1,3.427,3.427,0,0,1,1.273-1.435,3.485,3.485,0,0,1,1.865-.505,3.344,3.344,0,0,1,2.619,1.12,4.311,4.311,0,0,1,1,2.981v.1a4.717,4.717,0,0,1-.444,2.077,3.375,3.375,0,0,1-1.266,1.432,3.511,3.511,0,0,1-1.894.512,3.332,3.332,0,0,1-2.611-1.121,4.287,4.287,0,0,1-1-2.965Zm1.363.16a3.382,3.382,0,0,0,.611,2.117,2.072,2.072,0,0,0,3.278-.011,3.707,3.707,0,0,0,.607-2.266,3.387,3.387,0,0,0-.618-2.113,1.968,1.968,0,0,0-1.645-.81,1.947,1.947,0,0,0-1.618.8,3.685,3.685,0,0,0-.615,2.285" transform="translate(2469 -6738.862)" fill="#12263f"/>
    <path id="Path_183124" data-name="Path 183124" d="M1079.623,236.078a.847.847,0,0,1,.209-.586.8.8,0,0,1,.626-.234.827.827,0,0,1,.634.234.838.838,0,0,1,.216.586.788.788,0,0,1-.216.564.835.835,0,0,1-.634.227.807.807,0,0,1-.626-.227.8.8,0,0,1-.209-.564" transform="translate(2469 -6738.862)" fill="#12263f"/>
  </g>
</svg>
