<svg xmlns="http://www.w3.org/2000/svg" xmlns:xlink="http://www.w3.org/1999/xlink" width="295" height="235" viewBox="0 0 295 235">
  <defs>
    <linearGradient id="linear-gradient" y1="0.5" x2="1" y2="0.5" gradientUnits="objectBoundingBox">
      <stop offset="0" stop-color="#444b8c"/>
      <stop offset="0.996" stop-color="#26264f"/>
    </linearGradient>
    <linearGradient id="linear-gradient-2" x1="0.208" y1="1.012" x2="1.21" y2="-0.878" gradientUnits="objectBoundingBox">
      <stop offset="0.004" stop-color="#85cbe3"/>
      <stop offset="1" stop-color="#62d8f6"/>
    </linearGradient>
    <linearGradient id="linear-gradient-4" y1="0.5" x2="1" y2="0.5" gradientUnits="objectBoundingBox">
      <stop offset="0" stop-color="#25c1ff"/>
      <stop offset="1" stop-color="#7ef2fb"/>
    </linearGradient>
    <linearGradient id="linear-gradient-9" x1="0.468" y1="2.148" x2="0.492" y2="0.807" gradientUnits="objectBoundingBox">
      <stop offset="0" stop-color="#6bd3dd"/>
      <stop offset="0.996" stop-color="#378aa8"/>
    </linearGradient>
    <linearGradient id="linear-gradient-10" x1="0.468" y1="2.148" x2="0.492" y2="0.807" gradientUnits="objectBoundingBox">
      <stop offset="0" stop-color="#82d3fd"/>
      <stop offset="0.996" stop-color="#6ed8f4"/>
    </linearGradient>
    <linearGradient id="linear-gradient-11" x1="0" y1="0.5" x2="1" y2="0.5" xlink:href="#linear-gradient-10"/>
    <linearGradient id="linear-gradient-13" x1="0.513" y1="-0.617" x2="0.434" y2="5.692" gradientUnits="objectBoundingBox">
      <stop offset="0.004" stop-color="#9ad7f7"/>
      <stop offset="1" stop-color="#74c3fc"/>
    </linearGradient>
    <linearGradient id="linear-gradient-14" x1="0.623" y1="-0.475" x2="-0.07" y2="5.034" gradientUnits="objectBoundingBox">
      <stop offset="0" stop-color="#3a779d"/>
      <stop offset="1" stop-color="#51bce4"/>
    </linearGradient>
    <linearGradient id="linear-gradient-15" x1="0.625" y1="-0.475" x2="-0.077" y2="5.033" xlink:href="#linear-gradient-14"/>
    <linearGradient id="linear-gradient-16" x1="0.631" y1="-0.475" x2="-0.112" y2="5.031" xlink:href="#linear-gradient-14"/>
    <linearGradient id="linear-gradient-17" x1="0.643" y1="-0.475" x2="-0.159" y2="5.03" xlink:href="#linear-gradient-14"/>
    <linearGradient id="linear-gradient-18" x1="1940.318" y1="-5429.159" x2="1940.076" y2="-5414.768" xlink:href="#linear-gradient-14"/>
    <linearGradient id="linear-gradient-19" x1="1938.779" y1="-5488.376" x2="1938.537" y2="-5473.813" xlink:href="#linear-gradient-14"/>
    <linearGradient id="linear-gradient-20" x1="1792.766" y1="-5369.563" x2="1792.525" y2="-5354.165" xlink:href="#linear-gradient-14"/>
    <linearGradient id="linear-gradient-21" x1="4.954" y1="-4.205" x2="-3.253" y2="4.456" gradientUnits="objectBoundingBox">
      <stop offset="0" stop-color="#6bd3dd"/>
      <stop offset="0.996" stop-color="#6cbed0"/>
    </linearGradient>
    <linearGradient id="linear-gradient-22" x1="3.989" y1="-3.128" x2="-4.243" y2="5.421" xlink:href="#linear-gradient-21"/>
    <linearGradient id="linear-gradient-23" x1="3.018" y1="-2.079" x2="-5.238" y2="6.364" xlink:href="#linear-gradient-21"/>
    <linearGradient id="linear-gradient-24" x1="2.041" y1="-1.056" x2="-6.24" y2="7.281" xlink:href="#linear-gradient-21"/>
    <linearGradient id="linear-gradient-25" x1="5.372" y1="-4.558" x2="-2.878" y2="4" xlink:href="#linear-gradient-21"/>
    <linearGradient id="linear-gradient-26" x1="4.404" y1="-3.489" x2="-3.873" y2="4.959" xlink:href="#linear-gradient-21"/>
    <linearGradient id="linear-gradient-27" x1="3.429" y1="-2.448" x2="-4.872" y2="5.897" xlink:href="#linear-gradient-21"/>
    <linearGradient id="linear-gradient-28" x1="2.448" y1="-1.433" x2="-5.878" y2="6.811" xlink:href="#linear-gradient-21"/>
    <linearGradient id="linear-gradient-29" x1="5.794" y1="-4.904" x2="-2.499" y2="3.555" xlink:href="#linear-gradient-21"/>
    <linearGradient id="linear-gradient-30" x1="4.822" y1="-3.844" x2="-3.497" y2="4.509" xlink:href="#linear-gradient-21"/>
    <linearGradient id="linear-gradient-31" x1="3.842" y1="-2.811" x2="-4.5" y2="5.443" xlink:href="#linear-gradient-21"/>
    <linearGradient id="linear-gradient-32" x1="2.858" y1="-1.802" x2="-5.51" y2="6.352" xlink:href="#linear-gradient-21"/>
    <linearGradient id="linear-gradient-33" x1="6.22" y1="-5.244" x2="-2.116" y2="3.121" xlink:href="#linear-gradient-21"/>
    <linearGradient id="linear-gradient-34" x1="5.243" y1="-4.192" x2="-3.117" y2="4.071" xlink:href="#linear-gradient-21"/>
    <linearGradient id="linear-gradient-35" x1="4.261" y1="-3.166" x2="-4.125" y2="5" xlink:href="#linear-gradient-21"/>
    <linearGradient id="linear-gradient-36" x1="6.652" y1="-5.574" x2="-1.729" y2="2.695" xlink:href="#linear-gradient-21"/>
    <linearGradient id="linear-gradient-37" x1="5.671" y1="-4.529" x2="-2.735" y2="3.64" xlink:href="#linear-gradient-21"/>
    <linearGradient id="linear-gradient-38" x1="4.684" y1="-3.512" x2="-3.746" y2="4.564" xlink:href="#linear-gradient-21"/>
    <linearGradient id="linear-gradient-39" x1="3.451" y1="-0.581" x2="-4.91" y2="2.465" xlink:href="#linear-gradient-21"/>
    <linearGradient id="linear-gradient-40" x1="0.524" y1="-0.538" x2="0.388" y2="5.324" xlink:href="#linear-gradient-9"/>
    <linearGradient id="linear-gradient-41" x1="0.524" y1="-0.537" x2="0.387" y2="5.319" xlink:href="#linear-gradient-9"/>
    <linearGradient id="linear-gradient-42" x1="0.525" y1="-0.536" x2="0.385" y2="5.314" xlink:href="#linear-gradient-9"/>
    <linearGradient id="linear-gradient-43" x1="0.525" y1="-0.535" x2="0.383" y2="5.31" xlink:href="#linear-gradient-9"/>
    <linearGradient id="linear-gradient-44" x1="0.524" y1="-0.537" x2="0.386" y2="5.32" xlink:href="#linear-gradient-9"/>
    <linearGradient id="linear-gradient-45" x1="0.525" y1="-0.536" x2="0.385" y2="5.315" xlink:href="#linear-gradient-9"/>
    <linearGradient id="linear-gradient-46" x1="0.525" y1="-0.535" x2="0.383" y2="5.31" xlink:href="#linear-gradient-9"/>
    <linearGradient id="linear-gradient-47" x1="0.525" y1="-0.534" x2="0.381" y2="5.307" xlink:href="#linear-gradient-9"/>
    <linearGradient id="linear-gradient-48" x1="0.525" y1="-0.536" x2="0.385" y2="5.315" xlink:href="#linear-gradient-9"/>
    <linearGradient id="linear-gradient-49" x1="0.525" y1="-0.535" x2="0.383" y2="5.311" xlink:href="#linear-gradient-9"/>
    <linearGradient id="linear-gradient-50" x1="0.525" y1="-0.534" x2="0.381" y2="5.307" xlink:href="#linear-gradient-9"/>
    <linearGradient id="linear-gradient-51" x1="0.526" y1="-0.533" x2="0.38" y2="5.303" xlink:href="#linear-gradient-9"/>
    <linearGradient id="linear-gradient-52" x1="0.525" y1="-0.535" x2="0.383" y2="5.312" xlink:href="#linear-gradient-9"/>
    <linearGradient id="linear-gradient-53" x1="0.525" y1="-0.534" x2="0.381" y2="5.307" xlink:href="#linear-gradient-9"/>
    <linearGradient id="linear-gradient-54" x1="0.526" y1="-0.533" x2="0.379" y2="5.303" xlink:href="#linear-gradient-9"/>
    <linearGradient id="linear-gradient-55" x1="0.525" y1="-0.534" x2="0.381" y2="5.308" xlink:href="#linear-gradient-9"/>
    <linearGradient id="linear-gradient-56" x1="0.526" y1="-0.534" x2="0.379" y2="5.304" xlink:href="#linear-gradient-9"/>
    <linearGradient id="linear-gradient-57" x1="0.526" y1="-0.533" x2="0.378" y2="5.3" xlink:href="#linear-gradient-9"/>
    <linearGradient id="linear-gradient-58" x1="0.566" y1="-0.496" x2="0.189" y2="5.13" xlink:href="#linear-gradient-9"/>
    <linearGradient id="linear-gradient-59" x1="0.329" y1="0.554" x2="-0.255" y2="0.738" gradientUnits="objectBoundingBox">
      <stop offset="0" stop-color="#fcb148"/>
      <stop offset="0.052" stop-color="#fdb946"/>
      <stop offset="0.142" stop-color="#fec144"/>
      <stop offset="0.318" stop-color="#ffc444"/>
      <stop offset="0.485" stop-color="#fdb946"/>
      <stop offset="0.775" stop-color="#f99c4c"/>
      <stop offset="0.866" stop-color="#f8924f"/>
      <stop offset="1" stop-color="#f8924f"/>
    </linearGradient>
    <linearGradient id="linear-gradient-60" x1="0.727" y1="0.007" x2="0.207" y2="1.135" gradientUnits="objectBoundingBox">
      <stop offset="0" stop-color="#ffdb44"/>
      <stop offset="1" stop-color="#feef06"/>
    </linearGradient>
    <linearGradient id="linear-gradient-61" x1="0.636" y1="1.231" x2="0.531" y2="0.666" xlink:href="#linear-gradient-59"/>
    <linearGradient id="linear-gradient-62" x1="0.409" y1="0.31" x2="0.858" y2="1.247" xlink:href="#linear-gradient-59"/>
    <linearGradient id="linear-gradient-63" x1="0.253" y1="0.019" x2="0.711" y2="1.039" xlink:href="#linear-gradient-60"/>
    <linearGradient id="linear-gradient-64" x1="0.464" y1="0.369" x2="1.215" y2="1.306" xlink:href="#linear-gradient-59"/>
    <linearGradient id="linear-gradient-65" x1="124.264" y1="-2.152" x2="124.444" y2="2.884" gradientUnits="objectBoundingBox">
      <stop offset="0" stop-color="#311944"/>
      <stop offset="1" stop-color="#a03976"/>
    </linearGradient>
    <linearGradient id="linear-gradient-66" x1="464.299" y1="1.445" x2="464.177" y2="-4.772" gradientUnits="objectBoundingBox">
      <stop offset="0" stop-color="#ffc444"/>
      <stop offset="0.996" stop-color="#f36f56"/>
    </linearGradient>
    <linearGradient id="linear-gradient-67" x1="207.532" y1="-1.328" x2="207.817" y2="1.624" xlink:href="#linear-gradient-65"/>
    <linearGradient id="linear-gradient-68" x1="345.35" y1="1.574" x2="345.264" y2="-2.809" xlink:href="#linear-gradient-66"/>
    <linearGradient id="linear-gradient-69" x1="71.486" y1="0.516" x2="72.488" y2="0.516" gradientUnits="objectBoundingBox">
      <stop offset="0" stop-color="#444b8c"/>
      <stop offset="0.996" stop-color="#3e4177"/>
    </linearGradient>
    <linearGradient id="linear-gradient-70" x1="76.647" y1="0.516" x2="77.721" y2="0.516" xlink:href="#linear-gradient-69"/>
    <linearGradient id="linear-gradient-71" x1="36.102" y1="0.517" x2="37.098" y2="0.517" xlink:href="#linear-gradient-69"/>
    <linearGradient id="linear-gradient-72" x1="0.5" y1="2.459" x2="0.5" y2="0.316" xlink:href="#linear-gradient-59"/>
    <linearGradient id="linear-gradient-73" x1="14.868" y1="1.099" x2="14.612" y2="4.328" xlink:href="#linear-gradient-66"/>
    <linearGradient id="linear-gradient-74" x1="342.486" y1="117.371" x2="341.736" y2="115.696" xlink:href="#linear-gradient-69"/>
    <linearGradient id="linear-gradient-75" x1="35.3" y1="-0.008" x2="35.798" y2="4.49" xlink:href="#linear-gradient-66"/>
    <linearGradient id="linear-gradient-76" x1="0" y1="0.5" x2="1" y2="0.5" xlink:href="#linear-gradient-66"/>
    <linearGradient id="linear-gradient-77" x1="0.5" y1="2.953" x2="0.5" y2="0.326" xlink:href="#linear-gradient-59"/>
    <linearGradient id="linear-gradient-78" x1="3.669" y1="0.5" x2="4.669" y2="0.5" xlink:href="#linear-gradient-66"/>
    <linearGradient id="linear-gradient-80" x1="-3.909" y1="2.252" x2="-2.909" y2="2.252" xlink:href="#linear-gradient"/>
    <linearGradient id="linear-gradient-81" x1="-127.894" y1="14.269" x2="-128.397" y2="13.725" xlink:href="#linear-gradient"/>
    <linearGradient id="linear-gradient-82" x1="-136.398" y1="14.254" x2="-135.674" y2="15.023" xlink:href="#linear-gradient"/>
    <linearGradient id="linear-gradient-83" x1="0.154" y1="-0.904" x2="2.181" y2="8.314" xlink:href="#linear-gradient-66"/>
    <linearGradient id="linear-gradient-84" x1="-615.095" y1="629.831" x2="-618.401" y2="638.011" xlink:href="#linear-gradient-66"/>
    <linearGradient id="linear-gradient-85" x1="0.329" y1="0.554" x2="-0.255" y2="0.738" xlink:href="#linear-gradient-59"/>
    <linearGradient id="linear-gradient-86" x1="0.727" y1="0.007" x2="0.207" y2="1.135" xlink:href="#linear-gradient-60"/>
    <linearGradient id="linear-gradient-87" x1="0.636" y1="1.231" x2="0.531" y2="0.666" xlink:href="#linear-gradient-59"/>
    <linearGradient id="linear-gradient-89" x1="0.253" y1="0.019" x2="0.711" y2="1.039" xlink:href="#linear-gradient-60"/>
    <linearGradient id="linear-gradient-90" x1="0.464" y1="0.369" x2="1.215" y2="1.306" xlink:href="#linear-gradient-59"/>
  </defs>
  <g id="t7-i2" transform="translate(-758.97 -1942.565)">
    <path id="Path_143055" data-name="Path 143055" d="M914.6,1942.584c-37.05.509-94.373,11.444-110.872,39.547-5.762,9.815-5.372,24.244-4.593,53.1a237.833,237.833,0,0,0,3.281,36.185c5.548,31.867,9.325,53.56,23.617,66.191,35.815,31.651,165.187,30.738,220.433-26.246,30.137-31.084,34.774-75.3,7.217-111.847C1023.343,1959.285,964.2,1941.9,914.6,1942.584Z" transform="translate(-39.722)" fill="#f4f7fa"/>
    <g id="Group_89692" data-name="Group 89692" transform="translate(822.961 1943.323)">
      <path id="Path_143056" data-name="Path 143056" d="M973.314,1965.669,820.021,1956.8c-3.531-.172-6.709,3.68-6.709,6.916v197.394c0,4.486,4.583,5.389,8.114,5.029l151.887-15.511a5.766,5.766,0,0,0,5.015-5.673v-173.88A5.4,5.4,0,0,0,973.314,1965.669Z" transform="translate(-813.312 -1937.441)" fill="url(#linear-gradient)"/>
      <path id="Path_143057" data-name="Path 143057" d="M975.1,1964.176,821.5,1956.62a5.824,5.824,0,0,0-6.407,5.589v198.936c0,3.259,2.876,5.607,6.407,5.243L975.1,2150.579a5.8,5.8,0,0,0,5.015-5.717V1969.623A5.423,5.423,0,0,0,975.1,1964.176Z" transform="translate(-812.575 -1937.516)" fill="#d8dee8"/>
      <path id="Path_143058" data-name="Path 143058" d="M820.641,2162.9a2.963,2.963,0,0,1-3.458-2.837V1961.551a3.153,3.153,0,0,1,3.458-3.023l153.595,7.256a2.935,2.935,0,0,1,2.718,2.946V2144.3a3.14,3.14,0,0,1-2.718,3.093Z" transform="translate(-811.712 -1936.726)" fill="url(#linear-gradient-2)"/>
      <path id="Path_143059" data-name="Path 143059" d="M959.72,2138.684l-131.371,12.657V1968.2l131.371,4.948Z" transform="translate(-807.096 -1932.727)" fill="#fff"/>
      <path id="Path_143060" data-name="Path 143060" d="M899.476,1978.04l-52.5.656,1.177-11.84a3.208,3.208,0,0,1,2.666-3.026l8.891-1.366a3.2,3.2,0,0,0,2.406-1.846l.964-2.095,23.257,1.436Z" transform="translate(-799.397 -1936.726)" fill="#97a6b7" opacity="0.3" style="mix-blend-mode: multiply;isolation: isolate"/>
      <path id="Path_143061" data-name="Path 143061" d="M927.513,1976.733a2.809,2.809,0,0,0-2.674-2.341l-8.39-.376a6.737,6.737,0,0,1-6.459-7.183l.324-9.079a2.947,2.947,0,0,0-2.787-3.124l-2.757-.164a3.489,3.489,0,0,1-3.206-4.121,6.226,6.226,0,0,0-5.769-7.229,7.555,7.555,0,0,0-7.8,6.4,4.223,4.223,0,0,1-.582,1.617,4.317,4.317,0,0,1-3.87,2.065l-2.844-.17a3.771,3.771,0,0,0-3.8,2.808l-2.363,9.217a9.029,9.029,0,0,1-8.975,6.682l-9.2-.413a4,4,0,0,0-3.68,2.189l-5.546,11a1.273,1.273,0,0,0,1.1,1.908l79.807,2.65a1.482,1.482,0,0,0,1.454-1.707Zm-32.849-25.759a1.825,1.825,0,0,1-1.7-2.134,2.213,2.213,0,0,1,2.28-1.881,1.827,1.827,0,0,1,1.7,2.134A2.212,2.212,0,0,1,894.664,1950.975Z" transform="translate(-799.397 -1943.101)" fill="url(#linear-gradient)"/>
      <path id="Path_143062" data-name="Path 143062" d="M927.849,1976.908a2.811,2.811,0,0,0-2.676-2.341l-8.39-.376a6.737,6.737,0,0,1-6.459-7.183l.324-9.08a2.947,2.947,0,0,0-2.787-3.124l-2.756-.164a3.491,3.491,0,0,1-3.207-4.122,6.225,6.225,0,0,0-5.768-7.229,7.556,7.556,0,0,0-7.8,6.4,4.212,4.212,0,0,1-.582,1.618,4.319,4.319,0,0,1-3.868,2.065l-2.844-.171a3.772,3.772,0,0,0-3.8,2.808l-2.365,9.217a9.029,9.029,0,0,1-8.975,6.683l-9.2-.413a4,4,0,0,0-3.68,2.189l-5.546,11a1.274,1.274,0,0,0,1.1,1.908l79.809,2.652a1.482,1.482,0,0,0,1.453-1.708ZM895,1951.151a1.829,1.829,0,0,1-1.7-2.136,2.214,2.214,0,0,1,2.281-1.881,1.828,1.828,0,0,1,1.7,2.134A2.215,2.215,0,0,1,895,1951.151Z" transform="translate(-799.259 -1943.029)" fill="#97a6b7"/>
      <g id="Group_89688" data-name="Group 89688" transform="translate(48.049 14.511)">
        <path id="Path_143063" data-name="Path 143063" d="M914.19,1977.793c-7.119-4.4-12.582-1.279-17.018-6.236-4.749-5.306-1.546-12.292-6.46-15.588-3.146-2.11-5.953-.249-9.612-.82a10.1,10.1,0,0,1-4.256-1.781l-1.972,7.687a9.029,9.029,0,0,1-8.975,6.683l-9.2-.413a4,4,0,0,0-3.68,2.189l-5.546,11a1.274,1.274,0,0,0,1.1,1.908l72.53,2.41A21.639,21.639,0,0,0,914.19,1977.793Z" transform="translate(-847.308 -1953.368)" fill="#fff" opacity="0.5" style="mix-blend-mode: soft-light;isolation: isolate"/>
      </g>
      <g id="Group_89691" data-name="Group 89691" transform="translate(36.086 57.796)">
        <path id="Path_143064" data-name="Path 143064" d="M909.451,1990.43l-49.155-.539v-5.9l49.155.757Z" transform="translate(-829.976 -1983.993)" fill="#97a6b7"/>
        <g id="Group_89690" data-name="Group 89690" transform="translate(0 16.916)">
          <g id="Group_89689" data-name="Group 89689" transform="translate(23.91 0.289)">
            <path id="Path_143065" data-name="Path 143065" d="M861.782,2049.028l-6.021.224v-53.086l6.021.015Z" transform="translate(-855.761 -1996.166)" fill="url(#linear-gradient-4)"/>
            <path id="Path_143066" data-name="Path 143066" d="M869.88,2043.8l-5.917.22v-36.167l5.917-.059Z" transform="translate(-852.371 -1991.361)" fill="url(#linear-gradient-4)"/>
            <path id="Path_143067" data-name="Path 143067" d="M877.84,2046.161l-5.817.216v-45.3l5.817-.016Z" transform="translate(-849.039 -1994.145)" fill="url(#linear-gradient-4)"/>
            <path id="Path_143068" data-name="Path 143068" d="M885.666,2043.092l-5.718.212v-35.765l5.718-.056Z" transform="translate(-845.763 -1991.488)" fill="url(#linear-gradient-4)"/>
            <path id="Path_143069" data-name="Path 143069" d="M893.361,2039.891l-5.623.209v-25.753l5.623-.1Z" transform="translate(-842.543 -1988.692)" fill="url(#linear-gradient-4)"/>
            <path id="Path_143070" data-name="Path 143070" d="M900.927,2046.926l-5.529.205v-50.867l5.529.014Z" transform="translate(-839.377 -1996.126)" fill="#d8dee8"/>
            <path id="Path_143071" data-name="Path 143071" d="M908.369,2036.245l-5.438.2v-15.154l5.438-.137Z" transform="translate(-836.263 -1985.837)" fill="#d8dee8"/>
            <path id="Path_143072" data-name="Path 143072" d="M915.689,2043.251l-5.349.2V2003.3l5.349-.029Z" transform="translate(-833.2 -1993.229)" fill="#d8dee8"/>
          </g>
          <path id="Path_143073" data-name="Path 143073" d="M944.861,2048.33l-105.092,5.706v-5.544l105.092-5.278Z" transform="translate(-838.462 -1976.429)" fill="#d8dee8"/>
          <path id="Path_143074" data-name="Path 143074" d="M944.861,2041.4l-105.092,4.888v-5.544l105.092-4.46Z" transform="translate(-838.462 -1979.292)" fill="#d8dee8"/>
          <path id="Path_143075" data-name="Path 143075" d="M944.861,2076.345l-105.092,9.014v-5.544l105.092-8.587Z" transform="translate(-838.462 -1964.849)" fill="#d8dee8"/>
          <path id="Path_143076" data-name="Path 143076" d="M880.451,2054.673v21.052l-41.606,3.159V2057.17Z" transform="translate(-838.844 -1971.693)" fill="#d8dee8" opacity="0.5"/>
          <path id="Path_143077" data-name="Path 143077" d="M838.844,2068.644v9.037l41.607-3.159v-16.313c-2.377-.756-5.238-1.075-7.42.489-4.575,3.281-3.991,4.972-8.763,4.425-3.735-.429-7.894-.78-11.1,1.934-1.987,1.682-3.009,3.413-5.874,3.36C844.6,2068.367,841.456,2066.688,838.844,2068.644Z" transform="translate(-838.844 -1970.49)" fill="#d8dee8"/>
          <path id="Path_143078" data-name="Path 143078" d="M930.219,2055.7l-55.027,3.468v-3.947l55.027-3.3Z" transform="translate(-823.819 -1972.83)" fill="#d8dee8"/>
          <path id="Path_143079" data-name="Path 143079" d="M930.219,2061.3l-55.027,3.818v-3.715l55.027-3.663Z" transform="translate(-823.819 -1970.422)" fill="#d8dee8"/>
          <path id="Path_143080" data-name="Path 143080" d="M930.219,2067.193l-55.027,4.178v-3.947l55.027-4.013Z" transform="translate(-823.819 -1968.08)" fill="#d8dee8"/>
          <path id="Path_143081" data-name="Path 143081" d="M852.65,2001l-13.07.012v-5.046l13.07.037Z" transform="translate(-838.54 -1995.962)" fill="#d8dee8"/>
          <path id="Path_143082" data-name="Path 143082" d="M852.65,2009.72l-13.07.131v-5.045l13.07-.083Z" transform="translate(-838.54 -1992.34)" fill="#d8dee8"/>
          <path id="Path_143083" data-name="Path 143083" d="M852.65,2018.247l-13.07.248v-5.046l13.07-.2Z" transform="translate(-838.54 -1988.816)" fill="#d8dee8"/>
          <path id="Path_143084" data-name="Path 143084" d="M852.65,2026.982l-13.07.368V2022.3l13.07-.32Z" transform="translate(-838.54 -1985.205)" fill="#d8dee8"/>
          <path id="Path_143085" data-name="Path 143085" d="M852.65,2035.509l-13.07.485v-5.045l13.07-.436Z" transform="translate(-838.54 -1981.68)" fill="#d8dee8"/>
        </g>
      </g>
    </g>
    <g id="Group_89709" data-name="Group 89709" transform="translate(962.634 2076.905)">
      <path id="Path_143086" data-name="Path 143086" d="M970.1,2044.358l-.225,75.593a7.692,7.692,0,0,1-6.763,7.463l-55.266,5.657c-4.256.436-7.74-2.507-7.74-6.5v-81.366a7.533,7.533,0,0,1,7.012-7.27c.25-.024.506-.032.762-.034l55.469-.264A6.676,6.676,0,0,1,970.1,2044.358Z" transform="translate(-900.107 -2037.604)" fill="url(#linear-gradient-9)"/>
      <path id="Path_143087" data-name="Path 143087" d="M972.741,2044.312l-.232,75.361a7.5,7.5,0,0,1-6.566,7.42l-54.887,5.619c-4.227.433-7.86-2.483-7.86-6.459l.011-81.095a7.576,7.576,0,0,1,7.051-7.247c.249-.024.588-.032.842-.034l55.092-.263A6.512,6.512,0,0,1,972.741,2044.312Z" transform="translate(-898.83 -2037.615)" fill="url(#linear-gradient-10)"/>
      <g id="Group_89693" data-name="Group 89693" transform="translate(4.374)" opacity="0.3" style="mix-blend-mode: multiply;isolation: isolate">
        <path id="Path_143088" data-name="Path 143088" d="M972.738,2044.206l-.058,18.939-69.478,2.282,0-20.385a7.5,7.5,0,0,1,6.776-7.156,9.468,9.468,0,0,1,1.118-.008l55.092-.263A6.422,6.422,0,0,1,972.738,2044.206Z" transform="translate(-903.202 -2037.615)" fill="url(#linear-gradient-11)"/>
        <path id="Path_143089" data-name="Path 143089" d="M972.7,2052.268l-.024,7.869c-6.74,2.133-19.145,3.857-33.381,4.406-6.287.241-12.364.233-17.856.005a117.208,117.208,0,0,1-18.234-1.972v-8.47c1.784-.44,3.425-.847,5.371-1.231,4.23-.835,9.324-1.539,14.89-2.057,4.972-.465,10.369-.779,15.934-.906,7.163-.165,13.813,0,19.528.416.445.031.889.066,1.322.1,1.367.112,2.68.239,3.928.38q.664.074,1.3.155c.979.125,1.82.257,2.711.4C969.9,2051.634,971.411,2051.935,972.7,2052.268Z" transform="translate(-903.202 -2032.558)" fill="url(#linear-gradient-11)"/>
      </g>
      <path id="Path_143090" data-name="Path 143090" d="M967.949,2057.17a2.125,2.125,0,0,1-2.051,2.1l-57.021,1.744a2.17,2.17,0,0,1-2.318-2.1l.006-13.618a2.287,2.287,0,0,1,2.319-2.208l57.062-.693a2,2,0,0,1,2.039,2.015Z" transform="translate(-897.44 -2035.64)" fill="#fff"/>
      <path id="Path_143091" data-name="Path 143091" d="M966.48,2056.769a1.345,1.345,0,0,1-1.3,1.327l-56.741,1.672a1.372,1.372,0,0,1-1.463-1.331l0-13.556a1.447,1.447,0,0,1,1.466-1.394l56.778-.722a1.269,1.269,0,0,1,1.29,1.275Z" transform="translate(-897.267 -2035.486)" fill="url(#linear-gradient-13)"/>
      <g id="Group_89699" data-name="Group 89699" transform="translate(60.031 8.883)">
        <g id="Group_89696" data-name="Group 89696" transform="translate(0 1.529)">
          <g id="Group_89694" data-name="Group 89694" transform="translate(0.014)">
            <path id="Path_143092" data-name="Path 143092" d="M943.914,2048.273a.607.607,0,0,1-.647.591h-.03a.578.578,0,0,1-.646-.564l.006-2.627a.641.641,0,0,1,.65-.628h.03a.608.608,0,0,1,.645.6Z" transform="translate(-942.591 -2044.956)" fill="url(#linear-gradient-14)"/>
            <path id="Path_143093" data-name="Path 143093" d="M947.631,2048.207a.613.613,0,0,1-.642.6h-.03a.58.58,0,0,1-.637-.573l.007-2.62a.639.639,0,0,1,.642-.63H947a.608.608,0,0,1,.637.609Z" transform="translate(-941.049 -2044.982)" fill="url(#linear-gradient-15)"/>
          </g>
          <g id="Group_89695" data-name="Group 89695" transform="translate(0 5.461)">
            <path id="Path_143094" data-name="Path 143094" d="M943.9,2052.475a.718.718,0,0,1-.647.715h-.031a.674.674,0,0,1-.645-.681l.006-2.7a.713.713,0,0,1,.649-.708h.031a.671.671,0,0,1,.645.678Z" transform="translate(-942.581 -2048.742)" fill="url(#linear-gradient-16)"/>
            <path id="Path_143095" data-name="Path 143095" d="M947.62,2052.474c0,.35-.288.462-.642.74h-.03a.7.7,0,0,1-.637-.709l.007-2.821c0-.352.288-.834.642-.84h.03c.353-.005.637.458.637.809Z" transform="translate(-941.039 -2048.846)" fill="url(#linear-gradient-17)"/>
          </g>
        </g>
        <g id="Group_89698" data-name="Group 89698" transform="translate(1.456)">
          <path id="Path_143096" data-name="Path 143096" d="M947.386,2048.428a.674.674,0,0,1-.66.653l-2.461.058c-.356.007-.444-.273-.444-.626v-.028c0-.353.082-.645.438-.653l2.575-.055a.551.551,0,0,1,.551.622Z" transform="translate(-943.524 -2042.298)" opacity="0.3" fill="url(#linear-gradient-18)"/>
          <g id="Group_89697" data-name="Group 89697">
            <path id="Path_143097" data-name="Path 143097" d="M947.386,2044.556a.664.664,0,0,1-.652.65l-2.466.041c-.356.006-.447-.276-.447-.629v-.03c0-.354.089-.643.445-.647l2.572-.041a.555.555,0,0,1,.547.627Z" transform="translate(-943.524 -2043.9)" fill="url(#linear-gradient-19)"/>
            <path id="Path_143098" data-name="Path 143098" d="M947.472,2052.481a.685.685,0,0,1-.667.656l-2.606.075a.576.576,0,0,1-.588-.622v-.03a.608.608,0,0,1,.579-.654l2.653-.072a.607.607,0,0,1,.629.617Z" transform="translate(-943.611 -2040.621)" fill="url(#linear-gradient-20)"/>
          </g>
        </g>
      </g>
      <path id="Path_143099" data-name="Path 143099" d="M943.548,2124.434a15.322,15.322,0,0,1-1.155,3.743c-.2.428-.423.876-.669,1.333l-30.669,3.14c-4.227.433-7.86-2.483-7.86-6.459l.011-81.211a7.557,7.557,0,0,1,6.776-7.217c.092.025.228.054.319.082,3.959,1.2,8.271,3.43,10.846,7.608a17.592,17.592,0,0,1,2.349,10.358,29.5,29.5,0,0,1-.4,3.606q-.193,1.109-.386,2.266c-.161.962-.321,1.948-.476,2.948-.247,1.6-.475,3.247-.659,4.907-.175,1.592-.308,3.2-.375,4.8-.013.31-.024.621-.031.93-.026,1-.023,2,.014,2.991q.036,1.018.123,2.017a25.25,25.25,0,0,0,2.979,10.419,20.354,20.354,0,0,0,5.46,5.761c.557.433,1.119.856,1.681,1.279a44.971,44.971,0,0,1,5.378,4.639l.119.126a25.96,25.96,0,0,1,2.2,2.632,19.35,19.35,0,0,1,1.914,3.278q.307.66.567,1.341c.3.779.56,1.58.786,2.4q.153.549.3,1.115a.423.423,0,0,1,.011.044,38.7,38.7,0,0,1,.914,4.643A21.515,21.515,0,0,1,943.548,2124.434Z" transform="translate(-898.83 -2037.553)" fill="#fff" opacity="0.3" style="mix-blend-mode: soft-light;isolation: isolate"/>
      <g id="Group_89708" data-name="Group 89708" transform="translate(9.098 34.485)">
        <g id="Group_89703" data-name="Group 89703" transform="translate(0 0.021)" style="mix-blend-mode: multiply;isolation: isolate">
          <g id="Group_89700" data-name="Group 89700" transform="translate(0.016)">
            <path id="Path_143100" data-name="Path 143100" d="M919.933,2068.493a1.578,1.578,0,0,1-1.525,1.519l-10.291.508a1.429,1.429,0,0,1-1.562-1.388v-3.693a1.6,1.6,0,0,1,1.563-1.531l10.294-.438a1.413,1.413,0,0,1,1.524,1.381Z" transform="translate(-906.555 -2061.434)" fill="url(#linear-gradient-21)"/>
            <path id="Path_143101" data-name="Path 143101" d="M931.564,2067.905a1.538,1.538,0,0,1-1.474,1.491l-9.935.49a1.389,1.389,0,0,1-1.507-1.365l0-3.628a1.558,1.558,0,0,1,1.511-1.5l9.937-.421a1.371,1.371,0,0,1,1.47,1.357Z" transform="translate(-901.556 -2061.641)" fill="url(#linear-gradient-22)"/>
            <path id="Path_143102" data-name="Path 143102" d="M942.429,2067.357a1.5,1.5,0,0,1-1.428,1.466l-9.609.474a1.353,1.353,0,0,1-1.456-1.343l.006-3.569a1.518,1.518,0,0,1,1.461-1.477l9.612-.408a1.337,1.337,0,0,1,1.42,1.337Z" transform="translate(-896.89 -2061.835)" fill="url(#linear-gradient-23)"/>
            <path id="Path_143103" data-name="Path 143103" d="M953.306,2066.808a1.466,1.466,0,0,1-1.381,1.442l-9.289.457a1.316,1.316,0,0,1-1.406-1.32l.009-3.51a1.48,1.48,0,0,1,1.413-1.45l9.29-.4a1.3,1.3,0,0,1,1.374,1.316Z" transform="translate(-892.222 -2062.029)" fill="url(#linear-gradient-24)"/>
          </g>
          <g id="Group_89701" data-name="Group 89701" transform="translate(0.011 11.138)">
            <path id="Path_143104" data-name="Path 143104" d="M919.924,2076.761a1.6,1.6,0,0,1-1.525,1.536l-10.285.632a1.408,1.408,0,0,1-1.562-1.367v-3.69a1.621,1.621,0,0,1,1.563-1.548l10.288-.562a1.388,1.388,0,0,1,1.522,1.36Z" transform="translate(-906.552 -2069.145)" fill="url(#linear-gradient-25)"/>
            <path id="Path_143105" data-name="Path 143105" d="M931.55,2076.031a1.56,1.56,0,0,1-1.474,1.508l-9.93.611a1.369,1.369,0,0,1-1.505-1.346l0-3.624a1.579,1.579,0,0,1,1.509-1.521l9.933-.543a1.351,1.351,0,0,1,1.47,1.337Z" transform="translate(-901.555 -2069.411)" fill="url(#linear-gradient-26)"/>
            <path id="Path_143106" data-name="Path 143106" d="M942.409,2075.35a1.523,1.523,0,0,1-1.427,1.481l-9.6.591a1.333,1.333,0,0,1-1.456-1.324l.006-3.565a1.539,1.539,0,0,1,1.461-1.494l9.607-.526a1.317,1.317,0,0,1,1.42,1.319Z" transform="translate(-896.892 -2069.661)" fill="url(#linear-gradient-27)"/>
            <path id="Path_143107" data-name="Path 143107" d="M953.281,2074.666a1.488,1.488,0,0,1-1.381,1.457l-9.283.57a1.3,1.3,0,0,1-1.406-1.3l.008-3.5a1.5,1.5,0,0,1,1.413-1.467l9.286-.508a1.282,1.282,0,0,1,1.372,1.3Z" transform="translate(-892.225 -2069.909)" fill="url(#linear-gradient-28)"/>
          </g>
          <g id="Group_89702" data-name="Group 89702" transform="translate(0.007 22.004)">
            <path id="Path_143108" data-name="Path 143108" d="M919.915,2084.828a1.624,1.624,0,0,1-1.525,1.553l-10.281.755a1.389,1.389,0,0,1-1.56-1.347V2082.1a1.643,1.643,0,0,1,1.562-1.566l10.284-.684a1.37,1.37,0,0,1,1.522,1.34Z" transform="translate(-906.549 -2076.667)" fill="url(#linear-gradient-29)"/>
            <path id="Path_143109" data-name="Path 143109" d="M931.535,2083.96a1.583,1.583,0,0,1-1.473,1.525l-9.926.728a1.35,1.35,0,0,1-1.505-1.326l0-3.623a1.6,1.6,0,0,1,1.508-1.537l9.929-.66a1.331,1.331,0,0,1,1.469,1.319Z" transform="translate(-901.555 -2076.992)" fill="url(#linear-gradient-30)"/>
            <path id="Path_143110" data-name="Path 143110" d="M942.39,2083.149a1.544,1.544,0,0,1-1.426,1.5l-9.6.7a1.313,1.313,0,0,1-1.456-1.3l.007-3.562a1.56,1.56,0,0,1,1.46-1.51l9.6-.639a1.3,1.3,0,0,1,1.42,1.3Z" transform="translate(-896.893 -2077.294)" fill="url(#linear-gradient-31)"/>
            <path id="Path_143111" data-name="Path 143111" d="M953.257,2082.337a1.505,1.505,0,0,1-1.38,1.47l-9.28.681a1.279,1.279,0,0,1-1.4-1.285l.008-3.5a1.524,1.524,0,0,1,1.412-1.482l9.283-.618a1.266,1.266,0,0,1,1.372,1.279Z" transform="translate(-892.229 -2077.598)" fill="url(#linear-gradient-32)"/>
          </g>
          <path id="Path_143112" data-name="Path 143112" d="M919.9,2092.7a1.644,1.644,0,0,1-1.524,1.569l-10.275.874a1.368,1.368,0,0,1-1.559-1.329v-3.682a1.668,1.668,0,0,1,1.562-1.583l10.278-.8a1.352,1.352,0,0,1,1.522,1.322Z" transform="translate(-906.543 -2051.402)" fill="url(#linear-gradient-33)"/>
          <path id="Path_143113" data-name="Path 143113" d="M931.521,2091.693a1.605,1.605,0,0,1-1.473,1.54l-9.922.842a1.329,1.329,0,0,1-1.5-1.307l0-3.618a1.62,1.62,0,0,1,1.508-1.552l9.923-.776a1.313,1.313,0,0,1,1.469,1.3Z" transform="translate(-901.551 -2051.782)" fill="url(#linear-gradient-34)"/>
          <path id="Path_143114" data-name="Path 143114" d="M942.371,2090.755a1.568,1.568,0,0,1-1.426,1.514l-9.6.814a1.3,1.3,0,0,1-1.454-1.288l.006-3.557a1.582,1.582,0,0,1,1.46-1.525l9.6-.75a1.28,1.28,0,0,1,1.419,1.282Z" transform="translate(-896.891 -2052.138)" fill="url(#linear-gradient-35)"/>
          <path id="Path_143115" data-name="Path 143115" d="M919.9,2101.134a1.672,1.672,0,0,1-1.524,1.586l-10.27,1a1.346,1.346,0,0,1-1.559-1.306v-3.679a1.689,1.689,0,0,1,1.56-1.6l10.272-.93a1.33,1.33,0,0,1,1.521,1.3Z" transform="translate(-906.544 -2047.905)" fill="url(#linear-gradient-36)"/>
          <path id="Path_143116" data-name="Path 143116" d="M931.507,2099.985a1.629,1.629,0,0,1-1.473,1.556l-9.916.966a1.31,1.31,0,0,1-1.5-1.286l0-3.615a1.646,1.646,0,0,1,1.507-1.57l9.919-.9a1.3,1.3,0,0,1,1.469,1.281Z" transform="translate(-901.555 -2048.346)" fill="url(#linear-gradient-37)"/>
          <path id="Path_143117" data-name="Path 143117" d="M942.35,2098.911a1.59,1.59,0,0,1-1.425,1.529l-9.591.933a1.275,1.275,0,0,1-1.453-1.268l.006-3.554a1.606,1.606,0,0,1,1.459-1.542l9.594-.868a1.26,1.26,0,0,1,1.419,1.262Z" transform="translate(-896.897 -2048.758)" fill="url(#linear-gradient-38)"/>
          <path id="Path_143118" data-name="Path 143118" d="M951.833,2085.1l-9.279.725a1.713,1.713,0,0,0-1.364,1.7l-.006,1.97,0,1.645-.018,7.429-.006,2.185,0,1.427a1.3,1.3,0,0,0,1.355,1.377l9.273-.9a1.721,1.721,0,0,0,1.425-1.627l0-1.409.007-2.157.021-7.331,0-1.624.006-1.946A1.451,1.451,0,0,0,951.833,2085.1Z" transform="translate(-892.237 -2052.492)" fill="url(#linear-gradient-39)"/>
        </g>
        <g id="Group_89707" data-name="Group 89707" transform="translate(0.588)">
          <g id="Group_89704" data-name="Group 89704" transform="translate(0.017)">
            <path id="Path_143119" data-name="Path 143119" d="M920.334,2068.473a1.577,1.577,0,0,1-1.524,1.518l-10.278.506a1.427,1.427,0,0,1-1.56-1.386v-3.69a1.6,1.6,0,0,1,1.562-1.531l10.281-.437a1.41,1.41,0,0,1,1.521,1.38Z" transform="translate(-906.972 -2061.42)" fill="url(#linear-gradient-40)"/>
            <path id="Path_143120" data-name="Path 143120" d="M931.564,2067.905a1.538,1.538,0,0,1-1.474,1.491l-9.935.49a1.389,1.389,0,0,1-1.507-1.365l0-3.628a1.558,1.558,0,0,1,1.511-1.5l9.937-.421a1.371,1.371,0,0,1,1.47,1.357Z" transform="translate(-902.145 -2061.62)" fill="url(#linear-gradient-41)"/>
            <path id="Path_143121" data-name="Path 143121" d="M942.8,2067.338a1.5,1.5,0,0,1-1.426,1.466l-9.6.472a1.351,1.351,0,0,1-1.454-1.341l.007-3.568a1.516,1.516,0,0,1,1.46-1.476l9.6-.408a1.334,1.334,0,0,1,1.419,1.336Z" transform="translate(-897.319 -2061.821)" fill="url(#linear-gradient-42)"/>
            <path id="Path_143122" data-name="Path 143122" d="M953.667,2066.79a1.461,1.461,0,0,1-1.38,1.438l-9.277.458a1.314,1.314,0,0,1-1.4-1.32l.008-3.507a1.477,1.477,0,0,1,1.411-1.45l9.28-.395a1.3,1.3,0,0,1,1.371,1.313Z" transform="translate(-892.655 -2062.014)" fill="url(#linear-gradient-43)"/>
          </g>
          <g id="Group_89705" data-name="Group 89705" transform="translate(0.013 11.131)">
            <path id="Path_143123" data-name="Path 143123" d="M920.324,2076.736a1.6,1.6,0,0,1-1.524,1.535l-10.272.631a1.407,1.407,0,0,1-1.559-1.366v-3.687a1.619,1.619,0,0,1,1.56-1.548l10.275-.561a1.389,1.389,0,0,1,1.522,1.358Z" transform="translate(-906.969 -2069.126)" fill="url(#linear-gradient-44)"/>
            <path id="Path_143124" data-name="Path 143124" d="M931.55,2076.031a1.56,1.56,0,0,1-1.474,1.508l-9.93.611a1.369,1.369,0,0,1-1.505-1.346l0-3.624a1.579,1.579,0,0,1,1.509-1.521l9.933-.543a1.351,1.351,0,0,1,1.47,1.337Z" transform="translate(-902.145 -2069.384)" fill="url(#linear-gradient-45)"/>
            <path id="Path_143125" data-name="Path 143125" d="M942.783,2075.326a1.521,1.521,0,0,1-1.425,1.481l-9.593.589a1.331,1.331,0,0,1-1.454-1.323l.007-3.563a1.536,1.536,0,0,1,1.459-1.492l9.6-.524a1.315,1.315,0,0,1,1.419,1.316Z" transform="translate(-897.32 -2069.641)" fill="url(#linear-gradient-46)"/>
            <path id="Path_143126" data-name="Path 143126" d="M953.643,2074.643a1.484,1.484,0,0,1-1.379,1.456l-9.273.57a1.3,1.3,0,0,1-1.4-1.3l.009-3.5a1.5,1.5,0,0,1,1.411-1.467l9.276-.506a1.28,1.28,0,0,1,1.371,1.294Z" transform="translate(-892.659 -2069.89)" fill="url(#linear-gradient-47)"/>
          </g>
          <g id="Group_89706" data-name="Group 89706" transform="translate(0.008 21.992)">
            <path id="Path_143127" data-name="Path 143127" d="M920.315,2084.8a1.624,1.624,0,0,1-1.524,1.552l-10.267.754a1.387,1.387,0,0,1-1.559-1.346v-3.685a1.641,1.641,0,0,1,1.56-1.565l10.27-.684a1.369,1.369,0,0,1,1.521,1.34Z" transform="translate(-906.966 -2076.645)" fill="url(#linear-gradient-48)"/>
            <path id="Path_143128" data-name="Path 143128" d="M931.535,2083.96a1.583,1.583,0,0,1-1.473,1.525l-9.926.728a1.35,1.35,0,0,1-1.505-1.326l0-3.623a1.6,1.6,0,0,1,1.508-1.537l9.929-.66a1.331,1.331,0,0,1,1.469,1.319Z" transform="translate(-902.144 -2076.958)" fill="url(#linear-gradient-49)"/>
            <path id="Path_143129" data-name="Path 143129" d="M942.764,2083.121a1.545,1.545,0,0,1-1.425,1.5l-9.59.7a1.312,1.312,0,0,1-1.453-1.3l.007-3.559a1.56,1.56,0,0,1,1.457-1.509l9.592-.637a1.3,1.3,0,0,1,1.418,1.3Z" transform="translate(-897.322 -2077.271)" fill="url(#linear-gradient-50)"/>
            <path id="Path_143130" data-name="Path 143130" d="M953.62,2082.309a1.506,1.506,0,0,1-1.379,1.47l-9.269.68a1.277,1.277,0,0,1-1.4-1.284l.009-3.5a1.523,1.523,0,0,1,1.411-1.482l9.272-.616a1.264,1.264,0,0,1,1.371,1.279Z" transform="translate(-892.663 -2077.574)" fill="url(#linear-gradient-51)"/>
          </g>
          <path id="Path_143131" data-name="Path 143131" d="M920.307,2092.662a1.647,1.647,0,0,1-1.522,1.569l-10.264.87a1.366,1.366,0,0,1-1.558-1.326v-3.68a1.663,1.663,0,0,1,1.559-1.581l10.267-.8a1.351,1.351,0,0,1,1.519,1.322Z" transform="translate(-906.959 -2051.394)" fill="url(#linear-gradient-52)"/>
          <path id="Path_143132" data-name="Path 143132" d="M931.521,2091.693a1.605,1.605,0,0,1-1.473,1.54l-9.922.842a1.329,1.329,0,0,1-1.5-1.307l0-3.618a1.62,1.62,0,0,1,1.508-1.552l9.923-.776a1.313,1.313,0,0,1,1.469,1.3Z" transform="translate(-902.139 -2051.761)" fill="url(#linear-gradient-53)"/>
          <path id="Path_143133" data-name="Path 143133" d="M942.744,2090.724a1.563,1.563,0,0,1-1.423,1.51l-9.586.814a1.293,1.293,0,0,1-1.451-1.286l.006-3.556a1.583,1.583,0,0,1,1.457-1.525l9.588-.749a1.28,1.28,0,0,1,1.418,1.282Z" transform="translate(-897.319 -2052.129)" fill="url(#linear-gradient-54)"/>
          <path id="Path_143134" data-name="Path 143134" d="M920.3,2101.094a1.671,1.671,0,0,1-1.522,1.586l-10.258,1a1.346,1.346,0,0,1-1.556-1.306V2098.7a1.689,1.689,0,0,1,1.559-1.6l10.26-.929a1.329,1.329,0,0,1,1.519,1.3Z" transform="translate(-906.96 -2047.899)" fill="url(#linear-gradient-55)"/>
          <path id="Path_143135" data-name="Path 143135" d="M931.507,2099.985a1.629,1.629,0,0,1-1.473,1.556l-9.916.966a1.31,1.31,0,0,1-1.5-1.286l0-3.615a1.646,1.646,0,0,1,1.507-1.57l9.919-.9a1.3,1.3,0,0,1,1.469,1.281Z" transform="translate(-902.143 -2048.324)" fill="url(#linear-gradient-56)"/>
          <path id="Path_143136" data-name="Path 143136" d="M942.725,2098.875a1.589,1.589,0,0,1-1.425,1.528l-9.58.931a1.274,1.274,0,0,1-1.452-1.266l.006-3.553a1.606,1.606,0,0,1,1.457-1.541l9.583-.868a1.259,1.259,0,0,1,1.418,1.262Z" transform="translate(-897.325 -2048.75)" fill="url(#linear-gradient-57)"/>
          <path id="Path_143137" data-name="Path 143137" d="M952.216,2085.074l-9.269.724a1.734,1.734,0,0,0-1.382,1.706l0,1.969,0,1.645-.018,7.423,0,2.185,0,1.426a1.314,1.314,0,0,0,1.374,1.374l9.262-.9a1.7,1.7,0,0,0,1.4-1.625l0-1.408.007-2.155.021-7.328,0-1.622.006-1.945A1.436,1.436,0,0,0,952.216,2085.074Z" transform="translate(-892.67 -2052.483)" fill="url(#linear-gradient-58)"/>
        </g>
      </g>
    </g>
    <g id="Group_89711" data-name="Group 89711" transform="translate(994.508 2041.639)">
      <path id="Path_143138" data-name="Path 143138" d="M951.787,2028.953a13.57,13.57,0,0,1-14.038,13.838,15.887,15.887,0,0,1-15.091-15.8,13.531,13.531,0,0,1,15.091-13.768A15.994,15.994,0,0,1,951.787,2028.953Z" transform="translate(-922.659 -2012.465)" fill="url(#linear-gradient-59)"/>
      <path id="Path_143139" data-name="Path 143139" d="M953.293,2028.473a13.57,13.57,0,0,1-14.037,13.838,15.89,15.89,0,0,1-15.091-15.8,13.531,13.531,0,0,1,15.091-13.766A15.991,15.991,0,0,1,953.293,2028.473Z" transform="translate(-922.037 -2012.663)" fill="url(#linear-gradient-60)"/>
      <path id="Path_143140" data-name="Path 143140" d="M952.467,2028.232a12.95,12.95,0,0,1-13.42,13.207,15.165,15.165,0,0,1-14.378-15.081,12.914,12.914,0,0,1,14.378-13.142A15.26,15.26,0,0,1,952.467,2028.232Z" transform="translate(-921.828 -2012.464)" fill="url(#linear-gradient-61)"/>
      <path id="Path_143141" data-name="Path 143141" d="M951.875,2028.061a12.507,12.507,0,0,1-12.976,12.756,14.651,14.651,0,0,1-13.872-14.566,12.476,12.476,0,0,1,13.872-12.695A14.738,14.738,0,0,1,951.875,2028.061Z" transform="translate(-921.68 -2012.323)" fill="url(#linear-gradient-62)"/>
      <g id="Group_89710" data-name="Group 89710" transform="translate(10.487 3.708)">
        <path id="Path_143142" data-name="Path 143142" d="M936.736,2015.29h0a.792.792,0,0,1,.7.779v1.341a19.7,19.7,0,0,1,2.325.4q.859.2,1.7.48a.781.781,0,0,1,.534.8l-.164,1.682a.63.63,0,0,1-.9.523,9.686,9.686,0,0,0-1.143-.426,10.351,10.351,0,0,0-2.158-.4l-.2-.017v3.842a10.078,10.078,0,0,1,4.459,2.28,4.821,4.821,0,0,1,1.429,3.56,4.689,4.689,0,0,1-1.58,3.7,7.2,7.2,0,0,1-4.469,1.573v1.48a.672.672,0,0,1-.7.684h-.013a.744.744,0,0,1-.7-.742v-1.46l-.311-.014a20.381,20.381,0,0,1-2.589-.277,16.787,16.787,0,0,1-1.789-.411.77.77,0,0,1-.561-.8l.194-2.161a.684.684,0,0,1,.955-.565,13.866,13.866,0,0,0,4.089.937l.013-4.273a9.263,9.263,0,0,1-4.342-2.13,4.882,4.882,0,0,1-1.437-3.625,4.243,4.243,0,0,1,1.559-3.522,6.917,6.917,0,0,1,4.4-1.227v-1.371A.633.633,0,0,1,936.736,2015.29Zm-.7,5.128a2.372,2.372,0,0,0-1.4.493,1.442,1.442,0,0,0-.5,1.154,1.548,1.548,0,0,0,.464,1.146,3.32,3.32,0,0,0,1.439.734Zm1.241,7.737v3.919a2.166,2.166,0,0,0,1.5-.466,1.677,1.677,0,0,0,.521-1.319,1.8,1.8,0,0,0-.485-1.291A3.56,3.56,0,0,0,937.274,2028.155Z" transform="translate(-930.079 -2015.287)" fill="url(#linear-gradient-63)"/>
      </g>
      <path id="Path_143143" data-name="Path 143143" d="M936.55,2029.823c.438-4.331,4.418-6.164,3.9-10.147-.321-2.455-2.181-4.524-4.257-6.14a12.476,12.476,0,0,0-11.166,12.692A14.651,14.651,0,0,0,938.9,2040.8a13.253,13.253,0,0,0,2.143-.1C938.046,2037.708,936.173,2033.545,936.55,2029.823Z" transform="translate(-921.68 -2012.302)" opacity="0.3" fill="url(#linear-gradient-64)" style="mix-blend-mode: multiply;isolation: isolate"/>
    </g>
    <g id="Group_89714" data-name="Group 89714" transform="translate(773.97 2005.491)">
      <path id="Path_143144" data-name="Path 143144" d="M832.949,2105.255s7.518,3.439,7.639,3.985-4.839-.194-6.866-.12-3.69-.529-3.505-1.386.9-3.015.9-3.015Z" transform="translate(-773.339 -1938.463)" fill="url(#linear-gradient-65)"/>
      <path id="Path_143145" data-name="Path 143145" d="M833.161,2103.256l-.465,3.386a2.656,2.656,0,0,1-1.991-.082l-.333-3.717Z" transform="translate(-773.27 -1939.238)" fill="url(#linear-gradient-66)"/>
      <path id="Path_143146" data-name="Path 143146" d="M807.6,2103.132l-.878,1.4a1.67,1.67,0,0,0-.2,1.313c.3,1.169.909,3.448,1.175,4.042.36.81,5.229,1.3,5.229,1.3s.435-.609-.574-1.35-1.659-.858-2.013-1.949a28.407,28.407,0,0,1-.585-4.171Z" transform="translate(-783.152 -1939.118)" fill="url(#linear-gradient-67)"/>
      <path id="Path_143147" data-name="Path 143147" d="M811.005,2100.731a45.62,45.62,0,0,0-1.9,5s-.507.646-1.467-.312-.434-.43-.434-.43l.191-4.668Z" transform="translate(-782.904 -1940.281)" fill="url(#linear-gradient-68)"/>
      <path id="Path_143148" data-name="Path 143148" d="M840.638,2056.363c.373,10.108.362,21.09-.247,32.82-.687,13.208-2.032,25.415-3.717,36.479-.616.018-1.264.02-1.941,0-.457-.013-.9-.037-1.327-.066a84.048,84.048,0,0,1-2.767-8.925,85.925,85.925,0,0,1-1.922-10.447c-1.422-11.452.28-12.446-.876-20.933-1.023-7.516-2.5-7.813-4.218-18.486-1.859-11.58-.451-13.314.235-13.939C826.771,2050.2,833.6,2052.036,840.638,2056.363Z" transform="translate(-776.442 -1960.41)" fill="url(#linear-gradient-69)"/>
      <path id="Path_143149" data-name="Path 143149" d="M823.857,2052.865c2.779-2.541,9.118-.984,15.807,2.92-7.727,8.308-8.579,13.707-7.663,17.213,1.035,3.963,4.206,5.112,4.184,9.442-.028,5.323-4.835,6.721-4.746,12.353.058,3.724,2.17,3.692,2.656,8.292.578,5.444-2.185,7.313-1.3,11.343.38,1.732,1.471,4,4.591,6.339-.23,1.653-.465,3.289-.709,4.895-.616.018-1.264.02-1.941,0-.457-.013-.9-.037-1.327-.066a84.048,84.048,0,0,1-2.767-8.925,85.925,85.925,0,0,1-1.922-10.447c-1.422-11.452.28-12.446-.876-20.933-1.023-7.516-2.5-7.814-4.218-18.486C821.764,2055.223,823.171,2053.49,823.857,2052.865Z" transform="translate(-776.442 -1960.41)" opacity="0.3" fill="url(#linear-gradient-70)" style="mix-blend-mode: multiply;isolation: isolate"/>
      <path id="Path_143150" data-name="Path 143150" d="M842.781,2056.5a226.908,226.908,0,0,0-31.274,66.519,4.07,4.07,0,0,1-2.223.339,4.143,4.143,0,0,1-2.513-1.365,65.365,65.365,0,0,1-.537-16.118,55.5,55.5,0,0,1,2.3-12.108c1.846-5.905,3.107-6.233,5.511-12.479,2.5-6.483,1.9-8.1,4.294-16.218a107.454,107.454,0,0,1,5.34-14.224Z" transform="translate(-783.358 -1960.731)" fill="url(#linear-gradient-71)"/>
      <path id="Path_143151" data-name="Path 143151" d="M866.369,2056.274a18.265,18.265,0,0,1-2.552,1.2c-6.627,2.529-13.684-.37-17.81-5.72-.089-.11-.172-.223-.253-.336-.051-.065-.1-.133-.146-.2-.068-.095-.133-.189-.2-.284-.79-1.15-1.666-2.55-1.877-2.439-.014.006-.066.024-.072.051,0,.006-.047.014-.047.024v0c0,.823,4.07,7.747,5.888,15.574.972,4.194.741,6.157,2.56,8.949.413.633.931,1.292.753,2.041-.449,1.874-4.731,2.362-7.7,2.7a69.258,69.258,0,0,1-8.957.28c-4.63-.07-4.995-.31-6.052.21-3.223,1.58-3,5.368-5.429,5.875-2.035.421-4.1-1.85-4.756-2.572-3.4-3.746-3.222-8.264-3.826-12.821-1.4-10.595-7.159-22.2-12.79-29.552-1.709-2.228-2.9-3.4-2.971-5.471-.216-6.078,9.416-12.791,17.434-13.56a60.022,60.022,0,0,1,9.826.2c1.473.14,3.044.345,4.732.639,4.093.715,6.941,1.214,9.843,2.543,11.71,5.355,6.25,12.549,18.922,20.795,4.357,2.834,11.5-6.086,11.436-3.614C872.266,2042.944,874.644,2051.535,866.369,2056.274Z" transform="translate(-785.772 -1973.441)" fill="url(#linear-gradient-72)"/>
      <path id="Path_143152" data-name="Path 143152" d="M819.589,2015.722a17.428,17.428,0,0,1-1.661,4.8c-1.046,1.806-5.371,2.454-6.272,2.767s1.36,1.884,3.764,2.452,9.436.941,10.814.185-.895-.99-2.55-1.859-2.206-4.4-1.695-5.908S819.589,2015.722,819.589,2015.722Z" transform="translate(-781.09 -1975.251)" fill="url(#linear-gradient-73)"/>
      <g id="Group_89712" data-name="Group 89712" transform="translate(36.488 34.2)">
        <path id="Path_143153" data-name="Path 143153" d="M822.369,2016.745c1.744-1.247,2.228-4.619,1.258-5.375-.277-.216-.541-.117-4.478,1.461-1.956.784-2.917,1.2-3.234,2.066a2.736,2.736,0,0,0,.051,1.8,6.879,6.879,0,0,0,.8,1.334c.423.609.394.588.524.765a9.563,9.563,0,0,0,2.013,1.97,6.631,6.631,0,0,1,.321-1.115,5.923,5.923,0,0,1,.712-1.326A6.663,6.663,0,0,1,822.369,2016.745Z" transform="translate(-815.787 -2011.285)" fill="url(#linear-gradient-74)"/>
        <path id="Path_143154" data-name="Path 143154" d="M817.665,2018.625a3.622,3.622,0,0,0,3.256,1.47c1.892-.207,1.984-4.475.732-5.326a2.4,2.4,0,0,0-1.884-.16c-.384.126-.509.293-1.141.486-.582.179-.752.122-.924.278-.213.2-.358.665.069,1.893a1.034,1.034,0,0,0-1.121-.314.653.653,0,0,0-.242.257C816.167,2017.708,816.638,2018.31,817.665,2018.625Z" transform="translate(-815.555 -2009.959)" fill="url(#linear-gradient-75)"/>
      </g>
      <path id="Path_143155" data-name="Path 143155" d="M854.242,2049.54a18.265,18.265,0,0,1-2.552,1.2c-6.627,2.529-13.684-.37-17.81-5.72-.089-.11-.172-.223-.253-.336-.051-.065-.1-.133-.146-.2-.068-.095-.133-.189-.2-.284-.79-1.15-1.666-2.55-1.877-2.439-.014.006-.024.024-.03.051l0,.024q-.954-1.5-1.909-2.992c.688-1.2,1.664-2.417,2.856-2.449,2.534-.064,3.187,5.278,7.546,8.788,2.616,2.109,4.722,2.071,10.015,3.262C851.155,2048.729,852.614,2049.085,854.242,2049.54Z" transform="translate(-773.645 -1966.707)" opacity="0.3" fill="url(#linear-gradient-76)" style="mix-blend-mode: multiply;isolation: isolate"/>
      <path id="Path_143156" data-name="Path 143156" d="M810.519,2074.583c-3.207.285-10.422.416-15.526-4.305-8.5-7.861-4.281-22.822-1.324-29.257,3.391-7.378,8.788-11.506,12.067-14.016,4.069-3.114,6.552-5.013,9.54-4.588,7.728,1.1,13.081,16.938,8.838,21.472-1.389,1.485-2.765.644-6.783,1.925-1.309.417-11.078,3.528-12.78,10.723-1.19,5.036,1.842,10.932,7.235,14.892Z" transform="translate(-789.97 -1972.508)" fill="url(#linear-gradient-77)"/>
      <path id="Path_143157" data-name="Path 143157" d="M844.689,2067.538c-3.628-2.294-4.165-4.617-8.23-6.189-5.279-2.039-7.816.552-10.433-1.541-3.115-2.49-.358-6.829-2.688-14.358-.4-1.279-3.4-10.985-10.3-12.221-3.215-.577-7.463.654-9.1,3.379-1.281,2.133-.088,3.721-1.645,6.076s-3.416,1.777-5.4,3.74c-3.149,3.115-3.632,9.686-.789,13.4,1.327,1.732,3.05,2.418,6.294,3.707a30.539,30.539,0,0,0,5.407,1.589c-3.972-3.812-6.032-8.728-5.016-13.02,1.06-4.486,5.255-7.384,8.582-9.031a62.744,62.744,0,0,1,6.955,20.364c.6,4.558.423,9.075,3.826,12.822.654.722,2.721,2.995,4.757,2.571,2.424-.5,2.206-4.293,5.427-5.875,1.057-.519,1.423-.279,6.055-.21a68.6,68.6,0,0,0,8.959-.28c2.644-.3,6.321-.721,7.417-2.129A19.32,19.32,0,0,1,844.689,2067.538Z" transform="translate(-788.21 -1968.072)" opacity="0.3" fill="url(#linear-gradient-78)" style="mix-blend-mode: multiply;isolation: isolate"/>
      <g id="Group_89713" data-name="Group 89713" transform="translate(17.051)">
        <path id="Path_143158" data-name="Path 143158" d="M871.957,2035.834l-63.849,43.708a3.481,3.481,0,0,1-4.767-.771l-.684-.936a3.259,3.259,0,0,1,.844-4.632l1.278-.867,51.967-35.329,10.682-7.263Z" transform="translate(-802.034 -1969.455)" fill="url(#linear-gradient)"/>
        <path id="Path_143159" data-name="Path 143159" d="M904.248,2060.646c-17.362,12.293-41.484,7.812-53.858-10.6-12.672-18.852-7.908-44.536,10.609-56.748,18.183-11.992,42.22-6.027,53.736,12.732C925.99,2024.365,921.31,2048.564,904.248,2060.646Zm-3.33-5.187c14.421-10.156,18.357-30.574,8.815-46-9.727-15.732-29.92-20.641-45.133-10.546-15.448,10.25-19.444,31.715-8.9,47.51C866.03,2061.9,886.283,2065.766,900.918,2055.458Z" transform="translate(-784.979 -1987.088)" fill="url(#linear-gradient-80)"/>
        <path id="Path_143160" data-name="Path 143160" d="M871.957,2035.834l-63.849,43.708a3.481,3.481,0,0,1-4.767-.771l-.684-.936a3.259,3.259,0,0,1,.844-4.632l1.275-.871,0,0c3.136,3.15,5.207,3.6,6.595,3.247,3.249-.824,2.287-5.861,7.215-9.868,4.873-3.963,8.81-1.477,14.337-5.884,3.345-2.668,2.151-3.776,5.549-7.162,6.773-6.749,13.8-4.632,17.017-9.59a9.29,9.29,0,0,0,1.254-6.073l10.682-7.263Z" transform="translate(-802.034 -1969.455)" fill="#d8dee8" opacity="0.6" style="mix-blend-mode: multiply;isolation: isolate"/>
        <path id="Path_143161" data-name="Path 143161" d="M905.558,2061.592c-17.362,12.295-41.484,7.812-53.858-10.6-12.672-18.852-7.908-44.534,10.609-56.747,18.184-11.992,42.22-6.028,53.736,12.73C927.3,2025.311,922.621,2049.511,905.558,2061.592Zm-3.33-5.186c14.421-10.158,18.357-30.575,8.815-46.005-9.727-15.731-29.92-20.641-45.133-10.547-15.448,10.25-19.444,31.715-8.9,47.51C867.34,2062.85,887.593,2066.713,902.228,2056.407Z" transform="translate(-784.437 -1986.696)" fill="url(#linear-gradient-81)"/>
        <path id="Path_143162" data-name="Path 143162" d="M903.708,2059.083c-16.4,11.591-39.153,7.323-50.8-10.052-11.913-17.769-7.422-41.956,10.005-53.473,17.131-11.323,39.807-5.735,50.695,11.951C924.257,2024.816,919.84,2047.682,903.708,2059.083Zm-2.155-3.355c14.421-10.158,18.357-30.575,8.815-46.005-9.727-15.731-29.92-20.641-45.133-10.547-15.448,10.25-19.444,31.715-8.9,47.51C866.665,2062.171,886.917,2066.034,901.552,2055.728Z" transform="translate(-783.762 -1986.017)" fill="url(#linear-gradient-82)"/>
      </g>
      <path id="Path_143163" data-name="Path 143163" d="M804.7,2059.655l.714-1.774a3.652,3.652,0,0,0,2.121-.615,2.755,2.755,0,0,1,1.716-.409c.269.073,1.283.03.126.581s-1.148.962-.664,1.416a8.391,8.391,0,0,0,2.977,1.474c.661.047-.533,1.069-1.2,1.2a4.108,4.108,0,0,1-3.111-.5C806.887,2060.736,804.7,2059.655,804.7,2059.655Z" transform="translate(-783.881 -1958.256)" fill="url(#linear-gradient-83)"/>
      <path id="Path_143164" data-name="Path 143164" d="M846.387,2038.723c1.757-1.21,2.03-3.84,4.613-4.025,0,0,2.15-.52,1.063,1.86S845.727,2040.75,846.387,2038.723Z" transform="translate(-766.673 -1967.427)" fill="url(#linear-gradient-84)"/>
    </g>
    <g id="Group_89716" data-name="Group 89716" transform="translate(1010.457 1992.99)">
      <path id="Path_143165" data-name="Path 143165" d="M963.938,2000.921a18.892,18.892,0,0,1-19.544,19.266c-11.41-.351-21.007-10.206-21.007-22a18.837,18.837,0,0,1,21.007-19.165A22.262,22.262,0,0,1,963.938,2000.921Z" transform="translate(-923.387 -1977.966)" fill="url(#linear-gradient-85)"/>
      <path id="Path_143166" data-name="Path 143166" d="M966.034,2000.252a18.89,18.89,0,0,1-19.543,19.264c-11.411-.351-21.008-10.2-21.008-22a18.839,18.839,0,0,1,21.008-19.167A22.265,22.265,0,0,1,966.034,2000.252Z" transform="translate(-922.521 -1978.242)" fill="url(#linear-gradient-86)"/>
      <path id="Path_143167" data-name="Path 143167" d="M964.883,1999.918A18.027,18.027,0,0,1,946.2,2018.3c-10.881-.352-20.017-9.758-20.017-20.994a17.979,17.979,0,0,1,20.017-18.295A21.243,21.243,0,0,1,964.883,1999.918Z" transform="translate(-922.231 -1977.965)" fill="url(#linear-gradient-87)"/>
      <path id="Path_143168" data-name="Path 143168" d="M964.061,1999.679a17.411,17.411,0,0,1-18.066,17.756,20.393,20.393,0,0,1-19.311-20.276,17.366,17.366,0,0,1,19.311-17.673A20.517,20.517,0,0,1,964.061,1999.679Z" transform="translate(-922.024 -1977.768)" fill="url(#linear-gradient-62)"/>
      <g id="Group_89715" data-name="Group 89715" transform="translate(14.599 5.164)">
        <path id="Path_143169" data-name="Path 143169" d="M942.984,1981.9h0a1.1,1.1,0,0,1,.975,1.083v1.867a27.372,27.372,0,0,1,3.237.563q1.193.279,2.373.668a1.089,1.089,0,0,1,.743,1.119l-.229,2.342a.878.878,0,0,1-1.254.728,13.386,13.386,0,0,0-1.591-.592,14.333,14.333,0,0,0-3-.561l-.276-.024v5.348a14.043,14.043,0,0,1,6.207,3.175,6.706,6.706,0,0,1,1.989,4.955,6.522,6.522,0,0,1-2.2,5.152,10.031,10.031,0,0,1-6.22,2.191v2.061a.939.939,0,0,1-.977.953h-.017a1.036,1.036,0,0,1-.979-1.033v-2.032l-.434-.02a28.637,28.637,0,0,1-3.6-.384,23.748,23.748,0,0,1-2.49-.573,1.075,1.075,0,0,1-.781-1.111l.27-3.009a.952.952,0,0,1,1.33-.786,19.408,19.408,0,0,0,2.191.719,19.152,19.152,0,0,0,3.5.585l.017-5.949a12.893,12.893,0,0,1-6.044-2.965,6.793,6.793,0,0,1-2-5.047,5.9,5.9,0,0,1,2.171-4.9,9.626,9.626,0,0,1,6.118-1.709V1982.8A.881.881,0,0,1,942.984,1981.9Zm-.978,7.137a3.288,3.288,0,0,0-1.949.688,2,2,0,0,0-.7,1.6,2.154,2.154,0,0,0,.647,1.6,4.581,4.581,0,0,0,2,1.021Zm1.73,10.771v5.456a3.021,3.021,0,0,0,2.086-.649,2.335,2.335,0,0,0,.725-1.836,2.51,2.51,0,0,0-.674-1.795A4.975,4.975,0,0,0,943.735,1999.809Z" transform="translate(-933.716 -1981.896)" fill="url(#linear-gradient-89)"/>
      </g>
      <path id="Path_143170" data-name="Path 143170" d="M942.726,2002.133c.609-6.03,6.151-8.581,5.427-14.127-.445-3.417-3.036-6.3-5.926-8.547a17.367,17.367,0,0,0-15.543,17.67,20.393,20.393,0,0,0,19.311,20.276,18.2,18.2,0,0,0,2.984-.146C944.808,2013.109,942.2,2007.312,942.726,2002.133Z" transform="translate(-922.024 -1977.739)" opacity="0.3" fill="url(#linear-gradient-90)" style="mix-blend-mode: multiply;isolation: isolate"/>
    </g>
  </g>
</svg>
