<svg xmlns="http://www.w3.org/2000/svg" width="93.702" height="120" viewBox="0 0 93.702 120">
  <g id="t2-ic2" transform="translate(-56.097)">
    <g id="_000000ff" data-name="#000000ff" transform="translate(56.097)">
      <path id="Path_178624" data-name="Path 178624" d="M102.108,0h1.465A29.957,29.957,0,0,1,122.7,7.46a25.586,25.586,0,0,0,2.963,2.627,37.628,37.628,0,0,1,12.874,13.39,45.369,45.369,0,0,1,5.508,16.411,3.2,3.2,0,0,1-.253,2.374c-1.343,1.845-2.941,3.506-4.23,5.386.049,1.711.8,3.34.811,5.058-.04.72-.663,1.193-1.2,1.577a35.567,35.567,0,0,1-14.653,5.505,27.581,27.581,0,0,1-6.663,6.71c0,.42,0,.839.007,1.261a30.063,30.063,0,0,1,14.545,10.617c.466.591.769,1.453,1.584,1.636,2.564.787,5.252,1.341,7.561,2.773a16.94,16.94,0,0,1,8.236,14.243q.021,10.564,0,21.127A1.861,1.861,0,0,1,148.352,120h-.586a1.912,1.912,0,0,1-1.5-1.744q.018-10.61,0-21.22A13.373,13.373,0,0,0,139.73,85.8a16.929,16.929,0,0,0-4.167-1.664,6.838,6.838,0,0,1,.483,4.758,25.481,25.481,0,0,1-2.648,4.38c1.641,1.652,3.3,3.286,4.943,4.941a5.55,5.55,0,0,1,1.7,4.193,24.215,24.215,0,0,1-.626,3.34c-.9,4.17-1.83,8.334-2.714,12.509A2.114,2.114,0,0,1,135.237,120h-.687a2.02,2.02,0,0,1-1.453-1.76c1.095-5.116,2.241-10.223,3.335-15.34a2.188,2.188,0,0,0-.591-2.208q-2.735-2.77-5.513-5.5a2.041,2.041,0,0,1-.82-2.306c.858-1.652,2.1-3.075,3.012-4.7a2.538,2.538,0,0,0-.026-2.2,23.175,23.175,0,0,0-4.366-7.322,27.715,27.715,0,0,0-10.287-7.146,10.748,10.748,0,0,0,.441,3.687,8.126,8.126,0,0,0,2,3.082,23.754,23.754,0,0,1,4.913,7.313,1.865,1.865,0,0,1-.966,2.4,1.9,1.9,0,0,1-2-.637c-.56-.886-.94-1.87-1.474-2.77-1.467,1.744-2.911,3.506-4.378,5.25a5.57,5.57,0,0,1-4.526,2.034,7.393,7.393,0,0,1-2.412-.626,7.3,7.3,0,0,1-1.8,2.986q1.346,12.013,2.716,24.021A2,2,0,0,1,108.947,120h-.68a1.986,1.986,0,0,1-1.467-1.748q-1.262-11.338-2.562-22.673c-.863,0-1.725,0-2.588.012-.846,7.554-1.718,15.105-2.552,22.662A2.05,2.05,0,0,1,97.688,120H97a1.953,1.953,0,0,1-1.465-1.741q1.364-12.013,2.714-24.026a7.258,7.258,0,0,1-1.793-2.984,5.66,5.66,0,0,1-6.935-1.406c-1.47-1.746-2.918-3.509-4.385-5.255a21.139,21.139,0,0,0-2.977,11.018c0,7.552-.012,15.1.007,22.652A2,2,0,0,1,80.792,120H80.1a1.941,1.941,0,0,1-1.472-1.76c.04-7.54.007-15.08.019-22.617A24.3,24.3,0,0,1,85.05,78.9a10.482,10.482,0,0,0,2.384-3.225,9.931,9.931,0,0,0,.623-4.148c-6.642,2.655-12.466,7.92-14.768,14.81a2.209,2.209,0,0,0,.082,1.842c.891,1.57,2.065,2.967,2.946,4.545a1.751,1.751,0,0,1-.408,2.1c-1.934,1.976-3.928,3.9-5.862,5.873a2.181,2.181,0,0,0-.577,2.224c1.095,5.107,2.238,10.207,3.328,15.316A2.084,2.084,0,0,1,71.4,120h-.7a2.073,2.073,0,0,1-1.5-1.748c-1.038-4.887-2.123-9.764-3.183-14.644a5.6,5.6,0,0,1,1.552-5.4q2.464-2.468,4.934-4.934c-1.024-1.744-2.616-3.284-2.864-5.374a7.733,7.733,0,0,1,.7-3.769,16.519,16.519,0,0,0-4.6,1.934,13.386,13.386,0,0,0-6.11,11.2q0,10.494.007,20.993A1.935,1.935,0,0,1,58.146,120h-.572a1.846,1.846,0,0,1-1.465-1.854c-.023-6.567,0-13.134-.012-19.7a23.231,23.231,0,0,1,.209-3.764,16.951,16.951,0,0,1,8.346-12.07c2.241-1.312,4.809-1.835,7.263-2.59.759-.169,1.057-.956,1.486-1.512A30,30,0,0,1,88.038,67.76c0-.42,0-.839,0-1.256a27.543,27.543,0,0,1-6.677-6.717,35.7,35.7,0,0,1-14.51-5.416c-.565-.4-1.252-.867-1.322-1.622-.007-1.734.764-3.377.806-5.1-1.291-1.875-2.878-3.539-4.228-5.377-.546-.68-.319-1.6-.253-2.391a44.807,44.807,0,0,1,6.57-18.145A37.148,37.148,0,0,1,80.236,10.1,9,9,0,0,0,82.008,8.59,29.958,29.958,0,0,1,102.108,0M95.243,4.666A26.571,26.571,0,0,0,78.8,19.24,27.964,27.964,0,0,0,76.533,31.9a2.512,2.512,0,0,1,1.58.459,1.777,1.777,0,0,1,.059,2.625,2.691,2.691,0,0,1-1.713.525A4.139,4.139,0,0,0,72.9,38.4a3.844,3.844,0,0,0,1.181,3.827,4.352,4.352,0,0,0,2.616,1.022,2.147,2.147,0,0,1,.987-1.7,1.76,1.76,0,0,1,2.583,1.343c.08,1.259-.021,2.524.089,3.783A22.79,22.79,0,0,0,95.576,66.405q-.042-3.213-.009-6.424a1.728,1.728,0,0,1,1.76-1.723c3.591-.021,7.184,0,10.774-.014a1.9,1.9,0,0,1,2.245,2.227c-.016,1.983.021,3.968-.03,5.951a23.057,23.057,0,0,0,8.161-4.973A22.792,22.792,0,0,0,125.6,45.708c.059-1.013-.059-2.034.08-3.042a1.757,1.757,0,0,1,2.674-1.031,2.334,2.334,0,0,1,.851,1.615,3.866,3.866,0,0,0,.745-7.669,13.062,13.062,0,0,1-1.8-.312,1.77,1.77,0,0,1-.57-2.7,2.246,2.246,0,0,1,1.786-.67,28.829,28.829,0,0,0-1.439-10.566A26.423,26.423,0,0,0,95.243,4.666M65.318,40.695c1.338,1.62,2.632,3.277,3.963,4.9a2.382,2.382,0,0,1,.764,1.732c-.216,1.472-.579,2.918-.844,4.38a32.017,32.017,0,0,0,9.907,4.073,26.689,26.689,0,0,1-2.283-9.03,8.077,8.077,0,0,1-3.745-.952,7.323,7.323,0,0,1-.075-12.823,59.311,59.311,0,0,1,.183-6.258,30.517,30.517,0,0,1,2.032-8.086,39.646,39.646,0,0,0-9.9,22.062M130.681,18.64a31.072,31.072,0,0,1,2.063,8.562c.19,1.92.127,3.848.143,5.775a8.218,8.218,0,0,1,2.59,2.468,7.3,7.3,0,0,1-.487,8.524,7.611,7.611,0,0,1-5.93,2.77,27.023,27.023,0,0,1-2.3,9.077,32.341,32.341,0,0,0,9.956-4.1c-.277-1.392-.584-2.78-.83-4.174a1.787,1.787,0,0,1,.41-1.516c1.392-1.786,2.866-3.509,4.235-5.311a14.538,14.538,0,0,0-.382-2.888,39.1,39.1,0,0,0-9.471-19.191m-31.6,47.208a3.87,3.87,0,0,0,7.671.49c.164-1.516.03-3.049.073-4.573H99.073c.012,1.362-.028,2.723.012,4.083m-7.54,7.073c-.012.352-.021.705-.035,1.062,3.825,2.161,7.629,4.355,11.445,6.532q5.713-3.277,11.435-6.534c-.014-.352-.026-.7-.035-1.05.021-1.467.009-2.932,0-4.4a30.8,30.8,0,0,1-5.93,2.046,7.528,7.528,0,0,1-4.043,2.285,7.266,7.266,0,0,1-6.281-1.7,2.487,2.487,0,0,0-1.252-.769,26.491,26.491,0,0,1-5.311-1.859c-.009,1.462-.019,2.925,0,4.387m-1.062,4.608a16.069,16.069,0,0,1-3.173,4.139q2.31,2.76,4.605,5.531a2.326,2.326,0,0,0,1.882,1.13c.82.077,1.416-.558,1.941-1.088q2.141-2.166,4.308-4.308c-3.195-1.791-6.326-3.694-9.562-5.4m15.448,5.409c1.512,1.648,3.148,3.178,4.716,4.772a1.983,1.983,0,0,0,3-.127c1.666-1.959,3.3-3.952,4.945-5.925a16.034,16.034,0,0,1-3.2-4.177c-3.141,1.84-6.349,3.57-9.459,5.456M100.008,88c-.274.3-.694.6-.48,1.062.3,1.106.6,2.585,1.9,2.9a13.5,13.5,0,0,0,3.061-.009c1.287-.321,1.6-1.791,1.887-2.895.209-.462-.2-.764-.478-1.055-.989-.968-1.964-1.952-2.944-2.927C101.97,86.051,101,87.033,100.008,88Z" transform="translate(-56.097)"/>
      <path id="Path_178625" data-name="Path 178625" d="M233.819,72.158c2.559-.138,5.133-.026,7.7-.059a1.806,1.806,0,0,1,1.936,1.38,1.749,1.749,0,0,1-1.7,2.121q-3.755.032-7.512,0a1.746,1.746,0,0,1-.422-3.445Z" transform="translate(-191.134 -55.192)"/>
      <path id="Path_178626" data-name="Path 178626" d="M210.021,104.205c6.077-.059,12.157,0,18.234-.028a2.583,2.583,0,0,1,1.887.455,1.766,1.766,0,0,1,.026,2.59,2.2,2.2,0,0,1-1.673.478c-6.1-.016-12.19.012-18.284-.014a1.744,1.744,0,0,1-.19-3.48Z" transform="translate(-172.727 -79.76)"/>
      <path id="Path_178627" data-name="Path 178627" d="M194.411,138.026c2.337-.546,4.65-1.2,6.991-1.718a1.755,1.755,0,0,1,1.774,2.592c-.755,1.155-2.353,1.008-3.523,1.439-.045.858.185,1.859-.415,2.576a1.766,1.766,0,0,1-2.672.016,2.694,2.694,0,0,1-.469-1.7,8.8,8.8,0,0,1-2.18.424,1.765,1.765,0,0,1-1.324-2.573A2.4,2.4,0,0,1,194.411,138.026Z" transform="translate(-160.437 -104.335)"/>
      <path id="Path_178628" data-name="Path 178628" d="M272.939,136.988a1.8,1.8,0,0,1,1.966-.6c2.414.609,4.835,1.2,7.247,1.816a1.779,1.779,0,0,1,1.437,1.559,1.746,1.746,0,0,1-1.767,1.912,12.429,12.429,0,0,1-1.938-.424,2.742,2.742,0,0,1-.469,1.7,1.764,1.764,0,0,1-2.557.105c-.738-.7-.487-1.8-.532-2.7a26.869,26.869,0,0,1-2.81-.762A1.752,1.752,0,0,1,272.939,136.988Z" transform="translate(-221.839 -104.36)"/>
      <path id="Path_178629" data-name="Path 178629" d="M204.518,193.18a7.717,7.717,0,0,1,3.806-.8c3.778.023,7.556-.033,11.332.028A7.389,7.389,0,0,1,226.488,200a1.757,1.757,0,0,1-1.784,1.526c-1.943.021-3.886.028-5.827-.007a7.547,7.547,0,0,1-5.393-2.58,7.558,7.558,0,0,1-5.416,2.58c-1.941.033-3.881.028-5.822.007a1.748,1.748,0,0,1-1.77-1.533,7.339,7.339,0,0,1,4.041-6.811m-.171,4.826c1.324,0,2.653.075,3.975-.035a4.14,4.14,0,0,0,3.021-2.058c-1.317-.012-2.637-.059-3.949.016a4.115,4.115,0,0,0-3.047,2.077m11.276-2.093a4.128,4.128,0,0,0,3.04,2.063c1.315.1,2.637.033,3.956.033a4.157,4.157,0,0,0-2.766-2.037A38.569,38.569,0,0,0,215.622,195.913Z" transform="translate(-166.63 -147.287)"/>
      <path id="Path_178630" data-name="Path 178630" d="M344.588,393.813c.157-.719.865-1.078,1.493-1.312a2.355,2.355,0,0,1,1.605.806,4.377,4.377,0,0,1,.375,2.142c.023,7.767-.019,15.532.021,23.3a1.979,1.979,0,0,1-1.427,1.76h-.67a1.941,1.941,0,0,1-1.441-1.741c.021-7.39.007-14.777.009-22.165A18.156,18.156,0,0,1,344.588,393.813Z" transform="translate(-276.913 -300.508)"/>
    </g>
    <g id="_f5ce8eff" data-name="#f5ce8eff" transform="translate(72.776 3.519)">
      <path id="Path_178631" data-name="Path 178631" d="M149.728,16.16a26.423,26.423,0,0,1,32.688,16.671A28.829,28.829,0,0,1,183.856,43.4a2.246,2.246,0,0,0-1.786.67,1.77,1.77,0,0,0,.57,2.7,13.061,13.061,0,0,0,1.8.312,3.866,3.866,0,0,1-.745,7.669,2.334,2.334,0,0,0-.851-1.615,1.757,1.757,0,0,0-2.674,1.031c-.138,1.008-.021,2.03-.08,3.042a22.792,22.792,0,0,1-7.123,15.741,23.057,23.057,0,0,1-8.161,4.973c.052-1.983.014-3.968.03-5.951a1.9,1.9,0,0,0-2.245-2.227c-3.591.019-7.184-.007-10.774.014a1.728,1.728,0,0,0-1.76,1.723q-.032,3.21.009,6.424a22.79,22.79,0,0,1-15.223-19.737c-.11-1.259-.009-2.524-.089-3.783a1.76,1.76,0,0,0-2.583-1.343,2.147,2.147,0,0,0-.987,1.7,4.352,4.352,0,0,1-2.616-1.022,3.844,3.844,0,0,1-1.181-3.827,4.139,4.139,0,0,1,3.56-2.89,2.691,2.691,0,0,0,1.713-.525,1.777,1.777,0,0,0-.059-2.625,2.512,2.512,0,0,0-1.58-.459,27.965,27.965,0,0,1,2.269-12.659A26.571,26.571,0,0,1,149.728,16.16m3.539,12.3a1.746,1.746,0,0,0,.422,3.445q3.755.025,7.512,0a1.749,1.749,0,0,0,1.7-2.121,1.806,1.806,0,0,0-1.936-1.38c-2.566.033-5.14-.08-7.7.059m-5.391,7.479a1.744,1.744,0,0,0,.19,3.48c6.094.026,12.188,0,18.284.014a2.2,2.2,0,0,0,1.673-.478,1.766,1.766,0,0,0-.026-2.59,2.583,2.583,0,0,0-1.887-.455c-6.077.028-12.157-.03-18.234.028m-3.321,9.246a2.4,2.4,0,0,0-1.816,1.052,1.765,1.765,0,0,0,1.324,2.573,8.8,8.8,0,0,0,2.18-.424,2.694,2.694,0,0,0,.469,1.7,1.766,1.766,0,0,0,2.672-.016c.6-.717.37-1.718.415-2.576,1.17-.431,2.768-.284,3.523-1.439a1.755,1.755,0,0,0-1.774-2.592c-2.341.516-4.655,1.172-6.991,1.718m17.126-1.064a1.752,1.752,0,0,0,.577,2.616,26.867,26.867,0,0,0,2.81.762c.045.9-.206,2,.532,2.7a1.764,1.764,0,0,0,2.557-.105,2.742,2.742,0,0,0,.469-1.7,12.428,12.428,0,0,0,1.938.424,1.746,1.746,0,0,0,1.767-1.913,1.779,1.779,0,0,0-1.437-1.559c-2.412-.621-4.833-1.207-7.247-1.816a1.8,1.8,0,0,0-1.966.6M148.47,57.387a7.339,7.339,0,0,0-4.041,6.811,1.748,1.748,0,0,0,1.77,1.533c1.941.021,3.881.026,5.822-.007a7.558,7.558,0,0,0,5.416-2.58,7.547,7.547,0,0,0,5.393,2.58c1.941.035,3.884.028,5.827.007A1.757,1.757,0,0,0,170.44,64.2a7.389,7.389,0,0,0-6.832-7.591c-3.776-.061-7.554,0-11.332-.028A7.717,7.717,0,0,0,148.47,57.387Z" transform="translate(-127.261 -15.012)" fill="#f5ce8e"/>
      <path id="Path_178632" data-name="Path 178632" d="M207.225,311.13c1.549.176,2.958.9,4.474,1.209a29.8,29.8,0,0,0,16.725-.867,11.405,11.405,0,0,1,1.61-.333c.009.349.021.7.035,1.05q-5.72,3.259-11.435,6.534c-3.816-2.177-7.62-4.371-11.445-6.532C207.2,311.835,207.213,311.482,207.225,311.13Z" transform="translate(-188.457 -241.727)" fill="#f5ce8e"/>
    </g>
    <g id="_b5b0b6ff" data-name="#b5b0b6ff" transform="translate(65.318 18.633)">
      <path id="Path_178633" data-name="Path 178633" d="M95.44,101.562a39.646,39.646,0,0,1,9.9-22.062,30.517,30.517,0,0,0-2.032,8.086,59.311,59.311,0,0,0-.183,6.258,7.323,7.323,0,0,0,.075,12.823,8.078,8.078,0,0,0,3.745.952,26.689,26.689,0,0,0,2.283,9.03,32.018,32.018,0,0,1-9.907-4.073c.265-1.463.628-2.909.844-4.38a2.382,2.382,0,0,0-.764-1.732C98.072,104.838,96.778,103.181,95.44,101.562Z" transform="translate(-95.44 -79.5)" fill="#afafaf"/>
      <path id="Path_178634" data-name="Path 178634" d="M361.519,79.53a39.106,39.106,0,0,1,9.471,19.191,14.541,14.541,0,0,1,.382,2.887c-1.369,1.8-2.843,3.525-4.235,5.311a1.787,1.787,0,0,0-.41,1.516c.246,1.395.553,2.782.83,4.174a32.341,32.341,0,0,1-9.956,4.1,27.022,27.022,0,0,0,2.3-9.077,7.611,7.611,0,0,0,5.93-2.77,7.3,7.3,0,0,0,.488-8.524,8.218,8.218,0,0,0-2.59-2.468c-.016-1.927.047-3.855-.143-5.775A31.075,31.075,0,0,0,361.519,79.53Z" transform="translate(-296.156 -79.523)" fill="#afafaf"/>
      <path id="Path_178635" data-name="Path 178635" d="M217.02,209.481a4.115,4.115,0,0,1,3.047-2.077c1.313-.075,2.632-.028,3.949-.016A4.14,4.14,0,0,1,221,209.445C219.673,209.556,218.344,209.483,217.02,209.481Z" transform="translate(-188.525 -177.395)" fill="#afafaf"/>
      <path id="Path_178636" data-name="Path 178636" d="M265.13,207.372a38.587,38.587,0,0,1,4.23.059,4.157,4.157,0,0,1,2.766,2.037c-1.32,0-2.641.07-3.956-.033A4.128,4.128,0,0,1,265.13,207.372Z" transform="translate(-225.359 -177.379)" fill="#afafaf"/>
      <path id="Path_178637" data-name="Path 178637" d="M239.451,267.613c-.04-1.359,0-2.721-.012-4.083h7.755c-.042,1.523.091,3.056-.073,4.573a3.87,3.87,0,0,1-7.671-.49Z" transform="translate(-205.684 -220.398)" fill="#afafaf"/>
      <path id="Path_178638" data-name="Path 178638" d="M192.443,330.79c3.237,1.711,6.368,3.614,9.562,5.4q-2.169,2.141-4.308,4.308c-.525.53-1.12,1.165-1.941,1.088a2.326,2.326,0,0,1-1.882-1.13q-2.292-2.774-4.605-5.531A16.069,16.069,0,0,0,192.443,330.79Z" transform="translate(-167.279 -271.894)" fill="#f6f6eb"/>
      <path id="Path_178639" data-name="Path 178639" d="M268.72,336.046c3.11-1.887,6.319-3.616,9.459-5.456a16.035,16.035,0,0,0,3.2,4.177c-1.648,1.973-3.279,3.966-4.945,5.925a1.983,1.983,0,0,1-3,.127C271.868,339.224,270.232,337.694,268.72,336.046Z" transform="translate(-228.108 -271.741)" fill="#f6f6eb"/>
      <path id="Path_178640" data-name="Path 178640" d="M167.3,371.928a21.139,21.139,0,0,1,2.977-11.018c1.467,1.746,2.916,3.509,4.385,5.255a5.66,5.66,0,0,0,6.935,1.406,7.257,7.257,0,0,0,1.793,2.984q-1.343,12.016-2.714,24.026-6.683-.021-13.369,0C167.289,387.029,167.3,379.48,167.3,371.928Z" transform="translate(-150.456 -294.955)" fill="#f6f6eb"/>
      <path id="Path_178641" data-name="Path 178641" d="M284.755,366.18c1.467-1.744,2.911-3.506,4.378-5.25.534.9.914,1.884,1.474,2.77a1.9,1.9,0,0,0,2,.638,22.51,22.51,0,0,1,1.038,3.991c-.628.234-1.336.593-1.493,1.313a18.148,18.148,0,0,0-.035,2.789c0,7.388.012,14.775-.009,22.165q-6.683-.021-13.369,0-1.361-12.009-2.716-24.021a7.3,7.3,0,0,0,1.8-2.986,7.394,7.394,0,0,0,2.412.626A5.57,5.57,0,0,0,284.755,366.18Z" transform="translate(-233.697 -294.97)" fill="#f6f6eb"/>
    </g>
    <path id="Path_178642" data-name="Path 178642" d="M207.3,296.79c-.021-1.463-.012-2.925,0-4.388a26.488,26.488,0,0,0,5.311,1.859,2.487,2.487,0,0,1,1.252.769,7.266,7.266,0,0,0,6.281,1.7,7.528,7.528,0,0,0,4.043-2.285,30.8,30.8,0,0,0,5.93-2.046c0,1.467.016,2.932,0,4.4a11.415,11.415,0,0,0-1.61.333,29.8,29.8,0,0,1-16.725.867C210.256,297.685,208.848,296.966,207.3,296.79Z" transform="translate(-115.754 -223.869)" fill="#c68f68"/>
    <path id="Path_178643" data-name="Path 178643" d="M77.239,360.874a16.523,16.523,0,0,1,4.6-1.934,7.733,7.733,0,0,0-.7,3.769c.248,2.091,1.84,3.63,2.864,5.374q-2.464,2.468-4.934,4.934a5.6,5.6,0,0,0-1.552,5.4c1.059,4.88,2.145,9.757,3.183,14.644-3.19,0-6.38-.012-9.57,0q-.025-10.5-.007-20.993A13.387,13.387,0,0,1,77.239,360.874Z" transform="translate(-11.506 -274.813)" fill="#f9b131"/>
    <path id="Path_178644" data-name="Path 178644" d="M388.076,358.96a16.93,16.93,0,0,1,4.167,1.664,13.373,13.373,0,0,1,6.539,11.241q.025,10.61,0,21.22c-3.19-.016-6.38-.007-9.57,0,.884-4.174,1.812-8.339,2.714-12.509a24.228,24.228,0,0,0,.626-3.34,5.55,5.55,0,0,0-1.7-4.193c-1.641-1.655-3.3-3.288-4.943-4.941a25.483,25.483,0,0,0,2.648-4.38A6.838,6.838,0,0,0,388.076,358.96Z" transform="translate(-252.513 -274.829)" fill="#f9b131"/>
    <path id="Path_178645" data-name="Path 178645" d="M116.677,319.98c2.3-6.891,8.126-12.155,14.768-14.81a9.93,9.93,0,0,1-.623,4.148,10.481,10.481,0,0,1-2.384,3.225,24.3,24.3,0,0,0-6.4,16.725c-.012,7.537.021,15.077-.019,22.617q-2.914-.011-5.831,0c-1.09-5.109-2.234-10.209-3.328-15.316a2.181,2.181,0,0,1,.577-2.224c1.934-1.978,3.928-3.9,5.862-5.873a1.751,1.751,0,0,0,.408-2.1c-.881-1.577-2.055-2.974-2.946-4.545A2.209,2.209,0,0,1,116.677,319.98Z" transform="translate(-43.388 -233.646)" fill="#f9c66b"/>
    <path id="Path_178646" data-name="Path 178646" d="M319.54,305.16a27.715,27.715,0,0,1,10.287,7.146,23.175,23.175,0,0,1,4.366,7.322,2.538,2.538,0,0,1,.026,2.2c-.909,1.622-2.154,3.045-3.012,4.7a2.041,2.041,0,0,0,.82,2.306q2.77,2.739,5.513,5.5a2.187,2.187,0,0,1,.591,2.208c-1.095,5.116-2.241,10.223-3.335,15.34q-2.914-.014-5.831,0c-.04-7.767,0-15.532-.021-23.3a4.377,4.377,0,0,0-.375-2.142,2.355,2.355,0,0,0-1.605-.806,22.514,22.514,0,0,0-1.038-3.991,1.865,1.865,0,0,0,.966-2.4,23.753,23.753,0,0,0-4.913-7.313,8.126,8.126,0,0,1-2-3.082A10.748,10.748,0,0,1,319.54,305.16Z" transform="translate(-201.699 -233.638)" fill="#f9c66b"/>
    <path id="Path_178647" data-name="Path 178647" d="M241.69,365.905c.989-.966,1.962-1.948,2.941-2.925.98.975,1.955,1.959,2.944,2.927.281.291.687.593.478,1.055-.288,1.1-.6,2.573-1.887,2.895a13.5,13.5,0,0,1-3.061.009c-1.3-.314-1.6-1.793-1.9-2.9C241,366.507,241.416,366.2,241.69,365.905Z" transform="translate(-141.682 -277.907)" fill="#38bdc2"/>
    <path id="Path_178648" data-name="Path 178648" d="M242.122,407.812c.862-.007,1.725-.009,2.587-.012q1.283,11.334,2.562,22.673-3.853-.014-7.7,0C240.4,422.917,241.276,415.366,242.122,407.812Z" transform="translate(-140.471 -312.222)" fill="#38bdc2"/>
  </g>
</svg>
