<svg xmlns="http://www.w3.org/2000/svg" width="51.668" height="50" viewBox="0 0 51.668 50">
  <g id="t3-ico3" transform="translate(0 -8.266)">
    <path id="Path_178682" data-name="Path 178682" d="M85.105,8.266q2.918,0,5.836,0c0,1.942,0,3.882,0,5.824-.557,0-1.113,0-1.669,0,0-.99,0-1.979,0-2.968Q80.1,20.272,70.946,29.439c-2.79-2.764-5.554-5.555-8.338-8.325q-4.712,4.7-9.416,9.405c-.394-.391-.78-.786-1.172-1.179L62.607,18.753q4.17,4.164,8.333,8.337,8.572-8.58,17.15-17.154c-1-.005-1.99,0-2.985,0Q85.1,9.1,85.105,8.266Z" transform="translate(-46.77)" fill="#f9b131"/>
    <path id="Path_178683" data-name="Path 178683" d="M41.671,123.867q4.163,0,8.327,0,.011,18.332.007,36.665h1.662V162.2H0V160.53H1.663c.012-3.888,0-7.777.006-11.666q4.163,0,8.327,0Q10,154.7,10,160.53c.551,0,1.1-.007,1.654.008.031-8.334,0-16.67.013-25.005,2.774-.006,5.548,0,8.322,0,.019,8.333,0,16.667.008,25,.556,0,1.112,0,1.668,0q0-10,0-19.993,4.17,0,8.339,0c.01,6.671-.016,13.343.013,20.013.551-.014,1.1,0,1.655-.008q0-15.836,0-31.672c2.776,0,5.551,0,8.327,0v31.657c.556,0,1.111,0,1.667,0q0-18.332,0-36.664m1.667,1.668c.005,11.667-.012,23.333.009,35,1.664-.009,3.329,0,4.993,0q0-17.5,0-35c-1.666,0-3.332,0-5,0m-10.01,5.006c.013,10-.02,20.007.016,30.009,1.663-.021,3.326,0,4.988-.009q0-15,0-30c-1.668,0-3.336,0-5,0M13.334,137.2q0,11.665,0,23.329c1.669,0,3.338.013,5.006-.008q-.011-11.66,0-23.32-2.5-.006-5,0m10,5q0,9.168,0,18.336,2.5,0,5,0V142.2q-2.5,0-5,0M3.337,150.533q0,5,0,10c1.664.006,3.327-.009,4.99.007.032-3.333,0-6.668.014-10Q5.838,150.53,3.337,150.533Z" transform="translate(0 -103.934)" fill="#f9b131"/>
  </g>
</svg>
