<svg xmlns="http://www.w3.org/2000/svg" width="190.355" height="100.296" viewBox="0 0 190.355 100.296">
  <g id="t3-ic2" transform="translate(-180 -2430)">
    <g id="Group_117359" data-name="Group 117359" transform="translate(0 2027)">
      <path id="Path_178621" data-name="Path 178621" d="M1151.767,184.239l74.688-39.738a4.328,4.328,0,0,1,6.142,5.178L1214.88,203.3a4.327,4.327,0,0,1-5.134,2.847l-56.971-13.887A4.328,4.328,0,0,1,1151.767,184.239Z" transform="translate(-862.472 297.021)" fill="#e3fbfc"/>
      <path id="Path_178623" data-name="Path 178623" d="M1204.415,158.916l-50.625,26.936a2.933,2.933,0,0,1-4.163-3.51l12.009-36.349a2.933,2.933,0,0,1,3.48-1.93l38.617,9.413A2.934,2.934,0,0,1,1204.415,158.916Z" transform="translate(-952.221 259.021)" fill="#e3fbfc"/>
      <path id="Elipse_5709" data-name="Elipse 5709" d="M9.152-3.1A12.25,12.25,0,1,1-3.1,9.152,12.264,12.264,0,0,1,9.152-3.1Zm0,20.327A8.077,8.077,0,1,0,1.076,9.152,8.086,8.086,0,0,0,9.152,17.229Z" transform="translate(183.098 470.323)" fill="#fef3e0"/>
      <path id="Elipse_5709-2" data-name="Elipse 5709" d="M6.814-3.1A9.911,9.911,0,1,1-3.1,6.814,9.923,9.923,0,0,1,6.814-3.1Zm0,16.446A6.535,6.535,0,1,0,.279,6.814,6.542,6.542,0,0,0,6.814,13.348Z" transform="translate(337.775 410.775)" fill="#fef3e0"/>
    </g>
    <g id="negocios-y-finanzas" transform="translate(227 2421.964)">
      <g id="_000000ff" data-name="#000000ff" transform="translate(0 13.036)">
        <path id="Path_178684" data-name="Path 178684" d="M142.55,13.079a38.355,38.355,0,0,1,15.426,2.435,1.846,1.846,0,0,1-.124,3.543,2.428,2.428,0,0,1-1.535-.213,34.869,34.869,0,0,0-34.638,6.263,3.975,3.975,0,0,1-1.513,1.021,1.854,1.854,0,0,1-2.034-.9,1.833,1.833,0,0,1,.242-2.121A38.4,38.4,0,0,1,142.55,13.079Z" transform="translate(-96.098 -13.036)"/>
        <path id="Path_178685" data-name="Path 178685" d="M351.768,40.357a4.64,4.64,0,1,1-3.778,4.677,4.658,4.658,0,0,1,3.778-4.677m.553,3.667a.942.942,0,1,0,1.2,1.178A.949.949,0,0,0,352.321,44.024Z" transform="translate(-283.634 -35.239)"/>
        <path id="Path_178686" data-name="Path 178686" d="M368.086,43.286a1.853,1.853,0,0,1,2.228,1.4,1.946,1.946,0,0,1-.525,1.751q-7.525,8.652-15.042,17.307a1.879,1.879,0,0,1-2.141.56,1.857,1.857,0,0,1-1.121-2.055,3.362,3.362,0,0,1,.969-1.5q7.015-8.069,14.027-16.146C366.941,44.089,367.361,43.436,368.086,43.286Z" transform="translate(-286.458 -37.647)"/>
        <path id="Path_178687" data-name="Path 178687" d="M92.731,93.949a1.844,1.844,0,1,1-.257,3.214A1.856,1.856,0,0,1,92.731,93.949Z" transform="translate(-74.716 -78.845)"/>
        <path id="Path_178688" data-name="Path 178688" d="M38.305,106.1a1.866,1.866,0,0,1,2-1.8q8.139.025,16.281.057a1.859,1.859,0,0,1,1.884,1.9c.013,6.561,0,13.124.006,19.685,4.864.009,9.725-.009,14.589.009a1.866,1.866,0,0,1,1.886,1.958q.011,10.188,0,20.379a34.7,34.7,0,0,0,7.436-29.277,2.025,2.025,0,0,1,.719-2.315,1.851,1.851,0,0,1,2.794,1.054,38.612,38.612,0,0,1-1.28,20.969,37.773,37.773,0,0,1-9.672,14.951q0,2.011,0,4.022c3.349-.743,6.685-1.539,10.032-2.286a8.048,8.048,0,0,1,6.981,1.86,8.177,8.177,0,0,1,2.718,5.675v.884a8.3,8.3,0,0,1-2.271,5.072,8.213,8.213,0,0,1-4.057,2.276q-9.548,2.419-19.094,4.851a41.662,41.662,0,0,1-5.829,1.248,22.212,22.212,0,0,1-10.58-1.407q-13.886-5.445-27.77-10.892a4.02,4.02,0,0,0-1.592-.163c-1.931.011-3.861,0-5.794.006a8.966,8.966,0,0,1-.144,2.459,1.866,1.866,0,0,1-1.823,1.137c-4.629,0-9.259.011-13.888-.006A1.86,1.86,0,0,1,0,166.7V133.9a1.879,1.879,0,0,1,1.857-1.664c2.779-.015,5.559,0,8.338-.007a38.556,38.556,0,0,1,3.136-22.607,1.845,1.845,0,0,1,2.95-.4,2.024,2.024,0,0,1,.179,2.432,34.847,34.847,0,0,0-2.5,20.58c.7.006,1.4-.035,2.1.019a1.811,1.811,0,0,1,1.618,1.609c.065.9.006,1.814.026,2.72q2.058,0,4.118,0c.009-6.1-.011-12.2.009-18.3a1.841,1.841,0,0,1,1.846-1.846c4.875-.022,9.751,0,14.626-.009.009-3.44-.015-6.879.009-10.319M42,108q-.008,15.6,0,31.206,6.394,2.638,12.78,5.289,0-18.222,0-36.44c-4.259-.033-8.518-.02-12.775-.055M25.516,120.12q0,8.227,0,16.457c3.086,0,6.171.006,9.257,0,1.272-.078,2.363.69,3.521,1.1q0-8.777,0-17.551-6.388,0-12.778,0m32.957,9.529q0,8.752,0,17.5c-.035.338.224.592.366.873a8.394,8.394,0,0,1-.092,8.49c-.1.2-.274.387-.27.625-.018.884,0,1.768,0,2.652a19.642,19.642,0,0,0,3.663.355c3.116.022,6.108-.962,9.124-1.614-.022-9.627-.006-19.254-.009-28.882q-6.391-.008-12.78,0M3.7,135.924q-.006,14.4,0,28.8,5.148,0,10.3,0,0-14.4,0-28.8-5.148,0-10.3,0m14,4.353q0,10.421,0,20.845,3.548.006,7.1,0a5.419,5.419,0,0,1,2.084.6q12.735,4.993,25.472,9.986c.978.37,1.938.791,2.935,1.113a18.533,18.533,0,0,0,8.359.71c1.374-.187,2.7-.588,4.046-.91q10.005-2.546,20.009-5.093a4.361,4.361,0,0,0-2.09-8.468q-8.951,2.047-17.9,4.1a22.672,22.672,0,0,1-10.761.078,48.083,48.083,0,0,1-5.614-1.945c-5.087-1.94-10.164-3.906-15.243-5.86a1.847,1.847,0,0,1,.174-3.532,3.309,3.309,0,0,1,2,.409q5.42,2.08,10.84,4.168a5.415,5.415,0,0,0,2.84.531,4.807,4.807,0,0,0,3.983-3.122,4.652,4.652,0,0,0-1.076-5,5.226,5.226,0,0,0-1.871-1.128Q44.1,144.073,35.228,140.4a2.9,2.9,0,0,0-1.2-.126Q25.863,140.285,17.7,140.277Z" transform="translate(0 -87.419)"/>
        <path id="Path_178689" data-name="Path 178689" d="M407,112.9a4.64,4.64,0,1,1-3.48,4.337A4.651,4.651,0,0,1,407,112.9m.721,3.656a.943.943,0,1,0,1.359,1.028A.95.95,0,0,0,407.718,116.555Z" transform="translate(-328.891 -94.313)"/>
      </g>
      <path id="Path_178692" data-name="Path 178692" d="M20,275.33q5.148,0,10.3,0,0,14.4,0,28.8-5.148.006-10.3,0Q20,289.729,20,275.33Z" transform="translate(-16.3 -213.789)" fill="#f9b131"/>
      <g id="_f6838dff" data-name="#f6838dff" transform="translate(41.995 33.615)">
        <path id="Path_178693" data-name="Path 178693" d="M227.094,124.32c4.257.035,8.516.022,12.775.055q0,18.219,0,36.44-6.388-2.649-12.78-5.289Q227.093,139.923,227.094,124.32Z" transform="translate(-227.09 -124.32)" fill="#f6f6eb"/>
      </g>
      <g id="_60a4ffff" data-name="#60a4ffff" transform="translate(25.515 45.735)">
        <path id="Path_178694" data-name="Path 178694" d="M137.974,189.864q6.388,0,12.778,0,0,8.777,0,17.551c-1.158-.407-2.249-1.174-3.521-1.1-3.086.007-6.171,0-9.257,0Q137.971,198.093,137.974,189.864Z" transform="translate(-137.972 -189.862)" fill="#4df8ff"/>
      </g>
      <g id="_ffc15aff" data-name="#ffc15aff" transform="translate(58.469 55.265)">
        <path id="Path_178695" data-name="Path 178695" d="M316.182,241.4q6.391,0,12.78,0c0,9.627-.013,19.254.009,28.882-3.016.653-6.008,1.637-9.124,1.614a19.643,19.643,0,0,1-3.663-.355c0-.884-.017-1.768,0-2.652,0-.239.172-.423.27-.625a8.4,8.4,0,0,0,.092-8.49c-.142-.281-.4-.534-.366-.873Q316.182,250.149,316.182,241.4Z" transform="translate(-316.177 -241.396)" fill="#f9b131"/>
      </g>
      <g id="_ffd4beff" data-name="#ffd4beff" transform="translate(17.696 65.888)">
        <path id="Path_178696" data-name="Path 178696" d="M95.692,298.844q8.166-.006,16.334,0a2.9,2.9,0,0,1,1.2.126q8.871,3.689,17.753,7.354a5.226,5.226,0,0,1,1.871,1.128,4.652,4.652,0,0,1,1.076,5,4.807,4.807,0,0,1-3.983,3.122,5.415,5.415,0,0,1-2.84-.531q-5.423-2.083-10.84-4.168a3.309,3.309,0,0,0-2-.409,1.847,1.847,0,0,0-.174,3.532c5.08,1.955,10.156,3.92,15.243,5.86a48.085,48.085,0,0,0,5.614,1.945,22.672,22.672,0,0,0,10.761-.078q8.951-2.047,17.9-4.1a4.361,4.361,0,0,1,2.09,8.468q-10,2.558-20.009,5.093c-1.344.322-2.672.723-4.046.91a18.533,18.533,0,0,1-8.359-.71c-1-.322-1.957-.743-2.935-1.113q-12.738-4.987-25.472-9.986a5.418,5.418,0,0,0-2.084-.6q-3.551,0-7.1,0Q95.693,309.267,95.692,298.844Z" transform="translate(-95.69 -298.838)" fill="#f1d0a5"/>
      </g>
    </g>
  </g>
</svg>
