<svg xmlns="http://www.w3.org/2000/svg" width="49.97" height="50" viewBox="0 0 49.97 50">
  <g id="t3-ico4" transform="translate(-16.618 -16.25)">
    <path id="Path_178666" data-name="Path 178666" d="M40.592,16.265a25.375,25.375,0,0,1,20.527,9.36,23.66,23.66,0,0,1,3.6,6.024,25.4,25.4,0,0,1-3.047,24.569,28.474,28.474,0,0,1-3.082,3.512,23.045,23.045,0,0,1-4.289,3.12,24.842,24.842,0,0,1-34.775-9.915,25.459,25.459,0,0,1-1.865-19.021,25.466,25.466,0,0,1,7.92-11.775,25.169,25.169,0,0,1,15.009-5.875m-14.9,7.91q1.475,1.478,2.953,2.952a19.2,19.2,0,0,1,12.135-5.035q0-2.088,0-4.175a23.383,23.383,0,0,0-15.089,6.258m16.76-6.258c0,1.392,0,2.784,0,4.175A19.211,19.211,0,0,1,55.768,54.255q1.474,1.478,2.951,2.952a23.382,23.382,0,0,0-16.271-39.29M39.9,23.825A17.47,17.47,0,0,0,26.109,49.391a17.757,17.757,0,0,0,6.73,7.044,17.275,17.275,0,0,0,9.818,2.353A17.54,17.54,0,1,0,39.9,23.825M18.87,35.845a23.347,23.347,0,0,0,.4,12.345c1.318-.453,2.631-.919,3.949-1.372a19.331,19.331,0,0,1,4.239-18.51q-1.472-1.478-2.951-2.951A23.341,23.341,0,0,0,18.87,35.845m.957,13.917a23.359,23.359,0,0,0,37.708,8.626q-1.471-1.478-2.95-2.951A19.187,19.187,0,0,1,23.77,48.391C22.456,48.851,21.145,49.314,19.827,49.762Z" fill="#f9b131"/>
    <path id="Path_178667" data-name="Path 178667" d="M178.055,160.611a1.664,1.664,0,1,1,2.3,2.406,1.737,1.737,0,0,1-1.825.291q-1.734,1.244-3.473,2.48a1.757,1.757,0,0,1-.937,1.639,1.733,1.733,0,0,1-1.907-.263c-1.016.286-2.031.578-3.046.867a1.727,1.727,0,0,1-1.747,1.249,1.865,1.865,0,0,1-1.056-.445c-1.01.287-2.023.568-3.028.873a1.928,1.928,0,0,1-.957,1.106A1.664,1.664,0,1,1,161,167.785a1.724,1.724,0,0,1,1.863.307c1.015-.283,2.027-.577,3.041-.862a1.779,1.779,0,0,1,1.118-1.173,1.751,1.751,0,0,1,1.688.364c1.014-.282,2.024-.576,3.037-.861a1.852,1.852,0,0,1,.829-1.049,1.773,1.773,0,0,1,1.511-.08c1.15-.826,2.312-1.636,3.451-2.476A2.019,2.019,0,0,1,178.055,160.611Z" transform="translate(-128.431 -128.852)" fill="#f9b131"/>
    <path id="Path_178668" data-name="Path 178668" d="M148.289,216.923a.845.845,0,0,1,.824-.931q1.677-.014,3.356,0a.827.827,0,0,1,.827.824c.011,3.622,0,7.244.005,10.867.505.02,1.171-.137,1.5.368a.843.843,0,0,1-.762,1.3q-12.429,0-24.859,0a.844.844,0,0,1-.9-.723.828.828,0,0,1,.783-.941c.561-.02,1.122,0,1.684-.006.005-1.117-.008-2.234.005-3.352a.823.823,0,0,1,.822-.82q1.679-.013,3.359,0a.826.826,0,0,1,.822.827c.013,1.114,0,2.229,0,3.344h.835q0-2.456,0-4.911a.871.871,0,0,1,.359-.784,1.283,1.283,0,0,1,.783-.155c1.015.01,2.029-.007,3.042.008a.824.824,0,0,1,.822.824c.013,1.673,0,3.345.005,5.018h.835q0-3.29,0-6.581a.877.877,0,0,1,.354-.783,1.307,1.307,0,0,1,.8-.157c1.009.01,2.016-.006,3.025.007a.825.825,0,0,1,.8.628,5.134,5.134,0,0,1,.03.831q0,3.027,0,6.055h.835V216.923m1.671.734V227.68h1.671V217.657H149.96m-5.847,4.176v5.847h1.671v-5.847h-1.671m-5.847,1.671v4.176h1.671V223.5h-1.671m-5.847,1.671v2.506h1.671v-2.506Z" transform="translate(-99.995 -178.881)" fill="#f9b131"/>
  </g>
</svg>
