<svg id="t3-info1" xmlns="http://www.w3.org/2000/svg" xmlns:xlink="http://www.w3.org/1999/xlink" width="442.637" height="449.071" viewBox="0 0 442.637 449.071">
  <defs>
    <clipPath id="clip-path">
      <rect id="Rectangle_38080" data-name="Rectangle 38080" width="442.637" height="449.071" fill="none"/>
    </clipPath>
    <filter id="Path_182076" x="117.092" y="81.434" width="72.137" height="72.136" filterUnits="userSpaceOnUse">
      <feOffset dy="3" input="SourceAlpha"/>
      <feGaussianBlur stdDeviation="3" result="blur"/>
      <feFlood flood-opacity="0.161"/>
      <feComposite operator="in" in2="blur"/>
      <feComposite in="SourceGraphic"/>
    </filter>
    <filter id="Path_182091" x="259.888" y="81.434" width="72.138" height="72.136" filterUnits="userSpaceOnUse">
      <feOffset dy="3" input="SourceAlpha"/>
      <feGaussianBlur stdDeviation="3" result="blur-2"/>
      <feFlood flood-opacity="0.161"/>
      <feComposite operator="in" in2="blur-2"/>
      <feComposite in="SourceGraphic"/>
    </filter>
    <filter id="Path_182098" x="72.064" y="216.535" width="72.137" height="72.136" filterUnits="userSpaceOnUse">
      <feOffset dy="3" input="SourceAlpha"/>
      <feGaussianBlur stdDeviation="3" result="blur-3"/>
      <feFlood flood-opacity="0.161"/>
      <feComposite operator="in" in2="blur-3"/>
      <feComposite in="SourceGraphic"/>
    </filter>
    <filter id="Path_182108" x="304.917" y="216.535" width="72.137" height="72.136" filterUnits="userSpaceOnUse">
      <feOffset dy="3" input="SourceAlpha"/>
      <feGaussianBlur stdDeviation="3" result="blur-4"/>
      <feFlood flood-opacity="0.161"/>
      <feComposite operator="in" in2="blur-4"/>
      <feComposite in="SourceGraphic"/>
    </filter>
    <filter id="Path_182121" x="188.49" y="293.193" width="72.137" height="71.368" filterUnits="userSpaceOnUse">
      <feOffset dy="3" input="SourceAlpha"/>
      <feGaussianBlur stdDeviation="3" result="blur-5"/>
      <feFlood flood-opacity="0.161"/>
      <feComposite operator="in" in2="blur-5"/>
      <feComposite in="SourceGraphic"/>
    </filter>
  </defs>
  <g id="Group_118138" data-name="Group 118138" clip-path="url(#clip-path)">
    <path id="Path_182056" data-name="Path 182056" d="M231.814,31.13A201.37,201.37,0,0,1,413.688,163.2L231.814,222.3Z" fill="#a8fdff"/>
    <path id="Path_182057" data-name="Path 182057" d="M418.149,175.7a201.516,201.516,0,0,1-69.477,213.76L236.3,234.8Z" fill="#a8fdff"/>
    <path id="Path_182058" data-name="Path 182058" d="M336.956,398a201.479,201.479,0,0,1-224.772,0L224.558,243.32Z" fill="#a8fdff"/>
    <path id="Path_182059" data-name="Path 182059" d="M100.445,389.457A201.516,201.516,0,0,1,30.968,175.7l181.874,59.1Z" fill="#a8fdff"/>
    <path id="Path_182060" data-name="Path 182060" d="M35.43,161.915A201.37,201.37,0,0,1,217.3,29.842V221.013Z" fill="#a8fdff"/>
    <path id="Path_182061" data-name="Path 182061" d="M45.5,167.679a2.478,2.478,0,0,1-.773-.124l-21.3-6.926a2.5,2.5,0,0,1-1.576-3.23A215.78,215.78,0,0,1,206.149,16.185l.392-11.273A2.5,2.5,0,0,1,208.4,2.583a2.536,2.536,0,0,1,.644-.084,2.5,2.5,0,0,1,2.123,1.18l7.712,12.406a2.5,2.5,0,0,1,.883,1.462l6.737,10.833a2.5,2.5,0,0,1-.1,2.788L219.8,40.256v.151a2.5,2.5,0,0,1-1.826,2.408l-8.6,11.879a2.5,2.5,0,0,1-4.522-1.553l.323-9.365A188.835,188.835,0,0,0,47.85,166.04a2.5,2.5,0,0,1-2.347,1.639" fill="#0cc0c7"/>
    <path id="Path_182062" data-name="Path 182062" d="M209.039,5l7.678,12.351.422.681h.165v.305L224.371,29.7,217.3,39.445v.963c-.235,0-.47.023-.705.023l-.728,1.033-8.523,11.764.423-12.21A190.821,190.821,0,0,0,45.5,165.179l-21.3-6.926C52.194,81.169,123.432,24.817,208.569,18.5Zm0-5a5,5,0,0,0-5,4.827l-.315,9.066A218.3,218.3,0,0,0,19.507,156.546a5,5,0,0,0,3.153,6.461l21.3,6.927a5,5,0,0,0,6.239-3.03A186.361,186.361,0,0,1,202.576,46.578l-.225,6.477a5,5,0,0,0,9.046,3.106l8.181-11.291a4.993,4.993,0,0,0,2.673-3.73l6.167-8.5a5,5,0,0,0,.2-5.576L222.081,16.55a5.007,5.007,0,0,0-1.267-2.079L213.285,2.36A5,5,0,0,0,209.039,0" fill="#fff"/>
    <path id="Path_182063" data-name="Path 182063" d="M224.559,446.571a215.01,215.01,0,0,1-111.5-31.066l-6.937,8.858a2.5,2.5,0,0,1-4.461-1.723l1.056-14.487.043-.475a2.552,2.552,0,0,1,.051-.687l.985-13.327a2.5,2.5,0,0,1,1.719-2.193l10.871-3.543a2.505,2.505,0,0,1,1.571-.959,2.55,2.55,0,0,1,.425-.036,2.5,2.5,0,0,1,.71.1l14.033-4.581a2.5,2.5,0,0,1,2.744,3.919l-5.8,7.408a188.361,188.361,0,0,0,199.273-6.424,2.5,2.5,0,0,1,3.416.607l13.149,18.1a2.5,2.5,0,0,1-.621,3.539,214.472,214.472,0,0,1-120.726,36.964" fill="#0cc0c7"/>
    <path id="Path_182064" data-name="Path 182064" d="M133.9,384.832l-7.561,9.65a190.847,190.847,0,0,0,204.391-5.048l13.149,18.1a213.119,213.119,0,0,1-231.417,4.672l-8.311,10.613,1.057-14.487.07-.775-.048-.023.048-.047,1.01-13.642,11.669-3.8.422-.611c.165.117.33.211.471.305l1.244-.4Zm0-5a4.981,4.981,0,0,0-1.55.247l-13.4,4.374a5.016,5.016,0,0,0-.576-.033,5.165,5.165,0,0,0-.873.075,4.915,4.915,0,0,0-2.514,1.258l-10.251,3.341a5,5,0,0,0-3.436,4.385l-.966,13.036a5.028,5.028,0,0,0-.1,1.269l-.01.1-.006.089-1.057,14.488a5,5,0,0,0,8.923,3.446l5.578-7.122a218.133,218.133,0,0,0,233.017-7.106,5,5,0,0,0,1.242-7.078L334.78,386.5a5,5,0,0,0-6.832-1.213,185.878,185.878,0,0,1-194.129,7.763l4.02-5.13a5,5,0,0,0-3.937-8.084m0,10h0Z" fill="#fff"/>
    <path id="Path_182065" data-name="Path 182065" d="M369.17,407.83a2.506,2.506,0,0,1-.953-.189l-26.86-11.082a2.5,2.5,0,0,1-1.547-2.316l.047-29.067a2.5,2.5,0,0,1,4.578-1.385l5.225,7.818a188.485,188.485,0,0,0,56.034-191.967,2.5,2.5,0,0,1,1.634-3.058l21.274-6.9a2.5,2.5,0,0,1,3.173,1.687,215.8,215.8,0,0,1-66.8,223.178l6.277,9.4a2.5,2.5,0,0,1-2.08,3.889" fill="#0cc0c7"/>
    <path id="Path_182066" data-name="Path 182066" d="M429.372,172.058a213.308,213.308,0,0,1-67.715,222.024l7.513,11.247-13.43-5.541-13.431-5.541.024-14.534.023-14.534,6.81,10.19A190.99,190.99,0,0,0,408.1,178.961Zm0-5a5.006,5.006,0,0,0-1.543.244l-21.272,6.9a5,5,0,0,0-3.269,6.116A185.986,185.986,0,0,1,350.13,367.813l-3.616-5.412a5,5,0,0,0-9.158,2.77l-.023,14.534-.024,14.534a5,5,0,0,0,3.094,4.63l13.43,5.541,13.43,5.541a5,5,0,0,0,6.065-7.4l-5.052-7.563a218.314,218.314,0,0,0,65.9-224.312,5,5,0,0,0-4.806-3.619" fill="#fff"/>
    <path id="Path_182067" data-name="Path 182067" d="M416.153,171.741a2.494,2.494,0,0,1-.771-.122L403.015,167.6c-.064-.015-.128-.033-.189-.053l-1.268-.422-13.816-4.5a2.5,2.5,0,0,1,.1-4.783l9.085-2.56A188.928,188.928,0,0,0,231.72,42.9a2.5,2.5,0,0,1-2.406-2.5V18.031a2.5,2.5,0,0,1,2.5-2.5h.084A215.821,215.821,0,0,1,423.485,147.774l10.8-3.056a2.455,2.455,0,0,1,.681-.1,2.5,2.5,0,0,1,1.9,4.118L427.474,159.8l-9.418,11.062a2.5,2.5,0,0,1-1.9.879" fill="#0cc0c7"/>
    <path id="Path_182068" data-name="Path 182068" d="M231.814,18.031A213.182,213.182,0,0,1,422.023,150.785l12.938-3.662-9.392,11.059-9.415,11.058-12.515-4.062h-.023l-1.269-.422-13.829-4.508,11.834-3.334A190.815,190.815,0,0,0,231.814,40.407Zm0-5a5,5,0,0,0-5,5V40.407a5,5,0,0,0,4.813,5,186.422,186.422,0,0,1,161.83,108.257l-6.3,1.774a5,5,0,0,0-.194,9.567l13.83,4.508,1.236.412c.1.032.2.062.3.088L414.61,174a5,5,0,0,0,5.351-1.514l9.415-11.059,9.4-11.064a5,5,0,0,0-5.173-8.047l-8.675,2.456A218.316,218.316,0,0,0,231.982,13.034q-.084,0-.168,0" fill="#fff"/>
    <path id="Path_182069" data-name="Path 182069" d="M93.519,401.513a2.506,2.506,0,0,1-1.539-.529,214.4,214.4,0,0,1-83-170.015,217.1,217.1,0,0,1,5.7-49.467L4.137,177.62a2.5,2.5,0,0,1,.275-4.775l14.134-3.428,14.111-3.428a2.5,2.5,0,0,1,2.614.962l7.264,10.022a2.508,2.508,0,0,1,.833,1.135l.448.636,8.521,11.707a2.5,2.5,0,0,1-2.881,3.819l-8.874-3.247a189.809,189.809,0,0,0-4.249,39.946,187.261,187.261,0,0,0,71.88,147.977,2.5,2.5,0,0,1,.477,3.433l-13.149,18.1a2.5,2.5,0,0,1-1.673,1.007,2.571,2.571,0,0,1-.349.024" fill="#0cc0c7"/>
    <path id="Path_182070" data-name="Path 182070" d="M33.246,168.419l7.607,10.5.164.047-.023.117.775,1.1,8.547,11.739L38.763,187.7a191.066,191.066,0,0,0,67.9,193.215l-13.149,18.1a213.469,213.469,0,0,1-75.886-219.09L5,175.275l14.134-3.428Zm0-5a5.023,5.023,0,0,0-1.181.141l-14.111,3.429L3.821,170.416a5,5,0,0,0-.548,9.552l8.482,3.121a219.6,219.6,0,0,0-5.275,47.88A215.913,215.913,0,0,0,29.3,328.2a220.126,220.126,0,0,0,61.144,74.752,5,5,0,0,0,3.077,1.059,4.951,4.951,0,0,0,.7-.049,5,5,0,0,0,3.349-2.013l13.148-18.1a5,5,0,0,0-.952-6.867A184.768,184.768,0,0,1,38.833,230.969a187.4,187.4,0,0,1,3.608-36.6l6.157,2.252a5,5,0,0,0,5.76-7.638l-8.522-11.706-.264-.377a5.02,5.02,0,0,0-1.193-1.638l-7.085-9.774a5,5,0,0,0-4.048-2.066" fill="#fff"/>
    <path id="Path_182071" data-name="Path 182071" d="M135.174,151.376l2.856,8.9,2.848-8.9h4.061v12.8h-3.094v-2.988l.3-6.118-3.094,9.106h-2.039l-3.1-9.113.3,6.125v2.988h-3.085v-12.8Z" fill="#12263f"/>
    <path id="Path_182072" data-name="Path 182072" d="M146.74,152.212a1.327,1.327,0,0,1,.457-1.038,1.944,1.944,0,0,1,2.373,0,1.406,1.406,0,0,1,0,2.075,1.944,1.944,0,0,1-2.373,0,1.326,1.326,0,0,1-.457-1.037m3.147,11.961h-2.971v-9.51h2.971Z" fill="#12263f"/>
    <path id="Path_182073" data-name="Path 182073" d="M155.564,157.282l1.38-2.619h3.076l-2.505,4.633,2.628,4.877h-3.094l-1.494-2.813-1.468,2.813h-3.111l2.637-4.877-2.5-4.633h3.111Z" fill="#12263f"/>
    <path id="Path_182074" data-name="Path 182074" d="M164.424,152.3v2.364h1.564v2.057h-1.564v4.351a1.11,1.11,0,0,0,.193.747,1.041,1.041,0,0,0,.765.211,4.352,4.352,0,0,0,.738-.053V164.1a5.463,5.463,0,0,1-1.67.254,3.1,3.1,0,0,1-2.258-.721,2.948,2.948,0,0,1-.73-2.187V156.72h-1.213v-2.057h1.213V152.3Z" fill="#12263f"/>
    <path id="Path_182075" data-name="Path 182075" d="M166.515,159.33a5.624,5.624,0,0,1,.554-2.537,3.964,3.964,0,0,1,1.591-1.709,4.794,4.794,0,0,1,2.434-.6,4.374,4.374,0,0,1,3.366,1.322,5.076,5.076,0,0,1,1.231,3.6v.105a4.928,4.928,0,0,1-1.235,3.529,4.957,4.957,0,0,1-6.6.088,4.759,4.759,0,0,1-1.327-3.3Zm2.962.184a3.545,3.545,0,0,0,.413,1.934,1.377,1.377,0,0,0,1.222.615q1.581,0,1.617-2.434v-.3q0-2.558-1.635-2.558-1.485,0-1.608,2.207Z" fill="#12263f"/>
    <g transform="matrix(1, 0, 0, 1, 0, 0)" filter="url(#Path_182076)">
      <path id="Path_182076-2" data-name="Path 182076" d="M180.229,114.5a27.069,27.069,0,1,1-27.068-27.068A27.068,27.068,0,0,1,180.229,114.5" fill="#fff"/>
    </g>
    <path id="Path_182077" data-name="Path 182077" d="M146.671,98.341h12.952a.983.983,0,0,1,.866,1.006q0,6.353,0,12.705,2.936,0,5.871,0a.971.971,0,0,1,.868.5,1.736,1.736,0,0,1,.118.87q0,4.137,0,8.276a.5.5,0,0,1-.369.541.473.473,0,0,1-.564-.361.437.437,0,0,1-.011-.12c-.006-2.921,0-5.843,0-8.764q-2.136,0-4.272,0c-.006,1.071.009,2.143-.006,3.213a.756.756,0,0,1-1,.673c-.381-.158-.735-.375-1.107-.553-.377.181-.735.4-1.123.558a.755.755,0,0,1-.983-.69c-.011-1.067,0-2.134,0-3.2h-4.273q0,6.384,0,12.767H166.4c0-.555,0-1.111,0-1.667a.68.68,0,0,1,.118-.477.475.475,0,0,1,.671-.041.31.31,0,0,1,.032.031.658.658,0,0,1,.129.481q0,.837,0,1.673c.427.006.853-.008,1.279,0a.693.693,0,0,1,.676.6c.033.335.005.673.014,1.009a2.666,2.666,0,0,1-.041.686.69.69,0,0,1-.607.474c-.389.021-.78,0-1.17.008-.009.454.017.908-.011,1.362a.857.857,0,0,1-.736.75h-1.535a.847.847,0,0,1-.766-.755c-.027-.452,0-.9-.011-1.358H141.882c-.009.452.017.9-.011,1.356a.851.851,0,0,1-.745.757h-1.535a.849.849,0,0,1-.757-.753c-.027-.452,0-.906-.011-1.359-.394-.008-.788.015-1.181-.009a.693.693,0,0,1-.63-.658c-.015-.462-.006-.926,0-1.388a.7.7,0,0,1,.65-.721c.439-.019.878,0,1.317-.007q0-6.36,0-12.721a.973.973,0,0,1,.534-.892,1.847,1.847,0,0,1,.836-.1q2.743,0,5.486,0,0-4.079,0-8.156a.5.5,0,0,1,.262-.5.474.474,0,0,1,.681.432c.007,2.742,0,5.483,0,8.224h12.766q0-6.383,0-12.765H155.27c0,1.01,0,2.019,0,3.028a.936.936,0,0,1-.143.581.759.759,0,0,1-.912.257c-.359-.163-.7-.362-1.057-.535-.353.175-.7.37-1.053.534a.759.759,0,0,1-.915-.256.934.934,0,0,1-.143-.58c0-1.01,0-2.019,0-3.029h-4.273c0,.758,0,1.517,0,2.275a.53.53,0,0,1-.232.512.471.471,0,0,1-.709-.385c-.017-.675,0-1.351-.007-2.026a1.612,1.612,0,0,1,.122-.826,1.02,1.02,0,0,1,.719-.5m5.325.946v2.865c.408-.163.769-.5,1.226-.5a5.342,5.342,0,0,1,1.1.5q0-1.433,0-2.865H152M139.921,113q0,6.384,0,12.768h12.765q0-6.384,0-12.768-2.136,0-4.273,0c0,1.069.006,2.137,0,3.206a.76.76,0,0,1-1.037.668c-.362-.167-.709-.363-1.066-.541-.371.178-.727.389-1.106.553a.758.758,0,0,1-1-.672c-.012-1.071,0-2.143-.006-3.214h-4.272m5.219,0v2.866a6.232,6.232,0,0,1,1.077-.5c.466-.021.839.324,1.251.5q0-1.434,0-2.867H145.14m13.712,0q0,1.434,0,2.867a6.766,6.766,0,0,1,1.061-.495c.473-.034.849.324,1.266.494q0-1.434,0-2.866h-2.328m-20.9,13.711c0,.3,0,.6,0,.893h30.416c0-.3,0-.595,0-.893H137.952m1.817,1.84v1.165h1.167q0-.583,0-1.165-.582,0-1.166,0m25.616,0c0,.388,0,.777,0,1.165h1.167V128.55q-.583,0-1.166,0" fill="#12263f"/>
    <path id="Path_182078" data-name="Path 182078" d="M150.726,107.223a3.586,3.586,0,0,1,.475-.016c1.412,0,2.825,0,4.237,0a.762.762,0,0,1,.675.367,1.25,1.25,0,0,1,.11.676c-.007.566,0,1.133-.005,1.7a.755.755,0,0,1-.769.741h-.01q-2.275,0-4.552,0a.762.762,0,0,1-.677-.364,1.253,1.253,0,0,1-.111-.685c.006-.568-.006-1.136.005-1.7a.745.745,0,0,1,.622-.716m.32.932v1.59h4.23v-1.59h-4.23" fill="#12263f"/>
    <path id="Path_182079" data-name="Path 182079" d="M143.714,120.978a1.144,1.144,0,0,1,.419-.055c1.493.005,2.987,0,4.48,0a.746.746,0,0,1,.747.707c.009.675.006,1.352,0,2.027a.748.748,0,0,1-.739.742q-2.309.007-4.617,0a.749.749,0,0,1-.758-.741v0c-.007-.653,0-1.308,0-1.961a.76.76,0,0,1,.469-.72m.476.889q0,.8,0,1.6h4.23v-1.6Z" fill="#12263f"/>
    <path id="Path_182080" data-name="Path 182080" d="M157.418,120.981a1.075,1.075,0,0,1,.413-.058c1.494,0,2.988,0,4.481,0a.753.753,0,0,1,.763.77c0,.655.006,1.31,0,1.965a.75.75,0,0,1-.751.743q-2.312,0-4.623,0a.748.748,0,0,1-.741-.744c-.006-.655,0-1.309,0-1.964a.759.759,0,0,1,.46-.713m.484.886q0,.8,0,1.6h4.23q0-.8,0-1.6H157.9" fill="#12263f"/>
    <rect id="Rectangle_38073" data-name="Rectangle 38073" width="39.138" height="0.86" transform="translate(133.592 172.009)" fill="#12263f"/>
    <path id="Path_182081" data-name="Path 182081" d="M268.544,153.758H264.7v10.414h-3.085V153.758h-3.77v-2.383h10.7Z" fill="#12263f"/>
    <path id="Path_182082" data-name="Path 182082" d="M273.527,164.348a4.888,4.888,0,0,1-3.542-1.305,4.507,4.507,0,0,1-1.354-3.4V159.4a5.847,5.847,0,0,1,.541-2.576,3.961,3.961,0,0,1,1.578-1.727,4.772,4.772,0,0,1,2.461-.611,4.121,4.121,0,0,1,3.164,1.244,4.889,4.889,0,0,1,1.16,3.467v1.152h-5.889a2.139,2.139,0,0,0,.694,1.256,2.067,2.067,0,0,0,1.389.457,2.661,2.661,0,0,0,2.2-.984l1.354,1.6a3.773,3.773,0,0,1-1.569,1.217,5.28,5.28,0,0,1-2.184.453m-.334-7.576q-1.3,0-1.547,1.723h2.988v-.229a1.467,1.467,0,0,0-.36-1.1,1.436,1.436,0,0,0-1.081-.391" fill="#12263f"/>
    <path id="Path_182083" data-name="Path 182083" d="M284.478,157.344l-.976-.07a1.753,1.753,0,0,0-1.793.879v6.019h-2.961v-9.51h2.777l.1,1.223a2.293,2.293,0,0,1,2.083-1.4,2.9,2.9,0,0,1,.826.1Z" fill="#12263f"/>
    <path id="Path_182084" data-name="Path 182084" d="M291.3,157.344l-.976-.07a1.753,1.753,0,0,0-1.793.879v6.019h-2.961v-9.51h2.777l.1,1.223a2.293,2.293,0,0,1,2.083-1.4,2.9,2.9,0,0,1,.826.1Z" fill="#12263f"/>
    <path id="Path_182085" data-name="Path 182085" d="M292.345,152.212a1.323,1.323,0,0,1,.457-1.038,1.944,1.944,0,0,1,2.373,0,1.406,1.406,0,0,1,0,2.075,1.944,1.944,0,0,1-2.373,0,1.323,1.323,0,0,1-.457-1.037m3.146,11.961H292.52v-9.51h2.971Z" fill="#12263f"/>
    <path id="Path_182086" data-name="Path 182086" d="M300.765,152.3v2.364h1.564v2.057h-1.564v4.351a1.11,1.11,0,0,0,.193.747,1.041,1.041,0,0,0,.765.211,4.352,4.352,0,0,0,.738-.053V164.1a5.463,5.463,0,0,1-1.67.254,3.1,3.1,0,0,1-2.258-.721,2.948,2.948,0,0,1-.73-2.187V156.72H296.59v-2.057H297.8V152.3Z" fill="#12263f"/>
    <path id="Path_182087" data-name="Path 182087" d="M302.856,159.33a5.623,5.623,0,0,1,.554-2.537A3.964,3.964,0,0,1,305,155.084a4.794,4.794,0,0,1,2.434-.6,4.374,4.374,0,0,1,3.366,1.322,5.076,5.076,0,0,1,1.231,3.6v.105a4.928,4.928,0,0,1-1.235,3.529,4.957,4.957,0,0,1-6.605.088,4.759,4.759,0,0,1-1.327-3.3Zm2.962.184a3.545,3.545,0,0,0,.413,1.934,1.377,1.377,0,0,0,1.222.615q1.581,0,1.617-2.434v-.3q0-2.558-1.635-2.558-1.485,0-1.608,2.207Z" fill="#12263f"/>
    <path id="Path_182088" data-name="Path 182088" d="M319.09,157.344l-.976-.07a1.753,1.753,0,0,0-1.793.879v6.019H313.36v-9.51h2.777l.1,1.223a2.293,2.293,0,0,1,2.083-1.4,2.9,2.9,0,0,1,.826.1Z" fill="#12263f"/>
    <path id="Path_182089" data-name="Path 182089" d="M320.136,152.212a1.323,1.323,0,0,1,.457-1.038,1.944,1.944,0,0,1,2.373,0,1.406,1.406,0,0,1,0,2.075,1.944,1.944,0,0,1-2.373,0,1.323,1.323,0,0,1-.457-1.037m3.146,11.961h-2.971v-9.51h2.971Z" fill="#12263f"/>
    <path id="Path_182090" data-name="Path 182090" d="M324.732,159.33a5.623,5.623,0,0,1,.554-2.537,3.964,3.964,0,0,1,1.591-1.709,4.794,4.794,0,0,1,2.434-.6,4.374,4.374,0,0,1,3.366,1.322,5.076,5.076,0,0,1,1.231,3.6v.105a4.928,4.928,0,0,1-1.235,3.529,4.957,4.957,0,0,1-6.605.088,4.759,4.759,0,0,1-1.327-3.3Zm2.962.184a3.545,3.545,0,0,0,.413,1.934,1.377,1.377,0,0,0,1.222.615q1.581,0,1.617-2.434v-.3q0-2.558-1.635-2.558-1.485,0-1.608,2.207Z" fill="#12263f"/>
    <g transform="matrix(1, 0, 0, 1, 0, 0)" filter="url(#Path_182091)">
      <path id="Path_182091-2" data-name="Path 182091" d="M323.026,114.5a27.069,27.069,0,1,1-27.069-27.068A27.069,27.069,0,0,1,323.026,114.5" fill="#fff"/>
    </g>
    <rect id="Rectangle_38074" data-name="Rectangle 38074" width="39.138" height="0.86" transform="translate(276.388 172.009)" fill="#12263f"/>
    <path id="Path_182092" data-name="Path 182092" d="M90.633,294.941a4.666,4.666,0,0,1-.721,2.36,4.346,4.346,0,0,1-1.849,1.586,6.3,6.3,0,0,1-2.721.563,5.025,5.025,0,0,1-3.973-1.644,6.787,6.787,0,0,1-1.45-4.64v-.633a7.743,7.743,0,0,1,.655-3.292,4.97,4.97,0,0,1,1.885-2.18,5.266,5.266,0,0,1,2.848-.768,5.521,5.521,0,0,1,3.744,1.225,4.85,4.85,0,0,1,1.608,3.38H87.583a2.292,2.292,0,0,0-.589-1.679,2.419,2.419,0,0,0-1.687-.509,1.844,1.844,0,0,0-1.688.861,5.534,5.534,0,0,0-.562,2.751v.9a6.137,6.137,0,0,0,.514,2.927,1.882,1.882,0,0,0,1.771.879,2.369,2.369,0,0,0,1.626-.5,2.128,2.128,0,0,0,.6-1.591Z" fill="#12263f"/>
    <rect id="Rectangle_38075" data-name="Rectangle 38075" width="2.971" height="13.5" transform="translate(92.109 285.774)" fill="#12263f"/>
    <path id="Path_182093" data-name="Path 182093" d="M96.882,287.312a1.321,1.321,0,0,1,.457-1.037,1.944,1.944,0,0,1,2.373,0,1.405,1.405,0,0,1,0,2.074,1.941,1.941,0,0,1-2.373,0,1.32,1.32,0,0,1-.457-1.037m3.146,11.962H97.057v-9.51h2.971Z" fill="#12263f"/>
    <path id="Path_182094" data-name="Path 182094" d="M106.453,299.45a4.888,4.888,0,0,1-3.542-1.305,4.509,4.509,0,0,1-1.354-3.4V294.5a5.843,5.843,0,0,1,.541-2.575,3.956,3.956,0,0,1,1.578-1.727,4.762,4.762,0,0,1,2.461-.611,4.118,4.118,0,0,1,3.164,1.244,4.887,4.887,0,0,1,1.16,3.467v1.151h-5.889a2.141,2.141,0,0,0,.694,1.257,2.067,2.067,0,0,0,1.389.457,2.661,2.661,0,0,0,2.2-.984l1.354,1.6A3.773,3.773,0,0,1,108.637,299a5.3,5.3,0,0,1-2.184.453m-.334-7.576q-1.3,0-1.547,1.723h2.988v-.229a1.467,1.467,0,0,0-.36-1.1,1.436,1.436,0,0,0-1.081-.391" fill="#12263f"/>
    <path id="Path_182095" data-name="Path 182095" d="M114.372,289.764l.1,1.116a3.225,3.225,0,0,1,2.716-1.292,2.71,2.71,0,0,1,2.218.888,4.224,4.224,0,0,1,.761,2.672v6.126h-2.971v-6a1.606,1.606,0,0,0-.29-1.06,1.346,1.346,0,0,0-1.054-.338,1.412,1.412,0,0,0-1.292.686v6.715H111.6v-9.51Z" fill="#12263f"/>
    <path id="Path_182096" data-name="Path 182096" d="M125.253,287.4v2.364h1.564v2.057h-1.564v4.35a1.113,1.113,0,0,0,.193.748,1.041,1.041,0,0,0,.765.21,4.364,4.364,0,0,0,.738-.052V299.2a5.464,5.464,0,0,1-1.67.255,3.1,3.1,0,0,1-2.258-.721,2.95,2.95,0,0,1-.73-2.188v-4.72h-1.213v-2.057h1.213V287.4Z" fill="#12263f"/>
    <path id="Path_182097" data-name="Path 182097" d="M132.583,299.45a4.888,4.888,0,0,1-3.542-1.305,4.509,4.509,0,0,1-1.354-3.4V294.5a5.843,5.843,0,0,1,.541-2.575,3.956,3.956,0,0,1,1.578-1.727,4.762,4.762,0,0,1,2.461-.611,4.118,4.118,0,0,1,3.164,1.244,4.887,4.887,0,0,1,1.16,3.467v1.151H130.7a2.142,2.142,0,0,0,.694,1.257,2.067,2.067,0,0,0,1.389.457,2.661,2.661,0,0,0,2.2-.984l1.354,1.6A3.773,3.773,0,0,1,134.767,299a5.3,5.3,0,0,1-2.184.453m-.334-7.576q-1.3,0-1.547,1.723h2.988v-.229a1.467,1.467,0,0,0-.36-1.1,1.436,1.436,0,0,0-1.081-.391" fill="#12263f"/>
    <g transform="matrix(1, 0, 0, 1, 0, 0)" filter="url(#Path_182098)">
      <path id="Path_182098-2" data-name="Path 182098" d="M135.2,249.6a27.069,27.069,0,1,1-27.068-27.068A27.068,27.068,0,0,1,135.2,249.6" fill="#fff"/>
    </g>
    <rect id="Rectangle_38076" data-name="Rectangle 38076" width="39.138" height="0.86" transform="translate(88.563 307.111)" fill="#12263f"/>
    <path id="Path_182099" data-name="Path 182099" d="M303.439,294.932v4.342h-3.086v-12.8h5.107a5.918,5.918,0,0,1,2.6.541,4.077,4.077,0,0,1,1.75,1.537,4.206,4.206,0,0,1,.62,2.264,3.7,3.7,0,0,1-1.341,2.992,5.557,5.557,0,0,1-3.677,1.121Zm0-2.382h2.021a1.906,1.906,0,0,0,1.366-.448,1.668,1.668,0,0,0,.47-1.266,2.061,2.061,0,0,0-.482-1.432,1.71,1.71,0,0,0-1.319-.545h-2.056Z" fill="#12263f"/>
    <path id="Path_182100" data-name="Path 182100" d="M317.685,292.445l-.976-.07a1.753,1.753,0,0,0-1.793.879v6.02h-2.961v-9.51h2.777l.1,1.222a2.292,2.292,0,0,1,2.083-1.4,2.9,2.9,0,0,1,.826.105Z" fill="#12263f"/>
    <path id="Path_182101" data-name="Path 182101" d="M318.063,294.431a5.619,5.619,0,0,1,.554-2.536,3.964,3.964,0,0,1,1.591-1.709,4.794,4.794,0,0,1,2.434-.6,4.374,4.374,0,0,1,3.366,1.322,5.076,5.076,0,0,1,1.231,3.6v.105A4.928,4.928,0,0,1,326,298.145a4.957,4.957,0,0,1-6.605.088,4.761,4.761,0,0,1-1.327-3.3Zm2.962.185a3.545,3.545,0,0,0,.413,1.934,1.377,1.377,0,0,0,1.222.615q1.581,0,1.617-2.435v-.3q0-2.557-1.635-2.557-1.485,0-1.608,2.206Z" fill="#12263f"/>
    <path id="Path_182102" data-name="Path 182102" d="M328.171,294.448a5.8,5.8,0,0,1,.976-3.559,3.21,3.21,0,0,1,2.724-1.3,2.731,2.731,0,0,1,2.145,1v-4.816h2.971v13.5h-2.664l-.149-1.02a2.8,2.8,0,0,1-2.32,1.2,3.206,3.206,0,0,1-2.69-1.3,6,6,0,0,1-.993-3.7m2.962.185q0,2.531,1.477,2.531a1.457,1.457,0,0,0,1.406-.826v-3.621a1.419,1.419,0,0,0-1.389-.844q-1.371,0-1.485,2.215Z" fill="#12263f"/>
    <path id="Path_182103" data-name="Path 182103" d="M344.334,298.246a3.054,3.054,0,0,1-2.54,1.2,3,3,0,0,1-2.369-.91,3.83,3.83,0,0,1-.8-2.614v-6.161h2.962v6.178a1.065,1.065,0,0,0,1.187,1.222,1.547,1.547,0,0,0,1.45-.73v-6.67H347.2v9.509h-2.777Z" fill="#12263f"/>
    <path id="Path_182104" data-name="Path 182104" d="M352.842,297.165a1.317,1.317,0,0,0,.967-.338,1.242,1.242,0,0,0,.334-.945h2.777a3.284,3.284,0,0,1-1.121,2.566,4.165,4.165,0,0,1-2.887,1,4.218,4.218,0,0,1-3.269-1.3,5.123,5.123,0,0,1-1.2-3.6v-.123a5.79,5.79,0,0,1,.532-2.545,3.865,3.865,0,0,1,1.534-1.695,4.559,4.559,0,0,1,2.373-.594,4.117,4.117,0,0,1,2.944,1.028,3.646,3.646,0,0,1,1.09,2.786h-2.777a1.624,1.624,0,0,0-.361-1.134,1.244,1.244,0,0,0-.966-.4q-1.152,0-1.345,1.468a10.329,10.329,0,0,0-.062,1.283,4.071,4.071,0,0,0,.343,1.986,1.188,1.188,0,0,0,1.09.554" fill="#12263f"/>
    <path id="Path_182105" data-name="Path 182105" d="M361.622,287.4v2.364h1.564v2.057h-1.564v4.35a1.113,1.113,0,0,0,.193.748,1.041,1.041,0,0,0,.765.21,4.364,4.364,0,0,0,.738-.052V299.2a5.464,5.464,0,0,1-1.67.255,3.1,3.1,0,0,1-2.258-.721,2.95,2.95,0,0,1-.73-2.188v-4.72h-1.213v-2.057h1.213V287.4Z" fill="#12263f"/>
    <path id="Path_182106" data-name="Path 182106" d="M363.714,294.431a5.619,5.619,0,0,1,.554-2.536,3.964,3.964,0,0,1,1.591-1.709,4.794,4.794,0,0,1,2.434-.6,4.374,4.374,0,0,1,3.366,1.322,5.076,5.076,0,0,1,1.231,3.6v.105a4.928,4.928,0,0,1-1.235,3.529,4.957,4.957,0,0,1-6.605.088,4.761,4.761,0,0,1-1.327-3.3Zm2.962.185a3.545,3.545,0,0,0,.413,1.934,1.377,1.377,0,0,0,1.222.615q1.581,0,1.617-2.435v-.3q0-2.557-1.635-2.557-1.485,0-1.608,2.206Z" fill="#12263f"/>
    <path id="Path_182107" data-name="Path 182107" d="M379.174,296.6a.683.683,0,0,0-.4-.606,5.965,5.965,0,0,0-1.5-.475,6.842,6.842,0,0,1-1.829-.646,3.057,3.057,0,0,1-1.1-.971,2.321,2.321,0,0,1-.378-1.31,2.629,2.629,0,0,1,1.081-2.158,4.462,4.462,0,0,1,2.83-.848,4.933,4.933,0,0,1,3.023.853,2.665,2.665,0,0,1,1.143,2.241h-2.971q0-1.143-1.2-1.142a1.193,1.193,0,0,0-.782.259.8.8,0,0,0-.316.646.736.736,0,0,0,.386.641,3.663,3.663,0,0,0,1.235.4,10.563,10.563,0,0,1,1.49.378,2.705,2.705,0,0,1,2.144,2.645,2.49,2.49,0,0,1-1.156,2.118,5.064,5.064,0,0,1-2.992.818,5.176,5.176,0,0,1-2.18-.44,3.651,3.651,0,0,1-1.494-1.2,2.709,2.709,0,0,1-.536-1.591h2.769a1.14,1.14,0,0,0,.439.962,1.8,1.8,0,0,0,1.081.3,1.419,1.419,0,0,0,.909-.246.786.786,0,0,0,.3-.642" fill="#12263f"/>
    <g transform="matrix(1, 0, 0, 1, 0, 0)" filter="url(#Path_182108)">
      <path id="Path_182108-2" data-name="Path 182108" d="M368.054,249.6a27.068,27.068,0,1,1-27.068-27.068A27.068,27.068,0,0,1,368.054,249.6" fill="#fff"/>
    </g>
    <rect id="Rectangle_38077" data-name="Rectangle 38077" width="39.138" height="0.86" transform="translate(321.416 307.111)" fill="#12263f"/>
    <path id="Path_182109" data-name="Path 182109" d="M171.38,371.216a4.666,4.666,0,0,1-.721,2.36,4.346,4.346,0,0,1-1.849,1.586,6.3,6.3,0,0,1-2.721.563,5.025,5.025,0,0,1-3.973-1.644,6.787,6.787,0,0,1-1.45-4.64v-.633a7.743,7.743,0,0,1,.655-3.292,4.97,4.97,0,0,1,1.885-2.18,5.266,5.266,0,0,1,2.848-.768,5.521,5.521,0,0,1,3.744,1.225,4.85,4.85,0,0,1,1.608,3.38H168.33a2.292,2.292,0,0,0-.589-1.679,2.419,2.419,0,0,0-1.687-.509,1.844,1.844,0,0,0-1.688.861,5.534,5.534,0,0,0-.562,2.751v.905a6.137,6.137,0,0,0,.514,2.927,1.882,1.882,0,0,0,1.771.879,2.369,2.369,0,0,0,1.626-.5,2.128,2.128,0,0,0,.6-1.591Z" fill="#12263f"/>
    <path id="Path_182110" data-name="Path 182110" d="M178.059,375.549a3.376,3.376,0,0,1-.281-.853,2.752,2.752,0,0,1-2.285,1.028,3.374,3.374,0,0,1-2.285-.812,2.59,2.59,0,0,1-.941-2.044,2.659,2.659,0,0,1,1.143-2.338,5.824,5.824,0,0,1,3.322-.791h.914v-.5q0-1.315-1.133-1.315a.926.926,0,0,0-1.055,1.042H172.5a2.659,2.659,0,0,1,1.173-2.239,4.937,4.937,0,0,1,2.993-.86,4.322,4.322,0,0,1,2.874.888,3.084,3.084,0,0,1,1.081,2.434v4.21a4.326,4.326,0,0,0,.4,2v.15Zm-1.854-1.934a1.658,1.658,0,0,0,.919-.237,1.5,1.5,0,0,0,.522-.536v-1.521h-.861q-1.547,0-1.547,1.389a.85.85,0,0,0,.273.655.989.989,0,0,0,.694.25" fill="#12263f"/>
    <path id="Path_182111" data-name="Path 182111" d="M184.977,366.039l.1,1.116a3.225,3.225,0,0,1,2.716-1.292,2.71,2.71,0,0,1,2.218.888,4.224,4.224,0,0,1,.761,2.672v6.126H187.8v-6a1.605,1.605,0,0,0-.291-1.06,1.346,1.346,0,0,0-1.054-.338,1.412,1.412,0,0,0-1.292.686v6.715H182.2v-9.51Z" fill="#12263f"/>
    <path id="Path_182112" data-name="Path 182112" d="M197.764,375.549a3.376,3.376,0,0,1-.281-.853,2.752,2.752,0,0,1-2.285,1.028,3.374,3.374,0,0,1-2.285-.812,2.59,2.59,0,0,1-.941-2.044,2.659,2.659,0,0,1,1.143-2.338,5.823,5.823,0,0,1,3.322-.791h.914v-.5q0-1.315-1.133-1.315a.926.926,0,0,0-1.055,1.042H192.2a2.659,2.659,0,0,1,1.173-2.239,4.937,4.937,0,0,1,2.993-.86,4.322,4.322,0,0,1,2.874.888,3.084,3.084,0,0,1,1.081,2.434v4.21a4.326,4.326,0,0,0,.4,2v.15Zm-1.854-1.934a1.658,1.658,0,0,0,.919-.237,1.5,1.5,0,0,0,.522-.536v-1.521h-.861q-1.547,0-1.547,1.389a.85.85,0,0,0,.273.655.989.989,0,0,0,.694.25" fill="#12263f"/>
    <rect id="Rectangle_38078" data-name="Rectangle 38078" width="2.971" height="13.5" transform="translate(202.115 362.048)" fill="#12263f"/>
    <path id="Path_182113" data-name="Path 182113" d="M211.018,370.723a5.8,5.8,0,0,1,.976-3.559,3.21,3.21,0,0,1,2.724-1.3,2.731,2.731,0,0,1,2.145,1v-4.816h2.971v13.5H217.17l-.149-1.02a2.8,2.8,0,0,1-2.32,1.2,3.206,3.206,0,0,1-2.69-1.3,6,6,0,0,1-.993-3.7m2.962.185q0,2.531,1.477,2.531a1.457,1.457,0,0,0,1.406-.826v-3.621a1.419,1.419,0,0,0-1.389-.844q-1.371,0-1.485,2.215Z" fill="#12263f"/>
    <path id="Path_182114" data-name="Path 182114" d="M226.118,375.724a4.888,4.888,0,0,1-3.542-1.3,4.509,4.509,0,0,1-1.354-3.4v-.246a5.843,5.843,0,0,1,.541-2.575,3.956,3.956,0,0,1,1.578-1.727,4.762,4.762,0,0,1,2.461-.611,4.118,4.118,0,0,1,3.164,1.244,4.887,4.887,0,0,1,1.16,3.467v1.151h-5.889a2.142,2.142,0,0,0,.694,1.257,2.067,2.067,0,0,0,1.389.457,2.661,2.661,0,0,0,2.2-.984l1.354,1.6a3.773,3.773,0,0,1-1.569,1.217,5.3,5.3,0,0,1-2.184.453m-.334-7.576q-1.3,0-1.547,1.723h2.988v-.229a1.467,1.467,0,0,0-.36-1.1,1.436,1.436,0,0,0-1.081-.391" fill="#12263f"/>
    <path id="Path_182115" data-name="Path 182115" d="M239.592,372.024l1.5-5.985h3.12l-3.1,9.509h-3.024l-3.1-9.509h3.128Z" fill="#12263f"/>
    <path id="Path_182116" data-name="Path 182116" d="M249.585,375.724a4.888,4.888,0,0,1-3.542-1.3,4.509,4.509,0,0,1-1.354-3.4v-.246a5.843,5.843,0,0,1,.541-2.575,3.956,3.956,0,0,1,1.578-1.727,4.762,4.762,0,0,1,2.461-.611,4.118,4.118,0,0,1,3.164,1.244,4.887,4.887,0,0,1,1.16,3.467v1.151H247.7a2.142,2.142,0,0,0,.694,1.257,2.067,2.067,0,0,0,1.389.457,2.661,2.661,0,0,0,2.2-.984l1.354,1.6a3.773,3.773,0,0,1-1.569,1.217,5.3,5.3,0,0,1-2.184.453m-.334-7.576q-1.3,0-1.547,1.723h2.988v-.229a1.467,1.467,0,0,0-.36-1.1,1.436,1.436,0,0,0-1.081-.391" fill="#12263f"/>
    <path id="Path_182117" data-name="Path 182117" d="M257.5,366.039l.1,1.116a3.225,3.225,0,0,1,2.716-1.292,2.71,2.71,0,0,1,2.218.888,4.224,4.224,0,0,1,.761,2.672v6.126h-2.971v-6a1.606,1.606,0,0,0-.29-1.06,1.346,1.346,0,0,0-1.054-.338,1.412,1.412,0,0,0-1.292.686v6.715h-2.962v-9.51Z" fill="#12263f"/>
    <path id="Path_182118" data-name="Path 182118" d="M268.385,363.675v2.364h1.564V368.1h-1.564v4.35a1.113,1.113,0,0,0,.193.748,1.041,1.041,0,0,0,.765.21,4.364,4.364,0,0,0,.738-.052v2.118a5.463,5.463,0,0,1-1.67.255,3.1,3.1,0,0,1-2.258-.721,2.95,2.95,0,0,1-.73-2.188V368.1H264.21v-2.057h1.213v-2.364Z" fill="#12263f"/>
    <path id="Path_182119" data-name="Path 182119" d="M276.47,375.549a3.376,3.376,0,0,1-.281-.853,2.752,2.752,0,0,1-2.285,1.028,3.374,3.374,0,0,1-2.285-.812,2.59,2.59,0,0,1-.941-2.044,2.659,2.659,0,0,1,1.143-2.338,5.823,5.823,0,0,1,3.322-.791h.914v-.5q0-1.315-1.133-1.315a.926.926,0,0,0-1.055,1.042h-2.962a2.659,2.659,0,0,1,1.173-2.239,4.937,4.937,0,0,1,2.993-.86,4.322,4.322,0,0,1,2.874.888,3.084,3.084,0,0,1,1.081,2.434v4.21a4.326,4.326,0,0,0,.4,2v.15Zm-1.854-1.934a1.658,1.658,0,0,0,.919-.237,1.5,1.5,0,0,0,.522-.536v-1.521H275.2q-1.547,0-1.547,1.389a.85.85,0,0,0,.273.655.989.989,0,0,0,.694.25" fill="#12263f"/>
    <path id="Path_182120" data-name="Path 182120" d="M285.647,372.877a.684.684,0,0,0-.4-.606,5.955,5.955,0,0,0-1.5-.475,6.85,6.85,0,0,1-1.83-.646,3.053,3.053,0,0,1-1.1-.971,2.313,2.313,0,0,1-.378-1.31,2.626,2.626,0,0,1,1.081-2.158,4.461,4.461,0,0,1,2.829-.848,4.939,4.939,0,0,1,3.024.853,2.667,2.667,0,0,1,1.143,2.241h-2.972q0-1.143-1.2-1.142a1.19,1.19,0,0,0-.781.259.8.8,0,0,0-.317.646.735.735,0,0,0,.387.641,3.656,3.656,0,0,0,1.234.4,10.494,10.494,0,0,1,1.49.378,2.705,2.705,0,0,1,2.145,2.645,2.491,2.491,0,0,1-1.157,2.118,5.062,5.062,0,0,1-2.992.818,5.179,5.179,0,0,1-2.18-.44,3.648,3.648,0,0,1-1.493-1.2,2.7,2.7,0,0,1-.536-1.591h2.769a1.138,1.138,0,0,0,.439.962,1.8,1.8,0,0,0,1.081.3,1.416,1.416,0,0,0,.908-.246.784.784,0,0,0,.3-.642" fill="#12263f"/>
    <g transform="matrix(1, 0, 0, 1, 0, 0)" filter="url(#Path_182121)">
      <path id="Path_182121-2" data-name="Path 182121" d="M251.627,325.877c-.608,35.581-53.534,35.576-54.137,0,.608-35.58,53.534-35.575,54.137,0" fill="#fff"/>
    </g>
    <rect id="Rectangle_38079" data-name="Rectangle 38079" width="39.138" height="0.86" transform="translate(204.99 383.385)" fill="#12263f"/>
    <path id="Path_182122" data-name="Path 182122" d="M104.5,264.406H101.42v-3.5a.679.679,0,0,0-1.358,0v3.5h-3.29v-2.364a.679.679,0,0,0-1.358,0v2.416a1.308,1.308,0,0,0,1.307,1.306h22.823a1.307,1.307,0,0,0,1.306-1.306v-7.039a4.436,4.436,0,0,0-4.415-4.444h-4.657v-.422a6.63,6.63,0,0,0,2.863-4.919A2.633,2.633,0,0,0,116.108,243l.686-7.238a2.118,2.118,0,0,0-1.908-2.309c-.067-.006-.133-.009-.2-.009h-8.659a6.427,6.427,0,0,0-5.93,3.93.679.679,0,1,0,1.241.55l.009-.021a5.071,5.071,0,0,1,4.679-3.1h8.659a.761.761,0,0,1,.761.76c0,.024,0,.048,0,.072L114.8,242.4c-.053-.009-.106-.014-.161-.019a6.528,6.528,0,0,0-13.018,0,2.642,2.642,0,0,0-.674.15v-1.874a.679.679,0,1,0-1.358,0v3a2.634,2.634,0,0,0,2.031,3.969,6.628,6.628,0,0,0,2.894,4.934v.4H99.846a4.431,4.431,0,0,0-4.43,4.416v1.7a.679.679,0,1,0,1.357,0v-1.7a3.072,3.072,0,0,1,3.074-3.059h4.667Zm1.368-11.135a6.46,6.46,0,0,0,4.551-.011v1.657a2.275,2.275,0,0,1-4.551,0Zm8.8-7.011v-2.5a1.278,1.278,0,0,1,0,2.5Zm-14.088-1.252a1.282,1.282,0,0,1,1.018-1.253v2.5A1.281,1.281,0,0,1,100.579,245.008Zm2.375,2.06v-4.107a5.178,5.178,0,0,1,10.356-.13v4.237a5.178,5.178,0,0,1-10.356.129Zm2.906,10.669a3.622,3.622,0,0,0,4.56.008v6.661h-4.56Zm5.918-3.4h4.655a3.031,3.031,0,0,1,2.163.908,3.071,3.071,0,0,1,.9,2.179v6.987H116.2v-3.5a.679.679,0,0,0-1.358,0v3.5h-3.065Z" fill="#12263f"/>
    <path id="Path_182123" data-name="Path 182123" d="M211.907,309.75a2.976,2.976,0,0,1,.654-.032q7.269,0,14.54,0a.563.563,0,0,1,.558.312c.7,1.391,1.392,2.787,2.092,4.179a1.812,1.812,0,0,1,.11.9v14.479a.572.572,0,0,1-.193.474c-.207.178-.5.117-.75.128q-9.289,0-18.581,0c-.25-.012-.541.05-.748-.126a.57.57,0,0,1-.2-.474q0-7.445,0-14.891a1.607,1.607,0,0,1,.272-.8l1.908-3.816a.584.584,0,0,1,.333-.328m.514,1.046-1.616,3.231q3.125,0,6.248,0,.4-1.615.807-3.231h-5.439m6.55,0q-.4,1.615-.808,3.231h2.929q-.4-1.616-.807-3.231-.657,0-1.314,0m2.423,0q.4,1.615.808,3.231,3.125,0,6.249,0-.809-1.616-1.617-3.232h-5.44m-10.923,4.309v14h18.313v-14h-6.463q0,2.895,0,5.791a.692.692,0,0,1-.13.482.546.546,0,0,1-.677.122c-.63-.311-1.254-.635-1.885-.945-.6.3-1.2.6-1.8.9a.654.654,0,0,1-.536.081.556.556,0,0,1-.361-.57q0-2.931,0-5.861h-6.464m7.541,0q0,2.527,0,5.054c.466-.228.926-.47,1.4-.693a.577.577,0,0,1,.532.039c.435.216.869.435,1.3.652v-5.052Z" fill="#12263f"/>
    <path id="Path_182124" data-name="Path 182124" d="M230.948,331.732a.524.524,0,0,1,.521-.465c1.394-.01,2.789,0,4.183-.005a.63.63,0,0,1,.543.192c.2.248.109.593.129.887,1.259,0,2.517-.006,3.775,0a.546.546,0,0,1,.534.6v7.414a.545.545,0,0,1-.532.6c-1.259.009-2.518,0-3.777,0a2.456,2.456,0,0,1-.051.766.562.562,0,0,1-.552.312h-4.18a.549.549,0,0,1-.584-.411,7.928,7.928,0,0,1-.019-.872c-.39.193-.775.4-1.168.582a1.735,1.735,0,0,1-.783.162h-8.618a2.948,2.948,0,0,1-.978-.09,7.055,7.055,0,0,1-.882-.474q-4.312-2.49-8.626-4.977a3.888,3.888,0,0,1-.694-.46,2.154,2.154,0,0,1,1.949-3.69,3.7,3.7,0,0,1,1.005.474q2.409,1.393,4.819,2.784a2.195,2.195,0,0,1,1.211-.87q4.273-1.149,8.549-2.292a1.685,1.685,0,0,1,.852-.015c1.122.275,2.243.562,3.364.84.007-.332-.014-.665.01-1m1.068,9.226h3.232V332.34h-3.232Zm-22.32-7.567a1.09,1.09,0,0,0,.426,1.458q4.736,2.738,9.477,5.47a.771.771,0,0,0,.431.1q4.48,0,8.962,0a.85.85,0,0,0,.427-.108q.76-.381,1.519-.765,0-2.853,0-5.708-1.784-.448-3.569-.89a.8.8,0,0,0-.451.015q-4.22,1.14-8.44,2.267a1.077,1.077,0,1,0,.481,2.1l.06-.016c2.137-.569,4.271-1.148,6.408-1.716a.537.537,0,0,1,.668.361l.005.015a.545.545,0,0,1-.393.662.229.229,0,0,1-.028.006c-2.139.574-4.276,1.153-6.418,1.718a2.15,2.15,0,0,1-2.143-.679,2.2,2.2,0,0,1-.52-1.58q-2.708-1.566-5.416-3.127a1.1,1.1,0,0,0-1.486.416m26.628,6.49h3.232v-6.463h-3.232Z" fill="#12263f"/>
    <path id="Path_182125" data-name="Path 182125" d="M304.9,98.341h.629a6.963,6.963,0,0,1,4.419,1.921,6.872,6.872,0,0,1,2.116,4.961q.007,12.214,0,24.429a1.3,1.3,0,0,1-.111.732.7.7,0,0,1-.44.279h-9.727a.655.655,0,0,1-.513-.337.633.633,0,0,1,.211-.821.794.794,0,0,1,.469-.106q4.424,0,8.847,0,0-10.089,0-20.177c-.392.636-.777,1.276-1.17,1.911a.431.431,0,0,0-.08.269q0,7.863,0,15.726a1.245,1.245,0,0,1-.13.765.668.668,0,0,1-.579.253q-5.951,0-11.9,0c-.006.645.009,1.291-.006,1.937a.654.654,0,0,1-.569.579h-.12a3.151,3.151,0,0,1-.684-.306q-3.581-1.845-7.163-3.686l-7.189,3.7a4.076,4.076,0,0,1-.632.294h-.154a.661.661,0,0,1-.569-.691q0-12.154,0-24.31a.777.777,0,0,1,.09-.416,1.246,1.246,0,0,1,.556-.4q3.8-1.948,7.59-3.9a.7.7,0,0,1,.691.035q3.663,1.89,7.331,3.774a1.078,1.078,0,0,0,.476.179H298.3a6.676,6.676,0,0,1,.5-2.286.631.631,0,0,1,1.035-.113.737.737,0,0,1,.045.81,5.57,5.57,0,0,0,.617,4.965q2.18,3.6,4.379,7.186.3-.008.6,0,2.278-3.717,4.548-7.439a5.614,5.614,0,0,0-6.3-8.26.882.882,0,0,1-.821-.013A.632.632,0,0,1,303,98.7a6.787,6.787,0,0,1,1.9-.362m-23.787,7.617q.006,11.519,0,23.038,3.327-1.707,6.65-3.423c0-.469,0-.938,0-1.406q-2.232,1.152-4.467,2.3a.648.648,0,0,1-.863-.282,1.305,1.305,0,0,1-.066-.573q0-9.248,0-18.494a.651.651,0,0,1,.414-.611q2.49-1.278,4.979-2.561,0-.7,0-1.409l-6.65,3.424m7.914-3.424c0,.465,0,.93,0,1.4q3.326,1.573,6.647,3.155c0-.377,0-.754,0-1.131q-3.322-1.715-6.649-3.42m0,2.793q0,2.193,0,4.386a4.619,4.619,0,0,1,1,.053,2.108,2.108,0,0,1,1.192.762c.4.506.8,1.018,1.2,1.522a.855.855,0,0,0,.7.314c.855,0,1.709.008,2.562-.006-.007-1.292,0-2.584,0-3.875q-3.322-1.581-6.648-3.156m-3.236,1.05c.346.933.691,1.866,1.043,2.8a.909.909,0,0,0,.93.545v-4.355l-1.973,1.014m11.148-.178q0,.627,0,1.254h1.734a7.612,7.612,0,0,1-.3-1.254h-1.432m-13.308,1.29v9.037c.322,0,.642-.006.963.006a3.657,3.657,0,0,1,1.785.552,8.681,8.681,0,0,1,1.384,1.244q0-3.675,0-7.349a2.164,2.164,0,0,1-2.082-1.284c-.349-.909-.68-1.824-1.023-2.735-.343.175-.684.354-1.028.529m13.307,1.227q0,1.824,0,3.648h4.547q-1.11-1.824-2.225-3.646c-.774,0-1.549,0-2.323,0m-7.911,2.26q0,4.308,0,8.617a1.063,1.063,0,0,0,.8.45c1.949,0,3.9,0,5.848,0q0-3.208,0-6.416c-.873,0-1.745,0-2.617,0a2.119,2.119,0,0,1-1.631-.786c-.4-.5-.794-1.013-1.193-1.517a.85.85,0,0,0-.589-.341c-.206-.014-.413,0-.619-.005m17.722,4.876a2.439,2.439,0,0,1,1.024.983,1.832,1.832,0,0,1,.04,1.628A2.385,2.385,0,0,1,306.6,119.6a3.577,3.577,0,0,1-2.442.148,2.609,2.609,0,0,1-1.525-1.124,1.841,1.841,0,0,1-.066-1.737,2.417,2.417,0,0,1,1.051-1.033c-.455-.741-.907-1.484-1.362-2.225h-5.321q0,3.21,0,6.419h1.547a2.34,2.34,0,0,1,1.049.236,4.959,4.959,0,0,1,1.221,1.042q2.785,2.778,5.563,5.56h1.968q0-6.773,0-13.544-.77,1.256-1.537,2.513m-3.062,1.636a.567.567,0,0,0,.084.56,1.553,1.553,0,0,0,.895.523,2.19,2.19,0,0,0,1.622-.239.77.77,0,0,0,.426-.73,1.044,1.044,0,0,0-.63-.666c-.149.228-.271.476-.44.69a.63.63,0,0,1-.891.027.443.443,0,0,1-.037-.038c-.164-.213-.284-.455-.432-.679a1.166,1.166,0,0,0-.6.552m-20.056.3q0,3.542,0,7.084c1.377-.7,2.747-1.419,4.125-2.118.016-.879,0-1.758.007-2.638-.483-.488-.97-.972-1.456-1.458a2.647,2.647,0,0,0-1.088-.739,4.869,4.869,0,0,0-1.589-.131m5.395,4.968,6.65,3.683c0-1.711,0-3.422,0-5.133H289.9a2.4,2.4,0,0,1-.872-.151v1.6m7.913-1.45q0,2.789,0,5.576h7.591q-2.586-2.591-5.176-5.179a1.122,1.122,0,0,0-.808-.4c-.536,0-1.072,0-1.607,0m-7.912,2.9c0,.458,0,.917,0,1.375q3.326,1.7,6.647,3.418c0-.369,0-.738,0-1.106q-3.32-1.851-6.649-3.687" fill="#12263f"/>
    <path id="Path_182126" data-name="Path 182126" d="M300.714,100.079a.618.618,0,0,1,.783.356.631.631,0,1,1-1.212.335c0-.011,0-.022-.005-.033a.611.611,0,0,1,.434-.658" fill="#12263f"/>
    <path id="Path_182127" data-name="Path 182127" d="M304.509,102.108a3.184,3.184,0,1,1-2.467,2.582,3.182,3.182,0,0,1,2.467-2.582m.233,1.24a1.923,1.923,0,1,0,2.236,1.184,1.937,1.937,0,0,0-2.236-1.184" fill="#12263f"/>
    <path id="Path_182128" data-name="Path 182128" d="M298.521,129.752a.634.634,0,0,1,1.081-.077.643.643,0,0,1-.448.987h-.118a.644.644,0,0,1-.515-.91" fill="#12263f"/>
    <path id="Path_182129" data-name="Path 182129" d="M336.907,233.442h7.307a1.657,1.657,0,0,1,1.154.651,1.62,1.62,0,0,1,.1,1.77,1.7,1.7,0,0,1-.857.719c0,.411,0,.824,0,1.236A2.218,2.218,0,0,1,346.02,239a5.821,5.821,0,0,1,.208,2.238,6.74,6.74,0,0,1,2.648,2.435c1.593.014,3.187,0,4.78.006a2.864,2.864,0,0,1,1.176.129,1.621,1.621,0,0,1,.982,1.627q-.746,8.261-1.5,16.519c-.024.785.012,1.572-.018,2.357a1.643,1.643,0,0,1-1.444,1.455H329.927a3.719,3.719,0,0,1-1.61-.672,4.773,4.773,0,0,1-1.75-2.23,5.869,5.869,0,0,1-.161-3.883,6.638,6.638,0,0,1,1.5-2.569c.007-.691-.008-1.382.007-2.072a1.618,1.618,0,0,1,1.558-1.5c2.172-.007,4.344,0,6.516,0q0-2.561,0-5.123a7.424,7.424,0,0,1,.248-2.087,7.011,7.011,0,0,1,3.516-4.379c.024-.52-.014-1.042.021-1.561a2.173,2.173,0,0,1,1.6-1.86c0-.383,0-.766,0-1.149-1.441,0-2.882,0-4.324,0a1.615,1.615,0,0,1-1.21-2.668,1.7,1.7,0,0,1,1.063-.562m.089,1.084a.539.539,0,0,0-.426.733.575.575,0,0,0,.607.339c2.294,0,4.588,0,6.881,0a.541.541,0,0,0,.55-.532.537.537,0,0,0-.608-.544c-2.335.005-4.67-.01-7,.007m5.46,2.148q0,.539,0,1.077c.358,0,.716,0,1.073,0,.009-.359,0-.719,0-1.078-.359,0-.718,0-1.077,0m-1.54,2.833a4.619,4.619,0,0,0-.076,1.277,7.136,7.136,0,0,1,4.309,0c-.006-.344.015-.688-.012-1.031a1.077,1.077,0,0,0-1.016-.922c-.737,0-1.474,0-2.211,0a1.077,1.077,0,0,0-.994.677m1.253,2.076a5.861,5.861,0,0,0-3.616,1.947,5.951,5.951,0,0,0-1.483,3.923q0,2.691,0,5.381c.754.006,1.507-.007,2.261.006a1.617,1.617,0,0,1,1.5,1.492c.016.692,0,1.384.008,2.076a8.255,8.255,0,0,1,.829,1.087,6.025,6.025,0,0,1,.909,3.656,5.372,5.372,0,0,1-1.642,3.536h5.924a1.861,1.861,0,0,1-.094-.505c-.01-.753.011-1.506-.01-2.258q-.733-8.054-1.466-16.107a2.837,2.837,0,0,1-.01-.833,1.622,1.622,0,0,1,1.035-1.209,3.874,3.874,0,0,1,1.24-.1,5.889,5.889,0,0,0-5.387-2.093m4.163,3.73c.021.353.064.7.093,1.057h8.222c.029-.355.071-.708.093-1.062a.544.544,0,0,0-.581-.555l-7.264,0a.538.538,0,0,0-.563.557m.191,2.135q.636,7,1.273,14.006h5.479q.641-7,1.274-14.006h-8.026M328.994,254.4c-.016.552,0,1.1-.01,1.658.374.021.748,0,1.122.012a.536.536,0,0,1,0,1.069c-.47.013-.941,0-1.411.007a5.207,5.207,0,0,0-1.465,3.629,4.43,4.43,0,0,0,1.16,2.977,3.039,3.039,0,0,0,1.653.928c2.841.012,5.683,0,8.524.005a1.516,1.516,0,0,0,.711-.168,3.7,3.7,0,0,0,1.712-1.632,4.851,4.851,0,0,0,.428-3.192,5.489,5.489,0,0,0-1.364-2.549c-2.431,0-4.861,0-7.292,0a.537.537,0,0,1-.005-1.074c2.335-.005,4.67,0,7.005,0,0-.553.007-1.107,0-1.661a.539.539,0,0,0-.555-.492q-4.836,0-9.67,0a.533.533,0,0,0-.539.487m18.849,8.131c0,.554-.008,1.107.005,1.661a.538.538,0,0,0,.563.492q2.118,0,4.237,0a.544.544,0,0,0,.577-.5c.011-.55,0-1.1,0-1.651q-2.693,0-5.386,0" fill="#12263f"/>
    <path id="Path_182130" data-name="Path 182130" d="M341.056,243.009a.537.537,0,0,1,.655.383l0,.014a.561.561,0,0,1-.368.647,3.8,3.8,0,0,0-2.123,3.392.539.539,0,1,1-1.075-.053,4.849,4.849,0,0,1,2.908-4.383" fill="#12263f"/>
    <path id="Path_182131" data-name="Path 182131" d="M330.381,259.349a.875.875,0,0,1,.363-.051c2.481.006,4.962-.005,7.442.006a.539.539,0,0,1,.418.815.545.545,0,0,1-.475.257q-3.729,0-7.459,0a.555.555,0,0,1-.569-.353.54.54,0,0,1,.28-.675" fill="#12263f"/>
    <path id="Path_182132" data-name="Path 182132" d="M332.019,261.495a.988.988,0,0,1,.363-.041c1.388,0,2.775,0,4.162,0a.537.537,0,0,1,.523.551.539.539,0,0,1-.582.523h-4.237a.544.544,0,0,1-.564-.521.26.26,0,0,1,0-.039.536.536,0,0,1,.335-.477" fill="#12263f"/>
  </g>
</svg>
