<svg id="t3-info2" xmlns="http://www.w3.org/2000/svg" xmlns:xlink="http://www.w3.org/1999/xlink" width="897.544" height="518.526" viewBox="0 0 897.544 518.526">
  <defs>
    <clipPath id="clip-path">
      <rect id="Rectangle_38355" data-name="Rectangle 38355" width="897.544" height="518.526" fill="none"/>
    </clipPath>
  </defs>
  <g id="Group_118334" data-name="Group 118334" clip-path="url(#clip-path)">
    <path id="Path_183814" data-name="Path 183814" d="M115.04,96.985h-1.1a1.649,1.649,0,1,1,0-3.3h1.1a1.649,1.649,0,1,1,0,3.3" transform="translate(11.153 9.305)" fill="#08878c"/>
    <path id="Path_183815" data-name="Path 183815" d="M751.959,96.985h-2.2a1.649,1.649,0,1,1,0-3.3h2.2a1.649,1.649,0,1,1,0,3.3m-11,0h-2.2a1.649,1.649,0,1,1,0-3.3h2.2a1.649,1.649,0,1,1,0,3.3m-11,0h-2.2a1.649,1.649,0,1,1,0-3.3h2.2a1.649,1.649,0,1,1,0,3.3m-11,0h-2.2a1.649,1.649,0,1,1,0-3.3h2.2a1.649,1.649,0,1,1,0,3.3m-11,0h-2.2a1.649,1.649,0,1,1,0-3.3h2.2a1.649,1.649,0,1,1,0,3.3m-11,0h-2.2a1.649,1.649,0,1,1,0-3.3h2.2a1.649,1.649,0,1,1,0,3.3m-11,0h-2.2a1.649,1.649,0,1,1,0-3.3h2.2a1.649,1.649,0,1,1,0,3.3m-11,0h-2.2a1.649,1.649,0,1,1,0-3.3h2.2a1.649,1.649,0,1,1,0,3.3m-11,0h-2.2a1.649,1.649,0,1,1,0-3.3h2.2a1.649,1.649,0,0,1,0,3.3m-11,0h-2.2a1.649,1.649,0,0,1,0-3.3h2.2a1.649,1.649,0,0,1,0,3.3m-11,0h-2.2a1.649,1.649,0,0,1,0-3.3h2.2a1.649,1.649,0,1,1,0,3.3m-11,0h-2.2a1.649,1.649,0,0,1,0-3.3h2.2a1.649,1.649,0,1,1,0,3.3m-11,0h-2.2a1.649,1.649,0,1,1,0-3.3H620a1.649,1.649,0,0,1,0,3.3m-11,0h-2.2a1.649,1.649,0,1,1,0-3.3H609a1.649,1.649,0,0,1,0,3.3m-11,0h-2.2a1.649,1.649,0,0,1,0-3.3h2.2a1.649,1.649,0,0,1,0,3.3m-11,0h-2.2a1.649,1.649,0,0,1,0-3.3h2.2a1.649,1.649,0,1,1,0,3.3m-11,0h-2.2a1.649,1.649,0,1,1,0-3.3h2.2a1.649,1.649,0,1,1,0,3.3m-11,0h-2.2a1.649,1.649,0,1,1,0-3.3h2.2a1.649,1.649,0,1,1,0,3.3m-11,0h-2.2a1.649,1.649,0,0,1,0-3.3h2.2a1.649,1.649,0,1,1,0,3.3m-11,0h-2.2a1.649,1.649,0,1,1,0-3.3h2.2a1.649,1.649,0,1,1,0,3.3m-11,0h-2.2a1.649,1.649,0,1,1,0-3.3h2.2a1.649,1.649,0,1,1,0,3.3m-11,0h-2.2a1.649,1.649,0,1,1,0-3.3h2.2a1.649,1.649,0,1,1,0,3.3m-11,0h-2.2a1.649,1.649,0,1,1,0-3.3h2.2a1.649,1.649,0,1,1,0,3.3m-11,0h-2.2a1.649,1.649,0,0,1,0-3.3h2.2a1.649,1.649,0,0,1,0,3.3m-11,0h-2.2a1.649,1.649,0,0,1,0-3.3h2.2a1.649,1.649,0,1,1,0,3.3m-11,0h-2.2a1.649,1.649,0,0,1,0-3.3h2.2a1.649,1.649,0,0,1,0,3.3m-11,0h-2.2a1.649,1.649,0,0,1,0-3.3h2.2a1.649,1.649,0,0,1,0,3.3m-11,0h-2.2a1.649,1.649,0,1,1,0-3.3h2.2a1.649,1.649,0,1,1,0,3.3m-11,0h-2.2a1.649,1.649,0,0,1,0-3.3h2.2a1.649,1.649,0,1,1,0,3.3m-11,0h-2.2a1.649,1.649,0,0,1,0-3.3h2.2a1.649,1.649,0,1,1,0,3.3m-11,0h-2.2a1.649,1.649,0,0,1,0-3.3h2.2a1.649,1.649,0,1,1,0,3.3m-11,0h-2.2a1.649,1.649,0,0,1,0-3.3h2.2a1.649,1.649,0,1,1,0,3.3m-11,0h-2.2a1.649,1.649,0,1,1,0-3.3h2.2a1.649,1.649,0,1,1,0,3.3m-11,0h-2.2a1.649,1.649,0,1,1,0-3.3h2.2a1.649,1.649,0,1,1,0,3.3m-11,0h-2.2a1.649,1.649,0,1,1,0-3.3h2.2a1.649,1.649,0,1,1,0,3.3m-11,0h-2.2a1.649,1.649,0,1,1,0-3.3h2.2a1.649,1.649,0,1,1,0,3.3m-11,0h-2.2a1.649,1.649,0,1,1,0-3.3h2.2a1.649,1.649,0,1,1,0,3.3m-11,0h-2.2a1.649,1.649,0,1,1,0-3.3h2.2a1.649,1.649,0,0,1,0,3.3m-11,0h-2.2a1.649,1.649,0,1,1,0-3.3h2.2a1.649,1.649,0,1,1,0,3.3m-11,0h-2.2a1.649,1.649,0,1,1,0-3.3h2.2a1.649,1.649,0,1,1,0,3.3m-11,0h-2.2a1.649,1.649,0,1,1,0-3.3h2.2a1.649,1.649,0,0,1,0,3.3m-11,0h-2.2a1.649,1.649,0,1,1,0-3.3h2.2a1.649,1.649,0,0,1,0,3.3m-11,0h-2.2a1.649,1.649,0,1,1,0-3.3h2.2a1.649,1.649,0,0,1,0,3.3m-11,0h-2.2a1.649,1.649,0,1,1,0-3.3h2.2a1.649,1.649,0,0,1,0,3.3m-11,0h-2.2a1.649,1.649,0,1,1,0-3.3h2.2a1.649,1.649,0,0,1,0,3.3m-11,0h-2.2a1.649,1.649,0,1,1,0-3.3h2.2a1.649,1.649,0,0,1,0,3.3m-11,0h-2.2a1.649,1.649,0,0,1,0-3.3h2.2a1.649,1.649,0,1,1,0,3.3m-11,0h-2.2a1.649,1.649,0,1,1,0-3.3h2.2a1.649,1.649,0,0,1,0,3.3m-11,0h-2.2a1.649,1.649,0,1,1,0-3.3h2.2a1.649,1.649,0,0,1,0,3.3m-11,0h-2.2a1.649,1.649,0,1,1,0-3.3h2.2a1.649,1.649,0,1,1,0,3.3m-11,0h-2.2a1.649,1.649,0,0,1,0-3.3h2.2a1.649,1.649,0,1,1,0,3.3m-11,0h-2.2a1.649,1.649,0,1,1,0-3.3h2.2a1.649,1.649,0,0,1,0,3.3m-11,0h-2.2a1.649,1.649,0,0,1,0-3.3h2.2a1.649,1.649,0,0,1,0,3.3m-11,0h-2.2a1.649,1.649,0,0,1,0-3.3h2.2a1.649,1.649,0,0,1,0,3.3m-11,0h-2.2a1.649,1.649,0,0,1,0-3.3h2.2a1.649,1.649,0,0,1,0,3.3m-11,0h-2.2a1.649,1.649,0,0,1,0-3.3h2.2a1.649,1.649,0,0,1,0,3.3m-11,0h-2.2a1.649,1.649,0,0,1,0-3.3h2.2a1.649,1.649,0,0,1,0,3.3m-11,0h-2.2a1.649,1.649,0,0,1,0-3.3h2.2a1.649,1.649,0,0,1,0,3.3" transform="translate(12.047 9.305)" fill="#08878c"/>
    <path id="Path_183816" data-name="Path 183816" d="M704.231,98.084a1.65,1.65,0,0,1-1.579-1.17,1.649,1.649,0,0,1,.479-3.228h1.1a1.65,1.65,0,0,1,1.649,1.649v1.1a1.65,1.65,0,0,1-1.649,1.649" transform="translate(69.669 9.305)" fill="#08878c"/>
    <path id="Path_183817" data-name="Path 183817" d="M704.132,248.7a1.65,1.65,0,0,1-1.649-1.649v-2.165a1.649,1.649,0,0,1,3.3,0v2.165a1.65,1.65,0,0,1-1.649,1.649m0-10.823a1.65,1.65,0,0,1-1.649-1.649v-2.165a1.649,1.649,0,0,1,3.3,0v2.165a1.65,1.65,0,0,1-1.649,1.649m0-10.822a1.65,1.65,0,0,1-1.649-1.649v-2.163a1.649,1.649,0,0,1,3.3,0v2.163a1.65,1.65,0,0,1-1.649,1.649m0-10.821a1.65,1.65,0,0,1-1.649-1.649v-2.165a1.649,1.649,0,0,1,3.3,0v2.165a1.65,1.65,0,0,1-1.649,1.649m0-10.822a1.65,1.65,0,0,1-1.649-1.649V201.6a1.649,1.649,0,0,1,3.3,0v2.165a1.65,1.65,0,0,1-1.649,1.649m0-10.822a1.65,1.65,0,0,1-1.649-1.649v-2.165a1.649,1.649,0,1,1,3.3,0v2.165a1.65,1.65,0,0,1-1.649,1.649m0-10.822a1.65,1.65,0,0,1-1.649-1.649v-2.163a1.649,1.649,0,0,1,3.3,0v2.163a1.65,1.65,0,0,1-1.649,1.649m0-10.821a1.65,1.65,0,0,1-1.649-1.649V169.14a1.649,1.649,0,0,1,3.3,0V171.3a1.65,1.65,0,0,1-1.649,1.649m0-10.822a1.65,1.65,0,0,1-1.649-1.649v-2.165a1.649,1.649,0,0,1,3.3,0v2.165a1.65,1.65,0,0,1-1.649,1.649m0-10.822a1.65,1.65,0,0,1-1.649-1.649V147.5a1.649,1.649,0,0,1,3.3,0v2.165a1.65,1.65,0,0,1-1.649,1.649m0-10.822a1.65,1.65,0,0,1-1.649-1.649v-2.165a1.649,1.649,0,0,1,3.3,0v2.165a1.65,1.65,0,0,1-1.649,1.649m0-10.822a1.649,1.649,0,0,1-1.649-1.649v-2.163a1.649,1.649,0,0,1,3.3,0v2.163a1.649,1.649,0,0,1-1.649,1.649m0-10.821a1.65,1.65,0,0,1-1.649-1.649v-2.165a1.649,1.649,0,0,1,3.3,0V117.2a1.65,1.65,0,0,1-1.649,1.649m0-10.822a1.65,1.65,0,0,1-1.649-1.649v-2.165a1.649,1.649,0,0,1,3.3,0v2.165a1.65,1.65,0,0,1-1.649,1.649" transform="translate(69.769 10.186)" fill="#08878c"/>
    <path id="Path_183818" data-name="Path 183818" d="M704.231,244.772h-1.1a2.266,2.266,0,1,1,2.748-2.748v1.1a1.65,1.65,0,0,1-1.649,1.649" transform="translate(69.669 23.873)" fill="#08878c"/>
    <path id="Path_183819" data-name="Path 183819" d="M751.959,244.673h-2.2a1.649,1.649,0,1,1,0-3.3h2.2a1.649,1.649,0,1,1,0,3.3m-11,0h-2.2a1.649,1.649,0,1,1,0-3.3h2.2a1.649,1.649,0,1,1,0,3.3m-11,0h-2.2a1.649,1.649,0,1,1,0-3.3h2.2a1.649,1.649,0,0,1,0,3.3m-11,0h-2.2a1.649,1.649,0,1,1,0-3.3h2.2a1.649,1.649,0,1,1,0,3.3m-11,0h-2.2a1.649,1.649,0,1,1,0-3.3h2.2a1.649,1.649,0,1,1,0,3.3m-11,0h-2.2a1.649,1.649,0,1,1,0-3.3h2.2a1.649,1.649,0,1,1,0,3.3m-11,0h-2.2a1.649,1.649,0,1,1,0-3.3h2.2a1.649,1.649,0,1,1,0,3.3m-11,0h-2.2a1.649,1.649,0,1,1,0-3.3h2.2a1.649,1.649,0,1,1,0,3.3m-11,0h-2.2a1.649,1.649,0,1,1,0-3.3h2.2a1.649,1.649,0,0,1,0,3.3m-11,0h-2.2a1.649,1.649,0,0,1,0-3.3h2.2a1.649,1.649,0,0,1,0,3.3m-11,0h-2.2a1.649,1.649,0,0,1,0-3.3h2.2a1.649,1.649,0,1,1,0,3.3m-11,0h-2.2a1.649,1.649,0,0,1,0-3.3h2.2a1.649,1.649,0,1,1,0,3.3m-11,0h-2.2a1.649,1.649,0,1,1,0-3.3H620a1.649,1.649,0,1,1,0,3.3m-11,0h-2.2a1.649,1.649,0,1,1,0-3.3H609a1.649,1.649,0,0,1,0,3.3m-11,0h-2.2a1.649,1.649,0,0,1,0-3.3H598a1.649,1.649,0,1,1,0,3.3m-11,0h-2.2a1.649,1.649,0,1,1,0-3.3h2.2a1.649,1.649,0,1,1,0,3.3m-11,0h-2.2a1.649,1.649,0,1,1,0-3.3h2.2a1.649,1.649,0,1,1,0,3.3m-11,0h-2.2a1.649,1.649,0,1,1,0-3.3h2.2a1.649,1.649,0,1,1,0,3.3m-11,0h-2.2a1.649,1.649,0,1,1,0-3.3h2.2a1.649,1.649,0,1,1,0,3.3m-11,0h-2.2a1.649,1.649,0,1,1,0-3.3h2.2a1.649,1.649,0,1,1,0,3.3m-11,0h-2.2a1.649,1.649,0,1,1,0-3.3h2.2a1.649,1.649,0,1,1,0,3.3m-11,0h-2.2a1.649,1.649,0,1,1,0-3.3h2.2a1.649,1.649,0,1,1,0,3.3m-11,0h-2.2a1.649,1.649,0,1,1,0-3.3h2.2a1.649,1.649,0,1,1,0,3.3m-11,0h-2.2a1.649,1.649,0,0,1,0-3.3h2.2a1.649,1.649,0,1,1,0,3.3m-11,0h-2.2a1.649,1.649,0,0,1,0-3.3h2.2a1.649,1.649,0,1,1,0,3.3m-11,0h-2.2a1.649,1.649,0,0,1,0-3.3h2.2a1.649,1.649,0,1,1,0,3.3m-11,0h-2.2a1.649,1.649,0,0,1,0-3.3h2.2a1.649,1.649,0,1,1,0,3.3m-11,0h-2.2a1.649,1.649,0,1,1,0-3.3h2.2a1.649,1.649,0,1,1,0,3.3m-11,0h-2.2a1.649,1.649,0,0,1,0-3.3h2.2a1.649,1.649,0,1,1,0,3.3m-11,0h-2.2a1.649,1.649,0,0,1,0-3.3h2.2a1.649,1.649,0,1,1,0,3.3m-11,0h-2.2a1.649,1.649,0,0,1,0-3.3h2.2a1.649,1.649,0,1,1,0,3.3m-11,0h-2.2a1.649,1.649,0,1,1,0-3.3h2.2a1.649,1.649,0,1,1,0,3.3m-11,0h-2.2a1.649,1.649,0,1,1,0-3.3h2.2a1.649,1.649,0,1,1,0,3.3m-11,0h-2.2a1.649,1.649,0,1,1,0-3.3h2.2a1.649,1.649,0,1,1,0,3.3m-11,0h-2.2a1.649,1.649,0,1,1,0-3.3h2.2a1.649,1.649,0,1,1,0,3.3m-11,0h-2.2a1.649,1.649,0,1,1,0-3.3h2.2a1.649,1.649,0,1,1,0,3.3m-11,0h-2.2a1.649,1.649,0,1,1,0-3.3h2.2a1.649,1.649,0,0,1,0,3.3m-11,0h-2.2a1.649,1.649,0,1,1,0-3.3h2.2a1.649,1.649,0,0,1,0,3.3m-11,0h-2.2a1.649,1.649,0,1,1,0-3.3h2.2a1.649,1.649,0,0,1,0,3.3m-11,0h-2.2a1.649,1.649,0,1,1,0-3.3h2.2a1.649,1.649,0,0,1,0,3.3m-11,0h-2.2a1.649,1.649,0,1,1,0-3.3h2.2a1.649,1.649,0,0,1,0,3.3m-11,0h-2.2a1.649,1.649,0,1,1,0-3.3h2.2a1.649,1.649,0,0,1,0,3.3m-11,0h-2.2a1.649,1.649,0,1,1,0-3.3h2.2a1.649,1.649,0,0,1,0,3.3m-11,0h-2.2a1.649,1.649,0,1,1,0-3.3h2.2a1.649,1.649,0,0,1,0,3.3m-11,0h-2.2a1.649,1.649,0,1,1,0-3.3h2.2a1.649,1.649,0,0,1,0,3.3m-11,0h-2.2a1.649,1.649,0,1,1,0-3.3h2.2a1.649,1.649,0,0,1,0,3.3m-11,0h-2.2a1.649,1.649,0,1,1,0-3.3h2.2a1.649,1.649,0,1,1,0,3.3m-11,0h-2.2a1.649,1.649,0,1,1,0-3.3h2.2a1.649,1.649,0,1,1,0,3.3m-11,0h-2.2a1.649,1.649,0,1,1,0-3.3h2.2a1.649,1.649,0,1,1,0,3.3m-11,0h-2.2a1.649,1.649,0,1,1,0-3.3h2.2a1.649,1.649,0,1,1,0,3.3m-11,0h-2.2a1.649,1.649,0,1,1,0-3.3h2.2a1.649,1.649,0,1,1,0,3.3m-11,0h-2.2a1.649,1.649,0,1,1,0-3.3h2.2a1.649,1.649,0,1,1,0,3.3m-11,0h-2.2a1.649,1.649,0,1,1,0-3.3h2.2a1.649,1.649,0,1,1,0,3.3m-11,0h-2.2a1.649,1.649,0,1,1,0-3.3h2.2a1.649,1.649,0,1,1,0,3.3m-11,0h-2.2a1.649,1.649,0,1,1,0-3.3h2.2a1.649,1.649,0,1,1,0,3.3m-11,0h-2.2a1.649,1.649,0,1,1,0-3.3h2.2a1.649,1.649,0,1,1,0,3.3m-11,0h-2.2a1.649,1.649,0,1,1,0-3.3h2.2a1.649,1.649,0,1,1,0,3.3m-11,0h-2.2a1.649,1.649,0,1,1,0-3.3h2.2a1.649,1.649,0,1,1,0,3.3" transform="translate(12.047 23.973)" fill="#08878c"/>
    <path id="Path_183820" data-name="Path 183820" d="M113.941,245.772a1.65,1.65,0,0,1-1.649-1.649v-1.1a1.65,1.65,0,0,1,1.649-1.649h1.1a2.569,2.569,0,0,1-1.1,4.4" transform="translate(11.153 23.973)" fill="#08878c"/>
    <path id="Path_183821" data-name="Path 183821" d="M113.941,375.506a1.65,1.65,0,0,1-1.649-1.649v-2.176a1.649,1.649,0,1,1,3.3,0v2.176a1.65,1.65,0,0,1-1.649,1.649m0-10.884a1.65,1.65,0,0,1-1.649-1.649v-2.178a1.649,1.649,0,0,1,3.3,0v2.178a1.65,1.65,0,0,1-1.649,1.649m0-10.885a1.65,1.65,0,0,1-1.649-1.649v-2.177a1.649,1.649,0,0,1,3.3,0v2.177a1.65,1.65,0,0,1-1.649,1.649m0-10.884a1.65,1.65,0,0,1-1.649-1.649v-2.178a1.649,1.649,0,1,1,3.3,0V341.2a1.65,1.65,0,0,1-1.649,1.649m0-10.884a1.65,1.65,0,0,1-1.649-1.649v-2.178a1.649,1.649,0,1,1,3.3,0v2.178a1.65,1.65,0,0,1-1.649,1.649m0-10.887a1.65,1.65,0,0,1-1.649-1.649v-2.177a1.649,1.649,0,1,1,3.3,0v2.177a1.65,1.65,0,0,1-1.649,1.649m0-10.884a1.65,1.65,0,0,1-1.649-1.649V306.37a1.649,1.649,0,0,1,3.3,0v2.178a1.65,1.65,0,0,1-1.649,1.649m0-10.885a1.649,1.649,0,0,1-1.649-1.649v-2.177a1.649,1.649,0,0,1,3.3,0v2.177a1.649,1.649,0,0,1-1.649,1.649m0-10.884a1.65,1.65,0,0,1-1.649-1.649V284.6a1.649,1.649,0,0,1,3.3,0v2.177a1.65,1.65,0,0,1-1.649,1.649m0-10.885a1.65,1.65,0,0,1-1.649-1.649v-2.178a1.649,1.649,0,1,1,3.3,0v2.178a1.65,1.65,0,0,1-1.649,1.649m0-10.885a1.65,1.65,0,0,1-1.649-1.649V262.83a1.649,1.649,0,1,1,3.3,0v2.177a1.65,1.65,0,0,1-1.649,1.649m0-10.884a1.65,1.65,0,0,1-1.649-1.649v-2.177a1.649,1.649,0,1,1,3.3,0v2.177a1.65,1.65,0,0,1-1.649,1.649" transform="translate(11.153 24.859)" fill="#08878c"/>
    <path id="Path_183822" data-name="Path 183822" d="M115.04,373.512h-1.1a1.65,1.65,0,0,1-1.649-1.649v-1.1a2.266,2.266,0,1,1,2.748,2.748" transform="translate(11.153 36.659)" fill="#08878c"/>
    <path id="Path_183823" data-name="Path 183823" d="M751.959,373.413h-2.2a1.649,1.649,0,1,1,0-3.3h2.2a1.649,1.649,0,1,1,0,3.3m-11,0h-2.2a1.649,1.649,0,1,1,0-3.3h2.2a1.649,1.649,0,1,1,0,3.3m-11,0h-2.2a1.649,1.649,0,1,1,0-3.3h2.2a1.649,1.649,0,1,1,0,3.3m-11,0h-2.2a1.649,1.649,0,1,1,0-3.3h2.2a1.649,1.649,0,1,1,0,3.3m-11,0h-2.2a1.649,1.649,0,1,1,0-3.3h2.2a1.649,1.649,0,1,1,0,3.3m-11,0h-2.2a1.649,1.649,0,1,1,0-3.3h2.2a1.649,1.649,0,1,1,0,3.3m-11,0h-2.2a1.649,1.649,0,1,1,0-3.3h2.2a1.649,1.649,0,1,1,0,3.3m-11,0h-2.2a1.649,1.649,0,1,1,0-3.3h2.2a1.649,1.649,0,1,1,0,3.3m-11,0h-2.2a1.649,1.649,0,1,1,0-3.3h2.2a1.649,1.649,0,0,1,0,3.3m-11,0h-2.2a1.649,1.649,0,0,1,0-3.3h2.2a1.649,1.649,0,0,1,0,3.3m-11,0h-2.2a1.649,1.649,0,0,1,0-3.3h2.2a1.649,1.649,0,1,1,0,3.3m-11,0h-2.2a1.649,1.649,0,0,1,0-3.3h2.2a1.649,1.649,0,1,1,0,3.3m-11,0h-2.2a1.649,1.649,0,1,1,0-3.3H620a1.649,1.649,0,0,1,0,3.3m-11,0h-2.2a1.649,1.649,0,1,1,0-3.3H609a1.649,1.649,0,0,1,0,3.3m-11,0h-2.2a1.649,1.649,0,0,1,0-3.3h2.2a1.649,1.649,0,0,1,0,3.3m-11,0h-2.2a1.649,1.649,0,0,1,0-3.3h2.2a1.649,1.649,0,1,1,0,3.3m-11,0h-2.2a1.649,1.649,0,1,1,0-3.3h2.2a1.649,1.649,0,1,1,0,3.3m-11,0h-2.2a1.649,1.649,0,1,1,0-3.3h2.2a1.649,1.649,0,1,1,0,3.3m-11,0h-2.2a1.649,1.649,0,0,1,0-3.3h2.2a1.649,1.649,0,1,1,0,3.3m-11,0h-2.2a1.649,1.649,0,1,1,0-3.3h2.2a1.649,1.649,0,1,1,0,3.3m-11,0h-2.2a1.649,1.649,0,1,1,0-3.3h2.2a1.649,1.649,0,1,1,0,3.3m-11,0h-2.2a1.649,1.649,0,1,1,0-3.3h2.2a1.649,1.649,0,1,1,0,3.3m-11,0h-2.2a1.649,1.649,0,0,1,0-3.3h2.2a1.649,1.649,0,0,1,0,3.3m-11,0h-2.2a1.649,1.649,0,0,1,0-3.3h2.2a1.649,1.649,0,0,1,0,3.3m-11,0h-2.2a1.649,1.649,0,0,1,0-3.3h2.2a1.649,1.649,0,1,1,0,3.3m-11,0h-2.2a1.649,1.649,0,0,1,0-3.3h2.2a1.649,1.649,0,0,1,0,3.3m-11,0h-2.2a1.649,1.649,0,0,1,0-3.3h2.2a1.649,1.649,0,0,1,0,3.3m-11,0h-2.2a1.649,1.649,0,1,1,0-3.3h2.2a1.649,1.649,0,1,1,0,3.3m-11,0h-2.2a1.649,1.649,0,0,1,0-3.3h2.2a1.649,1.649,0,1,1,0,3.3m-11,0h-2.2a1.649,1.649,0,0,1,0-3.3h2.2a1.649,1.649,0,0,1,0,3.3m-11,0h-2.2a1.649,1.649,0,0,1,0-3.3h2.2a1.649,1.649,0,0,1,0,3.3m-11,0h-2.2a1.649,1.649,0,0,1,0-3.3h2.2a1.649,1.649,0,1,1,0,3.3m-11,0h-2.2a1.649,1.649,0,1,1,0-3.3h2.2a1.649,1.649,0,1,1,0,3.3m-11,0h-2.2a1.649,1.649,0,1,1,0-3.3h2.2a1.649,1.649,0,1,1,0,3.3m-11,0h-2.2a1.649,1.649,0,0,1,0-3.3h2.2a1.649,1.649,0,1,1,0,3.3m-11,0h-2.2a1.649,1.649,0,0,1,0-3.3h2.2a1.649,1.649,0,1,1,0,3.3m-11,0h-2.2a1.649,1.649,0,0,1,0-3.3h2.2a1.649,1.649,0,0,1,0,3.3m-11,0h-2.2a1.649,1.649,0,1,1,0-3.3h2.2a1.649,1.649,0,0,1,0,3.3m-11,0h-2.2a1.649,1.649,0,1,1,0-3.3h2.2a1.649,1.649,0,0,1,0,3.3m-11,0h-2.2a1.649,1.649,0,1,1,0-3.3h2.2a1.649,1.649,0,1,1,0,3.3m-11,0h-2.2a1.649,1.649,0,0,1,0-3.3h2.2a1.649,1.649,0,0,1,0,3.3m-11,0h-2.2a1.649,1.649,0,0,1,0-3.3h2.2a1.649,1.649,0,0,1,0,3.3m-11,0h-2.2a1.649,1.649,0,1,1,0-3.3h2.2a1.649,1.649,0,0,1,0,3.3m-11,0h-2.2a1.649,1.649,0,0,1,0-3.3h2.2a1.649,1.649,0,0,1,0,3.3m-11,0h-2.2a1.649,1.649,0,1,1,0-3.3h2.2a1.649,1.649,0,0,1,0,3.3m-11,0h-2.2a1.649,1.649,0,1,1,0-3.3h2.2a1.649,1.649,0,0,1,0,3.3m-11,0h-2.2a1.649,1.649,0,0,1,0-3.3h2.2a1.649,1.649,0,1,1,0,3.3m-11,0h-2.2a1.649,1.649,0,0,1,0-3.3h2.2a1.649,1.649,0,0,1,0,3.3m-11,0h-2.2a1.649,1.649,0,1,1,0-3.3h2.2a1.649,1.649,0,0,1,0,3.3m-11,0h-2.2a1.649,1.649,0,1,1,0-3.3h2.2a1.649,1.649,0,0,1,0,3.3m-11,0h-2.2a1.649,1.649,0,0,1,0-3.3h2.2a1.649,1.649,0,1,1,0,3.3m-11,0h-2.2a1.649,1.649,0,1,1,0-3.3h2.2a1.649,1.649,0,0,1,0,3.3m-11,0h-2.2a1.649,1.649,0,0,1,0-3.3h2.2a1.649,1.649,0,0,1,0,3.3m-11,0h-2.2a1.649,1.649,0,0,1,0-3.3h2.2a1.649,1.649,0,0,1,0,3.3m-11,0h-2.2a1.649,1.649,0,0,1,0-3.3h2.2a1.649,1.649,0,0,1,0,3.3m-11,0h-2.2a1.649,1.649,0,0,1,0-3.3h2.2a1.649,1.649,0,0,1,0,3.3m-11,0h-2.2a1.649,1.649,0,0,1,0-3.3h2.2a1.649,1.649,0,0,1,0,3.3m-11,0h-2.2a1.649,1.649,0,0,1,0-3.3h2.2a1.649,1.649,0,0,1,0,3.3" transform="translate(12.047 36.759)" fill="#08878c"/>
    <path id="Path_183824" data-name="Path 183824" d="M704.231,373.413h-1.1a1.649,1.649,0,1,1,0-3.3h1.1a1.649,1.649,0,1,1,0,3.3" transform="translate(69.669 36.759)" fill="#08878c"/>
    <path id="Path_183825" data-name="Path 183825" d="M228.809,211.977H10.564A10.576,10.576,0,0,1,0,201.413V37.4A10.577,10.577,0,0,1,10.564,26.839H234.308a5.072,5.072,0,0,1,5.067,5.066V201.413a10.578,10.578,0,0,1-10.567,10.564M10.564,28.763A8.651,8.651,0,0,0,1.924,37.4V201.413a8.65,8.65,0,0,0,8.641,8.641H228.809a8.652,8.652,0,0,0,8.643-8.641V31.9a3.146,3.146,0,0,0-3.143-3.142Z" transform="translate(0 2.666)" fill="#c4fdff"/>
    <path id="Path_183826" data-name="Path 183826" d="M236.614,202.161H18.37a9.6,9.6,0,0,1-9.6-9.6V28.551a9.6,9.6,0,0,1,9.6-9.6H236.614a9.6,9.6,0,0,1,9.6,9.6V192.558a9.6,9.6,0,0,1-9.6,9.6" transform="translate(0.871 1.882)" fill="#c4fdff"/>
    <path id="Path_183827" data-name="Path 183827" d="M236.763,203.96H18.519A11.265,11.265,0,0,1,7.267,192.708V28.7A11.265,11.265,0,0,1,18.519,17.447H236.763A11.266,11.266,0,0,1,248.015,28.7V192.708a11.266,11.266,0,0,1-11.253,11.253M18.519,20.745A7.963,7.963,0,0,0,10.565,28.7V192.708a7.963,7.963,0,0,0,7.954,7.955H236.763a7.964,7.964,0,0,0,7.955-7.955V28.7a7.964,7.964,0,0,0-7.955-7.955Z" transform="translate(0.722 1.733)" fill="#42e0e6"/>
    <path id="Path_183828" data-name="Path 183828" d="M74.528,163.9H68.637l-1.12,3.36H63.943l6.072-16.309h3.114l6.1,16.309H75.66Zm-4.984-2.723h4.077l-2.049-6.1Z" transform="translate(6.351 14.992)" fill="#12263f"/>
    <rect id="Rectangle_38343" data-name="Rectangle 38343" width="3.248" height="17.205" transform="translate(87.292 165.049)" fill="#12263f"/>
    <path id="Path_183829" data-name="Path 183829" d="M90.081,164.52a2.117,2.117,0,0,0,1.455-.494,1.725,1.725,0,0,0,.583-1.31h3.035a4.15,4.15,0,0,1-.672,2.257,4.414,4.414,0,0,1-1.809,1.591,5.658,5.658,0,0,1-2.536.566,5.263,5.263,0,0,1-4.1-1.652,6.541,6.541,0,0,1-1.5-4.564V160.7a6.463,6.463,0,0,1,1.49-4.469,5.2,5.2,0,0,1,4.088-1.669,5.1,5.1,0,0,1,3.646,1.294,4.577,4.577,0,0,1,1.394,3.444H92.119a2.221,2.221,0,0,0-.583-1.537A2.165,2.165,0,0,0,88.35,158a4.779,4.779,0,0,0-.577,2.676v.337a4.836,4.836,0,0,0,.572,2.692,1.977,1.977,0,0,0,1.737.819" transform="translate(8.396 15.351)" fill="#12263f"/>
    <path id="Path_183830" data-name="Path 183830" d="M103.153,166.9a3.556,3.556,0,0,1-.324-1.085,3.925,3.925,0,0,1-3.059,1.309,4.3,4.3,0,0,1-2.951-1.03,3.317,3.317,0,0,1-1.171-2.6,3.426,3.426,0,0,1,1.428-2.957,7.047,7.047,0,0,1,4.128-1.04h1.491v-.695a2,2,0,0,0-.432-1.346,1.7,1.7,0,0,0-1.361-.5,1.922,1.922,0,0,0-1.283.392,1.331,1.331,0,0,0-.465,1.075H95.917a3.256,3.256,0,0,1,.649-1.949,4.307,4.307,0,0,1,1.837-1.407,6.742,6.742,0,0,1,2.667-.509,5.278,5.278,0,0,1,3.555,1.127,3.935,3.935,0,0,1,1.317,3.165V164.1a5.8,5.8,0,0,0,.481,2.611v.19Zm-2.677-2.251a2.781,2.781,0,0,0,1.321-.319,2.109,2.109,0,0,0,.9-.856v-2.084h-1.21q-2.432,0-2.588,1.681l-.011.19a1.3,1.3,0,0,0,.424,1,1.663,1.663,0,0,0,1.166.391" transform="translate(9.499 15.35)" fill="#12263f"/>
    <path id="Path_183831" data-name="Path 183831" d="M110.468,154.784l.1,1.4a4.229,4.229,0,0,1,3.484-1.624,3.52,3.52,0,0,1,2.867,1.13,5.288,5.288,0,0,1,.963,3.384V166.9h-3.236v-7.769a2.11,2.11,0,0,0-.449-1.5,2.008,2.008,0,0,0-1.491-.466,2.224,2.224,0,0,0-2.049,1.166V166.9h-3.236v-12.12Z" transform="translate(10.669 15.351)" fill="#12263f"/>
    <path id="Path_183832" data-name="Path 183832" d="M123.135,164.275h5.926v2.61H119v-1.971l5.7-7.539h-5.533v-2.61h9.711v1.907Z" transform="translate(11.819 15.371)" fill="#12263f"/>
    <path id="Path_183833" data-name="Path 183833" d="M137.272,166.9a3.556,3.556,0,0,1-.324-1.085,3.925,3.925,0,0,1-3.059,1.309,4.3,4.3,0,0,1-2.951-1.03,3.317,3.317,0,0,1-1.171-2.6,3.426,3.426,0,0,1,1.428-2.957,7.048,7.048,0,0,1,4.128-1.04h1.491v-.695a2,2,0,0,0-.432-1.346,1.7,1.7,0,0,0-1.361-.5,1.922,1.922,0,0,0-1.283.392,1.331,1.331,0,0,0-.465,1.075h-3.236a3.256,3.256,0,0,1,.649-1.949,4.307,4.307,0,0,1,1.837-1.407,6.742,6.742,0,0,1,2.667-.509,5.278,5.278,0,0,1,3.555,1.127,3.935,3.935,0,0,1,1.317,3.165V164.1a5.8,5.8,0,0,0,.482,2.611v.19Zm-2.677-2.251a2.781,2.781,0,0,0,1.321-.319,2.109,2.109,0,0,0,.9-.856v-2.084H135.6q-2.432,0-2.588,1.681l-.011.19a1.3,1.3,0,0,0,.424,1,1.663,1.663,0,0,0,1.166.391" transform="translate(12.888 15.35)" fill="#12263f"/>
    <path id="Path_183834" data-name="Path 183834" d="M152.523,161.4a7.342,7.342,0,0,1-1.243,4.542,4.114,4.114,0,0,1-3.472,1.63,3.783,3.783,0,0,1-3.147-1.513l-.146,1.288H141.6V150.138h3.237v6.173a3.688,3.688,0,0,1,2.946-1.31,4.154,4.154,0,0,1,3.478,1.63,7.35,7.35,0,0,1,1.259,4.587Zm-3.236-.246a4.848,4.848,0,0,0-.583-2.691,1.965,1.965,0,0,0-1.736-.849,2.134,2.134,0,0,0-2.128,1.27v4.8a2.163,2.163,0,0,0,2.15,1.282,2,2,0,0,0,2.061-1.551,8.005,8.005,0,0,0,.235-2.258" transform="translate(14.063 14.911)" fill="#12263f"/>
    <rect id="Rectangle_38344" data-name="Rectangle 38344" width="3.248" height="17.205" transform="translate(168.978 165.049)" fill="#12263f"/>
    <path id="Path_183835" data-name="Path 183835" d="M164.918,167.13a5.945,5.945,0,0,1-4.34-1.637,5.809,5.809,0,0,1-1.675-4.358v-.313a7.305,7.305,0,0,1,.707-3.264,5.181,5.181,0,0,1,2-2.218,5.605,5.605,0,0,1,2.952-.778,5.031,5.031,0,0,1,3.915,1.568,6.375,6.375,0,0,1,1.429,4.448V161.9h-7.718a3,3,0,0,0,.947,1.9,2.861,2.861,0,0,0,2,.718,3.494,3.494,0,0,0,2.923-1.357l1.592,1.781a4.864,4.864,0,0,1-1.972,1.607,6.452,6.452,0,0,1-2.756.578m-.369-9.959a2.021,2.021,0,0,0-1.563.653,3.372,3.372,0,0,0-.766,1.867h4.5v-.258a2.418,2.418,0,0,0-.583-1.671,2.088,2.088,0,0,0-1.591-.59" transform="translate(15.782 15.351)" fill="#12263f"/>
    <path id="Path_183836" data-name="Path 183836" d="M63.574,20.829A20.829,20.829,0,1,1,42.744,0a20.83,20.83,0,0,1,20.83,20.83" transform="translate(2.177 0)" fill="#42e0e6"/>
    <path id="Path_183837" data-name="Path 183837" d="M40.962,26.521H37.724v-12.5L33.86,15.219v-2.61l6.754-2.42h.347Z" transform="translate(3.363 1.012)" fill="#12263f"/>
    <path id="Path_183838" data-name="Path 183838" d="M45.1,23.755a1.624,1.624,0,0,1,.52-1.254,2.022,2.022,0,0,1,2.62,0,1.622,1.622,0,0,1,.522,1.254,1.6,1.6,0,0,1-.516,1.238,2.053,2.053,0,0,1-2.632,0,1.6,1.6,0,0,1-.514-1.238" transform="translate(4.479 2.187)" fill="#12263f"/>
    <rect id="Rectangle_38345" data-name="Rectangle 38345" width="81.502" height="2.121" transform="translate(89.292 144.617)" fill="#42e0e6"/>
    <path id="Path_183839" data-name="Path 183839" d="M163.622,79.654a45.7,45.7,0,1,1-45.7-45.7,45.7,45.7,0,0,1,45.7,45.7" transform="translate(7.173 3.372)" fill="#fff"/>
    <path id="Path_183840" data-name="Path 183840" d="M228.809,488.406H10.564A10.576,10.576,0,0,1,0,477.842V313.834a10.577,10.577,0,0,1,10.564-10.566H234.308a5.071,5.071,0,0,1,5.067,5.065V477.842a10.578,10.578,0,0,1-10.567,10.564M10.564,305.192a8.651,8.651,0,0,0-8.641,8.642V477.842a8.65,8.65,0,0,0,8.641,8.641H228.809a8.652,8.652,0,0,0,8.643-8.641V308.333a3.146,3.146,0,0,0-3.143-3.141Z" transform="translate(0 30.12)" fill="#c4fdff"/>
    <path id="Path_183841" data-name="Path 183841" d="M236.614,478.59H18.37a9.6,9.6,0,0,1-9.6-9.6V304.98a9.6,9.6,0,0,1,9.6-9.6H236.614a9.6,9.6,0,0,1,9.6,9.6V468.987a9.6,9.6,0,0,1-9.6,9.6" transform="translate(0.871 29.336)" fill="#c4fdff"/>
    <path id="Path_183842" data-name="Path 183842" d="M236.763,480.387H18.519A11.264,11.264,0,0,1,7.267,469.136V305.128a11.265,11.265,0,0,1,11.252-11.253H236.763a11.266,11.266,0,0,1,11.253,11.253V469.136a11.265,11.265,0,0,1-11.253,11.251M18.519,297.173a7.963,7.963,0,0,0-7.954,7.955V469.136a7.963,7.963,0,0,0,7.954,7.954H236.763a7.963,7.963,0,0,0,7.955-7.954V305.128a7.964,7.964,0,0,0-7.955-7.955Z" transform="translate(0.722 29.187)" fill="#42e0e6"/>
    <path id="Path_183843" data-name="Path 183843" d="M60.337,440.332H54.446l-1.12,3.36H49.752l6.072-16.309h3.114l6.1,16.309H61.469Zm-4.984-2.723H59.43l-2.049-6.1Z" transform="translate(4.941 42.446)" fill="#12263f"/>
    <path id="Path_183844" data-name="Path 183844" d="M64.6,437.623a7.293,7.293,0,0,1,1.271-4.514,4.12,4.12,0,0,1,3.478-1.681,3.712,3.712,0,0,1,2.923,1.321v-6.184h3.248v17.206H72.6l-.157-1.288A3.811,3.811,0,0,1,69.33,444,4.117,4.117,0,0,1,65.9,442.31a7.536,7.536,0,0,1-1.293-4.687m3.236.23a4.812,4.812,0,0,0,.594,2.622,1.932,1.932,0,0,0,1.725.912,2.166,2.166,0,0,0,2.117-1.272V435.31a2.135,2.135,0,0,0-2.094-1.272q-2.342,0-2.342,3.815" transform="translate(6.416 42.365)" fill="#12263f"/>
    <path id="Path_183845" data-name="Path 183845" d="M80.065,431.213l.1,1.355a4.257,4.257,0,0,1,3.484-1.579,3.23,3.23,0,0,1,3.214,1.848,4.157,4.157,0,0,1,3.64-1.848,3.616,3.616,0,0,1,2.935,1.148,5.277,5.277,0,0,1,.964,3.455v7.74H91.155v-7.746a2.327,2.327,0,0,0-.4-1.512,1.785,1.785,0,0,0-1.423-.476,2.02,2.02,0,0,0-2.016,1.393l.011,8.34H84.087V435.6a2.29,2.29,0,0,0-.414-1.526,1.8,1.8,0,0,0-1.412-.472,2.1,2.1,0,0,0-1.993,1.144v8.589H77.029v-12.12Z" transform="translate(7.65 42.805)" fill="#12263f"/>
    <path id="Path_183846" data-name="Path 183846" d="M95.283,428.491a1.6,1.6,0,0,1,.488-1.2,2.1,2.1,0,0,1,2.649,0,1.713,1.713,0,0,1-.005,2.41,2.081,2.081,0,0,1-2.633,0,1.594,1.594,0,0,1-.5-1.21m3.44,15.256H95.474v-12.12h3.248Z" transform="translate(9.463 42.391)" fill="#12263f"/>
    <path id="Path_183847" data-name="Path 183847" d="M104.031,431.213l.1,1.4a4.229,4.229,0,0,1,3.484-1.624,3.52,3.52,0,0,1,2.867,1.13,5.289,5.289,0,0,1,.963,3.384v7.829H108.21v-7.769a2.11,2.11,0,0,0-.449-1.5,2.008,2.008,0,0,0-1.491-.466,2.225,2.225,0,0,0-2.049,1.166v8.567h-3.236v-12.12Z" transform="translate(10.03 42.805)" fill="#12263f"/>
    <path id="Path_183848" data-name="Path 183848" d="M112.921,428.491a1.6,1.6,0,0,1,.487-1.2,2.1,2.1,0,0,1,2.649,0,1.712,1.712,0,0,1,0,2.41,2.081,2.081,0,0,1-2.633,0,1.59,1.59,0,0,1-.5-1.21m3.44,15.256h-3.248v-12.12h3.248Z" transform="translate(11.215 42.391)" fill="#12263f"/>
    <path id="Path_183849" data-name="Path 183849" d="M125.3,439.984a1.046,1.046,0,0,0-.588-.936,6.705,6.705,0,0,0-1.888-.61q-4.325-.907-4.325-3.674a3.333,3.333,0,0,1,1.339-2.694,5.4,5.4,0,0,1,3.5-1.081,5.806,5.806,0,0,1,3.69,1.087,3.421,3.421,0,0,1,1.383,2.822h-3.236a1.559,1.559,0,0,0-.45-1.148,1.894,1.894,0,0,0-1.4-.454,1.935,1.935,0,0,0-1.265.369,1.168,1.168,0,0,0-.449.941,1,1,0,0,0,.51.867,5.217,5.217,0,0,0,1.719.573,13.838,13.838,0,0,1,2.038.543,3.349,3.349,0,0,1,2.566,3.259,3.158,3.158,0,0,1-1.424,2.682,6.137,6.137,0,0,1-3.673,1.026,6.416,6.416,0,0,1-2.705-.543,4.54,4.54,0,0,1-1.855-1.491,3.465,3.465,0,0,1-.672-2.044h3.069a1.687,1.687,0,0,0,.639,1.321,2.535,2.535,0,0,0,1.591.46,2.341,2.341,0,0,0,1.4-.353,1.1,1.1,0,0,0,.477-.925" transform="translate(11.732 42.805)" fill="#12263f"/>
    <path id="Path_183850" data-name="Path 183850" d="M133.6,428.483v2.979h2.073v2.375H133.6v6.05a1.447,1.447,0,0,0,.257.963,1.3,1.3,0,0,0,.987.291,5.108,5.108,0,0,0,.951-.079v2.454a6.642,6.642,0,0,1-1.959.291q-3.407,0-3.473-3.439v-6.531h-1.771v-2.375h1.771v-2.979Z" transform="translate(12.771 42.556)" fill="#12263f"/>
    <path id="Path_183851" data-name="Path 183851" d="M143.691,434.248a8.668,8.668,0,0,0-1.165-.09,2.37,2.37,0,0,0-2.408,1.244v7.93h-3.238V431.212h3.058l.089,1.446a3,3,0,0,1,2.7-1.669,3.4,3.4,0,0,1,1.008.145Z" transform="translate(13.595 42.805)" fill="#12263f"/>
    <path id="Path_183852" data-name="Path 183852" d="M151.463,443.333a3.563,3.563,0,0,1-.324-1.086,3.923,3.923,0,0,1-3.059,1.31,4.3,4.3,0,0,1-2.951-1.031,3.314,3.314,0,0,1-1.171-2.6,3.426,3.426,0,0,1,1.428-2.957,7.047,7.047,0,0,1,4.128-1.041H151v-.695a2,2,0,0,0-.432-1.345,1.7,1.7,0,0,0-1.361-.5,1.928,1.928,0,0,0-1.283.392,1.332,1.332,0,0,0-.465,1.075h-3.236a3.253,3.253,0,0,1,.649-1.948,4.307,4.307,0,0,1,1.837-1.407,6.723,6.723,0,0,1,2.667-.509,5.283,5.283,0,0,1,3.555,1.126,3.935,3.935,0,0,1,1.317,3.165v5.253a5.805,5.805,0,0,0,.481,2.611v.19Zm-2.677-2.251a2.782,2.782,0,0,0,1.321-.32,2.1,2.1,0,0,0,.9-.856v-2.084h-1.21q-2.432,0-2.588,1.681l-.011.19a1.3,1.3,0,0,0,.424,1,1.663,1.663,0,0,0,1.166.391" transform="translate(14.297 42.805)" fill="#12263f"/>
    <path id="Path_183853" data-name="Path 183853" d="M166.714,437.824a7.342,7.342,0,0,1-1.243,4.542A4.114,4.114,0,0,1,162,444a3.783,3.783,0,0,1-3.147-1.513l-.146,1.288h-2.912V426.566h3.238v6.173a3.688,3.688,0,0,1,2.946-1.31,4.154,4.154,0,0,1,3.478,1.63,7.351,7.351,0,0,1,1.259,4.587Zm-3.236-.246a4.848,4.848,0,0,0-.583-2.691,1.965,1.965,0,0,0-1.736-.849,2.134,2.134,0,0,0-2.128,1.27v4.8a2.162,2.162,0,0,0,2.15,1.282,2,2,0,0,0,2.061-1.551,8,8,0,0,0,.235-2.258" transform="translate(15.473 42.365)" fill="#12263f"/>
    <rect id="Rectangle_38346" data-name="Rectangle 38346" width="3.248" height="17.205" transform="translate(184.579 468.932)" fill="#12263f"/>
    <path id="Path_183854" data-name="Path 183854" d="M179.109,443.559a5.947,5.947,0,0,1-4.341-1.637,5.812,5.812,0,0,1-1.674-4.358v-.313a7.3,7.3,0,0,1,.706-3.264,5.184,5.184,0,0,1,2-2.218,5.6,5.6,0,0,1,2.952-.778,5.033,5.033,0,0,1,3.915,1.568,6.375,6.375,0,0,1,1.428,4.448v1.321h-7.718a3,3,0,0,0,.948,1.9,2.857,2.857,0,0,0,2,.718,3.5,3.5,0,0,0,2.923-1.357l1.592,1.781a4.875,4.875,0,0,1-1.973,1.607,6.45,6.45,0,0,1-2.755.578m-.369-9.959a2.022,2.022,0,0,0-1.564.653,3.379,3.379,0,0,0-.765,1.867h4.5v-.258a2.407,2.407,0,0,0-.583-1.671,2.084,2.084,0,0,0-1.59-.59" transform="translate(17.191 42.805)" fill="#12263f"/>
    <path id="Path_183855" data-name="Path 183855" d="M63.574,297.258a20.829,20.829,0,1,1-20.83-20.83,20.83,20.83,0,0,1,20.83,20.83" transform="translate(2.177 27.454)" fill="#42e0e6"/>
    <path id="Path_183856" data-name="Path 183856" d="M42.789,296.809h1.848v2.61H42.789v3.529H39.551v-3.529H32.864l-.146-2.038,6.8-10.743h3.272Zm-6.844,0h3.607v-5.757l-.213.369Z" transform="translate(3.249 28.468)" fill="#12263f"/>
    <path id="Path_183857" data-name="Path 183857" d="M45.1,300.184a1.624,1.624,0,0,1,.52-1.254,2.022,2.022,0,0,1,2.62,0,1.622,1.622,0,0,1,.522,1.254,1.6,1.6,0,0,1-.516,1.238,2.053,2.053,0,0,1-2.632,0,1.6,1.6,0,0,1-.514-1.238" transform="translate(4.479 29.641)" fill="#12263f"/>
    <rect id="Rectangle_38347" data-name="Rectangle 38347" width="81.502" height="2.121" transform="translate(89.292 448.5)" fill="#42e0e6"/>
    <path id="Path_183858" data-name="Path 183858" d="M163.622,356.082a45.7,45.7,0,1,1-45.7-45.7,45.7,45.7,0,0,1,45.7,45.7" transform="translate(7.173 30.826)" fill="#fff"/>
    <path id="Path_183859" data-name="Path 183859" d="M523.9,211.977H305.66A10.576,10.576,0,0,1,295.1,201.413V37.4A10.577,10.577,0,0,1,305.66,26.839H529.4a5.072,5.072,0,0,1,5.067,5.066V201.413A10.578,10.578,0,0,1,523.9,211.977M305.66,28.763A8.651,8.651,0,0,0,297.02,37.4V201.413a8.65,8.65,0,0,0,8.641,8.641H523.9a8.652,8.652,0,0,0,8.643-8.641V31.9a3.146,3.146,0,0,0-3.143-3.142Z" transform="translate(29.308 2.666)" fill="#c4fdff"/>
    <path id="Path_183860" data-name="Path 183860" d="M531.71,202.161H313.466a9.6,9.6,0,0,1-9.6-9.6V28.551a9.6,9.6,0,0,1,9.6-9.6H531.71a9.6,9.6,0,0,1,9.6,9.6V192.558a9.6,9.6,0,0,1-9.6,9.6" transform="translate(30.179 1.882)" fill="#c4fdff"/>
    <path id="Path_183861" data-name="Path 183861" d="M531.859,203.96H313.615a11.265,11.265,0,0,1-11.251-11.253V28.7a11.265,11.265,0,0,1,11.251-11.253H531.859A11.266,11.266,0,0,1,543.111,28.7V192.708a11.266,11.266,0,0,1-11.253,11.253M313.615,20.745a7.963,7.963,0,0,0-7.954,7.955V192.708a7.963,7.963,0,0,0,7.954,7.955H531.859a7.964,7.964,0,0,0,7.955-7.955V28.7a7.964,7.964,0,0,0-7.955-7.955Z" transform="translate(30.03 1.733)" fill="#42e0e6"/>
    <path id="Path_183862" data-name="Path 183862" d="M387.282,159.5a9.844,9.844,0,0,1-.852,4.222,6.4,6.4,0,0,1-2.437,2.8,7.2,7.2,0,0,1-7.252.012,6.461,6.461,0,0,1-2.464-2.785,9.537,9.537,0,0,1-.886-4.16v-.807a9.8,9.8,0,0,1,.868-4.24,6.47,6.47,0,0,1,2.453-2.812,7.194,7.194,0,0,1,7.248,0,6.479,6.479,0,0,1,2.454,2.812,9.772,9.772,0,0,1,.868,4.229Zm-3.406-.74a6.858,6.858,0,0,0-.919-3.9,3.245,3.245,0,0,0-5.232-.018,6.783,6.783,0,0,0-.929,3.859v.8a6.933,6.933,0,0,0,.919,3.875,3.215,3.215,0,0,0,5.242.051,6.9,6.9,0,0,0,.919-3.87Z" transform="translate(37.084 14.972)" fill="#12263f"/>
    <path id="Path_183863" data-name="Path 183863" d="M399.184,161.4a7.342,7.342,0,0,1-1.243,4.542,4.114,4.114,0,0,1-3.472,1.63,3.783,3.783,0,0,1-3.147-1.513l-.146,1.288h-2.912V150.138H391.5v6.173a3.688,3.688,0,0,1,2.946-1.31,4.154,4.154,0,0,1,3.478,1.63,7.35,7.35,0,0,1,1.259,4.587Zm-3.236-.246a4.848,4.848,0,0,0-.583-2.691,1.965,1.965,0,0,0-1.736-.849,2.134,2.134,0,0,0-2.128,1.27v4.8a2.162,2.162,0,0,0,2.15,1.282,2,2,0,0,0,2.061-1.551,8,8,0,0,0,.235-2.258" transform="translate(38.561 14.911)" fill="#12263f"/>
    <path id="Path_183864" data-name="Path 183864" d="M403.855,155.2v12.781a4.337,4.337,0,0,1-1.063,3.12,4.046,4.046,0,0,1-3.069,1.115,6.55,6.55,0,0,1-1.6-.191v-2.565a5.975,5.975,0,0,0,1.018.1q1.468,0,1.468-1.558V155.2Zm-3.506-3.136a1.594,1.594,0,0,1,.487-1.2,2.108,2.108,0,0,1,2.655,0,1.717,1.717,0,0,1-.011,2.41,2.081,2.081,0,0,1-2.633,0,1.6,1.6,0,0,1-.5-1.21" transform="translate(39.54 14.936)" fill="#12263f"/>
    <path id="Path_183865" data-name="Path 183865" d="M411.466,167.13a5.945,5.945,0,0,1-4.34-1.637,5.809,5.809,0,0,1-1.675-4.358v-.313a7.306,7.306,0,0,1,.707-3.264,5.182,5.182,0,0,1,2-2.218,5.605,5.605,0,0,1,2.952-.778,5.031,5.031,0,0,1,3.915,1.568,6.375,6.375,0,0,1,1.429,4.448V161.9h-7.718a3,3,0,0,0,.946,1.9,2.861,2.861,0,0,0,2,.718,3.494,3.494,0,0,0,2.923-1.357l1.592,1.781a4.864,4.864,0,0,1-1.972,1.607,6.452,6.452,0,0,1-2.756.578m-.369-9.959a2.021,2.021,0,0,0-1.563.653,3.372,3.372,0,0,0-.766,1.867h4.5v-.258a2.418,2.418,0,0,0-.583-1.671,2.088,2.088,0,0,0-1.591-.59" transform="translate(40.268 15.351)" fill="#12263f"/>
    <path id="Path_183866" data-name="Path 183866" d="M421.315,152.054v2.979h2.073v2.375h-2.073v6.05a1.447,1.447,0,0,0,.257.963,1.3,1.3,0,0,0,.987.291,5.108,5.108,0,0,0,.951-.079v2.454a6.642,6.642,0,0,1-1.959.291q-3.407,0-3.473-3.439v-6.531h-1.771v-2.375h1.771v-2.979Z" transform="translate(41.346 15.102)" fill="#12263f"/>
    <path id="Path_183867" data-name="Path 183867" d="M424.577,152.062a1.6,1.6,0,0,1,.488-1.2,2.1,2.1,0,0,1,2.649,0,1.712,1.712,0,0,1-.005,2.409,2.077,2.077,0,0,1-2.633,0,1.592,1.592,0,0,1-.5-1.21m3.44,15.256h-3.248V155.2h3.248Z" transform="translate(42.168 14.937)" fill="#12263f"/>
    <path id="Path_183868" data-name="Path 183868" d="M434.975,162.931l2.251-8.167h3.383l-4.088,12.121h-3.091l-4.088-12.121h3.383Z" transform="translate(42.641 15.371)" fill="#12263f"/>
    <path id="Path_183869" data-name="Path 183869" d="M448.009,166.9a3.525,3.525,0,0,1-.325-1.085,3.921,3.921,0,0,1-3.058,1.309,4.3,4.3,0,0,1-2.952-1.03,3.317,3.317,0,0,1-1.171-2.6,3.426,3.426,0,0,1,1.428-2.957,7.047,7.047,0,0,1,4.128-1.04h1.491v-.695a2,2,0,0,0-.431-1.346,1.7,1.7,0,0,0-1.361-.5,1.924,1.924,0,0,0-1.284.392,1.33,1.33,0,0,0-.464,1.075h-3.236a3.249,3.249,0,0,1,.649-1.949,4.3,4.3,0,0,1,1.836-1.407,6.742,6.742,0,0,1,2.667-.509,5.278,5.278,0,0,1,3.555,1.127,3.932,3.932,0,0,1,1.317,3.165V164.1a5.817,5.817,0,0,0,.481,2.611v.19Zm-2.677-2.251a2.784,2.784,0,0,0,1.321-.319,2.106,2.106,0,0,0,.9-.856v-2.084H446.34q-2.434,0-2.589,1.681l-.011.19a1.3,1.3,0,0,0,.425,1,1.661,1.661,0,0,0,1.166.391" transform="translate(43.749 15.35)" fill="#12263f"/>
    <path id="Path_183870" data-name="Path 183870" d="M358.67,20.829A20.829,20.829,0,1,1,337.84,0a20.83,20.83,0,0,1,20.83,20.83" transform="translate(31.485 0)" fill="#42e0e6"/>
    <path id="Path_183871" data-name="Path 183871" d="M339.471,26.539H328.292V24.32l5.276-5.623a13.074,13.074,0,0,0,1.608-2.072,3.334,3.334,0,0,0,.52-1.68,2.5,2.5,0,0,0-.549-1.709,1.98,1.98,0,0,0-1.568-.621,2.137,2.137,0,0,0-1.731.756,3,3,0,0,0-.633,1.989h-3.248a5.351,5.351,0,0,1,.712-2.723,5.006,5.006,0,0,1,2.011-1.931,6.117,6.117,0,0,1,2.945-.7,5.786,5.786,0,0,1,3.916,1.21,4.277,4.277,0,0,1,1.394,3.417,5.489,5.489,0,0,1-.627,2.464,13.68,13.68,0,0,1-2.151,2.923l-3.708,3.91h7.013Z" transform="translate(32.573 0.994)" fill="#12263f"/>
    <path id="Path_183872" data-name="Path 183872" d="M340.2,23.755a1.625,1.625,0,0,1,.521-1.254,2.022,2.022,0,0,1,2.62,0,1.625,1.625,0,0,1,.522,1.254,1.6,1.6,0,0,1-.516,1.238,1.871,1.871,0,0,1-1.322.477,1.852,1.852,0,0,1-1.309-.477,1.6,1.6,0,0,1-.516-1.238" transform="translate(33.787 2.187)" fill="#12263f"/>
    <rect id="Rectangle_38348" data-name="Rectangle 38348" width="81.502" height="2.121" transform="translate(413.696 144.617)" fill="#42e0e6"/>
    <path id="Path_183873" data-name="Path 183873" d="M458.718,79.654a45.7,45.7,0,1,1-45.7-45.7,45.7,45.7,0,0,1,45.7,45.7" transform="translate(36.481 3.372)" fill="#fff"/>
    <path id="Path_183874" data-name="Path 183874" d="M523.9,488.406H305.66A10.576,10.576,0,0,1,295.1,477.842V313.834a10.577,10.577,0,0,1,10.564-10.566H529.4a5.071,5.071,0,0,1,5.067,5.065V477.842A10.578,10.578,0,0,1,523.9,488.406M305.66,305.192a8.651,8.651,0,0,0-8.641,8.642V477.842a8.65,8.65,0,0,0,8.641,8.641H523.9a8.652,8.652,0,0,0,8.643-8.641V308.333a3.146,3.146,0,0,0-3.143-3.141Z" transform="translate(29.308 30.12)" fill="#c4fdff"/>
    <path id="Path_183875" data-name="Path 183875" d="M531.71,478.59H313.466a9.6,9.6,0,0,1-9.6-9.6V304.98a9.6,9.6,0,0,1,9.6-9.6H531.71a9.6,9.6,0,0,1,9.6,9.6V468.987a9.6,9.6,0,0,1-9.6,9.6" transform="translate(30.179 29.336)" fill="#c4fdff"/>
    <path id="Path_183876" data-name="Path 183876" d="M531.859,480.387H313.615a11.264,11.264,0,0,1-11.251-11.251V305.128a11.265,11.265,0,0,1,11.251-11.253H531.859a11.266,11.266,0,0,1,11.253,11.253V469.136a11.265,11.265,0,0,1-11.253,11.251M313.615,297.173a7.963,7.963,0,0,0-7.954,7.955V469.136a7.963,7.963,0,0,0,7.954,7.954H531.859a7.963,7.963,0,0,0,7.955-7.954V305.128a7.964,7.964,0,0,0-7.955-7.955Z" transform="translate(30.03 29.187)" fill="#42e0e6"/>
    <path id="Path_183877" data-name="Path 183877" d="M385.685,437.027h-6.452v6.664h-3.362V427.383h10.619V430.1h-7.258v4.213h6.452Z" transform="translate(37.33 42.446)" fill="#12263f"/>
    <rect id="Rectangle_38349" data-name="Rectangle 38349" width="3.248" height="17.205" transform="translate(425.957 468.932)" fill="#12263f"/>
    <path id="Path_183878" data-name="Path 183878" d="M398.679,443.559a5.944,5.944,0,0,1-4.34-1.637,5.809,5.809,0,0,1-1.675-4.358v-.313a7.3,7.3,0,0,1,.707-3.264,5.182,5.182,0,0,1,2-2.218,5.606,5.606,0,0,1,2.952-.778,5.031,5.031,0,0,1,3.915,1.568,6.375,6.375,0,0,1,1.429,4.448v1.321h-7.718a3,3,0,0,0,.947,1.9,2.861,2.861,0,0,0,2,.718,3.494,3.494,0,0,0,2.923-1.357l1.592,1.781a4.865,4.865,0,0,1-1.972,1.607,6.452,6.452,0,0,1-2.756.578m-.369-9.959a2.021,2.021,0,0,0-1.563.653,3.372,3.372,0,0,0-.766,1.867h4.5v-.258a2.418,2.418,0,0,0-.583-1.671,2.088,2.088,0,0,0-1.591-.59" transform="translate(38.998 42.805)" fill="#12263f"/>
    <path id="Path_183879" data-name="Path 183879" d="M409.256,434.811l2.038-3.618h3.462l-3.451,5.936,3.6,6.184h-3.473l-2.162-3.808-2.15,3.808h-3.484l3.595-6.184-3.439-5.936h3.474Z" transform="translate(40.088 42.825)" fill="#12263f"/>
    <path id="Path_183880" data-name="Path 183880" d="M415.356,428.491a1.6,1.6,0,0,1,.488-1.2,2.1,2.1,0,0,1,2.649,0,1.713,1.713,0,0,1-.006,2.41,2.079,2.079,0,0,1-2.632,0,1.591,1.591,0,0,1-.5-1.21m3.44,15.256h-3.248v-12.12H418.8Z" transform="translate(41.252 42.391)" fill="#12263f"/>
    <path id="Path_183881" data-name="Path 183881" d="M432.039,437.824a7.342,7.342,0,0,1-1.243,4.542,4.114,4.114,0,0,1-3.472,1.63,3.783,3.783,0,0,1-3.147-1.513l-.146,1.288h-2.912V426.566h3.237v6.173a3.688,3.688,0,0,1,2.946-1.31,4.154,4.154,0,0,1,3.478,1.63,7.351,7.351,0,0,1,1.259,4.587Zm-3.236-.246a4.848,4.848,0,0,0-.583-2.691,1.965,1.965,0,0,0-1.736-.849,2.134,2.134,0,0,0-2.128,1.27v4.8a2.163,2.163,0,0,0,2.15,1.282,2,2,0,0,0,2.061-1.551,8.007,8.007,0,0,0,.235-2.258" transform="translate(41.824 42.365)" fill="#12263f"/>
    <rect id="Rectangle_38350" data-name="Rectangle 38350" width="3.248" height="17.205" transform="translate(476.256 468.932)" fill="#12263f"/>
    <path id="Path_183882" data-name="Path 183882" d="M444.435,443.559a5.945,5.945,0,0,1-4.34-1.637,5.809,5.809,0,0,1-1.675-4.358v-.313a7.306,7.306,0,0,1,.707-3.264,5.182,5.182,0,0,1,2-2.218,5.605,5.605,0,0,1,2.952-.778,5.031,5.031,0,0,1,3.915,1.568,6.375,6.375,0,0,1,1.429,4.448v1.321H441.7a3,3,0,0,0,.946,1.9,2.861,2.861,0,0,0,2,.718,3.494,3.494,0,0,0,2.923-1.357l1.592,1.781a4.864,4.864,0,0,1-1.972,1.607,6.452,6.452,0,0,1-2.756.578m-.369-9.959a2.021,2.021,0,0,0-1.563.653,3.372,3.372,0,0,0-.766,1.867h4.5v-.258a2.418,2.418,0,0,0-.583-1.671,2.088,2.088,0,0,0-1.591-.59" transform="translate(43.543 42.805)" fill="#12263f"/>
    <path id="Path_183883" data-name="Path 183883" d="M358.67,297.258a20.829,20.829,0,1,1-20.83-20.83,20.83,20.83,0,0,1,20.83,20.83" transform="translate(31.485 27.454)" fill="#42e0e6"/>
    <path id="Path_183884" data-name="Path 183884" d="M328.738,294.927l.94-8.289h9.141v2.7h-6.485l-.4,3.5a5.145,5.145,0,0,1,2.454-.615,4.7,4.7,0,0,1,3.652,1.444,5.77,5.77,0,0,1,1.321,4.043,5.914,5.914,0,0,1-.666,2.829,4.71,4.71,0,0,1-1.911,1.938,5.953,5.953,0,0,1-2.934.689,6.342,6.342,0,0,1-2.745-.6,4.858,4.858,0,0,1-2-1.685,4.582,4.582,0,0,1-.778-2.476h3.2a2.389,2.389,0,0,0,.711,1.585,2.255,2.255,0,0,0,1.6.566,1.992,1.992,0,0,0,1.692-.79,3.663,3.663,0,0,0,.594-2.235,3.029,3.029,0,0,0-.684-2.128,2.508,2.508,0,0,0-1.938-.739,2.8,2.8,0,0,0-1.87.6l-.314.291Z" transform="translate(32.608 28.468)" fill="#12263f"/>
    <path id="Path_183885" data-name="Path 183885" d="M340.2,300.184a1.625,1.625,0,0,1,.521-1.254,2.022,2.022,0,0,1,2.62,0,1.625,1.625,0,0,1,.522,1.254,1.6,1.6,0,0,1-.516,1.238,1.872,1.872,0,0,1-1.322.477,1.852,1.852,0,0,1-1.309-.477,1.6,1.6,0,0,1-.516-1.238" transform="translate(33.787 29.641)" fill="#12263f"/>
    <rect id="Rectangle_38351" data-name="Rectangle 38351" width="81.502" height="2.121" transform="translate(413.696 448.5)" fill="#42e0e6"/>
    <path id="Path_183886" data-name="Path 183886" d="M458.718,356.082a45.7,45.7,0,1,1-45.7-45.7,45.7,45.7,0,0,1,45.7,45.7" transform="translate(36.481 30.826)" fill="#fff"/>
    <path id="Path_183887" data-name="Path 183887" d="M819,211.977H600.756a10.576,10.576,0,0,1-10.564-10.564V37.4a10.577,10.577,0,0,1,10.564-10.566H824.5a5.071,5.071,0,0,1,5.066,5.066V201.413A10.577,10.577,0,0,1,819,211.977M600.756,28.763a8.651,8.651,0,0,0-8.641,8.642V201.413a8.65,8.65,0,0,0,8.641,8.641H819a8.651,8.651,0,0,0,8.642-8.641V31.9a3.146,3.146,0,0,0-3.142-3.142Z" transform="translate(58.616 2.666)" fill="#c4fdff"/>
    <path id="Path_183888" data-name="Path 183888" d="M826.8,202.161H608.561a9.6,9.6,0,0,1-9.6-9.6V28.551a9.6,9.6,0,0,1,9.6-9.6H826.8a9.6,9.6,0,0,1,9.6,9.6V192.558a9.6,9.6,0,0,1-9.6,9.6" transform="translate(59.487 1.882)" fill="#c4fdff"/>
    <path id="Path_183889" data-name="Path 183889" d="M826.954,203.96H608.71a11.265,11.265,0,0,1-11.253-11.253V28.7A11.265,11.265,0,0,1,608.71,17.447H826.954A11.266,11.266,0,0,1,838.206,28.7V192.708a11.266,11.266,0,0,1-11.253,11.253M608.71,20.745a7.964,7.964,0,0,0-7.955,7.955V192.708a7.964,7.964,0,0,0,7.955,7.955H826.954a7.964,7.964,0,0,0,7.955-7.955V28.7a7.964,7.964,0,0,0-7.955-7.955Z" transform="translate(59.338 1.733)" fill="#42e0e6"/>
    <path id="Path_183890" data-name="Path 183890" d="M696.174,161.85A5.772,5.772,0,0,1,694.23,166a6.826,6.826,0,0,1-4.62,1.512,6.137,6.137,0,0,1-4.934-2.111,8.663,8.663,0,0,1-1.8-5.8v-1a9.792,9.792,0,0,1,.829-4.146,6.223,6.223,0,0,1,2.369-2.75,7.4,7.4,0,0,1,8.127.555,6.208,6.208,0,0,1,2,4.246h-3.362a3.4,3.4,0,0,0-.879-2.29,3.251,3.251,0,0,0-2.3-.712,2.854,2.854,0,0,0-2.514,1.2,6.741,6.741,0,0,0-.857,3.734v1.232a7.23,7.23,0,0,0,.8,3.865,2.805,2.805,0,0,0,2.526,1.22,3.314,3.314,0,0,0,2.325-.71,3.212,3.212,0,0,0,.878-2.2Z" transform="translate(67.821 14.972)" fill="#12263f"/>
    <rect id="Rectangle_38352" data-name="Rectangle 38352" width="3.249" height="17.205" transform="translate(766.387 165.049)" fill="#12263f"/>
    <path id="Path_183891" data-name="Path 183891" d="M709.8,166.9a3.557,3.557,0,0,1-.324-1.085,3.925,3.925,0,0,1-3.059,1.309,4.3,4.3,0,0,1-2.951-1.03,3.317,3.317,0,0,1-1.171-2.6,3.426,3.426,0,0,1,1.428-2.957,7.048,7.048,0,0,1,4.128-1.04h1.491v-.695a2,2,0,0,0-.432-1.346,1.7,1.7,0,0,0-1.361-.5,1.923,1.923,0,0,0-1.283.392,1.331,1.331,0,0,0-.465,1.075h-3.236a3.256,3.256,0,0,1,.649-1.949,4.307,4.307,0,0,1,1.837-1.407,6.742,6.742,0,0,1,2.667-.509,5.278,5.278,0,0,1,3.555,1.127,3.935,3.935,0,0,1,1.317,3.165V164.1a5.8,5.8,0,0,0,.482,2.611v.19Zm-2.677-2.251a2.781,2.781,0,0,0,1.321-.319,2.109,2.109,0,0,0,.9-.856v-2.084h-1.21q-2.432,0-2.588,1.681l-.011.19a1.3,1.3,0,0,0,.424,1,1.663,1.663,0,0,0,1.166.391" transform="translate(69.75 15.35)" fill="#12263f"/>
    <path id="Path_183892" data-name="Path 183892" d="M720.943,157.82a8.672,8.672,0,0,0-1.165-.09,2.37,2.37,0,0,0-2.408,1.244v7.93h-3.237V154.784h3.058l.089,1.446a3,3,0,0,1,2.7-1.669,3.4,3.4,0,0,1,1.008.145Z" transform="translate(70.926 15.351)" fill="#12263f"/>
    <path id="Path_183893" data-name="Path 183893" d="M728.715,166.9a3.554,3.554,0,0,1-.324-1.085,3.925,3.925,0,0,1-3.059,1.309,4.3,4.3,0,0,1-2.951-1.03,3.316,3.316,0,0,1-1.171-2.6,3.426,3.426,0,0,1,1.428-2.957,7.047,7.047,0,0,1,4.128-1.04h1.491v-.695a2,2,0,0,0-.432-1.346,1.7,1.7,0,0,0-1.361-.5,1.922,1.922,0,0,0-1.283.392,1.331,1.331,0,0,0-.465,1.075h-3.236a3.256,3.256,0,0,1,.649-1.949,4.308,4.308,0,0,1,1.837-1.407,6.742,6.742,0,0,1,2.667-.509,5.278,5.278,0,0,1,3.555,1.127,3.935,3.935,0,0,1,1.317,3.165V164.1a5.8,5.8,0,0,0,.482,2.611v.19Zm-2.677-2.251a2.781,2.781,0,0,0,1.321-.319,2.109,2.109,0,0,0,.9-.856v-2.084h-1.21q-2.432,0-2.588,1.681l-.011.19a1.3,1.3,0,0,0,.424,1,1.663,1.663,0,0,0,1.166.391" transform="translate(71.628 15.35)" fill="#12263f"/>
    <path id="Path_183894" data-name="Path 183894" d="M653.766,20.829A20.829,20.829,0,1,1,632.935,0a20.831,20.831,0,0,1,20.831,20.83" transform="translate(60.793 0)" fill="#42e0e6"/>
    <path id="Path_183895" data-name="Path 183895" d="M626.687,16.95h1.724a2.432,2.432,0,0,0,1.826-.616,2.256,2.256,0,0,0,.595-1.636,1.989,1.989,0,0,0-.589-1.534,2.278,2.278,0,0,0-1.618-.55,2.387,2.387,0,0,0-1.557.51,1.627,1.627,0,0,0-.628,1.328H623.2a3.977,3.977,0,0,1,.689-2.291,4.592,4.592,0,0,1,1.926-1.586,6.445,6.445,0,0,1,2.729-.571,6.1,6.1,0,0,1,4.054,1.238,4.22,4.22,0,0,1,1.469,3.41,3.433,3.433,0,0,1-.685,2.061,4.436,4.436,0,0,1-1.791,1.446,4.062,4.062,0,0,1,2.055,1.479,4.018,4.018,0,0,1,.678,2.329,4.3,4.3,0,0,1-1.586,3.484,6.37,6.37,0,0,1-4.194,1.311,6.036,6.036,0,0,1-3.993-1.288A4.207,4.207,0,0,1,623,22.07h3.239a1.874,1.874,0,0,0,.689,1.5,2.87,2.87,0,0,0,3.506-.027,2.109,2.109,0,0,0,.655-1.619q0-2.44-2.688-2.442h-1.714Z" transform="translate(61.875 0.994)" fill="#12263f"/>
    <path id="Path_183896" data-name="Path 183896" d="M635.294,23.755a1.624,1.624,0,0,1,.52-1.254,2.024,2.024,0,0,1,2.621,0,1.625,1.625,0,0,1,.522,1.254,1.6,1.6,0,0,1-.516,1.238,1.873,1.873,0,0,1-1.323.477,1.851,1.851,0,0,1-1.309-.477,1.6,1.6,0,0,1-.516-1.238" transform="translate(63.096 2.187)" fill="#12263f"/>
    <rect id="Rectangle_38353" data-name="Rectangle 38353" width="81.502" height="2.121" transform="translate(738.099 144.617)" fill="#42e0e6"/>
    <path id="Path_183897" data-name="Path 183897" d="M753.813,79.654a45.7,45.7,0,1,1-45.7-45.7,45.7,45.7,0,0,1,45.7,45.7" transform="translate(65.789 3.372)" fill="#fff"/>
    <path id="Path_183898" data-name="Path 183898" d="M819,488.406H600.756a10.576,10.576,0,0,1-10.564-10.564V313.834a10.577,10.577,0,0,1,10.564-10.566H824.5a5.07,5.07,0,0,1,5.066,5.065V477.842A10.577,10.577,0,0,1,819,488.406M600.756,305.192a8.651,8.651,0,0,0-8.641,8.642V477.842a8.65,8.65,0,0,0,8.641,8.641H819a8.651,8.651,0,0,0,8.642-8.641V308.333a3.146,3.146,0,0,0-3.142-3.141Z" transform="translate(58.616 30.12)" fill="#c4fdff"/>
    <path id="Path_183899" data-name="Path 183899" d="M826.8,478.59H608.561a9.6,9.6,0,0,1-9.6-9.6V304.98a9.6,9.6,0,0,1,9.6-9.6H826.8a9.6,9.6,0,0,1,9.6,9.6V468.987a9.6,9.6,0,0,1-9.6,9.6" transform="translate(59.487 29.336)" fill="#c4fdff"/>
    <path id="Path_183900" data-name="Path 183900" d="M826.954,480.387H608.71a11.265,11.265,0,0,1-11.253-11.251V305.128a11.265,11.265,0,0,1,11.253-11.253H826.954a11.266,11.266,0,0,1,11.253,11.253V469.136a11.265,11.265,0,0,1-11.253,11.251M608.71,297.173a7.964,7.964,0,0,0-7.955,7.955V469.136a7.963,7.963,0,0,0,7.955,7.954H826.954a7.963,7.963,0,0,0,7.955-7.954V305.128a7.964,7.964,0,0,0-7.955-7.955Z" transform="translate(59.338 29.187)" fill="#42e0e6"/>
    <path id="Path_183901" data-name="Path 183901" d="M670.576,436.6h-6.452v4.391H671.7v2.7H660.763V427.382h10.911V430.1h-7.549v3.887h6.452Z" transform="translate(65.625 42.446)" fill="#12263f"/>
    <path id="Path_183902" data-name="Path 183902" d="M671.866,437.162a7.234,7.234,0,0,1,1.271-4.514,4.153,4.153,0,0,1,3.489-1.658,3.72,3.72,0,0,1,3.1,1.488l.213-1.265h2.845v16.781h-3.248v-5.7a3.731,3.731,0,0,1-2.935,1.265,4.122,4.122,0,0,1-3.448-1.68,7.594,7.594,0,0,1-1.288-4.716m3.236.23a4.75,4.75,0,0,0,.611,2.647,1.953,1.953,0,0,0,1.718.909,2.179,2.179,0,0,0,2.106-1.189v-5.014a2.158,2.158,0,0,0-2.083-1.144,1.977,1.977,0,0,0-1.736.908,5.249,5.249,0,0,0-.617,2.884" transform="translate(66.728 42.805)" fill="#12263f"/>
    <path id="Path_183903" data-name="Path 183903" d="M691.588,442.081a4.059,4.059,0,0,1-3.317,1.457,3.83,3.83,0,0,1-2.974-1.12,4.781,4.781,0,0,1-1.048-3.283v-7.941h3.239v7.839q0,1.895,1.724,1.9a2.336,2.336,0,0,0,2.262-1.144v-8.59h3.25v12.12h-3.047Z" transform="translate(67.958 42.825)" fill="#12263f"/>
    <path id="Path_183904" data-name="Path 183904" d="M696.187,428.491a1.6,1.6,0,0,1,.487-1.2,2.1,2.1,0,0,1,2.649,0,1.713,1.713,0,0,1-.005,2.41,2.079,2.079,0,0,1-2.632,0,1.59,1.59,0,0,1-.5-1.21m3.439,15.256h-3.248v-12.12h3.248Z" transform="translate(69.143 42.391)" fill="#12263f"/>
    <path id="Path_183905" data-name="Path 183905" d="M705.926,428.483v2.979H708v2.375h-2.073v6.05a1.447,1.447,0,0,0,.257.963,1.3,1.3,0,0,0,.987.291,5.108,5.108,0,0,0,.951-.079v2.454a6.642,6.642,0,0,1-1.959.291q-3.407,0-3.473-3.439v-6.531h-1.771v-2.375h1.771v-2.979Z" transform="translate(69.613 42.556)" fill="#12263f"/>
    <path id="Path_183906" data-name="Path 183906" d="M716.275,443.333a3.565,3.565,0,0,1-.324-1.086,3.923,3.923,0,0,1-3.059,1.31,4.3,4.3,0,0,1-2.951-1.031,3.314,3.314,0,0,1-1.171-2.6,3.426,3.426,0,0,1,1.428-2.957,7.048,7.048,0,0,1,4.128-1.041h1.491v-.695a2,2,0,0,0-.432-1.345,1.7,1.7,0,0,0-1.361-.5,1.928,1.928,0,0,0-1.283.392,1.332,1.332,0,0,0-.465,1.075h-3.236a3.252,3.252,0,0,1,.649-1.948,4.307,4.307,0,0,1,1.837-1.407,6.723,6.723,0,0,1,2.667-.509,5.283,5.283,0,0,1,3.555,1.126,3.935,3.935,0,0,1,1.317,3.165v5.253a5.805,5.805,0,0,0,.482,2.611v.19Zm-2.677-2.251a2.782,2.782,0,0,0,1.321-.32,2.1,2.1,0,0,0,.9-.856v-2.084h-1.21q-2.432,0-2.588,1.681l-.011.19a1.3,1.3,0,0,0,.424,1,1.663,1.663,0,0,0,1.166.391" transform="translate(70.393 42.805)" fill="#12263f"/>
    <path id="Path_183907" data-name="Path 183907" d="M724.583,428.483v2.979h2.073v2.375h-2.073v6.05a1.447,1.447,0,0,0,.257.963,1.3,1.3,0,0,0,.987.291,5.107,5.107,0,0,0,.951-.079v2.454a6.641,6.641,0,0,1-1.959.291q-3.407,0-3.473-3.439v-6.531h-1.771v-2.375h1.771v-2.979Z" transform="translate(71.466 42.556)" fill="#12263f"/>
    <path id="Path_183908" data-name="Path 183908" d="M727.845,428.491a1.6,1.6,0,0,1,.487-1.2,2.1,2.1,0,0,1,2.649,0,1.713,1.713,0,0,1-.005,2.41,2.079,2.079,0,0,1-2.632,0,1.59,1.59,0,0,1-.5-1.21m3.44,15.256h-3.249v-12.12h3.249Z" transform="translate(72.287 42.391)" fill="#12263f"/>
    <path id="Path_183909" data-name="Path 183909" d="M738.242,439.359l2.251-8.167h3.383l-4.088,12.121H736.7l-4.088-12.121h3.383Z" transform="translate(72.761 42.825)" fill="#12263f"/>
    <path id="Path_183910" data-name="Path 183910" d="M751.276,443.333a3.563,3.563,0,0,1-.324-1.086,3.922,3.922,0,0,1-3.059,1.31,4.3,4.3,0,0,1-2.951-1.031,3.314,3.314,0,0,1-1.171-2.6,3.426,3.426,0,0,1,1.428-2.957,7.047,7.047,0,0,1,4.128-1.041h1.491v-.695a2,2,0,0,0-.432-1.345,1.7,1.7,0,0,0-1.361-.5,1.928,1.928,0,0,0-1.283.392,1.332,1.332,0,0,0-.465,1.075H744.04a3.253,3.253,0,0,1,.649-1.948,4.307,4.307,0,0,1,1.837-1.407,6.724,6.724,0,0,1,2.667-.509,5.283,5.283,0,0,1,3.555,1.126,3.935,3.935,0,0,1,1.317,3.165v5.253a5.806,5.806,0,0,0,.481,2.611v.19Zm-2.677-2.251a2.782,2.782,0,0,0,1.321-.32,2.1,2.1,0,0,0,.9-.856v-2.084h-1.21q-2.432,0-2.588,1.681l-.011.19a1.3,1.3,0,0,0,.424,1,1.663,1.663,0,0,0,1.166.391" transform="translate(73.869 42.805)" fill="#12263f"/>
    <path id="Path_183911" data-name="Path 183911" d="M653.766,297.258a20.829,20.829,0,1,1-20.831-20.83,20.831,20.831,0,0,1,20.831,20.83" transform="translate(60.793 27.454)" fill="#42e0e6"/>
    <path id="Path_183912" data-name="Path 183912" d="M632.139,286.485v2.666h-.313a5.5,5.5,0,0,0-3.534,1.142,4.649,4.649,0,0,0-1.608,3.08,4.413,4.413,0,0,1,3.283-1.321,4.15,4.15,0,0,1,3.383,1.524,6.105,6.105,0,0,1,1.255,4.01,6,6,0,0,1-.689,2.878,4.943,4.943,0,0,1-1.949,2.006,5.673,5.673,0,0,1-2.852.717,5.288,5.288,0,0,1-4.161-1.793,6.957,6.957,0,0,1-1.584-4.783v-1.164a10.475,10.475,0,0,1,1-4.689,7.336,7.336,0,0,1,2.879-3.147,8.423,8.423,0,0,1,4.352-1.126Zm-3.158,8.177a2.581,2.581,0,0,0-1.424.409,2.45,2.45,0,0,0-.94,1.078v.984a4.364,4.364,0,0,0,.638,2.533,2.067,2.067,0,0,0,1.793.911,2.044,2.044,0,0,0,1.685-.822,3.86,3.86,0,0,0,0-4.276,2.12,2.12,0,0,0-1.748-.817" transform="translate(61.911 28.453)" fill="#12263f"/>
    <path id="Path_183913" data-name="Path 183913" d="M635.294,300.184a1.624,1.624,0,0,1,.52-1.254,2.024,2.024,0,0,1,2.621,0,1.625,1.625,0,0,1,.522,1.254,1.6,1.6,0,0,1-.516,1.238,1.873,1.873,0,0,1-1.323.477,1.851,1.851,0,0,1-1.309-.477,1.6,1.6,0,0,1-.516-1.238" transform="translate(63.096 29.641)" fill="#12263f"/>
    <rect id="Rectangle_38354" data-name="Rectangle 38354" width="81.502" height="2.121" transform="translate(738.099 448.5)" fill="#42e0e6"/>
    <path id="Path_183914" data-name="Path 183914" d="M753.813,356.082a45.7,45.7,0,1,1-45.7-45.7,45.7,45.7,0,0,1,45.7,45.7" transform="translate(65.789 30.826)" fill="#fff"/>
    <path id="Path_183915" data-name="Path 183915" d="M383.912,51.384a1.11,1.11,0,0,1,1.176-.86q26.341.007,52.681,0a1.087,1.087,0,0,1,.082,2.17c-.7.023-1.393,0-2.089.01q0,16.975,0,33.951a6.3,6.3,0,0,1-.512,2.59A6.11,6.11,0,0,1,429.88,92.9c-3.157.016-6.315,0-9.471.007q3.1,5.45,6.211,10.9a1.092,1.092,0,1,1-1.847,1.166c-.013-.021-.025-.042-.037-.063-.908-1.58-1.806-3.167-2.714-4.747q-4.792-1.008-9.587-2c-.005,1.086.007,2.172,0,3.258a1.088,1.088,0,0,1-2.176-.007c-.011-1.084,0-2.168,0-3.252-3.167.626-6.333,1.257-9.5,1.866-.97,1.657-1.9,3.336-2.87,4.992a1.09,1.09,0,0,1-1.826-1.192q3.1-5.448,6.212-10.893-7.094,0-14.19,0a1.11,1.11,0,0,1-1.162-1.054c0-.036,0-.071,0-.108q0-19.529,0-39.059c-.694-.013-1.39.023-2.082-.018a1.09,1.09,0,0,1-.93-1.229c0-.026.009-.052.014-.077m5.2,1.3q0,19.031,0,38.063l40.564,0a3.934,3.934,0,0,0,3.887-3.864q.01-17.1,0-34.2-22.227,0-44.453,0M402.162,97.52q4.04-.783,8.077-1.584c0-1,.009-2.007-.007-3.01-1.813,0-3.624.011-5.435,0-.9,1.521-1.757,3.065-2.635,4.6m10.292-4.59c-.007.993.01,1.986-.009,2.979,2.7.588,5.413,1.138,8.118,1.716q-1.324-2.348-2.652-4.7-2.729,0-5.458,0" transform="translate(38.127 5.018)" fill="#12263f"/>
    <path id="Path_183916" data-name="Path 183916" d="M406.532,55.84a1.089,1.089,0,0,1,1.06-.819c2.1,0,4.207-.011,6.31,0a1.1,1.1,0,0,1,1.053,1.143v0q0,3.1,0,6.191a1.089,1.089,0,1,1-2.178.073v-.062c-.008-1.3,0-2.591,0-3.887q-3.567,2.971-7.122,5.955a1.15,1.15,0,0,1-1.053.294,1.914,1.914,0,0,1-.854-.628c-.81-.806-1.618-1.616-2.433-2.417-1.173,2.247-2.339,4.5-3.521,6.74a1.076,1.076,0,0,1-1.379.468,1.185,1.185,0,0,1-.594-.641c-.91-1.929-1.836-3.851-2.743-5.78a1.087,1.087,0,0,1,1.952-.953c.637,1.295,1.253,2.6,1.885,3.9,1.055-2.008,2.093-4.025,3.144-6.035a1.1,1.1,0,0,1,1.209-.6,1.655,1.655,0,0,1,.819.555l2.852,2.856q2.991-2.488,5.974-4.99c-1.143-.012-2.287.014-3.43-.012a1.09,1.09,0,0,1-.948-1.348" transform="translate(39.03 5.464)" fill="#12263f"/>
    <path id="Path_183917" data-name="Path 183917" d="M416.162,66.927a1.092,1.092,0,0,1,1.114-.886A11.467,11.467,0,0,1,428.7,77.592a1.085,1.085,0,0,1-.992,1c-.48.016-.959-.035-1.437-.044a9.091,9.091,0,1,1-10.054-10.077,14.5,14.5,0,0,1-.051-1.543m2.18,1.38q0,4.056,0,8.109c2.7.006,5.408,0,8.111,0a9.325,9.325,0,0,0-8.111-8.111m-6.13,4.54a6.883,6.883,0,1,0,11.844,5.805c-2.261,0-4.52,0-6.782,0a1.1,1.1,0,0,1-1.13-1.06v-.01c-.012-2.292,0-4.585,0-6.878a6.906,6.906,0,0,0-3.928,2.146" transform="translate(40.536 6.559)" fill="#12263f"/>
    <path id="Path_183918" data-name="Path 183918" d="M398.181,72.336a1.806,1.806,0,0,1,.641-.079c2.034.007,4.066,0,6.1,0a1.089,1.089,0,1,1,.065,2.178h-.069q-3.156,0-6.31,0a1.089,1.089,0,0,1-.427-2.1" transform="translate(39.478 7.176)" fill="#12263f"/>
    <path id="Path_183919" data-name="Path 183919" d="M394.971,77.115a1.9,1.9,0,0,1,.619-.077c3.22.008,6.44,0,9.661.007a1.091,1.091,0,0,1,.045,2.181h-.044c-3.258.009-6.516,0-9.774,0a1.13,1.13,0,0,1-1.149-.732,1.1,1.1,0,0,1,.642-1.382" transform="translate(39.158 7.651)" fill="#12263f"/>
    <path id="Path_183920" data-name="Path 183920" d="M96.522,326.953h26.2a4.764,4.764,0,0,1,3.971,2.3,5.246,5.246,0,0,1,.682,2.764c.686.012,1.374-.027,2.059.029a3.516,3.516,0,0,1,2.754,1.815,3.821,3.821,0,0,1,.434,1.9q0,9.386,0,18.772a25.66,25.66,0,0,1,6.6,5.139,3.463,3.463,0,0,1,.368,3.76,6.141,6.141,0,0,1-1.293,1.5,25.74,25.74,0,0,1-5.679,4.2c.01,3.048.005,6.1,0,9.143a3.549,3.549,0,0,1-3.373,3.648H108.012a6.777,6.777,0,0,1-4.37-1.815c-1.55-1.49-3.106-2.971-4.647-4.471-.989-.014-1.984.051-2.97-.053a4.673,4.673,0,0,1-3.117-1.816,4.846,4.846,0,0,1-.958-3.009q0-19.433,0-38.866a4.859,4.859,0,0,1,1.034-3.162,4.782,4.782,0,0,1,3.538-1.774M94.8,329.9a2.61,2.61,0,0,0-.7,1.884q0,19.219,0,38.44a4.349,4.349,0,0,0,.17,1.619,2.532,2.532,0,0,0,1.97,1.607,10.9,10.9,0,0,0,1.418.037,6.967,6.967,0,0,1-.445-2.515c.008-2.008-.014-4.017.01-6.024a1.064,1.064,0,0,1,2.127.005c.032,2.178-.014,4.358.024,6.535q2.624,0,5.246,0a4,4,0,0,1,1.631.218,2.843,2.843,0,0,1,1.736,2.7q0,2.68,0,5.361c7,.015,14,0,21,.007a1.409,1.409,0,0,0,1.484-1.385q.01-4.131,0-8.26l-.609.22a22.4,22.4,0,0,1-16.223-.126,24.32,24.32,0,0,1-8.868-6.064,3.463,3.463,0,0,1-.671-3.588,6.829,6.829,0,0,1,1.841-2.247,23.68,23.68,0,0,1,13.486-6.35,23.052,23.052,0,0,1,8.532.687c.856.23,1.675.576,2.514.86,0-5.995,0-11.99,0-17.985a1.408,1.408,0,0,0-1.472-1.37l-28.246,0a1.4,1.4,0,0,0-1.388,1.373c-.01,6.907,0,13.814-.006,20.721a1.086,1.086,0,0,1-1.484,1.087,1.3,1.3,0,0,1-.663-1.41q.01-10.145,0-20.289a3.545,3.545,0,0,1,2.353-3.422,5.8,5.8,0,0,1,2.047-.21h23.607a3.072,3.072,0,0,0-.331-1.6,2.58,2.58,0,0,0-2.338-1.313q-12.887,0-25.773,0a2.606,2.606,0,0,0-1.975.8m26.259,24.134a7.837,7.837,0,1,0,7.673,3.917,7.833,7.833,0,0,0-7.673-3.917m8.608,1.487a10.008,10.008,0,0,1,0,12.61,22.806,22.806,0,0,0,7.9-5.531,1.322,1.322,0,0,0-.066-1.639,22.879,22.879,0,0,0-7.832-5.441m-23.3,5.4a1.338,1.338,0,0,0-.027,1.774,22.818,22.818,0,0,0,7.834,5.436,10,10,0,0,1,0-12.619,22.786,22.786,0,0,0-7.8,5.409m-6.223,12.718a5.305,5.305,0,0,0,.63.738l4.271,4.1a5.411,5.411,0,0,0,.787.618c0-1.6.012-3.2,0-4.8a.652.652,0,0,0-.646-.658.28.28,0,0,0-.031,0c-1.669-.012-3.338-.006-5.007,0" transform="translate(9.132 32.472)" fill="#12263f"/>
    <path id="Path_183921" data-name="Path 183921" d="M103.48,337.129c6.181-.046,12.37,0,18.554-.022a1.587,1.587,0,0,1,1.138.277,1.072,1.072,0,0,1,.085,1.514.964.964,0,0,1-.089.088,1.449,1.449,0,0,1-1.029.273c-6.157-.007-12.315,0-18.471-.005a1.09,1.09,0,0,1-1.125-.855,1.058,1.058,0,0,1,.819-1.251,1.032,1.032,0,0,1,.118-.018" transform="translate(10.182 33.48)" fill="#12263f"/>
    <path id="Path_183922" data-name="Path 183922" d="M103.479,342.5c4.537-.044,9.076-.008,13.614-.019a1.106,1.106,0,0,1,1.2.97,1.078,1.078,0,0,1-1.091,1.171c-4.474.015-8.951,0-13.426.007a1.135,1.135,0,0,1-1.22-.793,1.061,1.061,0,0,1,.92-1.336" transform="translate(10.182 34.014)" fill="#12263f"/>
    <path id="Path_183923" data-name="Path 183923" d="M103.482,347.871c1.817-.046,3.637,0,5.454-.022a1.717,1.717,0,0,1,1.144.244,1.07,1.07,0,0,1,.167,1.5c-.015.018-.031.036-.046.053a1.305,1.305,0,0,1-1.049.353c-1.829-.007-3.659.006-5.486-.005a1.09,1.09,0,0,1-1.125-.864,1.059,1.059,0,0,1,.83-1.244c.036-.007.073-.012.11-.015" transform="translate(10.182 34.547)" fill="#12263f"/>
    <path id="Path_183924" data-name="Path 183924" d="M118.885,353.79a5.467,5.467,0,0,1,5.963,3.676,5.055,5.055,0,0,1,.013,3.353,5.477,5.477,0,0,1-4.755,3.766,5.415,5.415,0,0,1-4.511-8.953,5.542,5.542,0,0,1,3.289-1.842m.211,2.148a3.283,3.283,0,1,0,3.74,2.249A3.3,3.3,0,0,0,119.1,355.938Z" transform="translate(11.349 35.131)" fill="#12263f"/>
    <path id="Path_183925" data-name="Path 183925" d="M97.516,356.687a1.07,1.07,0,1,1-.46,1.789,1.076,1.076,0,0,1,.46-1.789" transform="translate(9.608 35.42)" fill="#12263f"/>
    <path id="Path_183926" data-name="Path 183926" d="M705.71,327.364a1.254,1.254,0,0,1,1.857,0c.883.987,1.75,1.99,2.625,2.986a3.678,3.678,0,0,1,.808,3.327,3.728,3.728,0,0,1-1.606,2.223c.035.829.122,1.653.177,2.481,1.473-.319,2.941-.669,4.416-.979a19.386,19.386,0,0,1,11.614,1.27,9.321,9.321,0,0,0,2.691,1.06,3.43,3.43,0,0,1,6.775.485,3.578,3.578,0,0,1-1.606,3.316,8.755,8.755,0,0,1-5.823,1.283q3.159,6.081,6.316,12.166c.442.013.888-.022,1.33.022a.912.912,0,0,1,.7.682v.269a.893.893,0,0,1-.684.726,11.712,11.712,0,0,1-1.258.023,9.226,9.226,0,0,1-1.338,2.317.853.853,0,0,1-1.36-1.027,10.142,10.142,0,0,0,.815-1.29q-6.466,0-12.931,0a7.216,7.216,0,0,0,9.136,3.477.919.919,0,0,1,1.092.148.861.861,0,0,1-.258,1.368,8.944,8.944,0,0,1-11.844-4.992c-.575-.062-1.3.182-1.74-.31a.863.863,0,0,1,.384-1.371,9.617,9.617,0,0,1,1.436-.042q2.835-5.432,5.649-10.877c.4-.807.862-1.587,1.222-2.413a14.671,14.671,0,0,0-9.428-1.251c-1.645.353-3.285.735-4.927,1.1q.952,13.04,1.908,26.077A3.368,3.368,0,0,1,714.7,374.6a27,27,0,0,1,3.517.09,4.746,4.746,0,0,1,3.8,4.967,2.577,2.577,0,0,1-1.745,2.128,5.006,5.006,0,0,1-1.6.134q-12.382,0-24.763,0a2.607,2.607,0,0,1-2.377-1.376,3.514,3.514,0,0,1-.047-2.712,4.761,4.761,0,0,1,4.254-3.222c.943-.025,1.888-.009,2.833-.007a3.37,3.37,0,0,1,2.84-4.98q.955-13.037,1.907-26.075-2.432-.551-4.869-1.089a14.52,14.52,0,0,0-9.492,1.246c2.261,4.442,4.585,8.855,6.877,13.283.454.011.911-.031,1.363.024a.863.863,0,0,1,.457,1.39c-.44.494-1.169.244-1.746.311a8.734,8.734,0,0,1-1.5,2.522.855.855,0,0,1-1.268-1.148,8.494,8.494,0,0,0,.9-1.377q-6.466-.007-12.932,0a7.205,7.205,0,0,0,3.627,3.414,7.324,7.324,0,0,0,5.4.111.877.877,0,0,1,1.128.354.862.862,0,0,1-.331,1.172.9.9,0,0,1-.124.057,8.954,8.954,0,0,1-11.577-5.109,12,12,0,0,1-1.258-.024.891.891,0,0,1-.683-.717v-.268a.9.9,0,0,1,.706-.693c.441-.042.885-.008,1.328-.021q3.151-6.083,6.311-12.163a8.85,8.85,0,0,1-6.1-1.464,3.651,3.651,0,0,1-.551-5.1,3.433,3.433,0,0,1,5.995,1.477,9.69,9.69,0,0,0,2.7-1.043,19.834,19.834,0,0,1,11.446-1.316c1.534.308,3.051.693,4.582,1,.047-.824.134-1.647.173-2.472a3.952,3.952,0,0,1-1.2-1.235,3.669,3.669,0,0,1,.3-4.188q1.354-1.568,2.735-3.117m-1.359,4.15a1.925,1.925,0,0,0-.464,1.483,2.066,2.066,0,0,0,1.246,1.639c1.03,0,2.065.032,3.091-.015a2.412,2.412,0,0,0,1.016-1.077,1.951,1.951,0,0,0-.326-2.039c-.755-.867-1.518-1.73-2.276-2.6l-2.287,2.605m1.217,4.866c-.037.776-.118,1.55-.164,2.326a11.959,11.959,0,0,0,2.461,0c-.047-.777-.125-1.552-.166-2.329-.71-.022-1.423-.026-2.132,0M681.243,338.8a1.662,1.662,0,0,0-1.144.915,1.882,1.882,0,0,0,.608,2.365,7.315,7.315,0,0,0,7.25.217,15.98,15.98,0,0,1,10.639-1.564c1.692.359,3.376.755,5.067,1.125a14.038,14.038,0,0,0,5.047.164c2.156-.377,4.268-.974,6.42-1.369a16.315,16.315,0,0,1,9.65,1.376,14.7,14.7,0,0,0,1.738.773,7.5,7.5,0,0,0,4.661-.032,3.591,3.591,0,0,0,1.888-1.236,1.841,1.841,0,0,0-.347-2.393,1.663,1.663,0,0,0-1.815-.212,1.822,1.822,0,0,0-.945,1.281,1.523,1.523,0,0,1-1.413,1.252,5.818,5.818,0,0,1-2.687-.742,17.849,17.849,0,0,0-9.463-1.922,31.581,31.581,0,0,0-4.473.827c-.927.2-1.851.422-2.78.618a12.581,12.581,0,0,1-5.014,0c-1.88-.394-3.742-.864-5.627-1.232a18.1,18.1,0,0,0-11.088,1.711,5.947,5.947,0,0,1-2.69.742,1.513,1.513,0,0,1-1.316-.938,3.674,3.674,0,0,0-.413-1.073,1.694,1.694,0,0,0-1.751-.651m23.781,5.016q-.945,12.9-1.889,25.811,3.5,0,7,0-.943-12.9-1.891-25.811a17.14,17.14,0,0,1-3.221,0m-17.474,1.014c-2.077,4.062-4.2,8.1-6.295,12.155q6.314,0,12.628,0c-2.035-3.961-4.1-7.905-6.146-11.863a3.384,3.384,0,0,0-.187-.295m38.129.023q-3.151,6.065-6.3,12.133,6.317,0,12.632,0-3.084-5.954-6.175-11.906c-.041-.057-.122-.17-.162-.228m-24.74,26.607a1.62,1.62,0,0,0,.636,3.136c3.41,0,6.819.009,10.227,0a1.618,1.618,0,0,0-.011-3.235c-3.283-.018-6.566,0-9.85-.009a2.825,2.825,0,0,0-1,.112m-5.513,4.912a3.03,3.03,0,0,0-2.465,3.061.871.871,0,0,0,.943.767q12.735,0,25.472,0a.87.87,0,0,0,.933-.772,3.029,3.029,0,0,0-2.041-2.944,4.8,4.8,0,0,0-1.661-.166H696.091A3.965,3.965,0,0,0,695.426,376.368Z" transform="translate(67.266 32.472)" fill="#12263f"/>
    <path id="Path_183927" data-name="Path 183927" d="M683.6,50.525h35a.942.942,0,0,1,.593.316,1.42,1.42,0,0,1,.179.87c-.008,2.14,0,4.282,0,6.422H728.2a1.151,1.151,0,0,1,.85.23,1.111,1.111,0,0,1,.258.861q-.008,3.38,0,6.763a1.051,1.051,0,0,1-.272.834.808.808,0,0,1-1.14-.07l-.015-.019a1.155,1.155,0,0,1-.188-.739q0-3.123,0-6.246-4.165,0-8.331,0,0,15.143,0,30.286a.946.946,0,0,1-.271.757q-3.38,3.389-6.77,6.773a.939.939,0,0,1-.762.321H694.414v6q13.2,0,26.389,0c0-1.9,0-3.8,0-5.7a1.285,1.285,0,0,1,.23-.934,1.063,1.063,0,0,1,.84-.263q2.912.007,5.824,0,0-13.678,0-27.354a.985.985,0,0,1,.274-.776.8.8,0,0,1,1.134.07l.007.008a1.052,1.052,0,0,1,.2.7q0,13.634,0,27.265a5.85,5.85,0,0,1-.049,1.17,2.914,2.914,0,0,1-.639.751q-3.173,3.164-6.338,6.336a1.9,1.9,0,0,1-.487.334H693.571a.843.843,0,0,1-.763-.865c-.011-2.247,0-4.5,0-6.743q-4.418,0-8.835,0a1.16,1.16,0,0,1-.855-.233.975.975,0,0,1-.252-.75q0-7.193,0-14.388a1.112,1.112,0,0,1,.247-.851.8.8,0,0,1,1.13.011l.02.021a1.324,1.324,0,0,1,.219.931q-.01,6.82,0,13.644,13.2,0,26.388,0c0-1.935,0-3.87,0-5.8a1.087,1.087,0,0,1,.266-.863,1.192,1.192,0,0,1,.863-.225q2.882.008,5.765,0,0-18.622,0-37.244-16.64,0-33.281,0,0,13.367,0,26.733a.813.813,0,1,1-1.607-.008q0-13.683,0-27.368a.869.869,0,0,1,.735-.968m28.878,40.467q0,2.068,0,4.136,2.069-2.065,4.132-4.136-2.066,0-4.132,0m9.943,7.608q0,2.068,0,4.136,2.071-2.063,4.132-4.135c-1.378,0-2.755,0-4.132,0" transform="translate(67.819 5.018)" fill="#12263f"/>
    <path id="Path_183928" data-name="Path 183928" d="M698.631,56.076a11.829,11.829,0,1,1-10.362,10.437,11.675,11.675,0,0,1,2.42-5.946.805.805,0,0,1,1.337.153.936.936,0,0,1-.2,1.007,10.09,10.09,0,0,0-1.91,4.56,10.224,10.224,0,1,0,4.4-6.936.952.952,0,0,1-1.084.159.8.8,0,0,1-.085-1.3,11.632,11.632,0,0,1,5.481-2.129" transform="translate(68.35 5.561)" fill="#12263f"/>
    <path id="Path_183929" data-name="Path 183929" d="M702.7,62.748a2.228,2.228,0,0,1,1.658-.7,2.194,2.194,0,0,1,2.063,1.594,2.23,2.23,0,0,1-.631,2.215c-2.092,2.087-4.172,4.185-6.272,6.262a2.2,2.2,0,0,1-3,.016c-1-.967-1.967-1.964-2.956-2.94a2.68,2.68,0,0,1-.816-1.236,2.184,2.184,0,0,1,3.527-2.235c.6.547,1.149,1.149,1.737,1.708l4.686-4.685m1.38.96a3.189,3.189,0,0,0-.564.5c-1.589,1.594-3.185,3.183-4.772,4.778a1.039,1.039,0,0,1-.724.385.993.993,0,0,1-.718-.365l-1.883-1.888a.843.843,0,0,0-.521-.308.579.579,0,0,0-.613.543c0,.016,0,.033,0,.049,0,.251.206.423.364.59.993.976,1.962,1.977,2.96,2.946a.6.6,0,0,0,.876-.059q3.065-3.056,6.121-6.119a.736.736,0,0,0,.285-.569.579.579,0,0,0-.622-.533.556.556,0,0,0-.187.046" transform="translate(68.794 6.162)" fill="#12263f"/>
    <path id="Path_183930" data-name="Path 183930" d="M690.413,79.987a7.687,7.687,0,0,1,1.031-.027h19a1.027,1.027,0,0,1,.783.239.8.8,0,0,1,0,1.134l-.007.007a1.036,1.036,0,0,1-.785.236q-9.234,0-18.465,0a6.859,6.859,0,0,1-1.779-.1.8.8,0,0,1,.219-1.488" transform="translate(68.507 7.941)" fill="#12263f"/>
    <path id="Path_183931" data-name="Path 183931" d="M690.275,83.475a3.357,3.357,0,0,1,.951-.066c4.366,0,8.734,0,13.1,0a.808.808,0,1,1,0,1.606q-6.822.008-13.641,0a.844.844,0,0,1-.866-.519.8.8,0,0,1,.454-1.026" transform="translate(68.506 8.284)" fill="#12263f"/>
    <path id="Path_183932" data-name="Path 183932" d="M401.19,329.858a2.929,2.929,0,0,1,2.908-2.9q15.535,0,31.068,0a2.923,2.923,0,0,1,2.9,2.778c.027,9.045-.014,18.09.022,27.136a3.859,3.859,0,0,1,2.28,4.182,3.9,3.9,0,0,1-2.535,3.021q-9.831,3.585-19.663,7.158a12.829,12.829,0,0,1-5.162.794c-1.806-.079-3.56-.724-5.378-.577a8.673,8.673,0,0,0-4.272,1.482,3.822,3.822,0,0,1,.713,1.219,1.047,1.047,0,0,1-.525,1.016q-4.68,3.27-9.354,6.543a.986.986,0,0,1-1.385-.162l-.04-.053q-4.828-6.884-9.652-13.772a4.478,4.478,0,0,1-.475-.742.988.988,0,0,1,.4-1.161q4.528-3.178,9.061-6.345a4.028,4.028,0,0,1,.658-.417.971.971,0,0,1,1.11.34c.391.525.75,1.074,1.134,1.605a40.8,40.8,0,0,1,6.191-3.93q0-13.606,0-27.211m1.944,0c-.013.973,0,1.947,0,2.92h11.646V328.9c-3.563,0-7.126-.008-10.69,0a.961.961,0,0,0-.952.957m13.583-.962q0,4.167,0,8.333c.75-.737,1.481-1.493,2.229-2.229a.974.974,0,0,1,1.363,0c.751.735,1.483,1.491,2.228,2.23q0-4.165,0-8.333h-5.823m7.764,0v3.882h11.647c-.011-1.012.022-2.026-.014-3.037a1.026,1.026,0,0,0-1.193-.848q-5.221.01-10.44,0m-21.352,5.823V356.29a20.6,20.6,0,0,1,10.69-.773c3.111.555,6.225,1.095,9.336,1.652a3.953,3.953,0,0,1,1.805.841q2.978,0,5.955,0a3.189,3.189,0,0,0,1.124-.091c1-.37,2.008-.733,3.013-1.1a5.011,5.011,0,0,1,1.075-.258q0-10.919,0-21.842H424.482c0,1.624.009,3.246,0,4.87a.972.972,0,0,1-1.1.942,1.246,1.246,0,0,1-.741-.448q-1.5-1.52-3.011-3.023c-1.089,1.082-2.157,2.184-3.261,3.253a.971.971,0,0,1-1.578-.609c-.035-1.66,0-3.323-.015-4.984H403.13m-3.977,25.747c-1.016.7-2.025,1.413-3.04,2.118q3.062,4.376,6.126,8.753a10.573,10.573,0,0,1,7.083-1.794,36.5,36.5,0,0,0,4.362.56,10.972,10.972,0,0,0,3.864-.712q9.793-3.558,19.58-7.127a1.989,1.989,0,0,0,1.2-1.08,1.948,1.948,0,0,0-2.467-2.591c-3.209,1.162-6.409,2.349-9.622,3.5a4.425,4.425,0,0,1-.947,1.583,3.867,3.867,0,0,1-3.35,1.154c-3.542-.616-7.082-1.255-10.624-1.873.1-.635.215-1.27.327-1.9q5.206.915,10.413,1.838a1.976,1.976,0,0,0,1.919-.655,1.937,1.937,0,0,0,.308-1.981,1.957,1.957,0,0,0-1.516-1.192l-9.7-1.708a18.828,18.828,0,0,0-13.909,3.113m-14.25,6.419q4.456,6.358,8.9,12.721,3.979-2.777,7.947-5.57-4.447-6.363-8.9-12.724l-7.949,5.572" transform="translate(37.997 32.472)" fill="#12263f"/>
    <path id="Path_183933" data-name="Path 183933" d="M104.291,54.436a4.432,4.432,0,0,1,4.313-3.9q7.923-.013,15.851,0a4.423,4.423,0,0,1,4.468,4.377v.1c0,2.661,0,5.324,0,7.987q7.133,0,14.265,0a3.674,3.674,0,0,1,2.557-2.544c0-.176,0-.351,0-.527q-7.018,0-14.034,0a.9.9,0,1,1-.079-1.807c.023,0,.048,0,.071,0q7.445-.015,14.89,0a.938.938,0,0,1,.965.79v2.443a.915.915,0,0,1-.842.787,1.87,1.87,0,0,0-1.518.788c-.409.511-.157,1.277-.658,1.735-.011,2.074,0,4.147,0,6.219a15.262,15.262,0,0,1,2.006.056,1.455,1.455,0,0,1,1.017,1.153V77.36a1.427,1.427,0,0,1-1.119,1.206c-.631.08-1.27.02-1.905.037,0,2.3,0,4.6,0,6.9a.909.909,0,0,1-1.812.143,1.115,1.115,0,0,1,0-.148c0-2.3,0-4.6,0-6.9H90.534c-.008,2.337.011,4.676-.01,7.013a.9.9,0,0,1-.929.871c-.036,0-.073-.005-.109-.011a.924.924,0,0,1-.766-.989c0-2.294,0-4.587,0-6.882a9.27,9.27,0,0,1-2.147-.109,1.406,1.406,0,0,1-.875-1.354q0-2.416,0-4.833A1.393,1.393,0,0,1,86.891,70.9c.607-.051,1.218-.007,1.827-.022,0-2.055.005-4.108,0-6.163-.595-.433-.313-1.257-.737-1.792a1.874,1.874,0,0,0-1.518-.787.923.923,0,0,1-.841-.76V58.915a.933.933,0,0,1,.962-.8c5.892-.01,11.784,0,17.675-.006.023-1.222-.037-2.449.035-3.672m3.756-2.017a2.607,2.607,0,0,0-1.97,2.45c-.009,3.312,0,6.627,0,9.939a2.615,2.615,0,0,0,1.73,2.482,3.81,3.81,0,0,0,1.41.152c5.12-.006,10.239,0,15.359,0a2.609,2.609,0,0,0,2.531-2.508q.013-5.028,0-10.06a2.6,2.6,0,0,0-2.523-2.524c-5.126-.011-10.25,0-15.373-.007a4.88,4.88,0,0,0-1.161.078M87.435,59.924v.519A3.682,3.682,0,0,1,89.988,63q5.62,0,11.241,0a.97.97,0,0,1,1.173,1.177.916.916,0,0,1-.93.639q-5.468.008-10.937,0v6.064q26.093,0,52.188,0,0-3.032,0-6.065H128.928a4.491,4.491,0,0,1-1.133,2.97,4.415,4.415,0,0,1-3.334,1.474c-5.328-.006-10.655.009-15.982-.008a4.427,4.427,0,0,1-4.2-4.076c-.04-1.749-.007-3.5-.02-5.248q-8.411,0-16.821,0m.076,12.767q0,2.048,0,4.1,29.116,0,58.235,0,0-2.048,0-4.1Z" transform="translate(8.503 5.018)" fill="#12263f"/>
    <path id="Path_183934" data-name="Path 183934" d="M107.274,54.141a1.151,1.151,0,0,1,1.014-.322,3.5,3.5,0,0,1,1.62.2,1.806,1.806,0,0,1,.942,1.26c.387,1.8.749,3.6,1.138,5.4a.485.485,0,0,0,.524.408c1.781,0,3.564.01,5.347-.005a.49.49,0,0,0,.466-.381q.787-2.071,1.564-4.144c-2.337,0-4.674,0-7.015,0a.929.929,0,0,1-.987-.795.9.9,0,0,1,.785-1.007.708.708,0,0,1,.1-.007c2.535-.009,5.071,0,7.607,0a1.475,1.475,0,0,1,1.343,2.108c-.579,1.52-1.147,3.046-1.728,4.567a2.318,2.318,0,0,1-2.138,1.485c-1.815,0-3.629.007-5.444,0a2.3,2.3,0,0,1-2.188-1.79c-.4-1.827-.753-3.665-1.161-5.489a5.787,5.787,0,0,1-1.441-.059.913.913,0,0,1-.492-1.192.949.949,0,0,1,.145-.236" transform="translate(10.633 5.345)" fill="#12263f"/>
    <path id="Path_183935" data-name="Path 183935" d="M111.81,62.8a1.277,1.277,0,0,1,.941.158.908.908,0,0,1,.3,1.078,1.079,1.079,0,0,1-1.937-.058.909.909,0,0,1,.577-1.148.867.867,0,0,1,.117-.031" transform="translate(11.031 6.235)" fill="#12263f"/>
    <path id="Path_183936" data-name="Path 183936" d="M115.332,62.816a1.132,1.132,0,0,1,1.208.363.914.914,0,0,1-.33,1.319,1.128,1.128,0,0,1-1.457-.38.909.909,0,0,1,.384-1.227.948.948,0,0,1,.195-.075" transform="translate(11.387 6.235)" fill="#12263f"/>
    <path id="Path_183937" data-name="Path 183937" d="M108.956,83.392a2.129,2.129,0,0,1,2.161-2.071c3.5,0,7.008-.01,10.513.005a2.122,2.122,0,0,1,2.035,2.059c.01,5.742,0,11.485.005,17.226q9.35,0,18.7,0,0-7.218,0-14.433a.905.905,0,1,1,1.809-.062.535.535,0,0,1,0,.059q0,7.44,0,14.883a1.411,1.411,0,0,1-1.5,1.369H89.934a1.406,1.406,0,0,1-1.493-1.373c-.013-4.918,0-9.838-.007-14.755a1,1,0,0,1,.31-.832.91.91,0,0,1,1.285.09l.02.024a1.637,1.637,0,0,1,.2,1.091q0,6.97,0,13.94,9.351,0,18.7,0,.007-8.609,0-17.22m1.814.118q-.007,8.552,0,17.1,5.544,0,11.087,0,0-8.55,0-17.1a.355.355,0,0,0-.45-.379c-3.433,0-6.867-.008-10.3.005a.313.313,0,0,0-.336.288.287.287,0,0,0,0,.081" transform="translate(8.783 8.076)" fill="#12263f"/>
    <path id="Path_183938" data-name="Path 183938" d="M92.824,83.162a2.566,2.566,0,0,1,.691-.075q5.5.007,11.007,0a1.982,1.982,0,0,1,2,2.2c-.007,3.221,0,6.443-.005,9.664a1.932,1.932,0,0,1-1.862,1.894c-3.756.007-7.513,0-11.269,0a1.957,1.957,0,0,1-1.862-1.325,3.773,3.773,0,0,1-.1-1.171c0-3.106,0-6.21,0-9.316a1.951,1.951,0,0,1,1.4-1.875m.427,1.747c-.029,3.189,0,6.378-.014,9.566a3.6,3.6,0,0,0,.037.565c3.424-.016,6.851,0,10.278-.007A7.977,7.977,0,0,0,104.708,95c-.024-3.364.016-6.729-.021-10.092q-5.717-.01-11.437,0" transform="translate(9.08 8.252)" fill="#12263f"/>
    <path id="Path_183939" data-name="Path 183939" d="M123.971,83.128a6.494,6.494,0,0,1,1.064-.04h10.523a1.943,1.943,0,0,1,1.836,1.237,3.527,3.527,0,0,1,.132,1.31q0,4.541,0,9.085a1.962,1.962,0,0,1-1.845,2.124c-3.63.01-7.26,0-10.89,0a2.761,2.761,0,0,1-1.144-.139,1.937,1.937,0,0,1-1.213-1.752q-.012-4.96,0-9.918a1.95,1.95,0,0,1,1.538-1.913m.29,1.78c-.036,3.365,0,6.73-.02,10.1a10.427,10.427,0,0,0,1.271.031l10.03,0c.247.035.144-.284.17-.422-.014-3.234.015-6.467-.014-9.7q-5.72-.015-11.437,0" transform="translate(12.159 8.251)" fill="#12263f"/>
    <path id="Path_183940" data-name="Path 183940" d="M109.587,90.209a2.822,2.822,0,0,1,1.28-.1A.9.9,0,0,1,111.5,91.5c-.374.561-1.142.411-1.714.375a.913.913,0,0,1-.2-1.67" transform="translate(10.838 8.947)" fill="#12263f"/>
  </g>
</svg>
