<svg xmlns="http://www.w3.org/2000/svg" width="190.355" height="100.296" viewBox="0 0 190.355 100.296">
  <g id="t3-ic1" transform="translate(-180 -813)">
    <g id="Group_117357" data-name="Group 117357" transform="translate(0 410)">
      <path id="Path_178621" data-name="Path 178621" d="M1151.767,184.239l74.688-39.738a4.328,4.328,0,0,1,6.142,5.178L1214.88,203.3a4.327,4.327,0,0,1-5.134,2.847l-56.971-13.887A4.328,4.328,0,0,1,1151.767,184.239Z" transform="translate(-862.472 297.021)" fill="#e3fbfc"/>
      <path id="Path_178623" data-name="Path 178623" d="M1204.415,158.916l-50.625,26.936a2.933,2.933,0,0,1-4.163-3.51l12.009-36.349a2.933,2.933,0,0,1,3.48-1.93l38.617,9.413A2.934,2.934,0,0,1,1204.415,158.916Z" transform="translate(-952.221 259.021)" fill="#e3fbfc"/>
      <path id="Elipse_5709" data-name="Elipse 5709" d="M9.152-3.1A12.25,12.25,0,1,1-3.1,9.152,12.264,12.264,0,0,1,9.152-3.1Zm0,20.327A8.077,8.077,0,1,0,1.076,9.152,8.086,8.086,0,0,0,9.152,17.229Z" transform="translate(183.098 470.323)" fill="#fef3e0"/>
      <path id="Elipse_5709-2" data-name="Elipse 5709" d="M6.814-3.1A9.911,9.911,0,1,1-3.1,6.814,9.923,9.923,0,0,1,6.814-3.1Zm0,16.446A6.535,6.535,0,1,0,.279,6.814,6.542,6.542,0,0,0,6.814,13.348Z" transform="translate(337.775 410.775)" fill="#fef3e0"/>
    </g>
    <g id="proyeccion" transform="translate(230 818)">
      <g id="_000000ff" data-name="#000000ff">
        <path id="Path_178697" data-name="Path 178697" d="M76.395,0h.243A6.107,6.107,0,0,1,81.42,2.6a6.014,6.014,0,0,1-.522,7.457,6.038,6.038,0,0,1-6.87,1.4q-.717,1.02-1.424,2.048c3.278.009,6.557-.016,9.835.011a7.593,7.593,0,0,1,4.929,1.816A7.691,7.691,0,0,1,90,20.881V70.553a7.746,7.746,0,0,1-1.979,4.985,7.4,7.4,0,0,1-4.713,2.385,25.615,25.615,0,0,1-2.8.074q-11,0-22.006,0,0,1.5,0,3c3.47.011,6.94-.012,10.408.011A1.529,1.529,0,0,1,70.49,82.6c.016,1.944.019,3.892,0,5.836A1.554,1.554,0,0,1,69.1,90H20.944a1.7,1.7,0,0,1-1.065-.533,2.558,2.558,0,0,1-.383-1.754c.028-1.761-.033-3.526.028-5.286a1.5,1.5,0,0,1,1.57-1.417c3.466-.023,6.935,0,10.4-.009q0-1.5,0-3-11.62,0-23.238,0a8.678,8.678,0,0,1-4.069-.8A7.617,7.617,0,0,1,0,70.557V20.907a7.555,7.555,0,0,1,7.74-7.4c20.408-.019,40.816.014,61.225-.018.9-1.308,1.789-2.617,2.723-3.9a7.073,7.073,0,0,1-1.065-2.468,6,6,0,0,1,2.1-5.759A6.192,6.192,0,0,1,76.395,0m-.568,3.083a2.991,2.991,0,1,0,3.66,3.073,3.026,3.026,0,0,0-3.66-3.073M4.781,17.436A4.6,4.6,0,0,0,3,21.263Q3,42.132,3,63q40.5,0,81,0h3q0-20.859,0-41.72a4.663,4.663,0,0,0-1.311-3.437A4.769,4.769,0,0,0,82.063,16.5c-1.355.016-2.711,0-4.064.007q0,20.577,0,41.154a2.723,2.723,0,0,1-.343,1.774,1.666,1.666,0,0,1-1.38.571q-31.285,0-62.569,0a1.661,1.661,0,0,1-1.375-.578A2.142,2.142,0,0,1,12,58.013c.007-2.76,0-5.518,0-8.278a1.674,1.674,0,0,1,.527-1.357,2.862,2.862,0,0,1,1.719-.438,8.94,8.94,0,0,0,7.344-5.085,3.273,3.273,0,0,1,1-1.477q4.72-3.267,9.441-6.534A1.572,1.572,0,0,1,33.9,34.8c3.166,2.176,6.318,4.375,9.476,6.56.78.468.891,1.443,1.361,2.152a9.6,9.6,0,0,0,1.921,2.273,8.931,8.931,0,0,0,11.181.422,9.031,9.031,0,0,0,3.3-9.733,2.129,2.129,0,0,1,.5-2.1q6.513-8.931,13.01-17.875c-1.378,0-2.754,0-4.133,0q-6.6,9.471-13.206,18.947A5.978,5.978,0,1,1,46.89,36.942L36.9,30.027a6.094,6.094,0,0,1-3.5,1.443,5.99,5.99,0,0,1-4.289-1.443q-5,3.451-10,6.917a6.172,6.172,0,0,1-.188,4.685,6.068,6.068,0,1,1-5.908-8.608A6.242,6.242,0,0,1,17.4,34.474q5-3.457,9.995-6.917a5.978,5.978,0,1,1,11.222,0Q43.6,31.018,48.6,34.472a5.978,5.978,0,0,1,6.372-.926Q60.911,25.024,66.85,16.5q-29.555-.005-59.108,0a4.66,4.66,0,0,0-2.96.933M72,25.226q-3.942,5.432-7.894,10.856A11.866,11.866,0,0,1,54,50.892c-.005,2.037,0,4.073,0,6.108q9,.005,18.007,0c1,0,2,.011,2.994-.007q-.005-17.938,0-35.872c-1.005,1.362-1.99,2.74-2.994,4.1M32.249,22.6a2.991,2.991,0,1,0,3.737,2.7,3.007,3.007,0,0,0-3.737-2.7M12.867,36.077a2.991,2.991,0,1,0,3.619,2.754,3,3,0,0,0-3.619-2.754m39.02-.005a2.991,2.991,0,1,0,3.6,2.762,3.01,3.01,0,0,0-3.6-2.762M24.732,43.543c-.341.206-.454.61-.633.94a12.04,12.04,0,0,1-9.1,6.4Q15,53.942,15,57q8.248,0,16.494,0,0-9.068,0-18.134c-2.257,1.556-4.505,3.122-6.764,4.676M34.5,57Q42.752,57,51,57q0-3.059,0-6.117a12.049,12.049,0,0,1-9.121-6.453c-.163-.3-.264-.657-.564-.847q-3.4-2.36-6.808-4.718,0,9.068,0,18.137M3,66c0,1.5-.016,3,.005,4.5A4.522,4.522,0,0,0,7.734,75q37.2-.008,74.391-.012a4.614,4.614,0,0,0,2.95-.814,4.527,4.527,0,0,0,1.918-3.67c.019-1.5.007-3,0-4.5-1,0-1.992,0-2.988,0Q43.5,66,3,66M34.5,81q9,0,18.009,0Q54,81,55.5,81c0-1,.016-2.006-.012-3.006-.993.007-1.985,0-2.978.005q-9-.005-18,0c-.009,1,0,2-.005,3m-12,3c0,1,0,2,0,3q21,0,42.012,0c.995,0,1.99,0,2.985,0,0-1,0-2,0-3Q66,84,64.5,84,43.5,84,22.5,84Z"/>
      </g>
      <g id="_00bcd4ff" data-name="#00bcd4ff" transform="translate(10.505 2.994)">
        <path id="Path_178698" data-name="Path 178698" d="M420.445,17.12A2.99,2.99,0,1,1,418.2,19.38,3.009,3.009,0,0,1,420.445,17.12Z" transform="translate(-355.124 -17.03)" fill="#f9b131"/>
        <path id="Path_178699" data-name="Path 178699" d="M172.946,128.086a2.99,2.99,0,1,1-2.241,2.883A3.011,3.011,0,0,1,172.946,128.086Z" transform="translate(-151.203 -108.476)" fill="#f9b131"/>
        <path id="Path_178700" data-name="Path 178700" d="M62.125,204.872a2.991,2.991,0,1,1-2.352,3.122A3.009,3.009,0,0,1,62.125,204.872Z" transform="translate(-59.763 -171.789)" fill="#f9b131"/>
        <path id="Path_178701" data-name="Path 178701" d="M284,204.867a2.991,2.991,0,1,1-2.355,3.3A3,3,0,0,1,284,204.867Z" transform="translate(-242.616 -171.789)" fill="#f9b131"/>
      </g>
      <g id="_cfd8dcff" data-name="#cfd8dcff" transform="translate(2.998 16.495)">
        <path id="Path_178702" data-name="Path 178702" d="M18.841,94.78a4.66,4.66,0,0,1,2.96-.933q29.555,0,59.108,0-5.938,8.522-11.879,17.042a5.978,5.978,0,0,0-6.372.926q-4.991-3.459-9.986-6.913a5.978,5.978,0,1,0-11.222,0q-5,3.462-9.995,6.917a6.242,6.242,0,0,0-4.382-1.454,6.069,6.069,0,1,0,5.908,8.608,6.172,6.172,0,0,0,.188-4.685q5-3.462,10-6.917a5.99,5.99,0,0,0,4.289,1.443,6.094,6.094,0,0,0,3.5-1.443q5,3.457,9.991,6.915a5.977,5.977,0,1,0,10.415-1.494q6.6-9.474,13.206-18.947c1.378,0,2.754,0,4.133,0q-6.5,8.941-13.01,17.875a2.129,2.129,0,0,0-.5,2.1,9.032,9.032,0,0,1-3.3,9.733,8.931,8.931,0,0,1-11.181-.422,9.605,9.605,0,0,1-1.921-2.273c-.469-.708-.58-1.684-1.361-2.152-3.159-2.185-6.311-4.384-9.476-6.56a1.572,1.572,0,0,0-1.863.042q-4.722,3.262-9.441,6.534a3.273,3.273,0,0,0-1,1.477,8.94,8.94,0,0,1-7.344,5.085,2.862,2.862,0,0,0-1.719.438,1.674,1.674,0,0,0-.527,1.357c0,2.76,0,5.518,0,8.278a2.142,2.142,0,0,0,.336,1.41,1.661,1.661,0,0,0,1.375.578q31.285,0,62.569,0a1.666,1.666,0,0,0,1.38-.571A2.723,2.723,0,0,0,92.061,135q-.008-20.577,0-41.154c1.354-.005,2.709.009,4.064-.007a6.073,6.073,0,0,1,1.934,4.591q.021,20.957.007,41.913-40.5,0-81,0,0-20.867,0-41.737A4.6,4.6,0,0,1,18.841,94.78Z" transform="translate(-17.058 -93.84)" fill="#b7fcff"/>
      </g>
      <g id="_607d8bff" data-name="#607d8bff" transform="translate(82.063 16.492)">
        <path id="Path_178703" data-name="Path 178703" d="M466.85,93.822a4.769,4.769,0,0,1,3.625,1.348,4.663,4.663,0,0,1,1.311,3.437q0,20.859,0,41.72h-3q-.01-20.957-.007-41.913A6.073,6.073,0,0,0,466.85,93.822Z" transform="translate(-466.85 -93.818)" fill="#42e0e6"/>
      </g>
      <g id="_2e7d32ff" data-name="#2e7d32ff" transform="translate(71.999 21.122)">
        <path id="Path_178704" data-name="Path 178704" d="M409.6,124.264c1-1.364,1.988-2.742,2.994-4.1q.01,17.935,0,35.872c-1,.018-2,.007-2.994.007Q409.581,140.152,409.6,124.264Z" transform="translate(-409.593 -120.16)" fill="#cc870c"/>
      </g>
      <g id="_4caf50ff" data-name="#4caf50ff" transform="translate(53.997 25.226)">
        <path id="Path_178705" data-name="Path 178705" d="M317.294,154.366q3.952-5.424,7.894-10.856,0,15.886,0,31.774-9,0-18.007,0c0-2.036,0-4.071,0-6.108a11.866,11.866,0,0,0,10.107-14.81Z" transform="translate(-307.184 -143.51)" fill="#f9b131"/>
      </g>
      <g id="_e91e63ff" data-name="#e91e63ff" transform="translate(15.001 38.867)">
        <path id="Path_178706" data-name="Path 178706" d="M95.07,225.786c2.259-1.554,4.507-3.12,6.764-4.676q0,9.065,0,18.134-8.248.005-16.494,0-.005-3.061,0-6.119a12.04,12.04,0,0,0,9.1-6.4C94.616,226.4,94.729,225.991,95.07,225.786Z" transform="translate(-85.338 -221.11)" fill="#f9c15f"/>
      </g>
      <g id="_ffeb3aff" data-name="#ffeb3aff" transform="translate(34.502 38.865)">
        <path id="Path_178707" data-name="Path 178707" d="M196.28,239.237q-.005-9.068,0-18.137,3.4,2.357,6.808,4.718c.3.19.4.55.564.847a12.05,12.05,0,0,0,9.121,6.453q0,3.059,0,6.117Q204.526,239.241,196.28,239.237Z" transform="translate(-196.278 -221.1)" fill="#f6f6eb"/>
      </g>
      <g id="_3f51b5ff" data-name="#3f51b5ff" transform="translate(2.997 66.001)">
        <path id="Path_178708" data-name="Path 178708" d="M17.053,375.47q40.5,0,81.005,0c-.053,1.795.095,3.6-.1,5.388a7.429,7.429,0,0,1-1.786,3.595q-37.2.045-74.391.012a4.522,4.522,0,0,1-4.727-4.495C17.037,378.471,17.053,376.969,17.053,375.47Z" transform="translate(-17.048 -375.47)" fill="#d2e1f1"/>
        <path id="Path_178709" data-name="Path 178709" d="M196.28,446.724c0-1,0-2,.005-3q9,0,18,0c-.014,1-.016,2,.005,3Q205.284,446.728,196.28,446.724Z" transform="translate(-164.774 -431.723)" fill="#d2e1f1"/>
        <path id="Path_178710" data-name="Path 178710" d="M128,477.874q21,0,42,0c-.005,1-.009,2,.009,3q-21.007.005-42.012,0C128,479.872,128,478.874,128,477.874Z" transform="translate(-108.495 -459.872)" fill="#d2e1f1"/>
      </g>
      <g id="_283593ff" data-name="#283593ff" transform="translate(52.495 66)">
        <path id="Path_178711" data-name="Path 178711" d="M469.083,375.47c1,0,1.992,0,2.988,0,0,1.5.016,3,0,4.5a4.527,4.527,0,0,1-1.918,3.67,4.614,4.614,0,0,1-2.95.814,7.428,7.428,0,0,0,1.786-3.595C469.178,379.068,469.03,377.264,469.083,375.47Z" transform="translate(-437.57 -375.467)" fill="#727997"/>
        <path id="Path_178712" data-name="Path 178712" d="M298.65,443.705c.993-.005,1.985,0,2.978-.005.028,1,.009,2,.012,3.006q-1.492,0-2.985,0C298.635,445.706,298.636,444.706,298.65,443.705Z" transform="translate(-298.64 -431.706)" fill="#727997"/>
        <path id="Path_178713" data-name="Path 178713" d="M366.94,477.875q1.5,0,2.994,0c0,1,0,2,0,3-.995,0-1.99,0-2.985,0C366.931,479.873,366.935,478.873,366.94,477.875Z" transform="translate(-354.93 -459.872)" fill="#727997"/>
      </g>
    </g>
  </g>
</svg>
