<svg id="t4-i3" xmlns="http://www.w3.org/2000/svg" xmlns:xlink="http://www.w3.org/1999/xlink" width="820" height="400" viewBox="0 0 820 400">
  <defs>
    <clipPath id="clip-path">
      <rect id="Rectangle_38147" data-name="Rectangle 38147" width="820" height="400" fill="none"/>
    </clipPath>
  </defs>
  <g id="Group_118177" data-name="Group 118177">
    <g id="Group_118176" data-name="Group 118176" clip-path="url(#clip-path)">
      <path id="Path_182204" data-name="Path 182204" d="M20.3,0H799.7A20.3,20.3,0,0,1,820,20.3V379.7A20.3,20.3,0,0,1,799.7,400H20.3A20.3,20.3,0,0,1,0,379.7V20.3A20.3,20.3,0,0,1,20.3,0" fill="#f6f6eb" opacity="0.4"/>
      <path id="Path_182205" data-name="Path 182205" d="M778.88,380.922H586.445a19.133,19.133,0,0,1-19.133-19.133V38.211a19.134,19.134,0,0,1,19.133-19.134H778.88a19.134,19.134,0,0,1,19.133,19.134V361.789a19.133,19.133,0,0,1-19.133,19.133" fill="#e8feff"/>
      <path id="Rectangle_38143" data-name="Rectangle 38143" d="M19.133-2H211.568A21.117,21.117,0,0,1,232.7,19.133V342.711a21.118,21.118,0,0,1-21.134,21.134H19.133A21.117,21.117,0,0,1-2,342.712V19.133A21.117,21.117,0,0,1,19.133-2ZM211.567,359.845A17.153,17.153,0,0,0,228.7,342.711V19.133A17.152,17.152,0,0,0,211.568,2H19.133A17.152,17.152,0,0,0,2,19.133V342.712a17.152,17.152,0,0,0,17.133,17.133Z" transform="translate(567.312 19.077)" fill="#0cc0c7"/>
      <path id="Path_182206" data-name="Path 182206" d="M233.555,380.922H41.12a19.133,19.133,0,0,1-19.133-19.133V38.211A19.134,19.134,0,0,1,41.12,19.077H233.555a19.134,19.134,0,0,1,19.133,19.134V361.789a19.133,19.133,0,0,1-19.133,19.133" fill="#e8feff"/>
      <path id="Rectangle_38144" data-name="Rectangle 38144" d="M19.133-2H211.568A21.117,21.117,0,0,1,232.7,19.133V342.712a21.117,21.117,0,0,1-21.133,21.133H19.133A21.117,21.117,0,0,1-2,342.712V19.133A21.117,21.117,0,0,1,19.133-2ZM211.568,359.845A17.152,17.152,0,0,0,228.7,342.712V19.133A17.152,17.152,0,0,0,211.568,2H19.133A17.152,17.152,0,0,0,2,19.133V342.712a17.152,17.152,0,0,0,17.133,17.133Z" transform="translate(21.987 19.077)" fill="#0cc0c7"/>
      <path id="Path_182207" data-name="Path 182207" d="M215.3,218.265H56.924a15.651,15.651,0,0,1-15.651-15.651v-100.4A15.652,15.652,0,0,1,56.924,86.565H215.3a15.652,15.652,0,0,1,15.651,15.652v100.4A15.651,15.651,0,0,1,215.3,218.265" fill="#ffe1ad"/>
      <path id="Rectangle_38145" data-name="Rectangle 38145" d="M15.651-1.5H174.024a17.138,17.138,0,0,1,17.151,17.151v100.4A17.139,17.139,0,0,1,174.023,133.2H15.652A17.139,17.139,0,0,1-1.5,116.048V15.651A17.138,17.138,0,0,1,15.651-1.5ZM174.023,130.2a14.168,14.168,0,0,0,14.152-14.152V15.651A14.167,14.167,0,0,0,174.024,1.5H15.651A14.167,14.167,0,0,0,1.5,15.651v100.4A14.168,14.168,0,0,0,15.652,130.2Z" transform="translate(41.273 86.565)" fill="#f9b131"/>
      <path id="Path_182208" data-name="Path 182208" d="M215.3,366.7H56.924a15.651,15.651,0,0,1-15.651-15.651v-100.4A15.652,15.652,0,0,1,56.924,235H215.3a15.652,15.652,0,0,1,15.651,15.652v100.4A15.651,15.651,0,0,1,215.3,366.7" fill="#c4fdff"/>
      <path id="Rectangle_38146" data-name="Rectangle 38146" d="M15.651-1.5H174.024a17.138,17.138,0,0,1,17.151,17.151v100.4A17.139,17.139,0,0,1,174.023,133.2H15.651A17.138,17.138,0,0,1-1.5,116.049V15.651A17.138,17.138,0,0,1,15.651-1.5ZM174.023,130.2a14.168,14.168,0,0,0,14.152-14.152V15.651A14.167,14.167,0,0,0,174.024,1.5H15.651A14.167,14.167,0,0,0,1.5,15.651v100.4A14.167,14.167,0,0,0,15.651,130.2Z" transform="translate(41.273 234.997)" fill="#42e0e6"/>
    </g>
  </g>
  <path id="Path_182219" data-name="Path 182219" d="M10.09-4.535a1.69,1.69,0,0,0-.639-1.406A7.938,7.938,0,0,0,7.207-6.984,21.53,21.53,0,0,1,4.582-8.027Q1.266-9.656,1.266-12.5a4.014,4.014,0,0,1,.826-2.5A5.344,5.344,0,0,1,4.43-16.693a9.1,9.1,0,0,1,3.4-.6,7.958,7.958,0,0,1,3.3.656,5.223,5.223,0,0,1,2.268,1.869A4.881,4.881,0,0,1,14.2-12H10.1a2.063,2.063,0,0,0-.639-1.617,2.489,2.489,0,0,0-1.729-.574,2.807,2.807,0,0,0-1.74.486,1.492,1.492,0,0,0-.639,1.236,1.5,1.5,0,0,0,.7,1.189,8.867,8.867,0,0,0,2.473,1.1,15.147,15.147,0,0,1,2.906,1.225A4.884,4.884,0,0,1,14.2-4.559a4.166,4.166,0,0,1-1.687,3.516A7.506,7.506,0,0,1,7.887.234,9.184,9.184,0,0,1,4.131-.51,5.663,5.663,0,0,1,1.6-2.549,5.313,5.313,0,0,1,.75-5.531H4.875A2.617,2.617,0,0,0,5.584-3.51a3.351,3.351,0,0,0,2.3.65A2.647,2.647,0,0,0,9.5-3.3,1.45,1.45,0,0,0,10.09-4.535ZM23.924-1.371A4.072,4.072,0,0,1,20.537.234,3.993,3.993,0,0,1,17.379-.979a5.1,5.1,0,0,1-1.072-3.486V-12.68h3.949v8.238a1.419,1.419,0,0,0,1.582,1.629,2.064,2.064,0,0,0,1.934-.973V-12.68h3.973V0h-3.7ZM35.841-6.457a7.484,7.484,0,0,1,.738-3.381A5.28,5.28,0,0,1,38.7-12.117a6.388,6.388,0,0,1,3.246-.8,5.83,5.83,0,0,1,4.488,1.764,6.768,6.768,0,0,1,1.641,4.8v.141a6.566,6.566,0,0,1-1.646,4.705A5.846,5.846,0,0,1,41.969.234a5.912,5.912,0,0,1-4.348-1.623,6.348,6.348,0,0,1-1.77-4.4Zm3.949.246a4.718,4.718,0,0,0,.551,2.578,1.835,1.835,0,0,0,1.629.82q2.109,0,2.156-3.246v-.4q0-3.41-2.18-3.41-1.98,0-2.145,2.941ZM57.7-9.105,56.4-9.2A2.336,2.336,0,0,0,54.01-8.027V0H50.06V-12.68h3.7l.129,1.629a3.058,3.058,0,0,1,2.777-1.863,3.851,3.851,0,0,1,1.1.141ZM63.531,0H59.57V-12.68h3.961Zm-4.2-15.949a1.763,1.763,0,0,1,.609-1.383,2.3,2.3,0,0,1,1.582-.539,2.3,2.3,0,0,1,1.582.539,1.763,1.763,0,0,1,.609,1.383,1.763,1.763,0,0,1-.609,1.383,2.3,2.3,0,0,1-1.582.539,2.3,2.3,0,0,1-1.582-.539A1.763,1.763,0,0,1,59.336-15.949Zm6.4,9.516a8.561,8.561,0,0,1,.633-3.4,5.094,5.094,0,0,1,1.816-2.279,4.788,4.788,0,0,1,2.754-.8,3.807,3.807,0,0,1,3.094,1.336l.141-1.1h3.586V-.48a5.346,5.346,0,0,1-.779,2.912,5,5,0,0,1-2.256,1.9,8.292,8.292,0,0,1-3.422.662,7.153,7.153,0,0,1-2.7-.527,4.876,4.876,0,0,1-2-1.371L68.259.773a3.621,3.621,0,0,0,2.906,1.3q2.625,0,2.625-2.7v-.4A3.708,3.708,0,0,1,70.919.234a4.583,4.583,0,0,1-3.75-1.775,7.356,7.356,0,0,1-1.43-4.752Zm3.961.246a4.511,4.511,0,0,0,.586,2.467,1.849,1.849,0,0,0,1.641.908,2.1,2.1,0,0,0,1.863-.855V-9a2.045,2.045,0,0,0-1.84-.867,1.861,1.861,0,0,0-1.652.943A5.144,5.144,0,0,0,69.7-6.187ZM86.358.234a6.518,6.518,0,0,1-4.723-1.74,6.009,6.009,0,0,1-1.8-4.529v-.328A7.787,7.787,0,0,1,80.551-9.8a5.274,5.274,0,0,1,2.1-2.3,6.35,6.35,0,0,1,3.281-.814,5.489,5.489,0,0,1,4.219,1.658A6.516,6.516,0,0,1,91.7-6.633V-5.1H83.85a2.846,2.846,0,0,0,.926,1.676,2.755,2.755,0,0,0,1.852.609,3.549,3.549,0,0,0,2.93-1.312l1.8,2.133A5.045,5.045,0,0,1,89.27-.369,7.069,7.069,0,0,1,86.358.234Zm-.445-10.1q-1.734,0-2.062,2.3h3.984v-.3a1.956,1.956,0,0,0-.48-1.471A1.912,1.912,0,0,0,85.913-9.867Zm11.22-2.812.129,1.488a4.3,4.3,0,0,1,3.621-1.723,3.618,3.618,0,0,1,2.959,1.184,5.635,5.635,0,0,1,1.014,3.563V0h-3.961V-8a2.14,2.14,0,0,0-.387-1.412A1.789,1.789,0,0,0,99.1-9.867a1.883,1.883,0,0,0-1.723.914V0H93.429V-12.68Z" transform="translate(84.203 59.836)" fill="#12263f"/>
  <path id="Path_182220" data-name="Path 182220" d="M3.916-5.273V0H1.445V-14.219H6.885a5.5,5.5,0,0,1,3.784,1.242,4.175,4.175,0,0,1,1.4,3.285A4.036,4.036,0,0,1,10.7-6.437,5.766,5.766,0,0,1,6.855-5.273Zm0-1.992H6.885A2.924,2.924,0,0,0,8.9-7.886,2.279,2.279,0,0,0,9.59-9.678a2.459,2.459,0,0,0-.7-1.841,2.71,2.71,0,0,0-1.934-.708H3.916ZM20.58-1.035A3.68,3.68,0,0,1,17.612.2a3.28,3.28,0,0,1-2.6-1.006,4.279,4.279,0,0,1-.884-2.91v-6.846H16.5V-3.75q0,2.012,1.67,2.012A2.345,2.345,0,0,0,20.5-2.979v-7.588h2.373V0H20.639ZM19.223-15h2.705l-2.705,2.959-1.9,0ZM34.765-5.176a6.347,6.347,0,0,1-1.1,3.916A3.579,3.579,0,0,1,30.644.2a3.447,3.447,0,0,1-2.891-1.338L27.636,0H25.487V-15H27.86v5.449a3.435,3.435,0,0,1,2.764-1.211,3.62,3.62,0,0,1,3.037,1.436,6.452,6.452,0,0,1,1.1,4.014Zm-2.373-.205a4.486,4.486,0,0,0-.605-2.578,2.016,2.016,0,0,0-1.758-.859A2.2,2.2,0,0,0,27.86-7.471v4.355a2.226,2.226,0,0,0,2.188,1.377,2,2,0,0,0,1.719-.83,4.347,4.347,0,0,0,.625-2.51ZM39.476,0H37.1V-15h2.373Zm5.287,0H42.391V-10.566h2.373Zm-2.52-13.311a1.259,1.259,0,0,1,.347-.908,1.309,1.309,0,0,1,.991-.361,1.326,1.326,0,0,1,1,.361,1.25,1.25,0,0,1,.352.908,1.221,1.221,0,0,1-.352.894,1.336,1.336,0,0,1-1,.356,1.32,1.32,0,0,1-.991-.356A1.23,1.23,0,0,1,42.244-13.311ZM51.868-1.7a2.146,2.146,0,0,0,1.475-.518A1.768,1.768,0,0,0,53.967-3.5H56.2a3.486,3.486,0,0,1-.615,1.841A4.035,4.035,0,0,1,54.026-.3,4.656,4.656,0,0,1,51.9.2,4.505,4.505,0,0,1,48.381-1.24a5.694,5.694,0,0,1-1.3-3.965v-.244a5.6,5.6,0,0,1,1.289-3.862,4.464,4.464,0,0,1,3.516-1.45,4.341,4.341,0,0,1,3.071,1.1A3.935,3.935,0,0,1,56.2-6.777H53.967a2.173,2.173,0,0,0-.62-1.494,2,2,0,0,0-1.479-.586,2.088,2.088,0,0,0-1.777.835,4.261,4.261,0,0,0-.635,2.534v.381a4.331,4.331,0,0,0,.62,2.563A2.086,2.086,0,0,0,51.868-1.7ZM64.489,0a3.662,3.662,0,0,1-.273-.986A3.694,3.694,0,0,1,61.442.2a3.728,3.728,0,0,1-2.6-.908,2.906,2.906,0,0,1-1.006-2.246,3,3,0,0,1,1.255-2.593,6.081,6.081,0,0,1,3.589-.9h1.455v-.693a1.851,1.851,0,0,0-.459-1.313,1.819,1.819,0,0,0-1.4-.493,2.09,2.09,0,0,0-1.328.405,1.254,1.254,0,0,0-.518,1.03H58.063a2.634,2.634,0,0,1,.576-1.626,3.838,3.838,0,0,1,1.567-1.187,5.506,5.506,0,0,1,2.212-.43,4.434,4.434,0,0,1,2.959.933,3.326,3.326,0,0,1,1.133,2.622v4.766a5.4,5.4,0,0,0,.4,2.275V0ZM61.882-1.709A2.7,2.7,0,0,0,63.2-2.051a2.284,2.284,0,0,0,.933-.918V-4.961H62.858a3.5,3.5,0,0,0-1.982.459,1.487,1.487,0,0,0-.664,1.3,1.387,1.387,0,0,0,.454,1.089A1.758,1.758,0,0,0,61.882-1.709Z" transform="translate(102.08 158.261)" fill="#12263f"/>
  <path id="Path_182221" data-name="Path 182221" d="M3.916-5.273V0H1.445V-14.219H6.885a5.5,5.5,0,0,1,3.784,1.242,4.175,4.175,0,0,1,1.4,3.285A4.036,4.036,0,0,1,10.7-6.437,5.766,5.766,0,0,1,6.855-5.273Zm0-1.992H6.885A2.924,2.924,0,0,0,8.9-7.886,2.279,2.279,0,0,0,9.59-9.678a2.459,2.459,0,0,0-.7-1.841,2.71,2.71,0,0,0-1.934-.708H3.916ZM19.711-8.4a5.872,5.872,0,0,0-.967-.078,2.177,2.177,0,0,0-2.2,1.25V0H14.174V-10.566H16.44L16.5-9.385a2.674,2.674,0,0,1,2.383-1.377,2.222,2.222,0,0,1,.84.137Zm4.2,8.4H21.542V-10.566h2.373ZM21.4-13.311a1.259,1.259,0,0,1,.347-.908,1.309,1.309,0,0,1,.991-.361,1.326,1.326,0,0,1,1,.361,1.25,1.25,0,0,1,.352.908,1.221,1.221,0,0,1-.352.894,1.336,1.336,0,0,1-1,.356,1.32,1.32,0,0,1-.991-.356A1.23,1.23,0,0,1,21.4-13.311ZM30.4-3.008l2.236-7.559h2.451L31.429,0H29.368L25.677-10.566h2.461ZM42.777,0A3.662,3.662,0,0,1,42.5-.986,3.694,3.694,0,0,1,39.73.2a3.728,3.728,0,0,1-2.6-.908,2.906,2.906,0,0,1-1.006-2.246,3,3,0,0,1,1.255-2.593,6.081,6.081,0,0,1,3.589-.9h1.455v-.693a1.851,1.851,0,0,0-.459-1.313,1.819,1.819,0,0,0-1.4-.493,2.09,2.09,0,0,0-1.328.405,1.254,1.254,0,0,0-.518,1.03H36.351a2.634,2.634,0,0,1,.576-1.626A3.838,3.838,0,0,1,38.5-10.332a5.506,5.506,0,0,1,2.212-.43,4.434,4.434,0,0,1,2.959.933A3.326,3.326,0,0,1,44.8-7.207v4.766a5.4,5.4,0,0,0,.4,2.275V0ZM40.17-1.709a2.7,2.7,0,0,0,1.323-.342,2.284,2.284,0,0,0,.933-.918V-4.961H41.146a3.5,3.5,0,0,0-1.982.459A1.487,1.487,0,0,0,38.5-3.2a1.387,1.387,0,0,0,.454,1.089A1.758,1.758,0,0,0,40.17-1.709Zm6.85-3.652a6.282,6.282,0,0,1,1.133-3.921,3.63,3.63,0,0,1,3.037-1.479A3.449,3.449,0,0,1,53.9-9.59V-15h2.373V0H54.129l-.117-1.094A3.5,3.5,0,0,1,51.17.2a3.609,3.609,0,0,1-3-1.494A6.512,6.512,0,0,1,47.02-5.361Zm2.373.205a4.4,4.4,0,0,0,.62,2.515,2.012,2.012,0,0,0,1.763.9,2.241,2.241,0,0,0,2.129-1.3V-7.549A2.207,2.207,0,0,0,51.8-8.818a2.027,2.027,0,0,0-1.777.913A4.9,4.9,0,0,0,49.393-5.156ZM65.247,0a3.662,3.662,0,0,1-.273-.986A3.694,3.694,0,0,1,62.2.2a3.728,3.728,0,0,1-2.6-.908A2.906,2.906,0,0,1,58.6-2.959a3,3,0,0,1,1.255-2.593,6.081,6.081,0,0,1,3.589-.9H64.9v-.693a1.851,1.851,0,0,0-.459-1.313,1.819,1.819,0,0,0-1.4-.493,2.09,2.09,0,0,0-1.328.405,1.254,1.254,0,0,0-.518,1.03H58.821A2.634,2.634,0,0,1,59.4-9.146a3.838,3.838,0,0,1,1.567-1.187,5.506,5.506,0,0,1,2.212-.43,4.434,4.434,0,0,1,2.959.933,3.326,3.326,0,0,1,1.133,2.622v4.766a5.4,5.4,0,0,0,.4,2.275V0ZM62.639-1.709a2.7,2.7,0,0,0,1.323-.342,2.284,2.284,0,0,0,.933-.918V-4.961H63.616a3.5,3.5,0,0,0-1.982.459,1.487,1.487,0,0,0-.664,1.3,1.387,1.387,0,0,0,.454,1.089A1.758,1.758,0,0,0,62.639-1.709Z" transform="translate(101.62 306.701)" fill="#12263f"/>
  <g id="Group_118179" data-name="Group 118179">
    <g id="Group_118178" data-name="Group 118178" clip-path="url(#clip-path)">
      <path id="Path_182209" data-name="Path 182209" d="M768.764,131.252H596.56a8.736,8.736,0,0,1-8.736-8.736V95.3a8.736,8.736,0,0,1,8.736-8.736h172.2A8.736,8.736,0,0,1,777.5,95.3v27.215a8.736,8.736,0,0,1-8.736,8.736" fill="#ffe1ad"/>
      <path id="Rectangle_38148" data-name="Rectangle 38148" d="M8.736-1.5h172.2A10.248,10.248,0,0,1,191.176,8.736V35.951A10.248,10.248,0,0,1,180.94,46.187H8.736A10.248,10.248,0,0,1-1.5,35.951V8.736A10.248,10.248,0,0,1,8.736-1.5Zm172.2,44.687a7.244,7.244,0,0,0,7.236-7.236V8.736A7.244,7.244,0,0,0,180.94,1.5H8.736A7.244,7.244,0,0,0,1.5,8.736V35.951a7.244,7.244,0,0,0,7.236,7.236Z" transform="translate(587.824 86.565)" fill="#f9b131"/>
      <path id="Path_182210" data-name="Path 182210" d="M768.764,190.114H596.56a8.736,8.736,0,0,1-8.736-8.736V154.163a8.736,8.736,0,0,1,8.736-8.736h172.2a8.736,8.736,0,0,1,8.736,8.736v27.215a8.736,8.736,0,0,1-8.736,8.736" fill="#c4fdff"/>
      <path id="Rectangle_38149" data-name="Rectangle 38149" d="M8.736-1.5h172.2A10.248,10.248,0,0,1,191.176,8.736V35.951A10.248,10.248,0,0,1,180.94,46.187H8.736A10.248,10.248,0,0,1-1.5,35.951V8.736A10.248,10.248,0,0,1,8.736-1.5Zm172.2,44.687a7.244,7.244,0,0,0,7.236-7.236V8.736A7.244,7.244,0,0,0,180.94,1.5H8.736A7.244,7.244,0,0,0,1.5,8.736V35.951a7.244,7.244,0,0,0,7.236,7.236Z" transform="translate(587.824 145.427)" fill="#42e0e6"/>
      <path id="Path_182211" data-name="Path 182211" d="M768.764,248.975H596.56a8.736,8.736,0,0,1-8.736-8.736V213.024a8.736,8.736,0,0,1,8.736-8.736h172.2a8.736,8.736,0,0,1,8.736,8.736v27.215a8.736,8.736,0,0,1-8.736,8.736" fill="#ffe1ad"/>
      <path id="Rectangle_38150" data-name="Rectangle 38150" d="M8.736-1.5h172.2A10.248,10.248,0,0,1,191.176,8.736V35.951A10.248,10.248,0,0,1,180.94,46.187H8.736A10.248,10.248,0,0,1-1.5,35.951V8.736A10.248,10.248,0,0,1,8.736-1.5Zm172.2,44.687a7.244,7.244,0,0,0,7.236-7.236V8.736A7.244,7.244,0,0,0,180.94,1.5H8.736A7.244,7.244,0,0,0,1.5,8.736V35.951a7.244,7.244,0,0,0,7.236,7.236Z" transform="translate(587.824 204.288)" fill="#f9b131"/>
      <path id="Path_182212" data-name="Path 182212" d="M768.764,307.836H596.56a8.736,8.736,0,0,1-8.736-8.736V271.885a8.736,8.736,0,0,1,8.736-8.736h172.2a8.736,8.736,0,0,1,8.736,8.736V299.1a8.736,8.736,0,0,1-8.736,8.736" fill="#c4fdff"/>
      <path id="Rectangle_38151" data-name="Rectangle 38151" d="M8.736-1.5h172.2A10.248,10.248,0,0,1,191.176,8.736V35.951A10.248,10.248,0,0,1,180.94,46.187H8.736A10.248,10.248,0,0,1-1.5,35.951V8.736A10.248,10.248,0,0,1,8.736-1.5Zm172.2,44.687a7.244,7.244,0,0,0,7.236-7.236V8.736A7.244,7.244,0,0,0,180.94,1.5H8.736A7.244,7.244,0,0,0,1.5,8.736V35.951a7.244,7.244,0,0,0,7.236,7.236Z" transform="translate(587.824 263.149)" fill="#42e0e6"/>
      <path id="Path_182213" data-name="Path 182213" d="M768.764,366.7H596.56a8.736,8.736,0,0,1-8.736-8.736V330.746a8.736,8.736,0,0,1,8.736-8.736h172.2a8.736,8.736,0,0,1,8.736,8.736v27.215a8.736,8.736,0,0,1-8.736,8.736" fill="#ffe1ad"/>
      <path id="Rectangle_38152" data-name="Rectangle 38152" d="M8.736-1.5h172.2A10.248,10.248,0,0,1,191.176,8.736V35.951A10.248,10.248,0,0,1,180.94,46.187H8.736A10.248,10.248,0,0,1-1.5,35.951V8.736A10.248,10.248,0,0,1,8.736-1.5Zm172.2,44.687a7.244,7.244,0,0,0,7.236-7.236V8.736A7.244,7.244,0,0,0,180.94,1.5H8.736A7.244,7.244,0,0,0,1.5,8.736V35.951a7.244,7.244,0,0,0,7.236,7.236Z" transform="translate(587.824 322.01)" fill="#f9b131"/>
    </g>
  </g>
  <path id="Path_182228" data-name="Path 182228" d="M5.4-3.164h7.16V0H1.289V-17.062H5.4ZM21.5,0a4.459,4.459,0,0,1-.375-1.137A3.672,3.672,0,0,1,18.076.234,4.5,4.5,0,0,1,15.029-.85a3.45,3.45,0,0,1-1.254-2.725A3.546,3.546,0,0,1,15.3-6.691a7.761,7.761,0,0,1,4.43-1.055h1.219v-.671q0-1.755-1.512-1.755a1.236,1.236,0,0,0-1.406,1.39H14.08a3.54,3.54,0,0,1,1.564-2.985,6.575,6.575,0,0,1,3.99-1.147,5.764,5.764,0,0,1,3.832,1.184,4.115,4.115,0,0,1,1.441,3.246v5.613A5.748,5.748,0,0,0,25.447-.2V0ZM19.025-2.578a2.2,2.2,0,0,0,1.225-.316,1.983,1.983,0,0,0,.7-.715V-5.637H19.8q-2.062,0-2.062,1.852a1.131,1.131,0,0,0,.363.873A1.315,1.315,0,0,0,19.025-2.578ZM37.692,0H33.731V-12.68h3.961ZM33.5-15.949a1.763,1.763,0,0,1,.609-1.383,2.3,2.3,0,0,1,1.582-.539,2.3,2.3,0,0,1,1.582.539,1.763,1.763,0,0,1,.609,1.383,1.763,1.763,0,0,1-.609,1.383,2.3,2.3,0,0,1-1.582.539,2.3,2.3,0,0,1-1.582-.539A1.763,1.763,0,0,1,33.5-15.949Zm10.494,3.27.129,1.488a4.3,4.3,0,0,1,3.621-1.723A3.618,3.618,0,0,1,50.7-11.73a5.635,5.635,0,0,1,1.014,3.563V0H47.752V-8a2.14,2.14,0,0,0-.387-1.412,1.789,1.789,0,0,0-1.406-.451,1.883,1.883,0,0,0-1.723.914V0H40.288V-12.68ZM55.012,0V-9.937h-1.84V-12.68h1.84v-1.008a4.381,4.381,0,0,1,1.277-3.363,5.047,5.047,0,0,1,3.586-1.2A7.853,7.853,0,0,1,61.727-18l.012,2.906a3.608,3.608,0,0,0-.973-.105q-1.793,0-1.793,1.547v.973h2.473v2.742H58.973V0Zm7.54-6.457a7.484,7.484,0,0,1,.738-3.381,5.28,5.28,0,0,1,2.121-2.279,6.388,6.388,0,0,1,3.246-.8,5.83,5.83,0,0,1,4.488,1.764,6.768,6.768,0,0,1,1.641,4.8v.141A6.566,6.566,0,0,1,73.14-1.506,5.846,5.846,0,0,1,68.681.234a5.912,5.912,0,0,1-4.348-1.623,6.348,6.348,0,0,1-1.77-4.4Zm3.949.246a4.718,4.718,0,0,0,.551,2.578,1.835,1.835,0,0,0,1.629.82q2.109,0,2.156-3.246v-.4q0-3.41-2.18-3.41-1.98,0-2.145,2.941ZM84.413-9.105l-1.3-.094a2.336,2.336,0,0,0-2.391,1.172V0H76.772V-12.68h3.7l.129,1.629a3.058,3.058,0,0,1,2.777-1.863,3.851,3.851,0,0,1,1.1.141Zm5.4-3.574.129,1.488a4.36,4.36,0,0,1,3.621-1.723A3.21,3.21,0,0,1,96.805-11a4.22,4.22,0,0,1,3.727-1.91q3.855,0,3.961,4.664V0h-3.961V-8a2.417,2.417,0,0,0-.328-1.418,1.4,1.4,0,0,0-1.2-.445,1.871,1.871,0,0,0-1.746,1.043l.012.164V0H93.313V-7.98A2.541,2.541,0,0,0,93-9.422a1.393,1.393,0,0,0-1.207-.445,1.894,1.894,0,0,0-1.734,1.043V0H86.106V-12.68ZM114.107,0a4.459,4.459,0,0,1-.375-1.137A3.672,3.672,0,0,1,110.685.234,4.5,4.5,0,0,1,107.638-.85a3.45,3.45,0,0,1-1.254-2.725,3.546,3.546,0,0,1,1.523-3.117,7.761,7.761,0,0,1,4.43-1.055h1.219v-.671q0-1.755-1.512-1.755a1.236,1.236,0,0,0-1.406,1.39h-3.949a3.54,3.54,0,0,1,1.564-2.985,6.575,6.575,0,0,1,3.99-1.147,5.764,5.764,0,0,1,3.832,1.184,4.115,4.115,0,0,1,1.441,3.246v5.613A5.748,5.748,0,0,0,118.056-.2V0Zm-2.473-2.578a2.2,2.2,0,0,0,1.225-.316,1.983,1.983,0,0,0,.7-.715V-5.637h-1.148q-2.062,0-2.062,1.852a1.131,1.131,0,0,0,.363.873A1.315,1.315,0,0,0,111.634-2.578Zm13.67-.234a1.756,1.756,0,0,0,1.289-.451,1.654,1.654,0,0,0,.445-1.26h3.7A4.384,4.384,0,0,1,129.247-1.1,5.558,5.558,0,0,1,125.4.234,5.627,5.627,0,0,1,121.038-1.5a6.834,6.834,0,0,1-1.594-4.8v-.164a7.723,7.723,0,0,1,.709-3.393,5.162,5.162,0,0,1,2.045-2.262,6.1,6.1,0,0,1,3.164-.791,5.488,5.488,0,0,1,3.926,1.371,4.863,4.863,0,0,1,1.453,3.715h-3.7a2.168,2.168,0,0,0-.48-1.512,1.658,1.658,0,0,0-1.289-.527q-1.535,0-1.793,1.957a13.809,13.809,0,0,0-.082,1.711,5.424,5.424,0,0,0,.457,2.648A1.582,1.582,0,0,0,125.3-2.812ZM136.817,0h-3.961V-12.68h3.961Zm-4.2-15.949a1.763,1.763,0,0,1,.609-1.383,2.3,2.3,0,0,1,1.582-.539,2.3,2.3,0,0,1,1.582.539A1.763,1.763,0,0,1,137-15.949a1.763,1.763,0,0,1-.609,1.383,2.3,2.3,0,0,1-1.582.539,2.3,2.3,0,0,1-1.582-.539A1.763,1.763,0,0,1,132.622-15.949Zm6.369,9.492a7.484,7.484,0,0,1,.738-3.381,5.28,5.28,0,0,1,2.121-2.279,6.388,6.388,0,0,1,3.246-.8,5.83,5.83,0,0,1,4.488,1.764,6.768,6.768,0,0,1,1.641,4.8v.141a6.566,6.566,0,0,1-1.646,4.705A5.846,5.846,0,0,1,145.12.234a5.912,5.912,0,0,1-4.348-1.623,6.348,6.348,0,0,1-1.77-4.4Zm3.949.246a4.718,4.718,0,0,0,.551,2.578,1.835,1.835,0,0,0,1.629.82q2.109,0,2.156-3.246v-.4q0-3.41-2.18-3.41-1.98,0-2.145,2.941ZM145.636-18h4.172l-3.258,3.68-3.223-.006Zm11.173,5.32.129,1.488a4.3,4.3,0,0,1,3.621-1.723,3.618,3.618,0,0,1,2.959,1.184,5.635,5.635,0,0,1,1.014,3.563V0H160.57V-8a2.14,2.14,0,0,0-.387-1.412,1.789,1.789,0,0,0-1.406-.451,1.883,1.883,0,0,0-1.723.914V0h-3.949V-12.68Z" transform="translate(599.679 59.836)" fill="#12263f"/>
  <path id="Path_182229" data-name="Path 182229" d="M9.639-6.025H3.916V0H1.445V-14.219h9.033v1.992H3.916V-8H9.639ZM14.907,0H12.534V-10.566h2.373Zm-2.52-13.311a1.259,1.259,0,0,1,.347-.908,1.309,1.309,0,0,1,.991-.361,1.326,1.326,0,0,1,1,.361,1.25,1.25,0,0,1,.352.908,1.221,1.221,0,0,1-.352.894,1.336,1.336,0,0,1-1,.356,1.32,1.32,0,0,1-.991-.356A1.23,1.23,0,0,1,12.387-13.311Zm7.485,2.744.068,1.221a3.8,3.8,0,0,1,3.076-1.416q3.3,0,3.359,3.779V0H24V-6.846a2.176,2.176,0,0,0-.435-1.489,1.828,1.828,0,0,0-1.421-.483,2.287,2.287,0,0,0-2.139,1.3V0H17.635V-10.566ZM35.286,0a3.662,3.662,0,0,1-.273-.986A3.694,3.694,0,0,1,32.239.2a3.728,3.728,0,0,1-2.6-.908,2.906,2.906,0,0,1-1.006-2.246,3,3,0,0,1,1.255-2.593,6.081,6.081,0,0,1,3.589-.9h1.455v-.693a1.851,1.851,0,0,0-.459-1.313,1.819,1.819,0,0,0-1.4-.493,2.09,2.09,0,0,0-1.328.405,1.254,1.254,0,0,0-.518,1.03H28.86a2.634,2.634,0,0,1,.576-1.626A3.839,3.839,0,0,1,31-10.332a5.506,5.506,0,0,1,2.212-.43,4.434,4.434,0,0,1,2.959.933,3.326,3.326,0,0,1,1.133,2.622v4.766a5.4,5.4,0,0,0,.4,2.275V0ZM32.679-1.709A2.7,2.7,0,0,0,34-2.051a2.284,2.284,0,0,0,.933-.918V-4.961H33.655a3.5,3.5,0,0,0-1.982.459,1.487,1.487,0,0,0-.664,1.3,1.387,1.387,0,0,0,.454,1.089A1.758,1.758,0,0,0,32.679-1.709Zm9.5-8.857.068,1.221a3.8,3.8,0,0,1,3.076-1.416q3.3,0,3.359,3.779V0H46.306V-6.846a2.176,2.176,0,0,0-.435-1.489,1.828,1.828,0,0,0-1.421-.483,2.287,2.287,0,0,0-2.139,1.3V0H39.939V-10.566ZM55.617-1.7a2.146,2.146,0,0,0,1.475-.518A1.768,1.768,0,0,0,57.716-3.5h2.236a3.486,3.486,0,0,1-.615,1.841A4.035,4.035,0,0,1,57.775-.3a4.656,4.656,0,0,1-2.129.5A4.505,4.505,0,0,1,52.13-1.24a5.694,5.694,0,0,1-1.3-3.965v-.244a5.6,5.6,0,0,1,1.289-3.862,4.464,4.464,0,0,1,3.516-1.45,4.341,4.341,0,0,1,3.071,1.1,3.935,3.935,0,0,1,1.245,2.886H57.716a2.173,2.173,0,0,0-.62-1.494,2,2,0,0,0-1.479-.586,2.088,2.088,0,0,0-1.777.835A4.261,4.261,0,0,0,53.2-5.488v.381a4.331,4.331,0,0,0,.62,2.563A2.086,2.086,0,0,0,55.617-1.7ZM64.449,0H62.076V-10.566h2.373ZM61.93-13.311a1.259,1.259,0,0,1,.347-.908,1.309,1.309,0,0,1,.991-.361,1.326,1.326,0,0,1,1,.361,1.25,1.25,0,0,1,.352.908,1.221,1.221,0,0,1-.352.894,1.336,1.336,0,0,1-1,.356,1.32,1.32,0,0,1-.991-.356A1.23,1.23,0,0,1,61.93-13.311ZM71.865.2a4.91,4.91,0,0,1-3.657-1.421,5.154,5.154,0,0,1-1.4-3.784V-5.3a6.34,6.34,0,0,1,.61-2.827,4.645,4.645,0,0,1,1.714-1.938,4.531,4.531,0,0,1,2.461-.693,4.147,4.147,0,0,1,3.335,1.377,5.822,5.822,0,0,1,1.177,3.9v.957H69.2a3.173,3.173,0,0,0,.874,2.07A2.624,2.624,0,0,0,72-1.7a3.213,3.213,0,0,0,2.656-1.318L75.938-1.8a4.272,4.272,0,0,1-1.694,1.47A5.3,5.3,0,0,1,71.865.2Zm-.283-9.053a2,2,0,0,0-1.577.684,3.543,3.543,0,0,0-.767,1.9H73.76v-.176a2.884,2.884,0,0,0-.635-1.8A1.983,1.983,0,0,0,71.582-8.857ZM83.677-8.4a5.872,5.872,0,0,0-.967-.078,2.177,2.177,0,0,0-2.2,1.25V0H78.14V-10.566h2.266l.059,1.182a2.674,2.674,0,0,1,2.383-1.377,2.222,2.222,0,0,1,.84.137ZM91.116,0a3.662,3.662,0,0,1-.273-.986A3.694,3.694,0,0,1,88.069.2a3.728,3.728,0,0,1-2.6-.908,2.906,2.906,0,0,1-1.006-2.246,3,3,0,0,1,1.255-2.593,6.081,6.081,0,0,1,3.589-.9h1.455v-.693a1.851,1.851,0,0,0-.459-1.313,1.819,1.819,0,0,0-1.4-.493,2.09,2.09,0,0,0-1.328.405,1.254,1.254,0,0,0-.518,1.03H84.691a2.634,2.634,0,0,1,.576-1.626,3.839,3.839,0,0,1,1.567-1.187,5.506,5.506,0,0,1,2.212-.43A4.434,4.434,0,0,1,92-9.829a3.326,3.326,0,0,1,1.133,2.622v4.766a5.4,5.4,0,0,0,.4,2.275V0ZM88.509-1.709a2.7,2.7,0,0,0,1.323-.342,2.284,2.284,0,0,0,.933-.918V-4.961H89.485A3.5,3.5,0,0,0,87.5-4.5a1.487,1.487,0,0,0-.664,1.3,1.387,1.387,0,0,0,.454,1.089A1.758,1.758,0,0,0,88.509-1.709Z" transform="translate(635.149 114.754)" fill="#12263f"/>
  <path id="Path_182230" data-name="Path 182230" d="M9.4-3.311H3.9L2.744,0H.176L5.547-14.219H7.764L13.145,0H10.566ZM4.59-5.3H8.711L6.65-11.2Zm9.692-.059a6.282,6.282,0,0,1,1.133-3.921,3.63,3.63,0,0,1,3.037-1.479A3.449,3.449,0,0,1,21.167-9.59V-15H23.54V0H21.391l-.117-1.094A3.5,3.5,0,0,1,18.432.2a3.609,3.609,0,0,1-3-1.494A6.512,6.512,0,0,1,14.282-5.361Zm2.373.205a4.4,4.4,0,0,0,.62,2.515,2.012,2.012,0,0,0,1.763.9,2.241,2.241,0,0,0,2.129-1.3V-7.549a2.207,2.207,0,0,0-2.109-1.27,2.027,2.027,0,0,0-1.777.913A4.9,4.9,0,0,0,16.655-5.156Zm11.772-5.41.068,1.1a3.8,3.8,0,0,1,3.047-1.3,2.921,2.921,0,0,1,2.9,1.621,3.748,3.748,0,0,1,3.242-1.621,3.294,3.294,0,0,1,2.6.967,4.257,4.257,0,0,1,.874,2.852V0H38.788V-6.875a2.1,2.1,0,0,0-.439-1.475,1.924,1.924,0,0,0-1.455-.469,1.976,1.976,0,0,0-1.323.435,2.292,2.292,0,0,0-.718,1.138L34.862,0H32.489V-6.953a1.693,1.693,0,0,0-1.9-1.865,2.089,2.089,0,0,0-2.021,1.162V0H26.191V-10.566ZM46.3,0H43.929V-10.566H46.3Zm-2.52-13.311a1.259,1.259,0,0,1,.347-.908,1.309,1.309,0,0,1,.991-.361,1.326,1.326,0,0,1,1,.361,1.25,1.25,0,0,1,.352.908,1.221,1.221,0,0,1-.352.894,1.336,1.336,0,0,1-1,.356,1.32,1.32,0,0,1-.991-.356A1.23,1.23,0,0,1,43.783-13.311Zm7.485,2.744.068,1.221a3.8,3.8,0,0,1,3.076-1.416q3.3,0,3.359,3.779V0H55.4V-6.846a2.176,2.176,0,0,0-.435-1.489,1.828,1.828,0,0,0-1.421-.483A2.287,2.287,0,0,0,51.4-7.52V0H49.031V-10.566ZM62.893,0H60.52V-10.566h2.373Zm-2.52-13.311a1.259,1.259,0,0,1,.347-.908,1.309,1.309,0,0,1,.991-.361,1.326,1.326,0,0,1,1,.361,1.25,1.25,0,0,1,.352.908,1.221,1.221,0,0,1-.352.894,1.336,1.336,0,0,1-1,.356,1.32,1.32,0,0,1-.991-.356A1.23,1.23,0,0,1,60.373-13.311ZM71.579-2.871a1.076,1.076,0,0,0-.522-.967,5.557,5.557,0,0,0-1.733-.586A8.911,8.911,0,0,1,67.3-5.068a2.7,2.7,0,0,1-1.777-2.49,2.813,2.813,0,0,1,1.152-2.285,4.556,4.556,0,0,1,2.93-.918,4.74,4.74,0,0,1,3.062.938,2.975,2.975,0,0,1,1.167,2.432H71.461a1.462,1.462,0,0,0-.508-1.138,1.946,1.946,0,0,0-1.348-.454,2.1,2.1,0,0,0-1.274.361,1.139,1.139,0,0,0-.493.967.962.962,0,0,0,.459.85,6.312,6.312,0,0,0,1.855.61,8.783,8.783,0,0,1,2.192.732,3.1,3.1,0,0,1,1.182,1.021A2.6,2.6,0,0,1,73.912-3a2.753,2.753,0,0,1-1.182,2.31,5.039,5.039,0,0,1-3.1.884,5.464,5.464,0,0,1-2.314-.469,3.809,3.809,0,0,1-1.582-1.289,3.051,3.051,0,0,1-.566-1.768h2.3a1.672,1.672,0,0,0,.635,1.294,2.467,2.467,0,0,0,1.553.454,2.4,2.4,0,0,0,1.426-.356A1.1,1.1,0,0,0,71.579-2.871Zm7.553-10.264v2.568H81v1.758H79.132v5.9a1.3,1.3,0,0,0,.239.874,1.109,1.109,0,0,0,.854.269,3.656,3.656,0,0,0,.83-.1V-.029A5.845,5.845,0,0,1,79.493.2q-2.734,0-2.734-3.018V-8.809H75.02v-1.758h1.738v-2.568ZM88.521-8.4a5.872,5.872,0,0,0-.967-.078,2.177,2.177,0,0,0-2.2,1.25V0H82.983V-10.566h2.266l.059,1.182a2.674,2.674,0,0,1,2.383-1.377,2.222,2.222,0,0,1,.84.137ZM95.96,0a3.662,3.662,0,0,1-.273-.986A3.694,3.694,0,0,1,92.913.2a3.728,3.728,0,0,1-2.6-.908A2.906,2.906,0,0,1,89.31-2.959a3,3,0,0,1,1.255-2.593,6.081,6.081,0,0,1,3.589-.9h1.455v-.693a1.851,1.851,0,0,0-.459-1.313,1.819,1.819,0,0,0-1.4-.493,2.09,2.09,0,0,0-1.328.405,1.254,1.254,0,0,0-.518,1.03H89.534a2.634,2.634,0,0,1,.576-1.626,3.839,3.839,0,0,1,1.567-1.187,5.506,5.506,0,0,1,2.212-.43,4.434,4.434,0,0,1,2.959.933,3.326,3.326,0,0,1,1.133,2.622v4.766a5.4,5.4,0,0,0,.4,2.275V0ZM93.353-1.709a2.7,2.7,0,0,0,1.323-.342,2.284,2.284,0,0,0,.933-.918V-4.961H94.329a3.5,3.5,0,0,0-1.982.459,1.487,1.487,0,0,0-.664,1.3,1.387,1.387,0,0,0,.454,1.089A1.758,1.758,0,0,0,93.353-1.709Zm10.268-11.426v2.568h1.865v1.758h-1.865v5.9a1.3,1.3,0,0,0,.239.874,1.109,1.109,0,0,0,.854.269,3.656,3.656,0,0,0,.83-.1V-.029A5.845,5.845,0,0,1,103.982.2q-2.734,0-2.734-3.018V-8.809H99.509v-1.758h1.738v-2.568ZM110,0h-2.373V-10.566H110Zm-2.52-13.311a1.259,1.259,0,0,1,.347-.908,1.309,1.309,0,0,1,.991-.361,1.326,1.326,0,0,1,1,.361,1.25,1.25,0,0,1,.352.908,1.221,1.221,0,0,1-.352.894,1.336,1.336,0,0,1-1,.356,1.32,1.32,0,0,1-.991-.356A1.23,1.23,0,0,1,107.482-13.311Zm9.008,10.3,2.236-7.559h2.451L117.516,0h-2.061l-3.691-10.566h2.461ZM128.864,0a3.662,3.662,0,0,1-.273-.986A3.694,3.694,0,0,1,125.817.2a3.728,3.728,0,0,1-2.6-.908,2.906,2.906,0,0,1-1.006-2.246,3,3,0,0,1,1.255-2.593,6.081,6.081,0,0,1,3.589-.9h1.455v-.693a1.851,1.851,0,0,0-.459-1.313,1.819,1.819,0,0,0-1.4-.493,2.09,2.09,0,0,0-1.328.405,1.254,1.254,0,0,0-.518,1.03h-2.373a2.634,2.634,0,0,1,.576-1.626,3.839,3.839,0,0,1,1.567-1.187,5.506,5.506,0,0,1,2.212-.43,4.434,4.434,0,0,1,2.959.933,3.326,3.326,0,0,1,1.133,2.622v4.766a5.4,5.4,0,0,0,.4,2.275V0Zm-2.607-1.709a2.7,2.7,0,0,0,1.323-.342,2.283,2.283,0,0,0,.933-.918V-4.961h-1.279a3.5,3.5,0,0,0-1.982.459,1.487,1.487,0,0,0-.664,1.3,1.387,1.387,0,0,0,.454,1.089A1.758,1.758,0,0,0,126.257-1.709Z" transform="translate(616.17 176.194)" fill="#12263f"/>
  <path id="Path_182231" data-name="Path 182231" d="M9.639-6.025H3.916V0H1.445V-14.219h9.033v1.992H3.916V-8H9.639ZM14.907,0H12.534V-10.566h2.373Zm-2.52-13.311a1.259,1.259,0,0,1,.347-.908,1.309,1.309,0,0,1,.991-.361,1.326,1.326,0,0,1,1,.361,1.25,1.25,0,0,1,.352.908,1.221,1.221,0,0,1-.352.894,1.336,1.336,0,0,1-1,.356,1.32,1.32,0,0,1-.991-.356A1.23,1.23,0,0,1,12.387-13.311ZM23.592-2.871a1.076,1.076,0,0,0-.522-.967,5.557,5.557,0,0,0-1.733-.586,8.911,8.911,0,0,1-2.021-.645,2.7,2.7,0,0,1-1.777-2.49A2.813,2.813,0,0,1,18.69-9.844a4.556,4.556,0,0,1,2.93-.918,4.74,4.74,0,0,1,3.062.938,2.975,2.975,0,0,1,1.167,2.432H23.475a1.462,1.462,0,0,0-.508-1.138,1.946,1.946,0,0,0-1.348-.454,2.1,2.1,0,0,0-1.274.361,1.139,1.139,0,0,0-.493.967.962.962,0,0,0,.459.85,6.312,6.312,0,0,0,1.855.61,8.783,8.783,0,0,1,2.192.732,3.1,3.1,0,0,1,1.182,1.021A2.6,2.6,0,0,1,25.926-3a2.753,2.753,0,0,1-1.182,2.31,5.039,5.039,0,0,1-3.1.884,5.464,5.464,0,0,1-2.314-.469,3.809,3.809,0,0,1-1.582-1.289,3.051,3.051,0,0,1-.566-1.768h2.3a1.672,1.672,0,0,0,.635,1.294,2.467,2.467,0,0,0,1.553.454A2.4,2.4,0,0,0,23.1-1.938,1.1,1.1,0,0,0,23.592-2.871ZM32.513-1.7a2.146,2.146,0,0,0,1.475-.518A1.768,1.768,0,0,0,34.612-3.5h2.236a3.486,3.486,0,0,1-.615,1.841A4.035,4.035,0,0,1,34.671-.3a4.656,4.656,0,0,1-2.129.5A4.505,4.505,0,0,1,29.026-1.24a5.694,5.694,0,0,1-1.3-3.965v-.244a5.6,5.6,0,0,1,1.289-3.862,4.464,4.464,0,0,1,3.516-1.45,4.341,4.341,0,0,1,3.071,1.1,3.935,3.935,0,0,1,1.245,2.886H34.612a2.173,2.173,0,0,0-.62-1.494,2,2,0,0,0-1.479-.586,2.088,2.088,0,0,0-1.777.835A4.261,4.261,0,0,0,30.1-5.488v.381a4.331,4.331,0,0,0,.62,2.563A2.086,2.086,0,0,0,32.513-1.7ZM45.134,0a3.662,3.662,0,0,1-.273-.986A3.694,3.694,0,0,1,42.087.2a3.728,3.728,0,0,1-2.6-.908,2.906,2.906,0,0,1-1.006-2.246,3,3,0,0,1,1.255-2.593,6.081,6.081,0,0,1,3.589-.9h1.455v-.693a1.851,1.851,0,0,0-.459-1.313,1.819,1.819,0,0,0-1.4-.493A2.09,2.09,0,0,0,41.6-8.55a1.254,1.254,0,0,0-.518,1.03H38.708a2.634,2.634,0,0,1,.576-1.626,3.838,3.838,0,0,1,1.567-1.187,5.506,5.506,0,0,1,2.212-.43,4.434,4.434,0,0,1,2.959.933,3.326,3.326,0,0,1,1.133,2.622v4.766a5.4,5.4,0,0,0,.4,2.275V0ZM42.527-1.709a2.7,2.7,0,0,0,1.323-.342,2.284,2.284,0,0,0,.933-.918V-4.961H43.5a3.5,3.5,0,0,0-1.982.459,1.487,1.487,0,0,0-.664,1.3,1.387,1.387,0,0,0,.454,1.089A1.758,1.758,0,0,0,42.527-1.709ZM52.345,0H49.972V-15h2.373Z" transform="translate(655.67 232.854)" fill="#12263f"/>
  <path id="Path_182232" data-name="Path 182232" d="M12.295-4.629a5.134,5.134,0,0,1-1.68,3.55A5.726,5.726,0,0,1,6.719.2,5.545,5.545,0,0,1,3.726-.61a5.288,5.288,0,0,1-2-2.29A8.264,8.264,0,0,1,1-6.348V-7.676a8.324,8.324,0,0,1,.713-3.545,5.373,5.373,0,0,1,2.046-2.363,5.707,5.707,0,0,1,3.081-.83,5.5,5.5,0,0,1,3.789,1.274,5.325,5.325,0,0,1,1.67,3.608H9.834a3.512,3.512,0,0,0-.894-2.212,2.953,2.953,0,0,0-2.1-.679A2.885,2.885,0,0,0,4.36-11.244a5.887,5.887,0,0,0-.884,3.455v1.261A6.245,6.245,0,0,0,4.3-3.009,2.738,2.738,0,0,0,6.719-1.8a3.194,3.194,0,0,0,2.188-.654,3.412,3.412,0,0,0,.928-2.178Zm1.733-.752a6.231,6.231,0,0,1,.615-2.8,4.493,4.493,0,0,1,1.729-1.914,4.87,4.87,0,0,1,2.559-.669A4.615,4.615,0,0,1,22.4-9.385a5.416,5.416,0,0,1,1.44,3.652l.01.557a6.286,6.286,0,0,1-.6,2.793,4.439,4.439,0,0,1-1.719,1.9A4.906,4.906,0,0,1,18.95.2a4.584,4.584,0,0,1-3.579-1.489,5.7,5.7,0,0,1-1.343-3.97Zm2.373.205a4.258,4.258,0,0,0,.674,2.554A2.191,2.191,0,0,0,18.95-1.7a2.167,2.167,0,0,0,1.87-.937,4.7,4.7,0,0,0,.669-2.744A4.2,4.2,0,0,0,20.8-7.92a2.2,2.2,0,0,0-1.87-.937,2.178,2.178,0,0,0-1.846.923A4.614,4.614,0,0,0,16.4-5.176Zm15.561,2.3a1.076,1.076,0,0,0-.522-.967,5.557,5.557,0,0,0-1.733-.586,8.911,8.911,0,0,1-2.021-.645,2.7,2.7,0,0,1-1.777-2.49A2.813,2.813,0,0,1,27.06-9.844a4.556,4.556,0,0,1,2.93-.918,4.74,4.74,0,0,1,3.062.938,2.975,2.975,0,0,1,1.167,2.432H31.845a1.462,1.462,0,0,0-.508-1.138,1.946,1.946,0,0,0-1.348-.454,2.1,2.1,0,0,0-1.274.361,1.139,1.139,0,0,0-.493.967.962.962,0,0,0,.459.85,6.312,6.312,0,0,0,1.855.61,8.783,8.783,0,0,1,2.192.732A3.1,3.1,0,0,1,33.91-4.443,2.6,2.6,0,0,1,34.3-3a2.753,2.753,0,0,1-1.182,2.31,5.039,5.039,0,0,1-3.1.884A5.464,5.464,0,0,1,27.7-.273a3.809,3.809,0,0,1-1.582-1.289,3.051,3.051,0,0,1-.566-1.768h2.3A1.672,1.672,0,0,0,28.5-2.036a2.467,2.467,0,0,0,1.553.454,2.4,2.4,0,0,0,1.426-.356A1.1,1.1,0,0,0,31.962-2.871Zm7.553-10.264v2.568H41.38v1.758H39.515v5.9a1.3,1.3,0,0,0,.239.874,1.109,1.109,0,0,0,.854.269,3.656,3.656,0,0,0,.83-.1V-.029A5.845,5.845,0,0,1,39.876.2q-2.734,0-2.734-3.018V-8.809H35.4v-1.758h1.738v-2.568ZM48.025.2a4.91,4.91,0,0,1-3.657-1.421,5.154,5.154,0,0,1-1.4-3.784V-5.3a6.34,6.34,0,0,1,.61-2.827,4.646,4.646,0,0,1,1.714-1.938,4.531,4.531,0,0,1,2.461-.693,4.147,4.147,0,0,1,3.335,1.377,5.823,5.823,0,0,1,1.177,3.9v.957h-6.9a3.173,3.173,0,0,0,.874,2.07,2.624,2.624,0,0,0,1.929.762,3.213,3.213,0,0,0,2.656-1.318L52.1-1.8A4.272,4.272,0,0,1,50.4-.327,5.3,5.3,0,0,1,48.025.2Zm-.283-9.053a2,2,0,0,0-1.577.684,3.543,3.543,0,0,0-.767,1.9H49.92v-.176a2.884,2.884,0,0,0-.635-1.8A1.983,1.983,0,0,0,47.742-8.857ZM60.227-2.871a1.076,1.076,0,0,0-.522-.967,5.557,5.557,0,0,0-1.733-.586,8.911,8.911,0,0,1-2.021-.645,2.7,2.7,0,0,1-1.777-2.49,2.813,2.813,0,0,1,1.152-2.285,4.556,4.556,0,0,1,2.93-.918,4.74,4.74,0,0,1,3.062.938,2.975,2.975,0,0,1,1.167,2.432H60.11A1.462,1.462,0,0,0,59.6-8.53a1.946,1.946,0,0,0-1.348-.454,2.1,2.1,0,0,0-1.274.361,1.139,1.139,0,0,0-.493.967.962.962,0,0,0,.459.85A6.312,6.312,0,0,0,58.8-6.2a8.783,8.783,0,0,1,2.192.732,3.1,3.1,0,0,1,1.182,1.021A2.6,2.6,0,0,1,62.561-3a2.753,2.753,0,0,1-1.182,2.31,5.039,5.039,0,0,1-3.1.884,5.464,5.464,0,0,1-2.314-.469,3.809,3.809,0,0,1-1.582-1.289,3.051,3.051,0,0,1-.566-1.768h2.3a1.672,1.672,0,0,0,.635,1.294,2.467,2.467,0,0,0,1.553.454,2.4,2.4,0,0,0,1.426-.356A1.1,1.1,0,0,0,60.227-2.871Z" transform="translate(650.85 293.294)" fill="#12263f"/>
  <path id="Path_182233" data-name="Path 182233" d="M12.344-1.846A4.724,4.724,0,0,1,10.205-.322,8.726,8.726,0,0,1,7.1.2,6.119,6.119,0,0,1,3.936-.615,5.4,5.4,0,0,1,1.812-2.935a8.114,8.114,0,0,1-.776-3.521V-7.568A7.525,7.525,0,0,1,2.578-12.6a5.351,5.351,0,0,1,4.307-1.812,5.662,5.662,0,0,1,3.77,1.177,5.071,5.071,0,0,1,1.68,3.384H9.912a2.725,2.725,0,0,0-2.979-2.568,2.92,2.92,0,0,0-2.524,1.2,6.089,6.089,0,0,0-.894,3.508v1.093a5.783,5.783,0,0,0,.972,3.576,3.205,3.205,0,0,0,2.7,1.273,3.56,3.56,0,0,0,2.7-.859V-5.42H6.953V-7.295h5.391ZM19.682.2a4.91,4.91,0,0,1-3.657-1.421,5.154,5.154,0,0,1-1.4-3.784V-5.3a6.34,6.34,0,0,1,.61-2.827,4.645,4.645,0,0,1,1.714-1.938,4.531,4.531,0,0,1,2.461-.693,4.147,4.147,0,0,1,3.335,1.377,5.823,5.823,0,0,1,1.177,3.9v.957h-6.9a3.173,3.173,0,0,0,.874,2.07,2.624,2.624,0,0,0,1.929.762,3.213,3.213,0,0,0,2.656-1.318L23.755-1.8A4.272,4.272,0,0,1,22.06-.327,5.3,5.3,0,0,1,19.682.2ZM19.4-8.857a2,2,0,0,0-1.577.684,3.543,3.543,0,0,0-.767,1.9h4.521v-.176a2.884,2.884,0,0,0-.635-1.8A1.983,1.983,0,0,0,19.4-8.857ZM31.884-2.871a1.076,1.076,0,0,0-.522-.967,5.557,5.557,0,0,0-1.733-.586,8.911,8.911,0,0,1-2.021-.645,2.7,2.7,0,0,1-1.777-2.49,2.813,2.813,0,0,1,1.152-2.285,4.556,4.556,0,0,1,2.93-.918,4.74,4.74,0,0,1,3.062.938A2.975,2.975,0,0,1,34.14-7.393H31.767a1.462,1.462,0,0,0-.508-1.138,1.946,1.946,0,0,0-1.348-.454,2.1,2.1,0,0,0-1.274.361,1.139,1.139,0,0,0-.493.967.962.962,0,0,0,.459.85,6.312,6.312,0,0,0,1.855.61,8.783,8.783,0,0,1,2.192.732,3.1,3.1,0,0,1,1.182,1.021A2.6,2.6,0,0,1,34.218-3a2.753,2.753,0,0,1-1.182,2.31,5.039,5.039,0,0,1-3.1.884,5.464,5.464,0,0,1-2.314-.469,3.809,3.809,0,0,1-1.582-1.289,3.051,3.051,0,0,1-.566-1.768h2.3a1.672,1.672,0,0,0,.635,1.294,2.467,2.467,0,0,0,1.553.454A2.4,2.4,0,0,0,31.4-1.938,1.1,1.1,0,0,0,31.884-2.871Zm7.553-10.264v2.568H41.3v1.758H39.437v5.9a1.3,1.3,0,0,0,.239.874,1.109,1.109,0,0,0,.854.269,3.656,3.656,0,0,0,.83-.1V-.029A5.845,5.845,0,0,1,39.8.2q-2.734,0-2.734-3.018V-8.809H35.326v-1.758h1.738v-2.568ZM45.819,0H43.446V-10.566h2.373ZM43.3-13.311a1.259,1.259,0,0,1,.347-.908,1.309,1.309,0,0,1,.991-.361,1.326,1.326,0,0,1,1,.361,1.25,1.25,0,0,1,.352.908,1.221,1.221,0,0,1-.352.894,1.336,1.336,0,0,1-1,.356,1.32,1.32,0,0,1-.991-.356A1.23,1.23,0,0,1,43.3-13.311Zm4.838,7.93a6.231,6.231,0,0,1,.615-2.8,4.493,4.493,0,0,1,1.729-1.914,4.87,4.87,0,0,1,2.559-.669,4.615,4.615,0,0,1,3.472,1.377,5.416,5.416,0,0,1,1.44,3.652l.01.557a6.286,6.286,0,0,1-.6,2.793,4.439,4.439,0,0,1-1.719,1.9A4.906,4.906,0,0,1,53.059.2,4.584,4.584,0,0,1,49.48-1.294a5.7,5.7,0,0,1-1.343-3.97Zm2.373.205a4.258,4.258,0,0,0,.674,2.554,2.191,2.191,0,0,0,1.875.923,2.167,2.167,0,0,0,1.87-.937A4.7,4.7,0,0,0,55.6-5.381,4.2,4.2,0,0,0,54.91-7.92a2.2,2.2,0,0,0-1.87-.937,2.178,2.178,0,0,0-1.846.923A4.614,4.614,0,0,0,50.51-5.176ZM53.694-15H56.4l-2.705,2.959-1.9,0Zm8.657,4.434.068,1.221A3.8,3.8,0,0,1,65.5-10.762q3.3,0,3.359,3.779V0H66.481V-6.846a2.176,2.176,0,0,0-.435-1.489,1.828,1.828,0,0,0-1.421-.483,2.287,2.287,0,0,0-2.139,1.3V0H60.114V-10.566Z" transform="translate(647.51 350.554)" fill="#12263f"/>
  <g id="Group_118181" data-name="Group 118181">
    <g id="Group_118180" data-name="Group 118180" clip-path="url(#clip-path)">
      <path id="Path_182214" data-name="Path 182214" d="M506.218,380.922H313.783a19.133,19.133,0,0,1-19.133-19.133V38.211a19.134,19.134,0,0,1,19.133-19.134H506.218a19.134,19.134,0,0,1,19.133,19.134V361.789a19.133,19.133,0,0,1-19.133,19.133" fill="#e8feff"/>
      <path id="Rectangle_38154" data-name="Rectangle 38154" d="M19.133-2H211.568A21.117,21.117,0,0,1,232.7,19.133V342.711a21.118,21.118,0,0,1-21.134,21.134H19.133A21.117,21.117,0,0,1-2,342.712V19.133A21.117,21.117,0,0,1,19.133-2ZM211.567,359.845A17.153,17.153,0,0,0,228.7,342.711V19.133A17.152,17.152,0,0,0,211.568,2H19.133A17.152,17.152,0,0,0,2,19.133V342.712a17.152,17.152,0,0,0,17.133,17.133Z" transform="translate(294.65 19.077)" fill="#0cc0c7"/>
      <path id="Path_182215" data-name="Path 182215" d="M496.1,147.262H323.9a8.735,8.735,0,0,1-8.736-8.735V95.3a8.736,8.736,0,0,1,8.736-8.736H496.1a8.736,8.736,0,0,1,8.736,8.736v43.225a8.735,8.735,0,0,1-8.736,8.735" fill="#ffe1ad"/>
      <path id="Rectangle_38155" data-name="Rectangle 38155" d="M8.736-1.5h172.2A10.248,10.248,0,0,1,191.176,8.736V51.961A10.248,10.248,0,0,1,180.94,62.2H8.736A10.248,10.248,0,0,1-1.5,51.961V8.736A10.248,10.248,0,0,1,8.736-1.5Zm172.2,60.7a7.244,7.244,0,0,0,7.236-7.236V8.736A7.244,7.244,0,0,0,180.94,1.5H8.736A7.244,7.244,0,0,0,1.5,8.736V51.961A7.244,7.244,0,0,0,8.736,59.2Z" transform="translate(315.162 86.566)" fill="#f9b131"/>
      <path id="Path_182216" data-name="Path 182216" d="M496.1,220.407H323.9a8.736,8.736,0,0,1-8.736-8.736V168.446a8.736,8.736,0,0,1,8.736-8.736H496.1a8.736,8.736,0,0,1,8.736,8.736v43.225a8.736,8.736,0,0,1-8.736,8.736" fill="#c4fdff"/>
      <path id="Rectangle_38156" data-name="Rectangle 38156" d="M8.736-1.5h172.2A10.248,10.248,0,0,1,191.176,8.736V51.961A10.248,10.248,0,0,1,180.94,62.2H8.736A10.248,10.248,0,0,1-1.5,51.961V8.736A10.248,10.248,0,0,1,8.736-1.5Zm172.2,60.7a7.244,7.244,0,0,0,7.236-7.236V8.736A7.244,7.244,0,0,0,180.94,1.5H8.736A7.244,7.244,0,0,0,1.5,8.736V51.961A7.244,7.244,0,0,0,8.736,59.2Z" transform="translate(315.162 159.71)" fill="#42e0e6"/>
      <path id="Path_182217" data-name="Path 182217" d="M496.1,293.552H323.9a8.736,8.736,0,0,1-8.736-8.736V241.591a8.736,8.736,0,0,1,8.736-8.736H496.1a8.736,8.736,0,0,1,8.736,8.736v43.225a8.736,8.736,0,0,1-8.736,8.736" fill="#ffe1ad"/>
      <path id="Rectangle_38157" data-name="Rectangle 38157" d="M8.736-1.5h172.2A10.248,10.248,0,0,1,191.176,8.736V51.961A10.248,10.248,0,0,1,180.94,62.2H8.736A10.248,10.248,0,0,1-1.5,51.961V8.736A10.248,10.248,0,0,1,8.736-1.5Zm172.2,60.7a7.244,7.244,0,0,0,7.236-7.236V8.736A7.244,7.244,0,0,0,180.94,1.5H8.736A7.244,7.244,0,0,0,1.5,8.736V51.961A7.244,7.244,0,0,0,8.736,59.2Z" transform="translate(315.162 232.855)" fill="#f9b131"/>
      <path id="Path_182218" data-name="Path 182218" d="M496.1,366.7H323.9a8.736,8.736,0,0,1-8.736-8.736V314.736A8.736,8.736,0,0,1,323.9,306H496.1a8.736,8.736,0,0,1,8.736,8.736v43.225A8.736,8.736,0,0,1,496.1,366.7" fill="#c4fdff"/>
      <path id="Rectangle_38158" data-name="Rectangle 38158" d="M8.736-1.5h172.2A10.248,10.248,0,0,1,191.176,8.736V51.961A10.248,10.248,0,0,1,180.94,62.2H8.736A10.248,10.248,0,0,1-1.5,51.961V8.736A10.248,10.248,0,0,1,8.736-1.5Zm172.2,60.7a7.244,7.244,0,0,0,7.236-7.236V8.736A7.244,7.244,0,0,0,180.94,1.5H8.736A7.244,7.244,0,0,0,1.5,8.736V51.961A7.244,7.244,0,0,0,8.736,59.2Z" transform="translate(315.162 306)" fill="#42e0e6"/>
    </g>
  </g>
  <path id="Path_182222" data-name="Path 182222" d="M5.4-3.164h7.16V0H1.289V-17.062H5.4ZM21.5,0a4.459,4.459,0,0,1-.375-1.137A3.672,3.672,0,0,1,18.076.234,4.5,4.5,0,0,1,15.029-.85a3.45,3.45,0,0,1-1.254-2.725A3.546,3.546,0,0,1,15.3-6.691a7.761,7.761,0,0,1,4.43-1.055h1.219v-.671q0-1.755-1.512-1.755a1.236,1.236,0,0,0-1.406,1.39H14.08a3.54,3.54,0,0,1,1.564-2.985,6.575,6.575,0,0,1,3.99-1.147,5.764,5.764,0,0,1,3.832,1.184,4.115,4.115,0,0,1,1.441,3.246v5.613A5.748,5.748,0,0,0,25.447-.2V0ZM19.025-2.578a2.2,2.2,0,0,0,1.225-.316,1.983,1.983,0,0,0,.7-.715V-5.637H19.8q-2.062,0-2.062,1.852a1.131,1.131,0,0,0,.363.873A1.315,1.315,0,0,0,19.025-2.578ZM40.669,0a4.459,4.459,0,0,1-.375-1.137A3.672,3.672,0,0,1,37.247.234,4.5,4.5,0,0,1,34.2-.85a3.45,3.45,0,0,1-1.254-2.725,3.546,3.546,0,0,1,1.523-3.117A7.761,7.761,0,0,1,38.9-7.746h1.219v-.671q0-1.755-1.512-1.755A1.236,1.236,0,0,0,37.2-8.782H33.251a3.54,3.54,0,0,1,1.564-2.985,6.575,6.575,0,0,1,3.99-1.147,5.764,5.764,0,0,1,3.832,1.184,4.115,4.115,0,0,1,1.441,3.246v5.613A5.748,5.748,0,0,0,44.618-.2V0ZM38.2-2.578a2.2,2.2,0,0,0,1.225-.316,1.983,1.983,0,0,0,.7-.715V-5.637H38.969q-2.062,0-2.062,1.852a1.131,1.131,0,0,0,.363.873A1.315,1.315,0,0,0,38.2-2.578Zm13.67-.234a1.756,1.756,0,0,0,1.289-.451,1.654,1.654,0,0,0,.445-1.26h3.7A4.384,4.384,0,0,1,55.809-1.1,5.558,5.558,0,0,1,51.959.234,5.627,5.627,0,0,1,47.6-1.5a6.834,6.834,0,0,1-1.594-4.8v-.164a7.723,7.723,0,0,1,.709-3.393,5.162,5.162,0,0,1,2.045-2.262,6.1,6.1,0,0,1,3.164-.791,5.488,5.488,0,0,1,3.926,1.371A4.863,4.863,0,0,1,57.3-7.828H53.6a2.168,2.168,0,0,0-.48-1.512,1.658,1.658,0,0,0-1.289-.527q-1.535,0-1.793,1.957A13.809,13.809,0,0,0,49.956-6.2a5.424,5.424,0,0,0,.457,2.648A1.582,1.582,0,0,0,51.866-2.812Zm11.923-13.02v3.152h2.086v2.742H63.789v5.8a1.481,1.481,0,0,0,.258,1,1.383,1.383,0,0,0,1.02.281,5.793,5.793,0,0,0,.984-.07V-.105a7.288,7.288,0,0,1-2.227.34,4.137,4.137,0,0,1-3.012-.961,3.939,3.939,0,0,1-.973-2.918V-9.937H58.222V-12.68h1.617v-3.152ZM71.809,0H67.848V-12.68h3.961Zm-4.2-15.949a1.763,1.763,0,0,1,.609-1.383,2.3,2.3,0,0,1,1.582-.539,2.3,2.3,0,0,1,1.582.539A1.763,1.763,0,0,1,72-15.949a1.763,1.763,0,0,1-.609,1.383,2.3,2.3,0,0,1-1.582.539,2.3,2.3,0,0,1-1.582-.539A1.763,1.763,0,0,1,67.614-15.949ZM79.538-4.7l2-7.98H85.7L81.565,0H77.534L73.4-12.68h4.172ZM91.285,0H87.325V-12.68h3.961Zm-4.2-15.949a1.763,1.763,0,0,1,.609-1.383,2.3,2.3,0,0,1,1.582-.539,2.3,2.3,0,0,1,1.582.539,1.763,1.763,0,0,1,.609,1.383,1.763,1.763,0,0,1-.609,1.383,2.3,2.3,0,0,1-1.582.539,2.3,2.3,0,0,1-1.582-.539A1.763,1.763,0,0,1,87.09-15.949Zm6.369,9.516a7.746,7.746,0,0,1,1.3-4.746,4.282,4.282,0,0,1,3.633-1.734,3.641,3.641,0,0,1,2.859,1.336V-18h3.961V0h-3.551l-.2-1.359A3.739,3.739,0,0,1,98.369.234,4.274,4.274,0,0,1,94.783-1.5,7.991,7.991,0,0,1,93.459-6.434Zm3.949.246q0,3.375,1.969,3.375a1.944,1.944,0,0,0,1.875-1.1V-8.742A1.892,1.892,0,0,0,99.4-9.867q-1.828,0-1.98,2.953ZM114.84,0a4.459,4.459,0,0,1-.375-1.137A3.672,3.672,0,0,1,111.418.234,4.5,4.5,0,0,1,108.371-.85a3.45,3.45,0,0,1-1.254-2.725,3.546,3.546,0,0,1,1.523-3.117,7.761,7.761,0,0,1,4.43-1.055h1.219v-.671q0-1.755-1.512-1.755a1.236,1.236,0,0,0-1.406,1.39h-3.949a3.54,3.54,0,0,1,1.564-2.985,6.575,6.575,0,0,1,3.99-1.147,5.764,5.764,0,0,1,3.832,1.184,4.115,4.115,0,0,1,1.441,3.246v5.613A5.748,5.748,0,0,0,118.789-.2V0Zm-2.473-2.578a2.2,2.2,0,0,0,1.225-.316,1.983,1.983,0,0,0,.7-.715V-5.637H113.14q-2.062,0-2.062,1.852a1.131,1.131,0,0,0,.363.873A1.315,1.315,0,0,0,112.367-2.578Zm7.81-3.855a7.746,7.746,0,0,1,1.3-4.746,4.282,4.282,0,0,1,3.633-1.734,3.641,3.641,0,0,1,2.859,1.336V-18h3.961V0H128.38l-.2-1.359A3.739,3.739,0,0,1,125.088.234,4.274,4.274,0,0,1,121.5-1.5,7.991,7.991,0,0,1,120.177-6.434Zm3.949.246q0,3.375,1.969,3.375a1.944,1.944,0,0,0,1.875-1.1V-8.742a1.892,1.892,0,0,0-1.852-1.125q-1.828,0-1.98,2.953Z" transform="translate(343.31 59.836)" fill="#12263f"/>
  <path id="Path_182223" data-name="Path 182223" d="M4.053,0H1.592V-14.219H4.053Zm5.19-10.566.068,1.221a3.8,3.8,0,0,1,3.076-1.416q3.3,0,3.359,3.779V0H13.373V-6.846a2.176,2.176,0,0,0-.435-1.489,1.828,1.828,0,0,0-1.421-.483,2.287,2.287,0,0,0-2.139,1.3V0H7.006V-10.566ZM17.9-5.361a6.282,6.282,0,0,1,1.133-3.921,3.63,3.63,0,0,1,3.037-1.479A3.449,3.449,0,0,1,24.784-9.59V-15h2.373V0H25.008l-.117-1.094A3.5,3.5,0,0,1,22.049.2a3.609,3.609,0,0,1-3-1.494A6.512,6.512,0,0,1,17.9-5.361Zm2.373.205a4.4,4.4,0,0,0,.62,2.515,2.012,2.012,0,0,0,1.763.9,2.241,2.241,0,0,0,2.129-1.3V-7.549a2.207,2.207,0,0,0-2.109-1.27,2.027,2.027,0,0,0-1.777.913A4.9,4.9,0,0,0,20.272-5.156ZM36.214-1.035A3.68,3.68,0,0,1,33.245.2a3.28,3.28,0,0,1-2.6-1.006,4.279,4.279,0,0,1-.884-2.91v-6.846h2.373V-3.75q0,2.012,1.67,2.012a2.345,2.345,0,0,0,2.334-1.24v-7.588h2.373V0H36.272ZM47.049-2.871a1.076,1.076,0,0,0-.522-.967,5.557,5.557,0,0,0-1.733-.586,8.911,8.911,0,0,1-2.021-.645,2.7,2.7,0,0,1-1.777-2.49,2.813,2.813,0,0,1,1.152-2.285,4.556,4.556,0,0,1,2.93-.918,4.74,4.74,0,0,1,3.062.938A2.975,2.975,0,0,1,49.3-7.393H46.931a1.462,1.462,0,0,0-.508-1.138,1.946,1.946,0,0,0-1.348-.454,2.1,2.1,0,0,0-1.274.361,1.139,1.139,0,0,0-.493.967.962.962,0,0,0,.459.85,6.312,6.312,0,0,0,1.855.61,8.783,8.783,0,0,1,2.192.732A3.1,3.1,0,0,1,49-4.443,2.6,2.6,0,0,1,49.383-3,2.753,2.753,0,0,1,48.2-.688a5.039,5.039,0,0,1-3.1.884,5.464,5.464,0,0,1-2.314-.469,3.809,3.809,0,0,1-1.582-1.289,3.051,3.051,0,0,1-.566-1.768h2.3a1.672,1.672,0,0,0,.635,1.294,2.467,2.467,0,0,0,1.553.454,2.4,2.4,0,0,0,1.426-.356A1.1,1.1,0,0,0,47.049-2.871ZM54.6-13.135v2.568h1.865v1.758H54.6v5.9a1.3,1.3,0,0,0,.239.874,1.109,1.109,0,0,0,.854.269,3.656,3.656,0,0,0,.83-.1V-.029A5.845,5.845,0,0,1,54.963.2q-2.734,0-2.734-3.018V-8.809H50.49v-1.758h1.738v-2.568ZM64.011-8.4a5.872,5.872,0,0,0-.967-.078,2.177,2.177,0,0,0-2.2,1.25V0H58.474V-10.566h2.266L60.8-9.385a2.674,2.674,0,0,1,2.383-1.377,2.222,2.222,0,0,1,.84.137ZM68.234,0H65.861V-10.566h2.373Zm-2.52-13.311a1.259,1.259,0,0,1,.347-.908,1.309,1.309,0,0,1,.991-.361,1.326,1.326,0,0,1,1,.361,1.25,1.25,0,0,1,.352.908,1.221,1.221,0,0,1-.352.894,1.336,1.336,0,0,1-1,.356,1.32,1.32,0,0,1-.991-.356A1.23,1.23,0,0,1,65.715-13.311ZM77.311,0a3.662,3.662,0,0,1-.273-.986A3.694,3.694,0,0,1,74.264.2a3.728,3.728,0,0,1-2.6-.908A2.906,2.906,0,0,1,70.66-2.959a3,3,0,0,1,1.255-2.593,6.081,6.081,0,0,1,3.589-.9h1.455v-.693A1.851,1.851,0,0,0,76.5-8.462a1.819,1.819,0,0,0-1.4-.493,2.09,2.09,0,0,0-1.328.405,1.254,1.254,0,0,0-.518,1.03H70.885a2.634,2.634,0,0,1,.576-1.626,3.839,3.839,0,0,1,1.567-1.187,5.506,5.506,0,0,1,2.212-.43,4.434,4.434,0,0,1,2.959.933,3.326,3.326,0,0,1,1.133,2.622v4.766a5.4,5.4,0,0,0,.4,2.275V0ZM74.7-1.709a2.7,2.7,0,0,0,1.323-.342,2.284,2.284,0,0,0,.933-.918V-4.961H75.68A3.5,3.5,0,0,0,73.7-4.5a1.487,1.487,0,0,0-.664,1.3,1.387,1.387,0,0,0,.454,1.089A1.758,1.758,0,0,0,74.7-1.709ZM84.522,0H82.149V-15h2.373Z" transform="translate(366.896 122.759)" fill="#12263f"/>
  <path id="Path_182224" data-name="Path 182224" d="M12.295-4.629a5.134,5.134,0,0,1-1.68,3.55A5.726,5.726,0,0,1,6.719.2,5.545,5.545,0,0,1,3.726-.61a5.288,5.288,0,0,1-2-2.29A8.264,8.264,0,0,1,1-6.348V-7.676a8.324,8.324,0,0,1,.713-3.545,5.373,5.373,0,0,1,2.046-2.363,5.707,5.707,0,0,1,3.081-.83,5.5,5.5,0,0,1,3.789,1.274,5.325,5.325,0,0,1,1.67,3.608H9.834a3.512,3.512,0,0,0-.894-2.212,2.953,2.953,0,0,0-2.1-.679A2.885,2.885,0,0,0,4.36-11.244a5.887,5.887,0,0,0-.884,3.455v1.261A6.245,6.245,0,0,0,4.3-3.009,2.738,2.738,0,0,0,6.719-1.8a3.194,3.194,0,0,0,2.188-.654,3.412,3.412,0,0,0,.928-2.178Zm1.733-.752a6.231,6.231,0,0,1,.615-2.8,4.493,4.493,0,0,1,1.729-1.914,4.87,4.87,0,0,1,2.559-.669A4.615,4.615,0,0,1,22.4-9.385a5.416,5.416,0,0,1,1.44,3.652l.01.557a6.286,6.286,0,0,1-.6,2.793,4.439,4.439,0,0,1-1.719,1.9A4.906,4.906,0,0,1,18.95.2a4.584,4.584,0,0,1-3.579-1.489,5.7,5.7,0,0,1-1.343-3.97Zm2.373.205a4.258,4.258,0,0,0,.674,2.554A2.191,2.191,0,0,0,18.95-1.7a2.167,2.167,0,0,0,1.87-.937,4.7,4.7,0,0,0,.669-2.744A4.2,4.2,0,0,0,20.8-7.92a2.2,2.2,0,0,0-1.87-.937,2.178,2.178,0,0,0-1.846.923A4.614,4.614,0,0,0,16.4-5.176Zm11.869-5.391.068,1.1a3.8,3.8,0,0,1,3.047-1.3,2.921,2.921,0,0,1,2.9,1.621,3.748,3.748,0,0,1,3.242-1.621,3.294,3.294,0,0,1,2.6.967,4.257,4.257,0,0,1,.874,2.852V0H38.632V-6.875a2.1,2.1,0,0,0-.439-1.475,1.924,1.924,0,0,0-1.455-.469,1.976,1.976,0,0,0-1.323.435A2.292,2.292,0,0,0,34.7-7.246L34.706,0H32.333V-6.953a1.693,1.693,0,0,0-1.9-1.865,2.089,2.089,0,0,0-2.021,1.162V0H26.034V-10.566ZM48.275.2a4.91,4.91,0,0,1-3.657-1.421,5.154,5.154,0,0,1-1.4-3.784V-5.3a6.34,6.34,0,0,1,.61-2.827,4.646,4.646,0,0,1,1.714-1.938A4.531,4.531,0,0,1,48-10.762a4.147,4.147,0,0,1,3.335,1.377,5.823,5.823,0,0,1,1.177,3.9v.957h-6.9a3.173,3.173,0,0,0,.874,2.07,2.624,2.624,0,0,0,1.929.762,3.213,3.213,0,0,0,2.656-1.318L52.347-1.8a4.272,4.272,0,0,1-1.694,1.47A5.3,5.3,0,0,1,48.275.2Zm-.283-9.053a2,2,0,0,0-1.577.684,3.543,3.543,0,0,0-.767,1.9h4.521v-.176a2.884,2.884,0,0,0-.635-1.8A1.983,1.983,0,0,0,47.992-8.857ZM60.086-8.4a5.872,5.872,0,0,0-.967-.078,2.177,2.177,0,0,0-2.2,1.25V0H54.549V-10.566h2.266l.059,1.182a2.674,2.674,0,0,1,2.383-1.377,2.222,2.222,0,0,1,.84.137ZM65.74-1.7a2.146,2.146,0,0,0,1.475-.518A1.768,1.768,0,0,0,67.84-3.5h2.236a3.486,3.486,0,0,1-.615,1.841A4.035,4.035,0,0,1,67.9-.3,4.656,4.656,0,0,1,65.77.2,4.505,4.505,0,0,1,62.254-1.24a5.694,5.694,0,0,1-1.3-3.965v-.244a5.6,5.6,0,0,1,1.289-3.862,4.464,4.464,0,0,1,3.516-1.45,4.341,4.341,0,0,1,3.071,1.1,3.935,3.935,0,0,1,1.245,2.886H67.84a2.173,2.173,0,0,0-.62-1.494,2,2,0,0,0-1.479-.586,2.088,2.088,0,0,0-1.777.835,4.261,4.261,0,0,0-.635,2.534v.381a4.331,4.331,0,0,0,.62,2.563A2.086,2.086,0,0,0,65.74-1.7ZM74.573,0H72.2V-10.566h2.373Zm-2.52-13.311a1.259,1.259,0,0,1,.347-.908,1.309,1.309,0,0,1,.991-.361,1.326,1.326,0,0,1,1,.361,1.25,1.25,0,0,1,.352.908,1.221,1.221,0,0,1-.352.894,1.336,1.336,0,0,1-1,.356,1.32,1.32,0,0,1-.991-.356A1.23,1.23,0,0,1,72.053-13.311ZM83.649,0a3.662,3.662,0,0,1-.273-.986A3.694,3.694,0,0,1,80.6.2,3.728,3.728,0,0,1,78-.713,2.906,2.906,0,0,1,77-2.959a3,3,0,0,1,1.255-2.593,6.081,6.081,0,0,1,3.589-.9H83.3v-.693a1.851,1.851,0,0,0-.459-1.313,1.819,1.819,0,0,0-1.4-.493,2.09,2.09,0,0,0-1.328.405A1.254,1.254,0,0,0,79.6-7.52H77.224A2.634,2.634,0,0,1,77.8-9.146a3.839,3.839,0,0,1,1.567-1.187,5.506,5.506,0,0,1,2.212-.43,4.434,4.434,0,0,1,2.959.933,3.326,3.326,0,0,1,1.133,2.622v4.766a5.4,5.4,0,0,0,.4,2.275V0ZM81.042-1.709a2.7,2.7,0,0,0,1.323-.342,2.284,2.284,0,0,0,.933-.918V-4.961H82.018a3.5,3.5,0,0,0-1.982.459,1.487,1.487,0,0,0-.664,1.3,1.387,1.387,0,0,0,.454,1.089A1.758,1.758,0,0,0,81.042-1.709ZM90.861,0H88.488V-15h2.373Z" transform="translate(363.636 195.899)" fill="#12263f"/>
  <path id="Path_182225" data-name="Path 182225" d="M9.756-6.348H3.916v4.375h6.826V0h-9.3V-14.219h9.229v1.992H3.916V-8.3h5.84Zm5.18-4.219L15-9.463a3.8,3.8,0,0,1,3.047-1.3,2.921,2.921,0,0,1,2.9,1.621,3.748,3.748,0,0,1,3.242-1.621,3.294,3.294,0,0,1,2.6.967,4.257,4.257,0,0,1,.874,2.852V0H25.3V-6.875a2.1,2.1,0,0,0-.439-1.475A1.924,1.924,0,0,0,23.4-8.818a1.976,1.976,0,0,0-1.323.435,2.292,2.292,0,0,0-.718,1.138L21.371,0H19V-6.953a1.693,1.693,0,0,0-1.9-1.865,2.089,2.089,0,0,0-2.021,1.162V0H12.7V-10.566Zm24.6,5.391a6.291,6.291,0,0,1-1.113,3.911A3.565,3.565,0,0,1,35.438.2,3.589,3.589,0,0,1,32.655-.947v5.01H30.282V-10.566h2.188l.1,1.074a3.485,3.485,0,0,1,2.842-1.27,3.6,3.6,0,0,1,3.032,1.44,6.459,6.459,0,0,1,1.1,4Zm-2.363-.205a4.407,4.407,0,0,0-.63-2.51,2.048,2.048,0,0,0-1.8-.928,2.184,2.184,0,0,0-2.09,1.2V-2.93A2.2,2.2,0,0,0,34.764-1.7a2.045,2.045,0,0,0,1.772-.913A4.851,4.851,0,0,0,37.176-5.381ZM47.279-8.4a5.872,5.872,0,0,0-.967-.078,2.177,2.177,0,0,0-2.2,1.25V0H41.742V-10.566h2.266l.059,1.182a2.674,2.674,0,0,1,2.383-1.377,2.222,2.222,0,0,1,.84.137ZM53.246.2a4.91,4.91,0,0,1-3.657-1.421,5.154,5.154,0,0,1-1.4-3.784V-5.3A6.34,6.34,0,0,1,48.8-8.13a4.646,4.646,0,0,1,1.714-1.938,4.531,4.531,0,0,1,2.461-.693,4.147,4.147,0,0,1,3.335,1.377,5.823,5.823,0,0,1,1.177,3.9v.957h-6.9a3.173,3.173,0,0,0,.874,2.07,2.624,2.624,0,0,0,1.929.762,3.213,3.213,0,0,0,2.656-1.318L57.318-1.8a4.272,4.272,0,0,1-1.694,1.47A5.3,5.3,0,0,1,53.246.2Zm-.283-9.053a2,2,0,0,0-1.577.684,3.543,3.543,0,0,0-.767,1.9H55.14v-.176a2.884,2.884,0,0,0-.635-1.8A1.983,1.983,0,0,0,52.962-8.857ZM65.448-2.871a1.076,1.076,0,0,0-.522-.967,5.557,5.557,0,0,0-1.733-.586,8.911,8.911,0,0,1-2.021-.645,2.7,2.7,0,0,1-1.777-2.49,2.813,2.813,0,0,1,1.152-2.285,4.556,4.556,0,0,1,2.93-.918,4.74,4.74,0,0,1,3.062.938A2.975,2.975,0,0,1,67.7-7.393H65.33a1.462,1.462,0,0,0-.508-1.138,1.946,1.946,0,0,0-1.348-.454,2.1,2.1,0,0,0-1.274.361,1.139,1.139,0,0,0-.493.967.962.962,0,0,0,.459.85,6.312,6.312,0,0,0,1.855.61,8.783,8.783,0,0,1,2.192.732A3.1,3.1,0,0,1,67.4-4.443,2.6,2.6,0,0,1,67.781-3,2.753,2.753,0,0,1,66.6-.688,5.039,5.039,0,0,1,63.5.2,5.464,5.464,0,0,1,61.19-.273a3.809,3.809,0,0,1-1.582-1.289,3.051,3.051,0,0,1-.566-1.768h2.3a1.672,1.672,0,0,0,.635,1.294,2.467,2.467,0,0,0,1.553.454,2.4,2.4,0,0,0,1.426-.356A1.1,1.1,0,0,0,65.448-2.871ZM76.34,0a3.662,3.662,0,0,1-.273-.986A3.694,3.694,0,0,1,73.294.2a3.728,3.728,0,0,1-2.6-.908A2.906,2.906,0,0,1,69.69-2.959a3,3,0,0,1,1.255-2.593,6.081,6.081,0,0,1,3.589-.9h1.455v-.693a1.851,1.851,0,0,0-.459-1.313,1.819,1.819,0,0,0-1.4-.493,2.09,2.09,0,0,0-1.328.405,1.254,1.254,0,0,0-.518,1.03H69.915a2.634,2.634,0,0,1,.576-1.626,3.839,3.839,0,0,1,1.567-1.187,5.506,5.506,0,0,1,2.212-.43,4.434,4.434,0,0,1,2.959.933,3.326,3.326,0,0,1,1.133,2.622v4.766a5.4,5.4,0,0,0,.4,2.275V0ZM73.733-1.709a2.7,2.7,0,0,0,1.323-.342,2.284,2.284,0,0,0,.933-.918V-4.961H74.71a3.5,3.5,0,0,0-1.982.459,1.487,1.487,0,0,0-.664,1.3,1.387,1.387,0,0,0,.454,1.089A1.758,1.758,0,0,0,73.733-1.709Z" transform="translate(369.956 257.039)" fill="#12263f"/>
  <path id="Path_182226" data-name="Path 182226" d="M5.869.2A4.91,4.91,0,0,1,2.212-1.226,5.154,5.154,0,0,1,.811-5.01V-5.3a6.34,6.34,0,0,1,.61-2.827,4.645,4.645,0,0,1,1.714-1.938A4.531,4.531,0,0,1,5.6-10.762,4.147,4.147,0,0,1,8.931-9.385a5.823,5.823,0,0,1,1.177,3.9v.957H3.2a3.173,3.173,0,0,0,.874,2.07A2.624,2.624,0,0,0,6.006-1.7,3.213,3.213,0,0,0,8.662-3.018L9.941-1.8A4.272,4.272,0,0,1,8.247-.327,5.3,5.3,0,0,1,5.869.2ZM5.586-8.857a2,2,0,0,0-1.577.684,3.543,3.543,0,0,0-.767,1.9H7.764v-.176a2.884,2.884,0,0,0-.635-1.8A1.983,1.983,0,0,0,5.586-8.857ZM15.942-7.09l2.012-3.477h2.637L17.358-5.361,20.7,0H18.081L15.971-3.613,13.872,0H11.235l3.34-5.361-3.223-5.205H13.97Zm9.438-6.045v2.568h1.865v1.758H25.38v5.9a1.3,1.3,0,0,0,.239.874,1.109,1.109,0,0,0,.854.269,3.656,3.656,0,0,0,.83-.1V-.029A5.845,5.845,0,0,1,25.742.2q-2.734,0-2.734-3.018V-8.809H21.269v-1.758h1.738v-2.568ZM34.769-8.4a5.872,5.872,0,0,0-.967-.078,2.177,2.177,0,0,0-2.2,1.25V0H29.232V-10.566H31.5l.059,1.182a2.674,2.674,0,0,1,2.383-1.377,2.222,2.222,0,0,1,.84.137ZM42.209,0a3.662,3.662,0,0,1-.273-.986A3.694,3.694,0,0,1,39.162.2a3.728,3.728,0,0,1-2.6-.908,2.906,2.906,0,0,1-1.006-2.246,3,3,0,0,1,1.255-2.593,6.081,6.081,0,0,1,3.589-.9h1.455v-.693A1.851,1.851,0,0,0,41.4-8.462,1.819,1.819,0,0,0,40-8.955a2.09,2.09,0,0,0-1.328.405,1.254,1.254,0,0,0-.518,1.03H35.783a2.634,2.634,0,0,1,.576-1.626,3.838,3.838,0,0,1,1.567-1.187,5.506,5.506,0,0,1,2.212-.43,4.434,4.434,0,0,1,2.959.933A3.326,3.326,0,0,1,44.23-7.207v4.766a5.4,5.4,0,0,0,.4,2.275V0ZM39.6-1.709a2.7,2.7,0,0,0,1.323-.342,2.284,2.284,0,0,0,.933-.918V-4.961H40.578A3.5,3.5,0,0,0,38.6-4.5a1.487,1.487,0,0,0-.664,1.3,1.387,1.387,0,0,0,.454,1.089A1.758,1.758,0,0,0,39.6-1.709Zm11.635.01a2.146,2.146,0,0,0,1.475-.518A1.768,1.768,0,0,0,53.336-3.5h2.236a3.486,3.486,0,0,1-.615,1.841A4.035,4.035,0,0,1,53.395-.3a4.656,4.656,0,0,1-2.129.5A4.505,4.505,0,0,1,47.75-1.24a5.694,5.694,0,0,1-1.3-3.965v-.244a5.6,5.6,0,0,1,1.289-3.862,4.464,4.464,0,0,1,3.516-1.45,4.341,4.341,0,0,1,3.071,1.1,3.935,3.935,0,0,1,1.245,2.886H53.336a2.173,2.173,0,0,0-.62-1.494,2,2,0,0,0-1.479-.586,2.088,2.088,0,0,0-1.777.835,4.261,4.261,0,0,0-.635,2.534v.381a4.331,4.331,0,0,0,.62,2.563A2.086,2.086,0,0,0,51.237-1.7Zm9.282-11.436v2.568h1.865v1.758H60.518v5.9a1.3,1.3,0,0,0,.239.874,1.109,1.109,0,0,0,.854.269,3.656,3.656,0,0,0,.83-.1V-.029A5.845,5.845,0,0,1,60.88.2q-2.734,0-2.734-3.018V-8.809H56.407v-1.758h1.738v-2.568ZM66.9,0H64.526V-10.566H66.9ZM64.38-13.311a1.259,1.259,0,0,1,.347-.908,1.309,1.309,0,0,1,.991-.361,1.326,1.326,0,0,1,1,.361,1.25,1.25,0,0,1,.352.908,1.221,1.221,0,0,1-.352.894,1.336,1.336,0,0,1-1,.356,1.32,1.32,0,0,1-.991-.356A1.23,1.23,0,0,1,64.38-13.311Zm9.008,10.3,2.236-7.559h2.451L74.413,0H72.353L68.661-10.566h2.461ZM85.762,0a3.662,3.662,0,0,1-.273-.986A3.694,3.694,0,0,1,82.715.2a3.728,3.728,0,0,1-2.6-.908,2.906,2.906,0,0,1-1.006-2.246,3,3,0,0,1,1.255-2.593,6.081,6.081,0,0,1,3.589-.9H85.41v-.693a1.851,1.851,0,0,0-.459-1.313,1.819,1.819,0,0,0-1.4-.493,2.09,2.09,0,0,0-1.328.405,1.254,1.254,0,0,0-.518,1.03H79.336a2.634,2.634,0,0,1,.576-1.626,3.839,3.839,0,0,1,1.567-1.187,5.506,5.506,0,0,1,2.212-.43,4.434,4.434,0,0,1,2.959.933,3.326,3.326,0,0,1,1.133,2.622v4.766a5.4,5.4,0,0,0,.4,2.275V0ZM83.155-1.709a2.7,2.7,0,0,0,1.323-.342,2.284,2.284,0,0,0,.933-.918V-4.961H84.131a3.5,3.5,0,0,0-1.982.459,1.487,1.487,0,0,0-.664,1.3,1.387,1.387,0,0,0,.454,1.089A1.758,1.758,0,0,0,83.155-1.709Z" transform="translate(365.096 281.039)" fill="#12263f"/>
  <path id="Path_182227" data-name="Path 182227" d="M8.877-3.662a1.717,1.717,0,0,0-.659-1.445A7.931,7.931,0,0,0,5.84-6.133,11.483,11.483,0,0,1,3.105-7.285a3.649,3.649,0,0,1-1.943-3.184,3.465,3.465,0,0,1,1.4-2.832A5.672,5.672,0,0,1,6.2-14.414a6.145,6.145,0,0,1,2.646.547,4.344,4.344,0,0,1,1.826,1.558,4,4,0,0,1,.664,2.241H8.877a2.228,2.228,0,0,0-.7-1.743,2.882,2.882,0,0,0-2-.63,3.01,3.01,0,0,0-1.88.518,1.723,1.723,0,0,0-.669,1.445,1.559,1.559,0,0,0,.723,1.3A8.325,8.325,0,0,0,6.738-8.159,10.961,10.961,0,0,1,9.4-7.036a4.241,4.241,0,0,1,1.475,1.445,3.764,3.764,0,0,1,.469,1.909A3.384,3.384,0,0,1,9.985-.854,5.909,5.909,0,0,1,6.289.2,6.946,6.946,0,0,1,3.452-.376,4.766,4.766,0,0,1,1.44-1.953,3.93,3.93,0,0,1,.723-4.3H3.193a2.3,2.3,0,0,0,.8,1.875,3.507,3.507,0,0,0,2.295.664A3.047,3.047,0,0,0,8.228-2.28,1.686,1.686,0,0,0,8.877-3.662ZM18.119.2a4.91,4.91,0,0,1-3.657-1.421,5.154,5.154,0,0,1-1.4-3.784V-5.3a6.34,6.34,0,0,1,.61-2.827,4.645,4.645,0,0,1,1.714-1.938,4.531,4.531,0,0,1,2.461-.693,4.147,4.147,0,0,1,3.335,1.377,5.823,5.823,0,0,1,1.177,3.9v.957h-6.9a3.173,3.173,0,0,0,.874,2.07,2.624,2.624,0,0,0,1.929.762,3.213,3.213,0,0,0,2.656-1.318L22.192-1.8A4.272,4.272,0,0,1,20.5-.327,5.3,5.3,0,0,1,18.119.2Zm-.283-9.053a2,2,0,0,0-1.577.684,3.543,3.543,0,0,0-.767,1.9h4.521v-.176a2.884,2.884,0,0,0-.635-1.8A1.983,1.983,0,0,0,17.836-8.857ZM29.931-8.4a5.872,5.872,0,0,0-.967-.078,2.177,2.177,0,0,0-2.2,1.25V0H24.394V-10.566h2.266l.059,1.182A2.674,2.674,0,0,1,29.1-10.762a2.222,2.222,0,0,1,.84.137Zm5.76,5.391,2.236-7.559h2.451L36.717,0H34.656L30.965-10.566h2.461ZM44.583,0H42.21V-10.566h2.373Zm-2.52-13.311a1.259,1.259,0,0,1,.347-.908,1.309,1.309,0,0,1,.991-.361,1.326,1.326,0,0,1,1,.361,1.25,1.25,0,0,1,.352.908,1.221,1.221,0,0,1-.352.894,1.336,1.336,0,0,1-1,.356,1.32,1.32,0,0,1-.991-.356A1.23,1.23,0,0,1,42.063-13.311ZM51.686-1.7a2.146,2.146,0,0,0,1.475-.518A1.768,1.768,0,0,0,53.786-3.5h2.236a3.486,3.486,0,0,1-.615,1.841A4.035,4.035,0,0,1,53.845-.3a4.656,4.656,0,0,1-2.129.5A4.505,4.505,0,0,1,48.2-1.24a5.694,5.694,0,0,1-1.3-3.965v-.244A5.6,5.6,0,0,1,48.19-9.312a4.464,4.464,0,0,1,3.516-1.45,4.341,4.341,0,0,1,3.071,1.1,3.935,3.935,0,0,1,1.245,2.886H53.786a2.173,2.173,0,0,0-.62-1.494,2,2,0,0,0-1.479-.586,2.088,2.088,0,0,0-1.777.835,4.261,4.261,0,0,0-.635,2.534v.381a4.331,4.331,0,0,0,.62,2.563A2.086,2.086,0,0,0,51.686-1.7ZM60.519,0H58.146V-10.566h2.373ZM58-13.311a1.259,1.259,0,0,1,.347-.908,1.309,1.309,0,0,1,.991-.361,1.326,1.326,0,0,1,1,.361,1.25,1.25,0,0,1,.352.908,1.221,1.221,0,0,1-.352.894,1.336,1.336,0,0,1-1,.356,1.32,1.32,0,0,1-.991-.356A1.23,1.23,0,0,1,58-13.311Zm4.838,7.93a6.231,6.231,0,0,1,.615-2.8,4.493,4.493,0,0,1,1.729-1.914,4.87,4.87,0,0,1,2.559-.669,4.615,4.615,0,0,1,3.472,1.377,5.416,5.416,0,0,1,1.44,3.652l.01.557a6.286,6.286,0,0,1-.6,2.793,4.439,4.439,0,0,1-1.719,1.9A4.906,4.906,0,0,1,67.759.2,4.584,4.584,0,0,1,64.18-1.294a5.7,5.7,0,0,1-1.343-3.97Zm2.373.205a4.258,4.258,0,0,0,.674,2.554,2.191,2.191,0,0,0,1.875.923,2.167,2.167,0,0,0,1.87-.937A4.7,4.7,0,0,0,70.3-5.381,4.2,4.2,0,0,0,69.61-7.92a2.2,2.2,0,0,0-1.87-.937,2.178,2.178,0,0,0-1.846.923A4.614,4.614,0,0,0,65.21-5.176Zm15.561,2.3a1.076,1.076,0,0,0-.522-.967,5.557,5.557,0,0,0-1.733-.586,8.911,8.911,0,0,1-2.021-.645,2.7,2.7,0,0,1-1.777-2.49,2.813,2.813,0,0,1,1.152-2.285,4.556,4.556,0,0,1,2.93-.918,4.74,4.74,0,0,1,3.062.938,2.975,2.975,0,0,1,1.167,2.432H80.654a1.462,1.462,0,0,0-.508-1.138A1.946,1.946,0,0,0,78.8-8.984a2.1,2.1,0,0,0-1.274.361,1.139,1.139,0,0,0-.493.967.962.962,0,0,0,.459.85,6.312,6.312,0,0,0,1.855.61,8.783,8.783,0,0,1,2.192.732A3.1,3.1,0,0,1,82.72-4.443,2.6,2.6,0,0,1,83.105-3a2.753,2.753,0,0,1-1.182,2.31,5.039,5.039,0,0,1-3.1.884,5.464,5.464,0,0,1-2.314-.469,3.809,3.809,0,0,1-1.582-1.289,3.051,3.051,0,0,1-.566-1.768h2.3A1.672,1.672,0,0,0,77.3-2.036a2.467,2.467,0,0,0,1.553.454,2.4,2.4,0,0,0,1.426-.356A1.1,1.1,0,0,0,80.771-2.871Z" transform="translate(367.936 342.179)" fill="#12263f"/>
</svg>
