<svg id="t4-i5" xmlns="http://www.w3.org/2000/svg" xmlns:xlink="http://www.w3.org/1999/xlink" width="505" height="310" viewBox="0 0 505 310">
  <defs>
    <clipPath id="clip-path">
      <rect id="Rectangle_37597" data-name="Rectangle 37597" width="505" height="310" fill="none"/>
    </clipPath>
    <clipPath id="clip-path-3">
      <rect id="Rectangle_37553" data-name="Rectangle 37553" width="101.042" height="141.157" transform="translate(326.489 24.802)" fill="none"/>
    </clipPath>
    <clipPath id="clip-path-4">
      <rect id="Rectangle_37554" data-name="Rectangle 37554" width="27.886" height="15.985" transform="translate(334.051 124.18)" fill="none"/>
    </clipPath>
    <clipPath id="clip-path-5">
      <rect id="Rectangle_37556" data-name="Rectangle 37556" width="12.917" height="12.918" transform="translate(342.733 74.303)" fill="none"/>
    </clipPath>
    <clipPath id="clip-path-6">
      <rect id="Rectangle_37557" data-name="Rectangle 37557" width="12.918" height="12.918" transform="translate(358.58 77.326)" fill="none"/>
    </clipPath>
    <clipPath id="clip-path-7">
      <rect id="Rectangle_37558" data-name="Rectangle 37558" width="12.918" height="12.918" transform="translate(375.011 80.474)" fill="none"/>
    </clipPath>
    <clipPath id="clip-path-8">
      <rect id="Rectangle_37559" data-name="Rectangle 37559" width="12.918" height="12.918" transform="translate(391.441 83.623)" fill="none"/>
    </clipPath>
    <clipPath id="clip-path-9">
      <rect id="Rectangle_37560" data-name="Rectangle 37560" width="13.17" height="13.167" transform="translate(339.454 90.77)" fill="none"/>
    </clipPath>
    <clipPath id="clip-path-10">
      <rect id="Rectangle_37561" data-name="Rectangle 37561" width="12.918" height="12.918" transform="translate(355.39 93.982)" fill="none"/>
    </clipPath>
    <clipPath id="clip-path-11">
      <rect id="Rectangle_37562" data-name="Rectangle 37562" width="12.918" height="12.918" transform="translate(371.822 97.123)" fill="none"/>
    </clipPath>
    <clipPath id="clip-path-12">
      <rect id="Rectangle_37563" data-name="Rectangle 37563" width="12.918" height="12.918" transform="translate(388.253 100.27)" fill="none"/>
    </clipPath>
    <clipPath id="clip-path-13">
      <rect id="Rectangle_37566" data-name="Rectangle 37566" width="12.918" height="12.918" transform="translate(336.372 107.464)" fill="none"/>
    </clipPath>
    <clipPath id="clip-path-14">
      <rect id="Rectangle_37567" data-name="Rectangle 37567" width="12.918" height="12.918" transform="translate(352.237 110.489)" fill="none"/>
    </clipPath>
    <clipPath id="clip-path-15">
      <rect id="Rectangle_37568" data-name="Rectangle 37568" width="12.918" height="12.918" transform="translate(368.659 113.636)" fill="none"/>
    </clipPath>
    <clipPath id="clip-path-16">
      <rect id="Rectangle_37569" data-name="Rectangle 37569" width="12.918" height="12.918" transform="translate(385.089 116.784)" fill="none"/>
    </clipPath>
    <clipPath id="clip-path-17">
      <rect id="Rectangle_37571" data-name="Rectangle 37571" width="12.918" height="12.918" transform="translate(365.467 130.301)" fill="none"/>
    </clipPath>
    <clipPath id="clip-path-18">
      <rect id="Rectangle_37572" data-name="Rectangle 37572" width="12.918" height="12.918" transform="translate(381.898 133.448)" fill="none"/>
    </clipPath>
    <clipPath id="clip-path-19">
      <rect id="Rectangle_37594" data-name="Rectangle 37594" width="45.884" height="81.612" transform="translate(259.236 148.671)" fill="none"/>
    </clipPath>
    <clipPath id="clip-path-20">
      <rect id="Rectangle_37595" data-name="Rectangle 37595" width="52.081" height="4.073" transform="translate(145.889 232.642)" fill="none"/>
    </clipPath>
  </defs>
  <g id="Group_117594" data-name="Group 117594" clip-path="url(#clip-path)">
    <g id="Group_117593" data-name="Group 117593">
      <g id="Group_117592" data-name="Group 117592" clip-path="url(#clip-path)">
        <path id="Path_179176" data-name="Path 179176" d="M42.849,159.2c0-4.815,2.923-7.93,7.056-7.93s7.015,3.04,7.015,7.93-2.882,7.929-7.015,7.929-7.056-3.081-7.056-7.929m10.013,0c0-3.081-1.176-4.56-2.957-4.56s-2.957,1.52-2.957,4.56,1.21,4.559,2.957,4.559,2.957-1.478,2.957-4.559m13.948-7.607h4.814L52.257,180.359H47.443Zm-4.663,21.162c0-4.814,2.923-7.93,7.015-7.93s7.056,3.081,7.056,7.93-2.923,7.937-7.056,7.937-7.015-3.088-7.015-7.937m9.972,0c0-3.04-1.176-4.56-2.957-4.56s-2.958,1.479-2.958,4.56,1.218,4.567,2.958,4.567,2.957-1.52,2.957-4.567" fill="#ebebeb"/>
        <path id="Path_179177" data-name="Path 179177" d="M504.631,35.783A31.526,31.526,0,1,1,468.69,9.4l.082-.013a31.492,31.492,0,0,1,35.859,26.4" fill="#f5f5f5"/>
        <path id="Path_179178" data-name="Path 179178" d="M497.217,36.9a24.03,24.03,0,1,1-27.4-20.1l.071-.011A24.009,24.009,0,0,1,497.217,36.9" fill="#ebebeb"/>
        <path id="Path_179179" data-name="Path 179179" d="M497.094,36.162a16.251,16.251,0,0,1-1.059-2.751,25.267,25.267,0,0,0-3.838-6.877,24.521,24.521,0,0,0-3.817-3.845,24.061,24.061,0,0,0-5.268-3.218,22.819,22.819,0,0,0-3.136-1.142,21.936,21.936,0,0,0-3.4-.688,23.9,23.9,0,0,0-3.6-.192,24.9,24.9,0,0,0-3.686.378,26.378,26.378,0,0,0-3.584.949,23.265,23.265,0,0,0-3.266,1.458,22.01,22.01,0,0,0-2.944,1.85,21.732,21.732,0,0,0-2.531,2.173,23.876,23.876,0,0,0-3.782,4.876,24.255,24.255,0,0,0-2.187,4.938,25.349,25.349,0,0,0-1.128,7.779,17.452,17.452,0,0,1,0,2.957c-.131.021-.468-.99-.688-2.916a22.168,22.168,0,0,1,.619-8.177,24.128,24.128,0,0,1,2.1-5.323,24.468,24.468,0,0,1,3.907-5.317,23.72,23.72,0,0,1,2.675-2.393,24.189,24.189,0,0,1,6.685-3.638A26.335,26.335,0,0,1,469.034,16a27.053,27.053,0,0,1,3.975-.4,24.914,24.914,0,0,1,3.879.234,23.98,23.98,0,0,1,3.659.812A23.451,23.451,0,0,1,483.9,17.93a24.075,24.075,0,0,1,9.347,7.806,22.253,22.253,0,0,1,3.48,7.427c.46,1.905.481,2.978.371,3" fill="#e0e0e0"/>
        <path id="Path_179180" data-name="Path 179180" d="M478.284,54.249l.688,4.127-3.687.612-.687-4.017c-3.687.379-7.373-.179-9.663-1.43l1.279-4.814a15.141,15.141,0,0,0,7.565,1.437l-1.018-6.155c-4.257-.324-9.05-.929-9.924-6.19-.646-3.913,1.637-7.737,7.352-9.36l-.688-4.127,3.687-.612.687,4.017a16.912,16.912,0,0,1,7.854,1.011l-1.093,4.814a15.335,15.335,0,0,0-5.935-.949l1.038,6.265c4.25.282,8.941.9,9.835,6.1.633,3.831-1.623,7.614-7.29,9.271m-6.41-15.68L471,33.335c-1.878.763-2.476,1.96-2.27,3.177s1.458,1.809,3.143,2.057M479.68,46.4c-.213-1.293-1.375-1.816-3.074-2.1l.846,5.082c1.8-.708,2.455-1.8,2.255-2.978Z" fill="#e0e0e0"/>
        <path id="Path_179181" data-name="Path 179181" d="M478.132,213.62a25.247,25.247,0,1,1-15.191-32.312l.061.022A25.208,25.208,0,0,1,478.138,213.6l-.006.016" fill="#f5f5f5"/>
        <path id="Path_179182" data-name="Path 179182" d="M472.506,211.57A19.257,19.257,0,1,1,460.9,186.934l.079.029a19.215,19.215,0,0,1,11.527,24.607" fill="#ebebeb"/>
        <path id="Path_179183" data-name="Path 179183" d="M472.706,211a11.492,11.492,0,0,1,.315-2.344,20.452,20.452,0,0,0-.074-6.3,19.931,19.931,0,0,0-1.2-4.125,19.089,19.089,0,0,0-2.476-4.278,18.465,18.465,0,0,0-3.891-3.8,18.73,18.73,0,0,0-2.457-1.506,19.523,19.523,0,0,0-2.751-1.148,20.152,20.152,0,0,0-2.888-.689,18.713,18.713,0,0,0-2.875-.241,17.6,17.6,0,0,0-2.751.194,16.562,16.562,0,0,0-2.605.563,19.184,19.184,0,0,0-4.534,1.981,19.543,19.543,0,0,0-3.438,2.635,20.33,20.33,0,0,0-3.79,5.033c-.688,1.328-1.031,2.111-1.142,2.064s.05-.873.619-2.318a17.894,17.894,0,0,1,3.57-5.5,19.527,19.527,0,0,1,3.521-2.944,19.947,19.947,0,0,1,4.78-2.243,18.3,18.3,0,0,1,2.793-.653,18.719,18.719,0,0,1,2.991-.241,19.046,19.046,0,0,1,3.074.193,19.655,19.655,0,0,1,8.707,3.639,19.631,19.631,0,0,1,4.126,4.125,19.258,19.258,0,0,1,3.673,9.113,17.819,17.819,0,0,1-.392,6.562,5.916,5.916,0,0,1-.907,2.234" fill="#e0e0e0"/>
        <path id="Path_179184" data-name="Path 179184" d="M452.554,216.529l-1.1,3.164-2.827-.984,1.073-3.081a14.1,14.1,0,0,1-6.258-4.7l2.751-2.909a12.122,12.122,0,0,0,4.814,3.913l1.637-4.718c-2.875-1.857-6.018-4.126-4.615-8.156,1.039-3,4.127-4.814,8.755-3.776l1.087-3.136,2.826.983-1.073,3.081a13.508,13.508,0,0,1,5.145,3.714l-2.621,2.985a12.3,12.3,0,0,0-3.817-2.971l-1.664,4.814c2.882,1.823,5.963,4.065,4.581,8.054-1.039,2.929-4.072,4.731-8.694,3.727m1.507-13.473,1.375-4.016c-1.616-.179-2.5.433-2.82,1.375s.337,1.809,1.445,2.641m2.5,8.494c.337-.99-.3-1.809-1.375-2.655l-1.376,3.9c1.554.179,2.435-.337,2.751-1.245" fill="#e0e0e0"/>
        <path id="Path_179185" data-name="Path 179185" d="M124.467,230.057a16.929,16.929,0,1,1-10.186-21.666l.041.015a16.9,16.9,0,0,1,10.149,21.64l0,.011" fill="#f5f5f5"/>
        <path id="Path_179186" data-name="Path 179186" d="M120.695,228.683a12.912,12.912,0,1,1-7.782-16.52l.053.02a12.884,12.884,0,0,1,7.729,16.5" fill="#ebebeb"/>
        <path id="Path_179187" data-name="Path 179187" d="M120.828,228.3a7.727,7.727,0,0,1,.212-1.573,13.662,13.662,0,0,0-.051-4.224,13.281,13.281,0,0,0-.8-2.767,12.84,12.84,0,0,0-1.66-2.868,12.509,12.509,0,0,0-4.257-3.56,13.1,13.1,0,0,0-1.844-.77,13.441,13.441,0,0,0-1.937-.462,12.583,12.583,0,0,0-1.928-.161,11.852,11.852,0,0,0-1.844.129,11.2,11.2,0,0,0-1.748.378,12.867,12.867,0,0,0-3.039,1.328,13.1,13.1,0,0,0-2.306,1.767,13.628,13.628,0,0,0-2.541,3.375c-.461.89-.692,1.416-.766,1.384s.033-.586.416-1.554a11.973,11.973,0,0,1,2.393-3.69,13.2,13.2,0,0,1,2.361-1.973,13.382,13.382,0,0,1,3.205-1.5,12.287,12.287,0,0,1,1.872-.438,14.315,14.315,0,0,1,4.068-.032,13.248,13.248,0,0,1,8.6,5.206A12.921,12.921,0,0,1,121.7,222.4a11.98,11.98,0,0,1-.263,4.4,3.969,3.969,0,0,1-.609,1.5" fill="#e0e0e0"/>
        <path id="Path_179188" data-name="Path 179188" d="M107.316,232.008l-.737,2.121-1.9-.659.72-2.066a9.462,9.462,0,0,1-4.2-3.155l1.845-1.95a8.138,8.138,0,0,0,3.228,2.624l1.1-3.164c-1.927-1.245-4.035-2.767-3.094-5.469.7-2.011,2.767-3.228,5.871-2.532l.728-2.1,1.9.66-.72,2.066a9.059,9.059,0,0,1,3.45,2.49l-1.757,2a8.243,8.243,0,0,0-2.56-1.992l-1.116,3.228c1.932,1.222,4,2.726,3.071,5.4-.7,1.965-2.73,3.173-5.829,2.5m1.01-9.034.923-2.693c-1.084-.12-1.674.29-1.891.922s.226,1.213.968,1.771m1.679,5.7c.226-.664-.2-1.213-.922-1.78l-.923,2.615c1.043.12,1.633-.226,1.845-.835" fill="#e0e0e0"/>
        <path id="Path_179189" data-name="Path 179189" d="M475.146,256.6c0,.15-101.888.278-227.553.278s-227.532-.128-227.532-.278,101.867-.289,227.575-.289,227.51.129,227.51.289" fill="#263238"/>
        <path id="Path_179190" data-name="Path 179190" d="M334.073,301.438l-61.353,1.988-47.572-44.14h59.614Z" fill="#f5f5f5"/>
        <path id="Path_179191" data-name="Path 179191" d="M312.114,308.012,250.761,310l-47.578-44.14H262.8Z" fill="#f5f5f5"/>
        <path id="Path_179192" data-name="Path 179192" d="M322.437,303.638l-61.353,1.988L213.5,261.479h59.621Z" fill="#e0e0e0"/>
        <path id="Path_179193" data-name="Path 179193" d="M265.526,259.286H205.912l47.572,44.139,63.313-2.049Z" fill="#f5f5f5"/>
        <path id="Path_179194" data-name="Path 179194" d="M265.526,259.286l.241.179.687.571,2.751,2.242,10.468,8.528,37.193,30.446.323.261h-.419l-60.721,1.995-2.593.082h-.076l-.055-.048L205.844,259.4l-.282-.268h.385l43.286.069,12.07.041h-.027l-12.084.041-43.245.069.1-.268L253.642,303.2l-.131-.048,2.593-.082,60.728-1.947-.1.275-37.076-30.515c-4.477-3.707-8.005-6.616-10.419-8.61l-2.751-2.284-.688-.591Z" fill="#263238"/>
        <path id="Path_179195" data-name="Path 179195" d="M286.9,284.739c0,.1-9.505.481-21.237.846s-21.245.585-21.252.488,9.505-.481,21.238-.846,21.251-.584,21.251-.488" fill="#263238"/>
        <path id="Path_179196" data-name="Path 179196" d="M291.97,288.487c0,.1-9.628.475-21.574.839s-21.582.585-21.589.481,9.629-.474,21.582-.839,21.581-.557,21.581-.481" fill="#263238"/>
        <path id="Path_179197" data-name="Path 179197" d="M297.314,292.284c0,.1-9.725.495-21.726.88s-21.732.626-21.739.523,9.724-.488,21.725-.88,21.74-.619,21.74-.523" fill="#263238"/>
        <path id="Path_179198" data-name="Path 179198" d="M283.971,281.328c0,.1-9.787.495-21.856.873s-21.871.619-21.871.516,9.78-.488,21.857-.873,21.863-.612,21.87-.516" fill="#263238"/>
        <path id="Path_179199" data-name="Path 179199" d="M263.752,267.215c0,.1-9.078.352-20.282.572s-20.281.309-20.288.206,9.078-.351,20.282-.564,20.288-.309,20.288-.214" fill="#263238"/>
        <path id="Path_179200" data-name="Path 179200" d="M268.82,270.984c0,.1-9.353.358-20.9.578s-20.908.323-20.915.22,9.36-.358,20.908-.578,20.907-.323,20.907-.22" fill="#263238"/>
        <path id="Path_179201" data-name="Path 179201" d="M273.889,274.733c0,.1-9.814.371-21.932.605s-21.939.337-21.939.241,9.814-.371,21.932-.6,21.939-.331,21.939-.248" fill="#263238"/>
        <path id="Path_179202" data-name="Path 179202" d="M278.965,278.515c0,.1-9.821.365-21.932.6s-21.946.344-21.946.241,9.821-.364,21.939-.6,21.932-.337,21.939-.241" fill="#263238"/>
        <path id="Path_179203" data-name="Path 179203" d="M260.822,263.8a1.744,1.744,0,0,1-.426.041l-1.218.055-4.484.117-14.793.268-14.8.131h-5.7a1.783,1.783,0,0,1-.426,0,1.746,1.746,0,0,1,.426-.041l1.218-.055,4.484-.117,14.793-.268,14.786-.165h5.709a1.911,1.911,0,0,1,.433.034" fill="#263238"/>
        <path id="Path_179204" data-name="Path 179204" d="M311.509,277.006l-17.969-16.452,62.207-2.464,18.277,10.117Z" fill="#455a64"/>
        <path id="Path_179205" data-name="Path 179205" d="M300.79,262.86l3.5,2.993-.016-2.132-3.7-2.764Z" fill="#263238"/>
        <path id="Path_179206" data-name="Path 179206" d="M304.234,263.855l5.039-.174-4.052-2.938-4.644.213Z" fill="#7cc5ff"/>
        <path id="Path_179207" data-name="Path 179207" d="M304.234,263.855l.055,2,4.913-.316.071-1.856Z" fill="#263238"/>
        <path id="Path_179208" data-name="Path 179208" d="M309.273,263.681a28.705,28.705,0,0,1-4.06-2.606l-.237-.174.127.039a25.721,25.721,0,0,1-4.526,0,26.338,26.338,0,0,1,4.51-.426h.071l.055.039.245.166a29.79,29.79,0,0,1,3.815,2.962" fill="#263238"/>
        <path id="Path_179209" data-name="Path 179209" d="M304.3,265.853c-.111,0-.213-.442-.229-.987s.071-.995.182-.995.213.442.229.987-.1.987-.182.995" fill="#455a64"/>
        <path id="Path_179210" data-name="Path 179210" d="M309.226,262.7l3.491,2.993-.016-2.132L309,260.8Z" fill="#263238"/>
        <path id="Path_179211" data-name="Path 179211" d="M312.67,263.7l5.031-.174-4.052-2.938L309,260.8Z" fill="#e0e0e0"/>
        <path id="Path_179212" data-name="Path 179212" d="M312.67,263.7l.047,2,4.921-.324.063-1.848Z" fill="#263238"/>
        <path id="Path_179213" data-name="Path 179213" d="M317.724,263.523a28.341,28.341,0,0,1-4.052-2.606l-.245-.174h.135a25.812,25.812,0,0,1-4.534,0,26.238,26.238,0,0,1,4.51-.427h.071l.055.04.245.166a28.255,28.255,0,0,1,3.815,3" fill="#263238"/>
        <path id="Path_179214" data-name="Path 179214" d="M312.7,265.7c-.118,0-.221-.442-.237-.987s.071-.995.182-.995.221.434.229.987-.063.987-.174.995" fill="#455a64"/>
        <path id="Path_179215" data-name="Path 179215" d="M317.29,262.591l3.5,2.993-.016-2.132-3.7-2.764Z" fill="#263238"/>
        <path id="Path_179216" data-name="Path 179216" d="M320.734,263.586l5.039-.166-4.052-2.946-4.644.213Z" fill="#455a64"/>
        <path id="Path_179217" data-name="Path 179217" d="M320.734,263.586l.055,2,4.921-.316.063-1.848Z" fill="#263238"/>
        <path id="Path_179218" data-name="Path 179218" d="M325.773,263.421a28.854,28.854,0,0,1-4.052-2.614l-.245-.166.135.039a26.2,26.2,0,0,1-4.534,0,25.839,25.839,0,0,1,4.51-.418h.087l.055.039.245.174a28.206,28.206,0,0,1,3.8,2.946" fill="#263238"/>
        <path id="Path_179219" data-name="Path 179219" d="M320.773,265.585c-.118,0-.221-.434-.237-.979s.071-1,.182-1,.221.442.229.987-.063.995-.174.995" fill="#455a64"/>
        <path id="Path_179220" data-name="Path 179220" d="M325.7,262.354l3.491,2.993-.016-2.132-3.7-2.764Z" fill="#263238"/>
        <path id="Path_179221" data-name="Path 179221" d="M329.138,263.349l5.039-.174-4.052-2.938-4.644.213Z" fill="#455a64"/>
        <path id="Path_179222" data-name="Path 179222" d="M329.138,263.349l.055,2,4.921-.324.063-1.848Z" fill="#263238"/>
        <path id="Path_179223" data-name="Path 179223" d="M334.177,263.176a28.337,28.337,0,0,1-4.052-2.606l-.245-.174h.135a25.812,25.812,0,0,1-4.534,0,26.238,26.238,0,0,1,4.51-.427h.071l.055.04.245.166a28.255,28.255,0,0,1,3.815,3" fill="#263238"/>
        <path id="Path_179224" data-name="Path 179224" d="M329.177,265.356c-.118,0-.221-.442-.237-.987s.071-.995.182-.995.221.434.229.987-.063.995-.174.995" fill="#455a64"/>
        <path id="Path_179225" data-name="Path 179225" d="M334.224,262.141l3.491,2.993L337.7,263l-3.7-2.764Z" fill="#263238"/>
        <path id="Path_179226" data-name="Path 179226" d="M337.668,263.136l5.039-.166-4.06-2.946-4.644.213Z" fill="#455a64"/>
        <path id="Path_179227" data-name="Path 179227" d="M337.668,263.136l.047,2,4.921-.316.071-1.848Z" fill="#263238"/>
        <path id="Path_179228" data-name="Path 179228" d="M342.7,262.986a28.337,28.337,0,0,1-4.052-2.606l-.237-.166h.127a25.812,25.812,0,0,1-4.534,0,26.13,26.13,0,0,1,4.51-.419h.134l.237.174a28.673,28.673,0,0,1,3.815,3.017" fill="#263238"/>
        <path id="Path_179229" data-name="Path 179229" d="M337.7,265.134c-.111,0-.221-.433-.229-.987s.063-.987.174-.994.221.442.237.986-.071.995-.182.995" fill="#455a64"/>
        <path id="Path_179230" data-name="Path 179230" d="M342.359,261.762l3.5,2.993-.016-2.132-3.7-2.764Z" fill="#263238"/>
        <path id="Path_179231" data-name="Path 179231" d="M345.8,262.757l5.039-.174-4.052-2.938-4.644.213Z" fill="#455a64"/>
        <path id="Path_179232" data-name="Path 179232" d="M345.8,262.757l.055,2,4.921-.324.063-1.848Z" fill="#263238"/>
        <path id="Path_179233" data-name="Path 179233" d="M350.842,262.583a28.337,28.337,0,0,1-4.052-2.606l-.245-.174h.127a25.721,25.721,0,0,1-4.526,0,26.238,26.238,0,0,1,4.51-.427h.071l.055.04.245.166a29.77,29.77,0,0,1,3.815,3" fill="#263238"/>
        <path id="Path_179234" data-name="Path 179234" d="M345.835,264.755c-.112,0-.214-.442-.23-.987s.071-.995.182-.995.213.434.229.987-.064.987-.181.995" fill="#455a64"/>
        <path id="Path_179235" data-name="Path 179235" d="M350.321,261.3l3.491,2.993-.016-2.14-3.7-2.756Z" fill="#263238"/>
        <path id="Path_179236" data-name="Path 179236" d="M353.764,262.3l5.031-.174-4.052-2.938-4.644.213Z" fill="#455a64"/>
        <path id="Path_179237" data-name="Path 179237" d="M353.764,262.3l.047,2,4.921-.324.063-1.848Z" fill="#263238"/>
        <path id="Path_179238" data-name="Path 179238" d="M358.8,262.125a27.69,27.69,0,0,1-4.06-2.606l-.237-.174.127.039a25.618,25.618,0,0,1-4.534,0,26.541,26.541,0,0,1,4.51-.426h.071l.063.039.237.166a28.623,28.623,0,0,1,3.823,2.962" fill="#263238"/>
        <path id="Path_179239" data-name="Path 179239" d="M353.8,264.3c-.111,0-.221-.442-.229-.987s.063-.995.174-.995.221.434.237.987-.071.987-.182.995" fill="#455a64"/>
        <path id="Path_179240" data-name="Path 179240" d="M306.414,268.483l3.5,2.993-.016-2.132-3.7-2.764Z" fill="#263238"/>
        <path id="Path_179241" data-name="Path 179241" d="M309.858,269.479l5.039-.174-4.052-2.938-4.644.213Z" fill="#455a64"/>
        <path id="Path_179242" data-name="Path 179242" d="M309.858,269.479l.055,2,4.913-.316.071-1.856Z" fill="#263238"/>
        <path id="Path_179243" data-name="Path 179243" d="M314.9,269.3a28.705,28.705,0,0,1-4.06-2.606l-.237-.174h.127a25.721,25.721,0,0,1-4.526,0,26.238,26.238,0,0,1,4.51-.427h.071l.055.04.245.166a29.769,29.769,0,0,1,3.815,3" fill="#263238"/>
        <path id="Path_179244" data-name="Path 179244" d="M309.889,271.477c-.111,0-.213-.442-.229-.987s.071-.995.182-.995.213.434.229.987-.064.987-.182.995" fill="#455a64"/>
        <path id="Path_179245" data-name="Path 179245" d="M314.849,268.325l3.491,2.993-.016-2.132-3.7-2.764Z" fill="#263238"/>
        <path id="Path_179246" data-name="Path 179246" d="M318.285,269.321l5.039-.174-4.052-2.938-4.644.213Z" fill="#455a64"/>
        <path id="Path_179247" data-name="Path 179247" d="M318.285,269.321l.055,2,4.921-.324.063-1.848Z" fill="#263238"/>
        <path id="Path_179248" data-name="Path 179248" d="M323.324,269.147a28.337,28.337,0,0,1-4.052-2.606l-.245-.174.135.039a25.618,25.618,0,0,1-4.534,0,26.338,26.338,0,0,1,4.51-.426h.071l.055.039.245.166a27.6,27.6,0,0,1,3.815,2.962" fill="#263238"/>
        <path id="Path_179249" data-name="Path 179249" d="M318.325,271.319c-.118,0-.221-.442-.237-.987s.071-.995.182-.995.221.434.229.987-.063.987-.174.995" fill="#455a64"/>
        <path id="Path_179250" data-name="Path 179250" d="M322.914,268.215l3.5,2.993-.016-2.132-3.7-2.764Z" fill="#263238"/>
        <path id="Path_179251" data-name="Path 179251" d="M326.357,269.21l5.039-.166-4.052-2.946-4.644.213Z" fill="#455a64"/>
        <path id="Path_179252" data-name="Path 179252" d="M326.357,269.21l.055,2,4.921-.316.063-1.848Z" fill="#263238"/>
        <path id="Path_179253" data-name="Path 179253" d="M331.4,269.044a29.711,29.711,0,0,1-4.052-2.614l-.245-.166.135.039a26.207,26.207,0,0,1-4.534,0,25.836,25.836,0,0,1,4.51-.418h.071l.055.039.245.174a28.189,28.189,0,0,1,3.815,2.946" fill="#263238"/>
        <path id="Path_179254" data-name="Path 179254" d="M326.413,271.208c-.118,0-.221-.434-.237-.979s.071-1,.182-1,.221.442.229.987-.079.995-.174.995" fill="#455a64"/>
        <path id="Path_179255" data-name="Path 179255" d="M331.317,267.978l3.5,2.993-.016-2.14-3.7-2.756Z" fill="#263238"/>
        <path id="Path_179256" data-name="Path 179256" d="M334.761,268.973l5.039-.174-4.052-2.938-4.644.213Z" fill="#455a64"/>
        <path id="Path_179257" data-name="Path 179257" d="M334.761,268.973l.055,2,4.921-.324.063-1.848Z" fill="#263238"/>
        <path id="Path_179258" data-name="Path 179258" d="M339.84,268.8a28.341,28.341,0,0,1-4.052-2.606l-.245-.174.135.039a25.624,25.624,0,0,1-4.534,0,26.337,26.337,0,0,1,4.51-.426h.071l.055.039.245.166a28.992,28.992,0,0,1,3.815,2.962" fill="#263238"/>
        <path id="Path_179259" data-name="Path 179259" d="M334.8,270.971c-.118,0-.221-.442-.237-.987s.071-.995.182-.995.221.434.229.987-.063.987-.174.995" fill="#455a64"/>
        <path id="Path_179260" data-name="Path 179260" d="M339.848,267.765l3.491,2.993-.016-2.132-3.7-2.764Z" fill="#263238"/>
        <path id="Path_179261" data-name="Path 179261" d="M343.291,268.76l5.039-.166-4.06-2.946-4.644.213Z" fill="#455a64"/>
        <path id="Path_179262" data-name="Path 179262" d="M343.291,268.76l.047,2,4.921-.316.071-1.848Z" fill="#263238"/>
        <path id="Path_179263" data-name="Path 179263" d="M348.322,268.586a28.339,28.339,0,0,1-4.052-2.606l-.237-.166h.127a25.812,25.812,0,0,1-4.534,0,26.542,26.542,0,0,1,4.51-.427h.134l.237.174a28.652,28.652,0,0,1,3.815,3.025" fill="#263238"/>
        <path id="Path_179264" data-name="Path 179264" d="M343.323,270.758c-.111,0-.221-.434-.229-.987s.063-.988.174-.995.221.442.237.987-.071.995-.182.995" fill="#455a64"/>
        <path id="Path_179265" data-name="Path 179265" d="M347.983,267.385l3.5,2.993-.016-2.14-3.7-2.757Z" fill="#263238"/>
        <path id="Path_179266" data-name="Path 179266" d="M351.427,268.381l5.039-.174-4.052-2.938-4.644.213Z" fill="#455a64"/>
        <path id="Path_179267" data-name="Path 179267" d="M351.427,268.381l.055,2,4.913-.324.071-1.848Z" fill="#263238"/>
        <path id="Path_179268" data-name="Path 179268" d="M356.466,268.207a28.705,28.705,0,0,1-4.06-2.606l-.237-.174.127.039a25.721,25.721,0,0,1-4.526,0,26.338,26.338,0,0,1,4.51-.426h.071l.055.039.245.166a29,29,0,0,1,3.815,2.962" fill="#263238"/>
        <path id="Path_179269" data-name="Path 179269" d="M351.458,270.379c-.111,0-.213-.442-.229-.987s.071-.995.182-.995.213.434.229.987-.064.987-.182.995" fill="#455a64"/>
        <path id="Path_179270" data-name="Path 179270" d="M355.944,266.927l3.491,2.993-.016-2.14-3.7-2.757Z" fill="#263238"/>
        <path id="Path_179271" data-name="Path 179271" d="M359.388,267.923l5.039-.174-4.06-2.938-4.644.213Z" fill="#455a64"/>
        <path id="Path_179272" data-name="Path 179272" d="M359.388,267.923l.047,2,4.921-.324.071-1.848Z" fill="#263238"/>
        <path id="Path_179273" data-name="Path 179273" d="M364.419,267.725a28.337,28.337,0,0,1-4.052-2.606l-.237-.174.127.039a25.618,25.618,0,0,1-4.534,0,25.559,25.559,0,0,1,4.51-.426h.134l.237.166a27.546,27.546,0,0,1,3.815,3" fill="#263238"/>
        <path id="Path_179274" data-name="Path 179274" d="M359.42,269.921c-.111,0-.221-.442-.229-.987s.063-.995.174-.995.221.434.237.987-.071.987-.182.995" fill="#455a64"/>
        <path id="Path_179275" data-name="Path 179275" d="M391.495,263.689l-70.532,3.839-9.367,8.854L293.54,260.553v4.6l18.7,17.921,10.324-10.038,70-4.179Z" fill="#263238"/>
        <path id="Path_179276" data-name="Path 179276" d="M312.243,283.072l63.731-3.728,16.6-10.489-71.693,2.812Z" fill="#263238"/>
        <path id="Path_179277" data-name="Path 179277" d="M392.569,268.855a.643.643,0,0,1-.213.039l-.64.056-2.456.181-9.036.609-29.832,1.84-27.818,1.58.1-.04-7.59,7.29c-.893.837-1.58,1.5-2.085,1.975l-.553.5a1.014,1.014,0,0,1-.2.166,1.827,1.827,0,0,1,.166-.2l.521-.537,2.03-2.03,7.5-7.385.039-.04h.056l27.817-1.706,29.832-1.721,9.052-.474,2.456-.1h.861Z" fill="#455a64"/>
        <path id="Path_179278" data-name="Path 179278" d="M322.566,273.033a10.051,10.051,0,0,1-1-2.693,10.635,10.635,0,0,1-.608-2.812,10.085,10.085,0,0,1,1,2.693,10.626,10.626,0,0,1,.608,2.812" fill="#455a64"/>
        <path id="Path_179279" data-name="Path 179279" d="M400.18,165.9l-70.412-13.476a3.971,3.971,0,0,1-3.154-4.646v0L349.271,29.4a5.648,5.648,0,0,1,6.6-4.48L423,37.773a5.641,5.641,0,0,1,4.48,6.6L404.845,162.776a3.971,3.971,0,0,1-4.664,3.127h0" fill="#455a64"/>
        <g id="Group_117540" data-name="Group 117540" opacity="0.4">
          <g id="Group_117539" data-name="Group 117539">
            <g id="Group_117538" data-name="Group 117538" clip-path="url(#clip-path-3)">
              <path id="Path_179280" data-name="Path 179280" d="M400.127,165.886,329.715,152.41a3.971,3.971,0,0,1-3.154-4.646v0L349.218,29.384a5.638,5.638,0,0,1,6.6-4.48l67.136,12.852a5.649,5.649,0,0,1,4.48,6.6L404.774,162.776a3.97,3.97,0,0,1-4.647,3.11"/>
            </g>
          </g>
        </g>
        <path id="Path_179281" data-name="Path 179281" d="M394.048,164.708l-70.412-13.484a3.962,3.962,0,0,1-3.155-4.63v-.009L343.147,28.2a5.624,5.624,0,0,1,6.572-4.477l.026.006L416.88,36.569a5.641,5.641,0,0,1,4.472,6.6v0L398.7,161.555a3.978,3.978,0,0,1-4.647,3.153" fill="#455a64"/>
        <path id="Path_179282" data-name="Path 179282" d="M338.01,124.218l22.2,4.251a2.126,2.126,0,0,1,1.688,2.488l-1.433,7.481a2.125,2.125,0,0,1-2.488,1.688l-22.2-4.251a2.126,2.126,0,0,1-1.688-2.488l1.432-7.481a2.126,2.126,0,0,1,2.488-1.688" fill="#455a64"/>
        <g id="Group_117543" data-name="Group 117543" opacity="0.2">
          <g id="Group_117542" data-name="Group 117542">
            <g id="Group_117541" data-name="Group 117541" clip-path="url(#clip-path-4)">
              <path id="Path_179283" data-name="Path 179283" d="M338.01,124.218l22.2,4.251a2.126,2.126,0,0,1,1.688,2.488l-1.433,7.481a2.125,2.125,0,0,1-2.488,1.688l-22.2-4.251a2.126,2.126,0,0,1-1.688-2.488l1.432-7.481a2.126,2.126,0,0,1,2.488-1.688"/>
            </g>
          </g>
        </g>
        <rect id="Rectangle_37555" data-name="Rectangle 37555" width="26.707" height="68.084" transform="translate(342.904 62.801) rotate(-79.159)" fill="#fafafa"/>
        <path id="Path_179284" data-name="Path 179284" d="M409.747,75.593a2.131,2.131,0,0,1,.079-.474c.079-.308.141-.765.246-1.353.228-1.195.553-2.952.984-5.219.878-4.524,2.091-11.069,3.628-19.2l.062.1L347.883,36.675l.131-.088c-1.757,9.172-3.452,18.036-5.025,26.224l-.087-.123c19.327,3.725,36.018,6.931,47.913,9.224L404.731,74.6l3.725.729.966.194.334.07-.325-.053-.949-.175-3.707-.7-13.907-2.636-48-9.136h-.115v-.106c1.564-8.2,3.26-17.06,5.017-26.232v-.114h.114l66.854,12.835h.079v.079c-1.581,8.144-2.846,14.706-3.725,19.231-.439,2.257-.782,4.006-1.01,5.192l-.272,1.344c-.036.325-.062.474-.062.474" fill="#263238"/>
        <path id="Path_179285" data-name="Path 179285" d="M346.392,74.336l7.774,1.489a1.827,1.827,0,0,1,1.451,2.138l-1.488,7.774a1.828,1.828,0,0,1-2.139,1.451L344.216,85.7a1.827,1.827,0,0,1-1.451-2.138l1.489-7.774a1.827,1.827,0,0,1,2.138-1.451" fill="#455a64"/>
        <g id="Group_117546" data-name="Group 117546" opacity="0.2">
          <g id="Group_117545" data-name="Group 117545">
            <g id="Group_117544" data-name="Group 117544" clip-path="url(#clip-path-5)">
              <path id="Path_179286" data-name="Path 179286" d="M346.392,74.336l7.774,1.489a1.827,1.827,0,0,1,1.451,2.138l-1.488,7.774a1.828,1.828,0,0,1-2.139,1.451L344.216,85.7a1.827,1.827,0,0,1-1.451-2.138l1.489-7.774a1.827,1.827,0,0,1,2.138-1.451"/>
            </g>
          </g>
        </g>
        <path id="Path_179287" data-name="Path 179287" d="M344.633,73.994l7.774,1.489a1.827,1.827,0,0,1,1.451,2.138l-1.488,7.774a1.828,1.828,0,0,1-2.139,1.451l-7.774-1.489a1.827,1.827,0,0,1-1.451-2.138l1.489-7.774a1.827,1.827,0,0,1,2.138-1.451" fill="#263238"/>
        <path id="Path_179288" data-name="Path 179288" d="M348.717,78.132l-.879,4.735-1.1-.2.738-3.857-.948-.184.166-.879Z" fill="#fff"/>
        <path id="Path_179289" data-name="Path 179289" d="M362.24,77.359l7.774,1.489a1.827,1.827,0,0,1,1.451,2.138l-1.488,7.774a1.828,1.828,0,0,1-2.139,1.451l-7.774-1.489a1.827,1.827,0,0,1-1.451-2.138L360.1,78.81a1.827,1.827,0,0,1,2.138-1.451" fill="#455a64"/>
        <g id="Group_117549" data-name="Group 117549" opacity="0.2">
          <g id="Group_117548" data-name="Group 117548">
            <g id="Group_117547" data-name="Group 117547" clip-path="url(#clip-path-6)">
              <path id="Path_179290" data-name="Path 179290" d="M362.24,77.359l7.774,1.489a1.827,1.827,0,0,1,1.451,2.138l-1.488,7.774a1.828,1.828,0,0,1-2.139,1.451l-7.774-1.489a1.827,1.827,0,0,1-1.451-2.138L360.1,78.81a1.827,1.827,0,0,1,2.138-1.451"/>
            </g>
          </g>
        </g>
        <path id="Path_179291" data-name="Path 179291" d="M360.48,77.026l7.774,1.489a1.827,1.827,0,0,1,1.451,2.138l-1.488,7.774a1.828,1.828,0,0,1-2.139,1.451L358.3,88.389a1.827,1.827,0,0,1-1.451-2.138l1.489-7.774a1.827,1.827,0,0,1,2.138-1.451" fill="#263238"/>
        <path id="Path_179292" data-name="Path 179292" d="M365.54,85.336l-.167.878-3.584-.685.14-.711,2.153-1.371c.5-.325.615-.553.659-.782.079-.369-.141-.641-.642-.738a1.208,1.208,0,0,0-1.072.29l-.7-.667a2.247,2.247,0,0,1,2.055-.519c1.055.2,1.652.879,1.485,1.757a1.921,1.921,0,0,1-1.072,1.344l-1.291.817Z" fill="#fff"/>
        <path id="Path_179293" data-name="Path 179293" d="M378.671,80.507,386.445,82a1.827,1.827,0,0,1,1.451,2.138l-1.488,7.774a1.828,1.828,0,0,1-2.139,1.451l-7.774-1.489a1.827,1.827,0,0,1-1.451-2.138l1.489-7.774a1.827,1.827,0,0,1,2.138-1.451" fill="#455a64"/>
        <g id="Group_117552" data-name="Group 117552" opacity="0.2">
          <g id="Group_117551" data-name="Group 117551">
            <g id="Group_117550" data-name="Group 117550" clip-path="url(#clip-path-7)">
              <path id="Path_179294" data-name="Path 179294" d="M378.671,80.507,386.445,82a1.827,1.827,0,0,1,1.451,2.138l-1.488,7.774a1.828,1.828,0,0,1-2.139,1.451l-7.774-1.489a1.827,1.827,0,0,1-1.451-2.138l1.489-7.774a1.827,1.827,0,0,1,2.138-1.451"/>
            </g>
          </g>
        </g>
        <path id="Path_179295" data-name="Path 179295" d="M376.92,80.176l7.774,1.489a1.827,1.827,0,0,1,1.451,2.138l-1.488,7.774a1.828,1.828,0,0,1-2.139,1.451l-7.774-1.489a1.827,1.827,0,0,1-1.451-2.138l1.489-7.774a1.827,1.827,0,0,1,2.138-1.451" fill="#263238"/>
        <path id="Path_179296" data-name="Path 179296" d="M382,87.918c-.158.8-.879,1.414-2.258,1.16a3.34,3.34,0,0,1-1.7-.879l.58-.764a2.289,2.289,0,0,0,1.274.685c.544.1.931-.053,1-.439s-.149-.633-.773-.747l-.5-.1.141-.729,1.186-.878-2.021-.387.167-.878,3.321.632-.141.712-1.265,1.036A1.371,1.371,0,0,1,382,87.918" fill="#fff"/>
        <path id="Path_179297" data-name="Path 179297" d="M395.1,83.656l7.774,1.489a1.827,1.827,0,0,1,1.451,2.138l-1.488,7.774a1.828,1.828,0,0,1-2.139,1.451l-7.774-1.489a1.827,1.827,0,0,1-1.451-2.138l1.489-7.774a1.827,1.827,0,0,1,2.138-1.451" fill="#455a64"/>
        <g id="Group_117555" data-name="Group 117555" opacity="0.2">
          <g id="Group_117554" data-name="Group 117554">
            <g id="Group_117553" data-name="Group 117553" clip-path="url(#clip-path-8)">
              <path id="Path_179298" data-name="Path 179298" d="M395.1,83.656l7.774,1.489a1.827,1.827,0,0,1,1.451,2.138l-1.488,7.774a1.828,1.828,0,0,1-2.139,1.451l-7.774-1.489a1.827,1.827,0,0,1-1.451-2.138l1.489-7.774a1.827,1.827,0,0,1,2.138-1.451"/>
            </g>
          </g>
        </g>
        <path id="Path_179299" data-name="Path 179299" d="M393.385,83.321l7.774,1.489a1.827,1.827,0,0,1,1.451,2.138l-1.488,7.774a1.828,1.828,0,0,1-2.139,1.451l-7.774-1.489a1.827,1.827,0,0,1-1.451-2.138l1.489-7.774a1.827,1.827,0,0,1,2.138-1.451" fill="#263238"/>
        <path id="Path_179300" data-name="Path 179300" d="M393.608,89.275l.083-.431,5.073.971-.083.431Z" fill="#fff"/>
        <path id="Path_179301" data-name="Path 179301" d="M397.412,87.479a.879.879,0,1,1-.74-1c.024,0,.048.008.072.014a.878.878,0,0,1,.668.984" fill="#fff"/>
        <path id="Path_179302" data-name="Path 179302" d="M396.569,91.907a.879.879,0,1,1-.74-1c.024,0,.048.008.072.014a.878.878,0,0,1,.668.984" fill="#fff"/>
        <g id="Group_117558" data-name="Group 117558" opacity="0.2">
          <g id="Group_117557" data-name="Group 117557">
            <g id="Group_117556" data-name="Group 117556" clip-path="url(#clip-path-9)">
              <path id="Path_179303" data-name="Path 179303" d="M349.428,103.916l-9-1.757a1.212,1.212,0,0,1-.957-1.414l1.757-9a1.2,1.2,0,0,1,1.4-.958l9.005,1.757a1.187,1.187,0,0,1,.964,1.373c0,.011,0,.022-.007.033l-1.757,9a1.212,1.212,0,0,1-1.414.958"/>
            </g>
          </g>
        </g>
        <path id="Path_179304" data-name="Path 179304" d="M341.445,90.641l7.774,1.489a1.827,1.827,0,0,1,1.451,2.138l-1.488,7.774a1.828,1.828,0,0,1-2.139,1.451L339.269,102a1.827,1.827,0,0,1-1.451-2.138l1.489-7.774a1.827,1.827,0,0,1,2.138-1.451" fill="#263238"/>
        <path id="Path_179305" data-name="Path 179305" d="M346.2,98.794l-.773-.149-.193.992-1.063-.2.184-.992-2.548-.492.141-.738,2.811-2.574,1.151.219-2.635,2.451,1.273.246.167-.878,1.037.193-.167.879.764.149Z" fill="#fff"/>
        <path id="Path_179306" data-name="Path 179306" d="M359.05,94.015l7.774,1.489a1.827,1.827,0,0,1,1.451,2.138l-1.488,7.774a1.828,1.828,0,0,1-2.139,1.451l-7.774-1.489a1.827,1.827,0,0,1-1.451-2.138l1.489-7.774a1.827,1.827,0,0,1,2.138-1.451" fill="#455a64"/>
        <g id="Group_117561" data-name="Group 117561" opacity="0.2">
          <g id="Group_117560" data-name="Group 117560">
            <g id="Group_117559" data-name="Group 117559" clip-path="url(#clip-path-10)">
              <path id="Path_179307" data-name="Path 179307" d="M359.05,94.015l7.774,1.489a1.827,1.827,0,0,1,1.451,2.138l-1.488,7.774a1.828,1.828,0,0,1-2.139,1.451l-7.774-1.489a1.827,1.827,0,0,1-1.451-2.138l1.489-7.774a1.827,1.827,0,0,1,2.138-1.451"/>
            </g>
          </g>
        </g>
        <path id="Path_179308" data-name="Path 179308" d="M357.3,93.675l7.774,1.489a1.827,1.827,0,0,1,1.451,2.138l-1.488,7.774a1.828,1.828,0,0,1-2.139,1.451l-7.774-1.489a1.827,1.827,0,0,1-1.451-2.138l1.489-7.774a1.827,1.827,0,0,1,2.138-1.451" fill="#263238"/>
        <path id="Path_179309" data-name="Path 179309" d="M361.947,101.281c-.167.879-.922,1.458-2.275,1.195a3.312,3.312,0,0,1-1.7-.879l.589-.755a2.331,2.331,0,0,0,1.265.685c.553.105.931-.062,1.01-.448s-.131-.659-.984-.826l-1.212-.228.756-2.636,2.881.554-.167.878-1.977-.378-.246.879.387.079c1.406.316,1.836,1.054,1.678,1.88" fill="#fff"/>
        <path id="Path_179310" data-name="Path 179310" d="M375.482,97.156l7.774,1.489a1.827,1.827,0,0,1,1.451,2.138l-1.488,7.774a1.828,1.828,0,0,1-2.139,1.451l-7.774-1.489a1.827,1.827,0,0,1-1.451-2.138l1.489-7.774a1.827,1.827,0,0,1,2.138-1.451" fill="#455a64"/>
        <g id="Group_117564" data-name="Group 117564" opacity="0.2">
          <g id="Group_117563" data-name="Group 117563">
            <g id="Group_117562" data-name="Group 117562" clip-path="url(#clip-path-11)">
              <path id="Path_179311" data-name="Path 179311" d="M375.482,97.156l7.774,1.489a1.827,1.827,0,0,1,1.451,2.138l-1.488,7.774a1.828,1.828,0,0,1-2.139,1.451l-7.774-1.489a1.827,1.827,0,0,1-1.451-2.138l1.489-7.774a1.827,1.827,0,0,1,2.138-1.451"/>
            </g>
          </g>
        </g>
        <path id="Path_179312" data-name="Path 179312" d="M373.723,96.822l7.774,1.489a1.827,1.827,0,0,1,1.451,2.138l-1.488,7.774a1.828,1.828,0,0,1-2.139,1.451l-7.774-1.489a1.827,1.827,0,0,1-1.451-2.138l1.489-7.774a1.827,1.827,0,0,1,2.138-1.451" fill="#263238"/>
        <path id="Path_179313" data-name="Path 179313" d="M378.709,104.5a1.66,1.66,0,0,1-1.981,1.261c-.04-.009-.08-.019-.119-.031a2.069,2.069,0,0,1-1.66-2.749,2.345,2.345,0,0,1,2.525-2.152,2.26,2.26,0,0,1,.374.061,2.642,2.642,0,0,1,1.256.579l-.562.73a1.554,1.554,0,0,0-.835-.413,1.29,1.29,0,0,0-1.566.939,1.3,1.3,0,0,0-.033.185,1.638,1.638,0,0,1,1.248-.2,1.538,1.538,0,0,1,1.367,1.691c0,.034-.008.068-.014.1m-1.072-.149a.729.729,0,0,0-.563-.864.717.717,0,0,0-.105-.014.754.754,0,0,0-.943.5.439.439,0,0,0-.014.052c-.079.4.167.755.694.878a.729.729,0,0,0,.9-.512l.01-.041Z" fill="#fff"/>
        <path id="Path_179314" data-name="Path 179314" d="M391.913,100.3l7.774,1.489a1.827,1.827,0,0,1,1.451,2.138L399.65,111.7a1.828,1.828,0,0,1-2.139,1.451l-7.774-1.489a1.827,1.827,0,0,1-1.451-2.138l1.489-7.774a1.827,1.827,0,0,1,2.138-1.451" fill="#455a64"/>
        <g id="Group_117567" data-name="Group 117567" opacity="0.2">
          <g id="Group_117566" data-name="Group 117566">
            <g id="Group_117565" data-name="Group 117565" clip-path="url(#clip-path-12)">
              <path id="Path_179315" data-name="Path 179315" d="M391.913,100.3l7.774,1.489a1.827,1.827,0,0,1,1.451,2.138L399.65,111.7a1.828,1.828,0,0,1-2.139,1.451l-7.774-1.489a1.827,1.827,0,0,1-1.451-2.138l1.489-7.774a1.827,1.827,0,0,1,2.138-1.451"/>
            </g>
          </g>
        </g>
        <path id="Path_179316" data-name="Path 179316" d="M390.154,99.97l7.773,1.489a1.827,1.827,0,0,1,1.451,2.138l-1.487,7.774a1.829,1.829,0,0,1-2.14,1.451l-7.774-1.489a1.827,1.827,0,0,1-1.451-2.138l1.49-7.774a1.826,1.826,0,0,1,2.138-1.451" fill="#263238"/>
        <rect id="Rectangle_37564" data-name="Rectangle 37564" width="5.166" height="0.439" transform="translate(390.695 107.614) rotate(-33.302)" fill="#fff"/>
        <rect id="Rectangle_37565" data-name="Rectangle 37565" width="0.439" height="5.166" transform="translate(391.34 104.362) rotate(-34.234)" fill="#fff"/>
        <path id="Path_179317" data-name="Path 179317" d="M340.032,107.5l7.774,1.489a1.827,1.827,0,0,1,1.451,2.138l-1.488,7.774a1.828,1.828,0,0,1-2.139,1.451l-7.774-1.489a1.827,1.827,0,0,1-1.451-2.138l1.489-7.774a1.827,1.827,0,0,1,2.138-1.451" fill="#455a64"/>
        <g id="Group_117570" data-name="Group 117570" opacity="0.2">
          <g id="Group_117569" data-name="Group 117569">
            <g id="Group_117568" data-name="Group 117568" clip-path="url(#clip-path-13)">
              <path id="Path_179318" data-name="Path 179318" d="M340.032,107.5l7.774,1.489a1.827,1.827,0,0,1,1.451,2.138l-1.488,7.774a1.828,1.828,0,0,1-2.139,1.451l-7.774-1.489a1.827,1.827,0,0,1-1.451-2.138l1.489-7.774a1.827,1.827,0,0,1,2.138-1.451"/>
            </g>
          </g>
        </g>
        <path id="Path_179319" data-name="Path 179319" d="M338.289,107.165l7.774,1.489a1.827,1.827,0,0,1,1.451,2.138l-1.488,7.774a1.828,1.828,0,0,1-2.139,1.451l-7.774-1.489a1.827,1.827,0,0,1-1.451-2.138l1.489-7.774a1.827,1.827,0,0,1,2.138-1.451" fill="#263238"/>
        <path id="Path_179320" data-name="Path 179320" d="M343.121,111.445l-.132.712-2.53,3.689-1.2-.228L341.7,112.1l-1.573-.3-.14.773-.975-.184.316-1.669Z" fill="#fff"/>
        <path id="Path_179321" data-name="Path 179321" d="M355.9,110.522l7.774,1.489a1.827,1.827,0,0,1,1.451,2.138l-1.488,7.774a1.828,1.828,0,0,1-2.139,1.451l-7.774-1.489a1.827,1.827,0,0,1-1.451-2.138l1.489-7.774a1.827,1.827,0,0,1,2.138-1.451" fill="#455a64"/>
        <g id="Group_117573" data-name="Group 117573" opacity="0.2">
          <g id="Group_117572" data-name="Group 117572">
            <g id="Group_117571" data-name="Group 117571" clip-path="url(#clip-path-14)">
              <path id="Path_179322" data-name="Path 179322" d="M355.9,110.522l7.774,1.489a1.827,1.827,0,0,1,1.451,2.138l-1.488,7.774a1.828,1.828,0,0,1-2.139,1.451l-7.774-1.489a1.827,1.827,0,0,1-1.451-2.138l1.489-7.774a1.827,1.827,0,0,1,2.138-1.451"/>
            </g>
          </g>
        </g>
        <path id="Path_179323" data-name="Path 179323" d="M354.137,110.188l7.774,1.489a1.827,1.827,0,0,1,1.451,2.138l-1.488,7.774a1.828,1.828,0,0,1-2.139,1.451l-7.774-1.489a1.827,1.827,0,0,1-1.451-2.138L352,111.639a1.827,1.827,0,0,1,2.138-1.451" fill="#263238"/>
        <path id="Path_179324" data-name="Path 179324" d="M359.162,117.972c-.167.879-1.072,1.3-2.276,1.072s-1.888-.949-1.713-1.836a1.232,1.232,0,0,1,.914-.993,1.106,1.106,0,0,1-.36-1.08c.158-.826,1-1.2,2.073-1s1.757.879,1.582,1.7a1.135,1.135,0,0,1-.747.879,1.214,1.214,0,0,1,.527,1.256m-1.1-.246c.079-.421-.22-.746-.765-.878s-.931.088-1.01.509.211.747.747.879.931-.071,1.01-.483Zm-1.238-2.319c-.071.351.166.633.614.72s.791-.079.878-.439-.184-.659-.632-.738a.683.683,0,0,0-.879.483Z" fill="#fff"/>
        <path id="Path_179325" data-name="Path 179325" d="M372.319,113.669l7.773,1.489a1.827,1.827,0,0,1,1.451,2.138l-1.487,7.774a1.828,1.828,0,0,1-2.139,1.451l-7.775-1.489a1.827,1.827,0,0,1-1.451-2.138l1.49-7.774a1.826,1.826,0,0,1,2.138-1.451" fill="#455a64"/>
        <g id="Group_117576" data-name="Group 117576" opacity="0.2">
          <g id="Group_117575" data-name="Group 117575">
            <g id="Group_117574" data-name="Group 117574" clip-path="url(#clip-path-15)">
              <path id="Path_179326" data-name="Path 179326" d="M372.319,113.669l7.773,1.489a1.827,1.827,0,0,1,1.451,2.138l-1.487,7.774a1.828,1.828,0,0,1-2.139,1.451l-7.775-1.489a1.827,1.827,0,0,1-1.451-2.138l1.49-7.774a1.826,1.826,0,0,1,2.138-1.451"/>
            </g>
          </g>
        </g>
        <path id="Path_179327" data-name="Path 179327" d="M370.568,113.336l7.774,1.489a1.827,1.827,0,0,1,1.451,2.138l-1.488,7.774a1.828,1.828,0,0,1-2.139,1.451l-7.774-1.489a1.827,1.827,0,0,1-1.451-2.138l1.489-7.774a1.827,1.827,0,0,1,2.138-1.451" fill="#263238"/>
        <path id="Path_179328" data-name="Path 179328" d="M375.608,120.01a2.355,2.355,0,0,1-2.542,2.151,2.516,2.516,0,0,1-.366-.06,2.576,2.576,0,0,1-1.239-.615l.562-.729a1.517,1.517,0,0,0,.835.413,1.289,1.289,0,0,0,1.6-1.125,1.648,1.648,0,0,1-1.256.193,1.527,1.527,0,0,1-1.363-1.677c0-.027.006-.053.01-.08a1.661,1.661,0,0,1,1.981-1.261c.04.009.079.02.118.031,1.3.255,1.951,1.23,1.661,2.759m-1.072-1.063c.079-.4-.167-.756-.685-.879a.729.729,0,0,0-.439,1.391.959.959,0,0,0,1.114-.477c0-.011.007-.023.01-.035" fill="#fff"/>
        <path id="Path_179329" data-name="Path 179329" d="M388.749,116.817l7.774,1.489a1.827,1.827,0,0,1,1.451,2.138l-1.488,7.774a1.828,1.828,0,0,1-2.139,1.451l-7.774-1.489a1.827,1.827,0,0,1-1.451-2.138l1.489-7.774a1.827,1.827,0,0,1,2.138-1.451" fill="#455a64"/>
        <g id="Group_117579" data-name="Group 117579" opacity="0.2">
          <g id="Group_117578" data-name="Group 117578">
            <g id="Group_117577" data-name="Group 117577" clip-path="url(#clip-path-16)">
              <path id="Path_179330" data-name="Path 179330" d="M388.749,116.817l7.774,1.489a1.827,1.827,0,0,1,1.451,2.138l-1.488,7.774a1.828,1.828,0,0,1-2.139,1.451l-7.774-1.489a1.827,1.827,0,0,1-1.451-2.138l1.489-7.774a1.827,1.827,0,0,1,2.138-1.451"/>
            </g>
          </g>
        </g>
        <path id="Path_179331" data-name="Path 179331" d="M386.99,116.484l7.774,1.489a1.827,1.827,0,0,1,1.451,2.138l-1.488,7.774a1.828,1.828,0,0,1-2.139,1.451l-7.774-1.489a1.827,1.827,0,0,1-1.451-2.138l1.489-7.774a1.827,1.827,0,0,1,2.138-1.451" fill="#263238"/>
        <rect id="Rectangle_37570" data-name="Rectangle 37570" width="0.438" height="5.157" transform="translate(387.563 123.806) rotate(-79.078)" fill="#fff"/>
        <path id="Path_179332" data-name="Path 179332" d="M369.127,130.333l7.774,1.49a1.826,1.826,0,0,1,1.451,2.138l-1.488,7.773a1.828,1.828,0,0,1-2.139,1.452l-7.774-1.489a1.827,1.827,0,0,1-1.451-2.138l1.489-7.774a1.828,1.828,0,0,1,2.138-1.452" fill="#455a64"/>
        <g id="Group_117582" data-name="Group 117582" opacity="0.2">
          <g id="Group_117581" data-name="Group 117581">
            <g id="Group_117580" data-name="Group 117580" clip-path="url(#clip-path-17)">
              <path id="Path_179333" data-name="Path 179333" d="M369.127,130.333l7.774,1.49a1.826,1.826,0,0,1,1.451,2.138l-1.488,7.773a1.828,1.828,0,0,1-2.139,1.452l-7.774-1.489a1.827,1.827,0,0,1-1.451-2.138l1.489-7.774a1.828,1.828,0,0,1,2.138-1.452"/>
            </g>
          </g>
        </g>
        <path id="Path_179334" data-name="Path 179334" d="M367.378,129.992l7.774,1.489a1.827,1.827,0,0,1,1.451,2.138l-1.488,7.774a1.828,1.828,0,0,1-2.139,1.451l-7.774-1.489a1.827,1.827,0,0,1-1.451-2.138l1.489-7.774a1.827,1.827,0,0,1,2.138-1.451" fill="#263238"/>
        <path id="Path_179335" data-name="Path 179335" d="M385.558,133.481l7.774,1.489a1.827,1.827,0,0,1,1.451,2.138l-1.488,7.774a1.828,1.828,0,0,1-2.139,1.451l-7.774-1.489a1.827,1.827,0,0,1-1.451-2.138l1.489-7.774a1.827,1.827,0,0,1,2.138-1.451" fill="#7cc5ff"/>
        <g id="Group_117585" data-name="Group 117585" opacity="0.4">
          <g id="Group_117584" data-name="Group 117584">
            <g id="Group_117583" data-name="Group 117583" clip-path="url(#clip-path-18)">
              <path id="Path_179336" data-name="Path 179336" d="M385.558,133.481l7.774,1.489a1.827,1.827,0,0,1,1.451,2.138l-1.488,7.774a1.828,1.828,0,0,1-2.139,1.451l-7.774-1.489a1.827,1.827,0,0,1-1.451-2.138l1.489-7.774a1.827,1.827,0,0,1,2.138-1.451"/>
            </g>
          </g>
        </g>
        <path id="Path_179337" data-name="Path 179337" d="M383.8,133.139l7.774,1.489a1.827,1.827,0,0,1,1.451,2.138l-1.488,7.774a1.828,1.828,0,0,1-2.139,1.451l-7.774-1.489a1.827,1.827,0,0,1-1.451-2.138l1.489-7.774a1.827,1.827,0,0,1,2.138-1.451" fill="#7cc5ff"/>
        <path id="Path_179338" data-name="Path 179338" d="M384.17,138.654l.083-.431,5.073.97-.082.432Z" fill="#fff"/>
        <path id="Path_179339" data-name="Path 179339" d="M383.794,140.59l.083-.431,5.073.97-.082.432Z" fill="#fff"/>
        <path id="Path_179340" data-name="Path 179340" d="M334.884,123.622l23.124,4.428a2.2,2.2,0,0,1,1.744,2.57l-1.406,7.343a2.2,2.2,0,0,1-2.57,1.744l-23.124-4.428a2.2,2.2,0,0,1-1.744-2.57l1.406-7.343a2.2,2.2,0,0,1,2.57-1.744" fill="#263238"/>
        <path id="Path_179341" data-name="Path 179341" d="M344.35,131.22c.3-1.564,1.336-2.284,2.5-2.056s1.854,1.274,1.555,2.838-1.326,2.284-2.495,2.056-1.862-1.274-1.564-2.838m2.961.571c.2-1.081-.088-1.6-.633-1.7s-1.01.272-1.212,1.353.088,1.59.624,1.695,1.01-.228,1.221-1.344" fill="#fff"/>
        <rect id="Rectangle_37573" data-name="Rectangle 37573" width="5.165" height="0.439" transform="translate(369.454 138.882) rotate(-78.305)" fill="#fff"/>
        <path id="Path_179342" data-name="Path 179342" d="M367.6,136.12l.083-.431,5.073.97-.082.432Z" fill="#fff"/>
        <path id="Path_179343" data-name="Path 179343" d="M372.287,54.957l-1.362,7.081-.333-.062,1.3-6.764-1.757-.343.061-.316Z" fill="#263238"/>
        <path id="Path_179344" data-name="Path 179344" d="M377.505,62.969l-.061.316-4.8-.878v-.246l3.619-2.478c1.037-.7,1.318-1.177,1.432-1.757.176-.94-.36-1.678-1.6-1.915a2.639,2.639,0,0,0-2.284.448l-.193-.263a3.031,3.031,0,0,1,2.548-.492c1.353.263,2.082,1.124,1.862,2.266-.123.668-.448,1.213-1.555,1.968l-3.259,2.214Z" fill="#263238"/>
        <path id="Path_179345" data-name="Path 179345" d="M383.26,62.363c-.228,1.177-1.212,1.845-2.767,1.546a3.233,3.233,0,0,1-2.276-1.449l.229-.211a2.979,2.979,0,0,0,2.091,1.344c1.361.263,2.2-.272,2.389-1.292s-.36-1.818-1.862-2.108l-.4-.07v-.246l2.759-2.451-3.9-.747.053-.316,4.393.834-.053.246-2.794,2.451c1.7.325,2.363,1.292,2.135,2.469" fill="#263238"/>
        <path id="Path_179346" data-name="Path 179346" d="M390.235,63.619l-1.537-.3-.4,2.047-.334-.061.4-2.047-4.068-.782.044-.237,4.832-4.05.395.079-4.77,4,3.628.685.343-1.8.334.071-.343,1.757,1.537.29Z" fill="#263238"/>
        <path id="Path_179347" data-name="Path 179347" d="M391.561,65.675a2.065,2.065,0,0,1-.132.36l-.623,1.292-.264-.053.58-1.335a.344.344,0,0,1-.229-.4.333.333,0,0,1,.391-.264h.005a.342.342,0,0,1,.272.4" fill="#263238"/>
        <path id="Path_179348" data-name="Path 179348" d="M398.7,65.262l-1.537-.3-.387,2.047-.334-.061.387-2.047-4.068-.782.053-.237,4.832-4.05.395.079-4.77,4,3.619.694.343-1.757.334.062-.343,1.8,1.537.289Z" fill="#263238"/>
        <path id="Path_179349" data-name="Path 179349" d="M403.966,66.29c-.22,1.151-1.186,1.889-2.794,1.581a3.222,3.222,0,0,1-2.266-1.449l.237-.2a2.99,2.99,0,0,0,2.082,1.344c1.388.263,2.2-.334,2.4-1.335s-.316-1.872-2.336-2.258l-1.38-.264,1.019-3.259,3.646.694-.053.316-3.373-.65-.826,2.636,1.1.21c2.179.431,2.8,1.38,2.548,2.636" fill="#263238"/>
        <rect id="Rectangle_37574" data-name="Rectangle 37574" width="199.901" height="130.263" transform="translate(23.321 9.647)" fill="#f5f5f5"/>
        <rect id="Rectangle_37575" data-name="Rectangle 37575" width="199.901" height="129.981" transform="translate(13.437 2.603)" fill="#ebebeb"/>
        <rect id="Rectangle_37576" data-name="Rectangle 37576" width="196.085" height="130.764" transform="translate(0.229 0.369)" fill="#fafafa"/>
        <rect id="Rectangle_37577" data-name="Rectangle 37577" width="32.256" height="12.944" transform="translate(36.617 47.152)" fill="#7cc5ff"/>
        <rect id="Rectangle_37578" data-name="Rectangle 37578" width="32.256" height="12.944" transform="translate(133.393 47.152)" fill="#7cc5ff"/>
        <rect id="Rectangle_37579" data-name="Rectangle 37579" width="32.256" height="12.945" transform="translate(133.393 72.857)" fill="#7cc5ff"/>
        <rect id="Rectangle_37580" data-name="Rectangle 37580" width="32.256" height="12.945" transform="translate(133.393 85.705)" fill="#7cc5ff"/>
        <rect id="Rectangle_37581" data-name="Rectangle 37581" width="32.256" height="12.945" transform="translate(68.873 73.085)" fill="#455a64"/>
        <rect id="Rectangle_37582" data-name="Rectangle 37582" width="32.256" height="12.945" transform="translate(101.085 86.179)" fill="#455a64"/>
        <rect id="Rectangle_37583" data-name="Rectangle 37583" width="32.256" height="13.463" transform="translate(68.873 111.857)" fill="#ebebeb"/>
        <rect id="Rectangle_37584" data-name="Rectangle 37584" width="32.256" height="12.945" transform="translate(133.393 112.033)" fill="#7cc5ff"/>
        <rect id="Rectangle_37585" data-name="Rectangle 37585" width="174.179" height="12.646" transform="translate(16.172 34.507)" fill="#e0e0e0"/>
        <rect id="Rectangle_37586" data-name="Rectangle 37586" width="30.541" height="91.086" transform="translate(6.077 34.507)" fill="#e0e0e0"/>
        <path id="Path_179350" data-name="Path 179350" d="M37.057,126.033H5.637V34.067h31.42Zm-30.541-.879H36.178V34.947H6.516Z" fill="#e0e0e0"/>
        <rect id="Rectangle_37587" data-name="Rectangle 37587" width="196.085" height="14.835" transform="translate(0.229 0.369)" fill="#7cc5ff"/>
        <rect id="Rectangle_37588" data-name="Rectangle 37588" width="30.189" height="8.486" transform="translate(6.428 20.604)" fill="#ebebeb"/>
        <rect id="Rectangle_37589" data-name="Rectangle 37589" width="29.116" height="8.486" transform="translate(40.153 20.604)" fill="#ebebeb"/>
        <rect id="Rectangle_37590" data-name="Rectangle 37590" width="29.116" height="8.486" transform="translate(72.083 20.604)" fill="#ebebeb"/>
        <rect id="Rectangle_37591" data-name="Rectangle 37591" width="29.116" height="8.486" transform="translate(104.013 20.604)" fill="#ebebeb"/>
        <rect id="Rectangle_37592" data-name="Rectangle 37592" width="29.116" height="8.486" transform="translate(135.944 20.604)" fill="#ebebeb"/>
        <rect id="Rectangle_37593" data-name="Rectangle 37593" width="23.928" height="8.486" transform="translate(167.874 20.604)" fill="#ebebeb"/>
        <path id="Path_179351" data-name="Path 179351" d="M6.076,125.321h13.7l38.173-.062,132.382-.105-.211.22V34.569l.228.228L6.076,34.674l.167-.167c0,27.991-.061,50.67-.088,66.367v.106c0-15.724-.053-38.447-.088-66.473v-.176h.167l184.275-.061h.228v91.253h-.219l-132.7-.088L19.7,125.374H6.92Z" fill="#263238"/>
        <path id="Path_179352" data-name="Path 179352" d="M190.7,47.17c0,.123-41.261.229-92.133.229S6.428,47.276,6.428,47.17s41.244-.229,92.142-.229,92.133.079,92.133.229" fill="#263238"/>
        <path id="Path_179353" data-name="Path 179353" d="M190.7,60.088c0,.132-41.261.229-92.133.229s-92.142-.1-92.142-.229,41.244-.229,92.142-.229,92.133.106,92.133.229" fill="#263238"/>
        <path id="Path_179354" data-name="Path 179354" d="M190.7,73.033c0,.123-41.261.229-92.133.229s-92.142-.106-92.142-.229S47.672,72.8,98.57,72.8s92.133.1,92.133.229" fill="#263238"/>
        <path id="Path_179355" data-name="Path 179355" d="M190.7,85.968c0,.132-41.261.229-92.133.229s-92.142-.1-92.142-.229,41.244-.229,92.142-.229,92.133.123,92.133.229" fill="#263238"/>
        <path id="Path_179356" data-name="Path 179356" d="M190.7,98.913c0,.123-41.261.229-92.133.229s-92.142-.088-92.142-.229,41.244-.229,92.142-.229,92.133.106,92.133.229" fill="#263238"/>
        <path id="Path_179357" data-name="Path 179357" d="M190.7,111.857c0,.123-41.261.229-92.133.229s-92.142-.106-92.142-.229,41.244-.229,92.142-.229,92.133.1,92.133.229" fill="#263238"/>
        <path id="Path_179358" data-name="Path 179358" d="M36.618,125.593c-.133,0-.229-20.279-.229-45.288s.1-45.3.229-45.3.228,20.278.228,45.3-.106,45.288-.228,45.288" fill="#263238"/>
        <path id="Path_179359" data-name="Path 179359" d="M68.873,125.321c-.123,0-.229-20.226-.229-45.156s.106-45.157.229-45.157.229,20.226.229,45.157-.1,45.156-.229,45.156" fill="#263238"/>
        <path id="Path_179360" data-name="Path 179360" d="M101.129,125.593c-.132,0-.229-20.279-.229-45.288s.1-45.3.229-45.3.229,20.278.229,45.3-.1,45.288-.229,45.288" fill="#263238"/>
        <path id="Path_179361" data-name="Path 179361" d="M133.393,125.593c-.123,0-.229-20.279-.229-45.288s.106-45.3.229-45.3.229,20.278.229,45.3-.1,45.288-.229,45.288" fill="#263238"/>
        <path id="Path_179362" data-name="Path 179362" d="M165.658,125.593c-.132,0-.229-20.279-.229-45.288s.1-45.3.229-45.3.229,20.278.229,45.3-.106,45.288-.229,45.288" fill="#263238"/>
        <path id="Path_179363" data-name="Path 179363" d="M11.687,7.783A1.873,1.873,0,1,1,9.823,5.84a1.9,1.9,0,0,1,1.864,1.933v.01" fill="#fff"/>
        <path id="Path_179364" data-name="Path 179364" d="M18.045,7.783A1.873,1.873,0,1,1,16.172,5.84a1.9,1.9,0,0,1,1.873,1.925v.018" fill="#fff"/>
        <path id="Path_179365" data-name="Path 179365" d="M24.4,7.783A1.873,1.873,0,1,1,22.53,5.84,1.9,1.9,0,0,1,24.4,7.765v.018" fill="#fff"/>
        <path id="Path_179366" data-name="Path 179366" d="M196.313,131.125c0-1.495-.07-51.1-.185-130.755l.185.176L.237.563.466.335V131.09l-.211-.211,141.29.1,40.355.053h.088l-40.3.053L.255,131.2H0V0H196.515V.185c-.132,79.839-.2,129.454-.2,130.94" fill="#263238"/>
        <path id="Path_179367" data-name="Path 179367" d="M250.09,116.323l-8.975,11.139L203.7,137.872l5.594,60.436c1.721,23.683,4.142,29.477,5.817,45.24v12.838H321.386l14.839-122.671-36.66-8.425-7.881-8.967Z" fill="#7cc5ff"/>
        <path id="Path_179368" data-name="Path 179368" d="M248.5,137.9l4.577,60.513,4.894,30.719L293.9,128.89l-28.981,34.341Z" fill="#fff"/>
        <path id="Path_179369" data-name="Path 179369" d="M257.452,233.456s.047-.1.14-.295.263-.481.45-.838l1.791-3.242c1.552-2.808,3.786-6.834,6.547-11.814l21.72-38.894,11.853-21.108.039.233-5.158-4.359-.187-.156.218-.131,7.346-4.329-.078.155c-.776-7.16-1.458-13-1.916-17.065-.217-2.017-.38-3.592-.5-4.655-.047-.519-.085-.931-.116-1.225a1.33,1.33,0,0,1,0-.419,1.982,1.982,0,0,0,.069.419l.163,1.218c.14,1.086.334,2.66.59,4.654.488,4.072,1.187,9.906,2.048,17.066v.1l-.086.055-7.33,4.359v-.279l5.166,4.336.124.1-.077.132L288.45,178.582l-21.845,38.863L259.942,229.2c-.776,1.373-1.4,2.444-1.831,3.188l-.481.823a1.171,1.171,0,0,1-.178.248" fill="#263238"/>
        <path id="Path_179370" data-name="Path 179370" d="M257.452,233.456a1.452,1.452,0,0,1-.1-.279c-.07-.21-.155-.489-.264-.846-.232-.775-.558-1.861-.977-3.266-.838-2.854-2.032-6.981-3.514-12.008s-3.266-11.1-5.12-17.841c-1.73-6.78-3.382-14.281-5.127-22.154-2.374-10.8-4.515-20.906-6.291-29.477v-.148l.139-.054,4.895-1.715v.295l-5.957-3.157-.117-.054.047-.117L239.5,131.5l1.218-3,.318-.776a2.513,2.513,0,0,1,.124-.256,1.617,1.617,0,0,1-.085.272c-.07.194-.163.458-.287.776-.272.713-.652,1.73-1.148,3.025l-4.313,11.186-.07-.179,5.981,3.1.325.171-.349.124-4.887,1.73.117-.194c1.815,8.533,3.971,18.617,6.345,29.477,1.745,7.866,3.382,15.375,5.1,22.147s3.608,12.776,5.035,17.841L256.312,229c.388,1.4.69,2.505.9,3.281l.224.853a1.693,1.693,0,0,1,.016.326" fill="#263238"/>
        <path id="Path_179371" data-name="Path 179371" d="M203.7,137.88s-8.223,4.01-14.025,22.449c-4.212,13.4-21.34,59.552-21.34,59.552l-18.974-5.539s-13.963,17.392-10.8,23.45,26.274,18.617,26.274,18.617H191.9a22.261,22.261,0,0,0,7.757-11.279l15.475-52.112Z" fill="#7cc5ff"/>
        <path id="Path_179372" data-name="Path 179372" d="M336.21,133.723a33.355,33.355,0,0,1,11.907,12.233c4.724,8.4,42.447,69.814,45.573,84.343,4.655,21.72-4.654,26.072-4.654,26.072H376l-32.27-.14-4.072-25.249,14.343-3.064-26.584-29.477-1.761,3-5.2-42.075Z" fill="#7cc5ff"/>
        <path id="Path_179373" data-name="Path 179373" d="M207.124,163.231c.116,0,1.078,10.433,2.149,23.318s1.854,23.341,1.745,23.349-1.07-10.433-2.149-23.318-1.854-23.341-1.745-23.349" fill="#263238"/>
        <path id="Path_179374" data-name="Path 179374" d="M334.3,151.548c.109,0-1.381,13.041-3.32,29.089s-3.6,29.051-3.716,29.051,1.373-13.032,3.32-29.09,3.607-29.088,3.716-29.05" fill="#263238"/>
        <path id="Path_179375" data-name="Path 179375" d="M344.122,256.394s.124-.163.365-.465a14.7,14.7,0,0,0,.969-1.373,22.785,22.785,0,0,0,2.5-5.648,27.263,27.263,0,0,0,.9-4.181,19.654,19.654,0,0,0,.209-4.863,11.422,11.422,0,0,0-1.8-5,13.617,13.617,0,0,0-4.088-4l-.342-.224-.434-.233.465-.14a100.914,100.914,0,0,1,19.928-3.715c2.584-.225,4.655-.318,6.121-.365h1.668a2.567,2.567,0,0,1,.581,0,3.43,3.43,0,0,1-.581.062l-1.66.109c-1.443.093-3.53.232-6.1.488a108.021,108.021,0,0,0-19.842,3.825l.038-.373.373.217a13.871,13.871,0,0,1,4.2,4.127,11.785,11.785,0,0,1,1.839,5.174,19.951,19.951,0,0,1-.249,4.965,27.142,27.142,0,0,1-.961,4.2,21.573,21.573,0,0,1-2.638,5.655,12.262,12.262,0,0,1-1.039,1.342,2.261,2.261,0,0,1-.427.419" fill="#263238"/>
        <path id="Path_179376" data-name="Path 179376" d="M257.545,256.394c-.109,0-.2-5.2-.2-11.636s.093-11.635.2-11.635.2,5.2.2,11.635-.086,11.636-.2,11.636" fill="#263238"/>
        <path id="Path_179377" data-name="Path 179377" d="M318.09,204.9c-.009-.183-.009-.367,0-.551V202.8c0-1.365,0-3.312-.07-5.764l.124.124L286,197.238c.085-.085-.21.2.194-.2v7.85l-.2-.193,22.884.085,6.779.054h2.49a5.549,5.549,0,0,1-.605,0h-1.792l-6.733.054-23.023.094H285.8v-8.06c.4-.4.116-.109.209-.2l32.146.086h.116v.116c0,2.482-.046,4.452-.062,5.833V204.3a3.906,3.906,0,0,1-.116.6" fill="#263238"/>
        <path id="Path_179378" data-name="Path 179378" d="M207.124,159.771c-.109,0-1.164-4.46-2.327-10.014s-2.071-10.085-1.963-10.085,1.164,4.461,2.327,10.015,2.072,10.061,1.963,10.084" fill="#263238"/>
        <g id="Group_117588" data-name="Group 117588" opacity="0.3">
          <g id="Group_117587" data-name="Group 117587">
            <g id="Group_117586" data-name="Group 117586" clip-path="url(#clip-path-19)">
              <path id="Path_179379" data-name="Path 179379" d="M259.236,230.283l45.883-70.38-6.624-6.4,3.785-4.833-7.338,4.352,5.166,4.352Z"/>
            </g>
          </g>
        </g>
        <g id="Group_117591" data-name="Group 117591" opacity="0.3">
          <g id="Group_117590" data-name="Group 117590">
            <g id="Group_117589" data-name="Group 117589" clip-path="url(#clip-path-20)">
              <path id="Path_179380" data-name="Path 179380" d="M145.889,232.642v3.91l52.081.162v-4.072Z"/>
            </g>
          </g>
        </g>
        <path id="Path_179381" data-name="Path 179381" d="M209.358,88.863a7.71,7.71,0,0,0,7.245-3.235c-1.869.287-3.878.551-5.569-.31s-2.638-3.343-1.319-4.654c1.032-1.063,2.73-.877,4.2-.985a9.092,9.092,0,0,0,7.757-5.935c1.249-3.583.109-7.485-.341-11.255a31.03,31.03,0,0,1,12.97-28.6l23.589-13.637c8.533,10.953,11.225,25.707,9.449,39.484S259.725,86.474,252.7,98.459a45.241,45.241,0,0,1-7.121,9.789,18.328,18.328,0,0,1-10.6,5.43,10.923,10.923,0,0,1,1.745-9.867,23.807,23.807,0,0,1-17.539-6.283l5.05-3.879a18.456,18.456,0,0,1-14.878-4.786" fill="#263238"/>
        <path id="Path_179382" data-name="Path 179382" d="M300.171,50.388c-.419-9.852-6.555-18.1-16.042-20.812l-29.547-8.448c-12.83-1.761-21.875,13.831-23.093,26.723-1.342,14.328-2.327,29.478-.977,40.221,2.754,21.643,19.176,24.893,19.176,24.893s-.543,19.509-.714,25.8l15.041,31.447,29.175-40.228,7.074-79.317c.016-.38-.046.217-.093-.279" fill="#af7e69"/>
        <path id="Path_179383" data-name="Path 179383" d="M237.175,65.7a2.769,2.769,0,0,0,2.575,2.87,2.645,2.645,0,0,0,2.919-2.34l.006-.065a2.763,2.763,0,0,0-2.576-2.87,2.646,2.646,0,0,0-2.918,2.341l-.006.064" fill="#263238"/>
        <path id="Path_179384" data-name="Path 179384" d="M234.483,56.384c.334.372,2.475-1.117,5.43-1.016s5.1,1.652,5.43,1.3c.163-.163-.163-.822-1.094-1.551a7.594,7.594,0,0,0-4.336-1.482,7.315,7.315,0,0,0-4.352,1.257c-.907.682-1.241,1.318-1.078,1.489" fill="#263238"/>
        <path id="Path_179385" data-name="Path 179385" d="M262.308,65.7a2.769,2.769,0,0,0,2.575,2.87,2.645,2.645,0,0,0,2.919-2.34l.006-.065a2.763,2.763,0,0,0-2.576-2.87,2.653,2.653,0,0,0-2.919,2.356c0,.017,0,.033,0,.049" fill="#263238"/>
        <path id="Path_179386" data-name="Path 179386" d="M262.711,57.191c.334.372,2.475-1.117,5.43-1.016s5.1,1.652,5.43,1.3c.163-.163-.163-.822-1.094-1.551a7.553,7.553,0,0,0-4.336-1.482,7.271,7.271,0,0,0-4.352,1.257c-.907.682-1.241,1.318-1.078,1.489" fill="#263238"/>
        <path id="Path_179387" data-name="Path 179387" d="M252.759,80.268c0-.163-1.823-.543-4.8-1.016-.775-.1-1.474-.279-1.551-.776a4.818,4.818,0,0,1,.574-2.234l2.42-5.709c3.375-8.13,5.834-14.832,5.508-14.964s-3.359,6.33-6.71,14.491l-2.327,5.748a4.4,4.4,0,0,0-.481,2.971,1.9,1.9,0,0,0,1.21,1.148,5.027,5.027,0,0,0,1.288.217c2.978.225,4.848.3,4.871.124" fill="#263238"/>
        <path id="Path_179388" data-name="Path 179388" d="M278.451,106.115s-7.431,14.6-28.926,11.915l.139-5.065a54.231,54.231,0,0,0,28.787-6.85" fill="#7c5142"/>
        <path id="Path_179389" data-name="Path 179389" d="M263.953,47.6c.271.776,3.25.527,6.724,1.055s6.261,1.551,6.75.853c.216-.341-.249-1.117-1.366-1.939A11.839,11.839,0,0,0,265.8,46.121c-1.311.481-1.954,1.094-1.845,1.482" fill="#263238"/>
        <path id="Path_179390" data-name="Path 179390" d="M235.717,47.316c.5.69,2.568.054,5.034.1s4.53.589,5.035-.1c.217-.334-.087-1.024-.979-1.691a7.291,7.291,0,0,0-8.114,0c-.907.667-1.2,1.357-.976,1.691" fill="#263238"/>
        <path id="Path_179391" data-name="Path 179391" d="M263.906,86.07a3.88,3.88,0,0,0-3.925-3.056,4.066,4.066,0,0,0-3.181,2.125,5,5,0,0,0-.287,3.88l.055.279a4.417,4.417,0,0,0,4.941,1.2,4.141,4.141,0,0,0,2.4-4.429" fill="#7c5142"/>
        <path id="Path_179392" data-name="Path 179392" d="M254.4,89.3c0-.45,3.009-.225,5.344-2.622s2.249-5.624,2.668-5.616c.194,0,.528.776.458,2.11a7.484,7.484,0,0,1-2.056,4.7,6.549,6.549,0,0,1-4.468,2.009c-1.257.015-1.946-.38-1.946-.582" fill="#263238"/>
        <path id="Path_179393" data-name="Path 179393" d="M290.257,16.078C286.929,10.8,279.071,5.28,272.912,4.2c-6.981-1.226-11.232,0-15.848,4.189,0,0-3.584,3.459-6.981,4.111s-6.206.1-10.185,2.156c-5.485,2.8-7.889,10.131-10.426,15.74-3.157,6.981-7.648,13.381-9.712,20.75S218.8,67.562,225,72.038c-1.063-5.647-1.947-11.861.38-16.965a14.808,14.808,0,0,0,.372,6.113c1.164-3.32,2.39-6.741,4.794-9.309,2.273-2.42,5.43-3.878,7.757-6.2,3.437-3.452,5.019-8.7,9.193-11.21,4.344-2.606,9.843-1.3,14.9-1.279A28.563,28.563,0,0,0,284.656,22.5l-1.256-.109a35.492,35.492,0,0,0,6.857-6.314" fill="#263238"/>
        <path id="Path_179394" data-name="Path 179394" d="M321.929,68.772C320,62.434,316.6,56.64,314.482,50.364c-2.071-6.112-2.924-12.644-5.67-18.477-3.7-7.85-10.6-18.028-21.363-17.462l-.776.644a23.03,23.03,0,0,0-10.86,1.3l-.171,8.385-2.055,1.815c.861,1.668,1.683,3.274,2.474,4.856a52.6,52.6,0,0,0,2.738,9.231,23.862,23.862,0,0,0,5.167,7.851c18.539,44.386,1.722,47.186,10.084,72.622l5.251-14.56a25.9,25.9,0,0,0,10.387-11.194l.931,4.654a26.745,26.745,0,0,0,7.238-16.53l2.482,4.406c3.793-5.43,3.522-12.8,1.59-19.129" fill="#263238"/>
        <path id="Path_179395" data-name="Path 179395" d="M290.3,67.151c.287-.721,13.684-5.127,13.459,8.975-.218,13.7-13.963,10.6-13.963,10.208s.5-19.183.5-19.183" fill="#af7e69"/>
        <path id="Path_179396" data-name="Path 179396" d="M294.112,81.23c.062-.047.233.171.636.365a2.364,2.364,0,0,0,1.776.069c1.459-.5,2.723-2.777,2.84-5.243a7.9,7.9,0,0,0-.605-3.429A2.75,2.75,0,0,0,297,71.122a1.226,1.226,0,0,0-1.42.629c-.194.38-.108.651-.178.675s-.295-.233-.171-.776a1.552,1.552,0,0,1,.551-.846,1.806,1.806,0,0,1,1.326-.325,3.344,3.344,0,0,1,2.452,2.172,8.094,8.094,0,0,1,.775,3.832c-.139,2.761-1.605,5.321-3.6,5.849a2.512,2.512,0,0,1-2.172-.4c-.434-.364-.5-.675-.45-.7" fill="#7c5142"/>
        <path id="Path_179397" data-name="Path 179397" d="M295.594,83.7a2.7,2.7,0,1,1-.644.186" fill="#fff"/>
        <path id="Path_179398" data-name="Path 179398" d="M294.95,83.883a3.588,3.588,0,0,0-1.28,1.8,2.326,2.326,0,0,0,.473,2.164,2.4,2.4,0,0,0,4.251-1.218,2.325,2.325,0,0,0-.776-2.087,3.657,3.657,0,0,0-2.047-.845c0-.039.217-.14.651-.132a2.774,2.774,0,0,1,1.691.644,2.746,2.746,0,0,1,1.024,2.5,2.94,2.94,0,0,1-5.259,1.512,2.738,2.738,0,0,1-.458-2.66,2.81,2.81,0,0,1,1.094-1.451c.427-.233.628-.264.636-.225" fill="#263238"/>
        <path id="Path_179399" data-name="Path 179399" d="M274.727,30c.272.109,1.551-4.538,5.352-8.843s8.184-6.206,8.045-6.5a7.542,7.542,0,0,0-2.894,1.156,22.172,22.172,0,0,0-9.743,11.17,7.722,7.722,0,0,0-.76,3.018" fill="#455a64"/>
        <path id="Path_179400" data-name="Path 179400" d="M151.9,236.551l-10.224-12.016s-7.175,0-10.759-3.413-10.224-6.632-7.532-12.729c0,0-3.227-3.77-.629-7.889l.086-1.079s-8.068-3.413-5.741-7.532,6.819-2.327,6.819-2.327-8.812-5.957-10.4-7.586c-4.251-4.36.318-7.3,5.042-4.655,7.85,4.282,34.224,16.717,36.032,25.684v3.879s7.346,9.006,7.346,9.541-.535,14.56-10.038,20.122" fill="#af7e69"/>
        <path id="Path_179401" data-name="Path 179401" d="M100.215,145.979c-.318-.4,40.12,64.788,40.12,64.788l1.838,21.875h63.112l-5.856-24.9s-10.907-29.244-10.783-29.585c.241-.668-20.424-33.162-20.424-33.162Z" fill="#fff"/>
        <path id="Path_179402" data-name="Path 179402" d="M100.215,145.979l1.241-.039,3.592-.07,13.7-.248,49.475-.776h.077l.047.078c5.43,8.533,11.356,17.841,17.516,27.926.775,1.264,1.551,2.536,2.272,3.878.187.334.373.66.536,1.009a2.089,2.089,0,0,1,.124.287.326.326,0,0,1,0,.139v.132l.17.528.776,2.148,3.165,8.7,6.671,18c1.777,7.556,3.646,15.476,5.539,23.535.108.458.217.916.318,1.366l.062.248H141.956v-.171q-.954-11.488-1.823-21.875v.078l-29.019-47.047-8.091-13.187c-.915-1.513-1.621-2.677-2.11-3.468-.225-.4-.4-.69-.527-.9a2.033,2.033,0,0,1-.171-.31l40.267,64.694v.078q.885,10.388,1.854,21.875l-.186-.17h63.112l-.194.248-.326-1.366-5.53-23.535q-3.407-9.2-6.664-18.012-1.605-4.413-3.157-8.7c-.256-.722-.5-1.443-.776-2.157l-.17-.55v-.07a.411.411,0,0,1,0-.14v-.07c-.14-.062.209.047.124,0a.25.25,0,0,0-.109,0h0a1.325,1.325,0,0,0-.1-.232c-.155-.326-.341-.66-.519-.986-.737-1.3-1.5-2.575-2.265-3.878-6.152-10.084-12.078-19.447-17.47-27.98l.14.077-49.591.73-13.676.155H101.4c-.776.039-1.187.023-1.187.023" fill="#263238"/>
        <path id="Path_179403" data-name="Path 179403" d="M183.038,179.777h-2.18l-5.942-.116c-5.011-.109-11.93-.3-19.579-.427s-14.575-.109-19.579.054c-2.5.062-4.53.171-5.926.249l-1.614.093a4.456,4.456,0,0,1-.566,0,2.571,2.571,0,0,1,.559-.086l1.6-.17c1.4-.132,3.421-.28,5.934-.38,5.012-.233,11.939-.287,19.6-.171s14.576.357,19.579.551l5.934.24,1.614.078a2.524,2.524,0,0,1,.566.085" fill="#263238"/>
        <path id="Path_179404" data-name="Path 179404" d="M190.795,208.8c0,.109-8.944-.861-19.936-2.18s-19.9-2.467-19.889-2.575,8.936.861,19.936,2.18,19.889,2.466,19.889,2.575" fill="#263238"/>
        <path id="Path_179405" data-name="Path 179405" d="M132.616,213.21l11.806-.776a5.146,5.146,0,0,0,3.476-1.1c1.07-1.117.543-3.638-.815-4.383l-13.528-3.266" fill="#af7e69"/>
        <path id="Path_179406" data-name="Path 179406" d="M133.54,203.707a7.294,7.294,0,0,1,1.047.178l2.854.63,9.674,2.265h.054a2.826,2.826,0,0,1,1.132,1.31,3.819,3.819,0,0,1,.349,1.723,2.453,2.453,0,0,1-.7,1.73,3.426,3.426,0,0,1-1.552.838,18.942,18.942,0,0,1-3.25.333l-5.476.3-3.684.17a8.32,8.32,0,0,1-1.358,0,9.448,9.448,0,0,1,1.341-.164l3.685-.294,5.431-.4a19.734,19.734,0,0,0,3.179-.341,3.177,3.177,0,0,0,1.4-.777,2.059,2.059,0,0,0,.574-1.458,3.043,3.043,0,0,0-1.272-2.668h.046l-9.641-2.4-2.825-.775a5.337,5.337,0,0,1-1.015-.21" fill="#7c5142"/>
        <path id="Path_179407" data-name="Path 179407" d="M138.046,199.472a57.975,57.975,0,0,1,10.495,2.955,2.328,2.328,0,0,1,1.552,2.708,1.9,1.9,0,0,1-.776,1.443,3.743,3.743,0,0,1-1.66.457,42.318,42.318,0,0,1-10.038-.613c-3.382-.473-8.067,0-10.03,1.04" fill="#af7e69"/>
        <path id="Path_179408" data-name="Path 179408" d="M127.613,207.462a2.38,2.38,0,0,1,.334-.2,7.7,7.7,0,0,1,1.039-.4,19.041,19.041,0,0,1,4.034-.7,25.714,25.714,0,0,1,2.831-.054,31.155,31.155,0,0,1,3.227.325,42.31,42.31,0,0,0,7.338.489,16.354,16.354,0,0,0,1.9-.171,1.812,1.812,0,0,0,1.388-.876,2.412,2.412,0,0,0-.628-2.971,7.7,7.7,0,0,0-1.482-.644l-1.473-.52c-.955-.333-1.847-.62-2.669-.861-1.644-.5-2.994-.822-3.933-1.047a13.877,13.877,0,0,1-1.45-.357,1.475,1.475,0,0,1,.387,0,8.308,8.308,0,0,1,1.1.179c.946.17,2.327.457,3.972.915.83.233,1.737.5,2.7.822l1.489.5a8.129,8.129,0,0,1,1.552.668,2.329,2.329,0,0,1,1,1.551,3.329,3.329,0,0,1-.225,1.908,1.72,1.72,0,0,1-.714.776,3.113,3.113,0,0,1-.954.333,15.2,15.2,0,0,1-1.963.187,41.2,41.2,0,0,1-7.408-.52,31.9,31.9,0,0,0-3.188-.365,26.159,26.159,0,0,0-2.8,0,21.79,21.79,0,0,0-4,.559c-.915.256-1.388.5-1.4.473" fill="#7c5142"/>
        <path id="Path_179409" data-name="Path 179409" d="M124.526,189.69l9.309,5.19a9.466,9.466,0,0,1,3.715,3c.846,1.373.776,3.444-.582,4.32-1.055.7-2.451.435-3.676.124a90.939,90.939,0,0,1-10.232-3.25" fill="#af7e69"/>
        <path id="Path_179410" data-name="Path 179410" d="M123.06,199.076a9.094,9.094,0,0,1,1.3.4c.838.28,2.04.691,3.545,1.156s3.305.978,5.322,1.482a5.782,5.782,0,0,0,3.1.178,2.157,2.157,0,0,0,1.2-.985,2.945,2.945,0,0,0,.357-1.6,4.122,4.122,0,0,0-1.5-2.893,14.666,14.666,0,0,0-2.677-1.792l-4.809-2.731-3.227-1.877a8.952,8.952,0,0,1-1.156-.729,7.537,7.537,0,0,1,1.233.6l3.29,1.761L133.9,194.7a14.542,14.542,0,0,1,2.761,1.8,5.476,5.476,0,0,1,1.133,1.38,4.052,4.052,0,0,1,.5,1.785,3.354,3.354,0,0,1-.411,1.822,2.563,2.563,0,0,1-1.389,1.218,6.049,6.049,0,0,1-3.327-.186c-2.017-.527-3.817-1.078-5.314-1.551s-2.692-.954-3.514-1.28l-.939-.388a1.192,1.192,0,0,1-.341-.226" fill="#7c5142"/>
        <path id="Path_179411" data-name="Path 179411" d="M345.783,254.191l-4.423-1.257-14.04-1.311-3.933-5.22,2.738-11.279,17.57-4.181c8.1,5.771,5.9,15.39,2.088,23.248" fill="#af7e69"/>
        <path id="Path_179412" data-name="Path 179412" d="M304.9,225.877a12.134,12.134,0,0,0-4.934.388,6.556,6.556,0,0,0-3.878,5.12c-.458,3.614-.6,6.547-.853,9.913a3.15,3.15,0,0,0,.915,2.382c1.109,1.132,3.1.775,4.259-.342a10.543,10.543,0,0,0,2.2-4.142c.55-1.482,1.132-5.027,1.993-5.337,2.451-.884,5.779,3.328,7.618,1.265l3.343-8.145c-5.2-.505-5.492-.6-10.666-1.1" fill="#af7e69"/>
        <path id="Path_179413" data-name="Path 179413" d="M304.9,225.877h.745l2.117.178,7.758.776h.2l-.077.186-3.3,8.161a1.9,1.9,0,0,1-1.606.628,5.259,5.259,0,0,1-1.652-.5,18.21,18.21,0,0,0-3.1-1.366l-.419-.062h-.411a3.776,3.776,0,0,0-.395.078c-.14,0-.171.085-.272.186a5.421,5.421,0,0,0-.69,1.59c-.365,1.164-.6,2.389-1.04,3.607a14.839,14.839,0,0,1-1.435,3.158,4.948,4.948,0,0,1-1.2,1.272,4.008,4.008,0,0,1-1.59.667,3.1,3.1,0,0,1-1.707-.148,2.791,2.791,0,0,1-1.264-1.124,3.259,3.259,0,0,1-.512-1.552c0-.566.062-1.039.093-1.551.147-2,.279-3.879.457-5.694.086-.884.179-1.745.28-2.568a7,7,0,0,1,.612-2.327,6.261,6.261,0,0,1,5.8-3.777,14.716,14.716,0,0,1,1.97.038l.5.055.171.038a6.487,6.487,0,0,1-.683,0,16.219,16.219,0,0,0-1.947.039,6.6,6.6,0,0,0-2.924.776,6.51,6.51,0,0,0-2.638,2.948,6.8,6.8,0,0,0-.558,2.257c-.093.822-.178,1.683-.256,2.568-.163,1.784-.279,3.684-.419,5.693,0,.489-.1,1.032-.085,1.5a2.893,2.893,0,0,0,.465,1.373,2.326,2.326,0,0,0,1.078.962,2.678,2.678,0,0,0,1.49.124,3.88,3.88,0,0,0,2.529-1.776,14,14,0,0,0,1.388-3.1c.427-1.171.667-2.4,1.032-3.584a5.533,5.533,0,0,1,.776-1.729.742.742,0,0,1,.2-.194.678.678,0,0,1,.256-.117,3.584,3.584,0,0,1,.481-.093h.481l.466.078a17.387,17.387,0,0,1,3.2,1.4,4.776,4.776,0,0,0,1.552.473,1.552,1.552,0,0,0,1.3-.5l-.039.054c1.257-3.018,2.4-5.771,3.374-8.129l.125.2c-3.289-.333-5.942-.667-7.758-.876l-2.109-.256-.551-.078a.53.53,0,0,1-.264.039" fill="#7c5142"/>
        <path id="Path_179414" data-name="Path 179414" d="M334.542,226.909s-1.745-.543-4.1,1.179c0,0-.884-3.878-3.979-4.654-2.25-.551-5.112,1.753-5.112,1.753s-1.939-3.879-7.113-2.265c-4.275,1.342-13.257,27.887-14.025,29.663-.885,2.04,2.746,4.592,4.747,2.537s9.153-13.963,9.153-13.963L309.424,257.7a3.222,3.222,0,0,0,.055,1.637,3.448,3.448,0,0,0,6.151.489c2.917-3.949,5.88-12.071,5.88-12.071l2.862-6.205s-5.344,16.522-3.4,18.027,4.429.923,6.2-2.955,8.246-16.174,8.246-16.174l3.1-1.613L337.4,242.71s-5.88,3.1-4.562,5.818,4.1,1.939,6.827.652,5.1-7.672,6.547-10.294c1.3-2.327,1.427-9.254-4.15-9.518a4.265,4.265,0,0,0-3.2,1.272l-.28.279s-.946-3.459-4.041-4.01" fill="#af7e69"/>
        <path id="Path_179415" data-name="Path 179415" d="M334.542,226.909l.372.078a2.519,2.519,0,0,1,.45.139,3.222,3.222,0,0,1,.6.272,6,6,0,0,1,2.645,3.49h-.1a4.538,4.538,0,0,1,2.855-1.551,5.2,5.2,0,0,1,3.793,1.156,6.243,6.243,0,0,1,1.838,4.258,9.851,9.851,0,0,1-.163,2.6,6.859,6.859,0,0,1-.411,1.319c-.194.434-.426.814-.628,1.241-.822,1.683-1.621,3.506-2.638,5.329a17.607,17.607,0,0,1-1.784,2.669,5.986,5.986,0,0,1-1.225,1.148,9.1,9.1,0,0,1-1.552.775,7.375,7.375,0,0,1-3.428.706,2.872,2.872,0,0,1-1.684-.775,3.563,3.563,0,0,1-.6-.722l-.233-.411-.155-.465a2.657,2.657,0,0,1,.38-1.878,6.568,6.568,0,0,1,1.226-1.474,15.943,15.943,0,0,1,3.165-2.234l-.086.1,1.133-3.878.24.194c-.938.5-2,1.062-3.1,1.621l.077-.07q-2.326,4.437-4.755,9.177l-2.436,4.832-1.156,2.452a8.734,8.734,0,0,1-1.621,2.327,3.7,3.7,0,0,1-2.668,1.156,3.393,3.393,0,0,1-1.451-.419,4.063,4.063,0,0,1-.628-.419,1.335,1.335,0,0,1-.372-.737,9.685,9.685,0,0,1,.054-2.963c.132-.97.31-1.932.512-2.9.83-3.879,1.939-7.711,3.165-11.636l.372.147-2.855,6.206c-.651,1.753-1.411,3.607-2.241,5.43-.613,1.357-1.265,2.692-1.978,3.987-.357.652-.737,1.28-1.141,1.9a7.584,7.584,0,0,1-1.419,1.8,3.5,3.5,0,0,1-2.11.815,3.821,3.821,0,0,1-2.165-.652,3.222,3.222,0,0,1-1.373-1.776,3.514,3.514,0,0,1-.093-1.133,5.6,5.6,0,0,1,.249-1.07q2.326-8.216,4.53-15.957l.349.155q-2.684,4.469-5.391,8.665c-.908,1.389-1.816,2.762-2.785,4.073a6.076,6.076,0,0,1-1.738,1.761,2.909,2.909,0,0,1-2.451,0,3.5,3.5,0,0,1-1.792-1.629,2.241,2.241,0,0,1-.194-1.234c.117-.434.272-.776.4-1.117l1.551-4.235c1.024-2.785,2.04-5.43,3.1-8.021s2.048-5.011,3.1-7.315a57.488,57.488,0,0,1,3.343-6.439,10.354,10.354,0,0,1,2.133-2.614,2.445,2.445,0,0,1,.776-.4l.776-.2a7.627,7.627,0,0,1,1.551-.163,5.431,5.431,0,0,1,4.825,2.715h-.155a9.655,9.655,0,0,1,3.39-1.714,3.758,3.758,0,0,1,1.707-.055,4.242,4.242,0,0,1,1.45.629,5.8,5.8,0,0,1,1.753,2,8.394,8.394,0,0,1,.83,2.064H330.4a6.035,6.035,0,0,1,3.1-1.226,2.747,2.747,0,0,1,1.055.093H334.3a3.728,3.728,0,0,0-.776,0,6.2,6.2,0,0,0-3.01,1.257l-.062.046v-.077a8.58,8.58,0,0,0-.838-2.025,5.817,5.817,0,0,0-1.8-1.97,4.166,4.166,0,0,0-1.4-.59,3.676,3.676,0,0,0-1.636.07,9.3,9.3,0,0,0-3.3,1.7l-.1.07-.054-.109a5.257,5.257,0,0,0-4.655-2.575,7.844,7.844,0,0,0-1.512.17l-.776.194a2.108,2.108,0,0,0-.659.365,10.069,10.069,0,0,0-2.064,2.552,57.638,57.638,0,0,0-3.3,6.415q-1.553,3.468-3.1,7.315T302.2,247.7c-.511,1.389-1.023,2.808-1.551,4.243-.124.349-.3.737-.372,1.055a1.879,1.879,0,0,0,.163,1.024,3.182,3.182,0,0,0,1.613,1.451,2.54,2.54,0,0,0,2.149,0,5.648,5.648,0,0,0,1.606-1.653c.954-1.3,1.861-2.668,2.769-4.057q2.7-4.188,5.368-8.664l.775-1.241-.395,1.4c-1.458,5.143-2.971,10.472-4.515,15.949a4.511,4.511,0,0,0-.232,1,2.885,2.885,0,0,0,.077,1,2.823,2.823,0,0,0,1.21,1.551,3.5,3.5,0,0,0,1.924.59,3.2,3.2,0,0,0,1.877-.737,7.11,7.11,0,0,0,1.35-1.629c.4-.613.776-1.241,1.125-1.877.706-1.28,1.349-2.607,1.962-3.956.823-1.831,1.552-3.685,2.234-5.43l2.863-6.206.372.147c-1.218,3.879-2.327,7.757-3.157,11.566-.2.954-.38,1.916-.512,2.87a9.564,9.564,0,0,0-.062,2.816,1.015,1.015,0,0,0,.248.535,3.164,3.164,0,0,0,.559.373,2.9,2.9,0,0,0,1.28.372,3.3,3.3,0,0,0,2.381-1.047c1.319-1.28,1.9-3.1,2.754-4.724l2.451-4.833q2.456-4.735,4.771-9.169v-.046h.046l3.1-1.614.357-.186-.116.388-1.133,3.878v.07h-.062a15.486,15.486,0,0,0-3.1,2.18,6.27,6.27,0,0,0-1.171,1.4,2.331,2.331,0,0,0-.342,1.645,2.839,2.839,0,0,0,2.4,2.117,7.178,7.178,0,0,0,3.282-.682,9.787,9.787,0,0,0,1.489-.714,6.229,6.229,0,0,0,1.171-1.094,17.262,17.262,0,0,0,1.761-2.622c1.016-1.8,1.815-3.614,2.653-5.305.2-.419.45-.83.629-1.234a6.2,6.2,0,0,0,.4-1.264,9.431,9.431,0,0,0,.171-2.537,6.034,6.034,0,0,0-1.746-4.134,5.058,5.058,0,0,0-3.646-1.141,4.5,4.5,0,0,0-2.792,1.49l-.07.085v-.109a5.962,5.962,0,0,0-2.56-3.467,6.279,6.279,0,0,0-1.466-.605" fill="#7c5142"/>
        <path id="Path_179416" data-name="Path 179416" d="M327.266,233.456a19.189,19.189,0,0,1-1.482,5.174c-.535,1.389-1.062,2.622-1.45,3.514a6.853,6.853,0,0,1-.706,1.412,34.336,34.336,0,0,1,1.784-5.073c.535-1.373.993-2.63,1.3-3.545a8.6,8.6,0,0,1,.551-1.482" fill="#7c5142"/>
        <path id="Path_179417" data-name="Path 179417" d="M318.09,231.8c.109.054-.877,2.219-1.97,4.949a32.866,32.866,0,0,1-2.134,4.887,6.183,6.183,0,0,1,.443-1.505c.318-.907.775-2.164,1.318-3.529s1.11-2.591,1.552-3.452a5.9,5.9,0,0,1,.791-1.35" fill="#7c5142"/>
        <path id="Path_179418" data-name="Path 179418" d="M119.2,263.99l-1.08,1.155-32.3,38.493,71.608.042,19.7-39.484Z" fill="#ebebeb"/>
        <path id="Path_179419" data-name="Path 179419" d="M105.358,265.785l-1.08,1.2L68.3,306.781l69.779.048L163.287,266Z" fill="#fafafa"/>
        <path id="Path_179420" data-name="Path 179420" d="M105.358,265.792h15.894l42.028.089h.275l-.145.234-25.178,40.8-.055.083h-9.663L68.3,306.933h-.344l.227-.255,26.939-29.7,7.565-8.253,1.994-2.173c.454-.5.688-.736.688-.736l-.688.77q-.687.75-1.96,2.2L95.255,277.1,68.433,306.885l-.11-.255H138.1l-.151.083c9.188-14.862,17.785-28.782,25.22-40.818l.137.241-41.952-.227-11.8-.062-3.108-.034h-.8Z" fill="#e0e0e0"/>
        <path id="Path_179421" data-name="Path 179421" d="M131.96,299.491a2.56,2.56,0,0,1-.5,0H124.9l-17.1-.1-17.111-.206-5.2-.083-1.375-.041a2.348,2.348,0,0,1-.495-.042,2.16,2.16,0,0,1,.495-.034h6.554l17.111.1,17.1.207,5.186.1,1.375.048a2.356,2.356,0,0,1,.516.048" fill="#e0e0e0"/>
        <path id="Path_179422" data-name="Path 179422" d="M134.03,295.186a2.584,2.584,0,0,1-.481.034h-6.431l-16.691-.1-16.685-.179-5.055-.1-1.375-.048a3.893,3.893,0,0,1-.482-.034,2,2,0,0,1,.482-.035h1.375l5.055-.048,16.692.1,16.691.2,5.062.1,1.375.048a2.159,2.159,0,0,1,.468.055" fill="#e0e0e0"/>
        <path id="Path_179423" data-name="Path 179423" d="M137.145,290.881a2.515,2.515,0,0,1-.475,0h-6.341l-16.388-.1-16.382-.2-4.938-.034-1.376-.041a2.827,2.827,0,0,1-.468-.042,1.985,1.985,0,0,1,.468-.034h6.341l16.389.1,16.382.207,4.965.1,1.376.048a2.224,2.224,0,0,1,.447,0" fill="#e0e0e0"/>
        <path id="Path_179424" data-name="Path 179424" d="M140.749,286.892a2.958,2.958,0,0,1-.461,0H134.1l-16.045-.089L102,286.665l-4.863-.1-1.327-.048a3.4,3.4,0,0,1-.461-.035,1.886,1.886,0,0,1,.461-.055H102l16.052.1,16.052.192,4.862.1,1.32.049a2.034,2.034,0,0,1,.468.027" fill="#e0e0e0"/>
        <path id="Path_179425" data-name="Path 179425" d="M143.411,282.7a1.827,1.827,0,0,1-.461.034h-6.189l-16.052-.1-16.052-.192-4.863-.1-1.32-.041a2.039,2.039,0,0,1-.461-.041,2.958,2.958,0,0,1,.461,0h6.19l16.052.089,16.045.2,4.869.1,1.32.041Z" fill="#e0e0e0"/>
        <path id="Path_179426" data-name="Path 179426" d="M147.338,278.536a2.958,2.958,0,0,1-.461,0h-6.189l-16.052-.089-16.045-.2-4.87-.1-1.32-.048a3.4,3.4,0,0,1-.461-.035,1.876,1.876,0,0,1,.461-.034h6.19l16.052.089,16.045.2,4.869.1,1.32.048a1.989,1.989,0,0,1,.461.069" fill="#e0e0e0"/>
        <path id="Path_179427" data-name="Path 179427" d="M150.219,274.464a2.217,2.217,0,0,1-.461,0h-6.189l-16.045-.165-16.052-.255-4.863-.123-1.32-.048a2.236,2.236,0,0,1-.461-.049,3.219,3.219,0,0,1,.461,0h6.183l16.052.165,16.051.276,4.863.116,1.32.055a2.036,2.036,0,0,1,.461.028" fill="#e0e0e0"/>
        <path id="Path_179428" data-name="Path 179428" d="M154.655,270.606a1.87,1.87,0,0,1-.461,0h-6.189l-16.052-.165-16.045-.275-4.863-.124-1.327-.048a2.039,2.039,0,0,1-.461-.041,2.375,2.375,0,0,1,.461-.035h6.19l16.051.165,16.046.275,4.869.124,1.32.048a2.754,2.754,0,0,1,.461.076" fill="#e0e0e0"/>
      </g>
    </g>
  </g>
</svg>
