<svg xmlns="http://www.w3.org/2000/svg" xmlns:xlink="http://www.w3.org/1999/xlink" width="295" height="280" viewBox="0 0 295 280">
  <defs>
    <clipPath id="clip-path">
      <rect id="Rectangle_37990" data-name="Rectangle 37990" width="243.793" height="179.753" fill="none"/>
    </clipPath>
    <clipPath id="clip-path-3">
      <rect id="Rectangle_37955" data-name="Rectangle 37955" width="49.664" height="49.128" fill="none"/>
    </clipPath>
    <clipPath id="clip-path-4">
      <rect id="Rectangle_37956" data-name="Rectangle 37956" width="51.206" height="52.261" fill="none"/>
    </clipPath>
    <clipPath id="clip-path-5">
      <rect id="Rectangle_37957" data-name="Rectangle 37957" width="23.18" height="36.59" fill="none"/>
    </clipPath>
    <clipPath id="clip-path-6">
      <rect id="Rectangle_37958" data-name="Rectangle 37958" width="33.591" height="19.525" fill="none"/>
    </clipPath>
    <clipPath id="clip-path-7">
      <path id="Path_181518" data-name="Path 181518" d="M194.863,330.876l.366,3.085s2.1.979,3.542-.123L197.9,330.4Z" transform="translate(-194.863 -330.4)" fill="none"/>
    </clipPath>
    <linearGradient id="linear-gradient" x1="-25.32" y1="2.63" x2="-25.19" y2="2.63" gradientUnits="objectBoundingBox">
      <stop offset="0" stop-color="#febbba"/>
      <stop offset="1" stop-color="#ff928e"/>
    </linearGradient>
    <clipPath id="clip-path-9">
      <path id="Path_181521" data-name="Path 181521" d="M167.129,328.982l.855,4.666a3.016,3.016,0,0,0,2.519.173l-.408-5.019Z" transform="translate(-167.129 -328.801)" fill="none"/>
    </clipPath>
    <linearGradient id="linear-gradient-2" x1="-25.155" y1="2.332" x2="-25.004" y2="2.332" xlink:href="#linear-gradient"/>
    <clipPath id="clip-path-11">
      <path id="Path_181524" data-name="Path 181524" d="M244.2,110.583c-1.519,6.416-9.483,11.619-17.666,14.163a22.136,22.136,0,0,0,4.374,9.15c13.58-7.636,15.59-22.667,15.59-22.667a1.982,1.982,0,0,0-1.566-.782,1.946,1.946,0,0,0-.732.137" transform="translate(-226.531 -110.446)" fill="none"/>
    </clipPath>
    <linearGradient id="linear-gradient-3" x1="-5.762" y1="5.274" x2="-5.737" y2="5.274" xlink:href="#linear-gradient"/>
    <clipPath id="clip-path-12">
      <path id="Path_181525" data-name="Path 181525" d="M261.494,97.352c-.395.539.008,3.371.033,4.032.724,1.38,1.952.866,1.846.529a2.738,2.738,0,0,0,2.057-1.214c.448-.637.922-1.45,1.27-2.076a2.774,2.774,0,0,0,.276-2.041A9.582,9.582,0,0,0,265.82,94.3l1.979-2.062a.97.97,0,0,0-.122-1.348,52.752,52.752,0,0,0-6.184,6.464" transform="translate(-261.321 -90.888)" fill="none"/>
    </clipPath>
    <linearGradient id="linear-gradient-4" x1="-9.365" y1="11.667" x2="-9.328" y2="11.667" xlink:href="#linear-gradient"/>
    <clipPath id="clip-path-13">
      <path id="Path_181526" data-name="Path 181526" d="M264.376,101.766l-.566,1.522,1.608,1.784a20.753,20.753,0,0,1,.942-3.673c.4-.654.193-.97-.181-1.161Z" transform="translate(-263.81 -100.237)" fill="none"/>
    </clipPath>
    <linearGradient id="linear-gradient-5" x1="-23.418" y1="25.24" x2="-23.328" y2="25.24" xlink:href="#linear-gradient"/>
    <clipPath id="clip-path-15">
      <path id="Path_181528" data-name="Path 181528" d="M141.967,184.383c6.4,11.7,23.8-.647,23.8-.647l-1.433-2.669s-10.825,6.118-14.477.894a4.1,4.1,0,0,1-.753-3.19,22.811,22.811,0,0,0-8.382-2.246,11.461,11.461,0,0,0,1.246,7.859" transform="translate(-140.501 -176.524)" fill="none"/>
    </clipPath>
    <linearGradient id="linear-gradient-6" x1="-2.785" y1="4.603" x2="-2.765" y2="4.603" xlink:href="#linear-gradient"/>
    <clipPath id="clip-path-17">
      <path id="Path_181532" data-name="Path 181532" d="M186.64,179.493c-.332,1.2.491,4.584.491,4.584a3.113,3.113,0,0,0,2.815-.983c.646-.634,1.03-1.268,1.554-.927a1.1,1.1,0,0,0,1.6-.369l-.94-1.037c1.377.669,1.521-.583,1.521-.583l-1.011-.782a1.228,1.228,0,0,0,1.757-1.059,31.388,31.388,0,0,0-4.673-1.247,3.668,3.668,0,0,0-.579-.048c-1.686,0-2.24,1.364-2.54,2.45" transform="translate(-186.561 -177.043)" fill="none"/>
    </clipPath>
    <linearGradient id="linear-gradient-7" x1="-11.63" y1="12.425" x2="-11.567" y2="12.425" xlink:href="#linear-gradient"/>
    <clipPath id="clip-path-18">
      <path id="Path_181533" data-name="Path 181533" d="M182.008,125.425l-3.284,9.5a.341.341,0,0,0,.156.412,7.72,7.72,0,0,0,8.007-.539,1.61,1.61,0,0,0,.742-1.151l1.063-8.221Z" transform="translate(-178.705 -125.425)" fill="none"/>
    </clipPath>
    <linearGradient id="linear-gradient-8" x1="-5.81" y1="8.132" x2="-5.776" y2="8.132" xlink:href="#linear-gradient"/>
    <clipPath id="clip-path-19">
      <path id="Path_181534" data-name="Path 181534" d="M181.645,109.119l6.477,9.1,6-2.894s-5.291-10.388-5.419-10.51a1.446,1.446,0,0,0-1.026-.4c-2.383,0-6.028,4.7-6.028,4.7" transform="translate(-181.645 -104.417)" fill="none"/>
    </clipPath>
    <linearGradient id="linear-gradient-9" x1="-6.24" y1="8.134" x2="-6.206" y2="8.134" xlink:href="#linear-gradient"/>
    <clipPath id="clip-path-21">
      <path id="Path_181536" data-name="Path 181536" d="M181.953,122.33c-1.472.124-2.631,1.591-.806,3.24,2.27,2.051,3.43,0,3.43,0s-1.109-3.246-2.544-3.246c-.026,0-.052,0-.079,0" transform="translate(-180.211 -122.326)" fill="none"/>
    </clipPath>
    <linearGradient id="linear-gradient-10" x1="-12.128" y1="16.056" x2="-12.059" y2="16.056" xlink:href="#linear-gradient"/>
    <clipPath id="clip-path-23">
      <path id="Path_181539" data-name="Path 181539" d="M125.917,275.12l-1.808,3.4a6.885,6.885,0,0,0-.784,3.808l1.875,22.446-1.431,1.967.174,1.067,8.742,5.159-3.44-5.586a6.282,6.282,0,0,1-.929-3.569c.352-8.014,2.33-28.051,2.33-28.051l-.591-3.474Z" transform="translate(-123.301 -272.284)" fill="none"/>
    </clipPath>
    <linearGradient id="linear-gradient-11" x1="-4.713" y1="1.012" x2="-4.673" y2="1.012" xlink:href="#linear-gradient"/>
    <clipPath id="clip-path-25">
      <path id="Path_181541" data-name="Path 181541" d="M86.75,274.134c-4.833,3.7-6.086,7.709-7.2,11.408s-3.134,14.339-4.074,16.686c-.788,1.967-2.915,6.3-3.586,7.658a1.239,1.239,0,0,0,.047,1.2,2.038,2.038,0,0,0,1.9.865c2.125,0,2.895-.594,2.934-1.214a48.171,48.171,0,0,1,2.512-9.6c1.842-5.018,13.431-27,13.431-27a3.439,3.439,0,0,0-2.722-1.444,5.328,5.328,0,0,0-3.241,1.444" transform="translate(-71.762 -272.69)" fill="none"/>
    </clipPath>
    <linearGradient id="linear-gradient-12" x1="-1.431" y1="1.029" x2="-1.41" y2="1.029" xlink:href="#linear-gradient"/>
    <clipPath id="clip-path-27">
      <path id="Path_181544" data-name="Path 181544" d="M131.879,134.912l-2.43,10.916c-.233.962.644.8,1.616.621,1.592-.3,3.644-.918,4.33-2.157a1.183,1.183,0,0,0,.124-.411l1.044-7.57a1.36,1.36,0,0,0-.8-1.429l-2.015-.893a1.358,1.358,0,0,0-1.873.923" transform="translate(-129.41 -133.872)" fill="none"/>
    </clipPath>
    <linearGradient id="linear-gradient-13" x1="-4.699" y1="13.431" x2="-4.661" y2="13.431" xlink:href="#linear-gradient"/>
    <clipPath id="clip-path-28">
      <path id="Path_181545" data-name="Path 181545" d="M108.269,190.436a3.82,3.82,0,0,0,1.674.97A18.418,18.418,0,0,1,113,193.481a.575.575,0,0,0,.841-.151.786.786,0,0,0,.045-.754l-2.1-4.44a1.619,1.619,0,0,0-2.1-.091.8.8,0,0,1-1.212-.274c-1.144-2.33-3.3-9.179,5.535-16.92a.958.958,0,0,0,.212-1.164c-.621-1.193-2.041-3.562-3.78-4.138,0,0-16.962,12.136-2.169,24.888" transform="translate(-102.213 -165.548)" fill="none"/>
    </clipPath>
    <linearGradient id="linear-gradient-14" x1="-2.061" y1="3.4" x2="-2.037" y2="3.4" xlink:href="#linear-gradient"/>
    <clipPath id="clip-path-29">
      <path id="Path_181546" data-name="Path 181546" d="M131.581,124.25a8.6,8.6,0,0,0,6.864,3.87c1.852.1,3.659-1.5,2.548-5.962s-3.7-6.212-3.7-6.212a2.43,2.43,0,0,0-1.317-.389c-3.128,0-6.43,5.893-4.395,8.693" transform="translate(-130.954 -115.557)" fill="none"/>
    </clipPath>
    <linearGradient id="linear-gradient-15" x1="-3.996" y1="7.699" x2="-3.964" y2="7.699" xlink:href="#linear-gradient"/>
    <clipPath id="clip-path-31">
      <path id="Path_181548" data-name="Path 181548" d="M130.571,125.422c-1.679.94.606,3.072,1.522,3.8l.626-1.449s-.359-2.517-1.573-2.517a1.182,1.182,0,0,0-.575.169" transform="translate(-129.971 -125.253)" fill="none"/>
    </clipPath>
    <linearGradient id="linear-gradient-16" x1="-13.221" y1="23.518" x2="-13.117" y2="23.518" xlink:href="#linear-gradient"/>
    <clipPath id="clip-path-33">
      <rect id="Rectangle_37985" data-name="Rectangle 37985" width="20.58" height="10.987" fill="none"/>
    </clipPath>
    <clipPath id="clip-path-34">
      <rect id="Rectangle_37986" data-name="Rectangle 37986" width="33.594" height="33.594" fill="none"/>
    </clipPath>
  </defs>
  <g id="t5-c8" transform="translate(-6781 7852)">
    <path id="Rectangle_38455" data-name="Rectangle 38455" d="M20,3A17,17,0,0,0,3,20V260a17,17,0,0,0,17,17H275a17,17,0,0,0,17-17V20A17,17,0,0,0,275,3H20m0-3H275a20,20,0,0,1,20,20V260a20,20,0,0,1-20,20H20A20,20,0,0,1,0,260V20A20,20,0,0,1,20,0Z" transform="translate(6781 -7852)" fill="#f9b131"/>
    <path id="Rectangle_38459" data-name="Rectangle 38459" d="M0,0H295a0,0,0,0,1,0,0V52a20,20,0,0,1-20,20H20A20,20,0,0,1,0,52V0A0,0,0,0,1,0,0Z" transform="translate(6781 -7644)" fill="#f9b131"/>
    <path id="Path_184778" data-name="Path 184778" d="M63.617,15.418a4.96,4.96,0,0,1-2.083,1.274,8.984,8.984,0,0,1-3.006.483,5.36,5.36,0,0,1-4.017-1.538,6.226,6.226,0,0,1-1.608-4.28l-.009-1.107a7.637,7.637,0,0,1,.668-3.3,4.96,4.96,0,0,1,1.912-2.171,5.407,5.407,0,0,1,2.878-.76,5.669,5.669,0,0,1,3.713,1.094,4.637,4.637,0,0,1,1.542,3.265H60.638a2.426,2.426,0,0,0-.686-1.529,2.212,2.212,0,0,0-1.494-.457,2.013,2.013,0,0,0-1.793.984,5.256,5.256,0,0,0-.642,2.813v.773a5.145,5.145,0,0,0,.655,2.878,2.316,2.316,0,0,0,2.061.962,2.592,2.592,0,0,0,1.793-.536V12.28H58.388V10.162h5.229Zm6.258,1.758a4.889,4.889,0,0,1-3.542-1.305,4.507,4.507,0,0,1-1.354-3.4v-.246a5.84,5.84,0,0,1,.541-2.575A3.955,3.955,0,0,1,67.1,7.925a4.763,4.763,0,0,1,2.461-.611,4.117,4.117,0,0,1,3.164,1.244,4.887,4.887,0,0,1,1.16,3.467v1.151H67.994a2.135,2.135,0,0,0,.694,1.257,2.066,2.066,0,0,0,1.389.457,2.662,2.662,0,0,0,2.2-.984l1.354,1.6a3.784,3.784,0,0,1-1.569,1.217A5.3,5.3,0,0,1,69.875,17.176ZM69.541,9.6q-1.3,0-1.547,1.723h2.988v-.229a1.467,1.467,0,0,0-.36-1.1A1.434,1.434,0,0,0,69.541,9.6Zm10.512,4.729a.684.684,0,0,0-.4-.606,6.016,6.016,0,0,0-1.5-.475,6.853,6.853,0,0,1-1.828-.646,3.062,3.062,0,0,1-1.1-.971,2.319,2.319,0,0,1-.378-1.31,2.628,2.628,0,0,1,1.081-2.158,4.453,4.453,0,0,1,2.83-.848,4.934,4.934,0,0,1,3.023.853,2.666,2.666,0,0,1,1.143,2.241H79.956q0-1.143-1.2-1.143a1.194,1.194,0,0,0-.782.259.8.8,0,0,0-.316.646.737.737,0,0,0,.387.642,3.654,3.654,0,0,0,1.235.4,10.671,10.671,0,0,1,1.49.378,2.706,2.706,0,0,1,2.145,2.646,2.491,2.491,0,0,1-1.156,2.118,5.068,5.068,0,0,1-2.993.817,5.172,5.172,0,0,1-2.18-.439,3.645,3.645,0,0,1-1.494-1.2,2.707,2.707,0,0,1-.536-1.591h2.769a1.145,1.145,0,0,0,.439.962,1.808,1.808,0,0,0,1.081.3,1.422,1.422,0,0,0,.91-.246A.787.787,0,0,0,80.053,14.328Zm7.69-9.2V7.49h1.564V9.547H87.743V13.9a1.111,1.111,0,0,0,.193.747,1.037,1.037,0,0,0,.765.211,4.345,4.345,0,0,0,.738-.053v2.118a5.466,5.466,0,0,1-1.67.255,3.1,3.1,0,0,1-2.259-.721,2.954,2.954,0,0,1-.729-2.188V9.547H83.568V7.49h1.213V5.126ZM93.6,17H90.626V7.49H93.6ZM90.45,5.029a1.334,1.334,0,0,1,.457-1.043,1.934,1.934,0,0,1,2.373,0,1.334,1.334,0,0,1,.457,1.043,1.334,1.334,0,0,1-.457,1.043,1.934,1.934,0,0,1-2.373,0A1.334,1.334,0,0,1,90.45,5.029Zm4.6,7.128A5.613,5.613,0,0,1,95.6,9.622a3.96,3.96,0,0,1,1.591-1.709,4.791,4.791,0,0,1,2.435-.6,4.373,4.373,0,0,1,3.366,1.323,5.076,5.076,0,0,1,1.23,3.6v.105a4.925,4.925,0,0,1-1.235,3.529,4.384,4.384,0,0,1-3.344,1.305,4.434,4.434,0,0,1-3.261-1.217,4.761,4.761,0,0,1-1.327-3.3Zm2.962.185a3.538,3.538,0,0,0,.413,1.934,1.376,1.376,0,0,0,1.222.615q1.582,0,1.617-2.435v-.3q0-2.558-1.635-2.558-1.485,0-1.608,2.206ZM100.03,3.5h3.129l-2.443,2.76-2.417,0Zm8.218,3.99.1,1.116a3.225,3.225,0,0,1,2.716-1.292,2.713,2.713,0,0,1,2.219.888,4.226,4.226,0,0,1,.76,2.672V17h-2.971V11a1.6,1.6,0,0,0-.29-1.059,1.342,1.342,0,0,0-1.055-.338,1.413,1.413,0,0,0-1.292.686V17h-2.962V7.49Zm11.54,4.685a5.809,5.809,0,0,1,.976-3.56,3.211,3.211,0,0,1,2.725-1.3,2.731,2.731,0,0,1,2.145,1V3.5H128.6V17H125.94l-.149-1.02a2.8,2.8,0,0,1-2.32,1.2,3.205,3.205,0,0,1-2.689-1.3A5.993,5.993,0,0,1,119.788,12.175Zm2.962.185q0,2.531,1.477,2.531a1.458,1.458,0,0,0,1.406-.826V10.443a1.419,1.419,0,0,0-1.389-.844q-1.371,0-1.485,2.215Zm12.138,4.816a4.889,4.889,0,0,1-3.542-1.305,4.507,4.507,0,0,1-1.354-3.4v-.246a5.84,5.84,0,0,1,.541-2.575,3.955,3.955,0,0,1,1.578-1.727,4.763,4.763,0,0,1,2.461-.611,4.117,4.117,0,0,1,3.164,1.244,4.887,4.887,0,0,1,1.16,3.467v1.151h-5.889a2.135,2.135,0,0,0,.694,1.257,2.066,2.066,0,0,0,1.389.457,2.662,2.662,0,0,0,2.2-.984l1.354,1.6a3.784,3.784,0,0,1-1.569,1.217A5.3,5.3,0,0,1,134.888,17.176ZM134.554,9.6q-1.3,0-1.547,1.723H136v-.229a1.467,1.467,0,0,0-.36-1.1A1.434,1.434,0,0,0,134.554,9.6Zm13.808,3.876,1.5-5.985h3.12l-3.1,9.51h-3.023l-3.1-9.51h3.129Zm9.993,3.7a4.889,4.889,0,0,1-3.542-1.305,4.507,4.507,0,0,1-1.354-3.4v-.246A5.84,5.84,0,0,1,154,9.652a3.955,3.955,0,0,1,1.578-1.727,4.763,4.763,0,0,1,2.461-.611A4.117,4.117,0,0,1,161.2,8.558a4.887,4.887,0,0,1,1.16,3.467v1.151h-5.889a2.135,2.135,0,0,0,.694,1.257,2.066,2.066,0,0,0,1.389.457,2.662,2.662,0,0,0,2.2-.984l1.354,1.6a3.784,3.784,0,0,1-1.569,1.217A5.3,5.3,0,0,1,158.354,17.176ZM158.021,9.6q-1.3,0-1.547,1.723h2.988v-.229a1.467,1.467,0,0,0-.36-1.1A1.434,1.434,0,0,0,158.021,9.6Zm8.253-2.109.1,1.116a3.225,3.225,0,0,1,2.716-1.292,2.713,2.713,0,0,1,2.219.888,4.226,4.226,0,0,1,.76,2.672V17h-2.971V11a1.6,1.6,0,0,0-.29-1.059A1.342,1.342,0,0,0,167.75,9.6a1.413,1.413,0,0,0-1.292.686V17H163.5V7.49Zm10.881-2.364V7.49h1.564V9.547h-1.564V13.9a1.111,1.111,0,0,0,.193.747,1.037,1.037,0,0,0,.765.211,4.345,4.345,0,0,0,.738-.053v2.118a5.466,5.466,0,0,1-1.67.255,3.1,3.1,0,0,1-2.259-.721,2.954,2.954,0,0,1-.729-2.188V9.547h-1.213V7.49h1.213V5.126ZM185.24,17a3.344,3.344,0,0,1-.281-.853,2.754,2.754,0,0,1-2.285,1.028,3.374,3.374,0,0,1-2.285-.813,2.588,2.588,0,0,1-.94-2.043,2.66,2.66,0,0,1,1.143-2.338,5.821,5.821,0,0,1,3.322-.791h.914v-.5q0-1.316-1.134-1.316a.927.927,0,0,0-1.055,1.042h-2.962a2.655,2.655,0,0,1,1.173-2.239,4.931,4.931,0,0,1,2.993-.86,4.323,4.323,0,0,1,2.874.888,3.086,3.086,0,0,1,1.081,2.435v4.21a4.311,4.311,0,0,0,.4,2V17Zm-1.854-1.934a1.652,1.652,0,0,0,.918-.237,1.487,1.487,0,0,0,.523-.536V12.772h-.861q-1.547,0-1.547,1.389a.848.848,0,0,0,.272.655A.986.986,0,0,0,183.386,15.066Zm11.03-.738a.684.684,0,0,0-.4-.606,6.016,6.016,0,0,0-1.5-.475,6.853,6.853,0,0,1-1.828-.646,3.062,3.062,0,0,1-1.1-.971,2.319,2.319,0,0,1-.378-1.31,2.628,2.628,0,0,1,1.081-2.158,4.453,4.453,0,0,1,2.83-.848,4.934,4.934,0,0,1,3.023.853,2.666,2.666,0,0,1,1.143,2.241h-2.971q0-1.143-1.2-1.143a1.194,1.194,0,0,0-.782.259.8.8,0,0,0-.316.646.737.737,0,0,0,.387.642,3.654,3.654,0,0,0,1.235.4,10.671,10.671,0,0,1,1.49.378,2.706,2.706,0,0,1,2.145,2.646,2.491,2.491,0,0,1-1.156,2.118,5.068,5.068,0,0,1-2.993.817,5.172,5.172,0,0,1-2.18-.439,3.645,3.645,0,0,1-1.494-1.2,2.707,2.707,0,0,1-.536-1.591h2.769a1.145,1.145,0,0,0,.439.962,1.808,1.808,0,0,0,1.081.3,1.422,1.422,0,0,0,.91-.246A.787.787,0,0,0,194.416,14.328Z" transform="translate(6804 -7618)" fill="#12263f"/>
    <g id="Group_118362" data-name="Group 118362" transform="translate(6807 -7839)">
      <g id="Group_117998" data-name="Group 117998" clip-path="url(#clip-path)">
        <g id="Group_117933" data-name="Group 117933">
          <g id="Group_117932" data-name="Group 117932" clip-path="url(#clip-path)">
            <path id="Path_181493" data-name="Path 181493" d="M228.686,119.225c-21.35,41.5-77.706,59.328-121.862,56.289-12.056-.83-36.314-2.5-55.255-17.4C15.195,129.51,20.8,69.712,55.617,34.507,60.1,29.973,91.14-.4,139.508,0c35.412.3,60.268,16.934,63.29,19.007a88.616,88.616,0,0,1,19.829,18.711c17.833,23.192,19.4,55.568,6.058,81.5" transform="translate(-13.178 0)" fill="#e8feff"/>
            <g id="Group_117922" data-name="Group 117922" transform="translate(22.727 50.078)" opacity="0.3">
              <g id="Group_117921" data-name="Group 117921">
                <g id="Group_117920" data-name="Group 117920" clip-path="url(#clip-path-3)">
                  <path id="Path_181494" data-name="Path 181494" d="M97.146,98.646a.907.907,0,0,1,1.069.572c.348.963.66,1.956.926,2.95a.906.906,0,0,1-.641,1.11l-.017,0a.906.906,0,0,1-1.093-.645c-.253-.944-.549-1.887-.879-2.8a.906.906,0,0,1,.544-1.161.86.86,0,0,1,.091-.028m1.84,7.679a1.021,1.021,0,0,1,.106-.019.906.906,0,0,1,1.013.787c.128,1.02.213,2.056.254,3.078a.906.906,0,1,1-1.811.073c-.039-.972-.12-1.956-.242-2.925a.907.907,0,0,1,.681-.993m.1,7.894a.907.907,0,0,1,1.12.97c-.1,1.021-.25,2.05-.439,3.059a.906.906,0,1,1-1.782-.335c.18-.958.32-1.935.417-2.905a.907.907,0,0,1,.684-.79m-1.665,7.72a.907.907,0,0,1,1.076,1.17c-.329.973-.7,1.943-1.112,2.884a.907.907,0,0,1-1.662-.724c.389-.894.745-1.815,1.056-2.741a.907.907,0,0,1,.642-.59m-3.345,7.155a.906.906,0,0,1,.991,1.353c-.535.873-1.114,1.737-1.722,2.565a.907.907,0,1,1-1.461-1.073c.579-.787,1.129-1.608,1.638-2.438a.9.9,0,0,1,.555-.407m-4.843,6.236a.907.907,0,0,1,.868,1.512c-.715.735-1.472,1.449-2.247,2.12a.906.906,0,1,1-1.187-1.37c.737-.639,1.455-1.317,2.135-2.015a.9.9,0,0,1,.431-.248M57.512,145.4a.905.905,0,0,1,.383-.011c.957.178,1.935.317,2.907.412a.906.906,0,1,1-.177,1.8c-1.023-.1-2.053-.246-3.061-.434a.907.907,0,0,1-.051-1.772m25.623-5.067a.906.906,0,0,1,.71,1.641c-.862.558-1.757,1.085-2.663,1.567a.906.906,0,0,1-.851-1.6c.86-.458,1.711-.958,2.529-1.487a.9.9,0,0,1,.275-.119m-17.747,5.627a.918.918,0,0,1,.181-.026c.973-.041,1.958-.124,2.927-.248a.907.907,0,0,1,.229,1.8c-1.019.129-2.056.217-3.08.26a.906.906,0,0,1-.257-1.785m10.681-2.111a.906.906,0,0,1,.527,1.732c-.963.35-1.954.664-2.947.931l-.019.005a.907.907,0,0,1-.453-1.755c.942-.254,1.883-.552,2.8-.885.03-.011.062-.02.093-.028" transform="translate(-50.695 -98.62)" fill="#ffd48a"/>
                  <path id="Path_181495" data-name="Path 181495" d="M45.446,187.324a.9.9,0,0,1,.54.034c.437.167.884.327,1.329.477a.906.906,0,1,1-.578,1.718c-.469-.157-.939-.327-1.4-.5a.907.907,0,0,1,.107-1.727" transform="translate(-44.757 -142.268)" fill="#ffd48a"/>
                </g>
              </g>
            </g>
            <g id="Group_117925" data-name="Group 117925" transform="translate(0 26.819)" opacity="0.3">
              <g id="Group_117924" data-name="Group 117924">
                <g id="Group_117923" data-name="Group 117923" clip-path="url(#clip-path-4)">
                  <path id="Path_181496" data-name="Path 181496" d="M6.236,149.584a.907.907,0,0,1,1.051.526c.182.43.377.864.578,1.288a.907.907,0,0,1-1.638.777c-.212-.447-.417-.9-.609-1.357a.907.907,0,0,1,.48-1.189.93.93,0,0,1,.138-.046" transform="translate(-2.73 -100.433)" fill="#ffd48a"/>
                  <path id="Path_181497" data-name="Path 181497" d="M27.479,53.887q.607-.15,1.224-.281a.907.907,0,0,1,.376,1.774c-.949.2-1.888.44-2.8.714a.906.906,0,1,1-.521-1.736c.564-.169,1.144-.328,1.721-.471m5.962-.951a.836.836,0,0,1,.152-.024c1.008-.074,2.032-.107,3.041-.1a.906.906,0,1,1-.02,1.812c-.958-.01-1.93.02-2.888.09a.906.906,0,0,1-.285-1.783M21.3,56.043a.907.907,0,0,1,.594,1.705c-.871.4-1.737.838-2.573,1.31a.906.906,0,1,1-.89-1.579c.881-.5,1.793-.961,2.71-1.381a.9.9,0,0,1,.16-.055m19.914-2.818a.924.924,0,0,1,.351-.016c1,.149,2,.344,2.987.576a.907.907,0,0,1-.418,1.764c-.933-.221-1.887-.405-2.836-.547a.907.907,0,0,1-.084-1.777M14.633,60.033a.907.907,0,0,1,.767,1.6c-.762.579-1.509,1.2-2.222,1.843a.906.906,0,1,1-1.215-1.345c.751-.677,1.538-1.331,2.339-1.941a.9.9,0,0,1,.331-.158M9.007,65.389a.906.906,0,0,1,.911,1.463c-.618.735-1.213,1.5-1.767,2.286A.906.906,0,0,1,6.672,68.09c.583-.823,1.209-1.633,1.86-2.405a.9.9,0,0,1,.475-.3M4.682,71.843a.906.906,0,0,1,1.021,1.3c-.444.852-.858,1.733-1.228,2.616a.906.906,0,0,1-1.672-.7c.39-.93.825-1.856,1.292-2.753a.9.9,0,0,1,.586-.461M1.869,79.086A.906.906,0,0,1,2.961,80.2c-.247.928-.457,1.877-.625,2.821A.906.906,0,0,1,.552,82.7c.176-.994.4-1.994.658-2.971a.906.906,0,0,1,.659-.647M.713,86.774a.908.908,0,0,1,1.124.915c-.037.957-.032,1.929.013,2.888a.907.907,0,1,1-1.811.084c-.047-1.009-.051-2.032-.013-3.04a.908.908,0,0,1,.688-.846m.561,7.748.055-.012a.906.906,0,0,1,1.055.728c.127.7.278,1.394.447,2.079q.092.372.192.74a.906.906,0,0,1-.638,1.112.9.9,0,0,1-1.112-.638q-.105-.388-.2-.778C.894,97.032.736,96.3.6,95.566a.906.906,0,0,1,.673-1.044" transform="translate(0 -52.815)" fill="#ffd48a"/>
                  <path id="Path_181498" data-name="Path 181498" d="M95.321,57.535a.9.9,0,0,1,.545.035c.458.177.92.368,1.374.566a.906.906,0,1,1-.725,1.661c-.432-.188-.871-.369-1.305-.538a.906.906,0,0,1,.111-1.725" transform="translate(-46.578 -55.125)" fill="#ffd48a"/>
                </g>
              </g>
            </g>
            <path id="Path_181499" data-name="Path 181499" d="M58.734,74.6a.423.423,0,0,0-.492-.012l-4.271,2.89a22.476,22.476,0,0,0-7.048-1.811l-2.35-4.585a.424.424,0,0,0-.437-.226l-6.123.873a.424.424,0,0,0-.356.339l-.975,5.06a22.45,22.45,0,0,0-6.262,3.708l-4.908-1.582a.424.424,0,0,0-.469.149l-3.712,4.947a.423.423,0,0,0-.012.492l2.889,4.271a22.459,22.459,0,0,0-1.81,7.048l-4.586,2.35a.423.423,0,0,0-.226.437l.872,6.123a.424.424,0,0,0,.339.356l5.06.975a22.462,22.462,0,0,0,3.708,6.262l-1.582,4.908a.424.424,0,0,0,.149.469l4.947,3.712a.423.423,0,0,0,.492.012l4.271-2.89a22.449,22.449,0,0,0,7.048,1.811l2.35,4.586a.424.424,0,0,0,.437.226l6.123-.872a.425.425,0,0,0,.356-.339l.975-5.06a22.462,22.462,0,0,0,6.262-3.708L64.3,117.1a.424.424,0,0,0,.469-.149l3.712-4.946a.423.423,0,0,0,.012-.492l-2.889-4.271a22.462,22.462,0,0,0,1.81-7.048L72,97.845a.422.422,0,0,0,.226-.437l-.872-6.122a.424.424,0,0,0-.339-.356l-5.06-.975a22.462,22.462,0,0,0-3.708-6.262l1.582-4.908a.424.424,0,0,0-.149-.469Z" transform="translate(-8.655 -34.875)" fill="#0cc0c7"/>
            <path id="Path_181500" data-name="Path 181500" d="M63.878,112.6a6.221,6.221,0,1,1-.868.284,6.226,6.226,0,0,1,.868-.284M66.5,123.27a4.878,4.878,0,0,0,.672-.219,4.755,4.755,0,1,0-.672.219" transform="translate(-29.114 -55.335)" fill="#a8fdff"/>
            <path id="Path_181501" data-name="Path 181501" d="M52.737,95.232a15.457,15.457,0,0,1,1.542-.3c.164-.024.329-.045.494-.062A15.4,15.4,0,0,1,57.22,94.8l.033,0,.094.005.184.012a.362.362,0,0,1,.326.274.349.349,0,0,1,.01.113.362.362,0,0,1-.386.336,14.576,14.576,0,0,0-15.174,18.052,14.562,14.562,0,0,0,28.545-5.58,14.784,14.784,0,0,0-.283-1.452,14.519,14.519,0,0,0-2.816-5.659.358.358,0,0,1-.07-.141.362.362,0,0,1,.633-.315,15.23,15.23,0,0,1,2.956,5.941,15.507,15.507,0,0,1,.3,1.524A15.288,15.288,0,0,1,41.6,113.767q-.187-.759-.3-1.544A15.29,15.29,0,0,1,52.737,95.232" transform="translate(-20.253 -46.651)" fill="#a8fdff"/>
            <g id="Group_117928" data-name="Group 117928" transform="translate(74.197 19.472)" opacity="0.3">
              <g id="Group_117927" data-name="Group 117927">
                <g id="Group_117926" data-name="Group 117926" clip-path="url(#clip-path-5)">
                  <path id="Path_181502" data-name="Path 181502" d="M183.655,38.363a.56.56,0,0,1,.618.262c.239.411.47.834.685,1.258a.56.56,0,1,1-1,.505c-.2-.4-.424-.808-.652-1.2a.559.559,0,0,1,.2-.765.552.552,0,0,1,.148-.06" transform="translate(-164.384 -38.347)" fill="#ffd48a"/>
                  <path id="Path_181503" data-name="Path 181503" d="M167.207,46.05a.56.56,0,0,1,.661.355,24.35,24.35,0,0,1,.712,2.357q.062.251.119.5a.579.579,0,0,1-.424.669.56.56,0,0,1-.669-.422c-.036-.162-.074-.322-.113-.482a23.286,23.286,0,0,0-.679-2.248.562.562,0,0,1,.393-.733m1.277,5.671a.574.574,0,0,1,.079-.014.56.56,0,0,1,.613.5,24.2,24.2,0,0,1,.114,2.977.56.56,0,1,1-1.119-.026,23.182,23.182,0,0,0-.109-2.84.56.56,0,0,1,.422-.6m-.137,5.811a.573.573,0,0,1,.217-.01.56.56,0,0,1,.471.636,24.158,24.158,0,0,1-.622,2.916.56.56,0,0,1-1.079-.3,22.933,22.933,0,0,0,.593-2.781.561.561,0,0,1,.42-.461m-1.561,5.6a.56.56,0,0,1,.65.76,24.313,24.313,0,0,1-1.316,2.675.56.56,0,1,1-.972-.556,23.134,23.134,0,0,0,1.255-2.55.559.559,0,0,1,.383-.328M163.9,68.181a.56.56,0,0,1,.583.878,24.414,24.414,0,0,1-1.925,2.273.56.56,0,0,1-.809-.774,23.262,23.262,0,0,0,1.837-2.17.56.56,0,0,1,.314-.208m-4.019,4.2a.56.56,0,0,1,.488.977,24.075,24.075,0,0,1-2.421,1.735.56.56,0,1,1-.595-.949,22.923,22.923,0,0,0,2.308-1.654.545.545,0,0,1,.219-.109m-4.921,3.084a.56.56,0,0,1,.37,1.051,24.357,24.357,0,0,1-2.775,1.089.56.56,0,0,1-.344-1.066,23.028,23.028,0,0,0,2.646-1.038.561.561,0,0,1,.1-.036m-8.421,2.157a.558.558,0,0,1,.1-.015,23.119,23.119,0,0,0,2.455-.3c.123-.021.244-.043.365-.067a.561.561,0,0,1,.656.444.555.555,0,0,1-.444.656c-.128.024-.257.048-.386.07a24.264,24.264,0,0,1-2.57.311.56.56,0,0,1-.172-1.1" transform="translate(-146.117 -42.131)" fill="#ffd48a"/>
                </g>
              </g>
            </g>
            <g id="Group_117931" data-name="Group 117931" transform="translate(49.591 7.753)" opacity="0.3">
              <g id="Group_117930" data-name="Group 117930">
                <g id="Group_117929" data-name="Group 117929" clip-path="url(#clip-path-6)">
                  <path id="Path_181504" data-name="Path 181504" d="M115.136,16.058a.56.56,0,0,1,.276,1.085,23.094,23.094,0,0,0-2.657.868.56.56,0,0,1-.412-1.041,24.517,24.517,0,0,1,2.786-.91l.008,0m2.81-.556A.585.585,0,0,1,118,15.49a24.494,24.494,0,0,1,2.923-.221.56.56,0,0,1,.017,1.12,23.419,23.419,0,0,0-2.789.211.56.56,0,0,1-.211-1.1m-8.125,2.659a.56.56,0,0,1,.4,1.035,23.166,23.166,0,0,0-2.369,1.486.56.56,0,0,1-.651-.911,24.333,24.333,0,0,1,2.484-1.557.56.56,0,0,1,.134-.052m13.844-2.744a.564.564,0,0,1,.194-.013,24,24,0,0,1,2.892.492.56.56,0,1,1-.255,1.09,23.1,23.1,0,0,0-2.757-.469.56.56,0,0,1-.075-1.1m-18.492,6.07a.56.56,0,0,1,.513.956,22.985,22.985,0,0,0-1.942,2.011.56.56,0,0,1-.851-.728,24.33,24.33,0,0,1,2.036-2.108.556.556,0,0,1,.244-.131m-3.716,4.344a.56.56,0,0,1,.6.853,23.456,23.456,0,0,0-1.406,2.418.56.56,0,0,1-1-.5,24.466,24.466,0,0,1,1.473-2.535.559.559,0,0,1,.332-.234M98.889,30.94a.56.56,0,0,1,.661.733,22.908,22.908,0,0,0-.784,2.684.56.56,0,0,1-1.092-.248,24.211,24.211,0,0,1,.822-2.816.56.56,0,0,1,.393-.354" transform="translate(-97.66 -15.269)" fill="#ffd48a"/>
                  <path id="Path_181505" data-name="Path 181505" d="M159.475,18.122a.557.557,0,0,1,.327.018c.45.165.9.345,1.328.533a.56.56,0,0,1-.447,1.026c-.412-.18-.838-.351-1.267-.509a.56.56,0,0,1,.059-1.069" transform="translate(-127.877 -16.665)" fill="#ffd48a"/>
                </g>
              </g>
            </g>
            <path id="Path_181506" data-name="Path 181506" d="M135.727,29.752a.284.284,0,0,0-.329-.008l-2.857,1.934a15.032,15.032,0,0,0-4.716-1.212L126.252,27.4a.284.284,0,0,0-.292-.151l-4.1.584a.284.284,0,0,0-.239.227l-.653,3.386a15.03,15.03,0,0,0-4.19,2.481L113.5,32.866a.283.283,0,0,0-.314.1l-2.484,3.31a.284.284,0,0,0-.008.329l1.934,2.857a15.049,15.049,0,0,0-1.212,4.716l-3.068,1.573a.283.283,0,0,0-.152.292l.584,4.1a.283.283,0,0,0,.227.238l3.385.653a15.027,15.027,0,0,0,2.481,4.19l-1.058,3.284a.284.284,0,0,0,.1.314l3.31,2.484a.283.283,0,0,0,.329.008l2.858-1.934a15.029,15.029,0,0,0,4.716,1.212l1.573,3.069a.283.283,0,0,0,.292.151l4.1-.584a.283.283,0,0,0,.238-.227l.653-3.386a15.02,15.02,0,0,0,4.19-2.481l3.284,1.059a.283.283,0,0,0,.314-.1l2.484-3.31a.283.283,0,0,0,.008-.329l-1.934-2.857a15.023,15.023,0,0,0,1.212-4.716L144.6,45.3a.283.283,0,0,0,.151-.292l-.584-4.1a.284.284,0,0,0-.227-.238l-3.385-.653a15.04,15.04,0,0,0-2.481-4.19l1.058-3.284a.284.284,0,0,0-.1-.314Z" transform="translate(-53.253 -13.41)" fill="#0cc0c7"/>
            <path id="Path_181507" data-name="Path 181507" d="M139.082,55.031a4.246,4.246,0,1,1-.6.195,4.262,4.262,0,0,1,.6-.195m1.755,7.138a3.081,3.081,0,0,0,.435-.142,3.113,3.113,0,1,0-.435.142" transform="translate(-66.869 -27.026)" fill="#a8fdff"/>
            <path id="Path_181508" data-name="Path 181508" d="M131.343,42.938a10.638,10.638,0,0,1,3.2-.291l.1.007a.56.56,0,0,1,.5.423.569.569,0,0,1,.015.175.561.561,0,0,1-.6.518,9.471,9.471,0,0,0-2.006.072l-.109.016a9.336,9.336,0,0,0-4.253,1.8,9.508,9.508,0,0,0-1.8,1.794l-.013.017-.039.051a9.364,9.364,0,0,0-1.793,6.988,9.531,9.531,0,0,0,.185.952,9.427,9.427,0,1,0,16.474-8.216.56.56,0,0,1,.87-.705,10.547,10.547,0,1,1-18.43,9.192,10.714,10.714,0,0,1-.207-1.065,10.562,10.562,0,0,1,7.9-11.724" transform="translate(-60.708 -20.981)" fill="#a8fdff"/>
            <path id="Path_181509" data-name="Path 181509" d="M295.265,182.164,338.9,117.314h-8.94c-1.648,0-2.555-1.487-1.51-2.475l46.507-43.971c2.016-1.906,6-.7,5.81,1.764l-3.269,43c-.187,2.461-3,4.3-6.158,4.016l-6.233-.554-43.3,72.735a7.236,7.236,0,0,1-6.259,3.106H300.548Z" transform="translate(-145.332 -34.421)" fill="#0cc0c7"/>
            <path id="Path_181510" data-name="Path 181510" d="M224.217,192.5l30.806,53.085c1.825,3.144,5.857,5.166,10.3,5.166h15.881a6.228,6.228,0,0,0,5.07-2.316l.565-.79a4.827,4.827,0,0,1-4.045-1.921l-41.046-62.387Z" transform="translate(-110.362 -90.242)" fill="#08878c"/>
            <path id="Path_181511" data-name="Path 181511" d="M186.532,183.666h0c-3.089-1.893-7.6-1.336-9.784,1.206L131.454,237.66c-3.628,4.228-9.741,6.768-16.288,6.768h-6.374l-5.187-11.591s42.107-50.085,52.96-57.661c0,0,10.808-7.556,21.465-1.843a15.059,15.059,0,0,1,6.258,6.118Z" transform="translate(-50.996 -84.265)" fill="#0cc0c7"/>
            <path id="Path_181512" data-name="Path 181512" d="M6.591,222.962s7.582-7.352,22.274-8.5c0,0,6.978,1.844,20.88,21.168s23.13,28.136,33.958,23.323l-.9,1.154c-2.954,3.805-8.262,6.132-13.989,6.132H62.829c-6.594,0-12.319-7.878-16.17-12.031-10.82-11.667-33.421-29.44-40.068-31.251" transform="translate(-3.244 -105.563)" fill="#08878c"/>
            <path id="Path_181513" data-name="Path 181513" d="M452.908,99.34l-.048,0c-.23-.02-.4-.182-.37-.361l.307-2.1a.406.406,0,0,1,.464-.287c.231.02.4.181.37.36l-.307,2.1a.4.4,0,0,1-.416.289" transform="translate(-222.719 -47.542)" fill="#a8fdff"/>
            <path id="Path_181514" data-name="Path 181514" d="M376.454,115.694a.5.5,0,0,1-.256-.068.281.281,0,0,1-.077-.457l38.4-38.709a1.858,1.858,0,0,1,1.866-.394,1.218,1.218,0,0,1,.989,1.289L416.7,82a.409.409,0,0,1-.464.287c-.231-.02-.4-.181-.37-.36l.678-4.64a.578.578,0,0,0-.47-.611.877.877,0,0,0-.886.186l-38.4,38.709a.472.472,0,0,1-.333.127" transform="translate(-185.088 -37.394)" fill="#a8fdff"/>
            <path id="Path_181515" data-name="Path 181515" d="M204.882,210.328a.5.5,0,0,1-.235-.056.284.284,0,0,1-.113-.452L224.4,186.982a3.867,3.867,0,0,1,3.155-1.185,3.559,3.559,0,0,1,2.889,1.541.3.3,0,0,1-.2.434.479.479,0,0,1-.559-.155,2.7,2.7,0,0,0-2.194-1.17,2.929,2.929,0,0,0-2.4.9l-19.861,22.837a.463.463,0,0,1-.348.144" transform="translate(-100.639 -91.447)" fill="#a8fdff"/>
            <path id="Path_181516" data-name="Path 181516" d="M194.717,243.749a.5.5,0,0,1-.235-.056.284.284,0,0,1-.113-.452l1.274-1.464a.5.5,0,0,1,.583-.088.284.284,0,0,1,.113.452l-1.274,1.464a.463.463,0,0,1-.348.144" transform="translate(-95.635 -118.934)" fill="#a8fdff"/>
            <path id="Path_181517" data-name="Path 181517" d="M194.933,334.323s-.455,2.579-.679,5.132a1.759,1.759,0,0,0,1.683,1.906c3.4.142,10.673.417,13.283.3a.572.572,0,0,0,.5-.784,1.282,1.282,0,0,0-.656-.691l-12.013-5.521Z" transform="translate(-95.611 -164.557)" fill="#1a2e48"/>
          </g>
        </g>
        <g id="Group_117935" data-name="Group 117935" transform="translate(98.949 167.774)">
          <g id="Group_117934" data-name="Group 117934" clip-path="url(#clip-path-7)">
            <rect id="Rectangle_37960" data-name="Rectangle 37960" width="3.908" height="4.541" transform="translate(0)" fill="url(#linear-gradient)"/>
          </g>
        </g>
        <g id="Group_117937" data-name="Group 117937">
          <g id="Group_117936" data-name="Group 117936" clip-path="url(#clip-path)">
            <path id="Path_181519" data-name="Path 181519" d="M186.156,217.114c-.158.806-.849,40.2,3.363,57.861a.6.6,0,0,1-.351.7,10.438,10.438,0,0,1-3.43.7,1.033,1.033,0,0,1-1.024-.741c-1.2-4.1-6.972-24.621-7.725-44.227-.841-21.908,0-.746,0-.746l.493-13.542Z" transform="translate(-86.932 -106.865)" fill="#244063"/>
            <path id="Path_181520" data-name="Path 181520" d="M166.978,336.973a18.563,18.563,0,0,0-1.427,4.762,1.073,1.073,0,0,0,.944,1.285c1.123.111,2.851.252,4.235.243a1.069,1.069,0,0,0,1.059-1.193,9.025,9.025,0,0,0-2.107-4.95Z" transform="translate(-81.475 -165.862)" fill="#1a2e48"/>
          </g>
        </g>
        <g id="Group_117939" data-name="Group 117939" transform="translate(84.866 166.962)">
          <g id="Group_117938" data-name="Group 117938" clip-path="url(#clip-path-9)">
            <rect id="Rectangle_37962" data-name="Rectangle 37962" width="3.374" height="5.476" transform="translate(0)" fill="url(#linear-gradient-2)"/>
          </g>
        </g>
        <g id="Group_117941" data-name="Group 117941">
          <g id="Group_117940" data-name="Group 117940" clip-path="url(#clip-path)">
            <path id="Path_181522" data-name="Path 181522" d="M161.294,217.382c-3.444,20.787.746,51.377,2.16,57.364a.935.935,0,0,0,.754.709,6.277,6.277,0,0,0,2.694-.107.856.856,0,0,0,.615-.788c.189-4.841-.152-34.557,3.058-46.3a2.67,2.67,0,0,1,1.029-1.472l6.229-4.428.478-7.158Z" transform="translate(-78.738 -105.925)" fill="#2f5380"/>
            <path id="Path_181523" data-name="Path 181523" d="M183.28,140.292c-10.322-.171-21.712,2.711-21.712,2.711-3.077,17.953-.538,38.661-.538,38.661,7.992,2.1,17.006-1.282,17.006-1.282,1.328-7.5,7.525-28.623,7.525-28.623a34,34,0,0,0,12.619-4,22.13,22.13,0,0,1-4.374-9.15,34.624,34.624,0,0,1-10.526,1.687" transform="translate(-78.776 -68.223)" fill="#f9b131"/>
          </g>
        </g>
        <g id="Group_117943" data-name="Group 117943" transform="translate(115.03 56.083)">
          <g id="Group_117942" data-name="Group 117942" clip-path="url(#clip-path-11)">
            <rect id="Rectangle_37964" data-name="Rectangle 37964" width="19.964" height="23.449" transform="translate(0 0)" fill="url(#linear-gradient-3)"/>
          </g>
        </g>
        <g id="Group_117945" data-name="Group 117945" transform="translate(132.696 46.152)">
          <g id="Group_117944" data-name="Group 117944" clip-path="url(#clip-path-12)">
            <rect id="Rectangle_37965" data-name="Rectangle 37965" width="13.797" height="11.432" transform="translate(-4.597 9.953) rotate(-66.274)" fill="url(#linear-gradient-4)"/>
          </g>
        </g>
        <g id="Group_117947" data-name="Group 117947" transform="translate(133.96 50.899)">
          <g id="Group_117946" data-name="Group 117946" clip-path="url(#clip-path-13)">
            <rect id="Rectangle_37966" data-name="Rectangle 37966" width="5.663" height="5.111" transform="translate(-2.21 3.397) rotate(-56.96)" fill="url(#linear-gradient-5)"/>
          </g>
        </g>
        <g id="Group_117949" data-name="Group 117949">
          <g id="Group_117948" data-name="Group 117948" clip-path="url(#clip-path)">
            <path id="Path_181527" data-name="Path 181527" d="M156.12,157.261l-3.959-9.995s-9.641,6.551-11.227,14.857a22.809,22.809,0,0,1,8.382,2.246c.713-3.922,6.8-7.109,6.8-7.109" transform="translate(-69.369 -72.486)" fill="#f9b131"/>
          </g>
        </g>
        <g id="Group_117951" data-name="Group 117951" transform="translate(71.345 89.637)">
          <g id="Group_117950" data-name="Group 117950" clip-path="url(#clip-path-15)">
            <rect id="Rectangle_37968" data-name="Rectangle 37968" width="25.523" height="19.563" transform="translate(-0.258 0)" fill="url(#linear-gradient-6)"/>
          </g>
        </g>
        <g id="Group_117953" data-name="Group 117953">
          <g id="Group_117952" data-name="Group 117952" clip-path="url(#clip-path)">
            <path id="Path_181529" data-name="Path 181529" d="M184.849,179.052l5.908-20.632a.6.6,0,0,1,.509-.434c1.07-.124,4.172-.475,7.753-.778a87.975,87.975,0,0,1,12.316-.409.6.6,0,0,1,.494.869c-1.7,3.444-8.7,17.453-12.211,22.042a.6.6,0,0,1-.487.239l-13.707-.127a.6.6,0,0,1-.575-.77" transform="translate(-90.973 -77.132)" fill="#1a2e48"/>
            <path id="Path_181530" data-name="Path 181530" d="M213.48,153.477l4.283-.714a.308.308,0,0,1,.343.4l-.424,1.285a.308.308,0,0,1-.251.208l-4.122.55a.308.308,0,0,1-.34-.375l.263-1.122a.307.307,0,0,1,.249-.233" transform="translate(-104.821 -75.189)" fill="#2f5380"/>
            <path id="Path_181531" data-name="Path 181531" d="M207.661,158.347l.353-1.838a.424.424,0,0,1,.374-.342l8.651-.878a.425.425,0,0,1,.456.522l-.55,2.29a.424.424,0,0,1-.392.325l-8.454.426a.425.425,0,0,1-.439-.5" transform="translate(-102.209 -76.434)" fill="#2f5380"/>
          </g>
        </g>
        <g id="Group_117955" data-name="Group 117955" transform="translate(94.734 89.901)">
          <g id="Group_117954" data-name="Group 117954" clip-path="url(#clip-path-17)">
            <rect id="Rectangle_37970" data-name="Rectangle 37970" width="8.124" height="7.231" transform="translate(-0.253 0)" fill="url(#linear-gradient-7)"/>
          </g>
        </g>
        <g id="Group_117957" data-name="Group 117957" transform="translate(90.745 63.69)">
          <g id="Group_117956" data-name="Group 117956" clip-path="url(#clip-path-18)">
            <rect id="Rectangle_37971" data-name="Rectangle 37971" width="15.171" height="14.432" transform="translate(-4.971 9.183) rotate(-61.742)" fill="url(#linear-gradient-8)"/>
          </g>
        </g>
        <g id="Group_117959" data-name="Group 117959" transform="translate(92.238 53.022)">
          <g id="Group_117958" data-name="Group 117958" clip-path="url(#clip-path-19)">
            <rect id="Rectangle_37972" data-name="Rectangle 37972" width="14.61" height="15.698" transform="translate(-2.28 0.387) rotate(-9.644)" fill="url(#linear-gradient-9)"/>
          </g>
        </g>
        <g id="Group_117961" data-name="Group 117961">
          <g id="Group_117960" data-name="Group 117960" clip-path="url(#clip-path)">
            <path id="Path_181535" data-name="Path 181535" d="M180.921,105.2a.957.957,0,0,0,.072.84l2.99,4.985a.948.948,0,0,0,.164.2,1.57,1.57,0,0,0,2.516-.017,8.444,8.444,0,0,1,2.362-2.555.956.956,0,0,1,1.29.425,35.65,35.65,0,0,1,2.047,4.855.952.952,0,0,1-.554,1.167,26.558,26.558,0,0,1-5.743,1.675.956.956,0,0,1-.9-.384c-.916-1.255-3.5-4.763-4.38-5.641-.819-.816-2.33-.508-3.011-.312a.96.96,0,0,1-.764-.1,2.107,2.107,0,0,1-.794-3.207.957.957,0,0,0-.3-1.3,2.116,2.116,0,0,1-.811-3,2.984,2.984,0,0,1,3.231-1.581.992.992,0,0,0,1.042-.579.633.633,0,0,1,.494-.388.929.929,0,0,0,.752-1.09,2.45,2.45,0,0,1,1.367-2.807c2.587-1.422,4.853.9,5.43,2.852s-2.317,3.339-4.136,3.57c-1.337.17-2.069,1.628-2.364,2.391" transform="translate(-86.03 -47.229)" fill="#1a2e48"/>
          </g>
        </g>
        <g id="Group_117963" data-name="Group 117963" transform="translate(91.509 62.116)">
          <g id="Group_117962" data-name="Group 117962" clip-path="url(#clip-path-21)">
            <rect id="Rectangle_37974" data-name="Rectangle 37974" width="7.384" height="7.392" transform="matrix(0.798, -0.603, 0.603, 0.798, -3.436, 1.923)" fill="url(#linear-gradient-10)"/>
          </g>
        </g>
        <g id="Group_117965" data-name="Group 117965">
          <g id="Group_117964" data-name="Group 117964" clip-path="url(#clip-path)">
            <path id="Path_181537" data-name="Path 181537" d="M113.522,117.753s-2.683,1.3-3.176,2.8c-.4,1.2-3.362,1.358-3.655,3.723a2.714,2.714,0,0,1-2.271,2.386c-3.029.465-7.7,2.038-8.445,7.3-.57,4.015,1.477,5.537,3.624,6.064a3.042,3.042,0,0,1,2.307,3.514c-.306,1.527.15,3.294,2.8,4.69,5.93,3.129,11.853-7.414,11.853-7.414l1.214-18.408Z" transform="translate(-47.193 -57.959)" fill="#1a2e48"/>
            <path id="Path_181538" data-name="Path 181538" d="M76.088,343.892l-.384,3.155a1.3,1.3,0,0,1-1.143,1.14,20.151,20.151,0,0,1-4.222.066,1.116,1.116,0,0,1-.937-1.447,11.5,11.5,0,0,1,2.116-4.122h3.5a1.078,1.078,0,0,1,1.07,1.209" transform="translate(-34.134 -168.672)" fill="#1a2e48"/>
          </g>
        </g>
        <g id="Group_117967" data-name="Group 117967" transform="translate(62.611 138.263)">
          <g id="Group_117966" data-name="Group 117966" clip-path="url(#clip-path-23)">
            <rect id="Rectangle_37976" data-name="Rectangle 37976" width="12.903" height="41.34" transform="translate(-3.542 0.296) rotate(-4.89)" fill="url(#linear-gradient-11)"/>
          </g>
        </g>
        <g id="Group_117969" data-name="Group 117969">
          <g id="Group_117968" data-name="Group 117968" clip-path="url(#clip-path)">
            <path id="Path_181540" data-name="Path 181540" d="M133.046,345.951h-2.79a1.679,1.679,0,0,1-1.333-.653c-.87-1.13-2.671-3.335-3.533-3.392-1.16-.078-1.012,4.046-1.012,4.046h-.65l-.823-5.124a3.033,3.033,0,0,1,1.591-3.17,4.29,4.29,0,0,0,1.7,2.828c1.437.867,5.849,3.973,5.849,3.973a3.984,3.984,0,0,1,1.134.03.738.738,0,0,1-.137,1.462" transform="translate(-60.476 -166.198)" fill="#1a2e48"/>
          </g>
        </g>
        <g id="Group_117971" data-name="Group 117971" transform="translate(36.44 138.469)">
          <g id="Group_117970" data-name="Group 117970" clip-path="url(#clip-path-25)">
            <rect id="Rectangle_37978" data-name="Rectangle 37978" width="24.278" height="40.909" transform="translate(-3.391 0.285) rotate(-4.89)" fill="url(#linear-gradient-12)"/>
          </g>
        </g>
        <g id="Group_117973" data-name="Group 117973">
          <g id="Group_117972" data-name="Group 117972" clip-path="url(#clip-path)">
            <path id="Path_181542" data-name="Path 181542" d="M122.995,178.91c2.989-12.667-4.584-19.831-4.584-19.831,4.778-4.587,13.484-6.674,13.484-6.674s8.308,6.074,7.322,10.827c-.577,2.786-5.839,16.689-5.839,16.689a11.561,11.561,0,0,1-10.383-1.012" transform="translate(-58.283 -75.015)" fill="#2f5380"/>
            <path id="Path_181543" data-name="Path 181543" d="M107.577,210.872c1.217-3.665,6.628-6.271,6.628-6.271a11.56,11.56,0,0,0,10.383,1.012,20.825,20.825,0,0,1,.338,8.046c-.753,3.876-5.478,28.785-5.478,28.785-7.445,1.509-18.895-1.517-18.895-1.517,4.742-8.42,5.807-26.39,7.024-30.055" transform="translate(-49.493 -100.707)" fill="#f9b131"/>
          </g>
        </g>
        <g id="Group_117975" data-name="Group 117975" transform="translate(65.713 67.979)">
          <g id="Group_117974" data-name="Group 117974" clip-path="url(#clip-path-27)">
            <rect id="Rectangle_37980" data-name="Rectangle 37980" width="13.317" height="8.144" transform="translate(-0.92 12.878) rotate(-86.775)" fill="url(#linear-gradient-13)"/>
          </g>
        </g>
        <g id="Group_117977" data-name="Group 117977" transform="translate(51.903 84.064)">
          <g id="Group_117976" data-name="Group 117976" clip-path="url(#clip-path-28)">
            <rect id="Rectangle_37981" data-name="Rectangle 37981" width="20.946" height="28.143" transform="translate(-8.737)" fill="url(#linear-gradient-14)"/>
          </g>
        </g>
        <g id="Group_117979" data-name="Group 117979" transform="translate(66.497 58.679)">
          <g id="Group_117978" data-name="Group 117978" clip-path="url(#clip-path-29)">
            <rect id="Rectangle_37982" data-name="Rectangle 37982" width="15.874" height="15.939" transform="translate(-5.151 1.226) rotate(-18.128)" fill="url(#linear-gradient-15)"/>
          </g>
        </g>
        <g id="Group_117981" data-name="Group 117981">
          <g id="Group_117980" data-name="Group 117980" clip-path="url(#clip-path)">
            <path id="Path_181547" data-name="Path 181547" d="M130.9,118.748s-.948-6.391,4.358-5.414l1.073,1.117s2.6-2.925-.277-5.136-6.863-1.645-9.069,2.381-3.008,6.854-1.158,9.355,3.241.356,3.241.356-.848-2.165-.144-3.093,1.612.54,1.612.54Z" transform="translate(-61.425 -53.176)" fill="#1a2e48"/>
          </g>
        </g>
        <g id="Group_117983" data-name="Group 117983" transform="translate(65.998 63.602)">
          <g id="Group_117982" data-name="Group 117982" clip-path="url(#clip-path-31)">
            <rect id="Rectangle_37984" data-name="Rectangle 37984" width="4.871" height="4.96" transform="matrix(0.95, -0.311, 0.311, 0.95, -2.252, 0.384)" fill="url(#linear-gradient-16)"/>
          </g>
        </g>
        <g id="Group_117997" data-name="Group 117997">
          <g id="Group_117996" data-name="Group 117996" clip-path="url(#clip-path)">
            <path id="Path_181549" data-name="Path 181549" d="M211.057,32.946c4.715-12.436,30.36-14.428,33.764,3.85,3.1,16.65-30.644,22.047-30.644,22.047,17.708-9.3-7.836-13.461-3.12-25.9" transform="translate(-103.593 -11.49)" fill="#a8fdff"/>
            <path id="Path_181550" data-name="Path 181550" d="M253.241,47.218l-15.279-.166a.2.2,0,0,1,0-.4l15.279.166a.2.2,0,0,1,0,.4" transform="translate(-117.029 -22.96)" fill="#0cc0c7"/>
            <path id="Path_181551" data-name="Path 181551" d="M224.634,46.907l-4.534-.049a.2.2,0,1,1,0-.4l4.534.049a.2.2,0,1,1,0,.4" transform="translate(-108.237 -22.865)" fill="#0cc0c7"/>
            <path id="Path_181552" data-name="Path 181552" d="M263.438,53.421l-5.737-.062a.2.2,0,1,1,0-.4l5.737.062a.2.2,0,1,1,0,.4" transform="translate(-126.744 -26.064)" fill="#0cc0c7"/>
            <path id="Path_181553" data-name="Path 181553" d="M231.24,53.071l-10.194-.111a.2.2,0,1,1,0-.4l10.194.111a.2.2,0,0,1,0,.4" transform="translate(-108.703 -25.869)" fill="#0cc0c7"/>
            <path id="Path_181554" data-name="Path 181554" d="M255.164,59.424l-15.251-.166a.2.2,0,0,1,0-.405l15.251.166a.2.2,0,0,1,0,.4" transform="translate(-117.989 -28.968)" fill="#0cc0c7"/>
            <path id="Path_181555" data-name="Path 181555" d="M227.274,59.121l-5.28-.057a.2.2,0,0,1,0-.4l5.28.057a.2.2,0,0,1,0,.4" transform="translate(-109.169 -28.873)" fill="#0cc0c7"/>
            <path id="Path_181556" data-name="Path 181556" d="M440.31,191.726A20.528,20.528,0,1,1,419.781,171.2a20.529,20.529,0,0,1,20.528,20.528" transform="translate(-196.516 -84.265)" fill="#cf8d19"/>
            <path id="Path_181557" data-name="Path 181557" d="M440.289,192.388a19.846,19.846,0,1,1-19.846-19.845,19.846,19.846,0,0,1,19.846,19.845" transform="translate(-197.178 -84.927)" fill="#f9b131"/>
            <g id="Group_117986" data-name="Group 117986" transform="translate(206.446 88.686)" opacity="0.78">
              <g id="Group_117985" data-name="Group 117985">
                <g id="Group_117984" data-name="Group 117984" clip-path="url(#clip-path-33)">
                  <path id="Path_181558" data-name="Path 181558" d="M407.012,185.637a.455.455,0,0,1-.406-.661,18.7,18.7,0,0,1,16.771-10.326,18.951,18.951,0,0,1,3.386.3.455.455,0,0,1-.163.9,17.981,17.981,0,0,0-3.223-.29,17.791,17.791,0,0,0-15.958,9.826.454.454,0,0,1-.407.25" transform="translate(-406.557 -174.65)" fill="#fff"/>
                </g>
              </g>
            </g>
            <g id="Group_117989" data-name="Group 117989" transform="translate(206.901 91.096)" opacity="0.78">
              <g id="Group_117988" data-name="Group 117988">
                <g id="Group_117987" data-name="Group 117987" clip-path="url(#clip-path-34)">
                  <path id="Path_181559" data-name="Path 181559" d="M441.048,196.194a16.8,16.8,0,1,1-16.8-16.8,16.8,16.8,0,0,1,16.8,16.8" transform="translate(-407.453 -179.398)" fill="#ffd48a"/>
                </g>
              </g>
            </g>
            <path id="Path_181560" data-name="Path 181560" d="M431.713,213.44v-1.828a14.9,14.9,0,0,1-5.128-1.112,1.057,1.057,0,0,1-.584-1.249l.464-1.7a1.066,1.066,0,0,1,1.446-.7,12.372,12.372,0,0,0,4.734,1c1.835,0,3.2-.623,3.2-1.9,0-1.151-1.058-1.835-3.608-2.519-3.638-1-6.251-2.582-6.251-5.785,0-2.892,2.115-5.1,5.785-5.691V190.13a1.064,1.064,0,0,1,1.064-1.065h1.074a1.065,1.065,0,0,1,1.065,1.065v1.641a13.586,13.586,0,0,1,4.064.73,1.06,1.06,0,0,1,.662,1.279l-.427,1.574a1.062,1.062,0,0,1-1.4.717,11.089,11.089,0,0,0-3.986-.724c-2.177,0-2.8.9-2.8,1.71,0,1,1.306,1.679,4.136,2.55,4.043,1.213,5.722,2.892,5.722,5.909,0,2.768-2.052,5.256-6.034,5.878v2.045a1.064,1.064,0,0,1-1.064,1.065h-1.074a1.065,1.065,0,0,1-1.065-1.065" transform="translate(-209.663 -93.06)" fill="#cf8d19"/>
            <path id="Path_181561" data-name="Path 181561" d="M438.452,270.2H401.918a1.845,1.845,0,0,1-1.845-1.845v-3.971a1.845,1.845,0,0,1,1.845-1.845h36.534a1.845,1.845,0,0,1,1.845,1.845v3.971a1.845,1.845,0,0,1-1.845,1.845" transform="translate(-196.92 -129.222)" fill="#f9b131"/>
            <path id="Path_181562" data-name="Path 181562" d="M438.515,288.114H401.981a1.845,1.845,0,0,1-1.845-1.845V282.3a1.845,1.845,0,0,1,1.845-1.845h36.534a1.845,1.845,0,0,1,1.845,1.845v3.971a1.845,1.845,0,0,1-1.845,1.845" transform="translate(-196.951 -138.041)" fill="#f9b131"/>
            <path id="Path_181563" data-name="Path 181563" d="M438.577,306.031H402.043a1.845,1.845,0,0,1-1.845-1.845v-3.971a1.844,1.844,0,0,1,1.845-1.845h36.534a1.845,1.845,0,0,1,1.845,1.845v3.971a1.845,1.845,0,0,1-1.845,1.845" transform="translate(-196.982 -146.86)" fill="#f9b131"/>
            <path id="Path_181564" data-name="Path 181564" d="M438.639,323.949H402.1a1.845,1.845,0,0,1-1.845-1.845v-3.971a1.845,1.845,0,0,1,1.845-1.845h36.534a1.844,1.844,0,0,1,1.845,1.845V322.1a1.845,1.845,0,0,1-1.845,1.845" transform="translate(-197.012 -155.68)" fill="#f9b131"/>
            <path id="Path_181565" data-name="Path 181565" d="M438.7,341.866H402.168a1.845,1.845,0,0,1-1.845-1.845v-3.971a1.845,1.845,0,0,1,1.845-1.845H438.7a1.845,1.845,0,0,1,1.845,1.845v3.971a1.845,1.845,0,0,1-1.845,1.845" transform="translate(-197.043 -164.499)" fill="#f9b131"/>
            <path id="Path_181566" data-name="Path 181566" d="M351.674,230.808a20.528,20.528,0,1,1-20.528-20.528,20.529,20.529,0,0,1,20.528,20.528" transform="translate(-152.889 -103.502)" fill="#cf8d19"/>
            <path id="Path_181567" data-name="Path 181567" d="M351.653,231.47a19.846,19.846,0,1,1-19.846-19.845,19.846,19.846,0,0,1,19.846,19.845" transform="translate(-153.551 -104.164)" fill="#f9b131"/>
            <g id="Group_117992" data-name="Group 117992" transform="translate(161.437 108.531)" opacity="0.78">
              <g id="Group_117991" data-name="Group 117991">
                <g id="Group_117990" data-name="Group 117990" clip-path="url(#clip-path-33)">
                  <path id="Path_181568" data-name="Path 181568" d="M318.376,224.72a.455.455,0,0,1-.406-.661,18.7,18.7,0,0,1,16.771-10.326,18.93,18.93,0,0,1,3.386.3.455.455,0,0,1-.163.9,18.014,18.014,0,0,0-3.223-.29,17.791,17.791,0,0,0-15.958,9.825.454.454,0,0,1-.407.25" transform="translate(-317.921 -213.733)" fill="#fff"/>
                </g>
              </g>
            </g>
            <g id="Group_117995" data-name="Group 117995" transform="translate(161.893 110.942)" opacity="0.78">
              <g id="Group_117994" data-name="Group 117994">
                <g id="Group_117993" data-name="Group 117993" clip-path="url(#clip-path-34)">
                  <path id="Path_181569" data-name="Path 181569" d="M352.412,235.277a16.8,16.8,0,1,1-16.8-16.8,16.8,16.8,0,0,1,16.8,16.8" transform="translate(-318.818 -218.48)" fill="#ffd48a"/>
                </g>
              </g>
            </g>
            <path id="Path_181570" data-name="Path 181570" d="M343.077,252.523V250.7a14.9,14.9,0,0,1-5.128-1.112,1.057,1.057,0,0,1-.584-1.249l.464-1.7a1.066,1.066,0,0,1,1.446-.7,12.376,12.376,0,0,0,4.735,1c1.835,0,3.2-.622,3.2-1.9,0-1.151-1.057-1.835-3.608-2.519-3.638-1-6.251-2.582-6.251-5.785,0-2.892,2.115-5.1,5.785-5.691v-1.828a1.065,1.065,0,0,1,1.065-1.065h1.073a1.065,1.065,0,0,1,1.065,1.065v1.641a13.586,13.586,0,0,1,4.064.73,1.06,1.06,0,0,1,.662,1.279l-.427,1.574a1.062,1.062,0,0,1-1.4.717,11.087,11.087,0,0,0-3.986-.724c-2.177,0-2.8.9-2.8,1.71,0,1,1.307,1.679,4.136,2.55,4.043,1.213,5.722,2.892,5.722,5.909,0,2.768-2.052,5.256-6.033,5.878v2.045a1.065,1.065,0,0,1-1.065,1.065h-1.074a1.065,1.065,0,0,1-1.065-1.065" transform="translate(-166.036 -112.297)" fill="#cf8d19"/>
            <path id="Path_181571" data-name="Path 181571" d="M352.7,306.031H316.166a1.845,1.845,0,0,1-1.845-1.845v-3.971a1.844,1.844,0,0,1,1.845-1.845H352.7a1.845,1.845,0,0,1,1.845,1.845v3.971a1.845,1.845,0,0,1-1.845,1.845" transform="translate(-154.712 -146.86)" fill="#f9b131"/>
            <path id="Path_181572" data-name="Path 181572" d="M352.762,323.949H316.228a1.845,1.845,0,0,1-1.845-1.845v-3.971a1.844,1.844,0,0,1,1.845-1.845h36.534a1.845,1.845,0,0,1,1.845,1.845V322.1a1.845,1.845,0,0,1-1.845,1.845" transform="translate(-154.743 -155.68)" fill="#f9b131"/>
            <path id="Path_181573" data-name="Path 181573" d="M352.824,341.866H316.29a1.845,1.845,0,0,1-1.845-1.845v-3.971a1.844,1.844,0,0,1,1.845-1.845h36.534a1.845,1.845,0,0,1,1.845,1.845v3.971a1.845,1.845,0,0,1-1.845,1.845" transform="translate(-154.773 -164.499)" fill="#f9b131"/>
          </g>
        </g>
      </g>
    </g>
  </g>
</svg>
