<svg xmlns="http://www.w3.org/2000/svg" xmlns:xlink="http://www.w3.org/1999/xlink" width="295" height="280" viewBox="0 0 295 280">
  <defs>
    <clipPath id="clip-path">
      <rect id="Rectangle_37793" data-name="Rectangle 37793" width="263.928" height="157.667" fill="none"/>
    </clipPath>
  </defs>
  <g id="t5-c2" transform="translate(-5858 8191)">
    <path id="Rectangle_38449" data-name="Rectangle 38449" d="M20,3A17,17,0,0,0,3,20V260a17,17,0,0,0,17,17H275a17,17,0,0,0,17-17V20A17,17,0,0,0,275,3H20m0-3H275a20,20,0,0,1,20,20V260a20,20,0,0,1-20,20H20A20,20,0,0,1,0,260V20A20,20,0,0,1,20,0Z" transform="translate(5858 -8191)" fill="#42e0e6"/>
    <path id="Rectangle_38450" data-name="Rectangle 38450" d="M0,0H295a0,0,0,0,1,0,0V52a20,20,0,0,1-20,20H20A20,20,0,0,1,0,52V0A0,0,0,0,1,0,0Z" transform="translate(5858 -7983)" fill="#42e0e6"/>
    <path id="Path_184774" data-name="Path 184774" d="M45.894,6.585H42.053V17H38.968V6.585H35.2V4.2h10.7ZM50.939,17a3.344,3.344,0,0,1-.281-.853,2.754,2.754,0,0,1-2.285,1.028,3.374,3.374,0,0,1-2.285-.813,2.588,2.588,0,0,1-.94-2.043,2.66,2.66,0,0,1,1.143-2.338,5.821,5.821,0,0,1,3.322-.791h.914v-.5q0-1.316-1.134-1.316a.927.927,0,0,0-1.055,1.042H45.375a2.655,2.655,0,0,1,1.173-2.239,4.931,4.931,0,0,1,2.993-.86,4.323,4.323,0,0,1,2.874.888A3.086,3.086,0,0,1,53.5,10.637v4.21a4.311,4.311,0,0,0,.4,2V17Zm-1.854-1.934A1.652,1.652,0,0,0,50,14.829a1.487,1.487,0,0,0,.523-.536V12.772h-.861q-1.547,0-1.547,1.389a.848.848,0,0,0,.272.655A.986.986,0,0,0,49.084,15.066ZM49.823,3.5h3.129L50.508,6.26l-2.417,0Zm9.334,11.391a1.317,1.317,0,0,0,.967-.338,1.241,1.241,0,0,0,.334-.945h2.777a3.288,3.288,0,0,1-1.121,2.566,4.168,4.168,0,0,1-2.887,1,4.22,4.22,0,0,1-3.27-1.3,5.125,5.125,0,0,1-1.2-3.6v-.123A5.792,5.792,0,0,1,55.294,9.6a3.872,3.872,0,0,1,1.534-1.7A4.573,4.573,0,0,1,59.2,7.314a4.116,4.116,0,0,1,2.944,1.028,3.647,3.647,0,0,1,1.09,2.786H60.458A1.626,1.626,0,0,0,60.1,10a1.244,1.244,0,0,0-.967-.4q-1.151,0-1.345,1.468a10.357,10.357,0,0,0-.062,1.283,4.068,4.068,0,0,0,.343,1.986A1.187,1.187,0,0,0,59.157,14.891Zm8.78-9.765V7.49H69.5V9.547H67.937V13.9a1.111,1.111,0,0,0,.193.747,1.037,1.037,0,0,0,.765.211,4.345,4.345,0,0,0,.738-.053v2.118a5.466,5.466,0,0,1-1.67.255,3.1,3.1,0,0,1-2.259-.721,2.954,2.954,0,0,1-.729-2.188V9.547H63.762V7.49h1.213V5.126ZM73.791,17H70.82V7.49h2.971ZM70.644,5.029A1.334,1.334,0,0,1,71.1,3.986a1.934,1.934,0,0,1,2.373,0,1.334,1.334,0,0,1,.457,1.043,1.334,1.334,0,0,1-.457,1.043,1.934,1.934,0,0,1-2.373,0A1.334,1.334,0,0,1,70.644,5.029Zm8.991,9.861a1.317,1.317,0,0,0,.967-.338,1.241,1.241,0,0,0,.334-.945h2.777a3.288,3.288,0,0,1-1.121,2.566,4.168,4.168,0,0,1-2.887,1,4.22,4.22,0,0,1-3.27-1.3,5.125,5.125,0,0,1-1.2-3.6v-.123A5.792,5.792,0,0,1,75.772,9.6a3.872,3.872,0,0,1,1.534-1.7,4.573,4.573,0,0,1,2.373-.593,4.116,4.116,0,0,1,2.944,1.028,3.647,3.647,0,0,1,1.09,2.786H80.936A1.626,1.626,0,0,0,80.576,10a1.244,1.244,0,0,0-.967-.4q-1.151,0-1.345,1.468a10.357,10.357,0,0,0-.062,1.283,4.068,4.068,0,0,0,.343,1.986A1.187,1.187,0,0,0,79.635,14.891ZM90.323,17a3.344,3.344,0,0,1-.281-.853,2.754,2.754,0,0,1-2.285,1.028,3.374,3.374,0,0,1-2.285-.813,2.588,2.588,0,0,1-.94-2.043,2.66,2.66,0,0,1,1.143-2.338A5.821,5.821,0,0,1,89,11.19h.914v-.5q0-1.316-1.134-1.316a.927.927,0,0,0-1.055,1.042H84.759a2.655,2.655,0,0,1,1.173-2.239,4.931,4.931,0,0,1,2.993-.86A4.323,4.323,0,0,1,91.8,8.2a3.086,3.086,0,0,1,1.081,2.435v4.21a4.311,4.311,0,0,0,.4,2V17Zm-1.854-1.934a1.652,1.652,0,0,0,.918-.237,1.487,1.487,0,0,0,.523-.536V12.772h-.861q-1.547,0-1.547,1.389a.848.848,0,0,0,.272.655A.986.986,0,0,0,88.468,15.066Zm11.03-.738a.684.684,0,0,0-.4-.606,6.016,6.016,0,0,0-1.5-.475,6.853,6.853,0,0,1-1.828-.646,3.062,3.062,0,0,1-1.1-.971,2.319,2.319,0,0,1-.378-1.31,2.628,2.628,0,0,1,1.081-2.158,4.453,4.453,0,0,1,2.83-.848,4.934,4.934,0,0,1,3.023.853,2.666,2.666,0,0,1,1.143,2.241H99.4q0-1.143-1.2-1.143a1.194,1.194,0,0,0-.782.259.8.8,0,0,0-.316.646.737.737,0,0,0,.387.642,3.654,3.654,0,0,0,1.235.4,10.671,10.671,0,0,1,1.49.378,2.706,2.706,0,0,1,2.145,2.646,2.491,2.491,0,0,1-1.156,2.118,5.068,5.068,0,0,1-2.993.817,5.172,5.172,0,0,1-2.18-.439,3.645,3.645,0,0,1-1.494-1.2A2.707,2.707,0,0,1,94,13.95h2.769a1.145,1.145,0,0,0,.439.962,1.808,1.808,0,0,0,1.081.3,1.422,1.422,0,0,0,.91-.246A.787.787,0,0,0,99.5,14.328Zm17.552-2.013a5.735,5.735,0,0,1-1,3.538,3.2,3.2,0,0,1-2.694,1.323,2.742,2.742,0,0,1-2.153-.958v4.438h-2.962V7.49h2.769l.088.879a2.742,2.742,0,0,1,2.241-1.055,3.224,3.224,0,0,1,2.733,1.3,5.805,5.805,0,0,1,.976,3.564Zm-2.962-.185q0-2.531-1.477-2.531a1.394,1.394,0,0,0-1.406.756V14.1a1.439,1.439,0,0,0,1.424.791q1.415,0,1.459-2.443ZM123.712,17a3.344,3.344,0,0,1-.281-.853,2.754,2.754,0,0,1-2.285,1.028,3.374,3.374,0,0,1-2.285-.813,2.588,2.588,0,0,1-.94-2.043,2.66,2.66,0,0,1,1.143-2.338,5.821,5.821,0,0,1,3.322-.791h.914v-.5q0-1.316-1.134-1.316a.927.927,0,0,0-1.055,1.042h-2.962a2.655,2.655,0,0,1,1.173-2.239,4.931,4.931,0,0,1,2.993-.86,4.323,4.323,0,0,1,2.874.888,3.086,3.086,0,0,1,1.081,2.435v4.21a4.311,4.311,0,0,0,.4,2V17Zm-1.854-1.934a1.652,1.652,0,0,0,.918-.237,1.487,1.487,0,0,0,.523-.536V12.772h-.861q-1.547,0-1.547,1.389a.848.848,0,0,0,.272.655A.986.986,0,0,0,121.858,15.066Zm11.8-4.9-.976-.07a1.752,1.752,0,0,0-1.793.879V17h-2.962V7.49h2.777l.1,1.222a2.294,2.294,0,0,1,2.083-1.4,2.888,2.888,0,0,1,.826.105ZM139.823,17a3.344,3.344,0,0,1-.281-.853,2.754,2.754,0,0,1-2.285,1.028,3.374,3.374,0,0,1-2.285-.813,2.588,2.588,0,0,1-.94-2.043,2.66,2.66,0,0,1,1.143-2.338,5.821,5.821,0,0,1,3.322-.791h.914v-.5q0-1.316-1.134-1.316a.927.927,0,0,0-1.055,1.042h-2.962a2.655,2.655,0,0,1,1.173-2.239,4.931,4.931,0,0,1,2.993-.86A4.323,4.323,0,0,1,141.3,8.2a3.086,3.086,0,0,1,1.081,2.435v4.21a4.311,4.311,0,0,0,.4,2V17Zm-1.854-1.934a1.652,1.652,0,0,0,.918-.237,1.487,1.487,0,0,0,.523-.536V12.772h-.861q-1.547,0-1.547,1.389a.848.848,0,0,0,.272.655A.986.986,0,0,0,137.968,15.066ZM153.859,17a3.344,3.344,0,0,1-.281-.853,2.754,2.754,0,0,1-2.285,1.028,3.374,3.374,0,0,1-2.285-.813,2.588,2.588,0,0,1-.94-2.043,2.66,2.66,0,0,1,1.143-2.338,5.821,5.821,0,0,1,3.322-.791h.914v-.5q0-1.316-1.134-1.316a.927.927,0,0,0-1.055,1.042H148.3a2.655,2.655,0,0,1,1.173-2.239,4.931,4.931,0,0,1,2.993-.86,4.323,4.323,0,0,1,2.874.888,3.086,3.086,0,0,1,1.081,2.435v4.21a4.311,4.311,0,0,0,.4,2V17ZM152,15.066a1.652,1.652,0,0,0,.918-.237,1.487,1.487,0,0,0,.523-.536V12.772h-.861q-1.547,0-1.547,1.389a.848.848,0,0,0,.272.655A.986.986,0,0,0,152,15.066Zm9.5-9.94V7.49h1.564V9.547h-1.564V13.9a1.111,1.111,0,0,0,.193.747,1.037,1.037,0,0,0,.765.211,4.345,4.345,0,0,0,.738-.053v2.118a5.466,5.466,0,0,1-1.67.255,3.1,3.1,0,0,1-2.259-.721,2.954,2.954,0,0,1-.729-2.188V9.547h-1.213V7.49h1.213V5.126Zm8.481,5.045-.976-.07a1.752,1.752,0,0,0-1.793.879V17h-2.962V7.49h2.777l.1,1.222a2.294,2.294,0,0,1,2.083-1.4,2.888,2.888,0,0,1,.826.105ZM176.148,17a3.344,3.344,0,0,1-.281-.853,2.754,2.754,0,0,1-2.285,1.028,3.374,3.374,0,0,1-2.285-.813,2.588,2.588,0,0,1-.94-2.043,2.66,2.66,0,0,1,1.143-2.338,5.821,5.821,0,0,1,3.322-.791h.914v-.5q0-1.316-1.134-1.316a.927.927,0,0,0-1.055,1.042h-2.962a2.655,2.655,0,0,1,1.173-2.239,4.931,4.931,0,0,1,2.993-.86,4.323,4.323,0,0,1,2.874.888,3.086,3.086,0,0,1,1.081,2.435v4.21a4.311,4.311,0,0,0,.4,2V17Zm-1.854-1.934a1.652,1.652,0,0,0,.918-.237,1.487,1.487,0,0,0,.523-.536V12.772h-.861q-1.547,0-1.547,1.389a.848.848,0,0,0,.272.655A.986.986,0,0,0,174.293,15.066Zm10.652,2.109a4.889,4.889,0,0,1-3.542-1.305,4.507,4.507,0,0,1-1.354-3.4v-.246a5.84,5.84,0,0,1,.541-2.575,3.955,3.955,0,0,1,1.578-1.727,4.763,4.763,0,0,1,2.461-.611,4.117,4.117,0,0,1,3.164,1.244,4.887,4.887,0,0,1,1.16,3.467v1.151h-5.889a2.135,2.135,0,0,0,.694,1.257,2.066,2.066,0,0,0,1.389.457,2.662,2.662,0,0,0,2.2-.984l1.354,1.6a3.784,3.784,0,0,1-1.569,1.217A5.3,5.3,0,0,1,184.946,17.176ZM184.612,9.6q-1.3,0-1.547,1.723h2.988v-.229a1.467,1.467,0,0,0-.36-1.1A1.434,1.434,0,0,0,184.612,9.6Zm11.285.571-.976-.07a1.752,1.752,0,0,0-1.793.879V17h-2.962V7.49h2.777l.1,1.222a2.294,2.294,0,0,1,2.083-1.4,2.888,2.888,0,0,1,.826.105ZM206.8,17a3.344,3.344,0,0,1-.281-.853,2.754,2.754,0,0,1-2.285,1.028,3.374,3.374,0,0,1-2.285-.813,2.588,2.588,0,0,1-.94-2.043,2.66,2.66,0,0,1,1.143-2.338,5.821,5.821,0,0,1,3.322-.791h.914v-.5q0-1.316-1.134-1.316a.927.927,0,0,0-1.055,1.042h-2.962a2.655,2.655,0,0,1,1.173-2.239,4.931,4.931,0,0,1,2.993-.86,4.323,4.323,0,0,1,2.874.888,3.086,3.086,0,0,1,1.081,2.435v4.21a4.311,4.311,0,0,0,.4,2V17Zm-1.854-1.934a1.652,1.652,0,0,0,.918-.237,1.487,1.487,0,0,0,.523-.536V12.772h-.861q-1.547,0-1.547,1.389a.848.848,0,0,0,.272.655A.986.986,0,0,0,204.95,15.066ZM214.125,17h-2.971V3.5h2.971ZM61.319,39.891a1.317,1.317,0,0,0,.967-.338,1.241,1.241,0,0,0,.334-.945H65.4a3.288,3.288,0,0,1-1.121,2.566,4.168,4.168,0,0,1-2.887,1,4.22,4.22,0,0,1-3.27-1.3,5.125,5.125,0,0,1-1.2-3.6v-.123a5.792,5.792,0,0,1,.532-2.544,3.872,3.872,0,0,1,1.534-1.7,4.573,4.573,0,0,1,2.373-.593,4.116,4.116,0,0,1,2.944,1.028,3.647,3.647,0,0,1,1.09,2.786H62.62A1.626,1.626,0,0,0,62.259,35a1.244,1.244,0,0,0-.967-.4q-1.151,0-1.345,1.468a10.357,10.357,0,0,0-.062,1.283,4.068,4.068,0,0,0,.343,1.986A1.187,1.187,0,0,0,61.319,39.891Zm4.957-2.733a5.613,5.613,0,0,1,.554-2.536,3.96,3.96,0,0,1,1.591-1.709,4.791,4.791,0,0,1,2.435-.6,4.373,4.373,0,0,1,3.366,1.323,5.076,5.076,0,0,1,1.23,3.6v.105a4.925,4.925,0,0,1-1.235,3.529,4.384,4.384,0,0,1-3.344,1.305,4.434,4.434,0,0,1-3.261-1.217,4.761,4.761,0,0,1-1.327-3.3Zm2.962.185a3.538,3.538,0,0,0,.413,1.934,1.376,1.376,0,0,0,1.222.615q1.582,0,1.617-2.435v-.3q0-2.558-1.635-2.558-1.485,0-1.608,2.206ZM79.477,32.49l.1,1.116a3.225,3.225,0,0,1,2.716-1.292,2.713,2.713,0,0,1,2.219.888,4.226,4.226,0,0,1,.76,2.672V42H82.3V36a1.6,1.6,0,0,0-.29-1.059,1.342,1.342,0,0,0-1.055-.338,1.413,1.413,0,0,0-1.292.686V42H76.7V32.49Zm12.41,6.838a.684.684,0,0,0-.4-.606,6.016,6.016,0,0,0-1.5-.475,6.853,6.853,0,0,1-1.828-.646,3.062,3.062,0,0,1-1.1-.971,2.319,2.319,0,0,1-.378-1.31,2.628,2.628,0,0,1,1.081-2.158,4.453,4.453,0,0,1,2.83-.848,4.934,4.934,0,0,1,3.023.853,2.666,2.666,0,0,1,1.143,2.241H91.791q0-1.143-1.2-1.143a1.194,1.194,0,0,0-.782.259.8.8,0,0,0-.316.646.737.737,0,0,0,.387.642,3.654,3.654,0,0,0,1.235.4,10.671,10.671,0,0,1,1.49.378,2.706,2.706,0,0,1,2.145,2.646,2.491,2.491,0,0,1-1.156,2.118,5.068,5.068,0,0,1-2.993.817,5.172,5.172,0,0,1-2.18-.439,3.645,3.645,0,0,1-1.494-1.2,2.707,2.707,0,0,1-.536-1.591h2.769a1.145,1.145,0,0,0,.439.962,1.808,1.808,0,0,0,1.081.3,1.422,1.422,0,0,0,.91-.246A.787.787,0,0,0,91.887,39.328Zm9.905,1.644a3.054,3.054,0,0,1-2.54,1.2,3,3,0,0,1-2.369-.91,3.826,3.826,0,0,1-.8-2.615V32.49h2.962v6.179a1.065,1.065,0,0,0,1.187,1.222,1.548,1.548,0,0,0,1.45-.729V32.49h2.979V42H101.88Zm7.286-8.481.1,1.116a3.27,3.27,0,0,1,2.716-1.292,2.407,2.407,0,0,1,2.435,1.433,3.165,3.165,0,0,1,2.795-1.433q2.892,0,2.971,3.5V42h-2.971V36a1.813,1.813,0,0,0-.246-1.063,1.048,1.048,0,0,0-.9-.334,1.4,1.4,0,0,0-1.31.782l.009.123V42h-2.971V36.015a1.906,1.906,0,0,0-.237-1.081,1.045,1.045,0,0,0-.905-.334,1.42,1.42,0,0,0-1.3.782V42H106.3V32.49ZM124.908,42h-2.971V32.49h2.971Zm-3.146-11.971a1.334,1.334,0,0,1,.457-1.043,1.934,1.934,0,0,1,2.373,0,1.42,1.42,0,0,1,0,2.087,1.934,1.934,0,0,1-2.373,0A1.334,1.334,0,0,1,121.761,30.029Zm4.6,7.146a5.809,5.809,0,0,1,.976-3.56,3.211,3.211,0,0,1,2.725-1.3,2.731,2.731,0,0,1,2.145,1V28.5h2.971V42H132.51l-.149-1.02a2.8,2.8,0,0,1-2.32,1.2,3.205,3.205,0,0,1-2.689-1.3A5.993,5.993,0,0,1,126.358,37.175Zm2.962.185q0,2.531,1.477,2.531a1.458,1.458,0,0,0,1.406-.826V35.443a1.419,1.419,0,0,0-1.389-.844q-1.371,0-1.485,2.215Zm7.163-.2a5.613,5.613,0,0,1,.554-2.536,3.96,3.96,0,0,1,1.591-1.709,4.791,4.791,0,0,1,2.435-.6,4.373,4.373,0,0,1,3.366,1.323,5.076,5.076,0,0,1,1.23,3.6v.105a4.925,4.925,0,0,1-1.235,3.529,4.384,4.384,0,0,1-3.344,1.305,4.434,4.434,0,0,1-3.261-1.217,4.761,4.761,0,0,1-1.327-3.3Zm2.962.185a3.538,3.538,0,0,0,.413,1.934,1.376,1.376,0,0,0,1.222.615q1.582,0,1.617-2.435v-.3q0-2.558-1.635-2.558-1.485,0-1.608,2.206Zm13.271-2.171-.976-.07a1.752,1.752,0,0,0-1.793.879V42h-2.962V32.49h2.777l.1,1.222a2.294,2.294,0,0,1,2.083-1.4,2.888,2.888,0,0,1,.826.105ZM158.957,42V34.547h-1.38V32.49h1.38v-.316a3.631,3.631,0,0,1,1.248-2.909,4.987,4.987,0,0,1,3.243-.949,11.509,11.509,0,0,1,3.094.51l-.4,2.338-.492-.132a7.832,7.832,0,0,0-2.021-.255q-1.7,0-1.7,1.547v.167h1.863v2.057h-1.863V42Zm8.947,0h-2.979V32.49H167.9Zm4.526-9.51.1,1.116a3.225,3.225,0,0,1,2.716-1.292,2.713,2.713,0,0,1,2.219.888,4.226,4.226,0,0,1,.76,2.672V42h-2.971V36a1.6,1.6,0,0,0-.29-1.059,1.342,1.342,0,0,0-1.055-.338,1.413,1.413,0,0,0-1.292.686V42h-2.962V32.49ZM185.218,42a3.344,3.344,0,0,1-.281-.853,2.754,2.754,0,0,1-2.285,1.028,3.374,3.374,0,0,1-2.285-.813,2.588,2.588,0,0,1-.94-2.043,2.66,2.66,0,0,1,1.143-2.338,5.821,5.821,0,0,1,3.322-.791h.914v-.5q0-1.316-1.134-1.316a.927.927,0,0,0-1.055,1.042h-2.962a2.655,2.655,0,0,1,1.173-2.239,4.931,4.931,0,0,1,2.993-.86,4.323,4.323,0,0,1,2.874.888,3.086,3.086,0,0,1,1.081,2.435v4.21a4.311,4.311,0,0,0,.4,2V42Zm-1.854-1.934a1.652,1.652,0,0,0,.918-.237,1.487,1.487,0,0,0,.523-.536V37.772h-.861q-1.547,0-1.547,1.389a.848.848,0,0,0,.272.655A.986.986,0,0,0,183.364,40.066ZM192.54,42h-2.971V28.5h2.971Z" transform="translate(5881 -7970)" fill="#12263f"/>
    <g id="Group_118356" data-name="Group 118356" transform="translate(5874 -8156.171)">
      <g id="Group_117839" data-name="Group 117839" clip-path="url(#clip-path)">
        <path id="Path_180638" data-name="Path 180638" d="M250.188,157.293s31.262-37.223,5.287-77.523c-23.047-35.756-49.917-33.312-69.631-18.8-8.4,6.18-32.6.761-53.208-35.622C104.536-24.271,1.582,1.146,19.721,82.49c8.259,37.036-20.98,37.954-3.274,74.88Z" transform="translate(-2.896 0)" fill="#f6f6eb"/>
        <path id="Path_180639" data-name="Path 180639" d="M.4,216.3H263.533a.4.4,0,0,0,0-.791H.4a.4.4,0,1,0,0,.791" transform="translate(0 -58.633)" fill="#1a2e48"/>
        <path id="Path_180640" data-name="Path 180640" d="M157.147,177.306s-4.073-4.751-.251-7.769c0,0,2.792-1.69,5.068-1.553,0,0-3.225,5.408-2.182,5.946s3.159-6.285,3.159-6.285,6.353-.616,8.4.366c0,0-5.43,4.444-4.287,4.708s7.009-4.1,7.009-4.1,5.912,1.006,5.6,4.613-2.353,4.72-3.248,4.624-6.133-2.095-6.247-1.361,3.039,3.131,5.247,3.243c0,0-4.168,4.6-6.939,3.271s-3.006-3.43-4.734-4.218-3.2-.787-2.488.017,3.838,1.586,4.826,3.333,1.874,2.925-.993,2.493-7.525-2.528-7.729-4.93Z" transform="translate(-42.241 -45.559)" fill="#b0b0a8"/>
        <path id="Path_180641" data-name="Path 180641" d="M176.12,175.519s-16.057-.619-19.6,3.974a11.623,11.623,0,0,1-3.2,4.488l-.376,1.025s2.782-2.934,3.778-3.111c0,0-1.557-5.69,19.4-6.375" transform="translate(-41.611 -47.745)" fill="#b0b0a8"/>
        <path id="Path_180642" data-name="Path 180642" d="M152.082,187a10.084,10.084,0,0,0-3.686,7.1l.626.056s1.1-4.709,3.09-6.551-.03-.609-.03-.609" transform="translate(-40.374 -50.767)" fill="#b0b0a8"/>
        <path id="Path_180643" data-name="Path 180643" d="M129.409,166.509s6.479-3.628,3.456-8.552c0,0-2.419-3.023-5.01-3.8,0,0,1.382,7.342,0,7.515s-.95-8.293-.95-8.293-6.824-3.282-9.5-3.023c0,0,4.232,7.169,2.851,7s-6.134-7.429-6.134-7.429-7-1.3-8.119,2.851.691,6.219,1.727,6.479,7.688.173,7.515,1.037-4.665,2.246-7.169,1.468c0,0,2.764,6.824,6.392,6.479s4.751-2.591,7-2.764,3.887.432,2.764,1.037-4.924.2-6.738,1.74-3.282,2.492.087,3.183,9.415.259,10.625-2.332Z" transform="translate(-28.743 -40.737)" fill="#d1d1c7"/>
        <path id="Path_180644" data-name="Path 180644" d="M110.523,155.692s18.14,5.874,20.213,12.439a13.777,13.777,0,0,0,1.727,6.305v1.3s-1.9-4.405-2.937-5.01c0,0,4.06-5.7-19-15.03" transform="translate(-30.07 -42.359)" fill="#b0b0a8"/>
        <path id="Path_180645" data-name="Path 180645" d="M140.34,181.141a11.965,11.965,0,0,1,1.2,9.419l-.72-.194s.7-5.7-.764-8.561.282-.665.282-.665" transform="translate(-37.946 -49.063)" fill="#b0b0a8"/>
        <path id="Path_180646" data-name="Path 180646" d="M150.352,157.641s-8.54-4.783-4.555-11.273c0,0,3.188-3.985,6.6-5.01,0,0-1.822,9.679,0,9.906s1.252-10.931,1.252-10.931,9-4.327,12.526-3.985c0,0-5.58,9.451-3.758,9.223s8.084-9.792,8.084-9.792,9.223-1.708,10.7,3.758-.911,8.2-2.278,8.539-10.134.228-9.906,1.367,6.149,2.96,9.452,1.936c0,0-3.644,9-8.427,8.539s-6.262-3.415-9.223-3.643-5.124.569-3.644,1.366,6.491.261,8.882,2.294,4.328,3.286-.114,4.2-12.411.341-14.005-3.074Z" transform="translate(-39.378 -36.872)" fill="#d1d1c7"/>
        <path id="Path_180647" data-name="Path 180647" d="M178.244,143.381s-23.912,7.743-26.645,16.4a18.173,18.173,0,0,1-2.277,8.312V169.8s2.5-5.807,3.871-6.6c0,0-5.352-7.515,25.05-19.813" transform="translate(-40.625 -39.009)" fill="#b0b0a8"/>
        <path id="Path_180648" data-name="Path 180648" d="M148.487,176.928a15.771,15.771,0,0,0-1.585,12.416l.949-.255s-.921-7.508,1.009-11.284-.372-.877-.372-.877" transform="translate(-39.791 -47.847)" fill="#b0b0a8"/>
        <path id="Path_180649" data-name="Path 180649" d="M145.8,208.436a16.729,16.729,0,0,0,16.729-16.729H129.074A16.729,16.729,0,0,0,145.8,208.436" transform="translate(-35.117 -52.157)" fill="#f9b131"/>
        <path id="Path_180650" data-name="Path 180650" d="M145.268,208.308a16.739,16.739,0,0,0,18.806-16.6h-4.156a16.731,16.731,0,0,1-14.65,16.6" transform="translate(-39.522 -52.157)" fill="#ffd48a"/>
        <path id="Path_180651" data-name="Path 180651" d="M162.676,215.087H128.757a2.064,2.064,0,0,1,2.064-2.064h29.791a2.063,2.063,0,0,1,2.064,2.064" transform="translate(-35.03 -57.956)" fill="#cf8d19"/>
        <rect id="Rectangle_37788" data-name="Rectangle 37788" width="34.387" height="0.513" transform="translate(93.408 139.55)" fill="#cf8d19"/>
        <rect id="Rectangle_37789" data-name="Rectangle 37789" width="120.78" height="85.566" transform="translate(74.12 1.208)" fill="#0cc0c7"/>
        <rect id="Rectangle_37790" data-name="Rectangle 37790" width="117.607" height="82.393" transform="translate(75.707 2.794)" fill="#d7e6fa"/>
        <path id="Path_180652" data-name="Path 180652" d="M186.305,94.118l-41.252.005a1.479,1.479,0,0,1,0-2.958l41.253-.005a1.479,1.479,0,0,1,0,2.958" transform="translate(-39.062 -24.802)" fill="#8eb2dd"/>
        <path id="Path_180653" data-name="Path 180653" d="M186.307,106.06l-41.252.005a1.479,1.479,0,0,1,0-2.958l41.253-.005a1.479,1.479,0,0,1,0,2.958" transform="translate(-39.062 -28.051)" fill="#8eb2dd"/>
        <rect id="Rectangle_37791" data-name="Rectangle 37791" width="95.482" height="0.764" transform="translate(84.373 60.474)" fill="#8eb2dd"/>
        <path id="Path_180654" data-name="Path 180654" d="M245.608,84.57V81.449l4.281,1.56Z" transform="translate(-66.821 -22.159)" fill="#8eb2dd"/>
        <rect id="Rectangle_37792" data-name="Rectangle 37792" width="0.8" height="50.763" transform="translate(88.823 15.225)" fill="#8eb2dd"/>
        <path id="Path_180655" data-name="Path 180655" d="M120.324,21.453h3.265l-1.633-3.885Z" transform="translate(-32.736 -4.779)" fill="#8eb2dd"/>
        <path id="Path_180656" data-name="Path 180656" d="M134.792,95.37h-.247a2.682,2.682,0,0,1,0-5.365h.247a2.682,2.682,0,1,1,0,5.365" transform="translate(-35.875 -24.487)" fill="#1a2e48"/>
        <path id="Path_180657" data-name="Path 180657" d="M135.131,105.953h-.924a2.344,2.344,0,0,1-2.345-2.344v-.677a2.344,2.344,0,0,1,2.344-2.344h.924a2.344,2.344,0,0,1,2.345,2.344v.677a2.344,2.344,0,0,1-2.344,2.344" transform="translate(-35.875 -27.367)" fill="#f9b131"/>
        <path id="Path_180658" data-name="Path 180658" d="M209.393,24.1l-5.484.458.721,1.422-17.212,8.1L171.339,61.108,152.362,44.84l-15.308,7.423-.044.02-9.759,9.09.445.437,9.69-9.025,14.875-7.213L171.5,62.068l16.374-27.522,17.033-8.019.712,1.4Z" transform="translate(-34.621 -6.556)" fill="#699ff0"/>
        <path id="Path_180659" data-name="Path 180659" d="M140.062,64.686h-.183a1.984,1.984,0,0,1,0-3.969h.182a1.984,1.984,0,1,1,0,3.969" transform="translate(-37.517 -16.519)" fill="#1a2e48"/>
        <path id="Path_180660" data-name="Path 180660" d="M209.411,39.933h-.183a1.984,1.984,0,0,1,0-3.969h.182a1.984,1.984,0,1,1,0,3.969" transform="translate(-56.384 -9.785)" fill="#1a2e48"/>
        <path id="Path_180661" data-name="Path 180661" d="M160.869,55.034h-.183a1.984,1.984,0,0,1,0-3.969h.182a1.984,1.984,0,1,1,0,3.969" transform="translate(-43.177 -13.893)" fill="#1a2e48"/>
        <path id="Path_180662" data-name="Path 180662" d="M187.12,76.071h-.183a1.984,1.984,0,0,1,0-3.969h.182a1.984,1.984,0,1,1,0,3.969" transform="translate(-50.319 -19.617)" fill="#f9b131"/>
        <path id="Path_180663" data-name="Path 180663" d="M56.734,53.149s3.736,4.433,8.495,2.578a14.421,14.421,0,0,0,1.038-4.3c0-.225,0-.443.008-.649.025-2.055.095-3.208.095-3.208h-.005c-.216-.09-7.274-2.987-7.268-2.747.121,5.559-2.363,8.328-2.363,8.328" transform="translate(-15.435 -12.19)" fill="#ffb27d"/>
        <path id="Path_180664" data-name="Path 180664" d="M60.951,46.628a11.04,11.04,0,0,0,6.47,4.631c.025-2.055.095-3.208.095-3.208h-.005c-.2-.052-6.762-1.794-6.559-1.422" transform="translate(-16.582 -12.672)" fill="#ed975d"/>
        <path id="Path_180665" data-name="Path 180665" d="M68.18,43.419s-7.937,1.866-9.023-3.094-2.842-8.061,2.18-9.462,6.423.275,7.189,1.843,1.69,10.1-.346,10.713" transform="translate(-15.767 -8.254)" fill="#ffb27d"/>
        <path id="Path_180666" data-name="Path 180666" d="M57.916,40.223c-.108.069-1.816.594-5.05-5.849a5.609,5.609,0,0,1,.33-5.133c1.184-1.933,5.38-3.453,8.866-4.115s4.324,1.3,5.145,3.272a10.647,10.647,0,0,0,3.351,3.774c-3.006,1.679-6.628-.722-7.882-.328s-1.7,2.372-1.791,3.006-.239,1.16-1.817.594-.713,2.235-.46,2.771c0,0,.214,1.427-.691,2.007" transform="translate(-14.255 -6.8)" fill="#1a2e48"/>
        <path id="Path_180667" data-name="Path 180667" d="M28.128,211.421H23.322c-1.007,0-2.127-1.009-2.407-2.856s-2.351-2.856-2.8-4.368,1.848-3.64,1.848-3.64l.384-.494.4-.514,3.807.9s.094.906.152,2.061a26.422,26.422,0,0,1,.016,2.642c-.112,2.016.564,4.187,2.355,4.579s1.051,1.692,1.051,1.692" transform="translate(-4.913 -54.291)" fill="#1a2e48"/>
        <path id="Path_180668" data-name="Path 180668" d="M72.765,213.266H60.026a1.146,1.146,0,0,1-.27-.079c-.851-.426-.585-3.682-.482-4.688.019-.186.033-.3.033-.3s4.48-3.583,5.1-.84c.02.086.042.17.066.253h0c.777,2.567,4.254,3.733,6.262,4.058a2.187,2.187,0,0,1,2.035,1.591" transform="translate(-16.093 -56.135)" fill="#1a2e48"/>
        <path id="Path_180669" data-name="Path 180669" d="M67.222,114.5s-.681,8.488-1.48,18.691c-1.087,13.86-2.393,30.885-2.523,34.11-.223,5.6-1.12,14.559-1.12,14.559s-2.127,2.128-6.383,1.231a146.525,146.525,0,0,1-4.876-26.318c-.017-.222-.033-.445-.051-.669-1.007-13.774-2.575-42.779-2.575-42.779Z" transform="translate(-13.117 -30.831)" fill="#0cc0c7"/>
        <path id="Path_180670" data-name="Path 180670" d="M67.222,114.5s-.681,8.488-1.48,18.691l-14.9,23.581c-.017-.222-.033-.445-.051-.669-1.007-13.774-2.575-42.779-2.575-42.779Z" transform="translate(-13.117 -30.831)" fill="#08878c"/>
        <path id="Path_180671" data-name="Path 180671" d="M56.623,114.249S44.36,144.99,36.3,159.436s-10.583,18.478-10.583,18.478-4.619-1.847-5.039-3.108c0,0,3.083-27.889,8.483-34.688,3.052-3.841,6.635-15.37,6.8-19.4s1.092-12.01,1.092-12.01Z" transform="translate(-5.625 -29.575)" fill="#0cc0c7"/>
        <path id="Path_180672" data-name="Path 180672" d="M30.1,108.378l-.13,1.977a4.26,4.26,0,0,1-2.35,5.314s-1.564.63-1.627-.587.137-.759.009-2.474.547-3.334,1.681-3.88l.93-1.074Z" transform="translate(-7.069 -29.289)" fill="#ffb27d"/>
        <path id="Path_180673" data-name="Path 180673" d="M29.05,96.02c1.357.436,1.575.337,1.575.337S37.23,84.331,37.9,83.229,51.925,69.742,51.925,69.742l-3.432-12.8S33.3,76.614,31.66,79.437c-2.711,4.665-4.3,15.5-4.3,15.5A3.972,3.972,0,0,0,29.05,96.02" transform="translate(-7.444 -15.492)" fill="#cf8d19"/>
        <path id="Path_180674" data-name="Path 180674" d="M43.2,98.882a33.074,33.074,0,0,0,10.2,4.231c4.36.949,9.686.544,11.472.769a.765.765,0,0,0,.523-.134c.13-.082.832-5.461,1.5-12.267.018-.157.037-.322.049-.486.009-.11.015-.221.019-.327l.011-.1c.073-.707.143-1.428.209-2.157.165-1.816.306-3.68.439-5.54.012-.177.025-.355.038-.534.206-3,.358-5.956.406-8.585,0-.063,0-.126,0-.189a56.767,56.767,0,0,0-.141-5.732c-.028-.33-.061-.638-.1-.93A16.54,16.54,0,0,0,63.6,58.1l-1.754-1.99a6.825,6.825,0,0,1-4.784-.847c-1.781-1.141-2.93-2.217-3.291-2.015-2.755,1.612-5.74,5.577-7.236,10.96A61.058,61.058,0,0,0,44.763,73.8q-.214,1.979-.328,4.018a132.049,132.049,0,0,1-2.194,17.137c-.19,1.042-.34,1.869-.421,2.442-.082.52.934,1.219,1.379,1.483" transform="translate(-11.376 -14.48)" fill="#f9b131"/>
        <path id="Path_180675" data-name="Path 180675" d="M61.107,69.145s1.5,16.577,11.09,26.181c.009-.111.015-.221.017-.328l.012-.1c.074-.707.144-1.427.209-2.156.165-1.817.307-3.68.439-5.54.013-.178.025-.356.037-.534.207-3,.36-5.957.407-8.585,0-.063,0-.126,0-.189-.019-1.572-.066-3-.14-4.263a21.141,21.141,0,0,0-12.073-4.491" transform="translate(-16.625 -18.812)" fill="#cf8d19"/>
        <path id="Path_180676" data-name="Path 180676" d="M104.318,94.813,122.16,42.367c.083-.239.191-.467-.046-.554l-.216-.079c-.244-.089-.315.068-.4.312l-19.02,51.692a1,1,0,0,0,.534,1.256l.441.2a.643.643,0,0,0,.868-.378" transform="translate(-27.863 -11.348)" fill="#1a2e48"/>
        <path id="Path_180677" data-name="Path 180677" d="M110.972,82.025c.009-.768,2.034-2.543,2.169-2.329a3.305,3.305,0,0,1-.226,1.3c.841-.563,1.033-2.553,2.454-3.441.393-.246,1.8,3.6.466,5s-1.967,1.24-4.179,2.532l-1.6.108L109.26,82.7s.855-.313,1.712-.673" transform="translate(-29.726 -21.097)" fill="#ffb27d"/>
        <path id="Path_180678" data-name="Path 180678" d="M97.054,79.159c.1-1.512-1.889-2.387-1.889-2.387s-15.193,1.583-16.5,1.172-11.07-14.423-11.07-14.423-4.284-4.831-7.791-3.763a6.592,6.592,0,0,0-4.645,5.569,6.672,6.672,0,0,0,3.1,6.848c5.246,3.217,14.423,12.087,16.9,12.812,5.505,1.614,21.23-3.662,21.23-3.662a5.451,5.451,0,0,0,.67-2.167" transform="translate(-14.979 -16.216)" fill="#f9b131"/>
        <path id="Path_180679" data-name="Path 180679" d="M313.038,135.123a144.975,144.975,0,0,1,1.675-17.783c1.2-6.944,2.281-10.939,2.294-10.981.158-.611,2.443-3.081,7.524-3.006s4.6,3.316,4.6,3.316a1.029,1.029,0,0,1-.036.288,155.538,155.538,0,0,0-4.51,38.911c0,.306.037.836.015,1.189,0,0-11.774.3-11.777,0-.411-1.908-.21-7.2.216-11.936" transform="translate(-85.047 -28.118)" fill="#b7d3f3"/>
        <path id="Path_180680" data-name="Path 180680" d="M311.079,145.761c0,.3.164.547.36.547h.005c.2,0,.352-.248.354-.547h10.091c0,.3.164.547.36.547h.005c.2,0,.357-.256.355-.563a152.292,152.292,0,0,1,.837-17.237,135.444,135.444,0,0,1,3.856-21.55,1.058,1.058,0,0,0,.036-.288s.482-3.24-4.6-3.316-7.367,2.395-7.525,3.006c-.009.032-.622,2.294-1.436,6.361-.269,1.347-.56,2.893-.859,4.619a145.151,145.151,0,0,0-1.674,17.783c-.427,4.74-.577,8.732-.167,10.639" transform="translate(-84.568 -28.118)" fill="#d2e3fc"/>
        <path id="Path_180681" data-name="Path 180681" d="M313.246,161.158H273.687s.921-3.728,23.831-3.173c16.213.393,15.728,3.173,15.728,3.173" transform="translate(-74.461 -42.967)" fill="#c5dcf8"/>
        <path id="Path_180682" data-name="Path 180682" d="M329.949,201.52c-4.587-23.22-3.407-37.468-3.4-37.647.012-.357-.647-.682-1-.694s-1.942-.106-2.125.2c-.24.4-1.164,17.956,5.672,38.141Z" transform="translate(-87.943 -44.39)" fill="#b7d3f3"/>
        <path id="Path_180683" data-name="Path 180683" d="M281.714,201.52c4.587-23.22,3.407-37.468,3.4-37.647-.012-.357.647-.682,1-.694s1.942-.106,2.125.2c.24.4,1.164,17.956-5.672,38.141Z" transform="translate(-76.645 -44.39)" fill="#b7d3f3"/>
        <path id="Path_180684" data-name="Path 180684" d="M271.659,201.52c4.587-23.22,3.407-37.468,3.4-37.647-.012-.357.647-.682,1-.694s1.942-.106,2.125.2c.24.4,1.164,17.956-5.672,38.141Z" transform="translate(-73.909 -44.39)" fill="#b7d3f3"/>
        <path id="Path_180685" data-name="Path 180685" d="M319.825,201.52c-4.587-23.22-3.408-37.468-3.4-37.647.011-.357-.647-.682-1-.694s-1.942-.106-2.126.2c-.24.4-1.164,17.956,5.672,38.141Z" transform="translate(-85.189 -44.39)" fill="#b7d3f3"/>
        <path id="Path_180686" data-name="Path 180686" d="M273.56,163.2H312.7a1.021,1.021,0,0,0,1.018-1.018v-.118a1.021,1.021,0,0,0-1.018-1.018H273.56a1.021,1.021,0,0,0-1.018,1.018v.118a1.021,1.021,0,0,0,1.018,1.018" transform="translate(-74.149 -43.814)" fill="#b7d3f3"/>
        <path id="Path_180687" data-name="Path 180687" d="M270.36,113.857l-13.149-2.848-.775,1.888s14.509,8.634,15.868,8.211-1.944-7.25-1.944-7.25" transform="translate(-69.768 -30.202)" fill="#ffb27d"/>
        <path id="Path_180688" data-name="Path 180688" d="M288.048,192.7a1.169,1.169,0,0,1,.208,1.25l0,.006a7.767,7.767,0,0,1-2.454,2.692c-.148.119-.28.228-.394.328l-.089.079-.068.062c-1.079.994-.673,1.222-2.611,3.24-2.209,2.3-3.731,2.34-4.164,2.131-.366-.178.378-1.4,1.2-2.768l.12-.2c.11-.182.219-.367.328-.55.966-1.65.718-2.423.488-4.878-.186-1.995-3.1-11.145-3.1-11.145l4.234-.729s1.275,7.286,2.68,8.408c.752.6,1.593.606,2.315,1.049.051.031.1.063.15.1a5.539,5.539,0,0,1,1.159.931" transform="translate(-75.501 -49.576)" fill="#ffb27d"/>
        <path id="Path_180689" data-name="Path 180689" d="M288.373,196.237a1.169,1.169,0,0,1,.208,1.25l0,.006a9,9,0,0,1-2.458,2.684c-.146.121-.275.232-.389.336l-.089.079-.068.062c-1.079.994-.673,1.222-2.611,3.24-2.209,2.3-3.731,2.34-4.164,2.131-.366-.178.378-1.4,1.2-2.768a9.423,9.423,0,0,0,3.939-2.9c1.331-1.7,2.218-3.88,3.124-5.144.051.031.1.063.15.1a5.54,5.54,0,0,1,1.159.931" transform="translate(-75.826 -53.11)" fill="#1a2e48"/>
        <path id="Path_180690" data-name="Path 180690" d="M240.331,189.576c-.261,1.307-2.125,1.089-4.206.58s-1.587.1-4.55-.231-3.86-1.433-3.95-1.873c-.081-.391,1.383-.529,2.953-.71q.3-.034.594-.071c1.773-.222,3.071-1.366,4.681-2.305,1.525-.89,3.8-4.516,3.8-4.516l4.063.322s-2.132,3.239-2.957,4.646a4.906,4.906,0,0,0-.4,2.769,5.228,5.228,0,0,1-.031,1.39" transform="translate(-61.928 -49.094)" fill="#ffb27d"/>
        <path id="Path_180691" data-name="Path 180691" d="M236.124,192.733c-2.082-.509-1.587.1-4.55-.232s-3.86-1.433-3.951-1.873c-.081-.391,1.383-.529,2.953-.71l.015.031a8.359,8.359,0,0,0,4.243,1.319c2.01.049,4.139-.527,5.526-.505a5.174,5.174,0,0,1-.031,1.39c-.261,1.307-2.124,1.089-4.206.58" transform="translate(-61.928 -51.67)" fill="#1a2e48"/>
        <path id="Path_180692" data-name="Path 180692" d="M254.952,109.957s-.968-2.372-2.033-2.468-4.453-.63-4.694-.146a3.348,3.348,0,0,0,.726,2.856c.726.63,5.227,1.646,5.227,1.646Z" transform="translate(-67.509 -29.15)" fill="#ffb27d"/>
        <path id="Path_180693" data-name="Path 180693" d="M266.47,154.864l8.756,23.565a8.012,8.012,0,0,0,2.635-.242,11.351,11.351,0,0,0,2.546-1.24s-2.172-22.626-6.154-27.332-7.784,5.249-7.784,5.249" transform="translate(-72.497 -40.361)" fill="#08878c"/>
        <path id="Path_180694" data-name="Path 180694" d="M294.154,141.6s-25.161-8.507-30.772-6.7-22.46,35.331-22.46,35.331a3.247,3.247,0,0,0,1.418.9,13.387,13.387,0,0,0,3.3.338s15.205-13.033,17.015-16.834,2.534-7.421,4.344-7.059,23.351,8.87,28.238,3.8a14.108,14.108,0,0,0,3.609-11.654Z" transform="translate(-65.547 -36.635)" fill="#0cc0c7"/>
        <path id="Path_180695" data-name="Path 180695" d="M292.035,81.832a14.3,14.3,0,0,1-1.071-4.93,15.115,15.115,0,0,0,1.76,5.449c5.233,3.436,15.263,14.907,15.064,17.08,0,0,3.533-5.992,3.594-6.027,0,0,6.517-8.287-1.207-13.034-3.925-2.412-3.905-5.509-3.742-8.2S305.363,57.9,297.5,60.934a5.109,5.109,0,0,0-1.827-.477,1.544,1.544,0,0,1,.7.33,6.1,6.1,0,0,0-3.3.632c-2.883,1.638-5.462,16.335-1.031,20.413" transform="translate(-78.805 -16.441)" fill="#1a2e48"/>
        <path id="Path_180696" data-name="Path 180696" d="M294.3,87.882c-.026.012,2.527,1.337,4.447.812,1.806-.493,2.986-2.835,2.961-2.84-.765-.152-.986-1.2-.97-5.72l-.346.068-5.814,1.151s.132,1.83.136,3.554c0,1.447-.084,2.82-.415,2.974" transform="translate(-80.069 -21.802)" fill="#ffb27d"/>
        <path id="Path_180697" data-name="Path 180697" d="M294.682,81.381s.132,1.83.136,3.553c3.254-.092,4.973-3.06,5.678-4.7Z" transform="translate(-80.173 -21.828)" fill="#ed975d"/>
        <path id="Path_180698" data-name="Path 180698" d="M299.728,74.9a17.1,17.1,0,0,0,2.114-5c.293-1.644-.545-7.741-6.671-6.863a8.325,8.325,0,0,0-3.452,1.305c-1.33.9-3.249,2.837-1.1,8.157l.558,1.8Z" transform="translate(-78.804 -17.126)" fill="#1a2e48"/>
        <path id="Path_180699" data-name="Path 180699" d="M292.232,79.2s7.7.127,7.7-4.668,1-8.007-3.912-8.291-5.871,1.545-6.262,3.145.47,9.658,2.472,9.815" transform="translate(-78.809 -18.013)" fill="#ffb27d"/>
        <path id="Path_180700" data-name="Path 180700" d="M293.581,65.653s2.107,5.625,5.342,6.457,4.637-.035,4.637-.035a30.807,30.807,0,0,1-1.7-6.334s-6.691-2.765-8.281-.088" transform="translate(-79.873 -17.544)" fill="#1a2e48"/>
        <path id="Path_180701" data-name="Path 180701" d="M292.841,66.373a6.794,6.794,0,0,0-1.957,2.477c-.384,1.221-.557,3.734-1.289,3.649,0,0-1.588-3.824.2-5.987,1.892-2.294,3.05-.14,3.05-.14" transform="translate(-78.612 -17.808)" fill="#1a2e48"/>
        <path id="Path_180702" data-name="Path 180702" d="M305.771,110.728c.759-3.184-1.823-9.361-4.52-14.476-2.446-4.635-4.985-8.4-5.213-8.261-6.452,3.829-7.034.646-7.034.646h0s-5.861.777-7.52,3.634c-2.059,3.544-4.282,13.447-6.491,15.322a4.159,4.159,0,0,1-.166,2.878c-.077.276-.162.538-.256.786a15.136,15.136,0,0,1-1.109,2.277c1.122.682,3.291,1.979,4.888,1.047,2.436-1.425,4.336-5.765,5.4-7.492l.012-.02c2.324,13.157-.836,16.154.764,17.54,1.69,1.465,4.1-.7,9.413,1.6,3.483,1.51,8.316,3.695,11.57,4.075,1.706.2,2.979-.1,3.394-1.249,1.207-3.348-4.585-12.243-3.137-18.312" transform="translate(-74.4 -23.939)" fill="#d1d1c7"/>
        <path id="Path_180703" data-name="Path 180703" d="M294.459,79.914s-.143.609-1.659.515c0,0-1.272-.079-1.233-.748a4.1,4.1,0,0,1,2.892.233" transform="translate(-79.325 -21.636)" fill="#fff"/>
        <path id="Path_180704" data-name="Path 180704" d="M316.451,134.348c-.415,1.152-1.688,1.449-3.4,1.249-2.251-.981-11.98-4.751-11.871-7.3.162-3.781,1.871-3.9.664-8.568-.969-3.747,8.02-10.714,9.453-12.229,2.7,5.114,2.771,5.356,2.012,8.54-1.449,6.069,4.344,14.963,3.137,18.312" transform="translate(-81.942 -29.246)" fill="#b0b0a8"/>
        <path id="Path_180705" data-name="Path 180705" d="M318.445,115.4a14.265,14.265,0,0,0-4.7-4.348c.272-.7-7.257-9.931-7.257-11.362,0-1.448-2.009-11.7-2.009-11.7s6.273.387,8.445,3.416c2.717,3.788,8.357,18.367,5.525,24" transform="translate(-82.837 -23.94)" fill="#d1d1c7"/>
        <path id="Path_180706" data-name="Path 180706" d="M312.519,119.677l-12.536,3.271,1.176,2.112s15.256-.106,16.064-1.035-4.7-4.348-4.7-4.348" transform="translate(-81.615 -32.56)" fill="#ffb27d"/>
        <path id="Path_180707" data-name="Path 180707" d="M283.755,114.228c-1.069,1.728-2.969,6.067-5.4,7.492-1.6.933-3.766-.365-4.888-1.047a15.1,15.1,0,0,0,1.109-2.277c.9.205,1.989.467,2.695.68,1.372.415,6.49-4.848,6.49-4.848" transform="translate(-74.4 -31.078)" fill="#b0b0a8"/>
        <path id="Path_180708" data-name="Path 180708" d="M296.763,123.837s-3.937-1.114-4.874-.853-4.151,2.388-3.7,2.965,3.282-.346,4.584-.171,2.31.817,3.247.678a10.809,10.809,0,0,0,1.918-.507Z" transform="translate(-78.395 -33.449)" fill="#ffb27d"/>
        <path id="Path_180709" data-name="Path 180709" d="M298.924,123.574a14.75,14.75,0,0,1-2.474-1.553.153.153,0,0,0-.239.028c-.147.231-.285.678.391,1.123a3.634,3.634,0,0,0,2.322.4" transform="translate(-80.556 -33.185)" fill="#ffb27d"/>
        <path id="Path_180710" data-name="Path 180710" d="M274.99,131.233h18.367a1.464,1.464,0,0,0-1.464-1.464h-16.9Z" transform="translate(-74.815 -35.306)" fill="#cf8d19"/>
        <path id="Path_180711" data-name="Path 180711" d="M264.45,104.3h-28.4l6.811,20h28.58Z" transform="translate(-64.222 -28.377)" fill="#cf8d19"/>
        <path id="Path_180712" data-name="Path 180712" d="M235.479,104.3l6.812,20H270.87l-6.995-20Z" transform="translate(-64.066 -28.377)" fill="#f9b131"/>
        <path id="Path_180713" data-name="Path 180713" d="M256.5,117.269a1.846,1.846,0,0,0,1.7,1.384,1.066,1.066,0,0,0,1.064-1.384,1.846,1.846,0,0,0-1.7-1.384,1.066,1.066,0,0,0-1.064,1.384" transform="translate(-69.774 -31.528)" fill="#f6f6eb"/>
        <path id="Path_180714" data-name="Path 180714" d="M235.479,104.3l6.811,20h18.927c-12.538-4.28-15.875-17.327-16.435-20Z" transform="translate(-64.066 -28.377)" fill="#cf8d19"/>
        <path id="Path_180715" data-name="Path 180715" d="M344.669,194.136a.735.735,0,0,1-.728-.6l-3.566-20.215-5.13-29.074-1.435-8.13,3.654-.1.633,4.72,4.451,33.165,2.639,19.659a.515.515,0,0,1-.52.576" transform="translate(-90.818 -37.005)" fill="#95c0f4"/>
        <path id="Path_180716" data-name="Path 180716" d="M338.1,140.735a5.242,5.242,0,0,0-2.853,3.514l-1.434-8.13,3.653-.1Z" transform="translate(-90.819 -37.005)" fill="#78acea"/>
        <path id="Path_180717" data-name="Path 180717" d="M223.682,194.136a.735.735,0,0,0,.728-.6l3.566-20.215,5.13-29.074,1.435-8.13-3.654-.1-.633,4.72L225.8,173.9l-2.639,19.659a.515.515,0,0,0,.52.576" transform="translate(-60.714 -37.005)" fill="#95c0f4"/>
        <path id="Path_180718" data-name="Path 180718" d="M232.9,140.735a5.242,5.242,0,0,1,2.854,3.514l1.434-8.13-3.653-.1Z" transform="translate(-63.366 -37.005)" fill="#78acea"/>
        <path id="Path_180719" data-name="Path 180719" d="M315.484,138.158H223.492a3.026,3.026,0,0,1-3.017-3.017v-.35a3.026,3.026,0,0,1,3.017-3.017h91.993a3.026,3.026,0,0,1,3.017,3.017v.35a3.026,3.026,0,0,1-3.017,3.017" transform="translate(-59.984 -35.851)" fill="#78acea"/>
      </g>
    </g>
  </g>
</svg>
