<svg xmlns="http://www.w3.org/2000/svg" xmlns:xlink="http://www.w3.org/1999/xlink" width="295" height="280" viewBox="0 0 295 280">
  <defs>
    <clipPath id="clip-path">
      <rect id="Rectangle_37954" data-name="Rectangle 37954" width="263.928" height="178.588" fill="none"/>
    </clipPath>
    <clipPath id="clip-path-3">
      <rect id="Rectangle_37951" data-name="Rectangle 37951" width="32.129" height="32.129" fill="none"/>
    </clipPath>
  </defs>
  <g id="t5-c7" transform="translate(-6466 7852)">
    <path id="Rectangle_38457" data-name="Rectangle 38457" d="M20,3A17,17,0,0,0,3,20V260a17,17,0,0,0,17,17H275a17,17,0,0,0,17-17V20A17,17,0,0,0,275,3H20m0-3H275a20,20,0,0,1,20,20V260a20,20,0,0,1-20,20H20A20,20,0,0,1,0,260V20A20,20,0,0,1,20,0Z" transform="translate(6466 -7852)" fill="#42e0e6"/>
    <path id="Rectangle_38461" data-name="Rectangle 38461" d="M0,0H295a0,0,0,0,1,0,0V52a20,20,0,0,1-20,20H20A20,20,0,0,1,0,52V0A0,0,0,0,1,0,0Z" transform="translate(6466 -7644)" fill="#42e0e6"/>
    <path id="Path_184777" data-name="Path 184777" d="M29.744,14.609H25.517L24.778,17h-3.3L26.176,4.2h2.9L33.8,17H30.491Zm-3.489-2.382h2.751l-1.38-4.438Zm7.972-.053a5.809,5.809,0,0,1,.976-3.56,3.211,3.211,0,0,1,2.725-1.3,2.731,2.731,0,0,1,2.145,1V3.5h2.971V17H40.379l-.149-1.02a2.8,2.8,0,0,1-2.32,1.2,3.205,3.205,0,0,1-2.689-1.3A5.993,5.993,0,0,1,34.227,12.175Zm2.962.185q0,2.531,1.477,2.531a1.458,1.458,0,0,0,1.406-.826V10.443A1.419,1.419,0,0,0,38.683,9.6q-1.371,0-1.485,2.215ZM47.524,7.49l.1,1.116a3.27,3.27,0,0,1,2.716-1.292,2.407,2.407,0,0,1,2.435,1.433,3.165,3.165,0,0,1,2.795-1.433q2.892,0,2.971,3.5V17H55.566V11a1.813,1.813,0,0,0-.246-1.063,1.048,1.048,0,0,0-.9-.334,1.4,1.4,0,0,0-1.31.782l.009.123V17H50.152V11.015a1.906,1.906,0,0,0-.237-1.081A1.045,1.045,0,0,0,49.01,9.6a1.42,1.42,0,0,0-1.3.782V17H44.747V7.49ZM63.354,17H60.383V7.49h2.971ZM60.207,5.029a1.334,1.334,0,0,1,.457-1.043,1.934,1.934,0,0,1,2.373,0,1.334,1.334,0,0,1,.457,1.043,1.334,1.334,0,0,1-.457,1.043,1.934,1.934,0,0,1-2.373,0A1.334,1.334,0,0,1,60.207,5.029ZM67.9,7.49l.1,1.116A3.225,3.225,0,0,1,70.71,7.314a2.713,2.713,0,0,1,2.219.888,4.226,4.226,0,0,1,.76,2.672V17H70.719V11a1.6,1.6,0,0,0-.29-1.059A1.342,1.342,0,0,0,69.374,9.6a1.413,1.413,0,0,0-1.292.686V17H65.12V7.49ZM78.453,17H75.482V7.49h2.971ZM75.307,5.029a1.334,1.334,0,0,1,.457-1.043,1.934,1.934,0,0,1,2.373,0,1.334,1.334,0,0,1,.457,1.043,1.334,1.334,0,0,1-.457,1.043,1.934,1.934,0,0,1-2.373,0A1.334,1.334,0,0,1,75.307,5.029Zm9.949,9.3a.684.684,0,0,0-.4-.606,6.016,6.016,0,0,0-1.5-.475,6.853,6.853,0,0,1-1.828-.646,3.062,3.062,0,0,1-1.1-.971,2.319,2.319,0,0,1-.378-1.31,2.628,2.628,0,0,1,1.081-2.158,4.453,4.453,0,0,1,2.83-.848,4.934,4.934,0,0,1,3.023.853,2.666,2.666,0,0,1,1.143,2.241H85.159q0-1.143-1.2-1.143a1.194,1.194,0,0,0-.782.259.8.8,0,0,0-.316.646.737.737,0,0,0,.387.642,3.654,3.654,0,0,0,1.235.4,10.671,10.671,0,0,1,1.49.378,2.706,2.706,0,0,1,2.145,2.646,2.491,2.491,0,0,1-1.156,2.118,5.068,5.068,0,0,1-2.993.817,5.172,5.172,0,0,1-2.18-.439,3.645,3.645,0,0,1-1.494-1.2,2.707,2.707,0,0,1-.536-1.591h2.769a1.145,1.145,0,0,0,.439.962,1.808,1.808,0,0,0,1.081.3,1.422,1.422,0,0,0,.91-.246A.787.787,0,0,0,85.256,14.328Zm7.69-9.2V7.49h1.564V9.547H92.946V13.9a1.111,1.111,0,0,0,.193.747,1.037,1.037,0,0,0,.765.211,4.345,4.345,0,0,0,.738-.053v2.118a5.466,5.466,0,0,1-1.67.255,3.1,3.1,0,0,1-2.259-.721,2.954,2.954,0,0,1-.729-2.188V9.547H88.771V7.49h1.213V5.126Zm8.481,5.045-.976-.07a1.752,1.752,0,0,0-1.793.879V17H95.7V7.49h2.777l.1,1.222a2.294,2.294,0,0,1,2.083-1.4,2.888,2.888,0,0,1,.826.105ZM107.589,17a3.344,3.344,0,0,1-.281-.853,2.754,2.754,0,0,1-2.285,1.028,3.374,3.374,0,0,1-2.285-.813,2.588,2.588,0,0,1-.94-2.043,2.66,2.66,0,0,1,1.143-2.338,5.821,5.821,0,0,1,3.322-.791h.914v-.5q0-1.316-1.134-1.316a.927.927,0,0,0-1.055,1.042h-2.962A2.655,2.655,0,0,1,103.2,8.175a4.931,4.931,0,0,1,2.993-.86,4.323,4.323,0,0,1,2.874.888,3.086,3.086,0,0,1,1.081,2.435v4.21a4.311,4.311,0,0,0,.4,2V17Zm-1.854-1.934a1.652,1.652,0,0,0,.918-.237,1.487,1.487,0,0,0,.523-.536V12.772h-.861q-1.547,0-1.547,1.389a.848.848,0,0,0,.272.655A.986.986,0,0,0,105.734,15.066Zm10.072-.176a1.317,1.317,0,0,0,.967-.338,1.241,1.241,0,0,0,.334-.945h2.777a3.288,3.288,0,0,1-1.121,2.566,4.168,4.168,0,0,1-2.887,1,4.22,4.22,0,0,1-3.27-1.3,5.125,5.125,0,0,1-1.2-3.6v-.123a5.792,5.792,0,0,1,.532-2.544,3.872,3.872,0,0,1,1.534-1.7,4.573,4.573,0,0,1,2.373-.593,4.116,4.116,0,0,1,2.944,1.028,3.647,3.647,0,0,1,1.09,2.786h-2.777a1.626,1.626,0,0,0-.36-1.134,1.244,1.244,0,0,0-.967-.4q-1.151,0-1.345,1.468a10.357,10.357,0,0,0-.062,1.283,4.068,4.068,0,0,0,.343,1.986A1.187,1.187,0,0,0,115.807,14.891ZM124.262,17h-2.971V7.49h2.971ZM121.115,5.029a1.334,1.334,0,0,1,.457-1.043,1.934,1.934,0,0,1,2.373,0,1.334,1.334,0,0,1,.457,1.043,1.334,1.334,0,0,1-.457,1.043,1.934,1.934,0,0,1-2.373,0A1.334,1.334,0,0,1,121.115,5.029Zm4.6,7.128a5.613,5.613,0,0,1,.554-2.536,3.96,3.96,0,0,1,1.591-1.709,4.791,4.791,0,0,1,2.435-.6,4.373,4.373,0,0,1,3.366,1.323,5.076,5.076,0,0,1,1.23,3.6v.105a4.925,4.925,0,0,1-1.235,3.529,4.384,4.384,0,0,1-3.344,1.305,4.434,4.434,0,0,1-3.261-1.217,4.761,4.761,0,0,1-1.327-3.3Zm2.962.185a3.538,3.538,0,0,0,.413,1.934,1.376,1.376,0,0,0,1.222.615q1.582,0,1.617-2.435v-.3q0-2.558-1.635-2.558-1.485,0-1.608,2.206ZM130.7,3.5h3.129l-2.443,2.76-2.417,0Zm8.218,3.99.1,1.116a3.225,3.225,0,0,1,2.716-1.292,2.713,2.713,0,0,1,2.219.888,4.226,4.226,0,0,1,.76,2.672V17h-2.971V11a1.6,1.6,0,0,0-.29-1.059A1.342,1.342,0,0,0,140.39,9.6a1.413,1.413,0,0,0-1.292.686V17h-2.962V7.49Zm11.54,4.685a5.809,5.809,0,0,1,.976-3.56,3.211,3.211,0,0,1,2.725-1.3,2.731,2.731,0,0,1,2.145,1V3.5h2.971V17h-2.663l-.149-1.02a2.8,2.8,0,0,1-2.32,1.2,3.205,3.205,0,0,1-2.689-1.3A5.993,5.993,0,0,1,150.453,12.175Zm2.962.185q0,2.531,1.477,2.531a1.458,1.458,0,0,0,1.406-.826V10.443a1.419,1.419,0,0,0-1.389-.844q-1.371,0-1.485,2.215Zm12.138,4.816a4.889,4.889,0,0,1-3.542-1.305,4.507,4.507,0,0,1-1.354-3.4v-.246a5.84,5.84,0,0,1,.541-2.575,3.955,3.955,0,0,1,1.578-1.727,4.763,4.763,0,0,1,2.461-.611A4.117,4.117,0,0,1,168.4,8.558a4.887,4.887,0,0,1,1.16,3.467v1.151h-5.889a2.135,2.135,0,0,0,.694,1.257,2.066,2.066,0,0,0,1.389.457,2.662,2.662,0,0,0,2.2-.984l1.354,1.6a3.784,3.784,0,0,1-1.569,1.217A5.3,5.3,0,0,1,165.553,17.176ZM165.219,9.6q-1.3,0-1.547,1.723h2.988v-.229a1.467,1.467,0,0,0-.36-1.1A1.434,1.434,0,0,0,165.219,9.6Zm13.808,3.876,1.5-5.985h3.12l-3.1,9.51h-3.023l-3.1-9.51h3.129Zm9.993,3.7a4.889,4.889,0,0,1-3.542-1.305,4.507,4.507,0,0,1-1.354-3.4v-.246a5.84,5.84,0,0,1,.541-2.575,3.955,3.955,0,0,1,1.578-1.727,4.763,4.763,0,0,1,2.461-.611,4.117,4.117,0,0,1,3.164,1.244,4.887,4.887,0,0,1,1.16,3.467v1.151h-5.889a2.135,2.135,0,0,0,.694,1.257,2.066,2.066,0,0,0,1.389.457,2.662,2.662,0,0,0,2.2-.984l1.354,1.6a3.784,3.784,0,0,1-1.569,1.217A5.3,5.3,0,0,1,189.02,17.176ZM188.686,9.6q-1.3,0-1.547,1.723h2.988v-.229a1.467,1.467,0,0,0-.36-1.1A1.434,1.434,0,0,0,188.686,9.6Zm8.253-2.109.1,1.116a3.225,3.225,0,0,1,2.716-1.292,2.713,2.713,0,0,1,2.219.888,4.226,4.226,0,0,1,.76,2.672V17H199.76V11a1.6,1.6,0,0,0-.29-1.059,1.342,1.342,0,0,0-1.055-.338,1.413,1.413,0,0,0-1.292.686V17h-2.962V7.49Zm10.881-2.364V7.49h1.564V9.547h-1.564V13.9a1.111,1.111,0,0,0,.193.747,1.037,1.037,0,0,0,.765.211,4.345,4.345,0,0,0,.738-.053v2.118a5.466,5.466,0,0,1-1.67.255,3.1,3.1,0,0,1-2.259-.721,2.954,2.954,0,0,1-.729-2.188V9.547h-1.213V7.49h1.213V5.126ZM215.905,17a3.344,3.344,0,0,1-.281-.853,2.754,2.754,0,0,1-2.285,1.028,3.374,3.374,0,0,1-2.285-.813,2.588,2.588,0,0,1-.94-2.043,2.66,2.66,0,0,1,1.143-2.338,5.821,5.821,0,0,1,3.322-.791h.914v-.5q0-1.316-1.134-1.316a.927.927,0,0,0-1.055,1.042h-2.962a2.655,2.655,0,0,1,1.173-2.239,4.931,4.931,0,0,1,2.993-.86,4.323,4.323,0,0,1,2.874.888,3.086,3.086,0,0,1,1.081,2.435v4.21a4.311,4.311,0,0,0,.4,2V17Zm-1.854-1.934a1.652,1.652,0,0,0,.918-.237,1.487,1.487,0,0,0,.523-.536V12.772h-.861q-1.547,0-1.547,1.389a.848.848,0,0,0,.272.655A.986.986,0,0,0,214.051,15.066Zm11.03-.738a.684.684,0,0,0-.4-.606,6.016,6.016,0,0,0-1.5-.475,6.853,6.853,0,0,1-1.828-.646,3.062,3.062,0,0,1-1.1-.971,2.319,2.319,0,0,1-.378-1.31,2.628,2.628,0,0,1,1.081-2.158,4.453,4.453,0,0,1,2.83-.848,4.934,4.934,0,0,1,3.023.853,2.666,2.666,0,0,1,1.143,2.241h-2.971q0-1.143-1.2-1.143a1.194,1.194,0,0,0-.782.259.8.8,0,0,0-.316.646.737.737,0,0,0,.387.642,3.654,3.654,0,0,0,1.235.4,10.671,10.671,0,0,1,1.49.378,2.706,2.706,0,0,1,2.145,2.646,2.491,2.491,0,0,1-1.156,2.118,5.068,5.068,0,0,1-2.993.817,5.172,5.172,0,0,1-2.18-.439,3.645,3.645,0,0,1-1.494-1.2,2.707,2.707,0,0,1-.536-1.591h2.769a1.145,1.145,0,0,0,.439.962,1.808,1.808,0,0,0,1.081.3,1.422,1.422,0,0,0,.91-.246A.787.787,0,0,0,225.081,14.328Z" transform="translate(6489 -7618)" fill="#12263f"/>
    <g id="Group_118361" data-name="Group 118361" transform="translate(6482 -7837.835)">
      <g id="Group_117918" data-name="Group 117918" clip-path="url(#clip-path)">
        <g id="Group_117917" data-name="Group 117917">
          <g id="Group_117916" data-name="Group 117916" clip-path="url(#clip-path)">
            <path id="Path_181386" data-name="Path 181386" d="M23.411,177.971s-44.59-35.952-10.693-70.026C48.807,71.667,16.834,25.094,65.823,6.3c52.964-20.316,66.591,15.466,88.765,9.971,44.225-10.959,100.321-5.563,90.987,47.669-11.717,66.82,36.353,58.3,7.8,114.251Z" transform="translate(0 0)" fill="#e8feff"/>
            <path id="Path_181387" data-name="Path 181387" d="M318.346,105.835s6.988-29.62,30.564-32.876a5.813,5.813,0,0,1,6.115,4.488c1.527,5.051-7.593,5.087-13.23,7.119s-18.78,10.645-23.448,21.27" transform="translate(-157.741 -36.142)" fill="#c4fdff"/>
            <path id="Path_181388" data-name="Path 181388" d="M317.166,94.126s-2.451-24.535,14.754-33.242a4.709,4.709,0,0,1,5.867,1.827c2.5,3.467-4.476,5.9-8.26,8.941s-11.583,13.1-12.36,22.475" transform="translate(-157.096 -29.976)" fill="#c4fdff"/>
            <path id="Path_181389" data-name="Path 181389" d="M155.76,146.826s10.112-5.662,5.393-13.348c0,0-3.775-4.719-7.82-5.932,0,0,2.157,11.46,0,11.73s-1.483-12.943-1.483-12.943-10.651-5.123-14.831-4.719c0,0,6.606,11.191,4.449,10.921s-9.572-11.595-9.572-11.595-10.921-2.022-12.674,4.449,1.079,9.708,2.7,10.112,12,.269,11.73,1.618-7.28,3.505-11.19,2.292c0,0,4.314,10.651,9.977,10.112s7.415-4.045,10.921-4.314,6.067.674,4.314,1.618-7.685.309-10.516,2.716-5.123,3.89.135,4.969,14.7.4,16.583-3.64Z" transform="translate(-58.801 -59.777)" fill="#c4fdff"/>
            <path id="Path_181390" data-name="Path 181390" d="M129.654,134.061s28.313,9.168,31.549,19.415a21.511,21.511,0,0,0,2.7,9.842v2.023s-2.966-6.876-4.584-7.82c0,0,6.337-8.9-29.662-23.459" transform="translate(-64.244 -66.427)" fill="#c4fdff"/>
            <path id="Path_181391" data-name="Path 181391" d="M196.205,190.816a18.674,18.674,0,0,1,1.877,14.7l-1.124-.3s1.09-8.89-1.194-13.361.44-1.039.44-1.039" transform="translate(-96.55 -93.926)" fill="#c4fdff"/>
            <path id="Path_181392" data-name="Path 181392" d="M128.745,238.787s6.624-19.845-9.013-24.375c0,0-10.774-1.715-17.649,1.578,0,0,16.8,12.683,14.249,15.664s-17.7-15.482-17.7-15.482-20.447,6.1-25.537,11.714c0,0,22.416,6.918,19.208,9.178s-26.869-3.855-26.869-3.855-17.04,10.566-11.519,21.337S67.145,266.2,69.8,264.773s16.351-14.217,17.629-12.089-5.464,13.526-12.159,16.655c0,0,18.7,8.983,25.607,1.383s4.988-14.41,9.342-19.028,8.921-6.47,7.727-3.081-9.887,9.748-10.743,16.4-2.116,11.418,6.216,6.471,20.115-17.312,17.723-25.007Z" transform="translate(-26.168 -106.02)" fill="#c4fdff"/>
            <path id="Path_181393" data-name="Path 181393" d="M73.068,273.129s48.946-22.152,65.714-12.4c0,0,5.7,6.989,2.393,7.694,0,0-2.347-19.581-68.107,4.705" transform="translate(-36.205 -127.962)" fill="#c4fdff"/>
            <path id="Path_181394" data-name="Path 181394" d="M362.113,257.366s1.951-11.869,11.118-9.981c0,0,5.939,2.016,8.553,5.534,0,0-11.945,1.946-11.446,4.146s13.154-3.127,13.154-3.127,8.765,8.583,9.847,12.8c0,0-13.255-2.491-12.23-.481s14.7,5.243,14.7,5.243,5.833,9.942.138,13.939-9.854,2.379-10.82.943-4.5-11.614-5.725-10.874-.848,8.343,1.719,11.73c0,0-11.919-.445-13.394-6.161s1.326-8.666.35-12.182-2.8-5.682-3.1-3.638,2.414,7.608,1.066,11.222-1.985,6.374-4.9,1.624-5.59-14.2-2.31-17.469Z" transform="translate(-177.056 -122.479)" fill="#c4fdff"/>
            <path id="Path_181395" data-name="Path 181395" d="M384.6,291.285s-18.954-24.388-30.1-23.923a22.326,22.326,0,0,1-10.557.848l-1.974.715s7.758.464,9.251,1.709c0,0,6.443-9.329,33.376,20.652" transform="translate(-169.449 -132.475)" fill="#c4fdff"/>
            <path id="Path_181396" data-name="Path 181396" d="M331.145,268.715a19.381,19.381,0,0,0-15.009,3.365l.691.99s8.289-4.207,13.46-3.558.858-.8.858-.8" transform="translate(-156.646 -132.98)" fill="#c4fdff"/>
            <path id="Path_181397" data-name="Path 181397" d="M351.77,138.5s-12.36-6.922-6.592-16.316c0,0,4.615-5.768,9.559-7.251,0,0-2.637,14.008,0,14.338s1.813-15.821,1.813-15.821,13.02-6.263,18.128-5.768c0,0-8.076,13.679-5.439,13.35s11.7-14.173,11.7-14.173,13.349-2.472,15.492,5.438-1.318,11.866-3.3,12.36-14.668.33-14.338,1.978,8.9,4.285,13.679,2.8c0,0-5.273,13.02-12.2,12.36s-9.064-4.944-13.349-5.274-7.416.824-5.274,1.978,9.394.378,12.855,3.32,6.262,4.755-.165,6.074-17.964.494-20.271-4.45Z" transform="translate(-170.276 -52.765)" fill="#c4fdff"/>
            <path id="Path_181398" data-name="Path 181398" d="M395.079,122.893S360.47,134.1,356.514,146.625a26.3,26.3,0,0,1-3.3,12.031v2.472s3.626-8.4,5.6-9.559c0,0-7.746-10.877,36.257-28.676" transform="translate(-175.02 -60.894)" fill="#c4fdff"/>
            <path id="Path_181399" data-name="Path 181399" d="M350.044,192.27a22.827,22.827,0,0,0-2.294,17.971l1.373-.369s-1.333-10.866,1.46-16.332-.538-1.27-.538-1.27" transform="translate(-171.845 -94.508)" fill="#c4fdff"/>
            <rect id="Rectangle_37930" data-name="Rectangle 37930" width="92.389" height="126.344" transform="translate(95.05 51.456)" fill="#2f5380"/>
            <rect id="Rectangle_37931" data-name="Rectangle 37931" width="84.516" height="119.454" transform="translate(98.987 54.865)" fill="#f1f9ff"/>
            <path id="Path_181400" data-name="Path 181400" d="M245.24,101.995v4.3a4.3,4.3,0,0,0,4.3,4.3h23.1a4.3,4.3,0,0,0,4.3-4.3v-4.3Z" transform="translate(-121.517 -50.539)" fill="#244063"/>
            <rect id="Rectangle_37932" data-name="Rectangle 37932" width="10.457" height="1.058" transform="translate(108.797 157.41)" fill="#a9c2ff"/>
            <rect id="Rectangle_37933" data-name="Rectangle 37933" width="10.457" height="1.058" transform="translate(121.676 157.41)" fill="#a9c2ff"/>
            <rect id="Rectangle_37934" data-name="Rectangle 37934" width="14.502" height="1.058" transform="translate(108.798 159.759)" fill="#a9c2ff"/>
            <rect id="Rectangle_37935" data-name="Rectangle 37935" width="45.407" height="0.586" transform="translate(117.819 73.587)" fill="#899bfa"/>
            <path id="Path_181401" data-name="Path 181401" d="M331.963,172.72H316.677V157.434h15.286ZM317.4,172h13.845V158.154H317.4Z" transform="translate(-156.914 -78.009)" fill="#a8ccff"/>
            <path id="Path_181402" data-name="Path 181402" d="M326.887,167.073a1.081,1.081,0,0,1-.832-.392l-4.717-5.706A1.08,1.08,0,1,1,323,159.6l3.741,4.525,6.767-11.358a1.08,1.08,0,1,1,1.856,1.106l-7.551,12.674a1.081,1.081,0,0,1-.845.524c-.028,0-.055,0-.083,0" transform="translate(-159.101 -75.435)" fill="#f9b131"/>
            <rect id="Rectangle_37936" data-name="Rectangle 37936" width="33.957" height="1.491" transform="translate(114.01 81.682)" fill="#a9c2ff"/>
            <rect id="Rectangle_37937" data-name="Rectangle 37937" width="31.295" height="1.491" transform="translate(114.01 88.343)" fill="#a9c2ff"/>
            <rect id="Rectangle_37938" data-name="Rectangle 37938" width="9.257" height="1.491" transform="translate(138.711 85.013)" fill="#a9c2ff"/>
            <rect id="Rectangle_37939" data-name="Rectangle 37939" width="22.136" height="1.491" transform="translate(114.01 85.013)" fill="#a9c2ff"/>
            <path id="Path_181403" data-name="Path 181403" d="M209.118,163.069l-1.519.422-.314-1.206,2.267-.723h1.037v8.5h-1.471Z" transform="translate(-102.71 -80.054)" fill="#a9c2ff"/>
            <path id="Path_181404" data-name="Path 181404" d="M215.759,176.82a.537.537,0,1,1,.537.537.537.537,0,0,1-.537-.537" transform="translate(-106.909 -87.348)" fill="#a9c2ff"/>
            <path id="Path_181405" data-name="Path 181405" d="M332.2,220.983H316.912V205.7H332.2Zm-14.565-.72h13.846V206.417H317.632Z" transform="translate(-157.03 -101.923)" fill="#a8ccff"/>
            <path id="Path_181406" data-name="Path 181406" d="M327.121,215.336a1.081,1.081,0,0,1-.832-.392l-4.717-5.706a1.08,1.08,0,1,1,1.665-1.376l3.741,4.525,6.767-11.358a1.08,1.08,0,1,1,1.856,1.105l-7.551,12.674a1.081,1.081,0,0,1-.845.524c-.028,0-.055,0-.083,0" transform="translate(-159.216 -99.349)" fill="#f9b131"/>
            <path id="Path_181407" data-name="Path 181407" d="M207.156,217.164l2.885-2.454c1.149-.97,1.568-1.508,1.568-2.263a1.257,1.257,0,0,0-1.353-1.305c-.766,0-1.293.419-1.939,1.257l-1.042-.814a3.435,3.435,0,0,1,3.089-1.76,2.514,2.514,0,0,1,2.766,2.526c0,1.317-.706,2.024-2.179,3.244l-1.724,1.437h3.987v1.293h-6.058Z" transform="translate(-102.646 -103.968)" fill="#a9c2ff"/>
            <path id="Path_181408" data-name="Path 181408" d="M221.14,225.093a.533.533,0,1,1,.533.533.533.533,0,0,1-.533-.533" transform="translate(-109.575 -111.27)" fill="#a9c2ff"/>
            <rect id="Rectangle_37940" data-name="Rectangle 37940" width="35.683" height="1.491" transform="translate(114.291 106.031)" fill="#a9c2ff"/>
            <rect id="Rectangle_37941" data-name="Rectangle 37941" width="32.885" height="1.491" transform="translate(114.291 112.691)" fill="#a9c2ff"/>
            <rect id="Rectangle_37942" data-name="Rectangle 37942" width="9.727" height="1.491" transform="translate(140.247 109.361)" fill="#a9c2ff"/>
            <rect id="Rectangle_37943" data-name="Rectangle 37943" width="23.261" height="1.491" transform="translate(114.291 109.361)" fill="#a9c2ff"/>
            <path id="Path_181409" data-name="Path 181409" d="M332.2,269.58H316.912V254.294H332.2Zm-14.565-.72h13.846V255.014H317.632Z" transform="translate(-157.03 -126.003)" fill="#a8ccff"/>
            <path id="Path_181410" data-name="Path 181410" d="M327.121,263.934a1.081,1.081,0,0,1-.832-.392l-4.717-5.706a1.08,1.08,0,0,1,1.665-1.376l3.741,4.525,6.767-11.358a1.08,1.08,0,1,1,1.856,1.106l-7.551,12.674a1.081,1.081,0,0,1-.845.524c-.028,0-.055,0-.083,0" transform="translate(-159.216 -123.429)" fill="#f9b131"/>
            <rect id="Rectangle_37944" data-name="Rectangle 37944" width="35.683" height="1.491" transform="translate(114.291 130.548)" fill="#a9c2ff"/>
            <rect id="Rectangle_37945" data-name="Rectangle 37945" width="32.885" height="1.491" transform="translate(114.291 137.209)" fill="#a9c2ff"/>
            <rect id="Rectangle_37946" data-name="Rectangle 37946" width="9.727" height="1.491" transform="translate(140.247 133.878)" fill="#a9c2ff"/>
            <rect id="Rectangle_37947" data-name="Rectangle 37947" width="23.261" height="1.491" transform="translate(114.291 133.878)" fill="#a9c2ff"/>
            <path id="Path_181411" data-name="Path 181411" d="M206.946,265.48l1.007-.937a2.675,2.675,0,0,0,2.156,1.078,1.288,1.288,0,0,0,1.418-1.265c0-.809-.738-1.265-1.886-1.265h-.668l-.234-.9,2.214-2.354H207.4v-1.254h5.424v1.078L210.543,262c1.3.187,2.414.855,2.414,2.331a2.624,2.624,0,0,1-2.87,2.589,3.888,3.888,0,0,1-3.14-1.441" transform="translate(-102.542 -128.126)" fill="#a9c2ff"/>
            <path id="Path_181412" data-name="Path 181412" d="M219.677,273.568a.522.522,0,1,1,.522.522.522.522,0,0,1-.522-.522" transform="translate(-108.85 -135.294)" fill="#a9c2ff"/>
            <path id="Path_181413" data-name="Path 181413" d="M286.055,313.106a6.5,6.5,0,0,1-6.352-5.177.444.444,0,0,1,.87-.178,5.6,5.6,0,0,0,10.952.052.444.444,0,1,1,.868.187,6.514,6.514,0,0,1-6.339,5.116" transform="translate(-138.589 -152.315)" fill="#a9c2ff"/>
            <path id="Path_181414" data-name="Path 181414" d="M280.115,298.784a.439.439,0,0,1-.085-.008.444.444,0,0,1-.352-.521,6.485,6.485,0,0,1,12.653-.344.444.444,0,1,1-.861.216,5.6,5.6,0,0,0-10.92.3.443.443,0,0,1-.435.36" transform="translate(-138.577 -145.188)" fill="#a9c2ff"/>
            <path id="Path_181415" data-name="Path 181415" d="M283.25,306.027a9.216,9.216,0,1,1,9.216-9.216,9.227,9.227,0,0,1-9.216,9.216m0-17.17a7.954,7.954,0,1,0,7.953,7.953,7.963,7.963,0,0,0-7.953-7.953" transform="translate(-135.784 -142.504)" fill="#a9c2ff"/>
            <rect id="Rectangle_37948" data-name="Rectangle 37948" width="3.651" height="0.584" transform="translate(145.641 153.153)" fill="#a9c2ff"/>
            <rect id="Rectangle_37949" data-name="Rectangle 37949" width="3.651" height="0.584" transform="translate(145.641 155.544)" fill="#a9c2ff"/>
            <rect id="Rectangle_37950" data-name="Rectangle 37950" width="5.373" height="0.584" transform="translate(144.78 154.308)" fill="#a9c2ff"/>
            <path id="Path_181416" data-name="Path 181416" d="M169.99,215.946s.308-.693.508-1.021,1.052-1.29,1.2-1.072.725,1.683.417,2.093.02,1.124-1.513,1.556Z" transform="translate(-84.23 -105.949)" fill="#ffae73"/>
            <path id="Path_181417" data-name="Path 181417" d="M136.208,209.36s7.851,6.553,10.912,5.947a60.333,60.333,0,0,0,6.068-1.734l.735,1.879s-3.295,4.469-6.73,4.5a19.572,19.572,0,0,1-9.336-2.325Z" transform="translate(-67.491 -103.738)" fill="#08878c"/>
            <path id="Path_181418" data-name="Path 181418" d="M108.917,345.211s.228,3.676.939,3.729c.094.007,3.607.007,3.607.007l4.484-.026a1.454,1.454,0,0,0-1.34-1.309c-1.311-.229-3.5-1.15-4.3-2.882-.835-1.823-3.392.481-3.392.481" transform="translate(-53.968 -170.467)" fill="#1a2e48"/>
            <path id="Path_181419" data-name="Path 181419" d="M108.4,302.3a9.343,9.343,0,0,0,2.427.456,8.914,8.914,0,0,0,2.266-.323,62.05,62.05,0,0,1,1.669-7.951c.74-2.866,1.8-6.551,3.3-11.131a150.909,150.909,0,0,0,5.54-20.762c.006-.037.009-.055.009-.055l-.014-.006-12.788-5.615s1.58,17.444-.436,24.139a28.174,28.174,0,0,0-.733,3.208c-1.273,7.273-1.244,18.041-1.244,18.041" transform="translate(-53.715 -127.301)" fill="#f9b131"/>
            <path id="Path_181420" data-name="Path 181420" d="M116.7,294.483c.741-2.867,1.8-6.552,3.3-11.131a150.731,150.731,0,0,0,5.54-20.762c0-.021,0-.04-.005-.062l-12.788-5.615s1.581,17.444-.436,24.139c-.283.936,4.387,13.43,4.387,13.43" transform="translate(-55.643 -127.301)" fill="#cf8d19"/>
            <path id="Path_181421" data-name="Path 181421" d="M128.715,345.211s.228,3.676.939,3.729c.094.007,3.607.007,3.607.007l4.484-.026a1.454,1.454,0,0,0-1.34-1.309c-1.311-.229-3.5-1.15-4.3-2.882-.835-1.823-3.392.481-3.392.481" transform="translate(-63.778 -170.467)" fill="#1a2e48"/>
            <path id="Path_181422" data-name="Path 181422" d="M129.732,257.728a182.093,182.093,0,0,1-1.789,25.183c-1.956,13.879-1.293,19.77-1.293,19.77a13.337,13.337,0,0,1-1.886.48,8.56,8.56,0,0,1-2.8-.324s-2.8-13.884-2-20.831-3.834-23.838-3.834-23.838Z" transform="translate(-57.545 -127.704)" fill="#f9b131"/>
            <path id="Path_181423" data-name="Path 181423" d="M125.113,199.807l2.5,1.637,2.274-.643a5.431,5.431,0,0,0,.532-2.726,16.953,16.953,0,0,0-.089-1.815l-3.368-1.486-1.257-.554c0,.02.1,1.032.111,1.18a8.6,8.6,0,0,1-.7,4.408" transform="translate(-61.994 -96.236)" fill="#ffae73"/>
            <path id="Path_181424" data-name="Path 181424" d="M127.721,233.959c-3.107,3-14.866,2.5-15.591-.81s.79-28.136,6.1-29.7c1.1-.324,6.989,1.58,6.989,1.58a37.351,37.351,0,0,1,1.53,5.494c.118.6.461,6.944.718,12.881.12,2.776.221,5.464.273,7.432a21.46,21.46,0,0,1-.017,3.12" transform="translate(-55.477 -100.793)" fill="#0cc0c7"/>
            <path id="Path_181425" data-name="Path 181425" d="M126.9,195.989c.684,1.155,3.08,2.166,4.351,2.629a16.953,16.953,0,0,0-.089-1.815l-3.368-1.487c-.744-.01-1.2.156-.893.672" transform="translate(-62.834 -96.779)" fill="#ffa05e"/>
            <path id="Path_181426" data-name="Path 181426" d="M130.53,189.085s-5.426,1.693-6.428-1.7-2.378-5.464,1.045-6.689,4.48-.128,5.091.924,1.678,6.939.293,7.467" transform="translate(-60.928 -89.266)" fill="#ffae73"/>
            <path id="Path_181427" data-name="Path 181427" d="M127.706,179.469s-.346,3.951-1.163,3.78-1.716-.538-1.6.653-.795,3.233-1.973,3.228c-2.527-.011-5.273-6.495-4.581-7.724,2-3.548,12.2-4.265,9.314.064" transform="translate(-58.609 -87.445)" fill="#1a2e48"/>
            <path id="Path_181428" data-name="Path 181428" d="M129.93,202.023c-.07-.029-4.04-1.81-4.5-1.657s-1.043,1.571-1.043,1.571l6.99,1.58a3.472,3.472,0,0,0-1.443-1.494" transform="translate(-61.632 -99.277)" fill="#08878c"/>
            <path id="Path_181429" data-name="Path 181429" d="M160.464,239.687l-22.252,20.951c-.436.411-.986.541-1.222.291l-.751-.8c-.236-.251-.073-.792.364-1.2l22.252-20.951c.436-.411.986-.541,1.222-.291l.751.8c.236.251.072.792-.364,1.2" transform="translate(-67.453 -117.711)" fill="#1a2e48"/>
            <path id="Path_181430" data-name="Path 181430" d="M147.977,263.4l-9.765,9.193c-.436.411-.986.542-1.222.291l-.751-.8c-.236-.251-.072-.792.364-1.2l9.765-9.194Z" transform="translate(-67.453 -129.669)" fill="#2f5380"/>
            <path id="Path_181431" data-name="Path 181431" d="M173.483,203.969a17.441,17.441,0,1,0,28.908-17.527c-.089-.089-.181-.177-.274-.264a17.442,17.442,0,0,0-28.634,17.791m4.985-16.1a16.065,16.065,0,1,1,.692,22.708,16.046,16.046,0,0,1-.692-22.708" transform="translate(-85.586 -89.903)" fill="#1a2e48"/>
            <g id="Group_117915" data-name="Group 117915" transform="translate(88.517 92.913)" opacity="0.5">
              <g id="Group_117914" data-name="Group 117914">
                <g id="Group_117913" data-name="Group 117913" clip-path="url(#clip-path-3)">
                  <path id="Path_181432" data-name="Path 181432" d="M203.219,211.239a16.065,16.065,0,1,1-.692-22.707,16,16,0,0,1,.692,22.707" transform="translate(-175.455 -184.168)" fill="#accefc"/>
                </g>
              </g>
            </g>
            <path id="Path_181433" data-name="Path 181433" d="M132.172,237.741c-12.261-8.737-11.242-20.4-11.242-20.4,4.481,2.528,8.929,8.116,10.969,12.964.12,2.776.221,5.464.273,7.432" transform="translate(-59.911 -107.695)" fill="#08878c"/>
            <path id="Path_181434" data-name="Path 181434" d="M165.779,248.936a3.344,3.344,0,0,0,1.566-.968s.369.025-.061.812c-.036.066-.116.235-.176.355a.076.076,0,0,0,.064.109,8.169,8.169,0,0,1,1.962.041c.133.027.172.345.166.48a1.228,1.228,0,0,1-.258.837,4.287,4.287,0,0,1-1.549.812,4.687,4.687,0,0,1-2.4-.3l-.785-.364.243-1.459.2.042c.313.066.7-.317,1.028-.4" transform="translate(-81.416 -122.868)" fill="#ffae73"/>
            <path id="Path_181435" data-name="Path 181435" d="M124.506,206.621s-11.017,2.1,3.241,18.051c2.28,2.552,14.6,5.874,14.6,5.874s1.25-1.063.62-1.924c0,0-8.483-6.16-10.349-7.139-.839-.44-3.259-9.832-4.628-12.093a6.169,6.169,0,0,0-3.485-2.769" transform="translate(-59.681 -102.381)" fill="#0cc0c7"/>
            <path id="Path_181436" data-name="Path 181436" d="M170.582,215.78a5.63,5.63,0,0,0,.431-1.052,5.818,5.818,0,0,1,.711-1.609c.075-.075.321.022.351.343a1.86,1.86,0,0,1-.177.7,7.885,7.885,0,0,0-.233,1.385c-.171.555-1.082.237-1.082.237" transform="translate(-84.524 -105.589)" fill="#ffae73"/>
            <path id="Path_181437" data-name="Path 181437" d="M268.553,340.01a3.962,3.962,0,0,0,.032.516,4.231,4.231,0,0,0,4.2,3.718h59.555a4.235,4.235,0,0,0,0-8.47H272.787a4.235,4.235,0,0,0-4.234,4.236" transform="translate(-133.068 -166.376)" fill="#25468f"/>
            <path id="Path_181438" data-name="Path 181438" d="M276.919,332.979h20.419a.65.65,0,0,0,0-1.3H276.919a.65.65,0,0,0,0,1.3" transform="translate(-136.891 -164.347)" fill="#25468f"/>
            <rect id="Rectangle_37952" data-name="Rectangle 37952" width="2.213" height="0.767" transform="translate(141.155 168.631)" fill="#1e3865"/>
            <path id="Path_181439" data-name="Path 181439" d="M269.571,348.185a4.241,4.241,0,0,0,3.721,2.209h12.615v-2.209Z" transform="translate(-133.573 -172.526)" fill="#1e3865"/>
            <path id="Path_181440" data-name="Path 181440" d="M352.2,338.769v2.481a2.992,2.992,0,0,1-2.993,2.995H287.174a2.992,2.992,0,0,1-2.994-2.995v-2.481a2.994,2.994,0,0,1,2.994-2.995H349.21a2.994,2.994,0,0,1,2.993,2.995" transform="translate(-140.811 -166.376)" fill="#f9b131"/>
            <path id="Path_181441" data-name="Path 181441" d="M352.2,348.185a2.993,2.993,0,0,1-2.889,2.209H287.276a2.993,2.993,0,0,1-2.889-2.209Z" transform="translate(-140.914 -172.526)" fill="#cf8d19"/>
            <path id="Path_181442" data-name="Path 181442" d="M406.8,340.024a4.7,4.7,0,0,0,1.232,3.27l.05.052a3.006,3.006,0,0,0,2.125.928c1.256,0,4.368-1.895,6.3-3.153.961-.627,1.629-1.1,1.629-1.1s-.668-.469-1.629-1.1c-1.929-1.26-5.042-3.154-6.3-3.154a2.812,2.812,0,0,0-1.042.2,3.414,3.414,0,0,0-1.436,1.133,4.673,4.673,0,0,0-.862,2.073.244.244,0,0,0,0,.028,5.241,5.241,0,0,0-.063.815" transform="translate(-201.57 -166.376)" fill="#899bfa"/>
            <path id="Path_181443" data-name="Path 181443" d="M406.8,343.4a4.7,4.7,0,0,0,1.232,3.27l9.548-3.285-10.717-.8a5.24,5.24,0,0,0-.063.815" transform="translate(-201.57 -169.75)" fill="#667ee8"/>
            <path id="Path_181444" data-name="Path 181444" d="M408.643,337.308l9.525,2.6-8.09-3.734a3.413,3.413,0,0,0-1.436,1.133" transform="translate(-202.483 -166.575)" fill="#9cafff"/>
            <path id="Path_181445" data-name="Path 181445" d="M424.806,343.122a1.175,1.175,0,0,0,.622,1.1c.961-.627,1.629-1.1,1.629-1.1s-.668-.469-1.629-1.1a1.173,1.173,0,0,0-.622,1.1" transform="translate(-210.492 -169.474)" fill="#1a2e48"/>
            <path id="Path_181446" data-name="Path 181446" d="M441.948,190.28a3.594,3.594,0,0,0-2.841-.3c-4.827-.567-6.235,5.063-6.17,7s.287,4.017-1.869,6.534c-6.227,7.268,6.814,7.589,6.814,7.589.11-5.807,7.072-3.688,6.766-3.1,8.924,2.142.887-15.857-2.7-17.718" transform="translate(-212.76 -94.054)" fill="#1a2e48"/>
            <path id="Path_181447" data-name="Path 181447" d="M412.367,234.913s-.849-1.292-1.533-1.318-1.951-.38-1.849-.127.887.279.963.431-1.166.38-1.521.406-1.191,0-1.165.177a4.024,4.024,0,0,0,2.552.811,7.1,7.1,0,0,1,2.338.3Z" transform="translate(-201.798 -115.639)" fill="#ffae73"/>
            <path id="Path_181448" data-name="Path 181448" d="M429.151,227.115a12.742,12.742,0,0,1-1.3,1.964,7.6,7.6,0,0,1-4.517,3.011,4.847,4.847,0,0,1-2.683-.435h0a12.238,12.238,0,0,1-4.155-3.474,1.95,1.95,0,0,1,.266-1.913s4.789,1.077,5.245.849,3.26-6.449,3.765-7.485a5.679,5.679,0,0,1,2.777-2.834Z" transform="translate(-206.307 -107.423)" fill="#f9b131"/>
            <path id="Path_181449" data-name="Path 181449" d="M432.07,238.649a7.6,7.6,0,0,1-4.517,3.011,4.848,4.848,0,0,1-2.683-.435c.093.012,2.461.3,3.405-1.384.963-1.723,2-4.46,3.435-3.548.618.394.59,1.372.36,2.357" transform="translate(-210.523 -116.993)" fill="#cf8d19"/>
            <path id="Path_181450" data-name="Path 181450" d="M471.93,339.095s1.461,1.333,1.176,2.281-1.6,1.58-1.782,2.737-.891,1.79-1.533,1.79h-3.058s-.472-.815.668-1.06,1.57-1.607,1.5-2.87a22.292,22.292,0,0,1,.107-2.948l2.424-.561Z" transform="translate(-231.218 -167.709)" fill="#1a2e48"/>
            <path id="Path_181451" data-name="Path 181451" d="M444.436,340.837s.526,5.649-.116,5.965l-8.21-.017s0-.947,1.319-1.158,3.635-.982,4.027-2.7,2.98-2.088,2.98-2.088" transform="translate(-216.093 -168.885)" fill="#1a2e48"/>
            <path id="Path_181452" data-name="Path 181452" d="M450.564,222.639a32.906,32.906,0,0,1,0,3.795c-.082,1.372-1.47,3.21-1.667,3.664-.494,1.14-1.051,1.326-1.051,1.326l-4.31,1.056-1.516.371-4.78-1.428s-2.177-6.077-1.3-9.5a26.248,26.248,0,0,1,2.21-5.8s3.24-1.279,8.979-.324Z" transform="translate(-215.905 -106.757)" fill="#f9b131"/>
            <path id="Path_181453" data-name="Path 181453" d="M455.13,236.966a13.41,13.41,0,0,1-.4,3.1c-.494,1.141-1.051,1.326-1.051,1.326l-4.31,1.057-1.872-.55s6.25-.947,5.557-6.324Z" transform="translate(-221.732 -116.729)" fill="#f8caa4"/>
            <path id="Path_181454" data-name="Path 181454" d="M436.848,248.938s-2.368,7.368-2.519,9.876,4.525,35.635,4.713,36.791c.177,1.09,1.53,1.784,1.53,1.784a2.048,2.048,0,0,0,1.51.116,3.731,3.731,0,0,0,1.621-.764s1.842-23.626.7-32.065a133.76,133.76,0,0,1-1.153-15.738Z" transform="translate(-215.208 -123.349)" fill="#244063"/>
            <path id="Path_181455" data-name="Path 181455" d="M450.119,248.5s3.611,4.845,3.947,8.119.528,14.778,1.245,17.971,3.352,9.337,3.352,19.295a1.988,1.988,0,0,1-1.12.875,9.2,9.2,0,0,1-.984.272,1.547,1.547,0,0,1-1.731-.822c-1.781-3.587-7.456-15.154-7.747-17.555-.206-1.7-2-12.945-5.906-19.545-.938-1.585.576-7.885.576-7.885Z" transform="translate(-218.451 -123.133)" fill="#2f5380"/>
            <path id="Path_181456" data-name="Path 181456" d="M438.444,246.684a4.961,4.961,0,0,0,2.838.79c2.255.045,7.842-.575,7.842-.575a4.623,4.623,0,0,1,.238,1.426s-6.824,1.721-10.778.251a2.5,2.5,0,0,1-.141-1.892" transform="translate(-217.183 -122.232)" fill="#1a2e48"/>
            <path id="Path_181457" data-name="Path 181457" d="M442.119,249.813a1.173,1.173,0,1,1,1.029-1.164,1.1,1.1,0,0,1-1.029,1.164m0-1.988a.837.837,0,1,0,.688.823.766.766,0,0,0-.688-.823" transform="translate(-218.56 -122.629)" fill="#fff"/>
            <path id="Path_181458" data-name="Path 181458" d="M458.919,240.946l-5.541,4.825a.961.961,0,0,1-1.356-.094l-7.071-8.12a.961.961,0,0,1,.094-1.356l5.541-4.825a.962.962,0,0,1,1.357.094l7.071,8.12a.961.961,0,0,1-.094,1.356" transform="translate(-220.356 -114.53)" fill="#0cc0c7"/>
            <path id="Path_181459" data-name="Path 181459" d="M453.729,249.37c-.079.021-2.943.358-2.944.949a1.781,1.781,0,0,0,1.631,1.558,9.41,9.41,0,0,0,1.8-1.377Z" transform="translate(-223.364 -123.563)" fill="#ffae73"/>
            <path id="Path_181460" data-name="Path 181460" d="M449.371,212.111a9.531,9.531,0,0,1-.511-3.485l-.216.042-3.639.721s.083,1.145.085,2.224c0,.009,0,.018,0,.027,0,.937-.633,1.877.87,2.249.464.115,4.1-.119,3.411-1.778" transform="translate(-220.478 -103.374)" fill="#ffae73"/>
            <path id="Path_181461" data-name="Path 181461" d="M445.05,209.431s.083,1.145.085,2.224c2.036-.057,3.113-1.915,3.554-2.944Z" transform="translate(-220.523 -103.416)" fill="#f48f4e"/>
            <path id="Path_181462" data-name="Path 181462" d="M442.126,204.179s4.818.08,4.821-2.922.628-5.012-2.448-5.19-3.675.967-3.919,1.969.294,6.045,1.547,6.143" transform="translate(-218.279 -97.143)" fill="#ffae73"/>
            <path id="Path_181463" data-name="Path 181463" d="M444.055,195.341s1.319,3.521,3.344,4.042,2.9-.022,2.9-.022a5.733,5.733,0,0,1-1.875-3.387s-3.376-2.309-4.371-.633" transform="translate(-220.03 -96.489)" fill="#1a2e48"/>
            <path id="Path_181464" data-name="Path 181464" d="M442.307,195.943a2.989,2.989,0,0,0-1.381,1.079,4.853,4.853,0,0,0-.651,2.755s-.994-2.393.123-3.747c1.185-1.435,1.909-.087,1.909-.087" transform="translate(-217.955 -96.806)" fill="#1a2e48"/>
            <path id="Path_181465" data-name="Path 181465" d="M454.711,249.2a3.279,3.279,0,0,0-1.145-.156c-.459.065-.8-.009-.8.12s.592.188.718.25a6.255,6.255,0,0,0,1.225-.213" transform="translate(-224.346 -123.398)" fill="#ffae73"/>
            <path id="Path_181466" data-name="Path 181466" d="M456.794,216.154a5.834,5.834,0,0,1,4.731,3.427c1.311,3.186,3.8,8.537,3.8,9.437s-1.39,3.675-8.851,5.271c0,0-.772-.811-.725-1.454,0,0,4.658-4,4.646-4.468-.024-.884-.764-2.052-4.853-6.143-1.112-1.112,1.255-6.07,1.255-6.07" transform="translate(-225.573 -107.104)" fill="#f9b131"/>
            <path id="Path_181467" data-name="Path 181467" d="M204.637,28.281s-2.744-.464-4.484.851-2.017.889-3,1.7.024,1.778-.518,2.32a1.109,1.109,0,0,0,.241,1.856c.8.27.262,1.74,2,1.933s.96,1,2.61,1.121a14.51,14.51,0,0,1,3.885.544,1.373,1.373,0,0,0,1.906-.674c.249-.662.945.192,1.148-.714s-.522-1.263-.116-2,1.409-5.953-3.673-6.939" transform="translate(-97.241 -13.974)" fill="#1a2e48"/>
            <path id="Path_181468" data-name="Path 181468" d="M222.113,126.747a.677.677,0,0,0-.116.726l0,0a4.511,4.511,0,0,0,1.435,1.552c.086.069.163.131.23.189l.051.045.04.035c.63.573.4.706,1.528,1.869,1.292,1.325,2.174,1.342,2.425,1.219.211-.1-.225-.81-.709-1.6l-.071-.116c-.065-.1-.128-.212-.192-.318-.567-.953-.426-1.4-.3-2.828.1-1.158,1.755-6.478,1.755-6.478l-2.459-.406s-.71,4.232-1.521,4.889c-.433.35-.921.358-1.338.618-.03.018-.059.037-.087.056a3.219,3.219,0,0,0-.668.545" transform="translate(-109.972 -59.777)" fill="#ffae73"/>
            <path id="Path_181469" data-name="Path 181469" d="M222.113,132.156a.677.677,0,0,0-.116.726l0,0a5.216,5.216,0,0,0,1.437,1.547c.085.07.16.134.228.194l.051.045.04.035c.63.573.4.706,1.528,1.869,1.292,1.325,2.174,1.342,2.425,1.219.211-.1-.225-.81-.709-1.6a5.465,5.465,0,0,1-2.3-1.668c-.779-.979-1.3-2.241-1.833-2.971-.03.018-.059.037-.087.056a3.219,3.219,0,0,0-.668.545" transform="translate(-109.972 -65.186)" fill="#1a2e48"/>
            <path id="Path_181470" data-name="Path 181470" d="M259.561,124.224c.157.757,1.237.623,2.443.319s.921.049,2.639-.153,2.233-.847,2.284-1.1c.045-.227-.8-.3-1.716-.4l-.345-.039a7.442,7.442,0,0,1-2.725-1.319,10.908,10.908,0,0,1-2.224-2.6l-2.355.2s1.25,1.87,1.734,2.683a2.854,2.854,0,0,1,.243,1.6,3.02,3.02,0,0,0,.024.806" transform="translate(-127.621 -58.928)" fill="#ffae73"/>
            <path id="Path_181471" data-name="Path 181471" d="M263.931,128.435c1.206-.3.921.049,2.639-.153s2.233-.847,2.284-1.1c.045-.227-.8-.3-1.716-.4l-.009.018a4.846,4.846,0,0,1-2.456.782c-1.166.037-2.4-.289-3.209-.27a3.041,3.041,0,0,0,.024.806c.157.757,1.237.623,2.443.319" transform="translate(-129.548 -62.819)" fill="#1a2e48"/>
            <path id="Path_181472" data-name="Path 181472" d="M235.556,95.99l-2.162,5.945-2.822,7.762a4.66,4.66,0,0,1-1.529-.129,6.64,6.64,0,0,1-1.483-.709s.74-8.318,2.2-13.1a8.5,8.5,0,0,1,1.263-2.782c2.291-2.746,4.537,3.014,4.537,3.014" transform="translate(-112.756 -45.702)" fill="#cf8d19"/>
            <path id="Path_181473" data-name="Path 181473" d="M217.991,80.017c-1.447-.456-5.56.172-9.69,1.011l-.876-1.423-8.938-.635s-2.8,6.192-1.259,10.713c.3.877,1.73.908,1.73.908s5.237.058,6.963.045c4.443-.032,9.381-3.12,10.022-3.254,1.048-.217,1.483,1.88,2.549,4.078s9.94,9.7,9.94,9.7a7.748,7.748,0,0,0,1.915-.21,1.885,1.885,0,0,0,.819-.525s-9.911-19.378-13.174-20.405" transform="translate(-97.497 -39.13)" fill="#f9b131"/>
            <path id="Path_181474" data-name="Path 181474" d="M208.023,48.033a4.2,4.2,0,0,1-2.62.1,4.671,4.671,0,0,1-1.746-2.062c.452-.024.945-.423,1.309-3.018l.193.068,3.243,1.141s-.227,1.04-.372,2.029c-.122.831-.185,1.627-.007,1.743" transform="translate(-100.912 -21.332)" fill="#ffae73"/>
            <path id="Path_181475" data-name="Path 181475" d="M209.877,44.328s-.138.728-.33,1.77a3.778,3.778,0,0,1-2.913-2.911Z" transform="translate(-102.387 -21.399)" fill="#f9924f"/>
            <path id="Path_181476" data-name="Path 181476" d="M210.042,39.848s-4.431-.563-4.038-3.317.086-4.681,2.932-4.438,3.244,1.372,3.336,2.323-1.067,5.508-2.23,5.432" transform="translate(-102.063 -15.892)" fill="#ffae73"/>
            <path id="Path_181477" data-name="Path 181477" d="M210.841,32.667s-2.817,2.462-4.743,2.672a3.7,3.7,0,0,1-2.66-.4,7.523,7.523,0,0,0,1.8-2.478,1.355,1.355,0,0,1,1.112-.807c1.375-.128,3.984-.2,4.489,1.016" transform="translate(-100.804 -15.65)" fill="#1a2e48"/>
            <path id="Path_181478" data-name="Path 181478" d="M214.6,32.795a6.98,6.98,0,0,1,1.258,1.588,5.36,5.36,0,0,1,.165,2.847s1.456-2.883.61-4.272a1.18,1.18,0,0,0-2.034-.163" transform="translate(-106.333 -15.984)" fill="#1a2e48"/>
            <path id="Path_181479" data-name="Path 181479" d="M208.12,57.386c-.071,8.961.013,7.089-.961,7.946a3.764,3.764,0,0,1-1.771.4c-2.746.2-7.58-.217-7.767-.723-.646-1.753-.2-2.3-.75-4.988-.057-.286-.128-.595-.21-.931-.454-1.844-.887-2.47.655-5.449a23.194,23.194,0,0,1,2.991-4.813c3.758,2.2,4.047.326,4.047.326s3.8,3.865,3.767,8.236" transform="translate(-97.236 -24.191)" fill="#42e0e6"/>
            <path id="Path_181480" data-name="Path 181480" d="M233.395,105.4l-2.822,7.762a4.668,4.668,0,0,1-1.529-.129,6.631,6.631,0,0,1-1.483-.709s.74-8.318,2.2-13.1Z" transform="translate(-112.756 -49.164)" fill="#f9b131"/>
            <path id="Path_181481" data-name="Path 181481" d="M212.326,49.471s3.855.626,4.319,2.28l3.193,11.383s-1.955.366-2.866-.532-3.206-8.368-3.206-8.368Z" transform="translate(-105.208 -24.513)" fill="#42e0e6"/>
            <path id="Path_181482" data-name="Path 181482" d="M206.011,73.051c-2.746.2-7.58-.217-7.767-.723-.646-1.753-.2-2.3-.75-4.987l1.3-3.741s-.19,4.157,1.044,5.242,5.032,2.075,5.634,2.984a3.337,3.337,0,0,1,.54,1.227" transform="translate(-97.858 -31.513)" fill="#0cc0c7"/>
            <path id="Path_181483" data-name="Path 181483" d="M208.111,78.483s2.707-.623,3.146-.385a6.371,6.371,0,0,1,1.65,1.41c.136.3-.975-.225-1.336-.318a3.2,3.2,0,0,0-1.15.26,3.827,3.827,0,0,1-2.062.221Z" transform="translate(-103.119 -38.671)" fill="#ffae73"/>
            <path id="Path_181484" data-name="Path 181484" d="M195.776,48.823s-3.638.25-4.886,2.016c-1.757,2.487-5.2,13.054-3.174,14.446,2.282,1.567,10.339.342,10.339.342a3.275,3.275,0,0,0-.119-1.861c-.377-.6-6.452-1.541-6.734-1.819s3.462-5.486,3.456-6.326,1.118-6.8,1.118-6.8" transform="translate(-92.706 -24.192)" fill="#42e0e6"/>
            <path id="Path_181485" data-name="Path 181485" d="M214.617,79.645a5.253,5.253,0,0,0,.76.815.556.556,0,0,0,.307.064l-.387-.686Z" transform="translate(-106.343 -39.464)" fill="#ffae73"/>
            <path id="Path_181486" data-name="Path 181486" d="M214.346,78.151l1.657.79a.294.294,0,0,1-.272.108,3.952,3.952,0,0,1-.718-.192Z" transform="translate(-106.209 -38.724)" fill="#ffae73"/>
            <path id="Path_181487" data-name="Path 181487" d="M215.423,73.889l13.063-.092,3.86-9.8-13.042.092Z" transform="translate(-106.742 -31.711)" fill="#1a2e48"/>
            <path id="Path_181488" data-name="Path 181488" d="M224.671,82.664l-17.249.122,0,.381,17.1-.121Z" transform="translate(-102.778 -40.96)" fill="#1a2e48"/>
            <path id="Path_181489" data-name="Path 181489" d="M233.465,73.175a.453.453,0,0,0-.448-.619.891.891,0,0,0-.8.628.452.452,0,0,0,.447.619.891.891,0,0,0,.8-.628" transform="translate(-115.054 -35.952)" fill="#e8f2fa"/>
            <path id="Path_181490" data-name="Path 181490" d="M83.259,342.11h9.533c.511-.433-.354-1.418-1.257-1.484a5.575,5.575,0,0,0-1.455.173c-.131-1.743-.88-9.575-3.7-9.26-3.174.353,0,3.449.9,5.283a43.6,43.6,0,0,1,1.687,4.225c-.258.056-.525.111-.8.161-.421-1.292-1.986-5.637-3.977-5.384-2.337.3-1.4,2.039.259,3.073,1.215.76,2.708,1.841,3.417,2.364a10.162,10.162,0,0,1-1.864.149,4.018,4.018,0,0,0-2.739.7" transform="translate(-41.02 -164.273)" fill="#9bd399"/>
            <path id="Path_181491" data-name="Path 181491" d="M482.141,340.961H471.595c-.565-.479.391-1.568,1.39-1.641a6.175,6.175,0,0,1,1.61.19c.145-1.928.974-10.593,4.1-10.245,3.512.39,0,3.816-.993,5.845a48.233,48.233,0,0,0-1.866,4.674c.285.062.58.122.882.178.466-1.43,2.2-6.237,4.4-5.957,2.586.328,1.547,2.256-.287,3.4-1.345.842-3,2.037-3.781,2.615a11.189,11.189,0,0,0,2.062.165,4.445,4.445,0,0,1,3.031.776" transform="translate(-233.592 -163.146)" fill="#9bd399"/>
            <path id="Path_181492" data-name="Path 181492" d="M279.137,353.217H31.784a.362.362,0,0,1-.361-.362v-.064a.362.362,0,0,1,.361-.361H279.137a.362.362,0,0,1,.361.361v.065a.362.362,0,0,1-.361.361" transform="translate(-15.57 -174.629)" fill="#1a2e48"/>
          </g>
        </g>
      </g>
    </g>
  </g>
</svg>
