<svg xmlns="http://www.w3.org/2000/svg" xmlns:xlink="http://www.w3.org/1999/xlink" width="400" height="280" viewBox="0 0 400 280">
  <defs>
    <clipPath id="clip-path">
      <rect id="Rectangle_38037" data-name="Rectangle 38037" width="272" height="179.038" fill="none"/>
    </clipPath>
    <clipPath id="clip-path-3">
      <rect id="Rectangle_37991" data-name="Rectangle 37991" width="42.144" height="51.112" fill="none"/>
    </clipPath>
    <clipPath id="clip-path-4">
      <rect id="Rectangle_37992" data-name="Rectangle 37992" width="39.693" height="40.276" fill="none"/>
    </clipPath>
    <clipPath id="clip-path-5">
      <rect id="Rectangle_37993" data-name="Rectangle 37993" width="34.849" height="24.995" fill="none"/>
    </clipPath>
    <clipPath id="clip-path-6">
      <rect id="Rectangle_37994" data-name="Rectangle 37994" width="36.787" height="21.911" fill="none"/>
    </clipPath>
    <clipPath id="clip-path-7">
      <rect id="Rectangle_37995" data-name="Rectangle 37995" width="8.704" height="37.579" fill="none"/>
    </clipPath>
    <clipPath id="clip-path-8">
      <path id="Path_181594" data-name="Path 181594" d="M57.622,339.2l.195,3.856a.88.88,0,0,0,.752.828,3.419,3.419,0,0,0,1.564-.129,1.042,1.042,0,0,0,.7-.8l.674-3.754Z" transform="translate(-57.622 -339.204)" fill="none"/>
    </clipPath>
    <linearGradient id="linear-gradient" x1="-7.405" y1="2.037" x2="-7.277" y2="2.037" gradientUnits="objectBoundingBox">
      <stop offset="0" stop-color="#febbba"/>
      <stop offset="1" stop-color="#ff928e"/>
    </linearGradient>
    <clipPath id="clip-path-10">
      <path id="Path_181597" data-name="Path 181597" d="M8.184,335.778a1.03,1.03,0,0,0,.536,1.167,3.659,3.659,0,0,0,1.975.478.86.86,0,0,0,.7-.574l1.4-3.991-3.658-.873Z" transform="translate(-8.153 -331.986)" fill="none"/>
    </clipPath>
    <linearGradient id="linear-gradient-2" x1="-0.843" y1="2.406" x2="-0.737" y2="2.406" xlink:href="#linear-gradient"/>
    <clipPath id="clip-path-12">
      <path id="Path_181601" data-name="Path 181601" d="M31.617,199.694a30.512,30.512,0,0,0,5.635,13.427l1.284-1.046a39.618,39.618,0,0,1-.639-12.833,9.728,9.728,0,0,0-1.854-.165,18.658,18.658,0,0,0-4.425.617" transform="translate(-31.617 -199.077)" fill="none"/>
    </clipPath>
    <linearGradient id="linear-gradient-3" x1="-0.828" y1="5.309" x2="-0.794" y2="5.309" xlink:href="#linear-gradient"/>
    <clipPath id="clip-path-14">
      <path id="Path_181604" data-name="Path 181604" d="M112.815,203.514c10.293,3.993,13.016-3.752,13.016-3.752l-1.9-.336a10.785,10.785,0,0,1-9.394-3.1,23.405,23.405,0,0,0-1.72,7.185" transform="translate(-112.815 -196.329)" fill="none"/>
    </clipPath>
    <linearGradient id="linear-gradient-4" x1="-4.327" y1="7.243" x2="-4.289" y2="7.243" xlink:href="#linear-gradient"/>
    <clipPath id="clip-path-15">
      <path id="Path_181605" data-name="Path 181605" d="M78.149,142.776a2.383,2.383,0,0,0,.84,3.425,35.942,35.942,0,0,0,3.564,1.628,1.769,1.769,0,0,0,2.366-1.177l2.473-9.092-4.1-2.451Z" transform="translate(-77.743 -135.109)" fill="none"/>
    </clipPath>
    <linearGradient id="linear-gradient-5" x1="-2.799" y1="10.895" x2="-2.761" y2="10.895" xlink:href="#linear-gradient"/>
    <clipPath id="clip-path-17">
      <rect id="Rectangle_38005" data-name="Rectangle 38005" width="62.566" height="61.437" fill="none"/>
    </clipPath>
    <clipPath id="clip-path-18">
      <path id="Path_181610" data-name="Path 181610" d="M92.677,123.8l-.538,9.978,5.81,1.315s2.085-10.219,2.062-10.375c-.164-1.138-1.575-1.459-3.117-1.459a20.883,20.883,0,0,0-4.217.54" transform="translate(-92.139 -123.263)" fill="none"/>
    </clipPath>
    <linearGradient id="linear-gradient-6" x1="-3.024" y1="9.337" x2="-2.989" y2="9.337" xlink:href="#linear-gradient"/>
    <clipPath id="clip-path-20">
      <path id="Path_181612" data-name="Path 181612" d="M84.935,133.114c.446,2.7,2.4,1.912,2.4,1.912s1.07-3-.029-3.73a1.957,1.957,0,0,0-1.07-.342c-.831,0-1.549.643-1.3,2.159" transform="translate(-84.885 -130.955)" fill="none"/>
    </clipPath>
    <linearGradient id="linear-gradient-7" x1="-6.699" y1="19.457" x2="-6.617" y2="19.457" xlink:href="#linear-gradient"/>
    <clipPath id="clip-path-21">
      <path id="Path_181613" data-name="Path 181613" d="M43.234,224.255l-1.177.617c.032,2.235,2.682,1.04,2.682,1.04a27.454,27.454,0,0,1,4.547.607c1.919.488,2.533-.36,2.533-.36l-2.594-2.392Z" transform="translate(-42.057 -223.767)" fill="none"/>
    </clipPath>
    <linearGradient id="linear-gradient-8" x1="-2.218" y1="7.817" x2="-2.165" y2="7.817" xlink:href="#linear-gradient"/>
    <clipPath id="clip-path-22">
      <path id="Path_181614" data-name="Path 181614" d="M136.735,201.495c.518.4,2.293-.44,3.38-1.025a1.25,1.25,0,0,0,.6-1.477c-.262-.824-.7-1.888-1.234-2.022a.439.439,0,0,0-.1-.011c-1.056,0-4.708,2.925-2.647,4.535" transform="translate(-136.116 -196.96)" fill="none"/>
    </clipPath>
    <linearGradient id="linear-gradient-9" x1="-10.684" y1="16.334" x2="-10.604" y2="16.334" xlink:href="#linear-gradient"/>
    <clipPath id="clip-path-24">
      <path id="Path_181618" data-name="Path 181618" d="M487.71,343.109c1.3,1,3.2.112,3.2.112l.331-2.79L488.5,340Z" transform="translate(-487.71 -340)" fill="none"/>
    </clipPath>
    <linearGradient id="linear-gradient-10" x1="-68.905" y1="2.252" x2="-68.764" y2="2.252" xlink:href="#linear-gradient"/>
    <clipPath id="clip-path-26">
      <path id="Path_181621" data-name="Path 181621" d="M514.187,343.069a2.726,2.726,0,0,0,2.278-.157l.773-4.219-2.682-.164Z" transform="translate(-514.187 -338.529)" fill="none"/>
    </clipPath>
    <linearGradient id="linear-gradient-11" x1="-84.127" y1="2.019" x2="-83.963" y2="2.019" xlink:href="#linear-gradient"/>
    <clipPath id="clip-path-28">
      <path id="Path_181624" data-name="Path 181624" d="M429.5,138.39s1.817,13.594,14.1,20.5a20.009,20.009,0,0,0,3.956-8.275c-7.4-2.3-14.6-7.005-15.977-12.808a1.756,1.756,0,0,0-.662-.124,1.793,1.793,0,0,0-1.416.708" transform="translate(-429.498 -137.682)" fill="none"/>
    </clipPath>
    <linearGradient id="linear-gradient-12" x1="-11.877" y1="5.201" x2="-11.849" y2="5.201" xlink:href="#linear-gradient"/>
    <clipPath id="clip-path-29">
      <path id="Path_181625" data-name="Path 181625" d="M421.725,120.912l1.79,1.864a8.65,8.65,0,0,0-1.044,2.066,2.509,2.509,0,0,0,.25,1.846c.315.566.743,1.3,1.148,1.877a2.477,2.477,0,0,0,1.86,1.1c-.1.3,1.016.769,1.67-.478.023-.6.387-3.159.029-3.647a47.673,47.673,0,0,0-5.592-5.846.878.878,0,0,0-.11,1.22" transform="translate(-421.526 -119.692)" fill="none"/>
    </clipPath>
    <linearGradient id="linear-gradient-13" x1="-20.142" y1="9.629" x2="-20.094" y2="9.629" xlink:href="#linear-gradient"/>
    <clipPath id="clip-path-30">
      <path id="Path_181626" data-name="Path 181626" d="M426.552,129.342a18.754,18.754,0,0,1,.853,3.322l1.454-1.613-.512-1.376-1.631-1.383c-.339.173-.527.458-.164,1.05" transform="translate(-426.355 -128.292)" fill="none"/>
    </clipPath>
    <linearGradient id="linear-gradient-14" x1="-45.807" y1="22.528" x2="-45.699" y2="22.528" xlink:href="#linear-gradient"/>
    <clipPath id="clip-path-32">
      <path id="Path_181628" data-name="Path 181628" d="M514.1,200.494a3.713,3.713,0,0,1-.681,2.886c-3.3,4.724-13.093-.809-13.093-.809l-1.3,2.413s15.737,11.17,21.524.585a10.4,10.4,0,0,0,1.326-5.022v-.057a10.981,10.981,0,0,0-.2-2.028,20.635,20.635,0,0,0-7.58,2.032" transform="translate(-499.027 -198.462)" fill="none"/>
    </clipPath>
    <linearGradient id="linear-gradient-15" x1="-10.904" y1="4.515" x2="-10.882" y2="4.515" xlink:href="#linear-gradient"/>
    <clipPath id="clip-path-34">
      <path id="Path_181632" data-name="Path 181632" d="M492.394,198.983a28.425,28.425,0,0,0-4.226,1.127,1.11,1.11,0,0,0,1.589.958l-.913.707s.13,1.132,1.375.527l-.85.938a.991.991,0,0,0,1.45.333c.474-.309.82.265,1.4.838a2.817,2.817,0,0,0,2.547.889s.744-3.061.444-4.146c-.271-.981-.773-2.216-2.3-2.216a3.309,3.309,0,0,0-.523.044" transform="translate(-488.168 -198.939)" fill="none"/>
    </clipPath>
    <linearGradient id="linear-gradient-16" x1="-33.173" y1="12.188" x2="-33.105" y2="12.188" xlink:href="#linear-gradient"/>
    <clipPath id="clip-path-35">
      <path id="Path_181633" data-name="Path 181633" d="M491.557,151.46l.962,7.435a1.46,1.46,0,0,0,.671,1.041,6.984,6.984,0,0,0,7.242.487.311.311,0,0,0,.141-.373l-2.971-8.59Z" transform="translate(-491.557 -151.46)" fill="none"/>
    </clipPath>
    <linearGradient id="linear-gradient-17" x1="-21.047" y1="8.196" x2="-21.004" y2="8.196" xlink:href="#linear-gradient"/>
    <clipPath id="clip-path-36">
      <path id="Path_181634" data-name="Path 181634" d="M484.99,144.148c.418,2.48,4.461,2.3,7.99.288l2.467-6.63-7.614-2.278s-3.262,6.14-2.843,8.62" transform="translate(-484.953 -135.528)" fill="none"/>
    </clipPath>
    <linearGradient id="linear-gradient-18" x1="-15.908" y1="7.492" x2="-15.874" y2="7.492" xlink:href="#linear-gradient"/>
    <clipPath id="clip-path-38">
      <path id="Path_181636" data-name="Path 181636" d="M499.253,146.821l-.719,1.191c1.12.5,3.382-.1,3.212-1.443a.548.548,0,0,0-.6-.538,4.659,4.659,0,0,0-1.891.789" transform="translate(-498.533 -146.032)" fill="none"/>
    </clipPath>
    <linearGradient id="linear-gradient-19" x1="-59.465" y1="27.538" x2="-59.345" y2="27.538" xlink:href="#linear-gradient"/>
    <clipPath id="clip-path-40">
      <rect id="Rectangle_38028" data-name="Rectangle 38028" width="57.732" height="29.383" fill="none"/>
    </clipPath>
    <clipPath id="clip-path-41">
      <rect id="Rectangle_38029" data-name="Rectangle 38029" width="57.783" height="29.455" fill="none"/>
    </clipPath>
    <clipPath id="clip-path-42">
      <rect id="Rectangle_38030" data-name="Rectangle 38030" width="51.03" height="3.67" fill="none"/>
    </clipPath>
    <clipPath id="clip-path-43">
      <rect id="Rectangle_38031" data-name="Rectangle 38031" width="48.945" height="2.201" fill="none"/>
    </clipPath>
    <clipPath id="clip-path-44">
      <rect id="Rectangle_38032" data-name="Rectangle 38032" width="48.945" height="2.876" fill="none"/>
    </clipPath>
    <clipPath id="clip-path-46">
      <rect id="Rectangle_38034" data-name="Rectangle 38034" width="14.849" height="7.927" fill="none"/>
    </clipPath>
    <clipPath id="clip-path-47">
      <rect id="Rectangle_38035" data-name="Rectangle 38035" width="24.238" height="24.238" fill="none"/>
    </clipPath>
  </defs>
  <g id="t5-c9" transform="translate(-5836 7516)">
    <path id="Rectangle_38463" data-name="Rectangle 38463" d="M20,3A17,17,0,0,0,3,20V260a17,17,0,0,0,17,17H380a17,17,0,0,0,17-17V20A17,17,0,0,0,380,3H20m0-3H380a20,20,0,0,1,20,20V260a20,20,0,0,1-20,20H20A20,20,0,0,1,0,260V20A20,20,0,0,1,20,0Z" transform="translate(5836 -7516)" fill="#f9b131"/>
    <path id="Rectangle_38464" data-name="Rectangle 38464" d="M0,0H400a0,0,0,0,1,0,0V52a20,20,0,0,1-20,20H20A20,20,0,0,1,0,52V0A0,0,0,0,1,0,0Z" transform="translate(5836 -7308)" fill="#f9b131"/>
    <path id="Path_184781" data-name="Path 184781" d="M57.843,13.6a1.268,1.268,0,0,0-.479-1.055,5.954,5.954,0,0,0-1.683-.782,16.147,16.147,0,0,1-1.969-.782q-2.487-1.222-2.487-3.357a3.011,3.011,0,0,1,.62-1.876A4.008,4.008,0,0,1,53.6,4.48a6.823,6.823,0,0,1,2.549-.453,5.969,5.969,0,0,1,2.474.492,3.917,3.917,0,0,1,1.7,1.4A3.661,3.661,0,0,1,60.928,8H57.852a1.547,1.547,0,0,0-.479-1.213,1.867,1.867,0,0,0-1.3-.431,2.106,2.106,0,0,0-1.305.365,1.074,1.074,0,0,0,.048,1.819,6.65,6.65,0,0,0,1.854.826,11.36,11.36,0,0,1,2.18.918,3.663,3.663,0,0,1,2.074,3.3,3.125,3.125,0,0,1-1.266,2.637,5.629,5.629,0,0,1-3.472.958,6.888,6.888,0,0,1-2.817-.558,4.247,4.247,0,0,1-1.9-1.529,3.985,3.985,0,0,1-.637-2.237h3.094a1.963,1.963,0,0,0,.532,1.516,2.513,2.513,0,0,0,1.727.488,1.985,1.985,0,0,0,1.208-.33A1.088,1.088,0,0,0,57.843,13.6ZM65.5,17H62.527V7.49H65.5ZM62.352,5.029a1.334,1.334,0,0,1,.457-1.043,1.934,1.934,0,0,1,2.373,0,1.334,1.334,0,0,1,.457,1.043,1.334,1.334,0,0,1-.457,1.043,1.934,1.934,0,0,1-2.373,0A1.334,1.334,0,0,1,62.352,5.029Zm9.949,9.3a.684.684,0,0,0-.4-.606,6.016,6.016,0,0,0-1.5-.475,6.853,6.853,0,0,1-1.828-.646,3.062,3.062,0,0,1-1.1-.971,2.319,2.319,0,0,1-.378-1.31,2.628,2.628,0,0,1,1.081-2.158,4.453,4.453,0,0,1,2.83-.848,4.934,4.934,0,0,1,3.023.853,2.666,2.666,0,0,1,1.143,2.241H72.2q0-1.143-1.2-1.143a1.194,1.194,0,0,0-.782.259.8.8,0,0,0-.316.646.737.737,0,0,0,.387.642,3.654,3.654,0,0,0,1.235.4,10.671,10.671,0,0,1,1.49.378,2.706,2.706,0,0,1,2.145,2.646A2.491,2.491,0,0,1,74,16.358a5.068,5.068,0,0,1-2.993.817,5.172,5.172,0,0,1-2.18-.439,3.645,3.645,0,0,1-1.494-1.2A2.707,2.707,0,0,1,66.8,13.95h2.769a1.145,1.145,0,0,0,.439.962,1.808,1.808,0,0,0,1.081.3A1.422,1.422,0,0,0,72,14.97.787.787,0,0,0,72.3,14.328Zm7.69-9.2V7.49h1.564V9.547H79.991V13.9a1.111,1.111,0,0,0,.193.747,1.037,1.037,0,0,0,.765.211,4.345,4.345,0,0,0,.738-.053v2.118a5.466,5.466,0,0,1-1.67.255,3.1,3.1,0,0,1-2.259-.721,2.954,2.954,0,0,1-.729-2.188V9.547H75.816V7.49h1.213V5.126Zm7.33,12.05a4.889,4.889,0,0,1-3.542-1.305,4.507,4.507,0,0,1-1.354-3.4v-.246a5.84,5.84,0,0,1,.541-2.575,3.955,3.955,0,0,1,1.578-1.727A4.763,4.763,0,0,1,87,7.314a4.117,4.117,0,0,1,3.164,1.244,4.887,4.887,0,0,1,1.16,3.467v1.151H85.44a2.135,2.135,0,0,0,.694,1.257,2.066,2.066,0,0,0,1.389.457,2.662,2.662,0,0,0,2.2-.984l1.354,1.6a3.784,3.784,0,0,1-1.569,1.217A5.3,5.3,0,0,1,87.321,17.176ZM86.987,9.6q-1.3,0-1.547,1.723h2.988v-.229a1.467,1.467,0,0,0-.36-1.1A1.434,1.434,0,0,0,86.987,9.6ZM95.319,7.49l.1,1.116a3.27,3.27,0,0,1,2.716-1.292,2.407,2.407,0,0,1,2.435,1.433,3.165,3.165,0,0,1,2.795-1.433q2.892,0,2.971,3.5V17h-2.971V11a1.813,1.813,0,0,0-.246-1.063,1.048,1.048,0,0,0-.9-.334,1.4,1.4,0,0,0-1.31.782l.009.123V17H97.947V11.015a1.906,1.906,0,0,0-.237-1.081A1.045,1.045,0,0,0,96.8,9.6a1.42,1.42,0,0,0-1.3.782V17H92.542V7.49ZM113.381,17a3.344,3.344,0,0,1-.281-.853,2.754,2.754,0,0,1-2.285,1.028,3.374,3.374,0,0,1-2.285-.813,2.588,2.588,0,0,1-.94-2.043,2.66,2.66,0,0,1,1.143-2.338,5.821,5.821,0,0,1,3.322-.791h.914v-.5q0-1.316-1.134-1.316a.927.927,0,0,0-1.055,1.042h-2.962a2.655,2.655,0,0,1,1.173-2.239,4.931,4.931,0,0,1,2.993-.86,4.323,4.323,0,0,1,2.874.888,3.086,3.086,0,0,1,1.081,2.435v4.21a4.311,4.311,0,0,0,.4,2V17Zm-1.854-1.934a1.652,1.652,0,0,0,.918-.237,1.487,1.487,0,0,0,.523-.536V12.772h-.861q-1.547,0-1.547,1.389a.848.848,0,0,0,.272.655A.986.986,0,0,0,111.526,15.066Zm10.16-2.892a5.809,5.809,0,0,1,.976-3.56,3.211,3.211,0,0,1,2.725-1.3,2.731,2.731,0,0,1,2.145,1V3.5H130.5V17h-2.663l-.149-1.02a2.8,2.8,0,0,1-2.32,1.2,3.205,3.205,0,0,1-2.689-1.3A5.993,5.993,0,0,1,121.687,12.175Zm2.962.185q0,2.531,1.477,2.531a1.458,1.458,0,0,0,1.406-.826V10.443a1.419,1.419,0,0,0-1.389-.844q-1.371,0-1.485,2.215Zm12.138,4.816a4.889,4.889,0,0,1-3.542-1.305,4.507,4.507,0,0,1-1.354-3.4v-.246a5.84,5.84,0,0,1,.541-2.575,3.955,3.955,0,0,1,1.578-1.727,4.763,4.763,0,0,1,2.461-.611,4.117,4.117,0,0,1,3.164,1.244,4.887,4.887,0,0,1,1.16,3.467v1.151h-5.889a2.135,2.135,0,0,0,.694,1.257,2.066,2.066,0,0,0,1.389.457,2.662,2.662,0,0,0,2.2-.984l1.354,1.6a3.784,3.784,0,0,1-1.569,1.217A5.3,5.3,0,0,1,136.786,17.176ZM136.452,9.6q-1.3,0-1.547,1.723h2.988v-.229a1.467,1.467,0,0,0-.36-1.1A1.434,1.434,0,0,0,136.452,9.6Zm13.808,3.876,1.5-5.985h3.12L151.78,17h-3.023l-3.1-9.51h3.129Zm9.993,3.7a4.889,4.889,0,0,1-3.542-1.305,4.507,4.507,0,0,1-1.354-3.4v-.246a5.84,5.84,0,0,1,.541-2.575,3.955,3.955,0,0,1,1.578-1.727,4.763,4.763,0,0,1,2.461-.611A4.117,4.117,0,0,1,163.1,8.558a4.887,4.887,0,0,1,1.16,3.467v1.151h-5.889a2.135,2.135,0,0,0,.694,1.257,2.066,2.066,0,0,0,1.389.457,2.662,2.662,0,0,0,2.2-.984l1.354,1.6a3.784,3.784,0,0,1-1.569,1.217A5.3,5.3,0,0,1,160.253,17.176ZM159.919,9.6q-1.3,0-1.547,1.723h2.988v-.229a1.467,1.467,0,0,0-.36-1.1A1.434,1.434,0,0,0,159.919,9.6Zm8.253-2.109.1,1.116a3.225,3.225,0,0,1,2.716-1.292A2.713,2.713,0,0,1,173.2,8.2a4.226,4.226,0,0,1,.76,2.672V17h-2.971V11a1.6,1.6,0,0,0-.29-1.059,1.342,1.342,0,0,0-1.055-.338,1.413,1.413,0,0,0-1.292.686V17h-2.962V7.49Zm10.881-2.364V7.49h1.564V9.547h-1.564V13.9a1.111,1.111,0,0,0,.193.747,1.037,1.037,0,0,0,.765.211,4.345,4.345,0,0,0,.738-.053v2.118a5.466,5.466,0,0,1-1.67.255,3.1,3.1,0,0,1-2.259-.721,2.954,2.954,0,0,1-.729-2.188V9.547h-1.213V7.49h1.213V5.126ZM187.139,17a3.344,3.344,0,0,1-.281-.853,2.754,2.754,0,0,1-2.285,1.028,3.374,3.374,0,0,1-2.285-.813,2.588,2.588,0,0,1-.94-2.043,2.66,2.66,0,0,1,1.143-2.338,5.821,5.821,0,0,1,3.322-.791h.914v-.5q0-1.316-1.134-1.316a.927.927,0,0,0-1.055,1.042h-2.962a2.655,2.655,0,0,1,1.173-2.239,4.931,4.931,0,0,1,2.993-.86,4.323,4.323,0,0,1,2.874.888,3.086,3.086,0,0,1,1.081,2.435v4.21a4.311,4.311,0,0,0,.4,2V17Zm-1.854-1.934a1.652,1.652,0,0,0,.918-.237,1.487,1.487,0,0,0,.523-.536V12.772h-.861q-1.547,0-1.547,1.389a.848.848,0,0,0,.272.655A.986.986,0,0,0,185.284,15.066Zm11.03-.738a.684.684,0,0,0-.4-.606,6.016,6.016,0,0,0-1.5-.475,6.853,6.853,0,0,1-1.828-.646,3.062,3.062,0,0,1-1.1-.971,2.319,2.319,0,0,1-.378-1.31,2.628,2.628,0,0,1,1.081-2.158,4.453,4.453,0,0,1,2.83-.848,4.934,4.934,0,0,1,3.023.853,2.666,2.666,0,0,1,1.143,2.241h-2.971q0-1.143-1.2-1.143a1.194,1.194,0,0,0-.782.259.8.8,0,0,0-.316.646.737.737,0,0,0,.387.642,3.654,3.654,0,0,0,1.235.4,10.671,10.671,0,0,1,1.49.378,2.706,2.706,0,0,1,2.145,2.646,2.491,2.491,0,0,1-1.156,2.118,5.068,5.068,0,0,1-2.993.817,5.172,5.172,0,0,1-2.18-.439,3.645,3.645,0,0,1-1.494-1.2,2.707,2.707,0,0,1-.536-1.591h2.769a1.145,1.145,0,0,0,.439.962,1.808,1.808,0,0,0,1.081.3,1.422,1.422,0,0,0,.91-.246A.787.787,0,0,0,196.314,14.328Z" transform="translate(5911 -7282)" fill="#12263f"/>
    <g id="Group_118369" data-name="Group 118369" transform="translate(5900 -7502.284)">
      <g id="Group_118107" data-name="Group 118107" clip-path="url(#clip-path)">
        <g id="Group_118017" data-name="Group 118017">
          <g id="Group_118016" data-name="Group 118016" clip-path="url(#clip-path)">
            <path id="Path_181574" data-name="Path 181574" d="M268.672,151.883a79.161,79.161,0,0,1-14.056,9.688c-36.4,20.639-78.14,18.19-91.005,16.156-20.756-3.28-38.149-9.093-53.2-20.642C76.2,130.843,77.865,76.1,104,42.189c3.1-4.021,29.2-36.871,70.9-41.5,1.02-.113,1.781-.178,2.447-.238C183.8-.128,223.776-3.189,256.372,20c4.666,3.319,12.97,8.9,19.138,18.439,22.076,34.125,25.541,85.1-6.839,113.444" transform="translate(-42.332 0)" fill="#e8feff"/>
            <path id="Path_181575" data-name="Path 181575" d="M352.962,87.975q-.087-.377-.178-.753c-9.21-37.913-47.746-61.1-86.075-51.79l16.857,69.4Z" transform="translate(-133.549 -16.712)" fill="#a8fdff"/>
            <path id="Path_181576" data-name="Path 181576" d="M300.061,158.683l67.556,23.194a71.081,71.081,0,0,0,2.057-39.148q-.146-.637-.3-1.269Z" transform="translate(-150.249 -70.833)" fill="#c4fdff"/>
            <path id="Path_181577" data-name="Path 181577" d="M300.473,176.495l13.73,70.084c.439-.086.879-.175,1.319-.27a71.377,71.377,0,0,0,52.509-46.621Z" transform="translate(-150.455 -88.376)" fill="#ffd48a"/>
            <path id="Path_181578" data-name="Path 181578" d="M211.573,95.616,197.316,26.527a71.445,71.445,0,0,0-56.852,65.406l70.716,4.139a.379.379,0,0,0,.393-.455" transform="translate(-70.334 -13.283)" fill="#f9b131"/>
            <path id="Path_181579" data-name="Path 181579" d="M229.011,173.521l-71.261-2.369a63.285,63.285,0,0,0,1.678,17.872,71.44,71.44,0,0,0,59.611,55.217Z" transform="translate(-78.949 -85.7)" fill="#42e0e6"/>
            <path id="Path_181580" data-name="Path 181580" d="M279.386,247.135a71.2,71.2,0,0,0,24.351-.532l-13.656-70.1Z" transform="translate(-139.896 -88.38)" fill="#0cc0c7"/>
            <g id="Group_118003" data-name="Group 118003" transform="translate(82.887 101.089)" opacity="0.61">
              <g id="Group_118002" data-name="Group 118002">
                <g id="Group_118001" data-name="Group 118001" clip-path="url(#clip-path-3)">
                  <path id="Path_181581" data-name="Path 181581" d="M207.684,253.584a.472.472,0,0,1-.181-.036,69.031,69.031,0,0,1-40.838-47.6c-.234-.965-.45-1.944-.642-2.91a.474.474,0,0,1,.931-.185c.189.953.4,1.919.633,2.871a68.079,68.079,0,0,0,40.278,46.946.474.474,0,0,1-.181.913" transform="translate(-166.015 -202.472)" fill="#fff"/>
                </g>
              </g>
            </g>
            <g id="Group_118006" data-name="Group 118006" transform="translate(175.638 112.231)" opacity="0.61">
              <g id="Group_118005" data-name="Group 118005">
                <g id="Group_118004" data-name="Group 118004" clip-path="url(#clip-path-4)">
                  <path id="Path_181582" data-name="Path 181582" d="M352.263,265.063a.474.474,0,0,1-.175-.915,68.325,68.325,0,0,0,38.475-39.055.474.474,0,0,1,.886.339,69.278,69.278,0,0,1-39.012,39.6.48.48,0,0,1-.175.033" transform="translate(-351.788 -224.788)" fill="#fff"/>
                </g>
              </g>
            </g>
            <g id="Group_118009" data-name="Group 118009" transform="translate(171.152 22.383)" opacity="0.61">
              <g id="Group_118008" data-name="Group 118008">
                <g id="Group_118007" data-name="Group 118007" clip-path="url(#clip-path-5)">
                  <path id="Path_181583" data-name="Path 181583" d="M377.178,69.826a.473.473,0,0,1-.379-.188,68,68,0,0,0-33.667-23.881.474.474,0,1,1,.29-.9,68.937,68.937,0,0,1,34.134,24.211.474.474,0,0,1-.093.664.469.469,0,0,1-.285.1" transform="translate(-342.802 -44.832)" fill="#fff"/>
                </g>
              </g>
            </g>
            <g id="Group_118012" data-name="Group 118012" transform="translate(72.634 56.408)" opacity="0.74">
              <g id="Group_118011" data-name="Group 118011">
                <g id="Group_118010" data-name="Group 118010" clip-path="url(#clip-path-6)">
                  <path id="Path_181584" data-name="Path 181584" d="M181.794,134.891h-.031l-36.283-2.34.079-.512a97.16,97.16,0,0,1,4.943-18.746.474.474,0,0,1,.891.325,96.691,96.691,0,0,0-4.816,18.054l35.246,2.273a.474.474,0,0,1-.03.947" transform="translate(-145.48 -112.981)" fill="#fff"/>
                </g>
              </g>
            </g>
            <g id="Group_118015" data-name="Group 118015" transform="translate(129.465 42.574)" opacity="0.74">
              <g id="Group_118014" data-name="Group 118014">
                <g id="Group_118013" data-name="Group 118013" clip-path="url(#clip-path-7)">
                  <path id="Path_181585" data-name="Path 181585" d="M267.249,122.85l-.051,0-7.4-.479a.474.474,0,1,1,.061-.946l7.158.463-7.7-36.042a.474.474,0,0,1,.928-.2l7.749,36.282a.763.763,0,0,1-.745.923m-.183-.724h0Z" transform="translate(-259.307 -85.271)" fill="#fff"/>
                </g>
              </g>
            </g>
            <path id="Path_181586" data-name="Path 181586" d="M300.227,117.068l-.31-.567,20.956-11.45,19.474,8.56,16.718-16.4.034-.02L376.735,85.6l.329.557-19.6,11.569-16.974,16.65L320.9,105.771Z" transform="translate(-150.176 -42.864)" fill="#1a2e48"/>
            <path id="Path_181587" data-name="Path 181587" d="M300.22,145.8a2.253,2.253,0,1,1-2.253-2.253,2.253,2.253,0,0,1,2.253,2.253" transform="translate(-148.072 -71.876)" fill="#1a2e48"/>
            <path id="Path_181588" data-name="Path 181588" d="M341.913,123.016a2.253,2.253,0,1,1-2.253-2.253,2.253,2.253,0,0,1,2.253,2.253" transform="translate(-168.949 -60.469)" fill="#1a2e48"/>
            <path id="Path_181589" data-name="Path 181589" d="M381.029,139.349a2.253,2.253,0,1,1-2.253-2.253,2.253,2.253,0,0,1,2.253,2.253" transform="translate(-188.535 -68.648)" fill="#1a2e48"/>
            <path id="Path_181590" data-name="Path 181590" d="M413.7,107.112a2.253,2.253,0,1,1-2.253-2.253,2.253,2.253,0,0,1,2.253,2.253" transform="translate(-204.892 -52.506)" fill="#1a2e48"/>
            <path id="Path_181591" data-name="Path 181591" d="M454.1,83.9a2.253,2.253,0,1,1-2.253-2.253A2.253,2.253,0,0,1,454.1,83.9" transform="translate(-225.123 -40.883)" fill="#1a2e48"/>
            <path id="Path_181592" data-name="Path 181592" d="M68.473,355.569c-2.363.2-6.464.536-9.7.679a9.332,9.332,0,0,1-3.706-.363q0,.109.006.205a.669.669,0,0,0,.635.632,113.646,113.646,0,0,0,12.7.012.476.476,0,0,0,.388-.715,3.9,3.9,0,0,0-.323-.449" transform="translate(-27.576 -178.043)" fill="#2f5380"/>
            <path id="Path_181593" data-name="Path 181593" d="M58.777,351.462c3.233-.142,7.333-.474,9.7-.678-2.323-2.85-9.7-4.771-9.7-4.771H56.694A8.734,8.734,0,0,0,55.07,351.1a9.348,9.348,0,0,0,3.707.362" transform="translate(-27.575 -173.258)" fill="#1a2e48"/>
          </g>
        </g>
        <g id="Group_118019" data-name="Group 118019" transform="translate(28.769 169.355)">
          <g id="Group_118018" data-name="Group 118018" clip-path="url(#clip-path-8)">
            <rect id="Rectangle_37997" data-name="Rectangle 37997" width="3.885" height="4.752" transform="translate(0 0)" fill="url(#linear-gradient)"/>
          </g>
        </g>
        <g id="Group_118021" data-name="Group 118021">
          <g id="Group_118020" data-name="Group 118020" clip-path="url(#clip-path)">
            <path id="Path_181595" data-name="Path 181595" d="M1.721,355.621a1.87,1.87,0,0,1-1.683-1.244l0,.015a1.331,1.331,0,0,0,.9,1.518,5.857,5.857,0,0,0,2.484.389,2.47,2.47,0,0,0,1.863-.859l.006-.008a6.256,6.256,0,0,1-3.564.189" transform="translate(0 -177.446)" fill="#2f5380"/>
            <path id="Path_181596" data-name="Path 181596" d="M6.591,339.154H4.873c-2.616-.053-4.258,5.464-4.8,7.6A1.87,1.87,0,0,0,1.76,348a6.256,6.256,0,0,0,3.564-.189,16.394,16.394,0,0,0,2.45-6.173,2.167,2.167,0,0,0-1.184-2.483" transform="translate(-0.039 -169.823)" fill="#1a2e48"/>
          </g>
        </g>
        <g id="Group_118023" data-name="Group 118023" transform="translate(4.071 165.752)">
          <g id="Group_118022" data-name="Group 118022" clip-path="url(#clip-path-10)">
            <rect id="Rectangle_37999" data-name="Rectangle 37999" width="4.729" height="5.52" transform="translate(-0.086)" fill="url(#linear-gradient-2)"/>
          </g>
        </g>
        <g id="Group_118025" data-name="Group 118025">
          <g id="Group_118024" data-name="Group 118024" clip-path="url(#clip-path)">
            <path id="Path_181598" data-name="Path 181598" d="M7.847,280.1c1.186,1.052,5.046,1.191,5.046,1.191,13.9-33.363,19.587-38.1,19.587-38.1-2.008,12.593-.324,40.473-.324,40.473,2.294,1.012,5.251,0,5.251,0a214.889,214.889,0,0,1,7.1-52.771c-9.4-.211-14.392-3.426-16.023-4.717C20.651,238.8,7.847,280.1,7.847,280.1" transform="translate(-3.929 -113.249)" fill="#244063"/>
            <path id="Path_181599" data-name="Path 181599" d="M50.688,149.093c-1.778,8.871-1.141,24.746-.722,31.988.118,2.036-1.3,4.857-2.451,6.782a.6.6,0,0,0,.244.849,41.89,41.89,0,0,0,15.986,4.432,1.077,1.077,0,0,0,1.083-.8c5.6-20.91,12.1-34.272,12.1-34.272-7.181-11.468-26.244-8.976-26.244-8.976" transform="translate(-23.748 -74.54)" fill="#f9b131"/>
            <path id="Path_181600" data-name="Path 181600" d="M58.639,253.146a.446.446,0,0,1-.38-.677,13.966,13.966,0,0,1,5.511-4.785.445.445,0,1,1,.387.8,13.316,13.316,0,0,0-5.138,4.446.445.445,0,0,1-.38.214" transform="translate(-29.139 -124)" fill="#1a2e48"/>
          </g>
        </g>
        <g id="Group_118027" data-name="Group 118027" transform="translate(15.786 99.394)">
          <g id="Group_118026" data-name="Group 118026" clip-path="url(#clip-path-12)">
            <rect id="Rectangle_38001" data-name="Rectangle 38001" width="14.49" height="15.101" transform="matrix(0.749, -0.663, 0.663, 0.749, -6.97, 6.172)" fill="url(#linear-gradient-3)"/>
          </g>
        </g>
        <g id="Group_118029" data-name="Group 118029">
          <g id="Group_118028" data-name="Group 118028" clip-path="url(#clip-path)">
            <path id="Path_181602" data-name="Path 181602" d="M44.528,160.267l-1.986-10.945S29.271,159.467,31.388,174.78a15.359,15.359,0,0,1,6.279-.452c.607-4.914,2.419-10.249,6.862-14.061" transform="translate(-15.602 -74.77)" fill="#f9b131"/>
            <path id="Path_181603" data-name="Path 181603" d="M101.385,167.3l-5.123,11.032c.828,6.661,4.406,9.541,8.264,10.646a23.407,23.407,0,0,1,1.72-7.185c-4.929-5.09-4.862-14.493-4.862-14.493" transform="translate(-48.201 -83.772)" fill="#f9b131"/>
          </g>
        </g>
        <g id="Group_118031" data-name="Group 118031" transform="translate(56.326 98.022)">
          <g id="Group_118030" data-name="Group 118030" clip-path="url(#clip-path-14)">
            <rect id="Rectangle_38003" data-name="Rectangle 38003" width="13.016" height="11.178" transform="translate(0)" fill="url(#linear-gradient-4)"/>
          </g>
        </g>
        <g id="Group_118033" data-name="Group 118033" transform="translate(38.815 67.456)">
          <g id="Group_118032" data-name="Group 118032" clip-path="url(#clip-path-15)">
            <rect id="Rectangle_38004" data-name="Rectangle 38004" width="13.171" height="10.103" transform="matrix(0.006, -1, 1, 0.006, -0.454, 13.112)" fill="url(#linear-gradient-5)"/>
          </g>
        </g>
        <g id="Group_118038" data-name="Group 118038">
          <g id="Group_118037" data-name="Group 118037" clip-path="url(#clip-path)">
            <path id="Path_181606" data-name="Path 181606" d="M81.576,191.02,18.2,214.084a4.853,4.853,0,0,0-2.758,6.568l.193.422a4.511,4.511,0,0,0,6,2.227l61.532-28.465Z" transform="translate(-7.516 -95.649)" fill="#1a2e48"/>
            <g id="Group_118036" data-name="Group 118036" transform="translate(71.904 50.779)" opacity="0.23">
              <g id="Group_118035" data-name="Group 118035">
                <g id="Group_118034" data-name="Group 118034" clip-path="url(#clip-path-17)">
                  <path id="Path_181607" data-name="Path 181607" d="M206.584,132.424c0,16.966-14.006,30.718-31.283,30.718s-31.282-13.752-31.282-30.718,14.006-30.718,31.282-30.718,31.283,13.752,31.283,30.718" transform="translate(-144.019 -101.706)" fill="#42e0e6"/>
                </g>
              </g>
            </g>
            <path id="Path_181608" data-name="Path 181608" d="M171.764,94.769c-19.225,0-34.809,15.3-34.809,34.182s15.585,34.181,34.809,34.181,34.809-15.3,34.809-34.181-15.585-34.182-34.809-34.182m0,63.342c-16.4,0-29.7-13.055-29.7-29.16s13.3-29.161,29.7-29.161,29.7,13.055,29.7,29.161-13.3,29.16-29.7,29.16" transform="translate(-68.577 -47.453)" fill="#1a2e48"/>
            <path id="Path_181609" data-name="Path 181609" d="M141.806,135.307a.234.234,0,0,1-.232-.2c-.1-.814-.176-1.639-.216-2.451a.233.233,0,0,1,.222-.245.219.219,0,0,1,.246.222c.039.8.111,1.612.213,2.415a.233.233,0,0,1-.2.261l-.029,0m.239-9.558a.237.237,0,0,1-.041,0,.234.234,0,0,1-.189-.272,31.483,31.483,0,0,1,1.878-6.427h0a32.532,32.532,0,0,1,30.276-20.039,32.98,32.98,0,0,1,17.532,5.01.234.234,0,0,1-.249.4,32.515,32.515,0,0,0-17.283-4.939,32.065,32.065,0,0,0-29.844,19.75h0a30.963,30.963,0,0,0-1.85,6.33.234.234,0,0,1-.23.193" transform="translate(-70.781 -49.575)" fill="#42e0e6"/>
          </g>
        </g>
        <g id="Group_118040" data-name="Group 118040" transform="translate(46.003 61.542)">
          <g id="Group_118039" data-name="Group 118039" clip-path="url(#clip-path-18)">
            <rect id="Rectangle_38007" data-name="Rectangle 38007" width="14.175" height="12.628" transform="translate(-5.004 9.074) rotate(-61.125)" fill="url(#linear-gradient-6)"/>
          </g>
        </g>
        <g id="Group_118042" data-name="Group 118042">
          <g id="Group_118041" data-name="Group 118041" clip-path="url(#clip-path)">
            <path id="Path_181611" data-name="Path 181611" d="M90.44,122.593l-.694,5.231a.746.746,0,0,0,0,.2c.058.41.363,1.806,1.772,1.407A6.628,6.628,0,0,1,94.779,129a.737.737,0,0,1,.507.852,31.8,31.8,0,0,1-1.337,4.761.735.735,0,0,1-.892.435,23.73,23.73,0,0,1-5.121-2.1.737.737,0,0,1-.359-.663c.055-1.321.21-5.335.08-6.46-.122-1.056-1.418-1.689-1.981-1.916a.725.725,0,0,1-.4-.4,1.911,1.911,0,0,1,1.286-2.785.738.738,0,0,0,.467-.955,1.914,1.914,0,0,1,1.073-2.646,2.7,2.7,0,0,1,3.222.776.737.737,0,0,0,.94.111.584.584,0,0,1,.664.022.726.726,0,0,0,1.028-.312,2.2,2.2,0,0,1,2.557-1.274c2.6.446,2.9,3.331,2.211,5.021s-3.481,1.047-4.883.195c-1.066-.648-2.449.031-3.051.394a.731.731,0,0,0-.346.531" transform="translate(-42.593 -58.287)" fill="#1a2e48"/>
          </g>
        </g>
        <g id="Group_118044" data-name="Group 118044" transform="translate(42.381 65.382)">
          <g id="Group_118043" data-name="Group 118043" clip-path="url(#clip-path-20)">
            <rect id="Rectangle_38009" data-name="Rectangle 38009" width="6.118" height="5.867" transform="translate(-2.512 3.176) rotate(-53.945)" fill="url(#linear-gradient-7)"/>
          </g>
        </g>
        <g id="Group_118046" data-name="Group 118046" transform="translate(20.998 111.721)">
          <g id="Group_118045" data-name="Group 118045" clip-path="url(#clip-path-21)">
            <rect id="Rectangle_38010" data-name="Rectangle 38010" width="9.522" height="8.972" transform="matrix(0.749, -0.663, 0.663, 0.749, -1.658, 1.468)" fill="url(#linear-gradient-8)"/>
          </g>
        </g>
        <g id="Group_118048" data-name="Group 118048" transform="translate(67.959 98.337)">
          <g id="Group_118047" data-name="Group 118047" clip-path="url(#clip-path-22)">
            <rect id="Rectangle_38011" data-name="Rectangle 38011" width="6.226" height="4.94" transform="translate(-1.441)" fill="url(#linear-gradient-9)"/>
          </g>
        </g>
        <g id="Group_118050" data-name="Group 118050">
          <g id="Group_118049" data-name="Group 118049" clip-path="url(#clip-path)">
            <path id="Path_181615" data-name="Path 181615" d="M20.726,243.85a.243.243,0,0,1-.077-.012c-2.475-.856-3.051-2.319-3.1-3.395a3.771,3.771,0,0,1,2.458-3.633l7.609-2.967a.234.234,0,0,1,.17.436l-7.609,2.967a3.3,3.3,0,0,0-2.16,3.176c.058,1.355,1,2.355,2.784,2.973a.234.234,0,0,1-.077.455" transform="translate(-8.786 -117.083)" fill="#0cc0c7"/>
            <path id="Path_181616" data-name="Path 181616" d="M42.35,232.077a.234.234,0,0,1-.085-.452l.987-.384a.234.234,0,0,1,.17.436l-.987.384a.231.231,0,0,1-.085.016" transform="translate(-21.089 -115.78)" fill="#0cc0c7"/>
            <path id="Path_181617" data-name="Path 181617" d="M480.66,343.608s.412,2.333.614,4.642a1.59,1.59,0,0,1-1.522,1.724c-3.075.128-9.653.377-12.013.272a.517.517,0,0,1-.455-.709,1.157,1.157,0,0,1,.593-.625l10.865-4.994Z" transform="translate(-233.963 -172.054)" fill="#1a2e48"/>
          </g>
        </g>
        <g id="Group_118052" data-name="Group 118052" transform="translate(243.501 169.753)">
          <g id="Group_118051" data-name="Group 118051" clip-path="url(#clip-path-24)">
            <rect id="Rectangle_38013" data-name="Rectangle 38013" width="3.534" height="4.107" fill="url(#linear-gradient-10)"/>
          </g>
        </g>
        <g id="Group_118054" data-name="Group 118054">
          <g id="Group_118053" data-name="Group 118053" clip-path="url(#clip-path)">
            <path id="Path_181619" data-name="Path 181619" d="M491.225,235.8c.143.728.767,36.361-3.041,52.329a.541.541,0,0,0,.318.63,9.436,9.436,0,0,0,3.1.631.933.933,0,0,0,.926-.67c1.089-3.7,6.306-22.267,6.986-40,.76-19.814,0-.675,0-.675L499.07,235.8Z" transform="translate(-244.439 -118.069)" fill="#244063"/>
            <path id="Path_181620" data-name="Path 181620" d="M514.774,346.045a16.793,16.793,0,0,1,1.291,4.307.971.971,0,0,1-.854,1.162c-1.016.1-2.579.228-3.83.22a.967.967,0,0,1-.958-1.079,8.162,8.162,0,0,1,1.905-4.477Z" transform="translate(-255.578 -173.274)" fill="#1a2e48"/>
          </g>
        </g>
        <g id="Group_118056" data-name="Group 118056" transform="translate(256.72 169.018)">
          <g id="Group_118055" data-name="Group 118055" clip-path="url(#clip-path-26)">
            <rect id="Rectangle_38015" data-name="Rectangle 38015" width="3.052" height="4.953" transform="translate(0)" fill="url(#linear-gradient-11)"/>
          </g>
        </g>
        <g id="Group_118058" data-name="Group 118058">
          <g id="Group_118057" data-name="Group 118057" clip-path="url(#clip-path)">
            <path id="Path_181622" data-name="Path 181622" d="M509.05,236.01c3.115,18.8-.675,46.465-1.954,51.88a.844.844,0,0,1-.682.641,5.672,5.672,0,0,1-2.436-.1.774.774,0,0,1-.556-.713c-.172-4.378.137-31.253-2.766-41.874a2.415,2.415,0,0,0-.931-1.331l-5.634-4-.432-6.474Z" transform="translate(-247.188 -117.189)" fill="#2f5380"/>
            <path id="Path_181623" data-name="Path 181623" d="M471.212,165.109a87.748,87.748,0,0,1,19.636,2.451c2.782,16.236.486,34.965.486,34.965-7.227,1.9-15.38-1.159-15.38-1.159-1.2-6.787-6.806-25.886-6.806-25.886a30.763,30.763,0,0,1-11.413-3.622,20.015,20.015,0,0,0,3.957-8.275,31.317,31.317,0,0,0,9.52,1.526" transform="translate(-229.201 -81.91)" fill="#f9b131"/>
          </g>
        </g>
        <g id="Group_118060" data-name="Group 118060" transform="translate(214.437 68.741)">
          <g id="Group_118059" data-name="Group 118059" clip-path="url(#clip-path-28)">
            <rect id="Rectangle_38017" data-name="Rectangle 38017" width="18.055" height="21.207" transform="translate(0)" fill="url(#linear-gradient-12)"/>
          </g>
        </g>
        <g id="Group_118062" data-name="Group 118062" transform="translate(210.457 59.759)">
          <g id="Group_118061" data-name="Group 118061" clip-path="url(#clip-path-29)">
            <rect id="Rectangle_38018" data-name="Rectangle 38018" width="10.34" height="12.478" transform="translate(-4.271 1.739) rotate(-23.726)" fill="url(#linear-gradient-13)"/>
          </g>
        </g>
        <g id="Group_118064" data-name="Group 118064" transform="translate(212.868 64.053)">
          <g id="Group_118063" data-name="Group 118063" clip-path="url(#clip-path-30)">
            <rect id="Rectangle_38019" data-name="Rectangle 38019" width="4.622" height="5.121" transform="translate(-2.165 1.3) rotate(-33.04)" fill="url(#linear-gradient-14)"/>
          </g>
        </g>
        <g id="Group_118066" data-name="Group 118066">
          <g id="Group_118065" data-name="Group 118065" clip-path="url(#clip-path)">
            <path id="Path_181627" data-name="Path 181627" d="M516.885,180.589l3.581-9.039s8.719,5.925,10.154,13.436a20.645,20.645,0,0,0-7.58,2.032c-.645-3.547-6.154-6.429-6.154-6.429" transform="translate(-258.818 -85.9)" fill="#f9b131"/>
          </g>
        </g>
        <g id="Group_118068" data-name="Group 118068" transform="translate(249.151 99.087)">
          <g id="Group_118067" data-name="Group 118067" clip-path="url(#clip-path-32)">
            <rect id="Rectangle_38021" data-name="Rectangle 38021" width="22.849" height="17.692" transform="translate(0 0)" fill="url(#linear-gradient-15)"/>
          </g>
        </g>
        <g id="Group_118070" data-name="Group 118070">
          <g id="Group_118069" data-name="Group 118069" clip-path="url(#clip-path)">
            <path id="Path_181629" data-name="Path 181629" d="M479.45,200.443l-5.343-18.659a.543.543,0,0,0-.46-.392c-.968-.113-3.773-.43-7.012-.7a79.531,79.531,0,0,0-11.139-.37.546.546,0,0,0-.446.785c1.54,3.115,7.872,15.785,11.043,19.934a.547.547,0,0,0,.44.217l12.4-.116a.546.546,0,0,0,.52-.7" transform="translate(-227.827 -90.248)" fill="#244063"/>
            <path id="Path_181630" data-name="Path 181630" d="M472.991,177.252l-3.874-.646a.278.278,0,0,0-.31.361l.383,1.162a.278.278,0,0,0,.227.189l3.728.5a.278.278,0,0,0,.308-.339l-.237-1.015a.279.279,0,0,0-.225-.211" transform="translate(-234.737 -88.429)" fill="#1a2e48"/>
            <path id="Path_181631" data-name="Path 181631" d="M474.08,181.7l-.319-1.662a.384.384,0,0,0-.339-.31l-7.824-.794a.384.384,0,0,0-.412.472l.5,2.071a.384.384,0,0,0,.354.294l7.645.385a.384.384,0,0,0,.4-.456" transform="translate(-232.926 -89.594)" fill="#1a2e48"/>
          </g>
        </g>
        <g id="Group_118072" data-name="Group 118072" transform="translate(243.729 99.325)">
          <g id="Group_118071" data-name="Group 118071" clip-path="url(#clip-path-34)">
            <rect id="Rectangle_38023" data-name="Rectangle 38023" width="7.347" height="6.54" fill="url(#linear-gradient-16)"/>
          </g>
        </g>
        <g id="Group_118074" data-name="Group 118074" transform="translate(245.421 75.62)">
          <g id="Group_118073" data-name="Group 118073" clip-path="url(#clip-path-35)">
            <rect id="Rectangle_38024" data-name="Rectangle 38024" width="11.6" height="12.741" transform="translate(-2.761 0.767) rotate(-15.524)" fill="url(#linear-gradient-17)"/>
          </g>
        </g>
        <g id="Group_118076" data-name="Group 118076" transform="translate(242.124 67.665)">
          <g id="Group_118075" data-name="Group 118075" clip-path="url(#clip-path-36)">
            <rect id="Rectangle_38025" data-name="Rectangle 38025" width="15.065" height="15.14" transform="translate(-5.316 3.01) rotate(-31.38)" fill="url(#linear-gradient-18)"/>
          </g>
        </g>
        <g id="Group_118078" data-name="Group 118078">
          <g id="Group_118077" data-name="Group 118077" clip-path="url(#clip-path)">
            <path id="Path_181635" data-name="Path 181635" d="M494.038,136.7a.253.253,0,0,1-.111-.37,6.61,6.61,0,0,0,.907-1.927s.587-.375-1.492-.873-5.18-1.27-5.831-3.039c-.635-1.725,1.035-6.064,3.7-2.607a.253.253,0,0,0,.4,0,2.609,2.609,0,0,1,3.178-1.032,2.394,2.394,0,0,1,1.639,2.313.251.251,0,0,0,.3.258,2.919,2.919,0,0,1,3.408,1.589c.7,1.529.244,2.394-.168,2.817a.252.252,0,0,0,.109.419,1.518,1.518,0,0,1,1.07,1.732c-.088,1.605-1.883,1.463-2.393,1.39a.251.251,0,0,0-.224.079c-.439.485-2.413,2.543-4.548,2.791a.255.255,0,0,1-.268-.337l.924-2.687a.254.254,0,0,0-.137-.315Z" transform="translate(-244.043 -63.385)" fill="#1a2e48"/>
          </g>
        </g>
        <g id="Group_118080" data-name="Group 118080" transform="translate(248.904 72.91)">
          <g id="Group_118079" data-name="Group 118079" clip-path="url(#clip-path-38)">
            <rect id="Rectangle_38027" data-name="Rectangle 38027" width="4.179" height="3.879" transform="translate(-1.103 0.673) rotate(-31.38)" fill="url(#linear-gradient-19)"/>
          </g>
        </g>
        <g id="Group_118106" data-name="Group 118106">
          <g id="Group_118105" data-name="Group 118105" clip-path="url(#clip-path)">
            <path id="Path_181637" data-name="Path 181637" d="M209.369,71.888l10.1.688a.508.508,0,0,0,.391-.877l-9.688-7.174Z" transform="translate(-104.837 -32.31)" fill="#0cc0c7"/>
            <path id="Path_181638" data-name="Path 181638" d="M91.446,14.164l56.9-.348a2.239,2.239,0,0,1,2.351,2.145l-.24,28.646a2.248,2.248,0,0,1-2.405,2.111L91.768,45.177a2.235,2.235,0,0,1-2.265-2.1L89.127,16.32a2.234,2.234,0,0,1,2.319-2.156" transform="translate(-44.628 -6.918)" fill="#0cc0c7"/>
            <g id="Group_118083" data-name="Group 118083" transform="translate(46.408 8.694)" opacity="0.14">
              <g id="Group_118082" data-name="Group 118082">
                <g id="Group_118081" data-name="Group 118081" clip-path="url(#clip-path-40)">
                  <path id="Path_181639" data-name="Path 181639" d="M95.123,17.717l53.278-.3a2.043,2.043,0,0,1,2.2,1.874l-.224,25.029c-.009,1.043.883,2.511-.343,2.48l-54.61-1.983a2.036,2.036,0,0,1-2.12-1.835L92.951,19.6a2.036,2.036,0,0,1,2.172-1.884" transform="translate(-92.951 -17.413)" fill="#fff"/>
                </g>
              </g>
            </g>
            <g id="Group_118086" data-name="Group 118086" transform="translate(46.39 8.622)" opacity="0.77">
              <g id="Group_118085" data-name="Group 118085">
                <g id="Group_118084" data-name="Group 118084" clip-path="url(#clip-path-41)">
                  <path id="Path_181640" data-name="Path 181640" d="M150.017,46.724l-56.3-1.542a.423.423,0,0,1-.429-.4l-.376-26.757a.377.377,0,0,1,.127-.288.453.453,0,0,1,.314-.121l56.9-.348a.461.461,0,0,1,.317.118.376.376,0,0,1,.129.289l-.24,28.645a.425.425,0,0,1-.441.4M93.745,44.77l56.279,1.541.221-28.637-56.886.357Z" transform="translate(-92.916 -17.269)" fill="#e8feff"/>
                </g>
              </g>
            </g>
            <g id="Group_118089" data-name="Group 118089" transform="translate(50.1 13.637)" opacity="0.77">
              <g id="Group_118088" data-name="Group 118088">
                <g id="Group_118087" data-name="Group 118087" clip-path="url(#clip-path-42)">
                  <path id="Path_181641" data-name="Path 181641" d="M100.345,29.149c0,1.014.59,1.835,1.319,1.835h48.393c.728,0,1.318-.822,1.318-1.835s-.59-1.835-1.318-1.835H101.664c-.728,0-1.319.822-1.319,1.835" transform="translate(-100.345 -27.314)" fill="#e8feff"/>
                </g>
              </g>
            </g>
            <g id="Group_118092" data-name="Group 118092" transform="translate(50.963 20.437)" opacity="0.77">
              <g id="Group_118091" data-name="Group 118091">
                <g id="Group_118090" data-name="Group 118090" clip-path="url(#clip-path-43)">
                  <path id="Path_181642" data-name="Path 181642" d="M103.861,40.933h45.37c.987,0,1.787.493,1.787,1.1s-.8,1.1-1.787,1.1h-45.37c-.987,0-1.787-.493-1.787-1.1s.8-1.1,1.787-1.1" transform="translate(-102.074 -40.933)" fill="#e8feff"/>
                </g>
              </g>
            </g>
            <g id="Group_118095" data-name="Group 118095" transform="translate(50.963 24.773)" opacity="0.77">
              <g id="Group_118094" data-name="Group 118094">
                <g id="Group_118093" data-name="Group 118093" clip-path="url(#clip-path-44)">
                  <path id="Path_181643" data-name="Path 181643" d="M102.074,51.4c0,.607.8,1.1,1.784,1.1h45.377c.985,0,1.784-.492,1.784-1.1v-.679c0-.617-.825-1.113-1.827-1.1l-45.377.68c-.969.014-1.741.5-1.741,1.1" transform="translate(-102.074 -49.618)" fill="#e8feff"/>
                </g>
              </g>
            </g>
            <g id="Group_118098" data-name="Group 118098" transform="translate(51.142 30.015)" opacity="0.77">
              <g id="Group_118097" data-name="Group 118097">
                <g id="Group_118096" data-name="Group 118096" clip-path="url(#clip-path-43)">
                  <path id="Path_181644" data-name="Path 181644" d="M104.219,60.116h45.37c.987,0,1.787.493,1.787,1.1s-.8,1.1-1.787,1.1h-45.37c-.987,0-1.787-.493-1.787-1.1s.8-1.1,1.787-1.1" transform="translate(-102.432 -60.116)" fill="#e8feff"/>
                </g>
              </g>
            </g>
            <path id="Path_181645" data-name="Path 181645" d="M430.972,24.281A14.811,14.811,0,1,1,416.161,9.47a14.812,14.812,0,0,1,14.811,14.811" transform="translate(-200.967 -4.742)" fill="#cf8d19"/>
            <path id="Path_181646" data-name="Path 181646" d="M430.974,24.776a14.319,14.319,0,1,1-14.319-14.319,14.319,14.319,0,0,1,14.319,14.319" transform="translate(-201.461 -5.236)" fill="#f9b131"/>
            <g id="Group_118101" data-name="Group 118101" transform="translate(203.059 5.993)" opacity="0.78">
              <g id="Group_118100" data-name="Group 118100">
                <g id="Group_118099" data-name="Group 118099" clip-path="url(#clip-path-46)">
                  <path id="Path_181647" data-name="Path 181647" d="M407.037,19.931a.32.32,0,0,1-.148-.035.328.328,0,0,1-.145-.441A13.49,13.49,0,0,1,418.844,12a13.626,13.626,0,0,1,2.443.22.328.328,0,0,1-.118.646,13.01,13.01,0,0,0-2.326-.209,12.835,12.835,0,0,0-11.514,7.09.328.328,0,0,1-.294.18" transform="translate(-406.709 -12.004)" fill="#fff"/>
                </g>
              </g>
            </g>
            <g id="Group_118104" data-name="Group 118104" transform="translate(203.387 7.733)" opacity="0.78">
              <g id="Group_118103" data-name="Group 118103">
                <g id="Group_118102" data-name="Group 118102" clip-path="url(#clip-path-47)">
                  <path id="Path_181648" data-name="Path 181648" d="M431.605,27.607a12.119,12.119,0,1,1-12.119-12.119,12.119,12.119,0,0,1,12.119,12.119" transform="translate(-407.367 -15.488)" fill="#ffd48a"/>
                </g>
              </g>
            </g>
            <path id="Path_181649" data-name="Path 181649" d="M425.1,40.168V38.85a10.755,10.755,0,0,1-3.7-.8.763.763,0,0,1-.422-.9l.336-1.228a.768.768,0,0,1,1.044-.5,8.925,8.925,0,0,0,3.415.719c1.324,0,2.311-.449,2.311-1.369,0-.83-.763-1.324-2.6-1.818-2.625-.718-4.509-1.862-4.509-4.173,0-2.087,1.526-3.68,4.173-4.106V23.35a.768.768,0,0,1,.768-.768h.774a.768.768,0,0,1,.768.768v1.184a9.8,9.8,0,0,1,2.932.526.765.765,0,0,1,.478.923l-.308,1.136a.766.766,0,0,1-1.012.517,8,8,0,0,0-2.875-.522c-1.571,0-2.02.651-2.02,1.234,0,.718.943,1.212,2.985,1.84,2.917.875,4.129,2.087,4.129,4.263,0,2-1.481,3.792-4.353,4.241v1.475a.769.769,0,0,1-.768.768h-.775a.768.768,0,0,1-.768-.768" transform="translate(-210.781 -11.307)" fill="#cf8d19"/>
          </g>
        </g>
      </g>
    </g>
  </g>
</svg>
