<svg xmlns="http://www.w3.org/2000/svg" width="400" height="220" viewBox="0 0 400 220">
  <g id="t5-f3" transform="translate(-3196 4774)">
    <rect id="Rectangle_38465" data-name="Rectangle 38465" width="400" height="220" rx="20" transform="translate(3196 -4774)" fill="#42e0e6"/>
    <path id="Rectangle_38465_-_Outline" data-name="Rectangle 38465 - Outline" d="M20,3A17,17,0,0,0,3,20V200a17,17,0,0,0,17,17H380a17,17,0,0,0,17-17V20A17,17,0,0,0,380,3H20m0-3H380a20,20,0,0,1,20,20V200a20,20,0,0,1-20,20H20A20,20,0,0,1,0,200V20A20,20,0,0,1,20,0Z" transform="translate(3196 -4774)" fill="#66f9ff"/>
    <path id="Path_184783" data-name="Path 184783" d="M44.723,14.176V19H41.295V4.781h5.674a6.608,6.608,0,0,1,2.886.6A4.526,4.526,0,0,1,51.8,7.091a4.667,4.667,0,0,1,.688,2.515A4.114,4.114,0,0,1,51,12.931a6.179,6.179,0,0,1-4.087,1.245Zm0-2.646h2.246a2.118,2.118,0,0,0,1.519-.5,1.85,1.85,0,0,0,.522-1.406,2.287,2.287,0,0,0-.537-1.592,1.9,1.9,0,0,0-1.465-.605H44.723Zm15.732,6.328A3.393,3.393,0,0,1,57.633,19.2,3.328,3.328,0,0,1,55,18.185a4.251,4.251,0,0,1-.894-2.905V8.434H57.4V15.3a1.183,1.183,0,0,0,1.318,1.357,1.72,1.72,0,0,0,1.611-.811V8.434h3.311V19H60.553ZM59.283,4H62.76L60.045,7.066l-2.686,0ZM75.25,13.8A6.44,6.44,0,0,1,74.176,17.8a3.6,3.6,0,0,1-3.027,1.4,3.122,3.122,0,0,1-2.6-1.279L68.414,19H65.465V4h3.291V9.283a3.013,3.013,0,0,1,2.373-1.045,3.6,3.6,0,0,1,3.047,1.416,6.473,6.473,0,0,1,1.074,3.984Zm-3.3-.21a4.3,4.3,0,0,0-.405-2.169,1.366,1.366,0,0,0-1.245-.648,1.576,1.576,0,0,0-1.543.848v4.192a1.585,1.585,0,0,0,1.563.838,1.4,1.4,0,0,0,1.475-1.131A8.121,8.121,0,0,0,71.949,13.595ZM80.172,19h-3.3V4h3.3Zm5.5,0h-3.3V8.434h3.3Zm-3.5-13.3a1.482,1.482,0,0,1,.508-1.159,2.149,2.149,0,0,1,2.637,0A1.482,1.482,0,0,1,85.826,5.7a1.482,1.482,0,0,1-.508,1.159,2.149,2.149,0,0,1-2.637,0A1.482,1.482,0,0,1,82.174,5.7Zm9.99,10.957a1.464,1.464,0,0,0,1.074-.376,1.379,1.379,0,0,0,.371-1.05H96.7a3.653,3.653,0,0,1-1.245,2.852A4.631,4.631,0,0,1,92.242,19.2a4.689,4.689,0,0,1-3.633-1.445,5.7,5.7,0,0,1-1.328-4v-.137a6.436,6.436,0,0,1,.591-2.827,4.3,4.3,0,0,1,1.7-1.885,5.081,5.081,0,0,1,2.637-.659,4.573,4.573,0,0,1,3.271,1.143,4.053,4.053,0,0,1,1.211,3.1H93.609a1.806,1.806,0,0,0-.4-1.26,1.382,1.382,0,0,0-1.074-.439q-1.279,0-1.494,1.631a11.508,11.508,0,0,0-.068,1.426,4.52,4.52,0,0,0,.381,2.207A1.319,1.319,0,0,0,92.164,16.656ZM104.039,19a3.716,3.716,0,0,1-.312-.947,3.06,3.06,0,0,1-2.539,1.143,3.749,3.749,0,0,1-2.539-.9A2.875,2.875,0,0,1,97.6,16.021a2.955,2.955,0,0,1,1.27-2.6,6.468,6.468,0,0,1,3.691-.879h1.016v-.559q0-1.462-1.26-1.462a1.03,1.03,0,0,0-1.172,1.158H97.857a2.95,2.95,0,0,1,1.3-2.487,5.479,5.479,0,0,1,3.325-.956,4.8,4.8,0,0,1,3.193.986,3.429,3.429,0,0,1,1.2,2.705v4.678a4.79,4.79,0,0,0,.449,2.227V19Zm-2.061-2.148A1.836,1.836,0,0,0,103,16.588a1.653,1.653,0,0,0,.581-.6V14.3h-.957q-1.719,0-1.719,1.543a.942.942,0,0,0,.3.728A1.1,1.1,0,0,0,101.979,16.852Z" transform="translate(3322 -4603)" fill="#12263f"/>
    <rect id="Rectangle_38467" data-name="Rectangle 38467" width="165" height="1.5" transform="translate(3313.5 -4626)" fill="#fff"/>
    <g id="Group_118370" data-name="Group 118370" transform="translate(3351 -4737)">
      <path id="Path_175079" data-name="Path 175079" d="M20.273,227V258.64H17.637v5.273H15v2.637H99.727v-2.637H97.09V258.64H94.453V227H91.816V258.64H87.861v2.637h6.592v2.637H78.633v-2.637h6.592V258.64H81.27V227H78.633V258.64H76v5.273H67.91V258.64H65.273V227H62.637V258.64H58.682v2.637h6.592v2.637H49.453v-2.637h6.592V258.64H52.09V227H49.453V258.64H46.816v5.273H38.73V258.64H36.094V227H33.457V258.64H29.5v2.637h6.592v2.637H20.273v-2.637h6.592V258.64H22.91V227Z" transform="translate(-12.363 -187.097)" fill="#12263f"/>
      <path id="Path_175080" data-name="Path 175080" d="M2.637,469.637H43.682V467H0v7.91H76.817v-2.637H2.637Z" transform="translate(0 -384.91)" fill="#12263f"/>
      <path id="Path_175081" data-name="Path 175081" d="M263.5,469.637h41.045v2.637h-7.91v2.637h10.547V467H263.5Z" transform="translate(-217.182 -384.91)" fill="#12263f"/>
      <path id="Path_175082" data-name="Path 175082" d="M47.925,0H42.076L22.49,8.975l1.1,2.4L42.651,2.637h4.7L82.64,18.808H7.36L21.191,12.47l-1.1-2.4L0,19.281V31.992H5.273v5.273H26.367V31.992h8.086v5.273H55.547V31.992h8.086v5.273H84.727V31.992H90V19.281ZM23.73,34.629H7.91V31.992H23.73Zm58.36,0H66.27V31.992H82.09ZM46.318,29.355v2.637H52.91v2.637H37.09V31.992h6.592V29.355H2.637v-7.91H87.363v7.91Z" transform="translate(0)" fill="#12263f"/>
      <path id="Path_175083" data-name="Path 175083" d="M233.5,137h2.637v2.637H233.5Z" transform="translate(-192.455 -112.917)" fill="#12263f"/>
      <path id="Path_175084" data-name="Path 175084" d="M214.789,46.668a4.843,4.843,0,0,0,4.651-3.516h4.138V40.516H219.44a4.835,4.835,0,0,0-9.3,0H206v2.637h4.138A4.843,4.843,0,0,0,214.789,46.668Zm0-7.031a2.2,2.2,0,1,1-2.2,2.2A2.2,2.2,0,0,1,214.789,39.637Z" transform="translate(-169.789 -30.496)" fill="#12263f"/>
      <path id="Path_175085" data-name="Path 175085" d="M263.5,137h2.637v2.637H263.5Z" transform="translate(-217.182 -112.917)" fill="#12263f"/>
    </g>
  </g>
</svg>
