<svg id="t5-i13" xmlns="http://www.w3.org/2000/svg" xmlns:xlink="http://www.w3.org/1999/xlink" width="1027.372" height="289.758" viewBox="0 0 1027.372 289.758">
  <defs>
    <clipPath id="clip-path">
      <rect id="Rectangle_38275" data-name="Rectangle 38275" width="1027.372" height="289.758" fill="none"/>
    </clipPath>
  </defs>
  <g id="Group_118261" data-name="Group 118261" clip-path="url(#clip-path)">
    <path id="Path_183634" data-name="Path 183634" d="M151.8,188.679H9.61A9.622,9.622,0,0,1,0,179.068V117.831a9.622,9.622,0,0,1,9.61-9.611H156.8a4.648,4.648,0,0,1,3.525,1.2c1.323,1.375,1.238,3.6,1.141,6.165-.028.716-.057,1.469-.057,2.246v61.237a9.623,9.623,0,0,1-9.611,9.611M9.61,109.97a7.869,7.869,0,0,0-7.86,7.861v61.237a7.869,7.869,0,0,0,7.86,7.861H151.8a7.869,7.869,0,0,0,7.861-7.861V117.831c0-.8.029-1.575.057-2.312.083-2.172.155-4.047-.652-4.885a3.057,3.057,0,0,0-2.264-.664Z" fill="#c4fdff"/>
    <path id="Path_183635" data-name="Path 183635" d="M158.225,180.661H16.04A8.736,8.736,0,0,1,7.3,171.925V110.688a8.735,8.735,0,0,1,8.736-8.735H158.225a8.735,8.735,0,0,1,8.736,8.735v61.237a8.736,8.736,0,0,1-8.736,8.736" fill="#c4fdff"/>
    <path id="Path_183636" data-name="Path 183636" d="M158.225,182.161H16.039A10.247,10.247,0,0,1,5.8,171.925V110.688a10.247,10.247,0,0,1,10.235-10.235H158.225a10.248,10.248,0,0,1,10.236,10.235v61.237a10.248,10.248,0,0,1-10.236,10.236M16.039,103.453A7.244,7.244,0,0,0,8.8,110.688v61.237a7.244,7.244,0,0,0,7.235,7.236H158.225a7.244,7.244,0,0,0,7.236-7.236V110.688a7.244,7.244,0,0,0-7.236-7.235Z" fill="#42e0e6"/>
    <path id="Path_183637" data-name="Path 183637" d="M46.779,132.953H42.1l-.98,2.815H38.933L43.5,123.682h1.885l4.572,12.086H47.765Zm-4.094-1.693h3.5l-1.752-5.014Z" fill="#12263f"/>
    <rect id="Rectangle_38268" data-name="Rectangle 38268" width="2.018" height="12.75" transform="translate(51.43 123.018)" fill="#12263f"/>
    <path id="Path_183638" data-name="Path 183638" d="M57.708,126.786l.059.938a3.23,3.23,0,0,1,2.589-1.1A2.479,2.479,0,0,1,62.821,128a3.189,3.189,0,0,1,2.756-1.378,2.8,2.8,0,0,1,2.213.821,3.618,3.618,0,0,1,.742,2.424v5.9H66.517v-5.843a1.78,1.78,0,0,0-.375-1.254,1.632,1.632,0,0,0-1.237-.4,1.683,1.683,0,0,0-1.125.37,1.954,1.954,0,0,0-.609.967l.008,6.159H61.161v-5.91a1.438,1.438,0,0,0-1.617-1.586,1.776,1.776,0,0,0-1.719.989v6.507H55.808v-8.981Z" fill="#12263f"/>
    <path id="Path_183639" data-name="Path 183639" d="M76.142,135.768a3.083,3.083,0,0,1-.233-.838,3.14,3.14,0,0,1-2.357,1,3.178,3.178,0,0,1-2.209-.771,2.475,2.475,0,0,1-.856-1.91,2.55,2.55,0,0,1,1.067-2.2,5.176,5.176,0,0,1,3.051-.767h1.238v-.59a1.572,1.572,0,0,0-.391-1.116,1.543,1.543,0,0,0-1.187-.419,1.775,1.775,0,0,0-1.129.344,1.066,1.066,0,0,0-.44.876H70.679a2.239,2.239,0,0,1,.49-1.382,3.252,3.252,0,0,1,1.332-1.009,4.686,4.686,0,0,1,1.881-.365,3.763,3.763,0,0,1,2.514.793,2.824,2.824,0,0,1,.963,2.228v4.051a4.574,4.574,0,0,0,.341,1.934v.141Zm-2.217-1.453a2.305,2.305,0,0,0,1.125-.29,1.942,1.942,0,0,0,.793-.78v-1.694H74.755a2.963,2.963,0,0,0-1.685.391,1.262,1.262,0,0,0-.565,1.1,1.176,1.176,0,0,0,.387.926,1.489,1.489,0,0,0,1.033.344" fill="#12263f"/>
    <path id="Path_183640" data-name="Path 183640" d="M83.831,134.323a1.821,1.821,0,0,0,1.254-.44,1.506,1.506,0,0,0,.531-1.087h1.9a2.967,2.967,0,0,1-.524,1.564,3.426,3.426,0,0,1-1.328,1.15,3.947,3.947,0,0,1-1.809.423,3.829,3.829,0,0,1-2.988-1.22,4.838,4.838,0,0,1-1.1-3.369v-.209a4.763,4.763,0,0,1,1.1-3.283,3.8,3.8,0,0,1,2.989-1.232,3.691,3.691,0,0,1,2.609.933,3.354,3.354,0,0,1,1.059,2.454h-1.9a1.858,1.858,0,0,0-.527-1.271,1.7,1.7,0,0,0-1.258-.5,1.775,1.775,0,0,0-1.51.71,3.62,3.62,0,0,0-.541,2.154v.324a3.675,3.675,0,0,0,.528,2.179,1.772,1.772,0,0,0,1.523.718" fill="#12263f"/>
    <path id="Path_183641" data-name="Path 183641" d="M93.165,135.934a4.174,4.174,0,0,1-3.109-1.208,4.384,4.384,0,0,1-1.19-3.216v-.25a5.387,5.387,0,0,1,.518-2.4,3.954,3.954,0,0,1,1.457-1.647,3.841,3.841,0,0,1,2.092-.59,3.52,3.52,0,0,1,2.834,1.172,4.938,4.938,0,0,1,1,3.311v.814H90.9a2.692,2.692,0,0,0,.742,1.759,2.233,2.233,0,0,0,1.64.648,2.735,2.735,0,0,0,2.258-1.12l1.086,1.037a3.646,3.646,0,0,1-1.439,1.249,4.515,4.515,0,0,1-2.022.444m-.24-7.7a1.7,1.7,0,0,0-1.342.582,3.015,3.015,0,0,0-.65,1.619h3.844v-.149a2.455,2.455,0,0,0-.541-1.532,1.687,1.687,0,0,0-1.311-.52" fill="#12263f"/>
    <path id="Path_183642" data-name="Path 183642" d="M100.374,126.786l.059,1.038a3.227,3.227,0,0,1,2.615-1.2q2.8,0,2.855,3.212v5.935h-2.017v-5.818a1.856,1.856,0,0,0-.369-1.267,1.558,1.558,0,0,0-1.207-.411,1.945,1.945,0,0,0-1.819,1.105v6.391H98.474v-8.981Z" fill="#12263f"/>
    <path id="Path_183643" data-name="Path 183643" d="M112.083,135.934a4.174,4.174,0,0,1-3.109-1.208,4.384,4.384,0,0,1-1.19-3.216v-.25a5.387,5.387,0,0,1,.518-2.4,3.954,3.954,0,0,1,1.457-1.647,3.841,3.841,0,0,1,2.092-.59,3.52,3.52,0,0,1,2.834,1.172,4.938,4.938,0,0,1,1,3.311v.814h-5.869a2.692,2.692,0,0,0,.742,1.759,2.233,2.233,0,0,0,1.64.648,2.735,2.735,0,0,0,2.258-1.12l1.086,1.037a3.646,3.646,0,0,1-1.439,1.249,4.515,4.515,0,0,1-2.022.444m-.24-7.7a1.7,1.7,0,0,0-1.342.582,3.015,3.015,0,0,0-.65,1.619h3.844v-.149a2.455,2.455,0,0,0-.541-1.532,1.687,1.687,0,0,0-1.311-.52" fill="#12263f"/>
    <path id="Path_183644" data-name="Path 183644" d="M122.454,133.327a.914.914,0,0,0-.443-.821,4.683,4.683,0,0,0-1.475-.5,7.633,7.633,0,0,1-1.719-.549,2.292,2.292,0,0,1-1.509-2.116,2.394,2.394,0,0,1,.978-1.943,3.877,3.877,0,0,1,2.49-.78,4.036,4.036,0,0,1,2.6.8,2.532,2.532,0,0,1,.992,2.067h-2.018a1.248,1.248,0,0,0-.431-.968,1.661,1.661,0,0,0-1.147-.385,1.793,1.793,0,0,0-1.082.306.973.973,0,0,0-.42.823.82.82,0,0,0,.391.722,5.393,5.393,0,0,0,1.576.519,7.474,7.474,0,0,1,1.865.622,2.639,2.639,0,0,1,1,.867,2.212,2.212,0,0,1,.328,1.229,2.342,2.342,0,0,1-1.005,1.963,4.275,4.275,0,0,1-2.631.751,4.636,4.636,0,0,1-1.967-.4,3.247,3.247,0,0,1-1.346-1.1,2.6,2.6,0,0,1-.48-1.5h1.959a1.42,1.42,0,0,0,.539,1.1,2.1,2.1,0,0,0,1.32.386,2.033,2.033,0,0,0,1.211-.3.939.939,0,0,0,.416-.793" fill="#12263f"/>
    <rect id="Rectangle_38269" data-name="Rectangle 38269" width="4.357" height="1.627" transform="translate(130.324 129.817)" fill="#12263f"/>
    <path id="Path_183645" data-name="Path 183645" d="M24.616,147.187l.059.938a3.23,3.23,0,0,1,2.589-1.1,2.481,2.481,0,0,1,2.465,1.378,3.186,3.186,0,0,1,2.756-1.378,2.805,2.805,0,0,1,2.213.821,3.623,3.623,0,0,1,.742,2.424v5.9H33.423v-5.843a1.78,1.78,0,0,0-.373-1.254,1.635,1.635,0,0,0-1.237-.4,1.683,1.683,0,0,0-1.125.37,1.94,1.94,0,0,0-.609.967l.008,6.159H28.069v-5.91a1.439,1.439,0,0,0-1.619-1.586,1.773,1.773,0,0,0-1.717.989v6.507H22.716v-8.981Z" fill="#12263f"/>
    <path id="Path_183646" data-name="Path 183646" d="M43.048,156.168a3.158,3.158,0,0,1-.233-.838,3.14,3.14,0,0,1-2.357,1,3.178,3.178,0,0,1-2.209-.771,2.479,2.479,0,0,1-.854-1.91,2.55,2.55,0,0,1,1.067-2.2,5.176,5.176,0,0,1,3.051-.767h1.236v-.59a1.572,1.572,0,0,0-.391-1.116,1.543,1.543,0,0,0-1.187-.419,1.779,1.779,0,0,0-1.129.344,1.066,1.066,0,0,0-.44.876H37.585a2.239,2.239,0,0,1,.49-1.382,3.265,3.265,0,0,1,1.332-1.009,4.7,4.7,0,0,1,1.881-.365,3.769,3.769,0,0,1,2.516.793,2.831,2.831,0,0,1,.963,2.228v4.051a4.608,4.608,0,0,0,.339,1.934v.141Zm-2.217-1.453a2.305,2.305,0,0,0,1.125-.29,1.942,1.942,0,0,0,.793-.78v-1.694H41.661a2.967,2.967,0,0,0-1.685.391,1.266,1.266,0,0,0-.565,1.1,1.176,1.176,0,0,0,.387.926,1.492,1.492,0,0,0,1.033.344" fill="#12263f"/>
    <path id="Path_183647" data-name="Path 183647" d="M49.575,145v2.183h1.586v1.494H49.575v5.013a1.1,1.1,0,0,0,.2.744.94.94,0,0,0,.725.228,3.094,3.094,0,0,0,.707-.084v1.561a4.943,4.943,0,0,1-1.328.191q-2.326,0-2.325-2.564v-5.089H46.081v-1.494h1.478V145Z" fill="#12263f"/>
    <path id="Path_183648" data-name="Path 183648" d="M56.827,156.334a4.174,4.174,0,0,1-3.109-1.208,4.382,4.382,0,0,1-1.19-3.216v-.25a5.382,5.382,0,0,1,.518-2.4A3.951,3.951,0,0,1,54.5,147.61a3.848,3.848,0,0,1,2.092-.589,3.519,3.519,0,0,1,2.834,1.171,4.939,4.939,0,0,1,1,3.311v.814H54.562a2.692,2.692,0,0,0,.742,1.759,2.229,2.229,0,0,0,1.64.648A2.735,2.735,0,0,0,59.2,153.6l1.086,1.037a3.63,3.63,0,0,1-1.439,1.249,4.515,4.515,0,0,1-2.022.444m-.24-7.695a1.7,1.7,0,0,0-1.342.582,3.012,3.012,0,0,0-.65,1.618h3.844v-.149a2.45,2.45,0,0,0-.541-1.531,1.684,1.684,0,0,0-1.311-.52" fill="#12263f"/>
    <path id="Path_183649" data-name="Path 183649" d="M66.866,149.029a5.133,5.133,0,0,0-.822-.065,1.849,1.849,0,0,0-1.867,1.061v6.144H62.159v-8.982h1.926l.051,1a2.271,2.271,0,0,1,2.025-1.17,1.9,1.9,0,0,1,.713.116Z" fill="#12263f"/>
    <path id="Path_183650" data-name="Path 183650" d="M68.313,144.846a1.086,1.086,0,0,1,.295-.777,1.3,1.3,0,0,1,1.69,0,1.072,1.072,0,0,1,.3.777,1.054,1.054,0,0,1-.3.766,1.326,1.326,0,0,1-1.69,0,1.068,1.068,0,0,1-.295-.766m2.143,11.322H68.438v-8.981h2.018Z" fill="#12263f"/>
    <path id="Path_183651" data-name="Path 183651" d="M78.189,156.168a3.158,3.158,0,0,1-.233-.838,3.14,3.14,0,0,1-2.357,1,3.178,3.178,0,0,1-2.209-.771,2.479,2.479,0,0,1-.854-1.91,2.55,2.55,0,0,1,1.067-2.2,5.176,5.176,0,0,1,3.051-.767H77.89v-.59a1.572,1.572,0,0,0-.391-1.116,1.543,1.543,0,0,0-1.187-.419,1.779,1.779,0,0,0-1.129.344,1.066,1.066,0,0,0-.44.876H72.726a2.239,2.239,0,0,1,.49-1.382,3.265,3.265,0,0,1,1.332-1.009,4.7,4.7,0,0,1,1.881-.365,3.769,3.769,0,0,1,2.516.793,2.831,2.831,0,0,1,.963,2.228v4.051a4.608,4.608,0,0,0,.339,1.934v.141Zm-2.217-1.453a2.305,2.305,0,0,0,1.125-.29,1.942,1.942,0,0,0,.793-.78v-1.694H76.8a2.967,2.967,0,0,0-1.685.391,1.266,1.266,0,0,0-.565,1.1,1.176,1.176,0,0,0,.387.926,1.492,1.492,0,0,0,1.033.344" fill="#12263f"/>
    <path id="Path_183652" data-name="Path 183652" d="M87.224,153.728a.914.914,0,0,0-.443-.821,4.683,4.683,0,0,0-1.475-.5,7.633,7.633,0,0,1-1.719-.549,2.292,2.292,0,0,1-1.509-2.116,2.394,2.394,0,0,1,.978-1.943,3.877,3.877,0,0,1,2.49-.78,4.036,4.036,0,0,1,2.6.8,2.532,2.532,0,0,1,.992,2.067H87.124a1.248,1.248,0,0,0-.431-.968,1.661,1.661,0,0,0-1.147-.385,1.793,1.793,0,0,0-1.082.306.973.973,0,0,0-.42.823.82.82,0,0,0,.391.722,5.393,5.393,0,0,0,1.576.519,7.475,7.475,0,0,1,1.865.622,2.639,2.639,0,0,1,1,.867,2.212,2.212,0,0,1,.328,1.229,2.342,2.342,0,0,1-1,1.963,4.274,4.274,0,0,1-2.631.751,4.636,4.636,0,0,1-1.967-.4,3.248,3.248,0,0,1-1.346-1.1,2.6,2.6,0,0,1-.48-1.5h1.959a1.42,1.42,0,0,0,.539,1.1,2.1,2.1,0,0,0,1.32.386,2.033,2.033,0,0,0,1.211-.3.939.939,0,0,0,.416-.793" fill="#12263f"/>
    <path id="Path_183653" data-name="Path 183653" d="M103.4,151.769a5.347,5.347,0,0,1-.946,3.324,3.289,3.289,0,0,1-4.906.271v4.257H95.533V147.187h1.859l.084.913a2.959,2.959,0,0,1,2.414-1.079,3.063,3.063,0,0,1,2.578,1.224,5.491,5.491,0,0,1,.934,3.4Zm-2.008-.175a3.762,3.762,0,0,0-.535-2.133,1.746,1.746,0,0,0-1.533-.789,1.856,1.856,0,0,0-1.776,1.022v3.984a1.874,1.874,0,0,0,1.793,1.046,1.735,1.735,0,0,0,1.506-.776,4.121,4.121,0,0,0,.545-2.354" fill="#12263f"/>
    <path id="Path_183654" data-name="Path 183654" d="M109.979,149.029a5.133,5.133,0,0,0-.822-.065,1.849,1.849,0,0,0-1.867,1.061v6.144h-2.018v-8.982H107.2l.051,1a2.271,2.271,0,0,1,2.025-1.17,1.9,1.9,0,0,1,.713.116Z" fill="#12263f"/>
    <path id="Path_183655" data-name="Path 183655" d="M111.427,144.846a1.082,1.082,0,0,1,.295-.777,1.3,1.3,0,0,1,1.689,0,1.072,1.072,0,0,1,.3.777,1.054,1.054,0,0,1-.3.766,1.325,1.325,0,0,1-1.689,0,1.064,1.064,0,0,1-.295-.766m2.142,11.322h-2.018v-8.981h2.018Z" fill="#12263f"/>
    <path id="Path_183656" data-name="Path 183656" d="M117.831,147.187l.059.938a3.23,3.23,0,0,1,2.589-1.1,2.479,2.479,0,0,1,2.465,1.378,3.189,3.189,0,0,1,2.756-1.378,2.8,2.8,0,0,1,2.213.821,3.618,3.618,0,0,1,.742,2.424v5.9H126.64v-5.843a1.78,1.78,0,0,0-.375-1.254,1.632,1.632,0,0,0-1.237-.4,1.683,1.683,0,0,0-1.125.37,1.953,1.953,0,0,0-.609.967l.008,6.159h-2.018v-5.91a1.438,1.438,0,0,0-1.617-1.586,1.776,1.776,0,0,0-1.719.989v6.507h-2.017v-8.981Z" fill="#12263f"/>
    <path id="Path_183657" data-name="Path 183657" d="M136.265,156.168a3.083,3.083,0,0,1-.233-.838,3.14,3.14,0,0,1-2.357,1,3.178,3.178,0,0,1-2.209-.771,2.475,2.475,0,0,1-.856-1.91,2.55,2.55,0,0,1,1.067-2.2,5.176,5.176,0,0,1,3.051-.767h1.238v-.59a1.572,1.572,0,0,0-.391-1.116,1.543,1.543,0,0,0-1.187-.419,1.775,1.775,0,0,0-1.129.344,1.066,1.066,0,0,0-.44.876H130.8a2.239,2.239,0,0,1,.49-1.382,3.252,3.252,0,0,1,1.332-1.009,4.686,4.686,0,0,1,1.881-.365,3.763,3.763,0,0,1,2.514.793,2.824,2.824,0,0,1,.963,2.228v4.051a4.574,4.574,0,0,0,.341,1.934v.141Zm-2.217-1.453a2.305,2.305,0,0,0,1.125-.29,1.942,1.942,0,0,0,.793-.78v-1.694h-1.088a2.963,2.963,0,0,0-1.685.391,1.262,1.262,0,0,0-.565,1.1,1.176,1.176,0,0,0,.387.926,1.489,1.489,0,0,0,1.033.344" fill="#12263f"/>
    <path id="Path_183658" data-name="Path 183658" d="M145.3,153.728a.912.912,0,0,0-.445-.821,4.668,4.668,0,0,0-1.473-.5,7.583,7.583,0,0,1-1.719-.549,2.289,2.289,0,0,1-1.509-2.116,2.394,2.394,0,0,1,.978-1.943,3.869,3.869,0,0,1,2.49-.78,4.027,4.027,0,0,1,2.6.8,2.526,2.526,0,0,1,.992,2.067H145.2a1.248,1.248,0,0,0-.431-.968,1.664,1.664,0,0,0-1.147-.385,1.8,1.8,0,0,0-1.084.306.971.971,0,0,0-.418.823.816.816,0,0,0,.391.722,5.393,5.393,0,0,0,1.576.519,7.485,7.485,0,0,1,1.863.622,2.632,2.632,0,0,1,1,.867,2.212,2.212,0,0,1,.328,1.229,2.34,2.34,0,0,1-1,1.963,4.283,4.283,0,0,1-2.631.751,4.629,4.629,0,0,1-1.967-.4,3.235,3.235,0,0,1-1.346-1.1,2.6,2.6,0,0,1-.48-1.5h1.959a1.42,1.42,0,0,0,.539,1.1,2.1,2.1,0,0,0,1.32.386,2.038,2.038,0,0,0,1.211-.3.939.939,0,0,0,.416-.793" fill="#12263f"/>
    <path id="Path_183659" data-name="Path 183659" d="M366.525,188.679H224.339a9.622,9.622,0,0,1-9.611-9.611V117.831a9.622,9.622,0,0,1,9.611-9.611H371.527a4.645,4.645,0,0,1,3.524,1.2c1.323,1.374,1.238,3.6,1.141,6.165-.028.716-.057,1.469-.057,2.246v61.237a9.622,9.622,0,0,1-9.61,9.611M224.339,109.97a7.869,7.869,0,0,0-7.861,7.861v61.237a7.869,7.869,0,0,0,7.861,7.861H366.525a7.869,7.869,0,0,0,7.86-7.861V117.831c0-.8.029-1.575.058-2.312.083-2.172.154-4.047-.653-4.885a3.054,3.054,0,0,0-2.263-.664Z" fill="#c4fdff"/>
    <path id="Path_183660" data-name="Path 183660" d="M372.953,180.661H230.768a8.736,8.736,0,0,1-8.736-8.736V110.688a8.735,8.735,0,0,1,8.736-8.735H372.953a8.736,8.736,0,0,1,8.736,8.735v61.237a8.736,8.736,0,0,1-8.736,8.736" fill="#c4fdff"/>
    <path id="Path_183661" data-name="Path 183661" d="M372.953,182.161H230.768a10.247,10.247,0,0,1-10.236-10.236V110.688a10.247,10.247,0,0,1,10.236-10.235H372.953a10.248,10.248,0,0,1,10.236,10.235v61.237a10.248,10.248,0,0,1-10.236,10.236M230.768,103.453a7.244,7.244,0,0,0-7.236,7.235v61.237a7.244,7.244,0,0,0,7.236,7.236H372.953a7.244,7.244,0,0,0,7.236-7.236V110.688a7.244,7.244,0,0,0-7.236-7.235Z" fill="#42e0e6"/>
    <path id="Path_183662" data-name="Path 183662" d="M286.459,131.833a4.37,4.37,0,0,1-1.428,3.018,4.873,4.873,0,0,1-3.312,1.083,4.716,4.716,0,0,1-2.544-.685,4.49,4.49,0,0,1-1.7-1.946,7.014,7.014,0,0,1-.622-2.931v-1.129a7.078,7.078,0,0,1,.606-3.013,4.558,4.558,0,0,1,1.738-2.009,4.857,4.857,0,0,1,2.619-.705,4.672,4.672,0,0,1,3.221,1.083,4.526,4.526,0,0,1,1.42,3.067h-2.092a2.981,2.981,0,0,0-.76-1.88,2.507,2.507,0,0,0-1.789-.577,2.453,2.453,0,0,0-2.1,1,5.009,5.009,0,0,0-.751,2.937v1.072a5.306,5.306,0,0,0,.7,2.991,2.33,2.33,0,0,0,2.055,1.03,2.714,2.714,0,0,0,1.859-.556,2.9,2.9,0,0,0,.789-1.851Z" fill="#12263f"/>
    <path id="Path_183663" data-name="Path 183663" d="M292.264,135.934a4.171,4.171,0,0,1-3.108-1.208,4.38,4.38,0,0,1-1.191-3.216v-.25a5.387,5.387,0,0,1,.519-2.4,3.952,3.952,0,0,1,1.456-1.647,3.845,3.845,0,0,1,2.092-.59,3.522,3.522,0,0,1,2.835,1.172,4.943,4.943,0,0,1,1,3.311v.814H290a2.688,2.688,0,0,0,.743,1.759,2.231,2.231,0,0,0,1.639.648,2.735,2.735,0,0,0,2.258-1.12l1.087,1.037a3.642,3.642,0,0,1-1.44,1.249,4.512,4.512,0,0,1-2.022.444m-.24-7.7a1.7,1.7,0,0,0-1.341.582,3.016,3.016,0,0,0-.651,1.619h3.844v-.149a2.461,2.461,0,0,0-.54-1.532,1.691,1.691,0,0,0-1.312-.52" fill="#12263f"/>
    <path id="Path_183664" data-name="Path 183664" d="M299.474,126.786l.058,1.038a3.228,3.228,0,0,1,2.615-1.2q2.8,0,2.855,3.212v5.935h-2.017v-5.818a1.856,1.856,0,0,0-.369-1.267,1.556,1.556,0,0,0-1.207-.411,1.945,1.945,0,0,0-1.819,1.105v6.391h-2.017v-8.981Z" fill="#12263f"/>
    <path id="Path_183665" data-name="Path 183665" d="M309.754,124.6v2.183h1.586v1.494h-1.586v5.013a1.106,1.106,0,0,0,.2.744.944.944,0,0,0,.726.228,3.086,3.086,0,0,0,.706-.084v1.561a4.943,4.943,0,0,1-1.328.191q-2.325,0-2.325-2.564v-5.089H306.26v-1.494h1.477V124.6Z" fill="#12263f"/>
    <path id="Path_183666" data-name="Path 183666" d="M317.752,128.629a5.031,5.031,0,0,0-.822-.066,1.849,1.849,0,0,0-1.867,1.062v6.143h-2.018v-8.982h1.926l.05,1a2.272,2.272,0,0,1,2.025-1.171,1.9,1.9,0,0,1,.714.116Z" fill="#12263f"/>
    <path id="Path_183667" data-name="Path 183667" d="M318.519,131.193a5.294,5.294,0,0,1,.523-2.378,3.819,3.819,0,0,1,1.47-1.627,4.134,4.134,0,0,1,2.173-.568,3.921,3.921,0,0,1,2.952,1.171,4.6,4.6,0,0,1,1.224,3.1l.008.474a5.345,5.345,0,0,1-.51,2.374,3.784,3.784,0,0,1-1.461,1.619,4.174,4.174,0,0,1-2.2.572,3.9,3.9,0,0,1-3.043-1.265,4.849,4.849,0,0,1-1.141-3.375Zm2.017.175a3.615,3.615,0,0,0,.573,2.171,1.862,1.862,0,0,0,1.594.784,1.842,1.842,0,0,0,1.589-.8,4,4,0,0,0,.569-2.333,3.566,3.566,0,0,0-.586-2.158,1.972,1.972,0,0,0-3.158-.012,3.918,3.918,0,0,0-.581,2.345" fill="#12263f"/>
    <path id="Path_183668" data-name="Path 183668" d="M259.563,156.168v-7.487h-1.371v-1.494h1.371v-.822a3.084,3.084,0,0,1,.829-2.308,3.181,3.181,0,0,1,2.324-.813,4.634,4.634,0,0,1,1.129.149l-.05,1.578a3.9,3.9,0,0,0-.771-.067,1.3,1.3,0,0,0-1.445,1.486v.8H263.4v1.494h-1.826v7.487Z" fill="#12263f"/>
    <path id="Path_183669" data-name="Path 183669" d="M270.416,156.168a3.12,3.12,0,0,1-.233-.838,3.14,3.14,0,0,1-2.357,1,3.178,3.178,0,0,1-2.209-.771,2.477,2.477,0,0,1-.855-1.91,2.55,2.55,0,0,1,1.067-2.2,5.176,5.176,0,0,1,3.051-.767h1.237v-.59a1.572,1.572,0,0,0-.391-1.116,1.543,1.543,0,0,0-1.187-.419,1.777,1.777,0,0,0-1.129.344,1.066,1.066,0,0,0-.44.876h-2.017a2.239,2.239,0,0,1,.49-1.382,3.259,3.259,0,0,1,1.332-1.009,4.693,4.693,0,0,1,1.881-.365,3.766,3.766,0,0,1,2.515.793,2.828,2.828,0,0,1,.963,2.228v4.051a4.591,4.591,0,0,0,.34,1.934v.141Zm-2.217-1.453a2.305,2.305,0,0,0,1.125-.29,1.942,1.942,0,0,0,.793-.78v-1.694h-1.088a2.965,2.965,0,0,0-1.685.391,1.264,1.264,0,0,0-.565,1.1,1.176,1.176,0,0,0,.387.926,1.491,1.491,0,0,0,1.033.344" fill="#12263f"/>
    <path id="Path_183670" data-name="Path 183670" d="M282.3,151.769a5.4,5.4,0,0,1-.934,3.329,3.043,3.043,0,0,1-2.569,1.236,2.932,2.932,0,0,1-2.457-1.136l-.1.97h-1.826v-12.75h2.017v4.632a2.92,2.92,0,0,1,2.349-1.029,3.078,3.078,0,0,1,2.581,1.219,5.487,5.487,0,0,1,.939,3.413Zm-2.017-.175a3.8,3.8,0,0,0-.516-2.191,1.711,1.711,0,0,0-1.494-.731,1.873,1.873,0,0,0-1.842,1.147v3.7a1.892,1.892,0,0,0,1.86,1.171,1.7,1.7,0,0,0,1.461-.706,3.7,3.7,0,0,0,.531-2.133Z" fill="#12263f"/>
    <path id="Path_183671" data-name="Path 183671" d="M288.86,149.029a5.142,5.142,0,0,0-.822-.065,1.849,1.849,0,0,0-1.867,1.061v6.144h-2.018v-8.982h1.926l.05,1a2.273,2.273,0,0,1,2.025-1.17,1.9,1.9,0,0,1,.714.116Z" fill="#12263f"/>
    <path id="Path_183672" data-name="Path 183672" d="M290.308,144.846a1.077,1.077,0,0,1,.295-.777,1.1,1.1,0,0,1,.842-.311,1.12,1.12,0,0,1,.847.311,1.072,1.072,0,0,1,.3.777,1.054,1.054,0,0,1-.3.766,1.132,1.132,0,0,1-.847.3,1.117,1.117,0,0,1-.842-.3,1.059,1.059,0,0,1-.295-.766m2.142,11.322h-2.018v-8.981h2.018Z" fill="#12263f"/>
    <path id="Path_183673" data-name="Path 183673" d="M298.5,154.724a1.821,1.821,0,0,0,1.254-.44,1.5,1.5,0,0,0,.531-1.087h1.9a2.966,2.966,0,0,1-.523,1.564,3.426,3.426,0,0,1-1.328,1.15,3.948,3.948,0,0,1-1.81.423,3.829,3.829,0,0,1-2.988-1.22,4.838,4.838,0,0,1-1.1-3.369v-.209a4.763,4.763,0,0,1,1.1-3.283,3.8,3.8,0,0,1,2.989-1.232,3.693,3.693,0,0,1,2.61.933,3.354,3.354,0,0,1,1.058,2.454h-1.9a1.849,1.849,0,0,0-.527-1.271,1.7,1.7,0,0,0-1.258-.5,1.775,1.775,0,0,0-1.51.71,3.627,3.627,0,0,0-.54,2.154v.324a3.675,3.675,0,0,0,.528,2.179,1.77,1.77,0,0,0,1.522.718" fill="#12263f"/>
    <path id="Path_183674" data-name="Path 183674" d="M309.25,156.168a3.121,3.121,0,0,1-.233-.838,3.14,3.14,0,0,1-2.357,1,3.178,3.178,0,0,1-2.209-.771,2.477,2.477,0,0,1-.855-1.91,2.55,2.55,0,0,1,1.067-2.2,5.176,5.176,0,0,1,3.051-.767h1.237v-.59a1.572,1.572,0,0,0-.391-1.116,1.543,1.543,0,0,0-1.187-.419,1.777,1.777,0,0,0-1.129.344,1.066,1.066,0,0,0-.44.876h-2.017a2.239,2.239,0,0,1,.49-1.382,3.259,3.259,0,0,1,1.332-1.009,4.692,4.692,0,0,1,1.881-.365,3.766,3.766,0,0,1,2.515.793,2.828,2.828,0,0,1,.963,2.228v4.051a4.59,4.59,0,0,0,.34,1.934v.141Zm-2.217-1.453a2.305,2.305,0,0,0,1.125-.29,1.942,1.942,0,0,0,.793-.78v-1.694h-1.088a2.965,2.965,0,0,0-1.685.391,1.264,1.264,0,0,0-.565,1.1,1.176,1.176,0,0,0,.387.926,1.49,1.49,0,0,0,1.033.344" fill="#12263f"/>
    <path id="Path_183675" data-name="Path 183675" d="M315.123,147.187l.058,1.038a3.228,3.228,0,0,1,2.615-1.2q2.8,0,2.855,3.212v5.935h-2.017V150.35a1.856,1.856,0,0,0-.369-1.267,1.556,1.556,0,0,0-1.207-.411,1.945,1.945,0,0,0-1.819,1.1v6.391h-2.017v-8.981Z" fill="#12263f"/>
    <path id="Path_183676" data-name="Path 183676" d="M325.4,145v2.183h1.586v1.494H325.4v5.013a1.107,1.107,0,0,0,.2.744.945.945,0,0,0,.726.228,3.085,3.085,0,0,0,.706-.084v1.561a4.943,4.943,0,0,1-1.328.191q-2.325,0-2.325-2.564v-5.089h-1.477v-1.494h1.477V145Z" fill="#12263f"/>
    <path id="Path_183677" data-name="Path 183677" d="M332.653,156.334a4.17,4.17,0,0,1-3.108-1.208,4.379,4.379,0,0,1-1.191-3.216v-.25a5.383,5.383,0,0,1,.519-2.4,3.949,3.949,0,0,1,1.456-1.648,3.853,3.853,0,0,1,2.092-.589,3.521,3.521,0,0,1,2.835,1.171,4.945,4.945,0,0,1,1,3.311v.814h-5.869a2.688,2.688,0,0,0,.743,1.759,2.227,2.227,0,0,0,1.639.648,2.735,2.735,0,0,0,2.258-1.12l1.087,1.037a3.626,3.626,0,0,1-1.44,1.249,4.512,4.512,0,0,1-2.022.444m-.24-7.695a1.7,1.7,0,0,0-1.341.582,3.013,3.013,0,0,0-.651,1.618h3.844v-.149a2.456,2.456,0,0,0-.54-1.531,1.688,1.688,0,0,0-1.312-.52" fill="#12263f"/>
    <path id="Path_183678" data-name="Path 183678" d="M343.025,153.728a.913.913,0,0,0-.444-.821,4.675,4.675,0,0,0-1.474-.5,7.616,7.616,0,0,1-1.719-.549,2.291,2.291,0,0,1-1.509-2.116,2.394,2.394,0,0,1,.978-1.943,3.873,3.873,0,0,1,2.49-.78,4.031,4.031,0,0,1,2.6.8,2.529,2.529,0,0,1,.992,2.067h-2.017a1.248,1.248,0,0,0-.431-.968,1.662,1.662,0,0,0-1.147-.385,1.794,1.794,0,0,0-1.083.306.972.972,0,0,0-.419.823.818.818,0,0,0,.391.722,5.393,5.393,0,0,0,1.576.519,7.479,7.479,0,0,1,1.864.622,2.632,2.632,0,0,1,1,.867,2.212,2.212,0,0,1,.328,1.229,2.341,2.341,0,0,1-1,1.963,4.278,4.278,0,0,1-2.631.751,4.632,4.632,0,0,1-1.967-.4,3.241,3.241,0,0,1-1.346-1.1,2.6,2.6,0,0,1-.48-1.5h1.959a1.42,1.42,0,0,0,.539,1.1,2.1,2.1,0,0,0,1.32.386,2.036,2.036,0,0,0,1.211-.3.939.939,0,0,0,.416-.793" fill="#12263f"/>
    <path id="Path_183679" data-name="Path 183679" d="M1010.708,188.679H868.523a9.622,9.622,0,0,1-9.612-9.611V117.831a9.622,9.622,0,0,1,9.612-9.611h147.188a4.641,4.641,0,0,1,3.523,1.2c1.323,1.374,1.238,3.6,1.141,6.165-.028.716-.057,1.469-.057,2.246v61.237a9.622,9.622,0,0,1-9.61,9.611M868.523,109.97a7.87,7.87,0,0,0-7.862,7.861v61.237a7.87,7.87,0,0,0,7.862,7.861h142.185a7.869,7.869,0,0,0,7.86-7.861V117.831c0-.8.029-1.575.059-2.312.082-2.172.154-4.047-.653-4.885a3.054,3.054,0,0,0-2.263-.664Z" fill="#c4fdff"/>
    <path id="Path_183680" data-name="Path 183680" d="M1017.136,180.661H874.951a8.736,8.736,0,0,1-8.736-8.736V110.688a8.735,8.735,0,0,1,8.736-8.735h142.185a8.735,8.735,0,0,1,8.736,8.735v61.237a8.736,8.736,0,0,1-8.736,8.736" fill="#c4fdff"/>
    <path id="Path_183681" data-name="Path 183681" d="M1017.136,182.161H874.951a10.247,10.247,0,0,1-10.236-10.236V110.688a10.247,10.247,0,0,1,10.236-10.235h142.185a10.248,10.248,0,0,1,10.236,10.235v61.237a10.248,10.248,0,0,1-10.236,10.236M874.951,103.453a7.244,7.244,0,0,0-7.236,7.235v61.237a7.244,7.244,0,0,0,7.236,7.236h142.185a7.244,7.244,0,0,0,7.236-7.236V110.688a7.244,7.244,0,0,0-7.236-7.235Z" fill="#42e0e6"/>
    <path id="Path_183682" data-name="Path 183682" d="M924.86,142.341a4.365,4.365,0,0,1-1.428,3.018,4.871,4.871,0,0,1-3.312,1.083,4.71,4.71,0,0,1-2.543-.685,4.486,4.486,0,0,1-1.7-1.946,7.014,7.014,0,0,1-.622-2.931v-1.129a7.078,7.078,0,0,1,.606-3.013,4.571,4.571,0,0,1,1.738-2.009,4.857,4.857,0,0,1,2.619-.705,4.67,4.67,0,0,1,3.221,1.083,4.522,4.522,0,0,1,1.42,3.067h-2.092a2.981,2.981,0,0,0-.76-1.88,2.506,2.506,0,0,0-1.789-.577,2.452,2.452,0,0,0-2.1,1,5.008,5.008,0,0,0-.752,2.937v1.072a5.314,5.314,0,0,0,.7,2.991,2.331,2.331,0,0,0,2.055,1.03,2.712,2.712,0,0,0,1.859-.556,2.9,2.9,0,0,0,.789-1.851Z" fill="#12263f"/>
    <rect id="Rectangle_38270" data-name="Rectangle 38270" width="2.018" height="12.75" transform="translate(926.84 133.526)" fill="#12263f"/>
    <path id="Path_183683" data-name="Path 183683" d="M931.226,134.953a1.083,1.083,0,0,1,.295-.777,1.3,1.3,0,0,1,1.689,0,1.074,1.074,0,0,1,.3.777,1.053,1.053,0,0,1-.3.766,1.322,1.322,0,0,1-1.689,0,1.062,1.062,0,0,1-.295-.766m2.142,11.323H931.35v-8.981h2.018Z" fill="#12263f"/>
    <path id="Path_183684" data-name="Path 183684" d="M939.688,146.441a4.167,4.167,0,0,1-3.107-1.208,4.375,4.375,0,0,1-1.192-3.216v-.25a5.383,5.383,0,0,1,.52-2.4,3.947,3.947,0,0,1,1.455-1.648,3.858,3.858,0,0,1,2.092-.589,3.523,3.523,0,0,1,2.836,1.171,4.95,4.95,0,0,1,1,3.311v.814h-5.869a2.684,2.684,0,0,0,.744,1.759,2.225,2.225,0,0,0,1.638.648,2.735,2.735,0,0,0,2.258-1.12l1.088,1.037A3.622,3.622,0,0,1,941.71,146a4.509,4.509,0,0,1-2.022.444m-.24-7.695a1.7,1.7,0,0,0-1.34.582,3.013,3.013,0,0,0-.652,1.618H941.3V140.8a2.455,2.455,0,0,0-.54-1.531,1.688,1.688,0,0,0-1.312-.52" fill="#12263f"/>
    <path id="Path_183685" data-name="Path 183685" d="M946.9,137.294l.058,1.038a3.229,3.229,0,0,1,2.615-1.2q2.8,0,2.856,3.212v5.935h-2.018v-5.818a1.856,1.856,0,0,0-.369-1.267,1.556,1.556,0,0,0-1.207-.411,1.946,1.946,0,0,0-1.819,1.1v6.391H945v-8.981Z" fill="#12263f"/>
    <path id="Path_183686" data-name="Path 183686" d="M957.179,135.111v2.184h1.586v1.493h-1.586V143.8a1.113,1.113,0,0,0,.2.745.948.948,0,0,0,.727.227,3.077,3.077,0,0,0,.705-.084v1.562a4.941,4.941,0,0,1-1.328.19q-2.324,0-2.325-2.563v-5.09h-1.476v-1.493h1.476v-2.184Z" fill="#12263f"/>
    <path id="Path_183687" data-name="Path 183687" d="M964.428,146.441a4.175,4.175,0,0,1-3.109-1.208,4.382,4.382,0,0,1-1.19-3.216v-.25a5.383,5.383,0,0,1,.518-2.4,3.951,3.951,0,0,1,1.457-1.648,3.848,3.848,0,0,1,2.092-.589,3.519,3.519,0,0,1,2.834,1.171,4.94,4.94,0,0,1,1,3.311v.814h-5.869a2.692,2.692,0,0,0,.742,1.759,2.229,2.229,0,0,0,1.64.648,2.735,2.735,0,0,0,2.258-1.12l1.086,1.037A3.629,3.629,0,0,1,966.45,146a4.515,4.515,0,0,1-2.022.444m-.24-7.695a1.7,1.7,0,0,0-1.342.582,3.012,3.012,0,0,0-.65,1.618h3.844V140.8a2.45,2.45,0,0,0-.541-1.531,1.684,1.684,0,0,0-1.311-.52" fill="#12263f"/>
    <path id="Path_183688" data-name="Path 183688" d="M974.8,143.835a.912.912,0,0,0-.445-.821,4.666,4.666,0,0,0-1.473-.5,7.585,7.585,0,0,1-1.719-.549,2.289,2.289,0,0,1-1.509-2.116,2.394,2.394,0,0,1,.978-1.943,3.869,3.869,0,0,1,2.49-.78,4.027,4.027,0,0,1,2.6.8,2.526,2.526,0,0,1,.992,2.067H974.7a1.248,1.248,0,0,0-.431-.968,1.664,1.664,0,0,0-1.147-.385,1.8,1.8,0,0,0-1.084.306.971.971,0,0,0-.418.823.816.816,0,0,0,.391.722,5.393,5.393,0,0,0,1.576.519,7.485,7.485,0,0,1,1.863.622,2.632,2.632,0,0,1,1,.867,2.212,2.212,0,0,1,.328,1.229,2.34,2.34,0,0,1-1,1.963,4.283,4.283,0,0,1-2.631.751,4.629,4.629,0,0,1-1.967-.4,3.235,3.235,0,0,1-1.346-1.1,2.6,2.6,0,0,1-.48-1.5h1.959a1.42,1.42,0,0,0,.539,1.1,2.1,2.1,0,0,0,1.32.386,2.038,2.038,0,0,0,1.211-.3.939.939,0,0,0,.416-.793" fill="#12263f"/>
    <path id="Path_183689" data-name="Path 183689" d="M795.98,188.679H653.794a9.622,9.622,0,0,1-9.61-9.611V117.831a9.622,9.622,0,0,1,9.61-9.611H800.982a4.648,4.648,0,0,1,3.525,1.2c1.323,1.375,1.238,3.6,1.141,6.165-.028.716-.057,1.469-.057,2.246v61.237a9.623,9.623,0,0,1-9.611,9.611M653.794,109.97a7.869,7.869,0,0,0-7.86,7.861v61.237a7.869,7.869,0,0,0,7.86,7.861H795.98a7.869,7.869,0,0,0,7.861-7.861V117.831c0-.8.029-1.575.057-2.312.083-2.172.155-4.047-.652-4.885a3.056,3.056,0,0,0-2.264-.664Z" fill="#c4fdff"/>
    <path id="Path_183690" data-name="Path 183690" d="M802.408,180.661H660.223a8.736,8.736,0,0,1-8.736-8.736V110.688a8.735,8.735,0,0,1,8.736-8.735H802.408a8.735,8.735,0,0,1,8.736,8.735v61.237a8.736,8.736,0,0,1-8.736,8.736" fill="#c4fdff"/>
    <path id="Path_183691" data-name="Path 183691" d="M802.409,182.161H660.223a10.247,10.247,0,0,1-10.235-10.236V110.688a10.247,10.247,0,0,1,10.235-10.235H802.409a10.247,10.247,0,0,1,10.235,10.235v61.237a10.248,10.248,0,0,1-10.235,10.236M660.223,103.453a7.244,7.244,0,0,0-7.235,7.235v61.237a7.244,7.244,0,0,0,7.235,7.236H802.409a7.244,7.244,0,0,0,7.235-7.236V110.688a7.244,7.244,0,0,0-7.235-7.235Z" fill="#42e0e6"/>
    <path id="Path_183692" data-name="Path 183692" d="M687.09,123.682l3.486,9.264,3.479-9.264h2.714v12.086h-2.092v-3.984l.208-5.33-3.57,9.314h-1.5l-3.561-9.305.207,5.321v3.984h-2.092V123.682Z" fill="#12263f"/>
    <path id="Path_183693" data-name="Path 183693" d="M704.593,135.768a3.121,3.121,0,0,1-.233-.838,3.14,3.14,0,0,1-2.357,1,3.178,3.178,0,0,1-2.209-.771,2.477,2.477,0,0,1-.855-1.91,2.55,2.55,0,0,1,1.067-2.2,5.176,5.176,0,0,1,3.051-.767h1.237v-.59a1.572,1.572,0,0,0-.391-1.116,1.543,1.543,0,0,0-1.187-.419,1.777,1.777,0,0,0-1.129.344,1.066,1.066,0,0,0-.44.876H699.13a2.239,2.239,0,0,1,.49-1.382,3.258,3.258,0,0,1,1.332-1.009,4.692,4.692,0,0,1,1.881-.365,3.766,3.766,0,0,1,2.515.793,2.827,2.827,0,0,1,.963,2.228v4.051a4.591,4.591,0,0,0,.34,1.934v.141Zm-2.217-1.453a2.305,2.305,0,0,0,1.125-.29,1.941,1.941,0,0,0,.793-.78v-1.694h-1.088a2.965,2.965,0,0,0-1.685.391,1.264,1.264,0,0,0-.565,1.1,1.176,1.176,0,0,0,.387.926,1.49,1.49,0,0,0,1.033.344" fill="#12263f"/>
    <path id="Path_183694" data-name="Path 183694" d="M711.61,132.879l1.826-6.093h2.15l-3.57,10.343a2.9,2.9,0,0,1-2.789,2.266,3.6,3.6,0,0,1-.971-.15v-1.568l.381.024a1.971,1.971,0,0,0,1.151-.277,1.835,1.835,0,0,0,.609-.934l.291-.77-3.154-8.934h2.175Z" fill="#12263f"/>
    <path id="Path_183695" data-name="Path 183695" d="M716.412,131.193a5.294,5.294,0,0,1,.523-2.378,3.819,3.819,0,0,1,1.47-1.627,4.134,4.134,0,0,1,2.173-.568,3.921,3.921,0,0,1,2.952,1.171,4.6,4.6,0,0,1,1.224,3.1l.008.474a5.346,5.346,0,0,1-.51,2.374,3.785,3.785,0,0,1-1.461,1.619,4.174,4.174,0,0,1-2.2.572,3.9,3.9,0,0,1-3.043-1.265,4.849,4.849,0,0,1-1.141-3.375Zm2.017.175a3.615,3.615,0,0,0,.573,2.171,1.862,1.862,0,0,0,1.594.784,1.842,1.842,0,0,0,1.589-.8,4,4,0,0,0,.569-2.333,3.566,3.566,0,0,0-.586-2.158,1.972,1.972,0,0,0-3.158-.012,3.918,3.918,0,0,0-.581,2.345" fill="#12263f"/>
    <path id="Path_183696" data-name="Path 183696" d="M731.341,128.629a5.03,5.03,0,0,0-.822-.066,1.849,1.849,0,0,0-1.867,1.062v6.143h-2.018v-8.982h1.926l.05,1a2.272,2.272,0,0,1,2.025-1.171,1.9,1.9,0,0,1,.714.116Z" fill="#12263f"/>
    <path id="Path_183697" data-name="Path 183697" d="M732.788,124.446a1.084,1.084,0,0,1,.295-.778,1.107,1.107,0,0,1,.843-.31,1.118,1.118,0,0,1,.846.31,1.07,1.07,0,0,1,.3.778,1.048,1.048,0,0,1-.3.765,1.131,1.131,0,0,1-.846.305,1.119,1.119,0,0,1-.843-.305,1.061,1.061,0,0,1-.295-.765m2.143,11.322h-2.018v-8.981h2.018Z" fill="#12263f"/>
    <path id="Path_183698" data-name="Path 183698" d="M742.331,133.327a.913.913,0,0,0-.444-.821,4.676,4.676,0,0,0-1.474-.5,7.616,7.616,0,0,1-1.719-.549,2.291,2.291,0,0,1-1.509-2.116,2.394,2.394,0,0,1,.978-1.943,3.873,3.873,0,0,1,2.49-.78,4.031,4.031,0,0,1,2.6.8,2.529,2.529,0,0,1,.992,2.067h-2.017a1.248,1.248,0,0,0-.431-.968,1.662,1.662,0,0,0-1.147-.385,1.794,1.794,0,0,0-1.083.306.972.972,0,0,0-.419.823.818.818,0,0,0,.391.722,5.393,5.393,0,0,0,1.576.519,7.479,7.479,0,0,1,1.864.622,2.632,2.632,0,0,1,1,.867,2.212,2.212,0,0,1,.328,1.229,2.341,2.341,0,0,1-1,1.963,4.279,4.279,0,0,1-2.631.751,4.633,4.633,0,0,1-1.967-.4,3.241,3.241,0,0,1-1.346-1.1,2.6,2.6,0,0,1-.48-1.5h1.959a1.42,1.42,0,0,0,.539,1.1,2.1,2.1,0,0,0,1.32.386,2.035,2.035,0,0,0,1.211-.3.939.939,0,0,0,.416-.793" fill="#12263f"/>
    <path id="Path_183699" data-name="Path 183699" d="M748.768,124.6v2.183h1.586v1.494h-1.586v5.013a1.107,1.107,0,0,0,.2.744.944.944,0,0,0,.726.228,3.086,3.086,0,0,0,.706-.084v1.561a4.943,4.943,0,0,1-1.328.191q-2.325,0-2.325-2.564v-5.089h-1.477v-1.494h1.477V124.6Z" fill="#12263f"/>
    <path id="Path_183700" data-name="Path 183700" d="M757.43,135.768a3.119,3.119,0,0,1-.233-.838,3.14,3.14,0,0,1-2.357,1,3.178,3.178,0,0,1-2.209-.771,2.477,2.477,0,0,1-.855-1.91,2.55,2.55,0,0,1,1.067-2.2,5.176,5.176,0,0,1,3.051-.767h1.237v-.59a1.572,1.572,0,0,0-.391-1.116,1.543,1.543,0,0,0-1.187-.419,1.777,1.777,0,0,0-1.129.344,1.066,1.066,0,0,0-.44.876h-2.017a2.239,2.239,0,0,1,.49-1.382,3.259,3.259,0,0,1,1.332-1.009,4.692,4.692,0,0,1,1.881-.365,3.766,3.766,0,0,1,2.515.793,2.828,2.828,0,0,1,.963,2.228v4.051a4.591,4.591,0,0,0,.34,1.934v.141Zm-2.217-1.453a2.305,2.305,0,0,0,1.125-.29,1.942,1.942,0,0,0,.793-.78v-1.694h-1.088a2.965,2.965,0,0,0-1.685.391,1.264,1.264,0,0,0-.565,1.1,1.176,1.176,0,0,0,.387.926,1.49,1.49,0,0,0,1.033.344" fill="#12263f"/>
    <path id="Path_183701" data-name="Path 183701" d="M766.465,133.327a.913.913,0,0,0-.444-.821,4.675,4.675,0,0,0-1.474-.5,7.617,7.617,0,0,1-1.719-.549,2.291,2.291,0,0,1-1.509-2.116,2.394,2.394,0,0,1,.978-1.943,3.873,3.873,0,0,1,2.49-.78,4.031,4.031,0,0,1,2.6.8,2.529,2.529,0,0,1,.992,2.067h-2.017a1.248,1.248,0,0,0-.431-.968,1.663,1.663,0,0,0-1.147-.385,1.794,1.794,0,0,0-1.083.306.972.972,0,0,0-.419.823.818.818,0,0,0,.391.722,5.392,5.392,0,0,0,1.576.519,7.48,7.48,0,0,1,1.864.622,2.632,2.632,0,0,1,1,.867,2.212,2.212,0,0,1,.328,1.229,2.341,2.341,0,0,1-1,1.963,4.278,4.278,0,0,1-2.631.751,4.632,4.632,0,0,1-1.967-.4,3.241,3.241,0,0,1-1.346-1.1,2.6,2.6,0,0,1-.48-1.5h1.959a1.42,1.42,0,0,0,.539,1.1,2.1,2.1,0,0,0,1.32.386,2.035,2.035,0,0,0,1.211-.3.939.939,0,0,0,.416-.793" fill="#12263f"/>
    <rect id="Rectangle_38271" data-name="Rectangle 38271" width="4.357" height="1.627" transform="translate(774.334 129.817)" fill="#12263f"/>
    <path id="Path_183702" data-name="Path 183702" d="M692.9,147.187l.059.938a3.23,3.23,0,0,1,2.589-1.1,2.48,2.48,0,0,1,2.465,1.378,3.188,3.188,0,0,1,2.756-1.378,2.8,2.8,0,0,1,2.213.821,3.624,3.624,0,0,1,.742,2.424v5.9h-2.016v-5.843a1.78,1.78,0,0,0-.374-1.254,1.633,1.633,0,0,0-1.237-.4,1.683,1.683,0,0,0-1.125.37,1.946,1.946,0,0,0-.609.967l.008,6.159h-2.018v-5.91a1.439,1.439,0,0,0-1.618-1.586,1.775,1.775,0,0,0-1.718.989v6.507H691v-8.981Z" fill="#12263f"/>
    <path id="Path_183703" data-name="Path 183703" d="M705.974,144.846a1.078,1.078,0,0,1,.295-.777,1.1,1.1,0,0,1,.842-.311,1.12,1.12,0,0,1,.847.311,1.072,1.072,0,0,1,.3.777,1.055,1.055,0,0,1-.3.766,1.132,1.132,0,0,1-.847.3,1.117,1.117,0,0,1-.842-.3,1.06,1.06,0,0,1-.295-.766m2.142,11.322H706.1v-8.981h2.018Z" fill="#12263f"/>
    <path id="Path_183704" data-name="Path 183704" d="M712.354,147.187l.057,1.038a3.231,3.231,0,0,1,2.615-1.2q2.8,0,2.855,3.212v5.935h-2.016V150.35a1.856,1.856,0,0,0-.37-1.267,1.554,1.554,0,0,0-1.206-.411,1.947,1.947,0,0,0-1.82,1.1v6.391h-2.016v-8.981Z" fill="#12263f"/>
    <path id="Path_183705" data-name="Path 183705" d="M719.728,151.594a5.294,5.294,0,0,1,.523-2.378,3.819,3.819,0,0,1,1.47-1.627,4.134,4.134,0,0,1,2.173-.568,3.921,3.921,0,0,1,2.952,1.171,4.6,4.6,0,0,1,1.224,3.1l.008.474a5.345,5.345,0,0,1-.51,2.374,3.784,3.784,0,0,1-1.461,1.619,4.174,4.174,0,0,1-2.2.572,3.9,3.9,0,0,1-3.043-1.265,4.849,4.849,0,0,1-1.141-3.375Zm2.017.175a3.615,3.615,0,0,0,.573,2.171,1.862,1.862,0,0,0,1.594.784,1.842,1.842,0,0,0,1.589-.8,4,4,0,0,0,.569-2.333,3.566,3.566,0,0,0-.586-2.158,1.972,1.972,0,0,0-3.158-.012,3.918,3.918,0,0,0-.581,2.345" fill="#12263f"/>
    <path id="Path_183706" data-name="Path 183706" d="M734.657,149.029a5.141,5.141,0,0,0-.822-.065,1.849,1.849,0,0,0-1.867,1.061v6.144H729.95v-8.982h1.926l.05,1a2.273,2.273,0,0,1,2.025-1.17,1.9,1.9,0,0,1,.714.116Z" fill="#12263f"/>
    <path id="Path_183707" data-name="Path 183707" d="M736.1,144.846a1.082,1.082,0,0,1,.295-.777,1.109,1.109,0,0,1,.843-.311,1.121,1.121,0,0,1,.847.311,1.072,1.072,0,0,1,.3.777,1.054,1.054,0,0,1-.3.766,1.133,1.133,0,0,1-.847.3,1.121,1.121,0,0,1-.843-.3,1.064,1.064,0,0,1-.295-.766m2.143,11.322h-2.018v-8.981h2.018Z" fill="#12263f"/>
    <path id="Path_183708" data-name="Path 183708" d="M745.648,153.728a.912.912,0,0,0-.445-.821,4.666,4.666,0,0,0-1.474-.5,7.65,7.65,0,0,1-1.719-.549,2.291,2.291,0,0,1-1.509-2.116,2.4,2.4,0,0,1,.978-1.943,3.875,3.875,0,0,1,2.49-.78,4.034,4.034,0,0,1,2.6.8,2.529,2.529,0,0,1,.992,2.067h-2.018a1.248,1.248,0,0,0-.43-.968,1.667,1.667,0,0,0-1.148-.385,1.8,1.8,0,0,0-1.083.306.972.972,0,0,0-.419.823.816.816,0,0,0,.392.722,5.37,5.37,0,0,0,1.576.519,7.47,7.47,0,0,1,1.863.622,2.632,2.632,0,0,1,1,.867,2.212,2.212,0,0,1,.328,1.229,2.341,2.341,0,0,1-1,1.963,4.274,4.274,0,0,1-2.631.751,4.628,4.628,0,0,1-1.966-.4,3.244,3.244,0,0,1-1.347-1.1,2.6,2.6,0,0,1-.479-1.5h1.958a1.418,1.418,0,0,0,.54,1.1,2.093,2.093,0,0,0,1.32.386,2.035,2.035,0,0,0,1.211-.3.942.942,0,0,0,.416-.793" fill="#12263f"/>
    <path id="Path_183709" data-name="Path 183709" d="M752.084,145v2.183h1.586v1.494h-1.586v5.013a1.106,1.106,0,0,0,.2.744.944.944,0,0,0,.726.228,3.085,3.085,0,0,0,.706-.084v1.561a4.943,4.943,0,0,1-1.328.191q-2.325,0-2.325-2.564v-5.089H748.59v-1.494h1.477V145Z" fill="#12263f"/>
    <path id="Path_183710" data-name="Path 183710" d="M760.746,156.168a3.121,3.121,0,0,1-.233-.838,3.14,3.14,0,0,1-2.357,1,3.178,3.178,0,0,1-2.209-.771,2.477,2.477,0,0,1-.855-1.91,2.55,2.55,0,0,1,1.067-2.2,5.176,5.176,0,0,1,3.051-.767h1.237v-.59a1.572,1.572,0,0,0-.391-1.116,1.543,1.543,0,0,0-1.187-.419,1.777,1.777,0,0,0-1.129.344,1.066,1.066,0,0,0-.44.876h-2.017a2.239,2.239,0,0,1,.49-1.382,3.259,3.259,0,0,1,1.332-1.009,4.693,4.693,0,0,1,1.881-.365,3.766,3.766,0,0,1,2.515.793,2.827,2.827,0,0,1,.963,2.228v4.051a4.591,4.591,0,0,0,.34,1.934v.141Zm-2.217-1.453a2.305,2.305,0,0,0,1.125-.29,1.942,1.942,0,0,0,.793-.78v-1.694h-1.088a2.965,2.965,0,0,0-1.685.391,1.264,1.264,0,0,0-.565,1.1,1.176,1.176,0,0,0,.387.926,1.491,1.491,0,0,0,1.033.344" fill="#12263f"/>
    <path id="Path_183711" data-name="Path 183711" d="M769.781,153.728a.913.913,0,0,0-.444-.821,4.675,4.675,0,0,0-1.474-.5,7.617,7.617,0,0,1-1.719-.549,2.291,2.291,0,0,1-1.509-2.116,2.394,2.394,0,0,1,.978-1.943,3.873,3.873,0,0,1,2.49-.78,4.031,4.031,0,0,1,2.6.8,2.529,2.529,0,0,1,.992,2.067h-2.017a1.248,1.248,0,0,0-.431-.968,1.662,1.662,0,0,0-1.147-.385,1.794,1.794,0,0,0-1.083.306.972.972,0,0,0-.419.823.818.818,0,0,0,.391.722,5.392,5.392,0,0,0,1.576.519,7.48,7.48,0,0,1,1.864.622,2.632,2.632,0,0,1,1,.867,2.212,2.212,0,0,1,.328,1.229,2.341,2.341,0,0,1-1,1.963,4.278,4.278,0,0,1-2.631.751,4.633,4.633,0,0,1-1.967-.4,3.242,3.242,0,0,1-1.346-1.1,2.6,2.6,0,0,1-.48-1.5h1.959a1.42,1.42,0,0,0,.539,1.1,2.1,2.1,0,0,0,1.32.386,2.035,2.035,0,0,0,1.211-.3.939.939,0,0,0,.416-.793" fill="#12263f"/>
    <path id="Path_183712" data-name="Path 183712" d="M581.252,188.679H439.066a9.622,9.622,0,0,1-9.61-9.611V117.831a9.622,9.622,0,0,1,9.61-9.611H586.254a4.645,4.645,0,0,1,3.524,1.2c1.323,1.374,1.238,3.6,1.141,6.165-.028.716-.057,1.469-.057,2.246v61.237a9.622,9.622,0,0,1-9.61,9.611M439.066,109.97a7.869,7.869,0,0,0-7.86,7.861v61.237a7.869,7.869,0,0,0,7.86,7.861H581.252a7.869,7.869,0,0,0,7.86-7.861V117.831c0-.8.029-1.575.058-2.312.083-2.172.154-4.047-.653-4.885a3.054,3.054,0,0,0-2.263-.664Z" fill="#c4fdff"/>
    <path id="Path_183713" data-name="Path 183713" d="M587.68,180.661H445.495a8.736,8.736,0,0,1-8.736-8.736V110.688a8.735,8.735,0,0,1,8.736-8.735H587.68a8.735,8.735,0,0,1,8.736,8.735v61.237a8.736,8.736,0,0,1-8.736,8.736" fill="#c4fdff"/>
    <path id="Path_183714" data-name="Path 183714" d="M587.681,182.161H445.495a10.247,10.247,0,0,1-10.236-10.236V110.688a10.247,10.247,0,0,1,10.236-10.235H587.681a10.247,10.247,0,0,1,10.235,10.235v61.237a10.248,10.248,0,0,1-10.235,10.236M445.495,103.453a7.244,7.244,0,0,0-7.236,7.235v61.237a7.244,7.244,0,0,0,7.236,7.236H587.681a7.244,7.244,0,0,0,7.235-7.236V110.688a7.244,7.244,0,0,0-7.235-7.235Z" fill="#42e0e6"/>
    <path id="Path_183715" data-name="Path 183715" d="M481.309,132.953h-4.682l-.98,2.815h-2.183l4.565-12.086h1.885l4.573,12.086H482.3Zm-4.093-1.693h3.5l-1.752-5.014Z" fill="#12263f"/>
    <rect id="Rectangle_38272" data-name="Rectangle 38272" width="2.018" height="12.75" transform="translate(485.961 123.018)" fill="#12263f"/>
    <path id="Path_183716" data-name="Path 183716" d="M492.239,126.786l.059.938a3.23,3.23,0,0,1,2.589-1.1A2.48,2.48,0,0,1,497.352,128a3.188,3.188,0,0,1,2.756-1.378,2.8,2.8,0,0,1,2.213.821,3.623,3.623,0,0,1,.742,2.424v5.9h-2.016v-5.843a1.78,1.78,0,0,0-.374-1.254,1.634,1.634,0,0,0-1.237-.4,1.683,1.683,0,0,0-1.125.37,1.947,1.947,0,0,0-.609.967l.008,6.159h-2.018v-5.91a1.439,1.439,0,0,0-1.618-1.586,1.775,1.775,0,0,0-1.718.989v6.507h-2.017v-8.981Z" fill="#12263f"/>
    <path id="Path_183717" data-name="Path 183717" d="M510.672,135.768a3.121,3.121,0,0,1-.233-.838,3.14,3.14,0,0,1-2.357,1,3.178,3.178,0,0,1-2.209-.771,2.477,2.477,0,0,1-.855-1.91,2.55,2.55,0,0,1,1.067-2.2,5.176,5.176,0,0,1,3.051-.767h1.237v-.59a1.572,1.572,0,0,0-.391-1.116,1.543,1.543,0,0,0-1.187-.419,1.777,1.777,0,0,0-1.129.344,1.066,1.066,0,0,0-.44.876h-2.017A2.239,2.239,0,0,1,505.7,128a3.259,3.259,0,0,1,1.332-1.009,4.692,4.692,0,0,1,1.881-.365,3.766,3.766,0,0,1,2.515.793,2.828,2.828,0,0,1,.963,2.228v4.051a4.591,4.591,0,0,0,.34,1.934v.141Zm-2.217-1.453a2.305,2.305,0,0,0,1.125-.29,1.942,1.942,0,0,0,.793-.78v-1.694h-1.088a2.965,2.965,0,0,0-1.685.391,1.264,1.264,0,0,0-.565,1.1,1.176,1.176,0,0,0,.387.926,1.49,1.49,0,0,0,1.033.344" fill="#12263f"/>
    <path id="Path_183718" data-name="Path 183718" d="M518.361,134.323a1.821,1.821,0,0,0,1.254-.44,1.5,1.5,0,0,0,.531-1.087h1.9a2.966,2.966,0,0,1-.523,1.564,3.426,3.426,0,0,1-1.328,1.15,3.948,3.948,0,0,1-1.81.423,3.828,3.828,0,0,1-2.988-1.22,4.838,4.838,0,0,1-1.1-3.369v-.209a4.763,4.763,0,0,1,1.1-3.283,3.8,3.8,0,0,1,2.989-1.232,3.693,3.693,0,0,1,2.61.933,3.354,3.354,0,0,1,1.058,2.454h-1.9a1.849,1.849,0,0,0-.527-1.271,1.7,1.7,0,0,0-1.258-.5,1.775,1.775,0,0,0-1.51.71,3.628,3.628,0,0,0-.54,2.154v.324a3.675,3.675,0,0,0,.528,2.179,1.77,1.77,0,0,0,1.522.718" fill="#12263f"/>
    <path id="Path_183719" data-name="Path 183719" d="M527.7,135.934a4.171,4.171,0,0,1-3.108-1.208,4.381,4.381,0,0,1-1.191-3.216v-.25a5.387,5.387,0,0,1,.519-2.4,3.952,3.952,0,0,1,1.456-1.647,3.846,3.846,0,0,1,2.092-.59,3.522,3.522,0,0,1,2.835,1.172,4.942,4.942,0,0,1,1,3.311v.814H525.43a2.688,2.688,0,0,0,.743,1.759,2.231,2.231,0,0,0,1.639.648,2.735,2.735,0,0,0,2.258-1.12l1.087,1.037a3.642,3.642,0,0,1-1.44,1.249,4.512,4.512,0,0,1-2.022.444m-.24-7.7a1.7,1.7,0,0,0-1.341.582,3.016,3.016,0,0,0-.651,1.619h3.844v-.149a2.461,2.461,0,0,0-.54-1.532,1.691,1.691,0,0,0-1.312-.52" fill="#12263f"/>
    <path id="Path_183720" data-name="Path 183720" d="M534.905,126.786l.058,1.038a3.229,3.229,0,0,1,2.615-1.2q2.8,0,2.855,3.212v5.935h-2.017v-5.818a1.856,1.856,0,0,0-.369-1.267,1.556,1.556,0,0,0-1.207-.411,1.945,1.945,0,0,0-1.819,1.105v6.391H533v-8.981Z" fill="#12263f"/>
    <path id="Path_183721" data-name="Path 183721" d="M546.613,135.934a4.171,4.171,0,0,1-3.108-1.208,4.38,4.38,0,0,1-1.191-3.216v-.25a5.387,5.387,0,0,1,.519-2.4,3.952,3.952,0,0,1,1.456-1.647,3.845,3.845,0,0,1,2.092-.59,3.522,3.522,0,0,1,2.835,1.172,4.943,4.943,0,0,1,1,3.311v.814h-5.869a2.688,2.688,0,0,0,.743,1.759,2.231,2.231,0,0,0,1.639.648,2.735,2.735,0,0,0,2.258-1.12l1.087,1.037a3.642,3.642,0,0,1-1.44,1.249,4.512,4.512,0,0,1-2.022.444m-.24-7.7a1.7,1.7,0,0,0-1.341.582,3.016,3.016,0,0,0-.651,1.619h3.844v-.149a2.461,2.461,0,0,0-.54-1.532,1.691,1.691,0,0,0-1.312-.52" fill="#12263f"/>
    <path id="Path_183722" data-name="Path 183722" d="M556.985,133.327a.913.913,0,0,0-.444-.821,4.675,4.675,0,0,0-1.474-.5,7.615,7.615,0,0,1-1.719-.549,2.291,2.291,0,0,1-1.509-2.116,2.394,2.394,0,0,1,.978-1.943,3.873,3.873,0,0,1,2.49-.78,4.031,4.031,0,0,1,2.6.8,2.529,2.529,0,0,1,.992,2.067h-2.017a1.248,1.248,0,0,0-.431-.968,1.662,1.662,0,0,0-1.147-.385,1.794,1.794,0,0,0-1.083.306.972.972,0,0,0-.419.823.818.818,0,0,0,.391.722,5.393,5.393,0,0,0,1.576.519,7.478,7.478,0,0,1,1.864.622,2.632,2.632,0,0,1,1,.867,2.212,2.212,0,0,1,.328,1.229,2.341,2.341,0,0,1-1,1.963,4.278,4.278,0,0,1-2.631.751,4.632,4.632,0,0,1-1.967-.4,3.241,3.241,0,0,1-1.346-1.1,2.6,2.6,0,0,1-.48-1.5H553.5a1.42,1.42,0,0,0,.539,1.1,2.1,2.1,0,0,0,1.32.386,2.035,2.035,0,0,0,1.211-.3.939.939,0,0,0,.416-.793" fill="#12263f"/>
    <path id="Path_183723" data-name="Path 183723" d="M471.188,151.611a5.338,5.338,0,0,1,.963-3.333,3.083,3.083,0,0,1,2.581-1.258,2.933,2.933,0,0,1,2.308,1v-4.6h2.018v12.75h-1.827l-.1-.93a2.974,2.974,0,0,1-2.416,1.1,3.07,3.07,0,0,1-2.553-1.27,5.538,5.538,0,0,1-.975-3.453m2.017.174a3.744,3.744,0,0,0,.527,2.138,1.712,1.712,0,0,0,1.5.767,1.905,1.905,0,0,0,1.81-1.1v-3.834a1.877,1.877,0,0,0-1.793-1.08,1.725,1.725,0,0,0-1.511.776,4.168,4.168,0,0,0-.531,2.337" fill="#12263f"/>
    <path id="Path_183724" data-name="Path 183724" d="M481.335,144.846a1.082,1.082,0,0,1,.3-.777,1.106,1.106,0,0,1,.843-.311,1.119,1.119,0,0,1,.846.311,1.068,1.068,0,0,1,.3.777,1.05,1.05,0,0,1-.3.766,1.131,1.131,0,0,1-.846.3,1.117,1.117,0,0,1-.843-.3,1.064,1.064,0,0,1-.3-.766m2.143,11.322H481.46v-8.981h2.018Z" fill="#12263f"/>
    <path id="Path_183725" data-name="Path 183725" d="M490.878,153.728a.913.913,0,0,0-.444-.821,4.675,4.675,0,0,0-1.474-.5,7.616,7.616,0,0,1-1.719-.549,2.291,2.291,0,0,1-1.509-2.116,2.394,2.394,0,0,1,.978-1.943,3.873,3.873,0,0,1,2.49-.78,4.031,4.031,0,0,1,2.6.8,2.529,2.529,0,0,1,.992,2.067h-2.017a1.248,1.248,0,0,0-.431-.968,1.662,1.662,0,0,0-1.147-.385,1.794,1.794,0,0,0-1.083.306.972.972,0,0,0-.419.823.818.818,0,0,0,.391.722,5.393,5.393,0,0,0,1.576.519,7.479,7.479,0,0,1,1.864.622,2.632,2.632,0,0,1,1,.867,2.212,2.212,0,0,1,.328,1.229,2.341,2.341,0,0,1-1,1.963,4.278,4.278,0,0,1-2.631.751,4.632,4.632,0,0,1-1.967-.4,3.241,3.241,0,0,1-1.346-1.1,2.6,2.6,0,0,1-.48-1.5h1.959a1.42,1.42,0,0,0,.539,1.1,2.1,2.1,0,0,0,1.32.386,2.035,2.035,0,0,0,1.211-.3.939.939,0,0,0,.416-.793" fill="#12263f"/>
    <path id="Path_183726" data-name="Path 183726" d="M497.314,145v2.183H498.9v1.494h-1.586v5.013a1.112,1.112,0,0,0,.2.744.946.946,0,0,0,.726.228,3.086,3.086,0,0,0,.706-.084v1.561a4.943,4.943,0,0,1-1.328.191q-2.324,0-2.325-2.564v-5.089h-1.477v-1.494H495.3V145Z" fill="#12263f"/>
    <path id="Path_183727" data-name="Path 183727" d="M505.313,149.029a5.164,5.164,0,0,0-.823-.065,1.849,1.849,0,0,0-1.867,1.061v6.144h-2.018v-8.982h1.926l.05,1a2.273,2.273,0,0,1,2.025-1.17,1.9,1.9,0,0,1,.714.116Z" fill="#12263f"/>
    <path id="Path_183728" data-name="Path 183728" d="M506.76,144.846a1.077,1.077,0,0,1,.295-.777,1.1,1.1,0,0,1,.842-.311,1.12,1.12,0,0,1,.847.311,1.072,1.072,0,0,1,.3.777,1.054,1.054,0,0,1-.3.766,1.132,1.132,0,0,1-.847.3,1.117,1.117,0,0,1-.842-.3,1.059,1.059,0,0,1-.295-.766m2.142,11.322h-2.018v-8.981H508.9Z" fill="#12263f"/>
    <path id="Path_183729" data-name="Path 183729" d="M519.149,151.769a5.4,5.4,0,0,1-.934,3.329,3.043,3.043,0,0,1-2.569,1.236,2.932,2.932,0,0,1-2.457-1.136l-.1.97h-1.826v-12.75h2.017v4.632a2.92,2.92,0,0,1,2.349-1.029,3.078,3.078,0,0,1,2.581,1.219,5.487,5.487,0,0,1,.939,3.413Zm-2.017-.175a3.8,3.8,0,0,0-.516-2.191,1.711,1.711,0,0,0-1.494-.731,1.873,1.873,0,0,0-1.842,1.147v3.7a1.892,1.892,0,0,0,1.86,1.171,1.7,1.7,0,0,0,1.461-.706,3.7,3.7,0,0,0,.531-2.133Z" fill="#12263f"/>
    <path id="Path_183730" data-name="Path 183730" d="M526.449,155.288a3.13,3.13,0,0,1-2.523,1.046,2.785,2.785,0,0,1-2.212-.856,3.632,3.632,0,0,1-.751-2.472v-5.82h2.016v5.794q0,1.71,1.419,1.71a1.994,1.994,0,0,0,1.985-1.053v-6.451H528.4v8.982h-1.9Z" fill="#12263f"/>
    <path id="Path_183731" data-name="Path 183731" d="M534.313,154.724a1.821,1.821,0,0,0,1.254-.44,1.5,1.5,0,0,0,.531-1.087H538a2.966,2.966,0,0,1-.523,1.564,3.427,3.427,0,0,1-1.328,1.15,3.948,3.948,0,0,1-1.81.423,3.829,3.829,0,0,1-2.988-1.22,4.838,4.838,0,0,1-1.1-3.369v-.209a4.763,4.763,0,0,1,1.095-3.283,3.8,3.8,0,0,1,2.989-1.232,3.693,3.693,0,0,1,2.61.933A3.354,3.354,0,0,1,538,150.408h-1.9a1.849,1.849,0,0,0-.527-1.271,1.7,1.7,0,0,0-1.258-.5,1.775,1.775,0,0,0-1.51.71,3.627,3.627,0,0,0-.54,2.154v.324a3.675,3.675,0,0,0,.528,2.179,1.77,1.77,0,0,0,1.522.718" fill="#12263f"/>
    <path id="Path_183732" data-name="Path 183732" d="M539.7,144.846a1.081,1.081,0,0,1,.3-.777,1.107,1.107,0,0,1,.843-.311,1.123,1.123,0,0,1,.847.311,1.071,1.071,0,0,1,.3.777,1.054,1.054,0,0,1-.3.766,1.135,1.135,0,0,1-.847.3,1.119,1.119,0,0,1-.843-.3,1.063,1.063,0,0,1-.3-.766m2.143,11.322h-2.018v-8.981h2.018Z" fill="#12263f"/>
    <path id="Path_183733" data-name="Path 183733" d="M543.827,151.594a5.294,5.294,0,0,1,.523-2.378,3.819,3.819,0,0,1,1.47-1.627,4.134,4.134,0,0,1,2.173-.568,3.92,3.92,0,0,1,2.952,1.17,4.6,4.6,0,0,1,1.224,3.1l.008.474a5.351,5.351,0,0,1-.51,2.374,3.784,3.784,0,0,1-1.461,1.619,4.176,4.176,0,0,1-2.2.572,3.9,3.9,0,0,1-3.043-1.266,4.845,4.845,0,0,1-1.141-3.375Zm2.017.175a3.611,3.611,0,0,0,.573,2.17,2,2,0,0,0,3.183-.012,4,4,0,0,0,.569-2.333,3.566,3.566,0,0,0-.586-2.158,1.972,1.972,0,0,0-3.158-.012,3.916,3.916,0,0,0-.581,2.345m2.706-8.351h2.3l-2.3,2.516-1.619-.005Z" fill="#12263f"/>
    <path id="Path_183734" data-name="Path 183734" d="M555.925,147.187l.058,1.038a3.229,3.229,0,0,1,2.615-1.2q2.8,0,2.855,3.212v5.935h-2.017V150.35a1.856,1.856,0,0,0-.369-1.267,1.556,1.556,0,0,0-1.207-.411,1.945,1.945,0,0,0-1.819,1.1v6.391h-2.017v-8.981Z" fill="#12263f"/>
    <path id="Path_183735" data-name="Path 183735" d="M282.149,254.529l53.227,33.5a5.443,5.443,0,0,0,8.342-4.607v-9.151H747.433A4.272,4.272,0,0,0,751.705,270v-40.16a4.272,4.272,0,0,0-4.272-4.272H343.718v-9.152a5.443,5.443,0,0,0-8.342-4.607l-53.227,33.5a5.443,5.443,0,0,0,0,9.213" fill="#ffe1ad"/>
    <path id="Path_183736" data-name="Path 183736" d="M338.269,289.758a6.28,6.28,0,0,1-3.36-.985l-53.227-33.5a6.318,6.318,0,0,1,0-10.693l53.227-33.5a6.319,6.319,0,0,1,9.684,5.347V224.7H747.432a5.154,5.154,0,0,1,5.147,5.148V270a5.152,5.152,0,0,1-5.147,5.146H344.593v8.278a6.238,6.238,0,0,1-3.264,5.53,6.323,6.323,0,0,1-3.06.8m-55.655-35.969,53.227,33.5a4.57,4.57,0,0,0,7-3.866V273.4H747.432a3.4,3.4,0,0,0,3.4-3.4v-40.16a3.4,3.4,0,0,0-3.4-3.4H342.843V216.419a4.568,4.568,0,0,0-7-3.866l-53.227,33.5a4.569,4.569,0,0,0,0,7.732" fill="#f9b131"/>
    <path id="Path_183737" data-name="Path 183737" d="M749.161,35.227l-53.227-33.5a5.443,5.443,0,0,0-8.342,4.607v9.151H283.877a4.272,4.272,0,0,0-4.272,4.272V59.913a4.273,4.273,0,0,0,4.272,4.273H687.592v9.151a5.444,5.444,0,0,0,8.342,4.608l53.227-33.5a5.444,5.444,0,0,0,0-9.214" fill="#ffe1ad"/>
    <path id="Path_183738" data-name="Path 183738" d="M693.04,79.669a6.315,6.315,0,0,1-3.059-.8,6.24,6.24,0,0,1-3.264-5.532V65.061H283.877a5.152,5.152,0,0,1-5.146-5.147V19.754a5.153,5.153,0,0,1,5.146-5.147h402.84V6.331A6.317,6.317,0,0,1,696.4.984l53.227,33.5a6.317,6.317,0,0,1,0,10.692L696.4,78.684a6.288,6.288,0,0,1-3.36.985M283.877,16.357a3.4,3.4,0,0,0-3.4,3.4v40.16a3.4,3.4,0,0,0,3.4,3.4h404.59V73.337a4.569,4.569,0,0,0,7,3.867L748.7,43.7a4.569,4.569,0,0,0,0-7.732l-53.226-33.5a4.569,4.569,0,0,0-7,3.867V16.357Z" fill="#f9b131"/>
    <path id="Path_183739" data-name="Path 183739" d="M208.144,141.436l-11.62-10.5a4.639,4.639,0,0,0-7.748,3.442v3.108H176.531a3.641,3.641,0,0,0-3.641,3.641v7.5a3.641,3.641,0,0,0,3.641,3.64h12.245v3.108a4.639,4.639,0,0,0,7.748,3.442l11.62-10.5a4.638,4.638,0,0,0,0-6.884" fill="#42e0e6"/>
    <path id="Path_183740" data-name="Path 183740" d="M422.872,141.436l-11.62-10.5a4.639,4.639,0,0,0-7.748,3.442v3.108H391.259a3.641,3.641,0,0,0-3.641,3.641v7.5a3.641,3.641,0,0,0,3.641,3.64H403.5v3.108a4.639,4.639,0,0,0,7.748,3.442l11.62-10.5a4.638,4.638,0,0,0,0-6.884" fill="#42e0e6"/>
    <path id="Path_183741" data-name="Path 183741" d="M637.6,141.436l-11.62-10.5a4.639,4.639,0,0,0-7.748,3.442v3.108H605.987a3.64,3.64,0,0,0-3.64,3.641v7.5a3.64,3.64,0,0,0,3.64,3.64h12.245v3.108a4.639,4.639,0,0,0,7.748,3.442l11.62-10.5a4.638,4.638,0,0,0,0-6.884" fill="#42e0e6"/>
    <path id="Path_183742" data-name="Path 183742" d="M852.328,141.436l-11.621-10.5a4.639,4.639,0,0,0-7.748,3.442v3.108H820.714a3.641,3.641,0,0,0-3.641,3.641v7.5a3.641,3.641,0,0,0,3.641,3.64h12.245v3.108a4.639,4.639,0,0,0,7.748,3.442l11.621-10.5a4.64,4.64,0,0,0,0-6.884" fill="#42e0e6"/>
    <path id="Path_183743" data-name="Path 183743" d="M449.474,40H444.5v5.1h-3.085V32.3h8.561v2.382H444.5v2.944h4.975Z" fill="#12263f"/>
    <rect id="Rectangle_38273" data-name="Rectangle 38273" width="2.971" height="13.5" transform="translate(451.275 31.594)" fill="#12263f"/>
    <path id="Path_183744" data-name="Path 183744" d="M461.734,44.066a3.053,3.053,0,0,1-2.54,1.2,3,3,0,0,1-2.369-.91,3.83,3.83,0,0,1-.8-2.614V35.585h2.962v6.178a1.065,1.065,0,0,0,1.187,1.222,1.547,1.547,0,0,0,1.45-.73v-6.67H464.6v9.509h-2.777Z" fill="#12263f"/>
    <path id="Path_183745" data-name="Path 183745" d="M469.407,35.584v9.835a3.453,3.453,0,0,1-.966,2.6,3.717,3.717,0,0,1-2.672.914,6.294,6.294,0,0,1-1.4-.15V46.544a5.628,5.628,0,0,0,.835.079,1.084,1.084,0,0,0,1.231-1.221V35.584Zm-3.19-2.452a1.32,1.32,0,0,1,.457-1.037,1.944,1.944,0,0,1,2.373,0,1.405,1.405,0,0,1,0,2.074,1.944,1.944,0,0,1-2.373,0,1.32,1.32,0,0,1-.457-1.037" fill="#12263f"/>
    <path id="Path_183746" data-name="Path 183746" d="M470.708,40.251a5.619,5.619,0,0,1,.554-2.536,3.965,3.965,0,0,1,1.591-1.709,4.794,4.794,0,0,1,2.434-.6,4.374,4.374,0,0,1,3.366,1.322,5.076,5.076,0,0,1,1.231,3.6v.1a4.928,4.928,0,0,1-1.235,3.529,4.957,4.957,0,0,1-6.6.088,4.761,4.761,0,0,1-1.327-3.3Zm2.962.185a3.545,3.545,0,0,0,.413,1.934,1.376,1.376,0,0,0,1.222.615q1.581,0,1.617-2.435v-.3q0-2.557-1.635-2.557-1.485,0-1.608,2.206Z" fill="#12263f"/>
    <path id="Path_183747" data-name="Path 183747" d="M485.3,40.268a5.8,5.8,0,0,1,.976-3.559,3.21,3.21,0,0,1,2.724-1.3,2.731,2.731,0,0,1,2.145,1V31.594h2.971v13.5H491.45l-.149-1.02a2.8,2.8,0,0,1-2.32,1.195,3.206,3.206,0,0,1-2.69-1.3,6,6,0,0,1-.993-3.7m2.962.185q0,2.531,1.477,2.531a1.457,1.457,0,0,0,1.406-.826V38.537a1.419,1.419,0,0,0-1.389-.844q-1.371,0-1.485,2.215Z" fill="#12263f"/>
    <path id="Path_183748" data-name="Path 183748" d="M500.4,45.27a4.89,4.89,0,0,1-3.542-1.305,4.509,4.509,0,0,1-1.354-3.4v-.246a5.843,5.843,0,0,1,.541-2.575,3.956,3.956,0,0,1,1.578-1.727,4.765,4.765,0,0,1,2.461-.611,4.118,4.118,0,0,1,3.164,1.244,4.887,4.887,0,0,1,1.16,3.467v1.151h-5.889a2.145,2.145,0,0,0,.694,1.257,2.066,2.066,0,0,0,1.389.456A2.657,2.657,0,0,0,502.8,42l1.354,1.6a3.771,3.771,0,0,1-1.569,1.216,5.3,5.3,0,0,1-2.184.454m-.333-7.577q-1.3,0-1.548,1.724H501.5v-.229a1.471,1.471,0,0,0-.359-1.1,1.438,1.438,0,0,0-1.081-.392" fill="#12263f"/>
    <path id="Path_183749" data-name="Path 183749" d="M518.907,40.41a5.744,5.744,0,0,1-1,3.538,3.2,3.2,0,0,1-2.694,1.322,2.741,2.741,0,0,1-2.154-.958V48.75H510.1V35.584h2.769l.088.879a2.74,2.74,0,0,1,2.241-1.054,3.223,3.223,0,0,1,2.733,1.3,5.8,5.8,0,0,1,.976,3.564Zm-2.962-.185q0-2.531-1.477-2.531a1.394,1.394,0,0,0-1.406.756v3.744a1.441,1.441,0,0,0,1.424.791q1.414,0,1.459-2.444Z" fill="#12263f"/>
    <path id="Path_183750" data-name="Path 183750" d="M525.965,38.265l-.976-.07a1.753,1.753,0,0,0-1.793.879v6.02h-2.961v-9.51h2.777l.1,1.222a2.292,2.292,0,0,1,2.083-1.4,2.9,2.9,0,0,1,.826.1Z" fill="#12263f"/>
    <path id="Path_183751" data-name="Path 183751" d="M526.343,40.251a5.62,5.62,0,0,1,.554-2.536,3.965,3.965,0,0,1,1.591-1.709,4.794,4.794,0,0,1,2.434-.6,4.374,4.374,0,0,1,3.366,1.322,5.076,5.076,0,0,1,1.231,3.6v.1a4.928,4.928,0,0,1-1.235,3.529,4.957,4.957,0,0,1-6.6.088,4.761,4.761,0,0,1-1.327-3.3Zm2.962.185a3.545,3.545,0,0,0,.413,1.934,1.376,1.376,0,0,0,1.222.615q1.581,0,1.617-2.435v-.3q0-2.557-1.635-2.557-1.485,0-1.608,2.206Z" fill="#12263f"/>
    <path id="Path_183752" data-name="Path 183752" d="M536.45,40.268a5.8,5.8,0,0,1,.976-3.559,3.21,3.21,0,0,1,2.724-1.3,2.731,2.731,0,0,1,2.145,1V31.594h2.971v13.5H542.6l-.149-1.02a2.8,2.8,0,0,1-2.32,1.195,3.206,3.206,0,0,1-2.69-1.3,6,6,0,0,1-.993-3.7m2.962.185q0,2.531,1.477,2.531a1.457,1.457,0,0,0,1.406-.826V38.537a1.419,1.419,0,0,0-1.389-.844q-1.371,0-1.485,2.215Z" fill="#12263f"/>
    <path id="Path_183753" data-name="Path 183753" d="M552.613,44.066a3.053,3.053,0,0,1-2.54,1.2,3,3,0,0,1-2.369-.91,3.83,3.83,0,0,1-.8-2.614V35.585h2.962v6.178a1.065,1.065,0,0,0,1.187,1.222,1.547,1.547,0,0,0,1.45-.73v-6.67h2.979v9.509H552.7Z" fill="#12263f"/>
    <path id="Path_183754" data-name="Path 183754" d="M561.121,42.985a1.317,1.317,0,0,0,.967-.338,1.242,1.242,0,0,0,.334-.945H565.2a3.284,3.284,0,0,1-1.121,2.566,4.165,4.165,0,0,1-2.887,1,4.218,4.218,0,0,1-3.269-1.3,5.124,5.124,0,0,1-1.2-3.6v-.123a5.79,5.79,0,0,1,.532-2.545,3.865,3.865,0,0,1,1.534-1.7,4.559,4.559,0,0,1,2.373-.594,4.117,4.117,0,0,1,2.944,1.028,3.646,3.646,0,0,1,1.09,2.786h-2.777a1.624,1.624,0,0,0-.361-1.134,1.244,1.244,0,0,0-.966-.4q-1.152,0-1.345,1.468a10.329,10.329,0,0,0-.062,1.283,4.071,4.071,0,0,0,.343,1.986,1.188,1.188,0,0,0,1.09.554" fill="#12263f"/>
    <path id="Path_183755" data-name="Path 183755" d="M569.9,33.22v2.364h1.564v2.057H569.9v4.35a1.113,1.113,0,0,0,.193.748,1.041,1.041,0,0,0,.765.21,4.364,4.364,0,0,0,.738-.052v2.118a5.463,5.463,0,0,1-1.67.255,3.1,3.1,0,0,1-2.258-.721,2.95,2.95,0,0,1-.73-2.188v-4.72h-1.213V35.584h1.213V33.22Z" fill="#12263f"/>
    <path id="Path_183756" data-name="Path 183756" d="M571.993,40.251a5.619,5.619,0,0,1,.554-2.536,3.964,3.964,0,0,1,1.591-1.709,4.794,4.794,0,0,1,2.434-.6,4.374,4.374,0,0,1,3.366,1.322,5.076,5.076,0,0,1,1.231,3.6v.1a4.928,4.928,0,0,1-1.235,3.529,4.957,4.957,0,0,1-6.605.088,4.76,4.76,0,0,1-1.327-3.3Zm2.962.185a3.546,3.546,0,0,0,.413,1.934,1.377,1.377,0,0,0,1.222.615q1.581,0,1.617-2.435v-.3q0-2.557-1.635-2.557-1.485,0-1.608,2.206Z" fill="#12263f"/>
    <path id="Path_183757" data-name="Path 183757" d="M587.453,42.422a.683.683,0,0,0-.4-.606,5.965,5.965,0,0,0-1.5-.475,6.841,6.841,0,0,1-1.829-.646,3.057,3.057,0,0,1-1.1-.971,2.321,2.321,0,0,1-.378-1.31,2.629,2.629,0,0,1,1.081-2.158,4.462,4.462,0,0,1,2.83-.848,4.934,4.934,0,0,1,3.023.853,2.665,2.665,0,0,1,1.143,2.241h-2.971q0-1.143-1.2-1.142a1.193,1.193,0,0,0-.782.259.8.8,0,0,0-.316.646.736.736,0,0,0,.386.641,3.663,3.663,0,0,0,1.235.405,10.562,10.562,0,0,1,1.49.378,2.705,2.705,0,0,1,2.144,2.645,2.49,2.49,0,0,1-1.156,2.118,5.064,5.064,0,0,1-2.992.818,5.176,5.176,0,0,1-2.18-.44,3.651,3.651,0,0,1-1.494-1.2,2.709,2.709,0,0,1-.536-1.591h2.769a1.14,1.14,0,0,0,.439.962,1.8,1.8,0,0,0,1.081.3,1.419,1.419,0,0,0,.909-.246.786.786,0,0,0,.3-.642" fill="#12263f"/>
    <path id="Path_183758" data-name="Path 183758" d="M436.589,250.085h-4.975v5.1h-3.085v-12.8h8.561v2.382h-5.476v2.944h4.975Z" fill="#12263f"/>
    <rect id="Rectangle_38274" data-name="Rectangle 38274" width="2.971" height="13.5" transform="translate(438.39 241.683)" fill="#12263f"/>
    <path id="Path_183759" data-name="Path 183759" d="M448.85,254.154a3.054,3.054,0,0,1-2.54,1.2,3,3,0,0,1-2.369-.91,3.83,3.83,0,0,1-.8-2.614v-6.161H446.1v6.178a1.065,1.065,0,0,0,1.187,1.222,1.547,1.547,0,0,0,1.45-.73v-6.67h2.979v9.509h-2.777Z" fill="#12263f"/>
    <path id="Path_183760" data-name="Path 183760" d="M456.522,245.673v9.835a3.453,3.453,0,0,1-.966,2.6,3.717,3.717,0,0,1-2.672.914,6.294,6.294,0,0,1-1.4-.15v-2.241a5.627,5.627,0,0,0,.835.079,1.084,1.084,0,0,0,1.231-1.221v-9.818Zm-3.19-2.452a1.32,1.32,0,0,1,.457-1.037,1.944,1.944,0,0,1,2.373,0,1.405,1.405,0,0,1,0,2.074,1.944,1.944,0,0,1-2.373,0,1.32,1.32,0,0,1-.457-1.037" fill="#12263f"/>
    <path id="Path_183761" data-name="Path 183761" d="M457.823,250.34a5.619,5.619,0,0,1,.554-2.536,3.964,3.964,0,0,1,1.591-1.709,4.794,4.794,0,0,1,2.434-.6,4.374,4.374,0,0,1,3.366,1.322,5.076,5.076,0,0,1,1.231,3.6v.1a4.928,4.928,0,0,1-1.235,3.529,4.957,4.957,0,0,1-6.605.088,4.761,4.761,0,0,1-1.327-3.3Zm2.962.185a3.545,3.545,0,0,0,.413,1.934,1.377,1.377,0,0,0,1.222.615q1.581,0,1.617-2.435v-.3q0-2.558-1.635-2.557-1.485,0-1.608,2.206Z" fill="#12263f"/>
    <path id="Path_183762" data-name="Path 183762" d="M473.283,252.511a.683.683,0,0,0-.4-.606,5.965,5.965,0,0,0-1.5-.475,6.841,6.841,0,0,1-1.829-.646,3.057,3.057,0,0,1-1.1-.971,2.321,2.321,0,0,1-.378-1.31,2.629,2.629,0,0,1,1.081-2.158,4.462,4.462,0,0,1,2.83-.848,4.933,4.933,0,0,1,3.023.853,2.665,2.665,0,0,1,1.143,2.241h-2.971q0-1.143-1.2-1.142a1.193,1.193,0,0,0-.782.259.8.8,0,0,0-.316.646.736.736,0,0,0,.386.641,3.663,3.663,0,0,0,1.235.4,10.564,10.564,0,0,1,1.49.378,2.705,2.705,0,0,1,2.144,2.645,2.49,2.49,0,0,1-1.156,2.118,5.064,5.064,0,0,1-2.992.818,5.176,5.176,0,0,1-2.18-.44,3.652,3.652,0,0,1-1.494-1.2,2.709,2.709,0,0,1-.536-1.591h2.769a1.14,1.14,0,0,0,.439.962,1.8,1.8,0,0,0,1.081.3,1.419,1.419,0,0,0,.909-.246.786.786,0,0,0,.3-.642" fill="#12263f"/>
    <path id="Path_183763" data-name="Path 183763" d="M481.633,250.357a5.8,5.8,0,0,1,.976-3.559,3.21,3.21,0,0,1,2.724-1.3,2.731,2.731,0,0,1,2.145,1v-4.816h2.971v13.5h-2.664l-.149-1.02a2.8,2.8,0,0,1-2.32,1.2,3.206,3.206,0,0,1-2.69-1.3,6,6,0,0,1-.993-3.7m2.962.185q0,2.53,1.477,2.531a1.457,1.457,0,0,0,1.406-.826v-3.621a1.419,1.419,0,0,0-1.389-.844q-1.371,0-1.485,2.215Z" fill="#12263f"/>
    <path id="Path_183764" data-name="Path 183764" d="M496.732,255.358a4.888,4.888,0,0,1-3.542-1.305,4.509,4.509,0,0,1-1.354-3.4v-.246a5.842,5.842,0,0,1,.541-2.575,3.956,3.956,0,0,1,1.578-1.727,4.762,4.762,0,0,1,2.461-.611,4.118,4.118,0,0,1,3.164,1.244,4.887,4.887,0,0,1,1.16,3.467v1.151h-5.889a2.141,2.141,0,0,0,.694,1.257,2.067,2.067,0,0,0,1.389.457,2.661,2.661,0,0,0,2.2-.984l1.354,1.6a3.773,3.773,0,0,1-1.569,1.217,5.3,5.3,0,0,1-2.184.453m-.334-7.576q-1.3,0-1.547,1.723h2.988v-.229a1.467,1.467,0,0,0-.36-1.1,1.436,1.436,0,0,0-1.081-.391" fill="#12263f"/>
    <path id="Path_183765" data-name="Path 183765" d="M506.392,243.221a1.32,1.32,0,0,1,.457-1.037,1.94,1.94,0,0,1,2.373,0,1.405,1.405,0,0,1,0,2.074,1.944,1.944,0,0,1-2.373,0,1.321,1.321,0,0,1-.457-1.037m3.146,11.962h-2.971v-9.51h2.971Z" fill="#12263f"/>
    <path id="Path_183766" data-name="Path 183766" d="M514.082,245.673l.1,1.116A3.225,3.225,0,0,1,516.9,245.5a2.71,2.71,0,0,1,2.218.888,4.224,4.224,0,0,1,.761,2.672v6.126H516.9v-6a1.605,1.605,0,0,0-.29-1.06,1.346,1.346,0,0,0-1.054-.338,1.412,1.412,0,0,0-1.292.686v6.715H511.3v-9.51Z" fill="#12263f"/>
    <path id="Path_183767" data-name="Path 183767" d="M522.168,255.183V247.73h-1.38v-2.057h1.38v-.756a3.284,3.284,0,0,1,.958-2.522,3.784,3.784,0,0,1,2.689-.9,5.9,5.9,0,0,1,1.389.185l.009,2.18a2.7,2.7,0,0,0-.73-.079q-1.344,0-1.344,1.16v.729h1.854v2.057h-1.854v7.453Z" fill="#12263f"/>
    <path id="Path_183768" data-name="Path 183768" d="M527.661,250.34a5.619,5.619,0,0,1,.554-2.536,3.964,3.964,0,0,1,1.591-1.709,4.794,4.794,0,0,1,2.434-.6,4.374,4.374,0,0,1,3.366,1.322,5.076,5.076,0,0,1,1.231,3.6v.1a4.928,4.928,0,0,1-1.235,3.529,4.957,4.957,0,0,1-6.6.088,4.761,4.761,0,0,1-1.327-3.3Zm2.962.185a3.545,3.545,0,0,0,.413,1.934,1.376,1.376,0,0,0,1.222.615q1.581,0,1.617-2.435v-.3q0-2.558-1.635-2.557-1.485,0-1.608,2.206Z" fill="#12263f"/>
    <path id="Path_183769" data-name="Path 183769" d="M543.894,248.354l-.976-.07a1.753,1.753,0,0,0-1.793.879v6.02h-2.961v-9.51h2.777l.1,1.222a2.292,2.292,0,0,1,2.083-1.4,2.9,2.9,0,0,1,.826.1Z" fill="#12263f"/>
    <path id="Path_183770" data-name="Path 183770" d="M547.762,245.673l.1,1.116a3.271,3.271,0,0,1,2.716-1.292,2.407,2.407,0,0,1,2.434,1.433,3.166,3.166,0,0,1,2.8-1.433q2.892,0,2.971,3.5v6.188H555.8v-6a1.817,1.817,0,0,0-.246-1.064,1.05,1.05,0,0,0-.9-.334,1.4,1.4,0,0,0-1.309.783l.009.123v6.495H550.39V249.2a1.909,1.909,0,0,0-.237-1.081,1.048,1.048,0,0,0-.906-.334,1.419,1.419,0,0,0-1.3.783v6.618h-2.962v-9.51Z" fill="#12263f"/>
    <path id="Path_183771" data-name="Path 183771" d="M565.823,255.183a3.378,3.378,0,0,1-.281-.853,2.752,2.752,0,0,1-2.285,1.028,3.374,3.374,0,0,1-2.285-.812,2.59,2.59,0,0,1-.941-2.044,2.659,2.659,0,0,1,1.143-2.338,5.823,5.823,0,0,1,3.322-.791h.914v-.5q0-1.315-1.133-1.315a.926.926,0,0,0-1.055,1.042H560.26a2.659,2.659,0,0,1,1.173-2.239,4.937,4.937,0,0,1,2.993-.86,4.322,4.322,0,0,1,2.874.888,3.084,3.084,0,0,1,1.081,2.434v4.21a4.327,4.327,0,0,0,.4,2v.15Zm-1.854-1.934a1.658,1.658,0,0,0,.919-.237,1.5,1.5,0,0,0,.522-.536v-1.521h-.861q-1.547,0-1.547,1.389a.85.85,0,0,0,.273.655.988.988,0,0,0,.694.25" fill="#12263f"/>
    <path id="Path_183772" data-name="Path 183772" d="M574.041,253.073a1.317,1.317,0,0,0,.967-.338,1.242,1.242,0,0,0,.334-.945h2.777A3.284,3.284,0,0,1,577,254.356a4.165,4.165,0,0,1-2.887,1,4.218,4.218,0,0,1-3.269-1.3,5.124,5.124,0,0,1-1.2-3.6v-.123a5.79,5.79,0,0,1,.532-2.545,3.865,3.865,0,0,1,1.534-1.695,4.559,4.559,0,0,1,2.373-.594,4.117,4.117,0,0,1,2.944,1.028,3.646,3.646,0,0,1,1.09,2.786h-2.777a1.624,1.624,0,0,0-.361-1.134,1.244,1.244,0,0,0-.966-.4q-1.152,0-1.345,1.468a10.341,10.341,0,0,0-.062,1.283,4.072,4.072,0,0,0,.343,1.986,1.188,1.188,0,0,0,1.09.554" fill="#12263f"/>
    <path id="Path_183773" data-name="Path 183773" d="M579.35,243.221a1.32,1.32,0,0,1,.457-1.037,1.94,1.94,0,0,1,2.373,0,1.4,1.4,0,0,1,0,2.074,1.944,1.944,0,0,1-2.373,0,1.321,1.321,0,0,1-.457-1.037m3.146,11.962h-2.971v-9.51H582.5Z" fill="#12263f"/>
    <path id="Path_183774" data-name="Path 183774" d="M583.947,250.34a5.619,5.619,0,0,1,.553-2.536,3.971,3.971,0,0,1,1.591-1.709,4.8,4.8,0,0,1,2.435-.6,4.375,4.375,0,0,1,3.366,1.323,5.08,5.08,0,0,1,1.23,3.6v.106a4.932,4.932,0,0,1-1.234,3.529,4.957,4.957,0,0,1-6.6.088,4.763,4.763,0,0,1-1.328-3.3Zm2.962.185a3.53,3.53,0,0,0,.413,1.933,1.373,1.373,0,0,0,1.221.616q1.582,0,1.617-2.435v-.3q0-2.558-1.634-2.557-1.487,0-1.609,2.206Zm2.021-8.842h3.129l-2.443,2.76-2.417,0Z" fill="#12263f"/>
    <path id="Path_183775" data-name="Path 183775" d="M597.148,245.673l.1,1.116a3.224,3.224,0,0,1,2.716-1.292,2.707,2.707,0,0,1,2.217.888,4.217,4.217,0,0,1,.762,2.672v6.126h-2.971v-6a1.605,1.605,0,0,0-.291-1.06,1.345,1.345,0,0,0-1.053-.338,1.411,1.411,0,0,0-1.292.686v6.715H594.37v-9.51Z" fill="#12263f"/>
  </g>
</svg>
