<svg xmlns="http://www.w3.org/2000/svg" width="246.698" height="353.862" viewBox="0 0 246.698 353.862">
  <g id="t5-p4" transform="translate(-3213.977 6738.862)">
    <path id="Path_183367" data-name="Path 183367" d="M952.171,352.362H781.946a11.809,11.809,0,0,1-11.809-11.809V77.033a11.809,11.809,0,0,1,11.809-11.809H952.171A11.809,11.809,0,0,1,963.98,77.033v263.52a11.809,11.809,0,0,1-11.809,11.809" transform="translate(2469 -6738.862)" fill="#e8feff"/>
    <path id="Rectangle_38251" data-name="Rectangle 38251" d="M11.809-1.5H182.034a13.309,13.309,0,0,1,13.309,13.309v263.52a13.309,13.309,0,0,1-13.309,13.309H11.809A13.309,13.309,0,0,1-1.5,275.329V11.809A13.309,13.309,0,0,1,11.809-1.5ZM182.034,285.638a10.321,10.321,0,0,0,10.309-10.309V11.809A10.321,10.321,0,0,0,182.034,1.5H11.809A10.321,10.321,0,0,0,1.5,11.809v263.52a10.321,10.321,0,0,0,10.309,10.309Z" transform="translate(3239.137 -6673.638)" fill="#0cc0c7"/>
    <path id="Path_183368" data-name="Path 183368" d="M991.675,42.432l-21.5,42.425h-225.2l21.5-42.425L744.977,0h225.2Z" transform="translate(2469 -6738.862)" fill="#42e0e6"/>
    <path id="Path_183369" data-name="Path 183369" d="M966.3,80.607H750.628l19.346-38.175L750.627,4.25H966.3l19.346,38.182-.172.339Zm-213.228-1.5H965.376l18.586-36.675L965.376,5.75H753.069l18.587,36.682-1.318,2.6Z" transform="translate(2469 -6738.862)" fill="#c4fdff"/>
    <path id="Path_183370" data-name="Path 183370" d="M797.238,45.082h-1.483v4.024h-2.742V37.731h4.475a5,5,0,0,1,3.164.9,3.042,3.042,0,0,1,1.141,2.537,3.7,3.7,0,0,1-.48,1.967,3.41,3.41,0,0,1-1.5,1.264l2.375,4.594v.117h-2.939Zm-1.483-2.109h1.733a1.554,1.554,0,0,0,1.176-.412,1.589,1.589,0,0,0,.4-1.147,1.606,1.606,0,0,0-.4-1.156,1.539,1.539,0,0,0-1.172-.418h-1.733Z" transform="translate(2469 -6738.862)" fill="#12263f"/>
    <path id="Path_183371" data-name="Path 183371" d="M807.419,49.261a4.344,4.344,0,0,1-3.149-1.16,4.011,4.011,0,0,1-1.2-3.019v-.219a5.176,5.176,0,0,1,.481-2.289,3.508,3.508,0,0,1,1.4-1.535,4.214,4.214,0,0,1,2.188-.543A3.654,3.654,0,0,1,809.95,41.6a4.341,4.341,0,0,1,1.031,3.082v1.024h-5.234a1.911,1.911,0,0,0,.617,1.117,1.848,1.848,0,0,0,1.235.406,2.37,2.37,0,0,0,1.953-.875l1.2,1.422a3.377,3.377,0,0,1-1.4,1.082,4.715,4.715,0,0,1-1.941.4m-.3-6.734q-1.156,0-1.375,1.531H808.4v-.2a1.3,1.3,0,0,0-.32-.98,1.27,1.27,0,0,0-.961-.348" transform="translate(2469 -6738.862)" fill="#12263f"/>
    <path id="Path_183372" data-name="Path 183372" d="M811.707,44.816a5.158,5.158,0,0,1,.867-3.164A2.856,2.856,0,0,1,815,40.5a2.434,2.434,0,0,1,1.908.89V37.1h2.639v12h-2.366l-.134-.906a2.494,2.494,0,0,1-2.061,1.062,2.853,2.853,0,0,1-2.391-1.156,5.318,5.318,0,0,1-.884-3.289m2.634.164q0,2.25,1.311,2.25A1.3,1.3,0,0,0,816.9,46.5V43.277a1.264,1.264,0,0,0-1.236-.75c-.811,0-1.253.656-1.319,1.969Z" transform="translate(2469 -6738.862)" fill="#12263f"/>
    <path id="Path_183373" data-name="Path 183373" d="M826.075,48.191a2.717,2.717,0,0,1-2.258,1.07,2.66,2.66,0,0,1-2.105-.808A3.4,3.4,0,0,1,821,46.128V40.652h2.633v5.492a.946.946,0,0,0,1.054,1.086,1.376,1.376,0,0,0,1.289-.648v-5.93h2.649V49.1h-2.469Z" transform="translate(2469 -6738.862)" fill="#12263f"/>
    <path id="Path_183374" data-name="Path 183374" d="M833.637,47.23a1.176,1.176,0,0,0,.859-.3,1.1,1.1,0,0,0,.3-.84h2.469a2.926,2.926,0,0,1-1,2.282,3.71,3.71,0,0,1-2.567.89,3.753,3.753,0,0,1-2.906-1.156,4.56,4.56,0,0,1-1.062-3.2v-.11a5.139,5.139,0,0,1,.472-2.261,3.442,3.442,0,0,1,1.364-1.508,4.058,4.058,0,0,1,2.109-.527,3.654,3.654,0,0,1,2.617.914,3.238,3.238,0,0,1,.969,2.476h-2.469a1.445,1.445,0,0,0-.32-1.008,1.107,1.107,0,0,0-.859-.351c-.683,0-1.081.433-1.2,1.305a9.3,9.3,0,0,0-.054,1.14,3.623,3.623,0,0,0,.3,1.766,1.056,1.056,0,0,0,.969.492" transform="translate(2469 -6738.862)" fill="#12263f"/>
    <path id="Path_183375" data-name="Path 183375" d="M841.95,47.23a1.176,1.176,0,0,0,.859-.3,1.1,1.1,0,0,0,.3-.84h2.469a2.926,2.926,0,0,1-1,2.282,3.709,3.709,0,0,1-2.567.89,3.753,3.753,0,0,1-2.906-1.156,4.56,4.56,0,0,1-1.062-3.2v-.11a5.139,5.139,0,0,1,.472-2.261,3.442,3.442,0,0,1,1.364-1.508,4.059,4.059,0,0,1,2.109-.527,3.654,3.654,0,0,1,2.617.914,3.238,3.238,0,0,1,.969,2.476h-2.469a1.445,1.445,0,0,0-.32-1.008,1.107,1.107,0,0,0-.859-.351c-.683,0-1.081.433-1.2,1.305a9.3,9.3,0,0,0-.054,1.14,3.623,3.623,0,0,0,.3,1.766,1.056,1.056,0,0,0,.969.492" transform="translate(2469 -6738.862)" fill="#12263f"/>
    <path id="Path_183376" data-name="Path 183376" d="M846.669,38.473a1.172,1.172,0,0,1,.406-.922,1.724,1.724,0,0,1,2.109,0,1.25,1.25,0,0,1,0,1.844,1.728,1.728,0,0,1-2.109,0,1.177,1.177,0,0,1-.406-.922m2.8,10.632h-2.641V40.652h2.641Z" transform="translate(2469 -6738.862)" fill="#12263f"/>
    <path id="Path_183377" data-name="Path 183377" d="M850.754,44.8a5,5,0,0,1,.492-2.254,3.511,3.511,0,0,1,1.415-1.519,4.239,4.239,0,0,1,2.164-.531,3.884,3.884,0,0,1,2.992,1.175,4.513,4.513,0,0,1,1.094,3.2v.093a4.382,4.382,0,0,1-1.1,3.137,3.9,3.9,0,0,1-2.973,1.16,3.942,3.942,0,0,1-2.9-1.082,4.232,4.232,0,0,1-1.18-2.933Zm2.633.164a3.143,3.143,0,0,0,.367,1.719,1.227,1.227,0,0,0,1.086.547q1.407,0,1.438-2.164V44.8q0-2.272-1.453-2.273-1.32,0-1.43,1.961Zm1.8-7.859h2.781l-2.172,2.453-2.148,0Z" transform="translate(2469 -6738.862)" fill="#12263f"/>
    <path id="Path_183378" data-name="Path 183378" d="M862.489,40.652l.086.992a2.867,2.867,0,0,1,2.414-1.148,2.407,2.407,0,0,1,1.973.789,3.753,3.753,0,0,1,.675,2.375V49.1H865V43.769a1.42,1.42,0,0,0-.258-.941,1.191,1.191,0,0,0-.938-.3,1.256,1.256,0,0,0-1.148.609V49.1H860.02V40.652Z" transform="translate(2469 -6738.862)" fill="#12263f"/>
    <path id="Path_183379" data-name="Path 183379" d="M872.746,44.816a5.158,5.158,0,0,1,.867-3.164,2.856,2.856,0,0,1,2.422-1.156,2.434,2.434,0,0,1,1.908.89V37.1h2.639v12h-2.366l-.134-.906a2.494,2.494,0,0,1-2.061,1.062A2.853,2.853,0,0,1,873.63,48.1a5.318,5.318,0,0,1-.884-3.289m2.634.164q0,2.25,1.311,2.25a1.3,1.3,0,0,0,1.252-.734V43.277a1.264,1.264,0,0,0-1.236-.75c-.811,0-1.253.656-1.319,1.969Z" transform="translate(2469 -6738.862)" fill="#12263f"/>
    <path id="Path_183380" data-name="Path 183380" d="M886.169,49.261a4.344,4.344,0,0,1-3.149-1.16,4.011,4.011,0,0,1-1.2-3.019v-.219a5.176,5.176,0,0,1,.481-2.289,3.508,3.508,0,0,1,1.4-1.535,4.214,4.214,0,0,1,2.188-.543A3.654,3.654,0,0,1,888.7,41.6a4.341,4.341,0,0,1,1.031,3.082v1.024H884.5a1.911,1.911,0,0,0,.617,1.117,1.848,1.848,0,0,0,1.235.406,2.37,2.37,0,0,0,1.953-.875l1.2,1.422a3.377,3.377,0,0,1-1.4,1.082,4.715,4.715,0,0,1-1.941.4m-.3-6.734q-1.156,0-1.375,1.531h2.656v-.2a1.3,1.3,0,0,0-.32-.98,1.27,1.27,0,0,0-.961-.348" transform="translate(2469 -6738.862)" fill="#12263f"/>
    <path id="Path_183381" data-name="Path 183381" d="M898.348,47.23a1.176,1.176,0,0,0,.859-.3,1.1,1.1,0,0,0,.3-.84h2.469a2.926,2.926,0,0,1-1,2.282,3.71,3.71,0,0,1-2.567.89A3.753,3.753,0,0,1,895.5,48.1a4.56,4.56,0,0,1-1.062-3.2v-.11a5.139,5.139,0,0,1,.472-2.261,3.442,3.442,0,0,1,1.364-1.508,4.058,4.058,0,0,1,2.109-.527A3.654,3.654,0,0,1,901,41.41a3.238,3.238,0,0,1,.969,2.476H899.5a1.445,1.445,0,0,0-.32-1.008,1.107,1.107,0,0,0-.859-.351c-.683,0-1.081.433-1.2,1.305a9.3,9.3,0,0,0-.054,1.14,3.623,3.623,0,0,0,.3,1.766,1.056,1.056,0,0,0,.969.492" transform="translate(2469 -6738.862)" fill="#12263f"/>
    <path id="Path_183382" data-name="Path 183382" d="M902.754,44.8a4.989,4.989,0,0,1,.492-2.254,3.523,3.523,0,0,1,1.414-1.52,4.252,4.252,0,0,1,2.164-.531,3.885,3.885,0,0,1,2.993,1.176,4.51,4.51,0,0,1,1.093,3.2v.094a4.385,4.385,0,0,1-1.1,3.137,3.9,3.9,0,0,1-2.973,1.16,3.942,3.942,0,0,1-2.9-1.082,4.234,4.234,0,0,1-1.18-2.934Zm2.633.164a3.146,3.146,0,0,0,.367,1.719,1.227,1.227,0,0,0,1.086.547q1.407,0,1.438-2.164V44.8q0-2.274-1.454-2.274-1.318,0-1.429,1.961Z" transform="translate(2469 -6738.862)" fill="#12263f"/>
    <path id="Path_183383" data-name="Path 183383" d="M916.5,46.73a.606.606,0,0,0-.352-.539,5.233,5.233,0,0,0-1.335-.422,6.13,6.13,0,0,1-1.626-.574,2.753,2.753,0,0,1-.976-.863,2.066,2.066,0,0,1-.336-1.165,2.33,2.33,0,0,1,.961-1.917,3.951,3.951,0,0,1,2.516-.754,4.386,4.386,0,0,1,2.687.757,2.368,2.368,0,0,1,1.016,1.993h-2.641q0-1.017-1.07-1.016a1.06,1.06,0,0,0-.7.23.713.713,0,0,0-.281.575.654.654,0,0,0,.344.57,3.249,3.249,0,0,0,1.1.359,9.385,9.385,0,0,1,1.324.336,2.407,2.407,0,0,1,1.906,2.352,2.219,2.219,0,0,1-1.027,1.883,4.509,4.509,0,0,1-2.66.726,4.619,4.619,0,0,1-1.938-.39,3.261,3.261,0,0,1-1.328-1.063,2.415,2.415,0,0,1-.477-1.414h2.461a1.02,1.02,0,0,0,.391.856,1.611,1.611,0,0,0,.961.269,1.267,1.267,0,0,0,.808-.219.7.7,0,0,0,.27-.57" transform="translate(2469 -6738.862)" fill="#12263f"/>
    <path id="Path_183384" data-name="Path 183384" d="M923.333,38.551v2.1h1.391v1.828h-1.391v3.867a.993.993,0,0,0,.172.664.921.921,0,0,0,.68.187,3.9,3.9,0,0,0,.656-.046v1.882a4.863,4.863,0,0,1-1.485.227,2.761,2.761,0,0,1-2.007-.641,2.623,2.623,0,0,1-.649-1.945V42.481h-1.078V40.653H920.7v-2.1Z" transform="translate(2469 -6738.862)" fill="#12263f"/>
    <path id="Path_183385" data-name="Path 183385" d="M925.192,44.8a4.988,4.988,0,0,1,.492-2.254,3.522,3.522,0,0,1,1.414-1.52,4.251,4.251,0,0,1,2.164-.531,3.885,3.885,0,0,1,2.993,1.176,4.51,4.51,0,0,1,1.093,3.2v.094a4.385,4.385,0,0,1-1.1,3.137,3.9,3.9,0,0,1-2.973,1.16,3.942,3.942,0,0,1-2.9-1.082,4.235,4.235,0,0,1-1.18-2.934Zm2.633.164a3.146,3.146,0,0,0,.367,1.719,1.227,1.227,0,0,0,1.086.547q1.407,0,1.438-2.164V44.8q0-2.274-1.454-2.274-1.319,0-1.429,1.961Z" transform="translate(2469 -6738.862)" fill="#12263f"/>
    <path id="Path_183386" data-name="Path 183386" d="M938.934,46.73a.606.606,0,0,0-.352-.539,5.231,5.231,0,0,0-1.335-.422,6.13,6.13,0,0,1-1.626-.574,2.753,2.753,0,0,1-.976-.863,2.066,2.066,0,0,1-.336-1.165,2.33,2.33,0,0,1,.961-1.917,3.951,3.951,0,0,1,2.516-.754,4.386,4.386,0,0,1,2.687.757,2.368,2.368,0,0,1,1.016,1.993h-2.641q0-1.017-1.07-1.016a1.06,1.06,0,0,0-.7.23.713.713,0,0,0-.281.575.654.654,0,0,0,.344.57,3.249,3.249,0,0,0,1.1.359,9.386,9.386,0,0,1,1.324.336,2.407,2.407,0,0,1,1.906,2.352,2.219,2.219,0,0,1-1.027,1.883,4.509,4.509,0,0,1-2.66.726,4.619,4.619,0,0,1-1.938-.39,3.26,3.26,0,0,1-1.328-1.063,2.415,2.415,0,0,1-.477-1.414H936.5a1.02,1.02,0,0,0,.391.856,1.611,1.611,0,0,0,.961.269,1.267,1.267,0,0,0,.808-.219.7.7,0,0,0,.27-.57" transform="translate(2469 -6738.862)" fill="#12263f"/>
    <path id="Path_183387" data-name="Path 183387" d="M786.288,109.639h5.054v1.15h-6.467V100.125h1.413Z" transform="translate(2469 -6738.862)" fill="#12263f"/>
    <path id="Path_183388" data-name="Path 183388" d="M797.626,110.789a2.821,2.821,0,0,1-.19-.835,3.022,3.022,0,0,1-2.256.982,2.8,2.8,0,0,1-1.923-.663,2.145,2.145,0,0,1-.75-1.681,2.242,2.242,0,0,1,.94-1.923,4.443,4.443,0,0,1,2.648-.684h1.318v-.624a1.52,1.52,0,0,0-.424-1.13,1.7,1.7,0,0,0-1.253-.422,1.975,1.975,0,0,0-1.215.367,1.076,1.076,0,0,0-.491.886h-1.363a1.871,1.871,0,0,1,.422-1.147,2.87,2.87,0,0,1,1.143-.875,3.832,3.832,0,0,1,1.585-.322,3.136,3.136,0,0,1,2.146.684,2.475,2.475,0,0,1,.806,1.887v3.647a4.452,4.452,0,0,0,.278,1.736v.117Zm-2.248-1.033a2.379,2.379,0,0,0,1.208-.329,1.991,1.991,0,0,0,.827-.857v-1.627h-1.061q-2.492,0-2.491,1.459a1.236,1.236,0,0,0,.425,1,1.634,1.634,0,0,0,1.092.358" transform="translate(2469 -6738.862)" fill="#12263f"/>
    <path id="Path_183389" data-name="Path 183389" d="M809.5,110.006a2.879,2.879,0,0,1-2.322.93,2.46,2.46,0,0,1-1.93-.737,3.187,3.187,0,0,1-.67-2.178v-5.157h1.356v5.121q0,1.8,1.464,1.8a2.026,2.026,0,0,0,2.065-1.156v-5.765h1.355v7.925h-1.289Z" transform="translate(2469 -6738.862)" fill="#12263f"/>
    <path id="Path_183390" data-name="Path 183390" d="M814.713,100.945v1.919h1.48v1.048h-1.48v4.92a1.1,1.1,0,0,0,.2.716.834.834,0,0,0,.673.237,3.254,3.254,0,0,0,.645-.088v1.093a4,4,0,0,1-1.039.145,1.684,1.684,0,0,1-1.37-.549,2.353,2.353,0,0,1-.461-1.56v-4.914h-1.444v-1.048h1.444v-1.919Z" transform="translate(2469 -6738.862)" fill="#12263f"/>
    <path id="Path_183391" data-name="Path 183391" d="M817.783,100.762a.808.808,0,0,1,.2-.557.76.76,0,0,1,.6-.227.771.771,0,0,1,.6.227.8.8,0,0,1,.2.557.771.771,0,0,1-.2.549.779.779,0,0,1-.6.22.767.767,0,0,1-.6-.22.776.776,0,0,1-.2-.549m1.465,10.027h-1.355v-7.925h1.355Z" transform="translate(2469 -6738.862)" fill="#12263f"/>
    <rect id="Rectangle_38252" data-name="Rectangle 38252" width="1.355" height="11.25" transform="translate(3290.533 -6639.323)" fill="#12263f"/>
    <path id="Path_183392" data-name="Path 183392" d="M825.064,100.762a.808.808,0,0,1,.2-.557.76.76,0,0,1,.6-.227.774.774,0,0,1,.6.227.807.807,0,0,1,.205.557.8.8,0,1,1-1.6,0m1.465,10.027h-1.355v-7.925h1.355Z" transform="translate(2469 -6738.862)" fill="#12263f"/>
    <path id="Path_183393" data-name="Path 183393" d="M829.971,109.684h4.636v1.105h-6.291v-1l4.373-5.808h-4.307v-1.12h6.006v.96Z" transform="translate(2469 -6738.862)" fill="#12263f"/>
    <path id="Path_183394" data-name="Path 183394" d="M841.023,110.789a2.819,2.819,0,0,1-.19-.835,3.022,3.022,0,0,1-2.256.982,2.8,2.8,0,0,1-1.923-.663,2.145,2.145,0,0,1-.75-1.681,2.242,2.242,0,0,1,.94-1.923,4.443,4.443,0,0,1,2.648-.684h1.318v-.624a1.52,1.52,0,0,0-.424-1.13,1.7,1.7,0,0,0-1.253-.422,1.975,1.975,0,0,0-1.215.367,1.076,1.076,0,0,0-.491.886h-1.363a1.871,1.871,0,0,1,.422-1.147,2.869,2.869,0,0,1,1.143-.875,3.832,3.832,0,0,1,1.585-.322,3.136,3.136,0,0,1,2.146.684,2.475,2.475,0,0,1,.806,1.887v3.647a4.452,4.452,0,0,0,.278,1.736v.117Zm-2.248-1.033a2.379,2.379,0,0,0,1.208-.329,1.991,1.991,0,0,0,.827-.857v-1.627h-1.061q-2.492,0-2.491,1.459a1.236,1.236,0,0,0,.425,1,1.634,1.634,0,0,0,1.092.358" transform="translate(2469 -6738.862)" fill="#12263f"/>
    <path id="Path_183395" data-name="Path 183395" d="M847.468,109.83a1.953,1.953,0,0,0,1.267-.439,1.555,1.555,0,0,0,.6-1.1h1.281a2.452,2.452,0,0,1-.468,1.3,3.086,3.086,0,0,1-1.154.981,3.33,3.33,0,0,1-1.527.366,3.264,3.264,0,0,1-2.574-1.08,4.3,4.3,0,0,1-.956-2.955v-.227a4.756,4.756,0,0,1,.425-2.058,3.23,3.23,0,0,1,1.219-1.4,3.465,3.465,0,0,1,1.879-.5,3.178,3.178,0,0,1,2.215.8,2.852,2.852,0,0,1,.941,2.073h-1.281a1.87,1.87,0,0,0-.583-1.264,1.811,1.811,0,0,0-1.292-.494,1.9,1.9,0,0,0-1.6.743,3.491,3.491,0,0,0-.568,2.151v.255a3.424,3.424,0,0,0,.564,2.11,1.906,1.906,0,0,0,1.611.74" transform="translate(2469 -6738.862)" fill="#12263f"/>
    <path id="Path_183396" data-name="Path 183396" d="M852.149,100.762a.809.809,0,0,1,.2-.557.76.76,0,0,1,.6-.227.77.77,0,0,1,.6.227.8.8,0,0,1,.206.557.8.8,0,1,1-1.6,0m1.465,10.027h-1.355v-7.925h1.355Z" transform="translate(2469 -6738.862)" fill="#12263f"/>
    <path id="Path_183397" data-name="Path 183397" d="M855.421,106.754a4.692,4.692,0,0,1,.458-2.1,3.436,3.436,0,0,1,1.275-1.435,3.476,3.476,0,0,1,1.864-.5,3.344,3.344,0,0,1,2.618,1.12,4.312,4.312,0,0,1,1,2.982v.094a4.734,4.734,0,0,1-.443,2.078,3.367,3.367,0,0,1-1.267,1.431,3.511,3.511,0,0,1-1.894.513,3.332,3.332,0,0,1-2.611-1.121,4.29,4.29,0,0,1-1-2.966Zm1.363.16a3.388,3.388,0,0,0,.612,2.118,2.072,2.072,0,0,0,3.277-.011,3.71,3.71,0,0,0,.607-2.267,3.387,3.387,0,0,0-.618-2.113,1.968,1.968,0,0,0-1.644-.81,1.947,1.947,0,0,0-1.618.8,3.678,3.678,0,0,0-.616,2.285m2.849-7.36h1.641l-1.963,2.153-1.091,0Z" transform="translate(2469 -6738.862)" fill="#12263f"/>
    <path id="Path_183398" data-name="Path 183398" d="M865.617,102.864l.045,1a2.883,2.883,0,0,1,2.373-1.142q2.511,0,2.533,2.834v5.237h-1.354v-5.244a1.829,1.829,0,0,0-.392-1.268,1.577,1.577,0,0,0-1.2-.41,1.959,1.959,0,0,0-1.158.351,2.389,2.389,0,0,0-.776.924v5.647h-1.355v-7.925Z" transform="translate(2469 -6738.862)" fill="#12263f"/>
    <path id="Path_183399" data-name="Path 183399" d="M876,106.761a4.64,4.64,0,0,1,.865-2.934,2.94,2.94,0,0,1,4.467-.157V99.539h1.355v11.25h-1.245l-.066-.85a2.759,2.759,0,0,1-2.263,1,2.706,2.706,0,0,1-2.245-1.127,4.7,4.7,0,0,1-.868-2.945Zm1.355.153a3.509,3.509,0,0,0,.557,2.109,1.8,1.8,0,0,0,1.538.762,1.976,1.976,0,0,0,1.882-1.156v-3.641a1.993,1.993,0,0,0-1.868-1.121,1.807,1.807,0,0,0-1.552.77,3.868,3.868,0,0,0-.557,2.277" transform="translate(2469 -6738.862)" fill="#12263f"/>
    <path id="Path_183400" data-name="Path 183400" d="M888.074,110.935a3.462,3.462,0,0,1-2.623-1.058,3.925,3.925,0,0,1-1.01-2.83v-.25a4.768,4.768,0,0,1,.45-2.106,3.518,3.518,0,0,1,1.26-1.45,3.174,3.174,0,0,1,1.754-.523,2.969,2.969,0,0,1,2.4,1.018,4.4,4.4,0,0,1,.857,2.914v.565H885.8a2.819,2.819,0,0,0,.684,1.893,2.154,2.154,0,0,0,1.666.722,2.369,2.369,0,0,0,1.217-.293,3.068,3.068,0,0,0,.871-.777l.828.644a3.327,3.327,0,0,1-2.988,1.531m-.169-7.1a1.807,1.807,0,0,0-1.377.6,2.9,2.9,0,0,0-.688,1.674h3.969V106a2.582,2.582,0,0,0-.556-1.6,1.7,1.7,0,0,0-1.348-.567" transform="translate(2469 -6738.862)" fill="#12263f"/>
    <rect id="Rectangle_38253" data-name="Rectangle 38253" width="1.355" height="11.25" transform="translate(3365.563 -6639.323)" fill="#12263f"/>
    <path id="Path_183401" data-name="Path 183401" d="M899.726,106.754a4.69,4.69,0,0,1,.458-2.1,3.421,3.421,0,0,1,1.274-1.435,3.479,3.479,0,0,1,1.864-.5,3.344,3.344,0,0,1,2.619,1.12,4.311,4.311,0,0,1,1,2.981v.1a4.715,4.715,0,0,1-.444,2.077,3.374,3.374,0,0,1-1.266,1.432,3.511,3.511,0,0,1-1.894.512,3.332,3.332,0,0,1-2.611-1.121,4.287,4.287,0,0,1-1-2.965Zm1.363.16a3.389,3.389,0,0,0,.611,2.117,2.072,2.072,0,0,0,3.278-.011,3.707,3.707,0,0,0,.607-2.266,3.387,3.387,0,0,0-.618-2.113,1.968,1.968,0,0,0-1.645-.81,1.947,1.947,0,0,0-1.618.8,3.684,3.684,0,0,0-.615,2.285" transform="translate(2469 -6738.862)" fill="#12263f"/>
    <path id="Path_183402" data-name="Path 183402" d="M913.255,108.688a1,1,0,0,0-.414-.854,4,4,0,0,0-1.443-.523,6.8,6.8,0,0,1-1.634-.527,2.35,2.35,0,0,1-.894-.733,1.758,1.758,0,0,1-.289-1.011,2.058,2.058,0,0,1,.824-1.648,3.218,3.218,0,0,1,2.106-.674,3.316,3.316,0,0,1,2.187.7,2.209,2.209,0,0,1,.838,1.779h-1.363a1.221,1.221,0,0,0-.472-.959,1.762,1.762,0,0,0-1.19-.4,1.852,1.852,0,0,0-1.157.322,1.015,1.015,0,0,0-.416.843.821.821,0,0,0,.386.739,4.763,4.763,0,0,0,1.4.475,7.371,7.371,0,0,1,1.644.543,2.374,2.374,0,0,1,.934.758,1.858,1.858,0,0,1,.3,1.08,2.026,2.026,0,0,1-.849,1.7,3.563,3.563,0,0,1-2.2.641,3.985,3.985,0,0,1-1.685-.337,2.742,2.742,0,0,1-1.146-.941,2.269,2.269,0,0,1-.414-1.308h1.355a1.4,1.4,0,0,0,.546,1.081,2.116,2.116,0,0,0,1.344.4,2.188,2.188,0,0,0,1.234-.312.957.957,0,0,0,.466-.831" transform="translate(2469 -6738.862)" fill="#12263f"/>
    <path id="Path_183403" data-name="Path 183403" d="M788.492,122.08a4.076,4.076,0,0,0-.666-.051,1.784,1.784,0,0,0-1.809,1.135v5.625h-1.355v-7.925h1.318l.022.915a2.11,2.11,0,0,1,1.89-1.061,1.388,1.388,0,0,1,.6.1Z" transform="translate(2469 -6738.862)" fill="#12263f"/>
    <path id="Path_183404" data-name="Path 183404" d="M792.888,128.935a3.462,3.462,0,0,1-2.623-1.058,3.925,3.925,0,0,1-1.01-2.83v-.25a4.768,4.768,0,0,1,.45-2.106,3.518,3.518,0,0,1,1.26-1.45,3.173,3.173,0,0,1,1.754-.523,2.969,2.969,0,0,1,2.4,1.018,4.4,4.4,0,0,1,.857,2.914v.565H790.61a2.819,2.819,0,0,0,.684,1.893,2.154,2.154,0,0,0,1.666.722,2.369,2.369,0,0,0,1.217-.293,3.067,3.067,0,0,0,.871-.777l.828.644a3.327,3.327,0,0,1-2.988,1.531m-.169-7.1a1.807,1.807,0,0,0-1.377.6,2.9,2.9,0,0,0-.688,1.674h3.969V124a2.583,2.583,0,0,0-.556-1.6,1.7,1.7,0,0,0-1.348-.567" transform="translate(2469 -6738.862)" fill="#12263f"/>
    <path id="Path_183405" data-name="Path 183405" d="M800.725,127.83a1.953,1.953,0,0,0,1.267-.439,1.555,1.555,0,0,0,.6-1.1h1.281a2.453,2.453,0,0,1-.468,1.3,3.087,3.087,0,0,1-1.154.981,3.33,3.33,0,0,1-1.527.366,3.264,3.264,0,0,1-2.574-1.08,4.3,4.3,0,0,1-.956-2.955v-.227a4.756,4.756,0,0,1,.425-2.058,3.23,3.23,0,0,1,1.219-1.4,3.465,3.465,0,0,1,1.879-.5,3.178,3.178,0,0,1,2.215.8,2.852,2.852,0,0,1,.941,2.073h-1.281a1.87,1.87,0,0,0-.583-1.264,1.811,1.811,0,0,0-1.292-.494,1.9,1.9,0,0,0-1.6.743,3.492,3.492,0,0,0-.568,2.151v.255a3.423,3.423,0,0,0,.564,2.11,1.906,1.906,0,0,0,1.611.74" transform="translate(2469 -6738.862)" fill="#12263f"/>
    <path id="Path_183406" data-name="Path 183406" d="M810.291,128.006a2.879,2.879,0,0,1-2.322.93,2.46,2.46,0,0,1-1.93-.737,3.187,3.187,0,0,1-.67-2.178v-5.157h1.356v5.121q0,1.8,1.464,1.8a2.026,2.026,0,0,0,2.065-1.156v-5.765h1.355v7.925H810.32Z" transform="translate(2469 -6738.862)" fill="#12263f"/>
    <path id="Path_183407" data-name="Path 183407" d="M817.5,122.08a4.076,4.076,0,0,0-.666-.051,1.784,1.784,0,0,0-1.809,1.135v5.625h-1.355v-7.925h1.318l.022.915a2.111,2.111,0,0,1,1.89-1.061,1.387,1.387,0,0,1,.6.1Z" transform="translate(2469 -6738.862)" fill="#12263f"/>
    <path id="Path_183408" data-name="Path 183408" d="M823.358,126.688a1,1,0,0,0-.414-.854,3.983,3.983,0,0,0-1.442-.523,6.8,6.8,0,0,1-1.634-.527,2.335,2.335,0,0,1-.894-.733,1.758,1.758,0,0,1-.289-1.011,2.056,2.056,0,0,1,.824-1.648,3.219,3.219,0,0,1,2.106-.674,3.311,3.311,0,0,1,2.186.7,2.207,2.207,0,0,1,.839,1.779h-1.363a1.221,1.221,0,0,0-.472-.959,1.763,1.763,0,0,0-1.19-.4,1.851,1.851,0,0,0-1.157.322,1.013,1.013,0,0,0-.417.843.821.821,0,0,0,.387.739,4.752,4.752,0,0,0,1.4.475,7.388,7.388,0,0,1,1.644.543,2.389,2.389,0,0,1,.934.758,1.858,1.858,0,0,1,.3,1.08,2.028,2.028,0,0,1-.849,1.7,3.565,3.565,0,0,1-2.2.641,3.985,3.985,0,0,1-1.685-.337,2.736,2.736,0,0,1-1.146-.941,2.269,2.269,0,0,1-.414-1.308h1.355a1.4,1.4,0,0,0,.546,1.081,2.116,2.116,0,0,0,1.344.4,2.19,2.19,0,0,0,1.234-.312.956.956,0,0,0,.465-.831" transform="translate(2469 -6738.862)" fill="#12263f"/>
    <path id="Path_183409" data-name="Path 183409" d="M826.119,124.754a4.689,4.689,0,0,1,.458-2.1,3.421,3.421,0,0,1,1.274-1.435,3.479,3.479,0,0,1,1.864-.5,3.344,3.344,0,0,1,2.619,1.12,4.311,4.311,0,0,1,1,2.981v.1a4.716,4.716,0,0,1-.444,2.077,3.375,3.375,0,0,1-1.266,1.432,3.511,3.511,0,0,1-1.894.512,3.332,3.332,0,0,1-2.611-1.121,4.287,4.287,0,0,1-1-2.965Zm1.363.16a3.389,3.389,0,0,0,.611,2.117,2.072,2.072,0,0,0,3.278-.011,3.707,3.707,0,0,0,.607-2.266,3.387,3.387,0,0,0-.618-2.113,1.968,1.968,0,0,0-1.645-.81,1.947,1.947,0,0,0-1.618.8,3.684,3.684,0,0,0-.615,2.285" transform="translate(2469 -6738.862)" fill="#12263f"/>
    <path id="Path_183410" data-name="Path 183410" d="M839.647,126.688a1,1,0,0,0-.414-.854,3.983,3.983,0,0,0-1.442-.523,6.8,6.8,0,0,1-1.634-.527,2.335,2.335,0,0,1-.894-.733,1.758,1.758,0,0,1-.289-1.011,2.056,2.056,0,0,1,.824-1.648,3.219,3.219,0,0,1,2.106-.674,3.311,3.311,0,0,1,2.186.7,2.207,2.207,0,0,1,.839,1.779h-1.363a1.221,1.221,0,0,0-.472-.959,1.763,1.763,0,0,0-1.19-.4,1.851,1.851,0,0,0-1.157.322,1.013,1.013,0,0,0-.417.843.821.821,0,0,0,.387.739,4.751,4.751,0,0,0,1.4.475,7.388,7.388,0,0,1,1.644.543,2.389,2.389,0,0,1,.934.758,1.858,1.858,0,0,1,.3,1.08,2.028,2.028,0,0,1-.849,1.7,3.565,3.565,0,0,1-2.2.641,3.985,3.985,0,0,1-1.685-.337,2.736,2.736,0,0,1-1.146-.941,2.269,2.269,0,0,1-.414-1.308h1.355a1.4,1.4,0,0,0,.546,1.081,2.116,2.116,0,0,0,1.344.4,2.19,2.19,0,0,0,1.234-.312.956.956,0,0,0,.465-.831" transform="translate(2469 -6738.862)" fill="#12263f"/>
    <path id="Path_183411" data-name="Path 183411" d="M846.15,124.761a4.64,4.64,0,0,1,.865-2.934,2.94,2.94,0,0,1,4.467-.157v-4.131h1.355v11.25h-1.245l-.066-.85a2.759,2.759,0,0,1-2.263,1,2.706,2.706,0,0,1-2.245-1.127,4.7,4.7,0,0,1-.868-2.945Zm1.355.153a3.509,3.509,0,0,0,.557,2.109,1.8,1.8,0,0,0,1.538.762,1.976,1.976,0,0,0,1.882-1.156v-3.641a1.993,1.993,0,0,0-1.868-1.121,1.807,1.807,0,0,0-1.552.77,3.868,3.868,0,0,0-.557,2.277" transform="translate(2469 -6738.862)" fill="#12263f"/>
    <path id="Path_183412" data-name="Path 183412" d="M858.228,128.935a3.462,3.462,0,0,1-2.623-1.058,3.925,3.925,0,0,1-1.01-2.83v-.25a4.768,4.768,0,0,1,.45-2.106,3.518,3.518,0,0,1,1.26-1.45,3.174,3.174,0,0,1,1.754-.523,2.969,2.969,0,0,1,2.4,1.018,4.4,4.4,0,0,1,.857,2.914v.565H855.95a2.819,2.819,0,0,0,.684,1.893,2.154,2.154,0,0,0,1.666.722,2.369,2.369,0,0,0,1.217-.293,3.068,3.068,0,0,0,.871-.777l.828.644a3.327,3.327,0,0,1-2.988,1.531m-.169-7.1a1.807,1.807,0,0,0-1.377.6,2.9,2.9,0,0,0-.688,1.674h3.969V124a2.582,2.582,0,0,0-.556-1.6,1.7,1.7,0,0,0-1.348-.567" transform="translate(2469 -6738.862)" fill="#12263f"/>
    <path id="Path_183413" data-name="Path 183413" d="M867.265,128.789v-6.877h-1.252v-1.048h1.252v-.813a2.7,2.7,0,0,1,.682-1.97,2.569,2.569,0,0,1,1.925-.7,3.6,3.6,0,0,1,.931.124l-.073,1.092a3.9,3.9,0,0,0-.733-.066,1.319,1.319,0,0,0-1.017.386,1.561,1.561,0,0,0-.36,1.105v.838h1.692v1.048H868.62v6.877Z" transform="translate(2469 -6738.862)" fill="#12263f"/>
    <path id="Path_183414" data-name="Path 183414" d="M871.447,124.754a4.689,4.689,0,0,1,.458-2.1,3.421,3.421,0,0,1,1.274-1.435,3.479,3.479,0,0,1,1.864-.5,3.344,3.344,0,0,1,2.619,1.12,4.311,4.311,0,0,1,1,2.981v.1a4.716,4.716,0,0,1-.444,2.077,3.375,3.375,0,0,1-1.266,1.432,3.511,3.511,0,0,1-1.894.512,3.332,3.332,0,0,1-2.611-1.121,4.287,4.287,0,0,1-1-2.965Zm1.363.16a3.389,3.389,0,0,0,.611,2.117,2.072,2.072,0,0,0,3.278-.011,3.707,3.707,0,0,0,.607-2.266,3.387,3.387,0,0,0-.618-2.113,1.968,1.968,0,0,0-1.645-.81,1.947,1.947,0,0,0-1.618.8,3.684,3.684,0,0,0-.615,2.285" transform="translate(2469 -6738.862)" fill="#12263f"/>
    <path id="Path_183415" data-name="Path 183415" d="M884.191,122.08a4.076,4.076,0,0,0-.666-.051,1.784,1.784,0,0,0-1.809,1.135v5.625h-1.355v-7.925h1.318l.022.915a2.111,2.111,0,0,1,1.89-1.061,1.387,1.387,0,0,1,.6.1Z" transform="translate(2469 -6738.862)" fill="#12263f"/>
    <path id="Path_183416" data-name="Path 183416" d="M886.711,120.864l.036.879a2.926,2.926,0,0,1,2.352-1.025,2.265,2.265,0,0,1,2.263,1.274,3,3,0,0,1,1.029-.923,3.046,3.046,0,0,1,1.5-.351q2.607,0,2.651,2.76v5.311h-1.355v-5.23a1.816,1.816,0,0,0-.388-1.27,1.709,1.709,0,0,0-1.3-.422,1.791,1.791,0,0,0-1.252.451,1.823,1.823,0,0,0-.579,1.212v5.259H890.3V123.6a1.512,1.512,0,0,0-1.692-1.728A1.813,1.813,0,0,0,886.784,123v5.786h-1.355v-7.925Z" transform="translate(2469 -6738.862)" fill="#12263f"/>
    <path id="Path_183417" data-name="Path 183417" d="M903.476,128.789a2.819,2.819,0,0,1-.19-.835,3.022,3.022,0,0,1-2.256.982,2.8,2.8,0,0,1-1.923-.663,2.145,2.145,0,0,1-.75-1.681,2.242,2.242,0,0,1,.94-1.923,4.443,4.443,0,0,1,2.648-.684h1.318v-.624a1.52,1.52,0,0,0-.424-1.13,1.7,1.7,0,0,0-1.253-.422,1.975,1.975,0,0,0-1.215.367,1.076,1.076,0,0,0-.491.886h-1.363a1.871,1.871,0,0,1,.422-1.147,2.869,2.869,0,0,1,1.143-.875,3.832,3.832,0,0,1,1.585-.322,3.136,3.136,0,0,1,2.146.684,2.475,2.475,0,0,1,.806,1.887v3.647a4.452,4.452,0,0,0,.278,1.736v.117Zm-2.248-1.033a2.379,2.379,0,0,0,1.208-.329,1.991,1.991,0,0,0,.827-.857v-1.627H902.2q-2.492,0-2.491,1.459a1.236,1.236,0,0,0,.425,1,1.634,1.634,0,0,0,1.092.358" transform="translate(2469 -6738.862)" fill="#12263f"/>
    <path id="Path_183418" data-name="Path 183418" d="M787.951,146.935a3.462,3.462,0,0,1-2.623-1.058,3.925,3.925,0,0,1-1.01-2.83v-.25a4.768,4.768,0,0,1,.45-2.106,3.518,3.518,0,0,1,1.26-1.45,3.174,3.174,0,0,1,1.754-.523,2.969,2.969,0,0,1,2.4,1.018,4.4,4.4,0,0,1,.857,2.914v.565h-5.368a2.819,2.819,0,0,0,.684,1.893,2.154,2.154,0,0,0,1.666.722,2.369,2.369,0,0,0,1.217-.293,3.068,3.068,0,0,0,.871-.777l.828.644a3.327,3.327,0,0,1-2.988,1.531m-.169-7.1a1.807,1.807,0,0,0-1.377.6,2.9,2.9,0,0,0-.688,1.674h3.969V142a2.583,2.583,0,0,0-.556-1.6,1.7,1.7,0,0,0-1.348-.567" transform="translate(2469 -6738.862)" fill="#12263f"/>
    <path id="Path_183419" data-name="Path 183419" d="M793.275,146.789v-6.877h-1.252v-1.048h1.252v-.813a2.7,2.7,0,0,1,.682-1.97,2.57,2.57,0,0,1,1.925-.7,3.6,3.6,0,0,1,.931.124l-.073,1.092a3.9,3.9,0,0,0-.733-.066,1.319,1.319,0,0,0-1.017.386,1.561,1.561,0,0,0-.36,1.1v.838h1.692v1.048H794.63v6.877Z" transform="translate(2469 -6738.862)" fill="#12263f"/>
    <path id="Path_183420" data-name="Path 183420" d="M797.824,136.762a.808.808,0,0,1,.2-.557.76.76,0,0,1,.6-.227.771.771,0,0,1,.6.227.8.8,0,0,1,.205.557.771.771,0,0,1-.205.549.779.779,0,0,1-.6.22.767.767,0,0,1-.6-.22.776.776,0,0,1-.2-.549m1.465,10.027h-1.355v-7.925h1.355Z" transform="translate(2469 -6738.862)" fill="#12263f"/>
    <path id="Path_183421" data-name="Path 183421" d="M804.635,145.83a1.953,1.953,0,0,0,1.267-.439,1.555,1.555,0,0,0,.6-1.1h1.281a2.452,2.452,0,0,1-.468,1.3,3.086,3.086,0,0,1-1.154.981,3.33,3.33,0,0,1-1.527.366,3.264,3.264,0,0,1-2.574-1.08,4.3,4.3,0,0,1-.956-2.955v-.227a4.755,4.755,0,0,1,.425-2.058,3.229,3.229,0,0,1,1.219-1.4,3.465,3.465,0,0,1,1.879-.5,3.178,3.178,0,0,1,2.215.8,2.852,2.852,0,0,1,.941,2.073H806.5a1.87,1.87,0,0,0-.583-1.264,1.811,1.811,0,0,0-1.292-.494,1.9,1.9,0,0,0-1.6.743,3.491,3.491,0,0,0-.568,2.151v.255a3.424,3.424,0,0,0,.564,2.11,1.906,1.906,0,0,0,1.611.74" transform="translate(2469 -6738.862)" fill="#12263f"/>
    <path id="Path_183422" data-name="Path 183422" d="M809.316,136.762a.808.808,0,0,1,.2-.557.76.76,0,0,1,.6-.227.77.77,0,0,1,.6.227.8.8,0,0,1,.206.557.8.8,0,1,1-1.6,0m1.465,10.027h-1.355v-7.925h1.355Z" transform="translate(2469 -6738.862)" fill="#12263f"/>
    <path id="Path_183423" data-name="Path 183423" d="M816.238,146.935a3.462,3.462,0,0,1-2.623-1.058,3.925,3.925,0,0,1-1.01-2.83v-.25a4.768,4.768,0,0,1,.45-2.106,3.518,3.518,0,0,1,1.26-1.45,3.174,3.174,0,0,1,1.754-.523,2.969,2.969,0,0,1,2.4,1.018,4.4,4.4,0,0,1,.857,2.914v.565H813.96a2.819,2.819,0,0,0,.684,1.893,2.154,2.154,0,0,0,1.666.722,2.369,2.369,0,0,0,1.217-.293,3.068,3.068,0,0,0,.871-.777l.828.644a3.327,3.327,0,0,1-2.988,1.531m-.169-7.1a1.807,1.807,0,0,0-1.377.6A2.9,2.9,0,0,0,814,142.1h3.969V142a2.582,2.582,0,0,0-.556-1.6,1.7,1.7,0,0,0-1.348-.567" transform="translate(2469 -6738.862)" fill="#12263f"/>
    <path id="Path_183424" data-name="Path 183424" d="M822.177,138.864l.045,1a2.883,2.883,0,0,1,2.373-1.142q2.511,0,2.533,2.834v5.237h-1.354v-5.244a1.829,1.829,0,0,0-.392-1.268,1.577,1.577,0,0,0-1.2-.41,1.959,1.959,0,0,0-1.158.351,2.389,2.389,0,0,0-.776.924v5.647H820.9v-7.925Z" transform="translate(2469 -6738.862)" fill="#12263f"/>
    <path id="Path_183425" data-name="Path 183425" d="M831.01,136.945v1.919h1.48v1.048h-1.48v4.92a1.1,1.1,0,0,0,.2.716.836.836,0,0,0,.674.237,3.263,3.263,0,0,0,.645-.088v1.093a4,4,0,0,1-1.04.145,1.687,1.687,0,0,1-1.37-.549,2.359,2.359,0,0,1-.461-1.56v-4.914h-1.443v-1.048h1.443v-1.919Z" transform="translate(2469 -6738.862)" fill="#12263f"/>
    <path id="Path_183426" data-name="Path 183426" d="M837.361,146.935a3.462,3.462,0,0,1-2.623-1.058,3.925,3.925,0,0,1-1.01-2.83v-.25a4.768,4.768,0,0,1,.45-2.106,3.519,3.519,0,0,1,1.26-1.45,3.174,3.174,0,0,1,1.754-.523,2.969,2.969,0,0,1,2.4,1.018,4.4,4.4,0,0,1,.857,2.914v.565h-5.368a2.818,2.818,0,0,0,.684,1.893,2.153,2.153,0,0,0,1.666.722,2.369,2.369,0,0,0,1.217-.293,3.068,3.068,0,0,0,.871-.777l.828.644a3.327,3.327,0,0,1-2.988,1.531m-.169-7.1a1.807,1.807,0,0,0-1.377.6,2.9,2.9,0,0,0-.688,1.674H839.1V142a2.582,2.582,0,0,0-.556-1.6,1.7,1.7,0,0,0-1.348-.567" transform="translate(2469 -6738.862)" fill="#12263f"/>
    <rect id="Rectangle_38254" data-name="Rectangle 38254" width="1.355" height="11.25" transform="translate(3314.85 -6603.323)" fill="#12263f"/>
    <path id="Path_183427" data-name="Path 183427" d="M849.014,142.754a4.69,4.69,0,0,1,.458-2.1,3.422,3.422,0,0,1,1.274-1.435,3.479,3.479,0,0,1,1.864-.505,3.344,3.344,0,0,1,2.619,1.12,4.311,4.311,0,0,1,1,2.981v.1a4.715,4.715,0,0,1-.444,2.077,3.374,3.374,0,0,1-1.266,1.432,3.51,3.51,0,0,1-1.894.512,3.332,3.332,0,0,1-2.611-1.121,4.288,4.288,0,0,1-1-2.965Zm1.363.16a3.389,3.389,0,0,0,.611,2.117,2.072,2.072,0,0,0,3.278-.011,3.707,3.707,0,0,0,.607-2.266,3.387,3.387,0,0,0-.618-2.113,1.968,1.968,0,0,0-1.645-.81,1.947,1.947,0,0,0-1.618.8,3.684,3.684,0,0,0-.615,2.285" transform="translate(2469 -6738.862)" fill="#12263f"/>
    <path id="Path_183428" data-name="Path 183428" d="M857.6,142.761a4.657,4.657,0,0,1,.857-2.949,2.955,2.955,0,0,1,4.533-.069l.067-.879H864.3V146.6a3.224,3.224,0,0,1-.912,2.424,3.368,3.368,0,0,1-2.45.886,4.078,4.078,0,0,1-1.677-.366,2.879,2.879,0,0,1-1.253-1l.7-.813a2.65,2.65,0,0,0,2.132,1.077,2.078,2.078,0,0,0,1.542-.557,2.128,2.128,0,0,0,.553-1.566V146a2.785,2.785,0,0,1-2.219.937,2.705,2.705,0,0,1-2.253-1.121,4.9,4.9,0,0,1-.86-3.053m1.362.153a3.545,3.545,0,0,0,.55,2.106,1.783,1.783,0,0,0,1.537.765,1.987,1.987,0,0,0,1.883-1.164V141a2.009,2.009,0,0,0-1.867-1.136,1.8,1.8,0,0,0-1.546.77,3.868,3.868,0,0,0-.557,2.277" transform="translate(2469 -6738.862)" fill="#12263f"/>
    <path id="Path_183429" data-name="Path 183429" d="M870.174,140.08a4.077,4.077,0,0,0-.666-.051,1.786,1.786,0,0,0-1.81,1.135v5.625h-1.354v-7.925h1.317l.022.915a2.113,2.113,0,0,1,1.89-1.061,1.4,1.4,0,0,1,.6.1Z" transform="translate(2469 -6738.862)" fill="#12263f"/>
    <path id="Path_183430" data-name="Path 183430" d="M876.019,146.789a2.821,2.821,0,0,1-.19-.835,3.022,3.022,0,0,1-2.256.982,2.8,2.8,0,0,1-1.923-.663,2.145,2.145,0,0,1-.75-1.681,2.242,2.242,0,0,1,.94-1.923,4.443,4.443,0,0,1,2.648-.684h1.318v-.624a1.52,1.52,0,0,0-.424-1.13,1.7,1.7,0,0,0-1.253-.422,1.975,1.975,0,0,0-1.215.367,1.076,1.076,0,0,0-.491.886H871.06a1.871,1.871,0,0,1,.422-1.147,2.87,2.87,0,0,1,1.143-.875,3.832,3.832,0,0,1,1.585-.322,3.136,3.136,0,0,1,2.146.684,2.475,2.475,0,0,1,.806,1.887v3.647a4.452,4.452,0,0,0,.278,1.736v.117Zm-2.248-1.033a2.379,2.379,0,0,0,1.208-.329,1.991,1.991,0,0,0,.827-.857v-1.627h-1.061q-2.492,0-2.491,1.459a1.236,1.236,0,0,0,.425,1,1.634,1.634,0,0,0,1.092.358" transform="translate(2469 -6738.862)" fill="#12263f"/>
    <path id="Path_183431" data-name="Path 183431" d="M882.67,142.761a4.64,4.64,0,0,1,.865-2.934A2.94,2.94,0,0,1,888,139.67v-4.131h1.355v11.25h-1.245l-.066-.85a2.759,2.759,0,0,1-2.263,1,2.706,2.706,0,0,1-2.245-1.127,4.7,4.7,0,0,1-.868-2.945Zm1.355.153a3.51,3.51,0,0,0,.557,2.109,1.8,1.8,0,0,0,1.538.762A1.976,1.976,0,0,0,888,144.629v-3.641a1.993,1.993,0,0,0-1.868-1.121,1.807,1.807,0,0,0-1.552.77,3.868,3.868,0,0,0-.557,2.277" transform="translate(2469 -6738.862)" fill="#12263f"/>
    <path id="Path_183432" data-name="Path 183432" d="M891.466,136.762a.809.809,0,0,1,.2-.557.758.758,0,0,1,.6-.227.773.773,0,0,1,.6.227.8.8,0,0,1,.205.557.771.771,0,0,1-.205.549.781.781,0,0,1-.6.22.765.765,0,0,1-.6-.22.777.777,0,0,1-.2-.549m1.465,10.027h-1.355v-7.925h1.355Z" transform="translate(2469 -6738.862)" fill="#12263f"/>
    <path id="Path_183433" data-name="Path 183433" d="M899.714,144.688a1,1,0,0,0-.415-.854,3.983,3.983,0,0,0-1.442-.523,6.8,6.8,0,0,1-1.634-.527,2.335,2.335,0,0,1-.894-.733,1.758,1.758,0,0,1-.289-1.011,2.056,2.056,0,0,1,.824-1.648,3.218,3.218,0,0,1,2.106-.674,3.311,3.311,0,0,1,2.186.7,2.207,2.207,0,0,1,.839,1.779h-1.363a1.221,1.221,0,0,0-.472-.959,1.763,1.763,0,0,0-1.19-.4,1.85,1.85,0,0,0-1.157.322,1.013,1.013,0,0,0-.417.843.822.822,0,0,0,.387.739,4.751,4.751,0,0,0,1.4.475,7.39,7.39,0,0,1,1.644.543,2.382,2.382,0,0,1,.934.758,1.858,1.858,0,0,1,.3,1.08,2.029,2.029,0,0,1-.849,1.7,3.566,3.566,0,0,1-2.2.641,3.985,3.985,0,0,1-1.685-.337,2.736,2.736,0,0,1-1.146-.941,2.269,2.269,0,0,1-.414-1.308h1.355a1.4,1.4,0,0,0,.546,1.081,2.116,2.116,0,0,0,1.344.4,2.19,2.19,0,0,0,1.234-.312.957.957,0,0,0,.466-.831" transform="translate(2469 -6738.862)" fill="#12263f"/>
    <path id="Path_183434" data-name="Path 183434" d="M904.108,138.864l.036.879a2.926,2.926,0,0,1,2.352-1.025,2.265,2.265,0,0,1,2.263,1.274,3,3,0,0,1,1.029-.923,3.046,3.046,0,0,1,1.5-.351q2.607,0,2.651,2.76v5.311h-1.355v-5.23a1.816,1.816,0,0,0-.388-1.27,1.709,1.709,0,0,0-1.3-.422,1.791,1.791,0,0,0-1.252.451,1.823,1.823,0,0,0-.579,1.212v5.259H907.7V141.6a1.512,1.512,0,0,0-1.692-1.728A1.813,1.813,0,0,0,904.181,141v5.786h-1.355v-7.925Z" transform="translate(2469 -6738.862)" fill="#12263f"/>
    <path id="Path_183435" data-name="Path 183435" d="M915.988,136.762a.808.808,0,0,1,.2-.557.76.76,0,0,1,.6-.227.771.771,0,0,1,.6.227.8.8,0,0,1,.205.557.771.771,0,0,1-.205.549.779.779,0,0,1-.6.22.767.767,0,0,1-.6-.22.776.776,0,0,1-.2-.549m1.465,10.027H916.1v-7.925h1.355Z" transform="translate(2469 -6738.862)" fill="#12263f"/>
    <path id="Path_183436" data-name="Path 183436" d="M920.9,138.864l.045,1a2.883,2.883,0,0,1,2.373-1.142q2.511,0,2.533,2.834v5.237H924.5v-5.244a1.829,1.829,0,0,0-.392-1.268,1.577,1.577,0,0,0-1.2-.41,1.959,1.959,0,0,0-1.158.351,2.389,2.389,0,0,0-.776.924v5.647h-1.355v-7.925Z" transform="translate(2469 -6738.862)" fill="#12263f"/>
    <path id="Path_183437" data-name="Path 183437" d="M932.79,146.006a2.879,2.879,0,0,1-2.322.93,2.459,2.459,0,0,1-1.93-.737,3.187,3.187,0,0,1-.67-2.178v-5.157h1.356v5.121q0,1.8,1.464,1.8a2.026,2.026,0,0,0,2.065-1.156v-5.765h1.355v7.925h-1.289Z" transform="translate(2469 -6738.862)" fill="#12263f"/>
    <path id="Path_183438" data-name="Path 183438" d="M936.173,136.762a.809.809,0,0,1,.2-.557.758.758,0,0,1,.6-.227.774.774,0,0,1,.6.227.8.8,0,0,1,.2.557.771.771,0,0,1-.2.549.781.781,0,0,1-.6.22.765.765,0,0,1-.6-.22.777.777,0,0,1-.2-.549m1.465,10.027h-1.355v-7.925h1.355Z" transform="translate(2469 -6738.862)" fill="#12263f"/>
    <path id="Path_183439" data-name="Path 183439" d="M943.636,140.08a4.077,4.077,0,0,0-.666-.051,1.784,1.784,0,0,0-1.809,1.135v5.625h-1.355v-7.925h1.318l.022.915a2.111,2.111,0,0,1,1.89-1.061,1.387,1.387,0,0,1,.6.1Z" transform="translate(2469 -6738.862)" fill="#12263f"/>
    <rect id="Rectangle_38255" data-name="Rectangle 38255" width="1.355" height="11.25" transform="translate(3253.779 -6585.323)" fill="#12263f"/>
    <path id="Path_183440" data-name="Path 183440" d="M787.943,160.754a4.69,4.69,0,0,1,.458-2.1,3.421,3.421,0,0,1,1.274-1.435,3.479,3.479,0,0,1,1.864-.505,3.344,3.344,0,0,1,2.619,1.12,4.311,4.311,0,0,1,1,2.981v.1a4.715,4.715,0,0,1-.444,2.077,3.374,3.374,0,0,1-1.266,1.432,3.51,3.51,0,0,1-1.894.512,3.332,3.332,0,0,1-2.611-1.121,4.287,4.287,0,0,1-1-2.965Zm1.363.16a3.389,3.389,0,0,0,.611,2.117,2.072,2.072,0,0,0,3.278-.011,3.707,3.707,0,0,0,.607-2.266,3.387,3.387,0,0,0-.618-2.113,1.968,1.968,0,0,0-1.645-.81,1.947,1.947,0,0,0-1.618.8,3.684,3.684,0,0,0-.615,2.285" transform="translate(2469 -6738.862)" fill="#12263f"/>
    <path id="Path_183441" data-name="Path 183441" d="M801.471,162.688a1,1,0,0,0-.414-.854,3.983,3.983,0,0,0-1.442-.523,6.8,6.8,0,0,1-1.634-.527,2.335,2.335,0,0,1-.894-.733,1.758,1.758,0,0,1-.289-1.011,2.056,2.056,0,0,1,.824-1.648,3.218,3.218,0,0,1,2.106-.674,3.311,3.311,0,0,1,2.186.7,2.207,2.207,0,0,1,.839,1.779H801.39a1.221,1.221,0,0,0-.472-.959,1.763,1.763,0,0,0-1.19-.4,1.85,1.85,0,0,0-1.157.322,1.013,1.013,0,0,0-.417.843.822.822,0,0,0,.387.739,4.751,4.751,0,0,0,1.4.475,7.389,7.389,0,0,1,1.644.543,2.389,2.389,0,0,1,.934.758,1.858,1.858,0,0,1,.3,1.08,2.029,2.029,0,0,1-.849,1.7,3.566,3.566,0,0,1-2.2.641,3.985,3.985,0,0,1-1.685-.337,2.736,2.736,0,0,1-1.146-.941,2.269,2.269,0,0,1-.414-1.308h1.355a1.4,1.4,0,0,0,.546,1.081,2.117,2.117,0,0,0,1.344.4,2.19,2.19,0,0,0,1.234-.312.956.956,0,0,0,.465-.831" transform="translate(2469 -6738.862)" fill="#12263f"/>
    <path id="Path_183442" data-name="Path 183442" d="M811.483,163.83a1.953,1.953,0,0,0,1.267-.439,1.555,1.555,0,0,0,.6-1.1h1.281a2.452,2.452,0,0,1-.468,1.3,3.087,3.087,0,0,1-1.154.981,3.33,3.33,0,0,1-1.527.366,3.264,3.264,0,0,1-2.574-1.08,4.3,4.3,0,0,1-.956-2.955v-.227a4.756,4.756,0,0,1,.425-2.058,3.23,3.23,0,0,1,1.219-1.4,3.465,3.465,0,0,1,1.879-.5,3.178,3.178,0,0,1,2.215.8,2.851,2.851,0,0,1,.941,2.073h-1.281a1.87,1.87,0,0,0-.583-1.264,1.811,1.811,0,0,0-1.292-.494,1.9,1.9,0,0,0-1.6.743,3.492,3.492,0,0,0-.568,2.151v.255a3.423,3.423,0,0,0,.564,2.11,1.906,1.906,0,0,0,1.611.74" transform="translate(2469 -6738.862)" fill="#12263f"/>
    <path id="Path_183443" data-name="Path 183443" d="M815.8,160.754a4.69,4.69,0,0,1,.458-2.1,3.421,3.421,0,0,1,1.274-1.435,3.479,3.479,0,0,1,1.864-.505,3.344,3.344,0,0,1,2.619,1.12,4.311,4.311,0,0,1,1,2.981v.1a4.715,4.715,0,0,1-.444,2.077,3.374,3.374,0,0,1-1.266,1.432,3.511,3.511,0,0,1-1.894.512,3.332,3.332,0,0,1-2.611-1.121,4.287,4.287,0,0,1-1-2.965Zm1.363.16a3.389,3.389,0,0,0,.611,2.117,2.072,2.072,0,0,0,3.278-.011,3.707,3.707,0,0,0,.607-2.266,3.387,3.387,0,0,0-.618-2.113,1.968,1.968,0,0,0-1.645-.81,1.947,1.947,0,0,0-1.618.8,3.684,3.684,0,0,0-.615,2.285" transform="translate(2469 -6738.862)" fill="#12263f"/>
    <path id="Path_183444" data-name="Path 183444" d="M829.325,162.688a1,1,0,0,0-.414-.854,3.983,3.983,0,0,0-1.442-.523,6.8,6.8,0,0,1-1.634-.527,2.335,2.335,0,0,1-.894-.733,1.758,1.758,0,0,1-.289-1.011,2.056,2.056,0,0,1,.824-1.648,3.218,3.218,0,0,1,2.106-.674,3.311,3.311,0,0,1,2.186.7,2.207,2.207,0,0,1,.839,1.779h-1.363a1.221,1.221,0,0,0-.472-.959,1.763,1.763,0,0,0-1.19-.4,1.85,1.85,0,0,0-1.157.322,1.013,1.013,0,0,0-.417.843.822.822,0,0,0,.387.739,4.751,4.751,0,0,0,1.4.475,7.39,7.39,0,0,1,1.644.543,2.389,2.389,0,0,1,.934.758,1.858,1.858,0,0,1,.3,1.08,2.029,2.029,0,0,1-.849,1.7,3.566,3.566,0,0,1-2.2.641,3.985,3.985,0,0,1-1.685-.337,2.736,2.736,0,0,1-1.146-.941,2.269,2.269,0,0,1-.414-1.308h1.355a1.4,1.4,0,0,0,.546,1.081,2.116,2.116,0,0,0,1.344.4,2.19,2.19,0,0,0,1.234-.312.956.956,0,0,0,.465-.831" transform="translate(2469 -6738.862)" fill="#12263f"/>
    <path id="Path_183445" data-name="Path 183445" d="M834.283,154.945v1.919h1.48v1.048h-1.48v4.92a1.1,1.1,0,0,0,.2.716.836.836,0,0,0,.674.237,3.263,3.263,0,0,0,.645-.088v1.093a4,4,0,0,1-1.04.145,1.687,1.687,0,0,1-1.37-.549,2.358,2.358,0,0,1-.461-1.56v-4.914h-1.443v-1.048h1.443v-1.919Z" transform="translate(2469 -6738.862)" fill="#12263f"/>
    <path id="Path_183446" data-name="Path 183446" d="M836.84,160.754a4.69,4.69,0,0,1,.458-2.1,3.422,3.422,0,0,1,1.274-1.435,3.479,3.479,0,0,1,1.864-.505,3.344,3.344,0,0,1,2.619,1.12,4.311,4.311,0,0,1,1,2.981v.1a4.716,4.716,0,0,1-.444,2.077,3.375,3.375,0,0,1-1.266,1.432,3.51,3.51,0,0,1-1.894.512,3.332,3.332,0,0,1-2.611-1.121,4.287,4.287,0,0,1-1-2.965Zm1.363.16a3.389,3.389,0,0,0,.611,2.117,2.072,2.072,0,0,0,3.278-.011,3.707,3.707,0,0,0,.607-2.266,3.387,3.387,0,0,0-.618-2.113,1.968,1.968,0,0,0-1.645-.81,1.947,1.947,0,0,0-1.618.8,3.684,3.684,0,0,0-.615,2.285" transform="translate(2469 -6738.862)" fill="#12263f"/>
    <path id="Path_183447" data-name="Path 183447" d="M850.368,162.688a1,1,0,0,0-.414-.854,3.982,3.982,0,0,0-1.442-.523,6.8,6.8,0,0,1-1.634-.527,2.334,2.334,0,0,1-.894-.733,1.758,1.758,0,0,1-.289-1.011,2.056,2.056,0,0,1,.824-1.648,3.219,3.219,0,0,1,2.106-.674,3.311,3.311,0,0,1,2.186.7,2.207,2.207,0,0,1,.839,1.779h-1.363a1.221,1.221,0,0,0-.472-.959,1.763,1.763,0,0,0-1.19-.4,1.85,1.85,0,0,0-1.157.322,1.013,1.013,0,0,0-.417.843.821.821,0,0,0,.387.739,4.751,4.751,0,0,0,1.4.475,7.388,7.388,0,0,1,1.644.543,2.389,2.389,0,0,1,.934.758,1.858,1.858,0,0,1,.3,1.08,2.028,2.028,0,0,1-.849,1.7,3.565,3.565,0,0,1-2.2.641,3.985,3.985,0,0,1-1.685-.337,2.735,2.735,0,0,1-1.146-.941,2.269,2.269,0,0,1-.414-1.308h1.355a1.4,1.4,0,0,0,.546,1.081,2.116,2.116,0,0,0,1.344.4,2.19,2.19,0,0,0,1.234-.312.956.956,0,0,0,.465-.831" transform="translate(2469 -6738.862)" fill="#12263f"/>
    <path id="Path_183448" data-name="Path 183448" d="M859.794,162.8l1.846-5.94h1.45l-3.186,9.147q-.741,1.977-2.351,1.979l-.256-.023-.506-.1v-1.1l.366.029a1.819,1.819,0,0,0,1.074-.277,2.033,2.033,0,0,0,.632-1.019l.3-.806-2.827-7.836h1.479Z" transform="translate(2469 -6738.862)" fill="#12263f"/>
    <path id="Path_183449" data-name="Path 183449" d="M867.682,160.761a4.64,4.64,0,0,1,.865-2.934,2.94,2.94,0,0,1,4.467-.157v-4.131h1.355v11.25h-1.245l-.066-.85a2.759,2.759,0,0,1-2.263,1,2.707,2.707,0,0,1-2.245-1.127,4.7,4.7,0,0,1-.868-2.945Zm1.355.153a3.51,3.51,0,0,0,.557,2.109,1.8,1.8,0,0,0,1.538.762,1.976,1.976,0,0,0,1.882-1.156v-3.641a1.993,1.993,0,0,0-1.868-1.121,1.807,1.807,0,0,0-1.552.77,3.868,3.868,0,0,0-.557,2.277" transform="translate(2469 -6738.862)" fill="#12263f"/>
    <path id="Path_183450" data-name="Path 183450" d="M879.759,164.935a3.463,3.463,0,0,1-2.623-1.058,3.925,3.925,0,0,1-1.01-2.83v-.25a4.768,4.768,0,0,1,.45-2.106,3.525,3.525,0,0,1,1.26-1.45,3.177,3.177,0,0,1,1.755-.523,2.967,2.967,0,0,1,2.4,1.018,4.4,4.4,0,0,1,.857,2.914v.565h-5.367a2.813,2.813,0,0,0,.683,1.893,2.154,2.154,0,0,0,1.666.722,2.366,2.366,0,0,0,1.217-.293,3.068,3.068,0,0,0,.871-.777l.828.644a3.327,3.327,0,0,1-2.988,1.531m-.168-7.1a1.8,1.8,0,0,0-1.377.6,2.884,2.884,0,0,0-.688,1.674h3.969V160a2.577,2.577,0,0,0-.557-1.6,1.7,1.7,0,0,0-1.347-.567" transform="translate(2469 -6738.862)" fill="#12263f"/>
    <path id="Path_183451" data-name="Path 183451" d="M891.42,164.935a3.462,3.462,0,0,1-2.623-1.058,3.925,3.925,0,0,1-1.01-2.83v-.25a4.768,4.768,0,0,1,.45-2.106,3.518,3.518,0,0,1,1.26-1.45,3.174,3.174,0,0,1,1.754-.523,2.969,2.969,0,0,1,2.4,1.018,4.4,4.4,0,0,1,.857,2.914v.565h-5.368a2.819,2.819,0,0,0,.684,1.893,2.154,2.154,0,0,0,1.666.722,2.369,2.369,0,0,0,1.217-.293,3.068,3.068,0,0,0,.871-.777l.828.644a3.327,3.327,0,0,1-2.988,1.531m-.169-7.1a1.807,1.807,0,0,0-1.377.6,2.9,2.9,0,0,0-.688,1.674h3.969V160a2.582,2.582,0,0,0-.556-1.6,1.7,1.7,0,0,0-1.348-.567" transform="translate(2469 -6738.862)" fill="#12263f"/>
    <path id="Path_183452" data-name="Path 183452" d="M900.692,162.688a1,1,0,0,0-.414-.854,3.983,3.983,0,0,0-1.442-.523,6.8,6.8,0,0,1-1.634-.527,2.335,2.335,0,0,1-.894-.733,1.758,1.758,0,0,1-.289-1.011,2.056,2.056,0,0,1,.824-1.648,3.218,3.218,0,0,1,2.106-.674,3.311,3.311,0,0,1,2.186.7,2.208,2.208,0,0,1,.839,1.779h-1.363a1.221,1.221,0,0,0-.472-.959,1.763,1.763,0,0,0-1.19-.4,1.85,1.85,0,0,0-1.157.322,1.013,1.013,0,0,0-.417.843.822.822,0,0,0,.387.739,4.751,4.751,0,0,0,1.4.475,7.39,7.39,0,0,1,1.644.543,2.389,2.389,0,0,1,.934.758,1.858,1.858,0,0,1,.3,1.08,2.029,2.029,0,0,1-.849,1.7,3.566,3.566,0,0,1-2.2.641,3.985,3.985,0,0,1-1.685-.337,2.736,2.736,0,0,1-1.146-.941,2.269,2.269,0,0,1-.414-1.308H897.1a1.4,1.4,0,0,0,.546,1.081,2.116,2.116,0,0,0,1.344.4,2.19,2.19,0,0,0,1.234-.312.956.956,0,0,0,.465-.831" transform="translate(2469 -6738.862)" fill="#12263f"/>
    <path id="Path_183453" data-name="Path 183453" d="M905.65,154.945v1.919h1.48v1.048h-1.48v4.92a1.1,1.1,0,0,0,.2.716.836.836,0,0,0,.674.237,3.263,3.263,0,0,0,.645-.088v1.093a4,4,0,0,1-1.04.145,1.687,1.687,0,0,1-1.37-.549,2.358,2.358,0,0,1-.461-1.56v-4.914h-1.443v-1.048H904.3v-1.919Z" transform="translate(2469 -6738.862)" fill="#12263f"/>
    <path id="Path_183454" data-name="Path 183454" d="M913.6,164.789a2.821,2.821,0,0,1-.19-.835,3.022,3.022,0,0,1-2.256.982,2.8,2.8,0,0,1-1.923-.663,2.145,2.145,0,0,1-.75-1.681,2.242,2.242,0,0,1,.94-1.923,4.443,4.443,0,0,1,2.648-.684h1.318v-.624a1.52,1.52,0,0,0-.424-1.13,1.7,1.7,0,0,0-1.253-.422,1.975,1.975,0,0,0-1.215.367,1.076,1.076,0,0,0-.491.886h-1.363a1.871,1.871,0,0,1,.422-1.147,2.87,2.87,0,0,1,1.143-.875,3.832,3.832,0,0,1,1.585-.322,3.136,3.136,0,0,1,2.146.684,2.475,2.475,0,0,1,.806,1.887v3.647a4.452,4.452,0,0,0,.278,1.736v.117Zm-2.248-1.033a2.379,2.379,0,0,0,1.208-.329,1.991,1.991,0,0,0,.827-.857v-1.627h-1.061q-2.492,0-2.491,1.459a1.236,1.236,0,0,0,.425,1,1.634,1.634,0,0,0,1.092.358" transform="translate(2469 -6738.862)" fill="#12263f"/>
    <path id="Path_183455" data-name="Path 183455" d="M785.328,182.789v-6.877h-1.252v-1.048h1.252v-.813a2.7,2.7,0,0,1,.682-1.97,2.57,2.57,0,0,1,1.925-.7,3.6,3.6,0,0,1,.931.124l-.073,1.092a3.9,3.9,0,0,0-.733-.066,1.319,1.319,0,0,0-1.017.386,1.561,1.561,0,0,0-.36,1.1v.838h1.692v1.048h-1.692v6.877Z" transform="translate(2469 -6738.862)" fill="#12263f"/>
    <path id="Path_183456" data-name="Path 183456" d="M789.51,178.754a4.69,4.69,0,0,1,.458-2.1,3.421,3.421,0,0,1,1.274-1.435,3.479,3.479,0,0,1,1.864-.505,3.344,3.344,0,0,1,2.619,1.12,4.311,4.311,0,0,1,1,2.981v.1a4.715,4.715,0,0,1-.444,2.077,3.374,3.374,0,0,1-1.266,1.432,3.511,3.511,0,0,1-1.894.512,3.332,3.332,0,0,1-2.611-1.121,4.287,4.287,0,0,1-1-2.965Zm1.363.16a3.389,3.389,0,0,0,.611,2.117,2.072,2.072,0,0,0,3.278-.011,3.707,3.707,0,0,0,.607-2.266,3.387,3.387,0,0,0-.618-2.113,1.968,1.968,0,0,0-1.645-.81,1.947,1.947,0,0,0-1.618.8,3.684,3.684,0,0,0-.615,2.285" transform="translate(2469 -6738.862)" fill="#12263f"/>
    <path id="Path_183457" data-name="Path 183457" d="M802.253,176.08a4.077,4.077,0,0,0-.666-.051,1.784,1.784,0,0,0-1.809,1.135v5.625h-1.355v-7.925h1.318l.022.915a2.11,2.11,0,0,1,1.89-1.061,1.387,1.387,0,0,1,.6.1Z" transform="translate(2469 -6738.862)" fill="#12263f"/>
    <path id="Path_183458" data-name="Path 183458" d="M804.774,174.864l.036.879a2.926,2.926,0,0,1,2.352-1.025,2.265,2.265,0,0,1,2.263,1.274,3,3,0,0,1,1.029-.923,3.046,3.046,0,0,1,1.5-.351q2.607,0,2.651,2.76v5.311h-1.355v-5.23a1.816,1.816,0,0,0-.388-1.27,1.709,1.709,0,0,0-1.3-.422,1.791,1.791,0,0,0-1.252.451,1.823,1.823,0,0,0-.579,1.212v5.259h-1.362V177.6a1.512,1.512,0,0,0-1.692-1.728A1.813,1.813,0,0,0,804.847,177v5.786h-1.355v-7.925Z" transform="translate(2469 -6738.862)" fill="#12263f"/>
    <path id="Path_183459" data-name="Path 183459" d="M821.539,182.789a2.819,2.819,0,0,1-.19-.835,3.022,3.022,0,0,1-2.256.982,2.8,2.8,0,0,1-1.923-.663,2.145,2.145,0,0,1-.75-1.681,2.242,2.242,0,0,1,.94-1.923,4.443,4.443,0,0,1,2.648-.684h1.318v-.624a1.52,1.52,0,0,0-.424-1.13,1.7,1.7,0,0,0-1.253-.422,1.975,1.975,0,0,0-1.215.367,1.076,1.076,0,0,0-.491.886H816.58a1.871,1.871,0,0,1,.422-1.147,2.87,2.87,0,0,1,1.143-.875,3.832,3.832,0,0,1,1.585-.322,3.136,3.136,0,0,1,2.146.684,2.475,2.475,0,0,1,.806,1.887v3.647a4.451,4.451,0,0,0,.278,1.736v.117Zm-2.248-1.033a2.379,2.379,0,0,0,1.208-.329,1.991,1.991,0,0,0,.827-.857v-1.627h-1.061q-2.492,0-2.491,1.459a1.236,1.236,0,0,0,.425,1,1.634,1.634,0,0,0,1.092.358" transform="translate(2469 -6738.862)" fill="#12263f"/>
    <path id="Path_183460" data-name="Path 183460" d="M835.228,178.914a4.713,4.713,0,0,1-.834,2.919,2.667,2.667,0,0,1-2.242,1.1,2.761,2.761,0,0,1-2.322-1.063l-.065.916h-1.246v-11.25h1.356v4.2a2.745,2.745,0,0,1,2.263-1.019,2.683,2.683,0,0,1,2.266,1.091,4.85,4.85,0,0,1,.824,2.988Zm-1.355-.153a3.666,3.666,0,0,0-.534-2.139,1.771,1.771,0,0,0-1.538-.755,1.988,1.988,0,0,0-1.926,1.247v3.427a2.042,2.042,0,0,0,1.94,1.244,1.763,1.763,0,0,0,1.517-.753,3.905,3.905,0,0,0,.541-2.271" transform="translate(2469 -6738.862)" fill="#12263f"/>
    <path id="Path_183461" data-name="Path 183461" d="M840.224,182.935a3.462,3.462,0,0,1-2.623-1.058,3.925,3.925,0,0,1-1.01-2.83v-.25a4.768,4.768,0,0,1,.45-2.106,3.518,3.518,0,0,1,1.26-1.45,3.174,3.174,0,0,1,1.754-.523,2.969,2.969,0,0,1,2.4,1.018,4.4,4.4,0,0,1,.857,2.914v.565h-5.368a2.819,2.819,0,0,0,.684,1.893,2.154,2.154,0,0,0,1.666.722,2.369,2.369,0,0,0,1.217-.293,3.067,3.067,0,0,0,.871-.777l.828.644a3.327,3.327,0,0,1-2.988,1.531m-.169-7.1a1.807,1.807,0,0,0-1.377.6,2.9,2.9,0,0,0-.688,1.674h3.969V178a2.583,2.583,0,0,0-.556-1.6,1.7,1.7,0,0,0-1.348-.567" transform="translate(2469 -6738.862)" fill="#12263f"/>
    <path id="Path_183462" data-name="Path 183462" d="M846.164,174.864l.045,1a2.883,2.883,0,0,1,2.373-1.142q2.511,0,2.533,2.834v5.237h-1.354v-5.244a1.829,1.829,0,0,0-.392-1.268,1.577,1.577,0,0,0-1.2-.41,1.959,1.959,0,0,0-1.158.351,2.389,2.389,0,0,0-.776.924v5.647h-1.355v-7.925Z" transform="translate(2469 -6738.862)" fill="#12263f"/>
    <path id="Path_183463" data-name="Path 183463" d="M856.448,182.935a3.462,3.462,0,0,1-2.623-1.058,3.925,3.925,0,0,1-1.01-2.83v-.25a4.768,4.768,0,0,1,.45-2.106,3.518,3.518,0,0,1,1.26-1.45,3.174,3.174,0,0,1,1.754-.523,2.969,2.969,0,0,1,2.4,1.018,4.4,4.4,0,0,1,.857,2.914v.565H854.17a2.819,2.819,0,0,0,.684,1.893,2.154,2.154,0,0,0,1.666.722,2.369,2.369,0,0,0,1.217-.293,3.067,3.067,0,0,0,.871-.777l.828.644a3.327,3.327,0,0,1-2.988,1.531m-.169-7.1a1.807,1.807,0,0,0-1.377.6,2.9,2.9,0,0,0-.688,1.674h3.969V178a2.583,2.583,0,0,0-.556-1.6,1.7,1.7,0,0,0-1.348-.567" transform="translate(2469 -6738.862)" fill="#12263f"/>
    <path id="Path_183464" data-name="Path 183464" d="M861.771,182.789v-6.877h-1.252v-1.048h1.252v-.813a2.7,2.7,0,0,1,.682-1.97,2.57,2.57,0,0,1,1.925-.7,3.6,3.6,0,0,1,.931.124l-.073,1.092a3.9,3.9,0,0,0-.733-.066,1.319,1.319,0,0,0-1.017.386,1.561,1.561,0,0,0-.36,1.1v.838h1.692v1.048h-1.692v6.877Z" transform="translate(2469 -6738.862)" fill="#12263f"/>
    <path id="Path_183465" data-name="Path 183465" d="M866.32,172.762a.808.808,0,0,1,.2-.557.76.76,0,0,1,.6-.227.771.771,0,0,1,.6.227.8.8,0,0,1,.2.557.771.771,0,0,1-.2.549.779.779,0,0,1-.6.22.767.767,0,0,1-.6-.22.776.776,0,0,1-.2-.549m1.465,10.027H866.43v-7.925h1.355Z" transform="translate(2469 -6738.862)" fill="#12263f"/>
    <path id="Path_183466" data-name="Path 183466" d="M873.131,181.83a1.953,1.953,0,0,0,1.267-.439,1.555,1.555,0,0,0,.6-1.1h1.281a2.453,2.453,0,0,1-.468,1.3,3.087,3.087,0,0,1-1.154.981,3.33,3.33,0,0,1-1.527.366,3.264,3.264,0,0,1-2.574-1.08,4.3,4.3,0,0,1-.956-2.955v-.227a4.756,4.756,0,0,1,.425-2.058,3.23,3.23,0,0,1,1.219-1.4,3.465,3.465,0,0,1,1.879-.5,3.178,3.178,0,0,1,2.215.8,2.852,2.852,0,0,1,.941,2.073H875a1.87,1.87,0,0,0-.583-1.264,1.811,1.811,0,0,0-1.292-.494,1.9,1.9,0,0,0-1.6.743,3.492,3.492,0,0,0-.568,2.151v.255a3.423,3.423,0,0,0,.564,2.11,1.906,1.906,0,0,0,1.611.74" transform="translate(2469 -6738.862)" fill="#12263f"/>
    <path id="Path_183467" data-name="Path 183467" d="M877.812,172.762a.813.813,0,0,1,.2-.557.76.76,0,0,1,.6-.227.774.774,0,0,1,.6.227.807.807,0,0,1,.205.557.8.8,0,1,1-1.6,0m1.465,10.027h-1.355v-7.925h1.355Z" transform="translate(2469 -6738.862)" fill="#12263f"/>
    <path id="Path_183468" data-name="Path 183468" d="M886.337,182.789a2.821,2.821,0,0,1-.19-.835,3.022,3.022,0,0,1-2.256.982,2.8,2.8,0,0,1-1.923-.663,2.145,2.145,0,0,1-.75-1.681,2.242,2.242,0,0,1,.94-1.923,4.443,4.443,0,0,1,2.648-.684h1.318v-.624a1.52,1.52,0,0,0-.424-1.13,1.7,1.7,0,0,0-1.253-.422,1.975,1.975,0,0,0-1.215.367,1.076,1.076,0,0,0-.491.886h-1.363a1.871,1.871,0,0,1,.422-1.147,2.87,2.87,0,0,1,1.143-.875,3.832,3.832,0,0,1,1.585-.322,3.136,3.136,0,0,1,2.146.684,2.475,2.475,0,0,1,.806,1.887v3.647a4.452,4.452,0,0,0,.278,1.736v.117Zm-2.248-1.033a2.379,2.379,0,0,0,1.208-.329,1.991,1.991,0,0,0,.827-.857v-1.627h-1.061q-2.492,0-2.491,1.459a1.236,1.236,0,0,0,.425,1,1.634,1.634,0,0,0,1.092.358" transform="translate(2469 -6738.862)" fill="#12263f"/>
    <path id="Path_183469" data-name="Path 183469" d="M896.607,182.935a3.462,3.462,0,0,1-2.623-1.058,3.925,3.925,0,0,1-1.01-2.83v-.25a4.768,4.768,0,0,1,.45-2.106,3.518,3.518,0,0,1,1.26-1.45,3.174,3.174,0,0,1,1.754-.523,2.969,2.969,0,0,1,2.4,1.018,4.4,4.4,0,0,1,.857,2.914v.565h-5.368a2.819,2.819,0,0,0,.684,1.893,2.154,2.154,0,0,0,1.666.722,2.369,2.369,0,0,0,1.217-.293,3.068,3.068,0,0,0,.871-.777l.828.644a3.327,3.327,0,0,1-2.988,1.531m-.169-7.1a1.807,1.807,0,0,0-1.377.6,2.9,2.9,0,0,0-.688,1.674h3.969V178a2.583,2.583,0,0,0-.556-1.6,1.7,1.7,0,0,0-1.348-.567" transform="translate(2469 -6738.862)" fill="#12263f"/>
    <rect id="Rectangle_38256" data-name="Rectangle 38256" width="1.355" height="11.25" transform="translate(3370.383 -6567.323)" fill="#12263f"/>
    <path id="Path_183470" data-name="Path 183470" d="M784.332,196.761a4.64,4.64,0,0,1,.865-2.934,2.94,2.94,0,0,1,4.467-.157v-4.131h1.355v11.25h-1.245l-.066-.85a2.759,2.759,0,0,1-2.263,1,2.706,2.706,0,0,1-2.245-1.127,4.7,4.7,0,0,1-.868-2.945Zm1.355.153a3.509,3.509,0,0,0,.557,2.109,1.8,1.8,0,0,0,1.538.762,1.976,1.976,0,0,0,1.882-1.156v-3.641a1.993,1.993,0,0,0-1.868-1.121,1.807,1.807,0,0,0-1.552.77,3.868,3.868,0,0,0-.557,2.277" transform="translate(2469 -6738.862)" fill="#12263f"/>
    <path id="Path_183471" data-name="Path 183471" d="M796.41,200.935a3.462,3.462,0,0,1-2.623-1.058,3.925,3.925,0,0,1-1.01-2.83v-.25a4.768,4.768,0,0,1,.45-2.106,3.518,3.518,0,0,1,1.26-1.45,3.174,3.174,0,0,1,1.754-.523,2.969,2.969,0,0,1,2.4,1.018,4.4,4.4,0,0,1,.857,2.914v.565h-5.368a2.819,2.819,0,0,0,.684,1.893,2.154,2.154,0,0,0,1.666.722,2.369,2.369,0,0,0,1.217-.293,3.068,3.068,0,0,0,.871-.777l.828.644a3.327,3.327,0,0,1-2.988,1.531m-.169-7.1a1.807,1.807,0,0,0-1.377.6,2.9,2.9,0,0,0-.688,1.674h3.969V196a2.582,2.582,0,0,0-.556-1.6,1.7,1.7,0,0,0-1.348-.567" transform="translate(2469 -6738.862)" fill="#12263f"/>
    <path id="Path_183472" data-name="Path 183472" d="M805.682,198.688a1,1,0,0,0-.414-.854,3.983,3.983,0,0,0-1.442-.523,6.8,6.8,0,0,1-1.634-.527,2.335,2.335,0,0,1-.894-.733,1.758,1.758,0,0,1-.289-1.011,2.056,2.056,0,0,1,.824-1.648,3.218,3.218,0,0,1,2.106-.674,3.311,3.311,0,0,1,2.186.7,2.207,2.207,0,0,1,.839,1.779H805.6a1.221,1.221,0,0,0-.472-.959,1.763,1.763,0,0,0-1.19-.4,1.85,1.85,0,0,0-1.157.322,1.013,1.013,0,0,0-.417.843.822.822,0,0,0,.387.739,4.75,4.75,0,0,0,1.4.475,7.389,7.389,0,0,1,1.644.543,2.389,2.389,0,0,1,.934.758,1.858,1.858,0,0,1,.3,1.08,2.029,2.029,0,0,1-.849,1.7,3.566,3.566,0,0,1-2.2.641,3.985,3.985,0,0,1-1.685-.337,2.736,2.736,0,0,1-1.146-.941,2.269,2.269,0,0,1-.414-1.308h1.355a1.4,1.4,0,0,0,.546,1.081,2.117,2.117,0,0,0,1.344.4,2.19,2.19,0,0,0,1.234-.312.956.956,0,0,0,.465-.831" transform="translate(2469 -6738.862)" fill="#12263f"/>
    <path id="Path_183473" data-name="Path 183473" d="M812.091,200.935a3.462,3.462,0,0,1-2.623-1.058,3.925,3.925,0,0,1-1.01-2.83v-.25a4.768,4.768,0,0,1,.45-2.106,3.518,3.518,0,0,1,1.26-1.45,3.173,3.173,0,0,1,1.754-.523,2.969,2.969,0,0,1,2.4,1.018,4.4,4.4,0,0,1,.857,2.914v.565h-5.368a2.818,2.818,0,0,0,.684,1.893,2.154,2.154,0,0,0,1.666.722,2.369,2.369,0,0,0,1.217-.293,3.067,3.067,0,0,0,.871-.777l.828.644a3.327,3.327,0,0,1-2.988,1.531m-.169-7.1a1.807,1.807,0,0,0-1.377.6,2.9,2.9,0,0,0-.688,1.674h3.969V196a2.583,2.583,0,0,0-.556-1.6,1.7,1.7,0,0,0-1.348-.567" transform="translate(2469 -6738.862)" fill="#12263f"/>
    <path id="Path_183474" data-name="Path 183474" d="M818.024,192.864l.036.879a2.926,2.926,0,0,1,2.352-1.025,2.265,2.265,0,0,1,2.263,1.274,3,3,0,0,1,1.029-.923,3.046,3.046,0,0,1,1.5-.351q2.607,0,2.651,2.76v5.311H826.5v-5.23a1.816,1.816,0,0,0-.388-1.27,1.709,1.709,0,0,0-1.3-.422,1.791,1.791,0,0,0-1.252.451,1.823,1.823,0,0,0-.579,1.212v5.259h-1.362V195.6a1.512,1.512,0,0,0-1.692-1.728A1.813,1.813,0,0,0,818.1,195v5.786h-1.355v-7.925Z" transform="translate(2469 -6738.862)" fill="#12263f"/>
    <path id="Path_183475" data-name="Path 183475" d="M836.59,196.914a4.75,4.75,0,0,1-.827,2.916,2.652,2.652,0,0,1-2.242,1.106,2.9,2.9,0,0,1-2.269-.916v3.816H829.9V192.865h1.238l.066.878a2.793,2.793,0,0,1,2.3-1.025,2.7,2.7,0,0,1,2.259,1.077,4.8,4.8,0,0,1,.831,2.995Zm-1.354-.153a3.5,3.5,0,0,0-.572-2.116,1.841,1.841,0,0,0-1.567-.778,1.992,1.992,0,0,0-1.845,1.092v3.787a1.993,1.993,0,0,0,1.859,1.084,1.833,1.833,0,0,0,1.55-.773,3.823,3.823,0,0,0,.575-2.3" transform="translate(2469 -6738.862)" fill="#12263f"/>
    <path id="Path_183476" data-name="Path 183476" d="M841.6,200.935a3.462,3.462,0,0,1-2.623-1.058,3.925,3.925,0,0,1-1.01-2.83v-.25a4.768,4.768,0,0,1,.45-2.106,3.518,3.518,0,0,1,1.26-1.45,3.174,3.174,0,0,1,1.754-.523,2.969,2.969,0,0,1,2.4,1.018,4.4,4.4,0,0,1,.857,2.914v.565h-5.368a2.818,2.818,0,0,0,.684,1.893,2.154,2.154,0,0,0,1.666.722,2.369,2.369,0,0,0,1.217-.293,3.067,3.067,0,0,0,.871-.777l.828.644a3.327,3.327,0,0,1-2.988,1.531m-.169-7.1a1.807,1.807,0,0,0-1.377.6,2.9,2.9,0,0,0-.688,1.674h3.969V196a2.583,2.583,0,0,0-.556-1.6,1.7,1.7,0,0,0-1.348-.567" transform="translate(2469 -6738.862)" fill="#12263f"/>
    <path id="Path_183477" data-name="Path 183477" d="M847.541,192.864l.045,1a2.884,2.884,0,0,1,2.373-1.143q2.51,0,2.533,2.835v5.237h-1.355v-5.245a1.828,1.828,0,0,0-.391-1.267,1.576,1.576,0,0,0-1.2-.41,1.961,1.961,0,0,0-1.158.351,2.378,2.378,0,0,0-.775.924v5.647h-1.356v-7.925Zm4.482-3.091a1.814,1.814,0,0,1-.45,1.281,1.46,1.46,0,0,1-1.124.491,1.648,1.648,0,0,1-.52-.073,2.735,2.735,0,0,1-.575-.3,2.567,2.567,0,0,0-.513-.274,1.282,1.282,0,0,0-.363-.048.667.667,0,0,0-.512.232.832.832,0,0,0-.213.588l-.908-.05a1.912,1.912,0,0,1,.444-1.3,1.5,1.5,0,0,1,1.586-.44,3.51,3.51,0,0,1,.556.287,3.328,3.328,0,0,0,.538.278,1.23,1.23,0,0,0,.413.066.657.657,0,0,0,.525-.25.875.875,0,0,0,.208-.578Z" transform="translate(2469 -6738.862)" fill="#12263f"/>
    <path id="Path_183478" data-name="Path 183478" d="M854.177,196.754a4.69,4.69,0,0,1,.458-2.1,3.421,3.421,0,0,1,1.274-1.435,3.479,3.479,0,0,1,1.864-.505,3.344,3.344,0,0,1,2.619,1.12,4.311,4.311,0,0,1,1,2.981v.1a4.715,4.715,0,0,1-.444,2.077,3.374,3.374,0,0,1-1.266,1.432,3.511,3.511,0,0,1-1.894.512,3.332,3.332,0,0,1-2.611-1.121,4.287,4.287,0,0,1-1-2.965Zm1.363.16a3.389,3.389,0,0,0,.611,2.117,2.072,2.072,0,0,0,3.278-.011,3.707,3.707,0,0,0,.607-2.266,3.387,3.387,0,0,0-.618-2.113,1.968,1.968,0,0,0-1.645-.81,1.947,1.947,0,0,0-1.618.8,3.684,3.684,0,0,0-.615,2.285" transform="translate(2469 -6738.862)" fill="#12263f"/>
    <path id="Path_183479" data-name="Path 183479" d="M866.475,196.761a4.64,4.64,0,0,1,.865-2.934,2.94,2.94,0,0,1,4.467-.157v-4.131h1.355v11.25h-1.245l-.066-.85a2.759,2.759,0,0,1-2.263,1,2.706,2.706,0,0,1-2.245-1.127,4.7,4.7,0,0,1-.868-2.945Zm1.355.153a3.509,3.509,0,0,0,.557,2.109,1.8,1.8,0,0,0,1.538.762,1.976,1.976,0,0,0,1.882-1.156v-3.641a1.993,1.993,0,0,0-1.868-1.121,1.807,1.807,0,0,0-1.552.77,3.868,3.868,0,0,0-.557,2.277" transform="translate(2469 -6738.862)" fill="#12263f"/>
    <path id="Path_183480" data-name="Path 183480" d="M878.552,200.935a3.462,3.462,0,0,1-2.623-1.058,3.925,3.925,0,0,1-1.01-2.83v-.25a4.768,4.768,0,0,1,.45-2.106,3.518,3.518,0,0,1,1.26-1.45,3.174,3.174,0,0,1,1.754-.523,2.969,2.969,0,0,1,2.4,1.018,4.4,4.4,0,0,1,.857,2.914v.565h-5.368a2.819,2.819,0,0,0,.684,1.893,2.154,2.154,0,0,0,1.666.722,2.369,2.369,0,0,0,1.217-.293,3.067,3.067,0,0,0,.871-.777l.828.644a3.327,3.327,0,0,1-2.988,1.531m-.169-7.1a1.807,1.807,0,0,0-1.377.6,2.9,2.9,0,0,0-.688,1.674h3.969V196a2.583,2.583,0,0,0-.556-1.6,1.7,1.7,0,0,0-1.348-.567" transform="translate(2469 -6738.862)" fill="#12263f"/>
    <rect id="Rectangle_38257" data-name="Rectangle 38257" width="1.355" height="11.25" transform="translate(3356.041 -6549.323)" fill="#12263f"/>
    <path id="Path_183481" data-name="Path 183481" d="M895.457,200.789a2.821,2.821,0,0,1-.19-.835,3.022,3.022,0,0,1-2.256.982,2.8,2.8,0,0,1-1.923-.663,2.145,2.145,0,0,1-.75-1.681,2.242,2.242,0,0,1,.94-1.923,4.443,4.443,0,0,1,2.648-.684h1.318v-.624a1.52,1.52,0,0,0-.424-1.13,1.7,1.7,0,0,0-1.253-.422,1.975,1.975,0,0,0-1.215.367,1.076,1.076,0,0,0-.491.886H890.5a1.871,1.871,0,0,1,.422-1.147,2.87,2.87,0,0,1,1.143-.875,3.832,3.832,0,0,1,1.585-.322,3.136,3.136,0,0,1,2.146.684,2.475,2.475,0,0,1,.806,1.887v3.647a4.452,4.452,0,0,0,.278,1.736v.117Zm-2.248-1.033a2.379,2.379,0,0,0,1.208-.329,1.991,1.991,0,0,0,.827-.857v-1.627h-1.061q-2.492,0-2.491,1.459a1.236,1.236,0,0,0,.425,1,1.634,1.634,0,0,0,1.092.358" transform="translate(2469 -6738.862)" fill="#12263f"/>
    <path id="Path_183482" data-name="Path 183482" d="M907.33,200.006a2.879,2.879,0,0,1-2.322.93,2.46,2.46,0,0,1-1.93-.737,3.187,3.187,0,0,1-.67-2.178v-5.157h1.356v5.121q0,1.8,1.464,1.8a2.026,2.026,0,0,0,2.065-1.156v-5.765h1.355v7.925h-1.289Z" transform="translate(2469 -6738.862)" fill="#12263f"/>
    <path id="Path_183483" data-name="Path 183483" d="M911.988,192.864l.045,1a2.883,2.883,0,0,1,2.373-1.142q2.511,0,2.533,2.834v5.237h-1.354v-5.244a1.829,1.829,0,0,0-.392-1.268,1.577,1.577,0,0,0-1.2-.41,1.959,1.959,0,0,0-1.158.351,2.389,2.389,0,0,0-.776.924v5.647h-1.355v-7.925Z" transform="translate(2469 -6738.862)" fill="#12263f"/>
    <path id="Path_183484" data-name="Path 183484" d="M918.991,190.762a.808.808,0,0,1,.2-.557.76.76,0,0,1,.6-.227.771.771,0,0,1,.6.227.8.8,0,0,1,.205.557.771.771,0,0,1-.205.549.779.779,0,0,1-.6.22.767.767,0,0,1-.6-.22.776.776,0,0,1-.2-.549m1.465,10.027H919.1v-7.925h1.355Z" transform="translate(2469 -6738.862)" fill="#12263f"/>
    <path id="Path_183485" data-name="Path 183485" d="M922.293,196.761a4.64,4.64,0,0,1,.865-2.934,2.94,2.94,0,0,1,4.467-.157v-4.131h1.355v11.25h-1.245l-.066-.85a2.759,2.759,0,0,1-2.263,1,2.706,2.706,0,0,1-2.245-1.127,4.7,4.7,0,0,1-.868-2.945Zm1.355.153a3.509,3.509,0,0,0,.557,2.109,1.8,1.8,0,0,0,1.538.762,1.976,1.976,0,0,0,1.882-1.156v-3.641a1.993,1.993,0,0,0-1.868-1.121,1.807,1.807,0,0,0-1.552.77,3.868,3.868,0,0,0-.557,2.277" transform="translate(2469 -6738.862)" fill="#12263f"/>
    <path id="Path_183486" data-name="Path 183486" d="M935.974,200.789a2.819,2.819,0,0,1-.19-.835,3.022,3.022,0,0,1-2.256.982,2.8,2.8,0,0,1-1.923-.663,2.145,2.145,0,0,1-.75-1.681,2.242,2.242,0,0,1,.94-1.923,4.443,4.443,0,0,1,2.648-.684h1.318v-.624a1.52,1.52,0,0,0-.424-1.13,1.7,1.7,0,0,0-1.253-.422,1.975,1.975,0,0,0-1.215.367,1.076,1.076,0,0,0-.491.886h-1.363a1.871,1.871,0,0,1,.422-1.147,2.87,2.87,0,0,1,1.143-.875,3.832,3.832,0,0,1,1.585-.322,3.136,3.136,0,0,1,2.146.684,2.475,2.475,0,0,1,.806,1.887v3.647a4.451,4.451,0,0,0,.278,1.736v.117Zm-2.248-1.033a2.379,2.379,0,0,0,1.208-.329,1.991,1.991,0,0,0,.827-.857v-1.627H934.7q-2.492,0-2.491,1.459a1.236,1.236,0,0,0,.425,1,1.634,1.634,0,0,0,1.092.358" transform="translate(2469 -6738.862)" fill="#12263f"/>
    <path id="Path_183487" data-name="Path 183487" d="M938.911,196.761a4.64,4.64,0,0,1,.865-2.934,2.94,2.94,0,0,1,4.467-.157v-4.131H945.6v11.25h-1.245l-.066-.85a2.759,2.759,0,0,1-2.263,1,2.706,2.706,0,0,1-2.245-1.127,4.7,4.7,0,0,1-.868-2.945Zm1.355.153a3.51,3.51,0,0,0,.557,2.109,1.8,1.8,0,0,0,1.538.762,1.976,1.976,0,0,0,1.882-1.156v-3.641a1.993,1.993,0,0,0-1.868-1.121,1.807,1.807,0,0,0-1.552.77,3.868,3.868,0,0,0-.557,2.277" transform="translate(2469 -6738.862)" fill="#12263f"/>
    <path id="Path_183488" data-name="Path 183488" d="M791.356,214.914a4.75,4.75,0,0,1-.827,2.916,2.652,2.652,0,0,1-2.242,1.106,2.9,2.9,0,0,1-2.269-.916v3.816h-1.356V210.865H785.9l.066.878a2.793,2.793,0,0,1,2.3-1.025,2.7,2.7,0,0,1,2.259,1.077,4.8,4.8,0,0,1,.831,2.995ZM790,214.761a3.5,3.5,0,0,0-.572-2.116,1.841,1.841,0,0,0-1.567-.778,1.992,1.992,0,0,0-1.845,1.092v3.787a1.993,1.993,0,0,0,1.859,1.084,1.833,1.833,0,0,0,1.55-.773,3.823,3.823,0,0,0,.575-2.3" transform="translate(2469 -6738.862)" fill="#12263f"/>
    <path id="Path_183489" data-name="Path 183489" d="M796.908,212.08a4.077,4.077,0,0,0-.666-.051,1.785,1.785,0,0,0-1.809,1.135v5.625h-1.355v-7.925H794.4l.022.915a2.11,2.11,0,0,1,1.89-1.061,1.388,1.388,0,0,1,.6.1Z" transform="translate(2469 -6738.862)" fill="#12263f"/>
    <path id="Path_183490" data-name="Path 183490" d="M797.648,214.754a4.69,4.69,0,0,1,.458-2.1,3.421,3.421,0,0,1,1.274-1.435,3.479,3.479,0,0,1,1.864-.505,3.344,3.344,0,0,1,2.619,1.12,4.311,4.311,0,0,1,1,2.981v.1a4.715,4.715,0,0,1-.444,2.077,3.374,3.374,0,0,1-1.266,1.432,3.511,3.511,0,0,1-1.894.512,3.332,3.332,0,0,1-2.611-1.121,4.287,4.287,0,0,1-1-2.965Zm1.363.16a3.389,3.389,0,0,0,.611,2.117,2.072,2.072,0,0,0,3.278-.011,3.707,3.707,0,0,0,.607-2.266,3.387,3.387,0,0,0-.618-2.113,1.968,1.968,0,0,0-1.645-.81,1.947,1.947,0,0,0-1.618.8,3.684,3.684,0,0,0-.615,2.285" transform="translate(2469 -6738.862)" fill="#12263f"/>
    <path id="Path_183491" data-name="Path 183491" d="M806.232,214.761a4.646,4.646,0,0,1,.865-2.934,2.941,2.941,0,0,1,4.468-.157v-4.131h1.354v11.25h-1.245l-.065-.85a2.76,2.76,0,0,1-2.263,1,2.708,2.708,0,0,1-2.246-1.127,4.707,4.707,0,0,1-.868-2.945Zm1.356.153a3.51,3.51,0,0,0,.556,2.109,1.8,1.8,0,0,0,1.538.762,1.977,1.977,0,0,0,1.883-1.156v-3.641a2,2,0,0,0-1.869-1.121,1.808,1.808,0,0,0-1.552.77,3.869,3.869,0,0,0-.556,2.277" transform="translate(2469 -6738.862)" fill="#12263f"/>
    <path id="Path_183492" data-name="Path 183492" d="M819.914,218.006a2.879,2.879,0,0,1-2.322.93,2.46,2.46,0,0,1-1.93-.737,3.187,3.187,0,0,1-.67-2.178v-5.157h1.356v5.121q0,1.8,1.464,1.8a2.026,2.026,0,0,0,2.065-1.156v-5.765h1.355v7.925h-1.289Z" transform="translate(2469 -6738.862)" fill="#12263f"/>
    <path id="Path_183493" data-name="Path 183493" d="M826.469,217.83a1.953,1.953,0,0,0,1.267-.439,1.555,1.555,0,0,0,.6-1.1h1.281a2.452,2.452,0,0,1-.468,1.3,3.087,3.087,0,0,1-1.154.981,3.33,3.33,0,0,1-1.527.366,3.264,3.264,0,0,1-2.574-1.08,4.3,4.3,0,0,1-.956-2.955v-.227a4.756,4.756,0,0,1,.425-2.058,3.229,3.229,0,0,1,1.219-1.4,3.465,3.465,0,0,1,1.879-.5,3.178,3.178,0,0,1,2.215.8,2.852,2.852,0,0,1,.941,2.073h-1.281a1.87,1.87,0,0,0-.583-1.264,1.811,1.811,0,0,0-1.292-.494,1.9,1.9,0,0,0-1.6.743,3.491,3.491,0,0,0-.568,2.151v.255a3.424,3.424,0,0,0,.564,2.11,1.906,1.906,0,0,0,1.611.74" transform="translate(2469 -6738.862)" fill="#12263f"/>
    <path id="Path_183494" data-name="Path 183494" d="M832.98,208.945v1.919h1.48v1.048h-1.48v4.92a1.1,1.1,0,0,0,.2.716.836.836,0,0,0,.674.237,3.263,3.263,0,0,0,.645-.088v1.093a4,4,0,0,1-1.04.145,1.687,1.687,0,0,1-1.37-.549,2.359,2.359,0,0,1-.461-1.56v-4.914h-1.443v-1.048h1.443v-1.919Z" transform="translate(2469 -6738.862)" fill="#12263f"/>
    <path id="Path_183495" data-name="Path 183495" d="M836.05,208.762a.809.809,0,0,1,.2-.557.758.758,0,0,1,.6-.227.773.773,0,0,1,.6.227.8.8,0,0,1,.205.557.771.771,0,0,1-.205.549.781.781,0,0,1-.6.22.765.765,0,0,1-.6-.22.777.777,0,0,1-.2-.549m1.465,10.027H836.16v-7.925h1.355Z" transform="translate(2469 -6738.862)" fill="#12263f"/>
    <path id="Path_183496" data-name="Path 183496" d="M842.3,216.951l1.963-6.087h1.384l-2.842,7.925h-1.032l-2.871-7.925h1.383Z" transform="translate(2469 -6738.862)" fill="#12263f"/>
    <path id="Path_183497" data-name="Path 183497" d="M851.732,218.789a2.821,2.821,0,0,1-.19-.835,3.022,3.022,0,0,1-2.256.982,2.8,2.8,0,0,1-1.923-.663,2.145,2.145,0,0,1-.75-1.681,2.242,2.242,0,0,1,.94-1.923,4.443,4.443,0,0,1,2.648-.684h1.318v-.624a1.52,1.52,0,0,0-.424-1.13,1.7,1.7,0,0,0-1.253-.422,1.975,1.975,0,0,0-1.215.367,1.076,1.076,0,0,0-.491.886h-1.363a1.871,1.871,0,0,1,.422-1.147,2.87,2.87,0,0,1,1.143-.875,3.832,3.832,0,0,1,1.585-.322,3.136,3.136,0,0,1,2.146.684,2.475,2.475,0,0,1,.806,1.887v3.647a4.451,4.451,0,0,0,.278,1.736v.117Zm-2.248-1.033a2.379,2.379,0,0,0,1.208-.329,1.991,1.991,0,0,0,.827-.857v-1.627h-1.061q-2.492,0-2.491,1.459a1.236,1.236,0,0,0,.425,1,1.634,1.634,0,0,0,1.092.358" transform="translate(2469 -6738.862)" fill="#12263f"/>
    <path id="Path_183498" data-name="Path 183498" d="M855.027,218.078a.847.847,0,0,1,.209-.586.8.8,0,0,1,.626-.234.826.826,0,0,1,.634.234.838.838,0,0,1,.216.586.788.788,0,0,1-.216.564.834.834,0,0,1-.634.227.807.807,0,0,1-.626-.227.8.8,0,0,1-.209-.564" transform="translate(2469 -6738.862)" fill="#12263f"/>
  </g>
</svg>
