<svg id="t6-i11" xmlns="http://www.w3.org/2000/svg" xmlns:xlink="http://www.w3.org/1999/xlink" width="400" height="500.013" viewBox="0 0 400 500.013">
  <defs>
    <clipPath id="clip-path">
      <rect id="Rectangle_37720" data-name="Rectangle 37720" width="400" height="500.013" fill="none"/>
    </clipPath>
    <clipPath id="clip-path-3">
      <rect id="Rectangle_37688" data-name="Rectangle 37688" width="109.655" height="63.15" transform="translate(80.155 383.453)" fill="none"/>
    </clipPath>
    <clipPath id="clip-path-4">
      <rect id="Rectangle_37716" data-name="Rectangle 37716" width="85.754" height="53.034" transform="translate(148.095 425.663)" fill="none"/>
    </clipPath>
    <clipPath id="clip-path-5">
      <rect id="Rectangle_37717" data-name="Rectangle 37717" width="30.42" height="30.835" transform="translate(277.095 436.018)" fill="none"/>
    </clipPath>
    <clipPath id="clip-path-6">
      <rect id="Rectangle_37718" data-name="Rectangle 37718" width="32.91" height="31.414" transform="translate(82.525 425.589)" fill="none"/>
    </clipPath>
  </defs>
  <g id="Group_117817" data-name="Group 117817" clip-path="url(#clip-path)">
    <path id="Path_179943" data-name="Path 179943" d="M396.878,58.239v128.63H230.728l-5.98-127.73Z" fill="#e0e0e0"/>
    <rect id="Rectangle_37683" data-name="Rectangle 37683" width="166.15" height="127.89" transform="translate(224.738 58.989)" fill="#f5f5f5"/>
    <path id="Path_179944" data-name="Path 179944" d="M391.528,187.509H224.108V58.349h167.42Zm-166.15-1.27h164.88V59.619H225.378Z" fill="#e0e0e0"/>
    <rect id="Rectangle_37684" data-name="Rectangle 37684" width="130.16" height="97.91" transform="translate(242.738 72.129)" fill="#fff"/>
    <g id="Group_117816" data-name="Group 117816">
      <g id="Group_117815" data-name="Group 117815" clip-path="url(#clip-path)">
        <path id="Path_179945" data-name="Path 179945" d="M372.9,72.159h-9.55l-26.7.08-93.91.14.27-.22v97.9l-.33-.33,130.16.06-.27.27c.06-29.59.11-54,.14-71.1,0-8.54.05-15.22.07-19.8v-.1c0,4.55,0,11.22.07,19.73,0,17.11.08,41.61.14,71.27v.27h-.27l-130.16.06h-.33V71.859h.3l94.11.15,26.62.08h8.8c.64.07.84.07.84.07" fill="#e0e0e0"/>
        <path id="Path_179946" data-name="Path 179946" d="M224.748,58.689a16.257,16.257,0,0,1,2.81,1.72c1.68,1.14,4,2.74,6.48,4.59s4.71,3.59,6.27,4.89a15.458,15.458,0,0,1,2.43,2.27,18,18,0,0,1-2.73-1.9l-6.37-4.73-6.37-4.74a16.338,16.338,0,0,1-2.52-2.1" fill="#e0e0e0"/>
        <path id="Path_179947" data-name="Path 179947" d="M390.888,58.979c.11.15-3.83,3.21-8.8,6.84a108.4,108.4,0,0,1-9.19,6.34,101.365,101.365,0,0,1,8.8-6.84c4.97-3.63,9.09-6.49,9.19-6.34" fill="#e0e0e0"/>
        <path id="Path_179948" data-name="Path 179948" d="M372.238,170.039c.12-.14,4.4,3.52,9.55,8.17s9.23,8.53,9.1,8.66-4.39-3.52-9.55-8.17-9.22-8.54-9.1-8.66" fill="#e0e0e0"/>
        <path id="Path_179949" data-name="Path 179949" d="M224.748,186.869c-.13-.13,3.76-3.84,8.68-8.28s9-7.93,9.13-7.79-3.77,3.84-8.69,8.28-9,7.93-9.12,7.79" fill="#e0e0e0"/>
        <path id="Path_179950" data-name="Path 179950" d="M337.948,90.159c0,.19-12.87.34-28.75.34s-28.76-.15-28.76-.34,12.87-.34,28.76-.34,28.75.17,28.75.34" fill="#e0e0e0"/>
        <path id="Path_179951" data-name="Path 179951" d="M350.908,122.549c0,.19-19.29.35-43.09.35s-43.09-.16-43.09-.35,19.29-.34,43.09-.34,43.09.15,43.09.34" fill="#e0e0e0"/>
        <path id="Path_179952" data-name="Path 179952" d="M350.908,130.549c0,.19-19.29.34-43.09.34s-43.09-.15-43.09-.34,19.29-.34,43.09-.34,43.09.15,43.09.34" fill="#e0e0e0"/>
        <path id="Path_179953" data-name="Path 179953" d="M260.458,106.279a5.151,5.151,0,0,1,5.169-5.131c.1,0,.208,0,.311.011a5.27,5.27,0,0,1,4.28,1.88l-1.79,1.62a3,3,0,0,0-2.35-1.17,2.85,2.85,0,0,0,0,5.69,3,3,0,0,0,2.35-1.17l1.79,1.62a5.27,5.27,0,0,1-4.28,1.88,5.15,5.15,0,0,1-5.47-4.809c-.009-.14-.012-.28-.01-.421" fill="#e0e0e0"/>
        <path id="Path_179954" data-name="Path 179954" d="M279.468,109.089v2.17h-8v-9.95h7.81v2.17h-5v1.68h4.42v2.11h-4.42v1.82Z" fill="#e0e0e0"/>
        <path id="Path_179955" data-name="Path 179955" d="M285.378,108.619h-1.53v2.64h-2.84v-9.95h4.55c2.72,0,4.43,1.4,4.43,3.68a3.279,3.279,0,0,1-1.93,3.17l2.15,3.13h-3Zm0-5.09h-1.56v2.91h1.56c1.17,0,1.75-.54,1.75-1.45s-.55-1.46-1.72-1.46Z" fill="#e0e0e0"/>
        <path id="Path_179956" data-name="Path 179956" d="M293.538,103.539h-3.06v-2.23h8.91v2.23h-3v7.72h-2.81Z" fill="#e0e0e0"/>
        <rect id="Rectangle_37685" data-name="Rectangle 37685" width="2.81" height="9.95" transform="translate(300.448 101.309)" fill="#e0e0e0"/>
        <path id="Path_179957" data-name="Path 179957" d="M308.088,103.479v2.19h4.39v2.18h-4.39v3.41h-2.82v-9.95h7.81v2.17Z" fill="#e0e0e0"/>
        <rect id="Rectangle_37686" data-name="Rectangle 37686" width="2.82" height="9.95" transform="translate(314.398 101.309)" fill="#e0e0e0"/>
        <path id="Path_179958" data-name="Path 179958" d="M318.708,106.279a5.151,5.151,0,0,1,5.169-5.131c.1,0,.208,0,.311.011a5.27,5.27,0,0,1,4.28,1.88l-1.79,1.62a3,3,0,0,0-2.35-1.17,2.85,2.85,0,0,0,0,5.69,3,3,0,0,0,2.35-1.17l1.79,1.62a5.27,5.27,0,0,1-4.28,1.88,5.15,5.15,0,0,1-5.47-4.809c-.009-.14-.012-.28-.01-.421" fill="#e0e0e0"/>
        <path id="Path_179959" data-name="Path 179959" d="M336.218,109.329h-4.21l-.78,1.93h-2.87l4.39-9.95h2.77l4.41,9.95h-2.92Zm-.82-2.08-1.28-3.18-1.28,3.18Z" fill="#e0e0e0"/>
        <path id="Path_179960" data-name="Path 179960" d="M342.348,103.539h-3v-2.23h8.91v2.23h-3v7.72h-2.82Z" fill="#e0e0e0"/>
        <path id="Path_179961" data-name="Path 179961" d="M357.258,109.089v2.17h-8v-9.95h7.8v2.17h-5v1.68h4.43v2.11h-4.48v1.82Z" fill="#e0e0e0"/>
        <path id="Path_179962" data-name="Path 179962" d="M319.118,150.439a10,10,0,1,1-10-10,10,10,0,0,1,10,10" fill="#e0e0e0"/>
        <path id="Path_179963" data-name="Path 179963" d="M309.088,160.5a10.06,10.06,0,1,1,10.06-10.06,10.06,10.06,0,0,1-10.06,10.06m0-20.06a10,10,0,1,0,10,10,10,10,0,0,0-10-10" fill="#e0e0e0"/>
        <path id="Path_179964" data-name="Path 179964" d="M288.7,150.439c0,.19-5.41.34-12.08.34s-12.08-.15-12.08-.34,5.4-.34,12.08-.34,12.08.15,12.08.34" fill="#e0e0e0"/>
        <path id="Path_179965" data-name="Path 179965" d="M354.948,150.439c0,.19-6.06.34-13.52.34s-13.51-.15-13.51-.34,6-.34,13.51-.34,13.52.15,13.52.34" fill="#e0e0e0"/>
        <path id="Path_179966" data-name="Path 179966" d="M282.458,148.549a2.668,2.668,0,0,1-.15-.83,8.976,8.976,0,0,1,.14-2.41,8.689,8.689,0,0,1,1.52-3.53,2.051,2.051,0,0,1,1-.7,1.571,1.571,0,0,1,1.32.28,2.4,2.4,0,0,1,.84,2.62,7.76,7.76,0,0,1-1.47,2.61,13.158,13.158,0,0,1-2.22,2.34,6.589,6.589,0,0,1-3.18,1.47,5.129,5.129,0,0,1-3.65-.82,3.929,3.929,0,0,1-1.6-3.57,11.935,11.935,0,0,1,1.08-3.9,4.557,4.557,0,0,1,1.32-1.72,2.86,2.86,0,0,1,2.21-.55,2.131,2.131,0,0,1,1.65,1.64,4.452,4.452,0,0,1-.13,2.27,13.844,13.844,0,0,1-2,3.82,8.673,8.673,0,0,1-3.19,2.74,6.47,6.47,0,0,1-4.05.51,4.81,4.81,0,0,1-3.21-2.26,6.355,6.355,0,0,1-.85-3.62,9.44,9.44,0,0,1,.89-3.36,3.724,3.724,0,0,1,2.22-2.44,1.49,1.49,0,0,1,1.54.71,3.281,3.281,0,0,1,.4,1.49,9.754,9.754,0,0,1-1.2,4.93,9.917,9.917,0,0,1-2.4,3,9.042,9.042,0,0,1-2,1.31,3.582,3.582,0,0,1-.79.29,14.083,14.083,0,0,0,2.64-1.8,10.188,10.188,0,0,0,2.23-2.95,9.535,9.535,0,0,0,1.05-4.74,2.765,2.765,0,0,0-.34-1.24,1,1,0,0,0-1-.46,2,2,0,0,0-1.07.79,6.517,6.517,0,0,0-.74,1.36,6.93,6.93,0,0,0,0,6.42,4.132,4.132,0,0,0,2.8,2,5.75,5.75,0,0,0,3.63-.48c2.31-1.11,3.91-3.59,4.8-6.14a3.811,3.811,0,0,0,.13-1.91,1.479,1.479,0,0,0-1.13-1.15,2.216,2.216,0,0,0-1.67.43,3.892,3.892,0,0,0-1.11,1.47,11.15,11.15,0,0,0-1,3.64,3.32,3.32,0,0,0,1.32,3,4.51,4.51,0,0,0,3.2.73,6.083,6.083,0,0,0,2.91-1.31,12.485,12.485,0,0,0,2.15-2.22,7.493,7.493,0,0,0,1.43-2.41,2,2,0,0,0-.63-2.15,1.28,1.28,0,0,0-1.789.276c-.011.014-.021.029-.031.044a8.61,8.61,0,0,0-1.55,3.33,12.529,12.529,0,0,0-.27,3.15" fill="#ebebeb"/>
        <path id="Path_179967" data-name="Path 179967" d="M351.778,146.939a1.879,1.879,0,0,1-.26.15c-.18.09-.44.21-.8.36a27.4,27.4,0,0,1-3.2,1.1,30.769,30.769,0,0,1-8.67,1.1,32.807,32.807,0,0,0-3.73-.1,2.6,2.6,0,0,0-1.62.83,1.539,1.539,0,0,0-.2,1.73,8.883,8.883,0,0,0,1.23,1.75c.47.59,1,1.17,1.49,1.75s1.06,1.15,1.62,1.73a5.63,5.63,0,0,0,1.83,1.41,1.651,1.651,0,0,0,1.91-.67,3.62,3.62,0,0,0,.57-2.3,54.634,54.634,0,0,1,2.51-23l.29-.86.35.83a18.988,18.988,0,0,1,1.35,6,19.742,19.742,0,0,1-1.37,8.35,19.017,19.017,0,0,1-1.95,3.64,5.877,5.877,0,0,1-3.15,2.66,1.93,1.93,0,0,1-2.07-.73,3.934,3.934,0,0,1-.55-2,21.733,21.733,0,0,1,.12-3.8,21.22,21.22,0,0,1,2.09-6.89l.22-.43.29.39a4.62,4.62,0,1,1-7.06-.22,2.467,2.467,0,0,1,1.15-.8,1.23,1.23,0,0,1,1.35.37,1.892,1.892,0,0,1,.33,1.27,3.992,3.992,0,0,1-.26,1.16,14.78,14.78,0,0,1-3.7,5.79,15.492,15.492,0,0,1-1.4,1.17,3.376,3.376,0,0,1-.53.33,3.392,3.392,0,0,1,.47-.41c.31-.27.78-.66,1.33-1.22a15,15,0,0,0,3.5-5.78,2.363,2.363,0,0,0,0-2.06c-.45-.57-1.38-.18-1.88.46a4.321,4.321,0,0,0-.37,5.16,4.07,4.07,0,0,0,6.8-4.476c-.072-.109-.148-.213-.229-.314h.51a20.338,20.338,0,0,0-2.08,10.29,3.352,3.352,0,0,0,.43,1.66,1.279,1.279,0,0,0,1.39.48,3.674,3.674,0,0,0,1.53-.91,10.132,10.132,0,0,0,1.22-1.49,18.44,18.44,0,0,0,1.87-3.51,18.912,18.912,0,0,0,1.32-8.06,18.288,18.288,0,0,0-1.3-5.76h.64a54.476,54.476,0,0,0-2.55,22.73,4.162,4.162,0,0,1-.71,2.67,2.619,2.619,0,0,1-1.13.87,2.144,2.144,0,0,1-1.44,0,5.834,5.834,0,0,1-2-1.57c-.57-.58-1.11-1.17-1.63-1.76s-1-1.18-1.49-1.78a8.918,8.918,0,0,1-1.28-1.88,2,2,0,0,1,.29-2.24,3,3,0,0,1,1.93-1,8.687,8.687,0,0,1,2,0c.62.06,1.23.1,1.82.11a30.078,30.078,0,0,0,3.33-.07,31.088,31.088,0,0,0,5.26-.85,28.222,28.222,0,0,0,3.22-1,5.621,5.621,0,0,1,1.05-.36" fill="#ebebeb"/>
        <path id="Path_179968" data-name="Path 179968" d="M382.464,430.213l-6.76,69.25h-35.75l-7.04-69.25Z" fill="#e0e0e0"/>
        <rect id="Rectangle_37687" data-name="Rectangle 37687" width="59.11" height="5.07" transform="translate(328.693 425.153)" fill="#ebebeb"/>
        <path id="Path_179969" data-name="Path 179969" d="M376.553,416.423l5.91,9.85h-47.01l2.25-9.85Z" fill="#ebebeb"/>
        <path id="Path_179970" data-name="Path 179970" d="M380.184,453.533l-2.41,24.71h-39.98l-2.51-24.71Z" fill="#f5f5f5"/>
        <path id="Path_179971" data-name="Path 179971" d="M352.6,472.833a11.278,11.278,0,0,1,1.85-6.11c1-1.55,2.2-2.89,3.18-4.22a13,13,0,0,0,2.06-3.9,7.094,7.094,0,0,0,.32-1.72l.27.15a6.223,6.223,0,0,1,2.61,4.08,11.78,11.78,0,0,1-.22,4.94,10.7,10.7,0,0,1-2.6,5.24,7.16,7.16,0,0,1-6.2,1.93,4.917,4.917,0,0,1-1.27-.39" fill="#e0e0e0"/>
        <path id="Path_179972" data-name="Path 179972" d="M349.573,467.4a20.558,20.558,0,0,1,1.3-6.48c.87-2,2.56-3.95,4.73-4.39a5.5,5.5,0,0,1,3.43.17,7.49,7.49,0,0,1-.42,1.74,13.511,13.511,0,0,1-2.11,3.66c-1,1.28-2.2,2.61-3.25,4.23a11.488,11.488,0,0,0-1.82,5.11,6.578,6.578,0,0,1-.06,1.09,3.624,3.624,0,0,1-1.35-1.37,6.571,6.571,0,0,1-.45-3.76" fill="#e0e0e0"/>
        <path id="Path_179973" data-name="Path 179973" d="M80.16,387.363l3,55a3.71,3.71,0,0,0,3.68,3.51l98.92.73a3.71,3.71,0,0,0,3.74-3.68l.31-42.8a3.7,3.7,0,0,0-3.67-3.73h-.03l-60.84-.06a3.669,3.669,0,0,1-2.62-1.09l-10.51-10.52a3.672,3.672,0,0,0-2.6-1.08l-25.63-.19a3.709,3.709,0,0,0-3.755,3.664c0,.082,0,.164.005.246" fill="#f9b131"/>
        <g id="Group_117805" data-name="Group 117805" opacity="0.3">
          <g id="Group_117804" data-name="Group 117804">
            <g id="Group_117803" data-name="Group 117803" clip-path="url(#clip-path-3)">
              <path id="Path_179974" data-name="Path 179974" d="M80.16,387.363l3,55a3.71,3.71,0,0,0,3.68,3.51l98.92.73a3.71,3.71,0,0,0,3.74-3.68l.31-42.8a3.7,3.7,0,0,0-3.67-3.73h-.03l-60.84-.06a3.669,3.669,0,0,1-2.62-1.09l-10.51-10.52a3.672,3.672,0,0,0-2.6-1.08l-25.63-.19a3.709,3.709,0,0,0-3.755,3.664c0,.082,0,.164.005.246"/>
            </g>
          </g>
        </g>
        <rect id="Rectangle_37689" data-name="Rectangle 37689" width="64.59" height="108.09" transform="translate(81.32 453.691) rotate(-89.58)" fill="#f5f5f5"/>
        <path id="Path_179975" data-name="Path 179975" d="M73.15,394.833l7.76,67.41a2.4,2.4,0,0,0,2.36,2.12l105.33.77a2.39,2.39,0,0,0,2.4-2.18l5.79-67.32a2.38,2.38,0,0,0-2.161-2.581c-.066-.006-.132-.009-.2-.009l-118.89-.87a2.39,2.39,0,0,0-2.4,2.375,2.268,2.268,0,0,0,.015.285" fill="#fafafa"/>
        <path id="Path_179976" data-name="Path 179976" d="M51.06,376.993l3,55a3.7,3.7,0,0,0,3.68,3.51l98.92.73a3.719,3.719,0,0,0,3.74-3.69l.31-42.79a3.72,3.72,0,0,0-3.7-3.74H157l-60.84-.05a3.7,3.7,0,0,1-2.62-1.09l-10.5-10.52a3.736,3.736,0,0,0-2.6-1.09l-25.65-.18a3.7,3.7,0,0,0-3.736,3.664q0,.123.006.246" fill="#e0e0e0"/>
        <rect id="Rectangle_37690" data-name="Rectangle 37690" width="64.59" height="108.09" transform="translate(52.216 443.318) rotate(-89.58)" fill="#f5f5f5"/>
        <path id="Path_179977" data-name="Path 179977" d="M44.05,384.463l7.76,67.41a2.38,2.38,0,0,0,2.35,2.11l105.34.78a2.4,2.4,0,0,0,2.39-2.19l5.8-67.31a2.38,2.38,0,0,0-2.161-2.581c-.066-.006-.132-.009-.2-.009L46.44,381.8a2.39,2.39,0,0,0-2.4,2.375,2.268,2.268,0,0,0,.015.285" fill="#e0e0e0"/>
        <path id="Path_179978" data-name="Path 179978" d="M18.26,389.863l3,55a3.721,3.721,0,0,0,3.65,3.49l98.92.72a3.71,3.71,0,0,0,3.74-3.68l.31-42.79a3.71,3.71,0,0,0-3.68-3.74h-.03l-60.84-.06a3.732,3.732,0,0,1-2.6-1.08l-10.49-10.5a3.692,3.692,0,0,0-2.6-1.08l-25.65-.19a3.71,3.71,0,0,0-3.735,3.685c0,.075,0,.15.005.225" fill="#f5f5f5"/>
        <rect id="Rectangle_37691" data-name="Rectangle 37691" width="64.59" height="108.09" transform="translate(19.413 456.187) rotate(-89.58)" fill="#f5f5f5"/>
        <path id="Path_179979" data-name="Path 179979" d="M11.25,397.333l7.76,67.39a2.39,2.39,0,0,0,2.35,2.12l105.34.77a2.38,2.38,0,0,0,2.39-2.18l5.8-67.32a2.39,2.39,0,0,0-2.182-2.582c-.059-.005-.118-.007-.178-.008l-118.89-.8a2.389,2.389,0,0,0-2.4,2.38c0,.077,0,.153.01.23" fill="#f5f5f5"/>
        <path id="Path_179980" data-name="Path 179980" d="M0,500.013H134.91V406.5H0Zm84-69.78H50.91a6.91,6.91,0,0,1-.526-13.81c.175-.007.351-.007.526,0h33a6.91,6.91,0,0,1,0,13.81Z" fill="#ebebeb"/>
        <rect id="Rectangle_37692" data-name="Rectangle 37692" width="72.72" height="93.51" transform="translate(134.91 406.503)" fill="#e0e0e0"/>
        <path id="Path_179981" data-name="Path 179981" d="M400,499.753c0,.14-89.546.26-199.987.26S0,499.893,0,499.753s89.537-.29,200.03-.29,199.97.15,199.97.29" fill="#263238"/>
        <path id="Path_179982" data-name="Path 179982" d="M186.67,257.7H.459L.306,20.551H186.747Z" fill="#fff"/>
        <rect id="Rectangle_37693" data-name="Rectangle 37693" width="186.44" height="45.644" transform="translate(0.23 19.71)" fill="#f5f5f5"/>
        <rect id="Rectangle_37694" data-name="Rectangle 37694" width="71.055" height="11.494" transform="translate(9.542 58.452)" fill="#f9b131"/>
        <rect id="Rectangle_37695" data-name="Rectangle 37695" width="166.565" height="16.507" transform="translate(9.542 115.704)" fill="#fafafa"/>
        <rect id="Rectangle_37696" data-name="Rectangle 37696" width="166.565" height="16.507" transform="translate(9.542 132.199)" fill="#e0e0e0"/>
        <rect id="Rectangle_37697" data-name="Rectangle 37697" width="0.319" height="3.011" transform="translate(17.145 62.33)" fill="#fff"/>
        <path id="Path_179983" data-name="Path 179983" d="M20.475,64.065v1.276h-.306V64.065a.638.638,0,0,0-.541-.722.61.61,0,0,0-.135,0,.753.753,0,0,0-.805.7.788.788,0,0,0,0,.119v1.187h-.306V63.083h.293v.408a.984.984,0,0,1,.868-.434.868.868,0,0,1,.94.789.892.892,0,0,1-.009.219" fill="#fff"/>
        <path id="Path_179984" data-name="Path 179984" d="M23.179,63.083l-1.021,2.271h-.306l-1.007-2.271h.318l.855,1.926.855-1.926Z" fill="#fff"/>
        <path id="Path_179985" data-name="Path 179985" d="M23.306,64.218a1.161,1.161,0,0,1,2.309-.243,1.1,1.1,0,0,1,0,.243,1.161,1.161,0,0,1-2.309,0m2,0a.842.842,0,1,0-.842.88.828.828,0,0,0,.843-.815c0-.021,0-.043,0-.065" fill="#fff"/>
        <path id="Path_179986" data-name="Path 179986" d="M26.164,62.356a.23.23,0,0,1,.23-.217.223.223,0,0,1,.013.446h-.013a.23.23,0,0,1-.23-.229m.077.727h.306v2.258h-.306Z" fill="#fff"/>
        <path id="Path_179987" data-name="Path 179987" d="M27.185,64.218a1.11,1.11,0,0,1,1.056-1.161.92.92,0,0,1,.105,0,.994.994,0,0,1,.893.447l-.23.165a.778.778,0,0,0-.663-.344.893.893,0,0,0,0,1.773.766.766,0,0,0,.663-.331l.23.153a1,1,0,0,1-.893.446,1.109,1.109,0,0,1-1.16-1.057c0-.03,0-.061,0-.091" fill="#fff"/>
        <path id="Path_179988" data-name="Path 179988" d="M31.777,64.307h-1.9a.841.841,0,0,0,.89.791h0a.931.931,0,0,0,.7-.293l.165.191a1.093,1.093,0,0,1-.867.37,1.122,1.122,0,0,1-1.2-1.043c0-.035,0-.07,0-.1A1.1,1.1,0,0,1,30.6,63.059c.026,0,.052,0,.079,0a1.084,1.084,0,0,1,1.1,1.069c0,.031,0,.061,0,.092Zm-1.9-.242h1.607a.777.777,0,0,0-.8-.753h0a.791.791,0,0,0-.8.753" fill="#fff"/>
        <path id="Path_179989" data-name="Path 179989" d="M36.484,63.389l-.114.906h.612v.229H36.37l-.09.83h-.242l.1-.83h-.919l-.127.817h-.23l.09-.829h-.613v-.23h.651l.1-.906h-.612v-.242h.65l.1-.817h.23l-.1.817h.893l.1-.817h.229l-.1.817H37.1v.242Zm-.242,0h-.88l-.115.906h.893Z" fill="#fff"/>
        <path id="Path_179990" data-name="Path 179990" d="M39.47,64.486c0,.5-.371.893-1.1.893a1.544,1.544,0,0,1-1.085-.395l.153-.243a1.28,1.28,0,0,0,.932.345c.509,0,.778-.23.778-.6s-.255-.6-.817-.6h-.216v-.229l.841-1.059H37.416V62.33h1.938v.217L38.5,63.619a.909.909,0,0,1,.97.867" fill="#fff"/>
        <path id="Path_179991" data-name="Path 179991" d="M42.48,64.55h-.612v.791h-.306v-.8h-1.71V64.32l1.62-1.99h.345l-1.544,1.952h1.276v-.7h.293v.7h.613Z" fill="#fff"/>
        <path id="Path_179992" data-name="Path 179992" d="M44.8,64.46c0,.51-.37.918-1.1.918a1.513,1.513,0,0,1-1.084-.395l.153-.242a1.277,1.277,0,0,0,.918.344c.523,0,.791-.242.791-.612s-.242-.638-1.008-.638h-.65l.153-1.5h1.658V62.6H43.258l-.1.969h.383c.906,0,1.263.357,1.263.893" fill="#fff"/>
        <path id="Path_179993" data-name="Path 179993" d="M47.455,64.448a.931.931,0,0,1-.927.936c-.031,0-.062,0-.093-.005-.8,0-1.276-.561-1.276-1.518a1.388,1.388,0,0,1,1.39-1.556,1.276,1.276,0,0,1,.715.166l-.128.242a1.058,1.058,0,0,0-.587-.14c-.65,0-1.071.421-1.071,1.275a1.642,1.642,0,0,0,0,.243.967.967,0,0,1,.931-.51.906.906,0,0,1,1.036.754,1.055,1.055,0,0,1,.01.113m-.306,0c0-.395-.293-.651-.753-.651a.647.647,0,1,0,.748.709c0-.019,0-.039,0-.058" fill="#fff"/>
        <path id="Path_179994" data-name="Path 179994" d="M49.879,65.073v.268H47.761v-.23l1.276-1.275c.332-.345.4-.536.4-.753a.661.661,0,0,0-.7-.561,1.034,1.034,0,0,0-.829.331l-.23-.063a1.378,1.378,0,0,1,1.072-.421c.612,0,.995.306.995.816a1.276,1.276,0,0,1-.485.944l-1.033,1.008Z" fill="#fff"/>
        <path id="Path_179995" data-name="Path 179995" d="M113.637,38.22h1.824v9.708h-1.8Z" fill="#263238"/>
        <path id="Path_179996" data-name="Path 179996" d="M126.675,38.22v9.708h-1.48l-5.345-6.57v6.57h-1.837V38.22h1.48l5.345,6.57V38.22Z" fill="#263238"/>
        <path id="Path_179997" data-name="Path 179997" d="M138.092,38.22l-4.223,9.708h-1.824L127.8,38.22h1.952l3.228,7.488,3.265-7.488Z" fill="#263238"/>
        <path id="Path_179998" data-name="Path 179998" d="M138.335,43.067a5.23,5.23,0,1,1,5.455,5c-.075,0-.15.005-.225.005a4.976,4.976,0,0,1-5.224-4.714c-.005-.1-.007-.191-.006-.287m8.636,0a3.419,3.419,0,1,0-3.444,3.419,3.3,3.3,0,0,0,3.443-3.159c0-.086,0-.173,0-.26" fill="#263238"/>
        <path id="Path_179999" data-name="Path 179999" d="M150.709,38.22h1.748v9.708h-1.8Z" fill="#263238"/>
        <path id="Path_180000" data-name="Path 180000" d="M154.434,43.067a5.256,5.256,0,0,1,9.045-3.368L162.3,40.8a3.485,3.485,0,1,0-2.969,5.69,3.643,3.643,0,0,0,.418,0,3.369,3.369,0,0,0,2.551-1.161l1.174,1.11a5.243,5.243,0,0,1-9.045-3.368" fill="#263238"/>
        <path id="Path_180001" data-name="Path 180001" d="M172.484,46.41v1.518h-7.271V38.22h7.08v1.518h-5.282V42.29h4.682v1.492h-4.682v2.666Z" fill="#263238"/>
        <path id="Path_180002" data-name="Path 180002" d="M148.387,78.939a15.314,15.314,0,0,1-5.843,0,15.314,15.314,0,0,1,5.843,0" fill="#263238"/>
        <path id="Path_180003" data-name="Path 180003" d="M149.408,81.376a6.969,6.969,0,0,1,.713-2.641,6.65,6.65,0,0,1,1.276-2.449,13.478,13.478,0,0,1-1.952,5.1Z" fill="#263238"/>
        <path id="Path_180004" data-name="Path 180004" d="M156.908,78.939a4.455,4.455,0,0,1-2.169.281c-1.2,0-2.168-.128-2.168-.281s.969-.281,2.168-.281a4.455,4.455,0,0,1,2.169.281" fill="#263238"/>
        <path id="Path_180005" data-name="Path 180005" d="M158.694,80.776c-.153,0,.089-1.072.536-2.271s.918-2.13,1.059-2.079a5.042,5.042,0,0,1-.536,2.271c-.447,1.2-.919,2.13-1.059,2.079" fill="#263238"/>
        <path id="Path_180006" data-name="Path 180006" d="M169.627,78.939a17.188,17.188,0,0,1-4.337.281,17.1,17.1,0,0,1-4.338-.281,17.1,17.1,0,0,1,4.338-.281,17.188,17.188,0,0,1,4.337.281" fill="#263238"/>
        <rect id="Rectangle_37698" data-name="Rectangle 37698" width="166.565" height="11.494" transform="translate(9.542 104.211)" fill="#f9b131"/>
        <path id="Path_180007" data-name="Path 180007" d="M59.676,124.838c0,.153-8.011.268-17.859.268s-17.86-.115-17.86-.268,8-.281,17.86-.281,17.859.115,17.859.281"/>
        <path id="Path_180008" data-name="Path 180008" d="M118.166,125.208a54.833,54.833,0,0,1-7.794.281,54.882,54.882,0,0,1-7.808-.281,54.882,54.882,0,0,1,7.808-.281,54.833,54.833,0,0,1,7.794.281"/>
        <path id="Path_180009" data-name="Path 180009" d="M140.108,124.264c0,.153-.765.281-1.709.281s-1.71-.128-1.71-.281.766-.281,1.71-.281,1.709.128,1.709.281"/>
        <path id="Path_180010" data-name="Path 180010" d="M169.971,124.647a44.45,44.45,0,0,1-6.94.268,44.316,44.316,0,0,1-6.939-.268,43.366,43.366,0,0,1,6.939-.281,43.613,43.613,0,0,1,6.94.281"/>
        <path id="Path_180011" data-name="Path 180011" d="M78.123,140.81c0,.153-12.132.281-27.1.281s-27.109-.128-27.109-.281,12.132-.281,27.109-.281,27.1.077,27.1.281"/>
        <path id="Path_180012" data-name="Path 180012" d="M115.309,141a36.558,36.558,0,0,1-6.378.281,36.762,36.762,0,0,1-6.379-.281,36.76,36.76,0,0,1,6.379-.281,36.557,36.557,0,0,1,6.378.281"/>
        <path id="Path_180013" data-name="Path 180013" d="M140.873,140.81a11.059,11.059,0,0,1-4.95,0,11.06,11.06,0,0,1,4.95,0"/>
        <path id="Path_180014" data-name="Path 180014" d="M168.071,140.427a40.052,40.052,0,0,1-6.659.281,40.052,40.052,0,0,1-6.659-.281,40.159,40.159,0,0,1,6.659-.281,40.159,40.159,0,0,1,6.659.281"/>
        <rect id="Rectangle_37699" data-name="Rectangle 37699" width="78.48" height="10.231" transform="translate(97.168 173.25)" fill="#f9b131"/>
        <path id="Path_180015" data-name="Path 180015" d="M158.426,158.8a78.233,78.233,0,0,1-9.325.281,78.233,78.233,0,0,1-9.325-.281,79.945,79.945,0,0,1,9.325-.268,79.951,79.951,0,0,1,9.325.268" fill="#263238"/>
        <path id="Path_180016" data-name="Path 180016" d="M158.426,165.66a78.233,78.233,0,0,1-9.325.281,78.233,78.233,0,0,1-9.325-.281,78.233,78.233,0,0,1,9.325-.281,78.233,78.233,0,0,1,9.325.281" fill="#263238"/>
        <path id="Path_180017" data-name="Path 180017" d="M123.779,165.66a78.451,78.451,0,0,1-9.338.281,78.233,78.233,0,0,1-9.325-.281,78.233,78.233,0,0,1,9.325-.281,78.451,78.451,0,0,1,9.338.281" fill="#263238"/>
        <path id="Path_180018" data-name="Path 180018" d="M123.779,158.465c0,.153-6.238.281-13.918.281s-13.917-.128-13.917-.281,6.225-.281,13.917-.281,13.918.115,13.918.281" fill="#263238"/>
        <path id="Path_180019" data-name="Path 180019" d="M158.426,178.876a78.236,78.236,0,0,1-9.325.281,78.236,78.236,0,0,1-9.325-.281,78.233,78.233,0,0,1,9.325-.281,78.233,78.233,0,0,1,9.325.281" fill="#fff"/>
        <path id="Path_180020" data-name="Path 180020" d="M124.8,178.876a78.236,78.236,0,0,1-9.325.281,78.236,78.236,0,0,1-9.325-.281,78.233,78.233,0,0,1,9.325-.281,78.233,78.233,0,0,1,9.325.281" fill="#fff"/>
        <path id="Path_180021" data-name="Path 180021" d="M17.043,36.434h1.3a2.041,2.041,0,0,1,2.041,2.041v1.3a2.041,2.041,0,0,1-2.041,2.041h-1.3A2.041,2.041,0,0,1,15,39.776v-1.3a2.041,2.041,0,0,1,2.041-2.041" fill="#f9b131"/>
        <path id="Path_180022" data-name="Path 180022" d="M16.214,42.94h0a.319.319,0,0,0,.306.319h5.167V37.9a.319.319,0,0,0-.319-.306.306.306,0,0,0-.306.306v4.618H16.52a.318.318,0,0,0-.306.421" fill="#f9b131"/>
        <path id="Path_180023" data-name="Path 180023" d="M55.071,38.3c0,.153-6.914.281-15.423.281s-15.436-.128-15.436-.281,6.9-.281,15.436-.281,15.423.128,15.423.281" fill="#f9b131"/>
        <path id="Path_180024" data-name="Path 180024" d="M40.758,41.256a58.507,58.507,0,0,1-8.062.281,58.69,58.69,0,0,1-8.075-.281,58.69,58.69,0,0,1,8.075-.281,58.507,58.507,0,0,1,8.062.281" fill="#f9b131"/>
        <path id="Path_180025" data-name="Path 180025" d="M186.67,257.7c0-2.194-.1-96.735-.255-237.991l.255.256H.255l.281-.281v237.99l-.23-.229,186.441.229L.23,257.968H0V19.416H186.976v.255c-.2,141.345-.306,235.835-.306,238.029" fill="#263238"/>
        <path id="Path_180026" data-name="Path 180026" d="M92.844,85.075c0,.153-9.976.281-22.286.281s-22.273-.128-22.273-.281,9.975-.281,22.273-.281,22.286.128,22.286.281" fill="#263238"/>
        <path id="Path_180027" data-name="Path 180027" d="M92.844,89.336c0,.153-9.976.281-22.286.281s-22.273-.128-22.273-.281,9.975-.281,22.273-.281,22.286.128,22.286.281" fill="#263238"/>
        <path id="Path_180028" data-name="Path 180028" d="M64.945,93.61a62.446,62.446,0,0,1-8.33.281,62.446,62.446,0,0,1-8.33-.281,62.446,62.446,0,0,1,8.33-.281,62.446,62.446,0,0,1,8.33.281" fill="#263238"/>
        <path id="Path_180029" data-name="Path 180029" d="M93.533,80.5c0,.153-18.752.281-41.881.281S9.759,80.649,9.759,80.5s18.753-.281,41.893-.281,41.881.128,41.881.281" fill="#263238"/>
        <path id="Path_180030" data-name="Path 180030" d="M60.709,109.989c0,.153-8.368.281-18.688.281s-18.677-.128-18.677-.281,8.356-.281,18.677-.281,18.688.1,18.688.281" fill="#fff"/>
        <path id="Path_180031" data-name="Path 180031" d="M118.829,109.989a87.93,87.93,0,0,1-9.887.281,87.919,87.919,0,0,1-9.886-.281,87.919,87.919,0,0,1,9.886-.281,87.93,87.93,0,0,1,9.887.281" fill="#fff"/>
        <path id="Path_180032" data-name="Path 180032" d="M147.111,109.989a48.576,48.576,0,0,1-7.335.281,48.571,48.571,0,0,1-7.335-.281,48.571,48.571,0,0,1,7.335-.281,48.576,48.576,0,0,1,7.335.281" fill="#fff"/>
        <path id="Path_180033" data-name="Path 180033" d="M171.592,109.989a48.279,48.279,0,0,1-7.322.281,48.449,48.449,0,0,1-7.336-.281,48.449,48.449,0,0,1,7.336-.281,48.279,48.279,0,0,1,7.322.281" fill="#fff"/>
        <path id="Path_180034" data-name="Path 180034" d="M173.722,192.054c0,.179-36.217.332-80.891.332s-80.9-.153-80.9-.332,36.216-.332,80.9-.332,80.891.153,80.891.332" fill="#263238"/>
        <path id="Path_180035" data-name="Path 180035" d="M85.866,207.8c0,.179-16.1.332-35.936.332s-35.936-.153-35.936-.332,16.087-.332,35.936-.332,35.936.141,35.936.332" fill="#263238"/>
        <path id="Path_180036" data-name="Path 180036" d="M69.7,213.728c0,.179-12.463.332-27.848.332s-27.861-.153-27.861-.332,12.464-.332,27.861-.332,27.848.153,27.848.332" fill="#263238"/>
        <path id="Path_180037" data-name="Path 180037" d="M60.709,219.7c0,.179-10.461.332-23.358.332s-23.357-.153-23.357-.332,10.447-.332,23.357-.332,23.358.115,23.358.332" fill="#263238"/>
        <path id="Path_180038" data-name="Path 180038" d="M169.04,211.495a2.855,2.855,0,0,1-.447.128l-1.275.319c-1.161.28-2.87.65-5.1,1.135-4.414.931-10.843,2.22-18.816,3.533-3.993.651-8.369,1.276-13.089,1.952-2.347.306-4.8.625-7.309.906l-3.827.434c-.651.064-1.276.166-1.978.191a3.942,3.942,0,0,1-2.092-.421,2.3,2.3,0,0,1-1.2-1.888,2.261,2.261,0,0,1,1.276-1.85,32.387,32.387,0,0,1,3.827-1.824,39.553,39.553,0,0,1,17.171-2.934,17.49,17.49,0,0,1,4.554.714,7.5,7.5,0,0,1,3.954,2.552,5.689,5.689,0,0,1,.906,4.643,8.618,8.618,0,0,1-2.232,4.082,17.862,17.862,0,0,1-3.662,2.909,33.571,33.571,0,0,1-3.827,2.207,8.491,8.491,0,0,1-4.337.969,4.936,4.936,0,0,1-3.725-2.27,9.98,9.98,0,0,1-1.4-4.019,27.752,27.752,0,0,1-.255-4.1,29.336,29.336,0,0,1,4.082-14.593,10.21,10.21,0,0,1,2.207-2.807,3.215,3.215,0,0,1,3.419-.612,4.045,4.045,0,0,1,2.066,2.64,6.119,6.119,0,0,1-.178,3.19,19.288,19.288,0,0,1-1.11,2.768c-.408.88-.829,1.722-1.276,2.551-.855,1.62-1.722,3.113-2.551,4.465a60.842,60.842,0,0,1-4.861,6.659,51.439,51.439,0,0,1-3.52,3.827c-.421.421-.766.727-.983.931l-.357.307.306-.358.931-.982c.817-.867,2-2.156,3.419-3.9a64.746,64.746,0,0,0,4.759-6.7c.842-1.365,1.683-2.844,2.551-4.465a36.911,36.911,0,0,0,2.3-5.23,5.73,5.73,0,0,0,.153-2.934,3.507,3.507,0,0,0-1.811-2.3,2.655,2.655,0,0,0-2.858.548,9.511,9.511,0,0,0-2.079,2.679,28.694,28.694,0,0,0-3.942,14.326,26.4,26.4,0,0,0,.268,3.993,9.314,9.314,0,0,0,1.276,3.827,4.284,4.284,0,0,0,3.265,1.977,8.014,8.014,0,0,0,3.993-.918,34.258,34.258,0,0,0,3.827-2.182,17.584,17.584,0,0,0,3.419-2.717,7.934,7.934,0,0,0,2.067-3.827,5.1,5.1,0,0,0-.791-4.12,6.881,6.881,0,0,0-3.61-2.335,17.675,17.675,0,0,0-4.389-.676,38.464,38.464,0,0,0-8.764.51,39.68,39.68,0,0,0-8.139,2.348,34.193,34.193,0,0,0-3.7,1.76,1.429,1.429,0,0,0-.1,2.692,6.794,6.794,0,0,0,3.7.166l3.827-.421,7.31-.881c4.707-.612,9.083-1.275,13.076-1.875,7.986-1.275,14.415-2.462,18.842-3.317l5.1-1.007,1.276-.255Z" fill="#263238"/>
        <path id="Path_180039" data-name="Path 180039" d="M120.934,234.113a23.072,23.072,0,0,1-5.46.332,23.075,23.075,0,0,1-5.46-.332,23.085,23.085,0,0,1,5.447-.383,23.093,23.093,0,0,1,5.473.383" fill="#263238"/>
        <path id="Path_180040" data-name="Path 180040" d="M196.748,248.2H10.537L10.384,11.047H196.825Z" fill="#fff"/>
        <rect id="Rectangle_37700" data-name="Rectangle 37700" width="186.44" height="45.644" transform="translate(10.307 10.206)" fill="#f5f5f5"/>
        <rect id="Rectangle_37701" data-name="Rectangle 37701" width="71.055" height="11.494" transform="translate(19.633 48.948)" fill="#f9b131"/>
        <rect id="Rectangle_37702" data-name="Rectangle 37702" width="166.565" height="16.507" transform="translate(19.633 106.201)" fill="#fafafa"/>
        <rect id="Rectangle_37703" data-name="Rectangle 37703" width="166.565" height="16.507" transform="translate(19.633 122.695)" fill="#e0e0e0"/>
        <rect id="Rectangle_37704" data-name="Rectangle 37704" width="0.319" height="3.011" transform="translate(27.223 52.826)" fill="#fff"/>
        <path id="Path_180041" data-name="Path 180041" d="M30.552,54.523V55.8h-.306V54.523c0-.485-.243-.727-.676-.727a.739.739,0,0,0-.793.682.666.666,0,0,0,0,.134V55.8h-.306V53.566h.242v.421a.946.946,0,0,1,.855-.434.869.869,0,0,1,.982.97" fill="#fff"/>
        <path id="Path_180042" data-name="Path 180042" d="M33.257,53.566l-1.008,2.271H31.93l-1.008-2.271h.345l.855,1.939.854-1.939Z" fill="#fff"/>
        <path id="Path_180043" data-name="Path 180043" d="M33.4,54.7a1.161,1.161,0,1,1,0,.243,1.1,1.1,0,0,1,0-.243m1.99,0a.842.842,0,1,0-.842.893.829.829,0,0,0,.844-.814.7.7,0,0,0,0-.079" fill="#fff"/>
        <path id="Path_180044" data-name="Path 180044" d="M36.254,52.852a.23.23,0,1,1,.23.229.23.23,0,0,1-.23-.229m.077.714h.306v2.271h-.268Z" fill="#fff"/>
        <path id="Path_180045" data-name="Path 180045" d="M37.263,54.7a1.123,1.123,0,0,1,1.1-1.149c.026,0,.052,0,.078,0a.982.982,0,0,1,.88.446l-.23.153a.79.79,0,0,0-.65-.331.893.893,0,0,0,0,1.773.751.751,0,0,0,.65-.332l.23.153a.983.983,0,0,1-.88.447,1.122,1.122,0,0,1-1.173-1.07c0-.03,0-.061,0-.091" fill="#fff"/>
        <path id="Path_180046" data-name="Path 180046" d="M41.855,54.8h-1.9a.855.855,0,0,0,.906.791.9.9,0,0,0,.689-.307l.165.205a1.081,1.081,0,0,1-.867.369,1.121,1.121,0,0,1-1.2-1.042.933.933,0,0,1,0-.118,1.11,1.11,0,1,1,2.219,0v0a.711.711,0,0,0-.012.1m-1.9-.23h1.62a.816.816,0,0,0-1.62,0" fill="#fff"/>
        <path id="Path_180047" data-name="Path 180047" d="M46.575,53.859l-.115.92h.612v.229h-.638l-.1.817H46.1l.089-.817H45.3l-.1.817h-.23l.1-.817h-.625v-.229H45.1l.115-.92h-.625V53.63H45.3l.1-.816h.23l-.1.816h.893l.1-.816h.229l-.1.816h.612v.229Zm-.23,0h-.893l-.115.92h.893Z" fill="#fff"/>
        <path id="Path_180048" data-name="Path 180048" d="M49.547,54.969c0,.51-.357.893-1.1.893a1.555,1.555,0,0,1-1.084-.383l.153-.242a1.273,1.273,0,0,0,.931.344c.51,0,.778-.229.778-.612s-.255-.6-.816-.6h-.2V54.14l.829-1.046H47.493v-.268h1.939v.217l-.855,1.071c.651.039.97.37.97.855" fill="#fff"/>
        <path id="Path_180049" data-name="Path 180049" d="M52.558,55.046h-.6v.791h-.28v-.791H49.943v-.217l1.594-2h.345L50.4,54.765h1.276v-.689h.306v.689h.6Z" fill="#fff"/>
        <path id="Path_180050" data-name="Path 180050" d="M54.88,54.957c0,.51-.357.906-1.1.906A1.529,1.529,0,0,1,52.7,55.48l.153-.242a1.277,1.277,0,0,0,.918.344c.523,0,.791-.255.791-.612s-.242-.638-1.008-.638h-.6l.153-1.505h1.645v.267H53.336l-.1.97h.383c.919,0,1.263.357,1.263.893" fill="#fff"/>
        <path id="Path_180051" data-name="Path 180051" d="M57.546,54.944a.944.944,0,0,1-.965.922.517.517,0,0,1-.068,0c-.8,0-1.276-.548-1.276-1.505A1.386,1.386,0,0,1,56.615,52.8a1.4,1.4,0,0,1,.714.153l-.127.255a1.058,1.058,0,0,0-.587-.14c-.651,0-1.072.421-1.072,1.275v.243a.969.969,0,0,1,.932-.51.905.905,0,0,1,1.056.724.857.857,0,0,1,.015.143m-.306,0c0-.4-.293-.651-.765-.651a.7.7,0,0,0-.775.62c0,.015,0,.029,0,.044,0,.331.281.65.8.65a.663.663,0,0,0,.736-.582.733.733,0,0,0,0-.081" fill="#fff"/>
        <path id="Path_180052" data-name="Path 180052" d="M59.957,55.569v.268H57.839V55.62l1.276-1.276c.344-.344.408-.548.408-.752a.685.685,0,0,0-.714-.562,1.038,1.038,0,0,0-.829.332l-.217-.191a1.4,1.4,0,0,1,1.071-.421c.613,0,1.008.306,1.008.816a1.279,1.279,0,0,1-.5.944l-1.034,1.008Z" fill="#fff"/>
        <rect id="Rectangle_37705" data-name="Rectangle 37705" width="1.799" height="9.708" transform="translate(123.715 28.716)" fill="#263238"/>
        <path id="Path_180053" data-name="Path 180053" d="M136.766,28.716v9.708h-1.493l-5.345-6.57v6.57h-1.786V28.716h1.48l5.345,6.57v-6.57Z" fill="#263238"/>
        <path id="Path_180054" data-name="Path 180054" d="M148.17,28.716l-4.222,9.708h-1.774l-4.248-9.708h1.952l3.24,7.488,3.253-7.488Z" fill="#263238"/>
        <path id="Path_180055" data-name="Path 180055" d="M148.413,33.564a5.23,5.23,0,1,1,5.467,4.982q-.119.006-.237.006a4.962,4.962,0,0,1-5.223-4.687c-.006-.1-.008-.2-.007-.3m8.636,0a3.406,3.406,0,1,0-3.406,3.419,3.3,3.3,0,0,0,3.406-3.2c0-.074,0-.148,0-.221" fill="#263238"/>
        <rect id="Rectangle_37706" data-name="Rectangle 37706" width="1.799" height="9.708" transform="translate(160.786 28.716)" fill="#263238"/>
        <path id="Path_180056" data-name="Path 180056" d="M164.512,33.564a5.256,5.256,0,0,1,9.045-3.368l-1.175,1.1a3.366,3.366,0,0,0-2.551-1.135,3.419,3.419,0,0,0-.418,6.825,3.643,3.643,0,0,0,.418,0,3.351,3.351,0,0,0,2.551-1.161l1.175,1.11a5.255,5.255,0,0,1-9.045-3.368" fill="#263238"/>
        <path id="Path_180057" data-name="Path 180057" d="M182.562,36.906v1.518h-7.271V28.716h7.08v1.5h-5.282v2.552H181.8v1.48h-4.682v2.679Z" fill="#263238"/>
        <path id="Path_180058" data-name="Path 180058" d="M158.465,69.436a7.92,7.92,0,0,1-2.921.281,7.831,7.831,0,0,1-2.909-.281,7.832,7.832,0,0,1,2.909-.281,7.92,7.92,0,0,1,2.921.281" fill="#263238"/>
        <path id="Path_180059" data-name="Path 180059" d="M159.485,71.859a7.044,7.044,0,0,1,.714-2.641,6.884,6.884,0,0,1,1.276-2.436,7.044,7.044,0,0,1-.714,2.64,6.737,6.737,0,0,1-1.276,2.437" fill="#263238"/>
        <path id="Path_180060" data-name="Path 180060" d="M166.986,69.436a4.455,4.455,0,0,1-2.169.281c-1.2,0-2.168-.128-2.168-.281s.969-.281,2.168-.281a4.455,4.455,0,0,1,2.169.281" fill="#263238"/>
        <path id="Path_180061" data-name="Path 180061" d="M168.772,71.273A5.23,5.23,0,0,1,169.308,69c.446-1.275.918-2.143,1.059-2.079a5.014,5.014,0,0,1-.536,2.271c-.447,1.2-.919,2.13-1.059,2.079" fill="#263238"/>
        <path id="Path_180062" data-name="Path 180062" d="M179.705,69.436a33.677,33.677,0,0,1-8.675,0,33.677,33.677,0,0,1,8.675,0" fill="#263238"/>
        <rect id="Rectangle_37707" data-name="Rectangle 37707" width="166.565" height="11.494" transform="translate(19.633 94.707)" fill="#f9b131"/>
        <path id="Path_180063" data-name="Path 180063" d="M69.754,115.322c0,.153-8.011.281-17.859.281s-17.86-.128-17.86-.281,8-.268,17.86-.268,17.859.115,17.859.268"/>
        <path id="Path_180064" data-name="Path 180064" d="M128.218,115.7a54.834,54.834,0,0,1-7.794.281,54.882,54.882,0,0,1-7.808-.281,54.883,54.883,0,0,1,7.808-.281,54.834,54.834,0,0,1,7.794.281"/>
        <path id="Path_180065" data-name="Path 180065" d="M150.186,114.76c0,.153-.765.281-1.709.281s-1.71-.128-1.71-.281.766-.281,1.71-.281,1.709.128,1.709.281"/>
        <path id="Path_180066" data-name="Path 180066" d="M180.049,115.092a41.59,41.59,0,0,1-6.94.281,41.579,41.579,0,0,1-6.939-.281,44.316,44.316,0,0,1,6.939-.268,44.329,44.329,0,0,1,6.94.268"/>
        <path id="Path_180067" data-name="Path 180067" d="M88.2,131.306c0,.153-12.132.281-27.095.281S34,131.459,34,131.306s12.132-.281,27.109-.281,27.095.128,27.095.281"/>
        <path id="Path_180068" data-name="Path 180068" d="M125.386,131.5a36.558,36.558,0,0,1-6.378.281,36.76,36.76,0,0,1-6.379-.281,36.762,36.762,0,0,1,6.379-.281,36.557,36.557,0,0,1,6.378.281"/>
        <path id="Path_180069" data-name="Path 180069" d="M150.951,131.306a11.06,11.06,0,0,1-4.95,0,11.06,11.06,0,0,1,4.95,0"/>
        <path id="Path_180070" data-name="Path 180070" d="M178.148,130.923a40.159,40.159,0,0,1-6.659.281,40.159,40.159,0,0,1-6.659-.281,40.05,40.05,0,0,1,6.659-.281,40.05,40.05,0,0,1,6.659.281"/>
        <rect id="Rectangle_37708" data-name="Rectangle 37708" width="78.48" height="10.231" transform="translate(107.246 163.746)" fill="#f9b131"/>
        <path id="Path_180071" data-name="Path 180071" d="M168.517,149.293a78.451,78.451,0,0,1-9.338.281,78.233,78.233,0,0,1-9.325-.281,78.448,78.448,0,0,1,9.325-.281,78.454,78.454,0,0,1,9.338.281" fill="#263238"/>
        <path id="Path_180072" data-name="Path 180072" d="M168.517,156.156a78.451,78.451,0,0,1-9.338.281,78.445,78.445,0,0,1-9.325-.281,78.442,78.442,0,0,1,9.325-.281,78.451,78.451,0,0,1,9.338.281" fill="#263238"/>
        <path id="Path_180073" data-name="Path 180073" d="M133.857,156.156a78.445,78.445,0,0,1-9.325.281,78.444,78.444,0,0,1-9.338-.281,78.444,78.444,0,0,1,9.338-.281,78.442,78.442,0,0,1,9.325.281" fill="#263238"/>
        <path id="Path_180074" data-name="Path 180074" d="M133.857,148.949c0,.153-6.238.281-13.918.281s-13.917-.128-13.917-.281,6.238-.281,13.917-.281,13.918.128,13.918.281" fill="#263238"/>
        <path id="Path_180075" data-name="Path 180075" d="M168.517,169.372a78.451,78.451,0,0,1-9.338.281,78.442,78.442,0,0,1-9.325-.281,78.445,78.445,0,0,1,9.325-.281,78.451,78.451,0,0,1,9.338.281" fill="#fff"/>
        <path id="Path_180076" data-name="Path 180076" d="M134.878,169.372a78.256,78.256,0,0,1-9.326.281,78.21,78.21,0,0,1-9.324-.281,78.21,78.21,0,0,1,9.324-.281,78.256,78.256,0,0,1,9.326.281" fill="#fff"/>
        <path id="Path_180077" data-name="Path 180077" d="M27.121,26.93h1.3a2.041,2.041,0,0,1,2.041,2.041v1.3a2.041,2.041,0,0,1-2.041,2.041h-1.3a2.041,2.041,0,0,1-2.041-2.041v-1.3a2.041,2.041,0,0,1,2.041-2.041" fill="#f9b131"/>
        <path id="Path_180078" data-name="Path 180078" d="M26.292,33.449h0a.319.319,0,0,0,.306.319h5.1V28.41A.306.306,0,0,0,31.4,28.1a.319.319,0,0,0-.319.306v4.618H26.534a.319.319,0,0,0-.255.372.3.3,0,0,0,.013.049" fill="#f9b131"/>
        <path id="Path_180079" data-name="Path 180079" d="M65.149,28.792c0,.153-6.9.281-15.423.281s-15.436-.128-15.436-.281,6.915-.281,15.436-.281,15.423.128,15.423.281" fill="#f9b131"/>
        <path id="Path_180080" data-name="Path 180080" d="M50.848,31.752a58.849,58.849,0,0,1-8.075.281,58.691,58.691,0,0,1-8.075-.281,58.628,58.628,0,0,1,8.049-.281,58.752,58.752,0,0,1,8.1.281" fill="#f9b131"/>
        <path id="Path_180081" data-name="Path 180081" d="M196.748,248.2c0-2.194-.1-96.735-.242-237.991l.242.243-186.415.038.281-.281V248.2l-.23-.23,186.441.23-186.441.23h-.229V9.925H197.131v.255c-.281,141.281-.383,235.822-.383,238.016" fill="#263238"/>
        <path id="Path_180082" data-name="Path 180082" d="M102.922,75.546c0,.153-9.976.281-22.273.281s-22.286-.128-22.286-.281,9.975-.281,22.286-.281,22.273.153,22.273.281" fill="#263238"/>
        <path id="Path_180083" data-name="Path 180083" d="M102.922,79.832c0,.153-9.976.281-22.273.281s-22.286-.128-22.286-.281,9.975-.281,22.286-.281,22.273.128,22.273.281" fill="#263238"/>
        <path id="Path_180084" data-name="Path 180084" d="M75.023,84.106a63.823,63.823,0,0,1-8.33.268,63.993,63.993,0,0,1-8.33-.268,60.183,60.183,0,0,1,8.33-.281,60.028,60.028,0,0,1,8.33.281" fill="#263238"/>
        <path id="Path_180085" data-name="Path 180085" d="M103.611,70.992c0,.153-18.752.281-41.881.281s-41.88-.128-41.88-.281,18.74-.281,41.88-.281,41.881.128,41.881.281" fill="#263238"/>
        <path id="Path_180086" data-name="Path 180086" d="M70.813,100.447c0,.166-8.368.281-18.676.281s-18.689-.115-18.689-.281,8.369-.268,18.689-.268,18.676.115,18.676.268" fill="#fff"/>
        <path id="Path_180087" data-name="Path 180087" d="M128.907,100.447a84.513,84.513,0,0,1-9.887.281,84.5,84.5,0,0,1-9.886-.281,89.852,89.852,0,0,1,9.886-.268,89.864,89.864,0,0,1,9.887.268" fill="#fff"/>
        <path id="Path_180088" data-name="Path 180088" d="M157.189,100.447a46.45,46.45,0,0,1-7.335.281,46.686,46.686,0,0,1-7.335-.281,49.644,49.644,0,0,1,7.335-.268,49.508,49.508,0,0,1,7.335.268" fill="#fff"/>
        <path id="Path_180089" data-name="Path 180089" d="M181.644,100.447a46.691,46.691,0,0,1-7.335.281,46.686,46.686,0,0,1-7.335-.281,49.644,49.644,0,0,1,7.335-.268,49.644,49.644,0,0,1,7.335.268" fill="#fff"/>
        <path id="Path_180090" data-name="Path 180090" d="M183.813,182.55c0,.179-36.23.332-80.9.332s-80.891-.153-80.891-.332,36.2-.332,80.891-.332,80.9.141,80.9.332" fill="#263238"/>
        <path id="Path_180091" data-name="Path 180091" d="M95.944,198.292c0,.179-16.086.332-35.936.332s-35.936-.153-35.936-.332,16.125-.281,35.936-.281,35.936.09,35.936.281" fill="#263238"/>
        <path id="Path_180092" data-name="Path 180092" d="M79.743,204.224c0,.179-12.476.332-27.861.332s-27.861-.153-27.861-.332,12.464-.332,27.861-.332,27.861.141,27.861.332" fill="#263238"/>
        <path id="Path_180093" data-name="Path 180093" d="M70.813,210.156c0,.179-10.461.332-23.358.332s-23.357-.153-23.357-.332,10.447-.332,23.357-.332,23.358.153,23.358.332" fill="#263238"/>
        <path id="Path_180094" data-name="Path 180094" d="M179.131,201.991l-.446.128-1.276.319c-1.161.267-2.87.65-5.1,1.122-4.426.944-10.843,2.22-18.829,3.546-3.993.651-8.368,1.276-13.076,1.94q-3.546.484-7.322.918l-3.827.434c-.651,0-1.276.166-1.977.191a3.978,3.978,0,0,1-2.092-.421,2.028,2.028,0,0,1,.076-3.738,32.389,32.389,0,0,1,3.827-1.824,39.55,39.55,0,0,1,17.2-2.934,18.008,18.008,0,0,1,4.542.7,7.529,7.529,0,0,1,3.967,2.551,5.716,5.716,0,0,1,.893,4.631,8.589,8.589,0,0,1-2.22,4.1,18.287,18.287,0,0,1-3.559,2.832,37.072,37.072,0,0,1-3.827,2.207,8.765,8.765,0,0,1-4.337.969,4.934,4.934,0,0,1-3.725-2.271,9.77,9.77,0,0,1-1.391-4.018,27.9,27.9,0,0,1-.268-4.1,29.343,29.343,0,0,1,4.083-14.594,10.191,10.191,0,0,1,2.207-2.806,3.213,3.213,0,0,1,3.418-.612,4,4,0,0,1,2.067,2.64,6.242,6.242,0,0,1-.166,3.189,19.309,19.309,0,0,1-1.122,2.769c-.409.88-.83,1.722-1.276,2.551-.855,1.62-1.71,3.113-2.552,4.465a62.247,62.247,0,0,1-4.873,6.659,51.446,51.446,0,0,1-3.52,3.827c-.421.434-.753.727-.983.944a2.091,2.091,0,0,1-.344.293,2.091,2.091,0,0,1,.293-.344c.243-.242.549-.574.931-.982.817-.868,2-2.156,3.419-3.917a62.905,62.905,0,0,0,4.759-6.684c.841-1.365,1.7-2.858,2.551-4.465a35.614,35.614,0,0,0,2.3-5.23,5.731,5.731,0,0,0,.153-2.934,3.519,3.519,0,0,0-1.811-2.309,2.677,2.677,0,0,0-2.858.561,9.976,9.976,0,0,0-2.079,2.679,28.922,28.922,0,0,0-3.942,14.326,28.227,28.227,0,0,0,.14,4.018,9.229,9.229,0,0,0,1.276,3.751,4.3,4.3,0,0,0,3.266,1.99,8.015,8.015,0,0,0,3.993-.919,34.342,34.342,0,0,0,3.827-2.181,17.656,17.656,0,0,0,3.431-2.718,8.015,8.015,0,0,0,2.054-3.827,5.1,5.1,0,0,0-.778-4.12,6.911,6.911,0,0,0-3.623-2.334,18.168,18.168,0,0,0-4.388-.689,39.067,39.067,0,0,0-16.9,2.87,35.357,35.357,0,0,0-3.7,1.76,1.686,1.686,0,0,0-.983,1.276,1.634,1.634,0,0,0,.88,1.352,6.558,6.558,0,0,0,3.7.166l3.827-.408,7.31-.88c4.707-.613,9.082-1.276,13.075-1.876,7.986-1.275,14.415-2.462,18.855-3.316l5.1-1.008,1.275-.255a1.613,1.613,0,0,1,.485.038" fill="#263238"/>
        <path id="Path_180095" data-name="Path 180095" d="M131.012,224.609a23.07,23.07,0,0,1-5.46.332,23.074,23.074,0,0,1-5.46-.332,22.307,22.307,0,0,1,5.46-.332,22.3,22.3,0,0,1,5.46.332" fill="#263238"/>
        <path id="Path_180096" data-name="Path 180096" d="M205.92,238.208H19.709L19.569,1.059H206Z" fill="#fff"/>
        <rect id="Rectangle_37709" data-name="Rectangle 37709" width="186.44" height="45.644" transform="translate(19.48 0.217)" fill="#f5f5f5"/>
        <rect id="Rectangle_37710" data-name="Rectangle 37710" width="71.055" height="11.494" transform="translate(28.805 38.947)" fill="#f9b131"/>
        <rect id="Rectangle_37711" data-name="Rectangle 37711" width="166.565" height="16.507" transform="translate(28.805 96.212)" fill="#fafafa"/>
        <rect id="Rectangle_37712" data-name="Rectangle 37712" width="166.565" height="16.507" transform="translate(28.805 112.707)" fill="#e0e0e0"/>
        <rect id="Rectangle_37713" data-name="Rectangle 37713" width="0.319" height="3.023" transform="translate(36.37 42.825)" fill="#fff"/>
        <path id="Path_180097" data-name="Path 180097" d="M39.725,44.534V45.81h-.306V44.534a.625.625,0,0,0-.526-.71.58.58,0,0,0-.15,0,.739.739,0,0,0-.793.682.666.666,0,0,0,0,.134v1.186h-.306V43.577h.293V44a.921.921,0,0,1,.855-.434.869.869,0,0,1,.935.8.931.931,0,0,1,0,.175" fill="#fff"/>
        <path id="Path_180098" data-name="Path 180098" d="M42.429,43.578l-.957,2.271h-.319l-1.007-2.271h.318l.855,1.939.855-1.939Z" fill="#fff"/>
        <path id="Path_180099" data-name="Path 180099" d="M42.569,44.713a1.161,1.161,0,1,1,0,.243,1.1,1.1,0,0,1,0-.243m1.99,0a.842.842,0,1,0-.842.893.829.829,0,0,0,.844-.814.694.694,0,0,0,0-.079" fill="#fff"/>
        <path id="Path_180100" data-name="Path 180100" d="M45.427,42.863a.23.23,0,1,1,.23.23.229.229,0,0,1-.23-.23m.076.715h.306v2.271H45.5Z" fill="#fff"/>
        <path id="Path_180101" data-name="Path 180101" d="M46.435,44.713A1.109,1.109,0,0,1,47.5,43.564a.92.92,0,0,1,.1,0,.982.982,0,0,1,.88.446l-.23.153a.753.753,0,0,0-.65-.331.893.893,0,0,0,0,1.773.751.751,0,0,0,.65-.332l.23.153a.981.981,0,0,1-.88.447,1.122,1.122,0,0,1-1.173-1.07c0-.03,0-.061,0-.091" fill="#fff"/>
        <path id="Path_180102" data-name="Path 180102" d="M51.027,44.815h-1.9a.855.855,0,0,0,.893.791.909.909,0,0,0,.7-.307l.165.205a1.081,1.081,0,0,1-.867.369,1.121,1.121,0,0,1-1.2-1.042.933.933,0,0,1,0-.118,1.11,1.11,0,0,1,2.22,0v0a.659.659,0,0,0-.013.1m-1.9-.23h1.62a.816.816,0,0,0-1.62,0" fill="#fff"/>
        <path id="Path_180103" data-name="Path 180103" d="M55.735,43.884l-.115.906h.612v.242h-.638l-.1.817h-.229l.089-.817h-.88l-.1.817h-.23l.089-.817h-.612V44.79h.612l.115-.906h-.625v-.23h.651l.1-.829H54.7l-.1.829h.906l.1-.829h.23l-.077.829h.612v.23Zm-.23,0h-.893l-.115.906h.893Z" fill="#fff"/>
        <path id="Path_180104" data-name="Path 180104" d="M58.72,44.93c0,.51-.358.893-1.1.893a1.594,1.594,0,0,1-1.085-.383l.153-.242a1.381,1.381,0,0,0,.932.344c.509,0,.778-.229.778-.612s-.255-.6-.817-.6h-.2V44.1l.828-1.046H56.666v-.281H58.6V43l-.854,1.071c.651.09.97.421.97.855" fill="#fff"/>
        <path id="Path_180105" data-name="Path 180105" d="M61.73,45.057h-.6v.791h-.318v-.791h-1.7v-.23l1.594-2h.345L59.51,44.776h1.276v-.689h.306v.689h.6Z" fill="#fff"/>
        <path id="Path_180106" data-name="Path 180106" d="M64.052,44.93c0,.51-.357.906-1.1.906a1.6,1.6,0,0,1-1.084-.383l.153-.242a1.277,1.277,0,0,0,.918.344c.523,0,.791-.255.791-.612s-.242-.638-1.008-.638h-.65l.166-1.518h1.645v.28H62.508l-.1.97h.383c.919.038,1.263.4,1.263.893" fill="#fff"/>
        <path id="Path_180107" data-name="Path 180107" d="M66.718,44.93a.944.944,0,0,1-.965.922.517.517,0,0,1-.068,0c-.8,0-1.276-.548-1.276-1.505a1.429,1.429,0,0,1,2.092-1.4l-.127.255a1.058,1.058,0,0,0-.587-.14c-.651,0-1.072.421-1.072,1.275v.243a.983.983,0,0,1,1-.536.919.919,0,0,1,1,.825c0,.022,0,.045,0,.068m-.306,0c0-.4-.293-.651-.765-.651a.7.7,0,0,0-.775.62c0,.015,0,.029,0,.044,0,.331.281.65.8.65a.663.663,0,0,0,.736-.582.731.731,0,0,0,0-.081" fill="#fff"/>
        <path id="Path_180108" data-name="Path 180108" d="M69.129,45.58v.268H66.986v-.217l1.276-1.276c.331-.344.408-.548.408-.752a.686.686,0,0,0-.715-.562,1.038,1.038,0,0,0-.829.332l-.14-.14a1.389,1.389,0,0,1,1.071-.434c.613,0,1.008.319,1.008.816a1.275,1.275,0,0,1-.5.944L67.534,45.58Z" fill="#fff"/>
        <path id="Path_180109" data-name="Path 180109" d="M167.637,59.447a8.089,8.089,0,0,1-2.921.268,8,8,0,0,1-2.909-.268,7.529,7.529,0,0,1,2.909-.281,7.672,7.672,0,0,1,2.921.281" fill="#263238"/>
        <path id="Path_180110" data-name="Path 180110" d="M168.657,61.871a7.049,7.049,0,0,1,.714-2.641,6.884,6.884,0,0,1,1.276-2.436,7.039,7.039,0,0,1-.714,2.64,6.737,6.737,0,0,1-1.276,2.437" fill="#263238"/>
        <path id="Path_180111" data-name="Path 180111" d="M176.158,59.447c0,.153-.97.268-2.169.268s-2.168-.115-2.168-.268.969-.281,2.168-.281,2.169.115,2.169.281" fill="#263238"/>
        <path id="Path_180112" data-name="Path 180112" d="M177.97,61.284a5.238,5.238,0,0,1,.51-2.322c.447-1.275.919-2.143,1.059-2.092A5.092,5.092,0,0,1,179,59.154a6.226,6.226,0,0,1-1.033,2.13" fill="#263238"/>
        <path id="Path_180113" data-name="Path 180113" d="M188.877,59.447a35.267,35.267,0,0,1-8.675,0,33.677,33.677,0,0,1,8.675,0" fill="#263238"/>
        <rect id="Rectangle_37714" data-name="Rectangle 37714" width="166.565" height="11.494" transform="translate(28.805 84.718)" fill="#f9b131"/>
        <path id="Path_180114" data-name="Path 180114" d="M78.926,105.333c0,.153-8.011.281-17.859.281s-17.86-.128-17.86-.281,8-.281,17.86-.281,17.859.128,17.859.281"/>
        <path id="Path_180115" data-name="Path 180115" d="M137.416,105.716a54.834,54.834,0,0,1-7.794.281,54.883,54.883,0,0,1-7.808-.281,54.882,54.882,0,0,1,7.808-.281,54.833,54.833,0,0,1,7.794.281"/>
        <path id="Path_180116" data-name="Path 180116" d="M159.358,104.772c0,.153-.765.268-1.709.268s-1.71-.115-1.71-.268.766-.281,1.71-.281,1.709.115,1.709.281"/>
        <path id="Path_180117" data-name="Path 180117" d="M189.221,105.142a43.612,43.612,0,0,1-6.94.281,43.366,43.366,0,0,1-6.939-.281,43.366,43.366,0,0,1,6.939-.281,43.612,43.612,0,0,1,6.94.281"/>
        <path id="Path_180118" data-name="Path 180118" d="M97.372,121.317c0,.153-12.132.281-27.1.281s-27.109-.128-27.109-.281,12.132-.281,27.109-.281,27.1.128,27.1.281"/>
        <path id="Path_180119" data-name="Path 180119" d="M134.6,121.47a37.156,37.156,0,0,1-6.378.268,37.366,37.366,0,0,1-6.379-.268,36.76,36.76,0,0,1,6.379-.28,36.557,36.557,0,0,1,6.378.28"/>
        <path id="Path_180120" data-name="Path 180120" d="M160.11,121.317a11.059,11.059,0,0,1-4.95,0,11.059,11.059,0,0,1,4.95,0"/>
        <path id="Path_180121" data-name="Path 180121" d="M187.321,120.935a40.16,40.16,0,0,1-6.659.281,40.16,40.16,0,0,1-6.659-.281,40.052,40.052,0,0,1,6.659-.281,40.052,40.052,0,0,1,6.659.281"/>
        <rect id="Rectangle_37715" data-name="Rectangle 37715" width="78.48" height="10.231" transform="translate(116.418 153.745)" fill="#f9b131"/>
        <path id="Path_180122" data-name="Path 180122" d="M177.689,139.33a78.451,78.451,0,0,1-9.338.281,78.233,78.233,0,0,1-9.325-.281,78.233,78.233,0,0,1,9.325-.281,78.451,78.451,0,0,1,9.338.281" fill="#263238"/>
        <path id="Path_180123" data-name="Path 180123" d="M177.689,146.168a78.451,78.451,0,0,1-9.338.281,78.233,78.233,0,0,1-9.325-.281,78.236,78.236,0,0,1,9.325-.281,78.454,78.454,0,0,1,9.338.281" fill="#263238"/>
        <path id="Path_180124" data-name="Path 180124" d="M143.029,146.168a78.451,78.451,0,0,1-9.338.281,78.445,78.445,0,0,1-9.325-.281,78.236,78.236,0,0,1,9.325-.281,78.454,78.454,0,0,1,9.338.281" fill="#263238"/>
        <path id="Path_180125" data-name="Path 180125" d="M143.029,138.96c0,.153-6.238.281-13.918.281s-13.917-.128-13.917-.281,6.225-.281,13.917-.281,13.918.128,13.918.281" fill="#263238"/>
        <path id="Path_180126" data-name="Path 180126" d="M177.689,159.384a78.451,78.451,0,0,1-9.338.281,78.233,78.233,0,0,1-9.325-.281,78.233,78.233,0,0,1,9.325-.281,78.451,78.451,0,0,1,9.338.281" fill="#fff"/>
        <path id="Path_180127" data-name="Path 180127" d="M144.05,159.384a78.233,78.233,0,0,1-9.325.281,78.233,78.233,0,0,1-9.325-.281,78.233,78.233,0,0,1,9.325-.281,78.233,78.233,0,0,1,9.325.281" fill="#fff"/>
        <path id="Path_180128" data-name="Path 180128" d="M36.293,16.941h1.3a2.041,2.041,0,0,1,2.041,2.041v1.3a2.041,2.041,0,0,1-2.041,2.041h-1.3a2.041,2.041,0,0,1-2.041-2.041v-1.3a2.041,2.041,0,0,1,2.041-2.041" fill="#f9b131"/>
        <path id="Path_180129" data-name="Path 180129" d="M35.464,23.447h0a.306.306,0,0,0,.306.306h5.1V18.472a.313.313,0,1,0-.625,0V23.09H35.706a.319.319,0,0,0-.242.357" fill="#f9b131"/>
        <path id="Path_180130" data-name="Path 180130" d="M74.321,18.8c0,.153-6.9.268-15.423.268s-15.436-.115-15.436-.268,6.915-.281,15.436-.281,15.423.115,15.423.281" fill="#f9b131"/>
        <path id="Path_180131" data-name="Path 180131" d="M60.021,21.763a58.69,58.69,0,0,1-8.075.281,58.377,58.377,0,0,1-8.075-.281,58.69,58.69,0,0,1,8.075-.28,58.847,58.847,0,0,1,8.075.28" fill="#f9b131"/>
        <path id="Path_180132" data-name="Path 180132" d="M205.92,238.208c0-2.194-.1-96.735-.242-237.991l.242.243H19.5l.281-.179V238.272l-.23-.23,186.441.23L19.556,238.5h-.229V0H206.3v.28c-.268,141.192-.383,235.733-.383,237.927" fill="#263238"/>
        <path id="Path_180133" data-name="Path 180133" d="M112.094,65.583c0,.153-9.976.268-22.273.268s-22.286-.115-22.286-.268S77.51,65.3,89.821,65.3s22.273.128,22.273.281" fill="#263238"/>
        <path id="Path_180134" data-name="Path 180134" d="M112.094,69.844c0,.153-9.976.281-22.273.281S67.535,70,67.535,69.844s9.975-.281,22.286-.281,22.273.128,22.273.281" fill="#263238"/>
        <path id="Path_180135" data-name="Path 180135" d="M84.195,74.105a62.447,62.447,0,0,1-8.33.281,62.447,62.447,0,0,1-8.33-.281,63.817,63.817,0,0,1,8.33-.268,63.823,63.823,0,0,1,8.33.268" fill="#263238"/>
        <path id="Path_180136" data-name="Path 180136" d="M112.783,60.991c0,.166-18.752.281-41.881.281s-41.88-.115-41.88-.281,18.74-.268,41.88-.268,41.881.115,41.881.268" fill="#263238"/>
        <path id="Path_180137" data-name="Path 180137" d="M79.96,90.459c0,.153-8.369.281-18.676.281S42.6,90.612,42.6,90.459s8.369-.281,18.689-.281,18.676.128,18.676.281" fill="#fff"/>
        <path id="Path_180138" data-name="Path 180138" d="M138.079,90.459a87.93,87.93,0,0,1-9.887.281,87.919,87.919,0,0,1-9.886-.281,87.919,87.919,0,0,1,9.886-.281,87.93,87.93,0,0,1,9.887.281" fill="#fff"/>
        <path id="Path_180139" data-name="Path 180139" d="M166.361,90.459a48.576,48.576,0,0,1-7.335.281,48.571,48.571,0,0,1-7.335-.281,48.571,48.571,0,0,1,7.335-.281,48.576,48.576,0,0,1,7.335.281" fill="#fff"/>
        <path id="Path_180140" data-name="Path 180140" d="M190.816,90.459a48.576,48.576,0,0,1-7.335.281,48.571,48.571,0,0,1-7.335-.281,48.571,48.571,0,0,1,7.335-.281,48.576,48.576,0,0,1,7.335.281" fill="#fff"/>
        <path id="Path_180141" data-name="Path 180141" d="M192.972,172.561c0,.179-36.217.332-80.891.332s-80.891-.153-80.891-.332,36.2-.332,80.891-.332,80.891.141,80.891.332" fill="#263238"/>
        <path id="Path_180142" data-name="Path 180142" d="M105.116,188.29c0,.192-16.086.332-35.936.332s-35.936-.14-35.936-.332,16.087-.331,35.936-.331,35.936.153,35.936.331" fill="#263238"/>
        <path id="Path_180143" data-name="Path 180143" d="M88.966,194.184c0,.179-12.476.332-27.861.332s-27.861-.153-27.861-.332,12.464-.332,27.861-.332,27.861.192,27.861.332" fill="#263238"/>
        <path id="Path_180144" data-name="Path 180144" d="M79.96,200.167c0,.179-10.462.332-23.358.332s-23.357-.153-23.357-.332,10.447-.332,23.357-.332,23.358.141,23.358.332" fill="#263238"/>
        <path id="Path_180145" data-name="Path 180145" d="M188.3,191.99a2.063,2.063,0,0,1-.446.14l-1.276.319c-1.161.268-2.87.651-5.1,1.123-4.426.944-10.843,2.22-18.829,3.533-3.993.664-8.368,1.276-13.076,1.952q-3.546.484-7.322.919l-3.827.433c-.651.064-1.276.154-1.977.179a3.828,3.828,0,0,1-2.092-.408,2.3,2.3,0,0,1-1.2-1.888,2.324,2.324,0,0,1,1.276-1.863,34.641,34.641,0,0,1,3.827-1.811,39.334,39.334,0,0,1,8.267-2.4,38.273,38.273,0,0,1,8.929-.536,18.051,18.051,0,0,1,4.542.7,7.578,7.578,0,0,1,3.967,2.552,5.752,5.752,0,0,1,.893,4.643,8.579,8.579,0,0,1-2.22,4.1,18.525,18.525,0,0,1-3.559,2.819,34.873,34.873,0,0,1-3.827,2.22,8.755,8.755,0,0,1-4.337.97,4.939,4.939,0,0,1-3.725-2.271A9.839,9.839,0,0,1,145.8,203.4a27.917,27.917,0,0,1-.268-4.1,29.34,29.34,0,0,1,4.083-14.594,10.471,10.471,0,0,1,2.207-2.819,3.238,3.238,0,0,1,3.418-.6,3.977,3.977,0,0,1,2.067,2.641,6.243,6.243,0,0,1-.166,3.189,19.3,19.3,0,0,1-1.122,2.768c-.409.88-.83,1.71-1.276,2.552-.855,1.62-1.71,3.112-2.552,4.464a63.494,63.494,0,0,1-4.873,6.659,51.442,51.442,0,0,1-3.52,3.827c-.421.421-.753.728-.983.944a2.049,2.049,0,0,1-.344.294,2.1,2.1,0,0,1,.293-.345c.243-.242.549-.574.931-.982.817-.867,2-2.156,3.419-3.916a62.819,62.819,0,0,0,4.759-6.685c.841-1.365,1.7-2.857,2.551-4.465a35.616,35.616,0,0,0,2.3-5.23,5.729,5.729,0,0,0,.153-2.934,3.519,3.519,0,0,0-1.811-2.309,2.681,2.681,0,0,0-2.858.561A9.976,9.976,0,0,0,150.122,185a28.908,28.908,0,0,0-4.044,14.288,28.262,28.262,0,0,0,.268,4.006,9.265,9.265,0,0,0,1.276,3.75,4.337,4.337,0,0,0,3.265,1.99,8.149,8.149,0,0,0,3.993-.918,34.417,34.417,0,0,0,3.827-2.182,18.562,18.562,0,0,0,3.432-2.717,8.089,8.089,0,0,0,2.054-3.827,5.107,5.107,0,0,0-.778-4.121,6.919,6.919,0,0,0-3.623-2.334,18.225,18.225,0,0,0-4.389-.689,39.083,39.083,0,0,0-16.979,2.96,35.155,35.155,0,0,0-3.7,1.76,1.684,1.684,0,0,0-.983,1.276,1.634,1.634,0,0,0,.88,1.352,6.558,6.558,0,0,0,3.7.166l3.827-.408,7.31-.893c4.707-.6,9.082-1.276,13.075-1.863,7.986-1.275,14.415-2.462,18.842-3.329l5.1-1.008,1.275-.242a4.2,4.2,0,0,1,.549-.026" fill="#263238"/>
        <path id="Path_180146" data-name="Path 180146" d="M198.164,229.776c0,.179-36.574.332-81.643.332s-81.644-.153-81.644-.332,36.574-.332,81.644-.332,81.643.141,81.643.332" fill="#263238"/>
        <path id="Path_180147" data-name="Path 180147" d="M140.184,214.6a23.071,23.071,0,0,1-5.46.332,23.074,23.074,0,0,1-5.46-.332,22.307,22.307,0,0,1,5.46-.332,22.3,22.3,0,0,1,5.46.332" fill="#263238"/>
        <path id="Path_180148" data-name="Path 180148" d="M147.867,24.06l.027.053a4.457,4.457,0,0,1-1.015,3.223,4.01,4.01,0,0,1-3.045,1.086,4.285,4.285,0,0,1-3.214-1.233,4.8,4.8,0,0,1-1.2-3.494V19.822a4.922,4.922,0,0,1,1.162-3.494,4.059,4.059,0,0,1,3.112-1.242,4.118,4.118,0,0,1,3.12,1.1,4.679,4.679,0,0,1,1.091,3.267l-.027.054h-2.439a3.035,3.035,0,0,0-.348-1.842,1.6,1.6,0,0,0-1.4-.562,1.487,1.487,0,0,0-1.309.668,3.631,3.631,0,0,0-.454,2.024v3.893a3.492,3.492,0,0,0,.485,2.042,1.646,1.646,0,0,0,1.42.667,1.436,1.436,0,0,0,1.278-.529,3.174,3.174,0,0,0,.316-1.812Z" fill="#263238"/>
        <path id="Path_180149" data-name="Path 180149" d="M154.179,20.909l-.953-.027a1.082,1.082,0,0,0-.663.2,1.25,1.25,0,0,0-.4.552v6.606H149.63V18.6h2.359l.1,1.291.044.018a2.636,2.636,0,0,1,.646-1.091,1.354,1.354,0,0,1,.966-.4,2.325,2.325,0,0,1,.36.031,2.422,2.422,0,0,1,.334.076Z" fill="#263238"/>
        <path id="Path_180150" data-name="Path 180150" d="M159.4,28.423a3.68,3.68,0,0,1-2.885-1.193,4.345,4.345,0,0,1-1.068-3.009V22.868a4.973,4.973,0,0,1,.993-3.2,3.317,3.317,0,0,1,2.746-1.246,3.19,3.19,0,0,1,2.617,1.131,4.714,4.714,0,0,1,.926,3.08v1.549h-4.763v.036a2.663,2.663,0,0,0,.432,1.567,1.489,1.489,0,0,0,1.3.614,3.508,3.508,0,0,0,1.158-.16,6.067,6.067,0,0,0,1.059-.535l.641,1.612a3.826,3.826,0,0,1-1.331.792,5.175,5.175,0,0,1-1.829.312m-.143-13.586h2.662l.027.054L159.734,17.2l-2.039,0Zm-.071,5.609a.938.938,0,0,0-.89.555,3.591,3.591,0,0,0-.321,1.493h2.27v-.358A2.572,2.572,0,0,0,160,20.888a.858.858,0,0,0-.81-.442" fill="#263238"/>
        <path id="Path_180151" data-name="Path 180151" d="M164.033,23.473a7.032,7.032,0,0,1,.837-3.659,2.617,2.617,0,0,1,2.359-1.389,1.966,1.966,0,0,1,1.015.267,2.683,2.683,0,0,1,.81.766v-5.11h2.528V28.236h-2.2l-.169-1.051a2.834,2.834,0,0,1-.868.922,2.041,2.041,0,0,1-1.126.316,2.641,2.641,0,0,1-2.355-1.3,6.357,6.357,0,0,1-.832-3.459Zm2.528.187a5.454,5.454,0,0,0,.3,2.019,1.033,1.033,0,0,0,1.011.723,1.268,1.268,0,0,0,.685-.183,1.524,1.524,0,0,0,.5-.531V21.3a1.793,1.793,0,0,0-.5-.626,1.057,1.057,0,0,0-1.682.608,6.374,6.374,0,0,0-.312,2.2Z" fill="#263238"/>
        <path id="Path_180152" data-name="Path 180152" d="M176.239,16.279h-2.528V14.347h2.528Zm0,11.957h-2.528V18.6h2.528Z" fill="#263238"/>
        <path id="Path_180153" data-name="Path 180153" d="M181.375,16.208v2.4h1.335v1.834h-1.335v4.834a1.569,1.569,0,0,0,.169.841.529.529,0,0,0,.463.254,3.072,3.072,0,0,0,.392-.022,2.839,2.839,0,0,0,.356-.076l.2,1.923a5.111,5.111,0,0,1-.766.178,5.7,5.7,0,0,1-.828.053,2.32,2.32,0,0,1-1.865-.752,3.631,3.631,0,0,1-.645-2.39V20.437h-1.14V18.6h1.14v-2.4Z" fill="#263238"/>
        <path id="Path_180154" data-name="Path 180154" d="M184.02,22.832a4.786,4.786,0,0,1,1.028-3.174,3.985,3.985,0,0,1,5.764,0,4.773,4.773,0,0,1,1.033,3.174v1.193a4.746,4.746,0,0,1-1.033,3.178,4.014,4.014,0,0,1-5.764,0,4.759,4.759,0,0,1-1.028-3.178Zm2.519,1.19a4.009,4.009,0,0,0,.312,1.746,1.108,1.108,0,0,0,1.086.634A1.1,1.1,0,0,0,189,25.764a3.982,3.982,0,0,0,.316-1.742v-1.2A3.993,3.993,0,0,0,189,21.093a1.211,1.211,0,0,0-2.146,0,3.981,3.981,0,0,0-.316,1.728Z" fill="#263238"/>
        <path id="Path_180155" data-name="Path 180155" d="M290.917,251.061l10.17-17.92a48.06,48.06,0,1,1,11.5,12.79Z" fill="#fff"/>
        <path id="Path_180156" data-name="Path 180156" d="M290.917,251.061l21.66-5.23-.07.2-.6-.78.78.6a49.384,49.384,0,0,0,9.83,5.86,48.138,48.138,0,0,0,13.07,3.68,42.415,42.415,0,0,0,7.53.35c1.3-.08,2.62-.11,3.95-.23l4-.61a48.082,48.082,0,0,0,29.64-19.11,47.367,47.367,0,0,0,8-18.34,48.442,48.442,0,0,0-.58-21.1,46.863,46.863,0,0,0-10.16-19.49l-1.94-2.14c-.64-.711-1.4-1.3-2.09-2a16.374,16.374,0,0,0-2.14-1.88c-.77-.55-1.52-1.13-2.28-1.7a21.881,21.881,0,0,0-2.36-1.56l-2.4-1.46-2.48-1.2a21.417,21.417,0,0,0-2.54-1.13,48.306,48.306,0,0,0-21.26-3.281,46.845,46.845,0,0,0-19.52,5.741,48.212,48.212,0,0,0-22.6,27.7,51.42,51.42,0,0,0-2.12,15.46,47.758,47.758,0,0,0,2.28,13.38,48.392,48.392,0,0,0,4.73,10.28v.13l-10.28,17.86,10.06-18v.12a48.814,48.814,0,0,1-4.8-10.32,47.474,47.474,0,0,1-2.35-13.46,51.9,51.9,0,0,1,2.09-15.59,48.652,48.652,0,0,1,22.76-28,47.219,47.219,0,0,1,19.72-5.82,48.727,48.727,0,0,1,21.48,3.3,21.741,21.741,0,0,1,2.57,1.14l2.55,1.24,2.43,1.47a20.982,20.982,0,0,1,2.38,1.58l2.3,1.72c.79.55,1.44,1.27,2.17,1.89a19.9,19.9,0,0,1,2.11,2l2,2.149a47.3,47.3,0,0,1,10.27,19.721,48.844,48.844,0,0,1,.57,21.32,47.827,47.827,0,0,1-8.1,18.52,48.431,48.431,0,0,1-29.95,19.23l-4.05.61c-1.34.11-2.67.15-4,.22a43.1,43.1,0,0,1-7.59-.38,48.087,48.087,0,0,1-13.14-3.75,49.522,49.522,0,0,1-9.87-5.94l.19-.18.12.16h-.19Z" fill="#263238"/>
        <path id="Path_180157" data-name="Path 180157" d="M287.4,499.96h81.25L400,487.17v-3.2l-51.19.32L324.5,496.12l-32.52-.53a4.5,4.5,0,0,0-4.58,4.37" fill="#263238"/>
        <path id="Path_180158" data-name="Path 180158" d="M400,487.17a4.126,4.126,0,0,1-.76.07l-2.16.09-8,.26-26.3.65-12.55.26h.11l-15.56,8.36-4.52,2.36-1.22.61c-.27.13-.42.2-.43.18a2.262,2.262,0,0,1,.39-.26l1.18-.67,4.45-2.49,15.56-8.5h.11l12.55-.29,26.3-.5,8-.09h2.17a3.968,3.968,0,0,1,.68-.04" fill="#455a64"/>
        <path id="Path_180159" data-name="Path 180159" d="M219.575,153.863c-12.84-2.79-26.6,1.52-36.88,9.71s-17.34,19.87-21.83,32.21-6.56,25.43-8.32,38.45q-4.369,32.4-6.24,65.08c-.15,2.73-.28,5.57.79,8.08,1.53,3.61,5.3,5.86,9.14,6.61s7.81.24,11.69-.28" fill="#263238"/>
        <path id="Path_180160" data-name="Path 180160" d="M236.515,159.3c10-.8,22.11,3,27.8,11.2,4.43,6.4,3.42,17.59,5,25.22,2.47,12.22,4.94,24.52,5.29,37,.38,13.7-1.82,27.33-4,40.86l-7.32,44.86c-1.07,6.66-2.19,13.44-5.33,19.41s-8.67,11.08-15.38,11.87c-6.12.72-12.28-2.34-16.41-6.92s-6.46-10.53-7.91-16.52" fill="#263238"/>
        <path id="Path_180161" data-name="Path 180161" d="M263.925,301.763c-.33-.16.16-1.91,1.27-5s2.85-7.37,4.79-12.76a119.966,119.966,0,0,0,5.36-19.14,63.675,63.675,0,0,0,0-23.77c-1.57-8.4-4.33-16.28-6.58-23.62a115.937,115.937,0,0,1-4.73-20.06,48.016,48.016,0,0,1,.09-14c.58-3.27,1.35-5,1.67-4.9.81.14-.5,7.24,1.87,18.32a150.963,150.963,0,0,0,5.66,19.17c2.47,7.19,5.45,15.19,7.15,24.16.42,2.24.71,4.49.91,6.72.08,1.12.17,2.22.17,3.33s.08,2.2,0,3.28a65.669,65.669,0,0,1-1.51,12.32,97.165,97.165,0,0,1-6.66,19.6,124.294,124.294,0,0,1-6.37,12.25c-1.67,2.81-2.73,4.26-3.09,4.1" fill="#263238"/>
        <path id="Path_180162" data-name="Path 180162" d="M179.215,200.123c1.33-23.47,22.11-41.28,46.23-39.1,22.73,2.1,39.55,22.1,38.84,44.51-.61,19.65-1.67,39.4-3.07,46.39-4.2,21.07-18.31,26.95-23.87,28.48a30,30,0,0,1-5.92.33.141.141,0,0,0-.15.13v.01l.27,25.13c-.78,16.29-12.45,28.78-29,28.09s-27-15.25-26.55-31.6Z" fill="#ffbe9d"/>
        <path id="Path_180163" data-name="Path 180163" d="M255.285,218.123a3.43,3.43,0,0,1-3.48,3.31,3.34,3.34,0,0,1-3.469-3.206V218.2a3.43,3.43,0,0,1,3.48-3.31,3.33,3.33,0,0,1,3.468,3.186c0,.014,0,.029,0,.044" fill="#263238"/>
        <path id="Path_180164" data-name="Path 180164" d="M258.285,210.343c-.45.42-3-1.6-6.75-1.75s-6.55,1.58-6.94,1.12c-.19-.21.28-1,1.51-1.8a9.583,9.583,0,0,1,5.57-1.44,9.339,9.339,0,0,1,5.35,1.94c1.1.91,1.46,1.71,1.26,1.93" fill="#263238"/>
        <path id="Path_180165" data-name="Path 180165" d="M220.335,217.253a3.421,3.421,0,0,1-3.47,3.31,3.33,3.33,0,0,1-3.468-3.186c0-.014,0-.029,0-.044a3.439,3.439,0,0,1,3.47-3.31,3.33,3.33,0,0,1,3.468,3.186c0,.014,0,.029,0,.044" fill="#263238"/>
        <path id="Path_180166" data-name="Path 180166" d="M221.505,209.493c-.45.43-3-1.59-6.75-1.74s-6.54,1.58-6.93,1.11c-.19-.2.27-1,1.5-1.79a9.6,9.6,0,0,1,5.57-1.45,9.291,9.291,0,0,1,5.35,1.95c1.11.91,1.48,1.73,1.26,1.92" fill="#263238"/>
        <path id="Path_180167" data-name="Path 180167" d="M234.075,237.3c0-.21,2.33-.5,6.11-.82,1-.06,1.87-.21,2.05-.84a4.737,4.737,0,0,0-.53-2.81q-1.23-3.45-2.56-7.26c-3.55-10.33-6.09-18.81-5.66-18.95s3.64,8.14,7.19,18.47c.85,2.55,1.67,5,2.44,7.3.33,1.08.9,2.32.36,3.7a2.371,2.371,0,0,1-1.62,1.31,6.488,6.488,0,0,1-1.62.15c-3.8.05-6.15-.04-6.16-.25" fill="#263238"/>
        <path id="Path_180168" data-name="Path 180168" d="M231.285,280.723s-14.47.56-32.13-10.85c0,0,5,19,32.21,17.62Z" fill="#eb996e"/>
        <path id="Path_180169" data-name="Path 180169" d="M232.175,246.123a6.841,6.841,0,0,0-5.95-2.71,6.207,6.207,0,0,0-4.33,2.06,3.789,3.789,0,0,0-.45,4.37,4.561,4.561,0,0,0,4.85,1.42,14.02,14.02,0,0,0,4.88-2.6,4.076,4.076,0,0,0,1.11-1,1.212,1.212,0,0,0,0-1.37" fill="#eb996e"/>
        <path id="Path_180170" data-name="Path 180170" d="M222.985,239.393c.61,0,.47,4,3.84,6.95s7.71,2.72,7.72,3.28c0,.25-1,.73-2.82.7a10.242,10.242,0,0,1-6.45-2.5,8.662,8.662,0,0,1-3-5.82c-.06-1.68.43-2.65.71-2.61" fill="#263238"/>
        <path id="Path_180171" data-name="Path 180171" d="M223.415,203.123c-.4,1-4.12.36-8.52.69s-8,1.37-8.54.45c-.25-.44.4-1.36,1.87-2.26a14.3,14.3,0,0,1,6.39-1.91,14.456,14.456,0,0,1,6.61,1c1.59.75,2.37,1.57,2.19,2.03" fill="#263238"/>
        <path id="Path_180172" data-name="Path 180172" d="M257.165,202.773c-.68.81-3.23-.16-6.32-.33s-5.74.32-6.31-.58c-.25-.43.19-1.25,1.37-2a8.843,8.843,0,0,1,5.19-1.16,8.94,8.94,0,0,1,5,1.89c1.05.91,1.38,1.79,1.07,2.18" fill="#263238"/>
        <path id="Path_180173" data-name="Path 180173" d="M226.1,290.663s48.77,18.85,54.68,22.23,7.83,5.77,7.83,5.77l-34.28,32.46h-65.84l-50.37-34.33,8.78-22.34,28.08-6.33" fill="#ffbe9d"/>
        <path id="Path_180174" data-name="Path 180174" d="M121.205,479.3a21.021,21.021,0,0,1-1.28-6.32,21.4,21.4,0,0,1,.16-6.44c.15,0,0,2.88.36,6.4s.91,6.33.76,6.36" fill="#eb996e"/>
        <path id="Path_180175" data-name="Path 180175" d="M288.615,318.663l-9,5.94-2.18,158.91,42.89-24.28s-21.27-137.27-31.71-140.57" fill="#f9b131"/>
        <path id="Path_180176" data-name="Path 180176" d="M146.9,294.493s-33,2.2-40.65,13.73-32.4,121.4-32.4,121.4-13.17,19.67-14.24,24.5c-1.45,6.51-2.79,19.52-2.79,19.52l8.21,12,3.25,3.28s-2.16-36.85,36.29-26.1l11-1,11-66.09,5.45,53.8-13.74,49.88,159.15-.09,4.34-176.12s-20.77,10.92-42.59,8.09c-12.82-1.65-73.6-17.57-92.28-36.8" fill="#f9b131"/>
        <path id="Path_180177" data-name="Path 180177" d="M114.525,456.193c-.05,0-.35-.77-1-2.14a28.646,28.646,0,0,0-3.44-5.42,29.191,29.191,0,0,0-7-6.33,27,27,0,0,0-22.29-3.43,29.305,29.305,0,0,0-8.61,3.93,28.456,28.456,0,0,0-4.9,4.13,20.966,20.966,0,0,1-1.61,1.74,3.475,3.475,0,0,1,.35-.5,15.153,15.153,0,0,1,1.11-1.38,25.932,25.932,0,0,1,4.84-4.29,28.794,28.794,0,0,1,8.69-4.09,27.078,27.078,0,0,1,22.62,3.48,28.877,28.877,0,0,1,7.06,6.52,26.348,26.348,0,0,1,3.33,5.55,14.389,14.389,0,0,1,.64,1.64,2.164,2.164,0,0,1,.21.59" fill="#263238"/>
        <path id="Path_180178" data-name="Path 180178" d="M115.035,451.883a12.558,12.558,0,0,1-.35-1.64,39.02,39.02,0,0,0-1.2-4.39,33.182,33.182,0,0,0-20.3-20.68,35.9,35.9,0,0,0-4.37-1.28,11.678,11.678,0,0,1-1.63-.39,1.294,1.294,0,0,1,.43,0,7.69,7.69,0,0,1,1.24.17,30.381,30.381,0,0,1,4.43,1.15,32.228,32.228,0,0,1,20.53,20.92,29.978,29.978,0,0,1,1,4.47c.09.53.11,1,.14,1.24s.1.43.08.43" fill="#263238"/>
        <path id="Path_180179" data-name="Path 180179" d="M126.625,395.773a2.28,2.28,0,0,1-.31-.45l-.8-1.34c-.69-1.17-1.66-2.88-2.84-5-2.36-4.24-5.52-10.15-9-16.69s-6.63-12.45-9-16.68c-1.16-2.07-2.11-3.76-2.82-5-.3-.55-.55-1-.76-1.36a1.773,1.773,0,0,1-.23-.5,3.27,3.27,0,0,1,.32.44l.85,1.32c.72,1.15,1.74,2.82,3,4.93,2.45,4.19,5.67,10.07,9.14,16.61l8.85,16.77,2.69,5.07c.29.56.52,1,.72,1.39a2.057,2.057,0,0,1,.19.49" fill="#263238"/>
        <path id="Path_180180" data-name="Path 180180" d="M124.5,336.993a4.234,4.234,0,0,1,0,.78v2.24c0,1.95,0,4.77.11,8.26.12,7,.48,16.59,1.06,27.21s1.29,20.23,1.85,27.18c.28,3.43.51,6.23.67,8.23.07.93.13,1.67.17,2.23a3.864,3.864,0,0,1,0,.79,4.584,4.584,0,0,1-.13-.78l-.27-2.22c-.22-1.94-.52-4.75-.84-8.22-.65-6.94-1.41-16.55-2-27.18s-.88-20.26-.91-27.24c0-3.48,0-6.31.05-8.26,0-.93.06-1.68.08-2.24a3.714,3.714,0,0,1,.16-.78" fill="#263238"/>
        <path id="Path_180181" data-name="Path 180181" d="M230.9,484.453a.836.836,0,0,1-.27-.09l-.77-.31-2.94-1.25c-1.28-.54-2.84-1.22-4.62-2.08s-3.83-1.76-6-2.91l-3.47-1.77c-1.21-.62-2.43-1.32-3.71-2-2.58-1.37-5.26-3-8.09-4.64-5.61-3.41-11.66-7.36-17.78-11.83s-11.69-9.08-16.62-13.41c-2.44-2.21-4.77-4.28-6.85-6.33-1.05-1-2.08-2-3-2.94l-2.79-2.77c-1.76-1.75-3.25-3.43-4.59-4.88s-2.47-2.72-3.37-3.78l-2.07-2.43-.53-.64a1.1,1.1,0,0,1-.14-.27,1.171,1.171,0,0,1,.21.2l.57.6,2.14,2.37c.93,1,2.06,2.3,3.43,3.71s2.87,3.09,4.64,4.82l2.75,2.76c1,.95,2,1.9,3,2.91,2.09,2,4.43,4.09,6.86,6.28,4.95,4.3,10.53,8.86,16.62,13.35s12.13,8.42,17.72,11.84c2.82,1.67,5.48,3.29,8,4.67,1.28.7,2.5,1.41,3.7,2l3.45,1.8c2.19,1.17,4.22,2.11,6,3s3.3,1.59,4.57,2.15l2.9,1.34.75.36Z" fill="#263238"/>
        <path id="Path_180182" data-name="Path 180182" d="M81.915,434.233l52.84,57.27,4,8.51-8.47-4.21-53.64-56.68a3.61,3.61,0,0,1,.141-5.1c.061-.058.124-.114.189-.167a3.6,3.6,0,0,1,4.94.38" fill="#263238"/>
        <path id="Path_180183" data-name="Path 180183" d="M279.505,371.413a1.37,1.37,0,0,1,0,.3v.88c0,.81,0,1.94-.05,3.38-.07,3-.17,7.2-.3,12.42-.25,10.51-.6,25-1,41s-.54,30.46-.73,41c-.09,5.22-.17,9.45-.22,12.42,0,1.44-.07,2.57-.09,3.38v.87a.15.15,0,1,1-.06,0v-4.25c0-3,0-7.21.06-12.42.08-10.49.24-25,.58-41s.78-30.48,1.13-41c.2-5.22.35-9.45.46-12.42.07-1.43.12-2.56.16-3.37l.05-.88a1.4,1.4,0,0,1,.01-.31" fill="#263238"/>
        <g id="Group_117808" data-name="Group 117808" opacity="0.3">
          <g id="Group_117807" data-name="Group 117807">
            <g id="Group_117806" data-name="Group 117806" clip-path="url(#clip-path-4)">
              <path id="Path_180184" data-name="Path 180184" d="M148.1,425.663s24,16.61,37.6,22,27.56,9.87,40.65,16.34c3.84,1.9,8.2,5.13,7.41,9.34-.48,2.57-2.91,4.43-5.45,5.05a20.694,20.694,0,0,1-7.8-.14l-3.35-.21s-42.57-21.85-69.06-52.38"/>
            </g>
          </g>
        </g>
        <path id="Path_180185" data-name="Path 180185" d="M310.985,440.873a16.116,16.116,0,0,1-1.79.25,41.439,41.439,0,0,0-4.84.94,37.72,37.72,0,0,0-24.57,19.69,40.465,40.465,0,0,0-2,4.52,15.6,15.6,0,0,1-.64,1.7,1.469,1.469,0,0,1,.08-.46c.08-.3.18-.75.37-1.3a33.323,33.323,0,0,1,1.83-4.62,36.722,36.722,0,0,1,24.86-19.89,33.953,33.953,0,0,1,4.9-.78c.59-.06,1-.05,1.35-.07a1.7,1.7,0,0,1,.45.02" fill="#263238"/>
        <g id="Group_117811" data-name="Group 117811" opacity="0.3">
          <g id="Group_117810" data-name="Group 117810">
            <g id="Group_117809" data-name="Group 117809" clip-path="url(#clip-path-5)">
              <path id="Path_180186" data-name="Path 180186" d="M277.1,466.683a38,38,0,0,1,23.31-29.87,8.006,8.006,0,0,1,4.32-.75,3.22,3.22,0,0,1,2.79,3c-.06,2.16-2.67,3.11-4.72,3.76-5.7,1.81-10.66,5.49-14.8,9.8a108.437,108.437,0,0,0-10.88,14.23"/>
            </g>
          </g>
        </g>
        <g id="Group_117814" data-name="Group 117814" opacity="0.3">
          <g id="Group_117813" data-name="Group 117813">
            <g id="Group_117812" data-name="Group 117812" clip-path="url(#clip-path-6)">
              <path id="Path_180187" data-name="Path 180187" d="M115.435,456.973a36,36,0,0,0-23.74-30.59,11.559,11.559,0,0,0-4.78-.78,5,5,0,0,0-4,2.47c-.92,1.87-.11,4.23,1.38,5.68a14.076,14.076,0,0,0,5.5,2.87c5.59,1.88,11.43,3.48,16.19,7s6.18,7.72,9.43,13.38"/>
            </g>
          </g>
        </g>
        <path id="Path_180188" data-name="Path 180188" d="M295.215,331.123l-.44.27-1.33.76-2.16,1.21c-.86.47-1.84,1-3,1.58a134.936,134.936,0,0,1-20,8.18l-3.34,1.06-3.54.95c-1.2.31-2.42.68-3.69.95l-3.86.83-2,.43-2,.34-4.17.69c-1.41.21-2.86.35-4.32.53s-2.94.37-4.44.45l-4.57.32-4.69.13h-2.38l-2.41-.05c-1.61-.06-3.24,0-4.88-.16a140.853,140.853,0,0,1-20.15-2.58,149,149,0,0,1-19.56-5.42c-6.21-2.15-12.09-4.51-17.65-6.83-11.11-4.68-21-9.1-29.53-12.38s-15.48-5.72-20.52-6.46a31.03,31.03,0,0,0-5.84-.39c-.67,0-1.17.06-1.52.09a2.246,2.246,0,0,1-.52,0,14.442,14.442,0,0,1,2-.22,28.9,28.9,0,0,1,5.87.29c5.08.69,12.11,3.09,20.63,6.32s18.46,7.63,29.57,12.28c5.57,2.3,11.44,4.65,17.63,6.79a149.659,149.659,0,0,0,19.52,5.43,141.055,141.055,0,0,0,20.1,2.61c1.63.12,3.26.11,4.86.16l2.4.06h2.37l4.67-.12,4.56-.31c1.5-.08,3-.26,4.43-.43s2.89-.32,4.31-.52l4.15-.68,2-.33,2-.42,3.86-.82c1.26-.26,2.48-.63,3.68-.93l3.53-.93,3.34-1a140.877,140.877,0,0,0,20-8c1.17-.52,2.15-1.08,3-1.54l2.19-1.17,1.35-.7Z" fill="#fafafa"/>
        <path id="Path_180189" data-name="Path 180189" d="M123.745,350.483a5.8,5.8,0,0,1-1.09-.59l-2.88-1.77a71.638,71.638,0,0,0-9.81-5.16,32.336,32.336,0,0,0-10.7-2.51c-2.84-.12-4.58.25-4.59.14a5.122,5.122,0,0,1,1.21-.27,19.338,19.338,0,0,1,3.4-.2,30.07,30.07,0,0,1,10.89,2.4,59.954,59.954,0,0,1,9.81,5.33c1.19.78,2.14,1.43,2.79,1.89a5.629,5.629,0,0,1,.97.74" fill="#fafafa"/>
        <path id="Path_180190" data-name="Path 180190" d="M280.2,376.453l-.36.2-1.09.57-1.77.89-2.46,1.12a90.234,90.234,0,0,1-16.39,5.34,114.772,114.772,0,0,1-25.41,2.75,162.838,162.838,0,0,1-31.14-3.2c-10.92-2.11-21.14-5-30.36-7.7s-17.46-5.45-24.35-7.82-12.41-4.4-16.21-5.84l-4.38-1.7-1.13-.46a2.271,2.271,0,0,1-.38-.17,2.14,2.14,0,0,1,.4.12l1.15.41,4.41,1.59c3.82,1.38,9.37,3.36,16.26,5.68s15.14,5,24.37,7.71,19.43,5.55,30.32,7.65a164.528,164.528,0,0,0,31,3.25,115.954,115.954,0,0,0,25.33-2.63,95.3,95.3,0,0,0,16.39-5.16l2.48-1.08,1.79-.85,1.1-.51a1.581,1.581,0,0,1,.43-.16" fill="#fafafa"/>
        <path id="Path_180191" data-name="Path 180191" d="M301.585,360.323a28.723,28.723,0,0,1-3.4,1c-2.11.6-5,1.48-8.13,2.69s-5.85,2.51-7.82,3.49a27.417,27.417,0,0,1-3.21,1.53,3.508,3.508,0,0,1,.79-.55c.52-.33,1.29-.78,2.25-1.31a66.564,66.564,0,0,1,7.8-3.65,67.64,67.64,0,0,1,8.22-2.56c1.07-.26,1.95-.44,2.55-.55a4.208,4.208,0,0,1,.95-.09" fill="#fafafa"/>
        <path id="Path_180192" data-name="Path 180192" d="M124.635,394.593a10.512,10.512,0,0,1-1.43-.92c-.45-.31-1-.69-1.66-1.09s-1.38-.91-2.24-1.37a63.245,63.245,0,0,0-6.02-3.09,60.913,60.913,0,0,0-16-4.66,63.747,63.747,0,0,0-6.8-.62c-1-.06-1.85,0-2.63,0h-2a9.282,9.282,0,0,1-1.7,0,12.8,12.8,0,0,1,1.69-.2c.54-.06,1.21-.11,2-.12a25.747,25.747,0,0,1,2.64,0,57.453,57.453,0,0,1,6.86.51,65.081,65.081,0,0,1,8.24,1.76,61.435,61.435,0,0,1,7.89,2.95,53.112,53.112,0,0,1,6.06,3.25c.85.49,1.57,1,2.21,1.45s1.19.83,1.62,1.17a11.153,11.153,0,0,1,1.27.98" fill="#fafafa"/>
        <path id="Path_180193" data-name="Path 180193" d="M278.1,421.393l-.38.13-1.12.31c-1,.25-2.44.7-4.34,1.12a139.2,139.2,0,0,1-16.26,2.79,166.266,166.266,0,0,1-24.44.92,231.461,231.461,0,0,1-29.79-3.06c-21-3.5-39.5-9-52.81-13-6.66-2-12-3.75-15.73-4.94l-4.26-1.39-1.11-.38-.37-.14a1.741,1.741,0,0,1,.39.09l1.12.33,4.29,1.29,15.77,4.79c13.34,3.94,31.84,9.34,52.79,12.84a237.974,237.974,0,0,0,29.73,3.09,172.749,172.749,0,0,0,24.38-.8,150.76,150.76,0,0,0,16.25-2.63c1.91-.38,3.36-.8,4.36-1l1.14-.26Z" fill="#fafafa"/>
        <path id="Path_180194" data-name="Path 180194" d="M309.145,394.9a6.9,6.9,0,0,1-1.21.29l-3.34.67c-2.8.59-6.66,1.53-10.83,2.85a110.812,110.812,0,0,0-10.48,3.94l-3.11,1.38a5.5,5.5,0,0,1-1.16.46,6.048,6.048,0,0,1,1.07-.65c.71-.39,1.75-.91,3.05-1.53a86.935,86.935,0,0,1,21.39-6.81c1.42-.25,2.57-.42,3.37-.51a5.569,5.569,0,0,1,1.25-.09" fill="#fafafa"/>
        <path id="Path_180195" data-name="Path 180195" d="M120,434.923a19.145,19.145,0,0,1-1.07-1.66,40.156,40.156,0,0,0-3.15-4.31,37.8,37.8,0,0,0-31.09-13.61,39.974,39.974,0,0,0-5.31.6,18.468,18.468,0,0,1-1.94.34,2.11,2.11,0,0,1,.48-.17c.33-.08.8-.24,1.42-.37a34.228,34.228,0,0,1,5.33-.77,36.89,36.89,0,0,1,31.39,13.75,34.992,34.992,0,0,1,3.05,4.44c.32.54.53,1,.69,1.29a1.551,1.551,0,0,1,.2.47" fill="#fafafa"/>
        <path id="Path_180196" data-name="Path 180196" d="M183.455,458.123c0,.14-11.46-1.86-25.55-4.47s-25.48-4.83-25.45-5,11.46,1.86,25.55,4.46,25.48,4.9,25.45,5.01" fill="#fafafa"/>
        <path id="Path_180197" data-name="Path 180197" d="M276.285,467.213a4.672,4.672,0,0,1-.81.07l-2.32.11c-2,.09-4.92.18-8.53.26-7.2.16-17.16.22-28.15,0s-20.94-.74-28.13-1.22c-3.6-.23-6.51-.45-8.51-.63l-2.31-.21a4.176,4.176,0,0,1-.81-.11,7.288,7.288,0,0,1,.81,0l2.32.11,8.52.47c7.19.38,17.13.81,28.12,1.05s20.94.24,28.14.17l8.53-.09h2.32a4.217,4.217,0,0,1,.81.02" fill="#fafafa"/>
        <path id="Path_180198" data-name="Path 180198" d="M316.025,432.193a8.181,8.181,0,0,1-1.58.06c-1,0-2.49,0-4.3.15s-4,.32-6.33.68a65.859,65.859,0,0,0-15,4.21c-2.21.93-4.17,1.85-5.77,2.71s-2.86,1.58-3.76,2.12a9.7,9.7,0,0,1-1.38.77,9.183,9.183,0,0,1,1.27-.94c.83-.59,2.09-1.37,3.68-2.27a59.626,59.626,0,0,1,5.75-2.82,63.987,63.987,0,0,1,7.42-2.61,65.952,65.952,0,0,1,7.68-1.63,57.287,57.287,0,0,1,6.38-.58c1.83-.06,3.31-.05,4.32,0a8.08,8.08,0,0,1,1.62.15" fill="#fafafa"/>
        <path id="Path_180199" data-name="Path 180199" d="M115.175,462.593s-.44-.82-1.33-2.24a22.525,22.525,0,0,0-4.67-5.26,27.554,27.554,0,0,0-9.15-5,31.124,31.124,0,0,0-12.66-1.3,39.926,39.926,0,0,0-12.27,3.55,54.27,54.27,0,0,0-9,5.37c-2.43,1.76-4.29,3.32-5.55,4.43-.64.54-1.11,1-1.45,1.27a4.269,4.269,0,0,1-.52.43,2.549,2.549,0,0,1,.45-.5c.32-.31.77-.79,1.39-1.35a62.159,62.159,0,0,1,5.46-4.58,52.425,52.425,0,0,1,9-5.5,39.53,39.53,0,0,1,12.41-3.59,31.357,31.357,0,0,1,12.86,1.36,27.473,27.473,0,0,1,9.24,5.13,21.242,21.242,0,0,1,4.6,5.43,14.932,14.932,0,0,1,.9,1.73,2.676,2.676,0,0,1,.29.62" fill="#fafafa"/>
        <path id="Path_180200" data-name="Path 180200" d="M229.925,499.323h-1.09l-3.13-.21c-2.72-.17-6.65-.51-11.5-1s-10.61-1.19-17-2.11-13.37-2.11-20.66-3.57-14.2-3.12-20.43-4.74-11.81-3.28-16.45-4.77c-2.33-.71-4.41-1.44-6.25-2s-3.41-1.17-4.69-1.65l-2.93-1.15-.76-.3-.25-.11.27.06.78.25,3,1c1.29.45,2.87,1,4.71,1.56s3.93,1.29,6.27,2c4.65,1.44,10.23,3,16.46,4.66s13.13,3.21,20.41,4.69,14.26,2.64,20.63,3.61,12.12,1.68,17,2.21,8.76.93,11.47,1.17l3.13.3.81.09Z" fill="#fafafa"/>
        <path id="Path_180201" data-name="Path 180201" d="M104.045,458.233l14.13,4.53,5.26-.9,8.9,2.45a6.58,6.58,0,0,1,4.81,6.87,38.792,38.792,0,0,1-1.21,6.89c-2.17,8.25-5.8,8.07-9.6,7s-5.56-4.19-5.86-9.07l-9-4.92Z" fill="#ffbe9d"/>
        <path id="Path_180202" data-name="Path 180202" d="M120.365,476.223a9.459,9.459,0,0,1-3.47-4.23,9.309,9.309,0,0,1-1-5.37,24.487,24.487,0,0,0,1.49,5.15,25.777,25.777,0,0,0,2.98,4.45" fill="#eb996e"/>
        <path id="Path_180203" data-name="Path 180203" d="M87.065,457.333s-11.63,1.44-14.88,7-7.15,21.27-7.15,21.27l11,12.9s44.73,1.86,46.13,0-.49-3.91-.49-3.91,5.5,2.47,7.83.84,3-5.73,2.29-7.73c-1.43-3.75-4.07-7.5-10.12-10.36s-17.39-10.47-17.39-10.47-8.37-8.37-10-9.54-7.22,0-7.22,0" fill="#ffbe9d"/>
        <path id="Path_180204" data-name="Path 180204" d="M121.695,494.593a1.846,1.846,0,0,1-.48-.12l-1.33-.45-4.87-1.75c-4.11-1.49-9.77-3.58-16-5.93-3.11-1.16-6.13-2.46-8.3-4.47a21.9,21.9,0,0,1-4.59-6.2,47.029,47.029,0,0,1-2.11-4.73c-.22-.58-.39-1-.49-1.32a1.586,1.586,0,0,1-.14-.48,2.625,2.625,0,0,1,.23.44c.13.3.35.77.58,1.28.51,1.11,1.22,2.73,2.25,4.64a22.234,22.234,0,0,0,4.59,6c2.11,1.93,5,3.19,8.16,4.34,6.24,2.35,11.88,4.5,16,6.08l4.81,1.9,1.3.54a1.74,1.74,0,0,1,.39.23" fill="#eb996e"/>
        <path id="Path_180205" data-name="Path 180205" d="M98.385,499.413a11,11,0,0,1-2.29-1c-1.38-.67-3.26-1.65-5.27-2.84s-3.78-2.36-5-3.25a10.86,10.86,0,0,1-1.94-1.55,12.744,12.744,0,0,1,2.14,1.24c1.29.81,3.08,1.93,5.08,3.11s3.85,2.22,5.18,3a12.739,12.739,0,0,1,2.1,1.29" fill="#eb996e"/>
        <path id="Path_180206" data-name="Path 180206" d="M73.985,489.783s-.25-.32,0-1a10.7,10.7,0,0,1,1.46-2.13,2.243,2.243,0,0,0,.38-1.56,7.23,7.23,0,0,0-.62-1.86,20.027,20.027,0,0,1-1.44-4.5,8.718,8.718,0,0,1,.44-4.72,5.436,5.436,0,0,1,2.62-2.87,4.357,4.357,0,0,1,2.57-.45,1.706,1.706,0,0,1,.91.3,6.5,6.5,0,0,0-.92-.1,4.509,4.509,0,0,0-2.39.58,5.166,5.166,0,0,0-2.34,2.72,8.268,8.268,0,0,0-.37,4.46,20.693,20.693,0,0,0,1.36,4.39,7.491,7.491,0,0,1,.61,2,2.52,2.52,0,0,1-.51,1.8,15.009,15.009,0,0,0-1.57,2,2.284,2.284,0,0,0-.19.94" fill="#eb996e"/>
        <path id="Path_180207" data-name="Path 180207" d="M100,469.473a12.363,12.363,0,0,0-7.18,7.19,3.343,3.343,0,0,1,.35-1.54,9.26,9.26,0,0,1,2.1-3.2,9.373,9.373,0,0,1,3.19-2.1,3.343,3.343,0,0,1,1.54-.35" fill="#eb996e"/>
        <path id="Path_180208" data-name="Path 180208" d="M131.585,485.463a2.551,2.551,0,0,1-.64.29,7.021,7.021,0,0,1-1.89.33,8.39,8.39,0,0,1-8.82-7.59,7.251,7.251,0,0,1,0-1.93,1.878,1.878,0,0,1,.19-.68c.1,0-.11,1,.13,2.56a8.45,8.45,0,0,0,8.45,7.27,23.745,23.745,0,0,0,2.58-.25" fill="#eb996e"/>
        <path id="Path_180209" data-name="Path 180209" d="M281.865,470.873l23.5-15a20.356,20.356,0,0,1,5.6,0,6.18,6.18,0,0,1,4,2.91l5.37.45,14.11,12.76,7.35,1.12,1.38,2.68-2.69,10.19s-6.72,6.86-11.64,4.16l-6.27.63-5.59-.63s.44,5.35-1.57,5.35-5.37-.67-6.27-2.24a54.231,54.231,0,0,1-2.46-6.26l-5.37,5.59s-5,5.41-7.84,2.91c-2.43-2.11-2.69-3.35-2.69-3.35s-4,.67-6.25-.68-5.83-.67-6.73-5.48-.3-12.33,4.06-15.11" fill="#ffbe9d"/>
        <path id="Path_180210" data-name="Path 180210" d="M308.005,490.593a3.826,3.826,0,0,1-.46-.92,19.456,19.456,0,0,1-.83-2.67,81.754,81.754,0,0,1-1.28-9.11,25.408,25.408,0,0,0-2.4-8.72,28.923,28.923,0,0,0-2.07-3.15,5.131,5.131,0,0,1,.76.69,12.579,12.579,0,0,1,1.63,2.29,23.288,23.288,0,0,1,2.6,8.83c.42,3.57.63,6.8,1.12,9.09s1.01,3.64.93,3.67" fill="#eb996e"/>
        <path id="Path_180211" data-name="Path 180211" d="M318.925,468.2c.08,0-.37,1.26-.93,3.3a45.428,45.428,0,0,0-1.44,8.1,46.248,46.248,0,0,0,.1,8.22c.22,2.1.47,3.39.38,3.41a3.378,3.378,0,0,1-.27-.89,23.016,23.016,0,0,1-.47-2.47,37.209,37.209,0,0,1,1.35-16.47,23.438,23.438,0,0,1,.86-2.37,3,3,0,0,1,.42-.83" fill="#eb996e"/>
        <path id="Path_180212" data-name="Path 180212" d="M320.015,479.7a9.6,9.6,0,0,0-2.31,1.47,9.481,9.481,0,0,0-1.42,2.34c-.07,0-.12-.34,0-.87a4.129,4.129,0,0,1,2.85-2.91c.53-.14.87-.1.88-.03" fill="#eb996e"/>
        <path id="Path_180213" data-name="Path 180213" d="M324.035,473.013a34.451,34.451,0,0,1-2.32,3.57,32.118,32.118,0,0,1-2.35,3.55,12.456,12.456,0,0,1,1.91-3.84,12.018,12.018,0,0,1,2.76-3.28" fill="#eb996e"/>
        <path id="Path_180214" data-name="Path 180214" d="M322.365,474.413a3.66,3.66,0,0,1-2.1-2.06,3.531,3.531,0,0,1-.34-2.93,17.5,17.5,0,0,0,.8,2.7,18.386,18.386,0,0,0,1.64,2.29" fill="#eb996e"/>
        <path id="Path_180215" data-name="Path 180215" d="M327.825,490.243a22.91,22.91,0,0,1,2.12-2.13,15.214,15.214,0,0,0,4-5.86,14.8,14.8,0,0,0,.32-7.06,28.374,28.374,0,0,1-.45-3,12.784,12.784,0,0,1,.81,2.91,13.9,13.9,0,0,1-.18,7.29,14.323,14.323,0,0,1-4.21,6,13.61,13.61,0,0,1-2.41,1.85" fill="#eb996e"/>
        <path id="Path_180216" data-name="Path 180216" d="M335.515,488.533a3.3,3.3,0,0,1-.91-1.09,5.68,5.68,0,0,1,.73-6.49c.59-.66,1.09-.9,1.13-.85s-.36.41-.84,1.08a6.159,6.159,0,0,0-.69,6.1c.35.77.65,1.19.58,1.25" fill="#eb996e"/>
        <path id="Path_180217" data-name="Path 180217" d="M298.485,480.783a33.556,33.556,0,0,0,2.33-5.86,34.3,34.3,0,0,0,.66-6.27,5.208,5.208,0,0,1,.29,1.86,15.566,15.566,0,0,1-.45,4.53,15.884,15.884,0,0,1-1.7,4.23,5.344,5.344,0,0,1-1.13,1.51" fill="#eb996e"/>
        <path id="Path_180218" data-name="Path 180218" d="M297.015,479.263a13.494,13.494,0,0,1-.8-3.68,13.728,13.728,0,0,1-.28-3.75,14.019,14.019,0,0,1,.8,3.68,14.22,14.22,0,0,1,.28,3.75" fill="#eb996e"/>
        <path id="Path_180219" data-name="Path 180219" d="M299.7,493.383a8.482,8.482,0,0,0,1.76-2.71,7.179,7.179,0,0,0,.39-3.43,6.285,6.285,0,0,0-1.9-3.7c-1.09-1.06-2.36-1.88-3.37-2.81a20.994,20.994,0,0,1-2.48-2.64,18.026,18.026,0,0,1-1.38-2,2.654,2.654,0,0,1-.39-.8c.07,0,.73,1,2,2.58a24.976,24.976,0,0,0,2.52,2.52c1,.89,2.26,1.68,3.41,2.8a6.551,6.551,0,0,1,2,4,7.259,7.259,0,0,1-.51,3.63,6.114,6.114,0,0,1-1.38,2,1.991,1.991,0,0,1-.67.56" fill="#eb996e"/>
        <path id="Path_180220" data-name="Path 180220" d="M295.565,486.523a8.7,8.7,0,0,1-1.09.71,6.212,6.212,0,0,0-2.77,5.15,10.439,10.439,0,0,1,0,1.3,2.257,2.257,0,0,1-.38-1.29,5.619,5.619,0,0,1,2.96-5.47c.74-.39,1.26-.46,1.28-.4" fill="#eb996e"/>
        <path id="Path_180221" data-name="Path 180221" d="M206.035,187.783c-8.67,16.7-9.65,36.28-9,55.09s2.84,37.79-.24,56.36c-1.21,7.3-3.23,14.69-2.07,22,.67,4.3,2.42,8.36,3.31,12.62s.77,9.07-1.9,12.51-7.55,4.77-11.86,4-8.11-3.44-11.15-6.6c-6.63-6.91-10.11-16.36-11.42-25.85s-.63-19.13.06-28.68q2.7-37.279,5.38-74.54c.78-10.74,1.61-21.73,6-31.59,4.53-10.29,12.74-18.74,22.41-24.48,11.57-6.88,26.54-9.87,38.47-3.63,4,2.09,7.81,6.08,6.86,10.47-.74,3.47-4.13,5.62-7.21,7.38l-30.53,17.37" fill="#263238"/>
        <path id="Path_180222" data-name="Path 180222" d="M190.645,321.973c-.33-.17.31-2.1,1.61-5.47s3.24-8.22,5.25-14.29a96.751,96.751,0,0,0,4.65-21.67c.76-8.24-.33-17.4-2.06-27s-3.73-19-4.32-27.77a67.823,67.823,0,0,1,2.1-23.26,38.007,38.007,0,0,1,7.21-14.06c.63-.7,1.19-1.3,1.69-1.82a15.71,15.71,0,0,1,1.38-1.17c.78-.6,1.25-.85,1.37-.72s-.08.62-.59,1.43l-1,1.45c-.35.59-.76,1.26-1.24,2a45.364,45.364,0,0,0-5.28,13.78,72.375,72.375,0,0,0-.89,22c.8,8.3,2.9,17.44,4.67,27.24s2.79,19.56,1.7,28.41a85.36,85.36,0,0,1-6,22.48,108.207,108.207,0,0,1-6.89,13.9c-1.81,3.09-3.05,4.69-3.36,4.54" fill="#263238"/>
        <path id="Path_180223" data-name="Path 180223" d="M159.925,197.673a4.67,4.67,0,0,1,.8-.3l2.32-.75c1-.31,2.25-.71,3.68-1.2s3.05-1,4.83-1.69c3.57-1.27,7.77-2.92,12.38-4.9s9.58-4.35,14.71-7,9.86-5.5,14.11-8.16,8-5.23,11-7.46c1.56-1.08,2.91-2.14,4.12-3s2.24-1.69,3.07-2.35l1.93-1.49a6.5,6.5,0,0,1,.7-.5,4.615,4.615,0,0,1-.63.58l-1.88,1.57c-.81.68-1.81,1.51-3,2.42s-2.54,2-4.08,3.11c-3.05,2.27-6.77,4.84-11,7.56s-9,5.5-14.13,8.22-10.14,5-14.76,7-8.81,3.52-12.42,4.79c-1.78.65-3.43,1.15-4.86,1.61s-2.69.84-3.71,1.13l-2.35.65a4.773,4.773,0,0,1-.83.16" fill="#455a64"/>
        <path id="Path_180224" data-name="Path 180224" d="M159.715,201.4a4.638,4.638,0,0,1,.85-.17l2.47-.37,1.78-.25,2.11-.38c1.51-.29,3.24-.55,5.12-1l3-.67c1-.24,2.08-.56,3.18-.85,2.21-.55,4.51-1.33,6.95-2.1a137.488,137.488,0,0,0,15.36-6.32,137.463,137.463,0,0,0,14.39-8.3c2.1-1.46,4.12-2.81,5.91-4.21.9-.7,1.79-1.34,2.61-2l2.34-1.94c1.51-1.2,2.78-2.41,3.93-3.42l1.59-1.44,1.29-1.25c.75-.73,1.35-1.31,1.8-1.73a5.958,5.958,0,0,1,.65-.58,5.958,5.958,0,0,1-.58.65l-1.73,1.8-1.31,1.25c-.47.46-1,.94-1.56,1.47-1.14,1-2.39,2.27-3.9,3.5l-2.32,2c-.81.68-1.7,1.33-2.6,2-1.78,1.43-3.8,2.79-5.9,4.27a132.752,132.752,0,0,1-14.43,8.37,133.889,133.889,0,0,1-15.43,6.32c-2.45.76-4.77,1.52-7,2.06-1.11.28-2.17.59-3.2.82l-3,.64c-1.89.44-3.63.68-5.14,1-.76.12-1.47.25-2.12.34l-1.79.21-2.48.27c-.54,0-.84.02-.84.01" fill="#455a64"/>
        <path id="Path_180225" data-name="Path 180225" d="M174.415,332.473a1.334,1.334,0,0,0-.07-.34c-.07-.23-.09-.58-.16-1-.13-.89-.34-2.2-.51-3.89a127.64,127.64,0,0,1-.76-14.39c0-6.09.35-13.34,1.1-21.35s1.82-16.79,2.86-26c2.16-18.43,4.11-35.11,5.53-47.22.72-6,1.32-10.89,1.73-14.3.21-1.66.38-3,.5-3.88a5.19,5.19,0,0,1,.14-1,1.516,1.516,0,0,1,.06-.34,1.367,1.367,0,0,1,0,.35c0,.25-.05.59-.09,1-.1.92-.23,2.23-.4,3.9-.37,3.41-.91,8.29-1.57,14.32-1.38,12.11-3.27,28.79-5.37,47.23-1.05,9.22-2.13,18-2.9,26s-1.22,15.21-1.22,21.29a140.973,140.973,0,0,0,.59,14.37c.14,1.69.32,3,.42,3.89a6.709,6.709,0,0,0,.11,1,1.315,1.315,0,0,1,.01.36" fill="#455a64"/>
        <path id="Path_180226" data-name="Path 180226" d="M187.495,276.933a4.745,4.745,0,0,1-.09-.84c0-.59-.09-1.4-.16-2.41-.12-2.09-.26-5.12-.4-8.87-.27-7.49-.47-17.85-.31-29.3s.64-21.8,1.12-29.28c.24-3.74.46-6.77.65-8.86.09-1,.16-1.8.22-2.4a4.4,4.4,0,0,1,.11-.84,4.311,4.311,0,0,1,0,.85l-.12,2.41c-.12,2.14-.28,5.16-.48,8.86-.39,7.49-.81,17.83-1,29.27s0,21.79.16,29.28c.1,3.71.18,6.73.24,8.87,0,1,0,1.82.05,2.42a6.728,6.728,0,0,1,.01.84" fill="#455a64"/>
        <path id="Path_180227" data-name="Path 180227" d="M324.407,203.731a5.428,5.428,0,0,0-7.677,0l0,0-2.094,2.094a5.427,5.427,0,0,0,0,7.674l0,0,15.3,15.3a5.429,5.429,0,0,0,7.678,0h0l31.5-30.726a5.433,5.433,0,0,0,0-7.678l-2.1-2.1a5.431,5.431,0,0,0-7.681,0L333.772,213.1Z" fill="#f9b131"/>
      </g>
    </g>
  </g>
</svg>
