<svg xmlns="http://www.w3.org/2000/svg" xmlns:xlink="http://www.w3.org/1999/xlink" width="293.068" height="270.27" viewBox="0 0 293.068 270.27">
  <defs>
    <linearGradient id="linear-gradient" x1="0.422" y1="0.514" x2="0.352" y2="0.835" gradientUnits="objectBoundingBox">
      <stop offset="0" stop-color="#40447e"/>
      <stop offset="0.996" stop-color="#3c3b6b"/>
    </linearGradient>
    <linearGradient id="linear-gradient-2" x1="0.479" y1="0.466" x2="0.369" y2="0.525" xlink:href="#linear-gradient"/>
    <linearGradient id="linear-gradient-3" x1="0" y1="0.5" x2="1" y2="0.5" xlink:href="#linear-gradient"/>
    <linearGradient id="linear-gradient-6" x1="0.835" y1="-0.203" x2="-0.138" y2="1.782" gradientUnits="objectBoundingBox">
      <stop offset="0" stop-color="#80ecf9"/>
      <stop offset="0.996" stop-color="#61bdd7"/>
    </linearGradient>
    <linearGradient id="linear-gradient-7" x1="0.414" y1="-2.198" x2="0.583" y2="3.531" xlink:href="#linear-gradient-6"/>
    <linearGradient id="linear-gradient-8" x1="0.5" y1="2.076" x2="0.5" y2="0.226" xlink:href="#linear-gradient-6"/>
    <linearGradient id="linear-gradient-10" x1="0.329" y1="0.554" x2="-0.255" y2="0.738" gradientUnits="objectBoundingBox">
      <stop offset="0" stop-color="#fcb148"/>
      <stop offset="0.052" stop-color="#fdb946"/>
      <stop offset="0.142" stop-color="#fec144"/>
      <stop offset="0.318" stop-color="#ffc444"/>
      <stop offset="0.485" stop-color="#fdb946"/>
      <stop offset="0.775" stop-color="#f99c4c"/>
      <stop offset="0.866" stop-color="#f8924f"/>
      <stop offset="1" stop-color="#f8924f"/>
    </linearGradient>
    <linearGradient id="linear-gradient-11" x1="0.727" y1="0.007" x2="0.207" y2="1.135" gradientUnits="objectBoundingBox">
      <stop offset="0" stop-color="#ffdb44"/>
      <stop offset="1" stop-color="#feef06"/>
    </linearGradient>
    <linearGradient id="linear-gradient-12" x1="0.636" y1="1.231" x2="0.531" y2="0.666" xlink:href="#linear-gradient-10"/>
    <linearGradient id="linear-gradient-13" x1="0.409" y1="0.31" x2="0.858" y2="1.247" xlink:href="#linear-gradient-10"/>
    <linearGradient id="linear-gradient-14" x1="0.253" y1="0.019" x2="0.711" y2="1.039" xlink:href="#linear-gradient-11"/>
    <linearGradient id="linear-gradient-15" x1="0.464" y1="0.369" x2="1.215" y2="1.306" xlink:href="#linear-gradient-10"/>
    <linearGradient id="linear-gradient-16" x1="0.278" y1="1.028" x2="0.771" y2="0.051" gradientUnits="objectBoundingBox">
      <stop offset="0.004" stop-color="#61d0d7"/>
      <stop offset="1" stop-color="#80f7f9"/>
    </linearGradient>
    <linearGradient id="linear-gradient-17" x1="0.405" y1="0.935" x2="0.732" y2="0.104" gradientUnits="objectBoundingBox">
      <stop offset="0" stop-color="#311944"/>
      <stop offset="1" stop-color="#893976"/>
    </linearGradient>
    <linearGradient id="linear-gradient-18" x1="-0.451" y1="0.03" x2="2.865" y2="1.813" gradientUnits="objectBoundingBox">
      <stop offset="0" stop-color="#ffc444"/>
      <stop offset="0.996" stop-color="#f36f56"/>
    </linearGradient>
    <linearGradient id="linear-gradient-19" x1="0.497" y1="-0.747" x2="0.486" y2="-7.555" gradientUnits="objectBoundingBox">
      <stop offset="0" stop-color="#aa80f9"/>
      <stop offset="0.996" stop-color="#6165d7"/>
    </linearGradient>
    <linearGradient id="linear-gradient-20" x1="-1761.629" y1="67.088" x2="-1761.567" y2="62.791" xlink:href="#linear-gradient-18"/>
    <linearGradient id="linear-gradient-21" x1="0.496" y1="-1.686" x2="0.485" y2="-8.492" xlink:href="#linear-gradient-19"/>
    <linearGradient id="linear-gradient-22" x1="-1762.473" y1="66.052" x2="-1762.411" y2="61.753" xlink:href="#linear-gradient-18"/>
    <linearGradient id="linear-gradient-23" x1="0.228" y1="0.162" x2="0.85" y2="0.831" xlink:href="#linear-gradient-17"/>
    <linearGradient id="linear-gradient-24" x1="-328.142" y1="3.284" x2="-327.112" y2="3.284" xlink:href="#linear-gradient-17"/>
    <linearGradient id="linear-gradient-25" x1="-253.765" y1="3.194" x2="-252.556" y2="3.194" xlink:href="#linear-gradient-17"/>
    <linearGradient id="linear-gradient-26" x1="0.486" y1="0.282" x2="0.972" y2="3.745" xlink:href="#linear-gradient-18"/>
    <linearGradient id="linear-gradient-27" x1="-123.463" y1="5.806" x2="-124.791" y2="4.345" xlink:href="#linear-gradient-18"/>
    <linearGradient id="linear-gradient-28" x1="1.427" y1="-2.638" x2="0.272" y2="1.127" xlink:href="#linear-gradient-18"/>
    <linearGradient id="linear-gradient-29" x1="-458.616" y1="413.892" x2="-458.616" y2="412.495" xlink:href="#linear-gradient-18"/>
    <linearGradient id="linear-gradient-30" x1="-563.855" y1="23.464" x2="-564.572" y2="21.877" gradientUnits="objectBoundingBox">
      <stop offset="0" stop-color="#444b8c"/>
      <stop offset="0.996" stop-color="#3e4177"/>
    </linearGradient>
    <linearGradient id="linear-gradient-31" x1="-1154.76" y1="774.39" x2="-1153.633" y2="772.014" xlink:href="#linear-gradient-18"/>
    <linearGradient id="linear-gradient-33" x1="0.727" y1="0.007" x2="0.207" y2="1.135" xlink:href="#linear-gradient-11"/>
    <linearGradient id="linear-gradient-34" x1="0.636" y1="1.231" x2="0.531" y2="0.666" xlink:href="#linear-gradient-10"/>
    <linearGradient id="linear-gradient-36" x1="0.253" y1="0.019" x2="0.711" y2="1.039" xlink:href="#linear-gradient-11"/>
    <linearGradient id="linear-gradient-37" x1="0.464" y1="0.369" x2="1.215" y2="1.306" xlink:href="#linear-gradient-10"/>
  </defs>
  <g id="t6-i12" transform="translate(-548.509 -1650.085)">
    <path id="Path_142733" data-name="Path 142733" d="M824.544,1760.815c-5.344-34.982-9.634-59.16-28.935-72.408-32.554-22.346-68.91,13.93-115.023-10.411-22.7-11.985-23.557-25.881-42.786-27.724-34.02-3.264-61.881,37.336-64.295,40.818a88.525,88.525,0,0,0-13.623,71.544c3.862,15.972,6.473,32.505,5.756,48.917-1.247,28.567-.53,55.231,27.195,72.268,24.753,15.211,55.906,28.626,85.624,30.977,20.2,1.6,42.848-.989,62.315-6.245C839.976,1881.752,831.892,1808.915,824.544,1760.815Z" transform="translate(-8.904 0)" fill="#f4f7fa"/>
    <g id="Group_89576" data-name="Group 89576" transform="translate(564.543 1761.825)">
      <path id="Path_142734" data-name="Path 142734" d="M827.205,1803.749l-263.785-2.318v6.859a3.635,3.635,0,0,0,2.71,3.727l74.589,13.508a10.119,10.119,0,0,0,2.677.127l180.942-15.4a3.456,3.456,0,0,0,2.867-3.638Z" transform="translate(-560.785 -1667.159)" fill="url(#linear-gradient)"/>
      <g id="Group_89575" data-name="Group 89575">
        <path id="Path_142735" data-name="Path 142735" d="M732.492,1844.3l-165.331,12.549a5.082,5.082,0,0,1-5.363-5.33V1724.565a5.562,5.562,0,0,1,5.363-5.738H732.492c2.438,0,4.408,2.323,4.408,5.187v114.761C736.9,1841.64,734.93,1844.112,732.492,1844.3Z" transform="translate(-561.799 -1718.827)" fill="url(#linear-gradient-2)"/>
        <path id="Path_142736" data-name="Path 142736" d="M734.115,1844.3l-165.331,12.549a5.083,5.083,0,0,1-5.364-5.33V1724.565a5.563,5.563,0,0,1,5.364-5.738H734.115c2.437,0,4.408,2.323,4.408,5.187v114.761C738.523,1841.64,736.551,1844.112,734.115,1844.3Z" transform="translate(-560.785 -1718.827)" fill="url(#linear-gradient-3)"/>
        <path id="Path_142737" data-name="Path 142737" d="M726.2,1833.369l-153.988,10.9a4.167,4.167,0,0,1-4.363-4.374V1728.749a4.557,4.557,0,0,1,4.363-4.7l153.988-.684c2.011-.01,3.638,1.894,3.638,4.249v101.234C729.834,1831.2,728.207,1833.228,726.2,1833.369Z" transform="translate(-558.017 -1715.99)" fill="#d8dee8"/>
        <path id="Path_142738" data-name="Path 142738" d="M622.634,1721.784a1.917,1.917,0,1,1-1.9-2.134A2.037,2.037,0,0,1,622.634,1721.784Z" transform="translate(-526.13 -1718.312)" fill="#fff"/>
        <path id="Path_142739" data-name="Path 142739" d="M694.28,1809.478c-12.745-7.365-22.767,1.969-32.438-7.24-5.863-5.583-2.984-9.746-10.2-18.09-7.991-9.241-13.194-6.135-21.224-14.452-10.156-10.515-5.076-18.7-13.823-26.247-10.611-9.16-22.056-.683-32.157-9.467-4.356-3.789-6.747-9.3-8-15.155h-9.883a3.262,3.262,0,0,0-3.139,3.368V1853.79a2.979,2.979,0,0,0,3.139,3.129l168.5-12.846a2.691,2.691,0,0,0,2.03-1.335c-12.334-.483-19.912-4.924-24.756-9.516C702.857,1824.242,704.5,1815.383,694.28,1809.478Z" transform="translate(-560.785 -1718.827)" fill="#fff" opacity="0.48" style="mix-blend-mode: soft-light;isolation: isolate"/>
      </g>
      <path id="Path_142740" data-name="Path 142740" d="M740.7,1795.679,563.42,1808.89l77.3,14a10.14,10.14,0,0,0,2.677.127l183.809-15.646-83.681-11.6A13.294,13.294,0,0,0,740.7,1795.679Z" transform="translate(-560.785 -1670.78)" fill="url(#linear-gradient-3)"/>
      <path id="Path_142741" data-name="Path 142741" d="M579.335,1808.291l147.594-11.161,45.679,6.281-146.323,11.931Z" transform="translate(-550.831 -1669.849)" opacity="0.3" fill="url(#linear-gradient-3)" style="mix-blend-mode: multiply;isolation: isolate"/>
    </g>
    <g id="Group_89589" data-name="Group 89589" transform="translate(593.047 1711.716)">
      <g id="Group_89586" data-name="Group 89586">
        <g id="Group_89578" data-name="Group 89578">
          <path id="Path_142742" data-name="Path 142742" d="M732.44,1692.748l-144.326-4.743a8.463,8.463,0,0,0-8.779,8.529V1837.2a8.363,8.363,0,0,0,8.779,8.441l144.326-6.162c4.174-.179,7.545-3.966,7.545-8.462V1701.136C739.986,1696.641,736.615,1692.885,732.44,1692.748Z" transform="translate(-579.335 -1688)" fill="url(#linear-gradient-6)"/>
          <path id="Path_142743" data-name="Path 142743" d="M587.033,1841.76a5.7,5.7,0,0,1-5.969-5.748V1695.534a5.762,5.762,0,0,1,5.969-5.8l144.326,4.548a5.563,5.563,0,0,1,5.143,5.71V1830.03a5.63,5.63,0,0,1-5.143,5.761Z" transform="translate(-578.254 -1686.921)" fill="#fff" opacity="0.74" style="mix-blend-mode: soft-light;isolation: isolate"/>
          <path id="Path_142744" data-name="Path 142744" d="M732.44,1692.748l-144.326-4.743a8.463,8.463,0,0,0-8.779,8.529v6.323l160.651,4.119v-5.84C739.986,1696.641,736.615,1692.885,732.44,1692.748Z" transform="translate(-579.335 -1688)" fill="url(#linear-gradient-7)"/>
          <path id="Path_142745" data-name="Path 142745" d="M591.132,1694.139a2.763,2.763,0,0,1-2.846,2.786,2.963,2.963,0,0,1-2.854-2.952,2.761,2.761,0,0,1,2.854-2.784A2.961,2.961,0,0,1,591.132,1694.139Z" transform="translate(-575.522 -1686.007)" fill="#fff"/>
          <path id="Path_142746" data-name="Path 142746" d="M597.224,1694.311a2.741,2.741,0,0,1-2.82,2.771,2.939,2.939,0,0,1-2.827-2.936,2.74,2.74,0,0,1,2.827-2.771A2.94,2.94,0,0,1,597.224,1694.311Z" transform="translate(-571.678 -1685.89)" fill="#fff"/>
          <path id="Path_142747" data-name="Path 142747" d="M603.258,1694.482a2.721,2.721,0,0,1-2.794,2.758,2.919,2.919,0,0,1-2.8-2.921,2.722,2.722,0,0,1,2.8-2.76A2.922,2.922,0,0,1,603.258,1694.482Z" transform="translate(-567.87 -1685.775)" fill="#fff"/>
          <g id="Group_89577" data-name="Group 89577" opacity="0.5" style="mix-blend-mode: soft-light;isolation: isolate">
            <path id="Path_142748" data-name="Path 142748" d="M676.34,1746.825C659.483,1722.3,630.306,1730.1,611.847,1703a59.332,59.332,0,0,1-7.136-14.448l-16.6-.546a8.463,8.463,0,0,0-8.779,8.529V1837.2a8.363,8.363,0,0,0,8.779,8.441l139.04-5.936c-3.184-4.594-30.927-21.609-38.094-47.734C682.507,1768.08,686.51,1761.623,676.34,1746.825Z" transform="translate(-579.335 -1688)" fill="#fff"/>
          </g>
        </g>
        <g id="Group_89585" data-name="Group 89585" transform="translate(10.764 33.573)">
          <path id="Path_142749" data-name="Path 142749" d="M728,1724.647l-142.044-.17v-4.642L728,1720.41Z" transform="translate(-585.957 -1701.661)" fill="#fff"/>
          <path id="Path_142750" data-name="Path 142750" d="M728,1721.762l-142.044-1.208v-11.9L728,1710.9Z" transform="translate(-585.957 -1708.654)" fill="#fff"/>
          <g id="Group_89580" data-name="Group 89580" transform="translate(3.141 30.197)">
            <g id="Group_89579" data-name="Group 89579">
              <path id="Path_142751" data-name="Path 142751" d="M606.729,1745.12l-18.839.11v-18l18.839.023Zm-16.642-2.355,13.817-.067v-13.007l-13.817,0Z" transform="translate(-587.889 -1727.231)" fill="#fff"/>
            </g>
            <path id="Path_142752" data-name="Path 142752" d="M713.411,1732.044l-109.1.063v-4.857l109.1.115Z" transform="translate(-577.618 -1727.219)" fill="#fff"/>
            <path id="Path_142753" data-name="Path 142753" d="M713.411,1736.537l-109.1.351V1732.3l109.1-.182Z" transform="translate(-577.618 -1724.174)" fill="#fff"/>
          </g>
          <g id="Group_89582" data-name="Group 89582" transform="translate(3.141 55.818)">
            <g id="Group_89581" data-name="Group 89581" transform="translate(0 0.93)">
              <path id="Path_142754" data-name="Path 142754" d="M606.729,1761.431l-18.839.309v-18l18.839-.176Zm-16.642-2.181,13.817-.215v-13.006l-13.817.141Z" transform="translate(-587.889 -1743.565)" fill="#fff"/>
            </g>
            <path id="Path_142755" data-name="Path 142755" d="M713.411,1747.672l-109.1,1.033v-4.857l109.1-.855Z" transform="translate(-577.618 -1742.993)" fill="#fff"/>
            <path id="Path_142756" data-name="Path 142756" d="M713.411,1752.21l-109.1,1.32v-4.587l109.1-1.152Z" transform="translate(-577.618 -1739.992)" fill="#fff"/>
          </g>
          <g id="Group_89584" data-name="Group 89584" transform="translate(3.141 81.293)">
            <g id="Group_89583" data-name="Group 89583" transform="translate(0 1.983)">
              <path id="Path_142757" data-name="Path 142757" d="M606.729,1777.751l-18.839.509v-18l18.839-.374Zm-16.642-1.732,13.817-.364v-13.279l-13.817.291Z" transform="translate(-587.889 -1759.885)" fill="#fff"/>
            </g>
            <path id="Path_142758" data-name="Path 142758" d="M713.411,1763.344l-109.1,2v-4.857l109.1-1.825Z" transform="translate(-577.618 -1758.665)" fill="#fff"/>
            <path id="Path_142759" data-name="Path 142759" d="M713.411,1767.882l-109.1,2.291v-4.588l109.1-2.122Z" transform="translate(-577.618 -1755.664)" fill="#fff"/>
          </g>
        </g>
      </g>
      <g id="Group_89587" data-name="Group 89587" transform="translate(12.759 62.583)">
        <path id="Path_142760" data-name="Path 142760" d="M594.877,1744.742a2.07,2.07,0,0,1-1.435-.557l-5.66-5.354a1.872,1.872,0,0,1,0-2.742,2.116,2.116,0,0,1,2.885-.007l3.929,3.726,9.069-12.481a2.067,2.067,0,0,1,2.8-.479,1.873,1.873,0,0,1,.506,2.677L596.545,1743.9a2.069,2.069,0,0,1-1.486.832C595,1744.739,594.939,1744.742,594.877,1744.742Z" transform="translate(-587.185 -1726.501)" fill="url(#linear-gradient-8)"/>
      </g>
      <g id="Group_89588" data-name="Group 89588" transform="translate(13.252 89.391)">
        <path id="Path_142761" data-name="Path 142761" d="M595.182,1761.234a2.071,2.071,0,0,1-1.435-.558l-5.66-5.354a1.871,1.871,0,0,1,0-2.744,2.117,2.117,0,0,1,2.885-.006l3.929,3.726,9.067-12.479a2.069,2.069,0,0,1,2.8-.479,1.874,1.874,0,0,1,.5,2.677l-10.424,14.377a2.059,2.059,0,0,1-1.484.831A1.706,1.706,0,0,1,595.182,1761.234Z" transform="translate(-587.488 -1742.993)" fill="url(#linear-gradient-8)"/>
      </g>
    </g>
    <g id="Group_89593" data-name="Group 89593" transform="translate(684.068 1650.085)">
      <g id="Group_89591" data-name="Group 89591" transform="translate(27.692 21.198)">
        <path id="Path_142762" data-name="Path 142762" d="M718.147,1706.752c0,17.8-13.916,31.8-31.7,31.25-18.511-.567-34.078-16.554-34.078-35.685s15.567-33.017,34.078-31.091C704.232,1673.08,718.147,1688.956,718.147,1706.752Z" transform="translate(-652.367 -1669.514)" fill="url(#linear-gradient-10)"/>
        <path id="Path_142763" data-name="Path 142763" d="M721.1,1705.808c0,17.8-13.916,31.8-31.7,31.25-18.51-.567-34.077-16.554-34.077-35.685s15.567-33.017,34.077-31.091C707.187,1672.136,721.1,1688.012,721.1,1705.808Z" transform="translate(-650.518 -1670.104)" fill="url(#linear-gradient-11)"/>
        <path id="Path_142764" data-name="Path 142764" d="M719.09,1705.123c0,17.014-13.316,30.374-30.307,29.824-17.65-.572-32.469-15.829-32.469-34.056s14.82-31.486,32.469-29.678C705.774,1672.954,719.09,1688.11,719.09,1705.123Z" transform="translate(-649.899 -1669.514)" fill="url(#linear-gradient-12)"/>
        <path id="Path_142765" data-name="Path 142765" d="M717.648,1704.635c0,16.451-12.884,29.356-29.306,28.8-17.037-.571-31.325-15.307-31.325-32.892s14.288-30.394,31.325-28.669C704.764,1673.541,717.648,1688.183,717.648,1704.635Z" transform="translate(-649.458 -1669.092)" fill="url(#linear-gradient-13)"/>
        <g id="Group_89590" data-name="Group 89590" transform="translate(23.683 8.376)">
          <path id="Path_142766" data-name="Path 142766" d="M681.97,1675.265h0a1.791,1.791,0,0,1,1.582,1.757v3.028a44.6,44.6,0,0,1,5.249.91q1.938.456,3.851,1.084a1.771,1.771,0,0,1,1.206,1.819l-.372,3.8a1.422,1.422,0,0,1-2.032,1.182,22.31,22.31,0,0,0-2.583-.962,23.546,23.546,0,0,0-4.872-.91l-.447-.036v8.674q6.837,1.914,10.07,5.149a10.887,10.887,0,0,1,3.227,8.038,10.584,10.584,0,0,1-3.568,8.357q-3.592,3.165-10.093,3.553v3.344a1.519,1.519,0,0,1-1.582,1.544h-.029a1.681,1.681,0,0,1-1.588-1.677v-3.3l-.7-.031a46.287,46.287,0,0,1-5.847-.624,38.157,38.157,0,0,1-4.041-.928,1.74,1.74,0,0,1-1.266-1.8l.437-4.881a1.543,1.543,0,0,1,2.159-1.274,31.812,31.812,0,0,0,3.553,1.167,31.063,31.063,0,0,0,5.681.948l.028-9.649q-6.564-1.624-9.8-4.812a11.01,11.01,0,0,1-3.248-8.186,9.567,9.567,0,0,1,3.521-7.952c2.331-1.853,5.647-2.773,9.925-2.771v-3.1A1.429,1.429,0,0,1,681.97,1675.265Zm-1.587,11.579a5.343,5.343,0,0,0-3.162,1.115,3.249,3.249,0,0,0-1.135,2.6,3.5,3.5,0,0,0,1.048,2.588,7.434,7.434,0,0,0,3.248,1.656Zm2.8,17.474v8.849a4.9,4.9,0,0,0,3.384-1.053,3.783,3.783,0,0,0,1.179-2.978,4.066,4.066,0,0,0-1.1-2.913A8.032,8.032,0,0,0,683.187,1704.317Z" transform="translate(-666.937 -1675.257)" fill="url(#linear-gradient-14)"/>
        </g>
        <path id="Path_142767" data-name="Path 142767" d="M683.039,1708.6c.99-9.779,9.977-13.919,8.805-22.915-.723-5.545-4.925-10.216-9.613-13.865-14.22,1.492-25.215,13.266-25.215,28.664,0,17.586,14.288,32.321,31.325,32.892a29.37,29.37,0,0,0,4.841-.236C686.417,1726.408,682.188,1717,683.039,1708.6Z" transform="translate(-649.458 -1669.031)" opacity="0.3" fill="url(#linear-gradient-15)" style="mix-blend-mode: multiply;isolation: isolate"/>
      </g>
      <g id="Group_89592" data-name="Group 89592">
        <path id="Path_142768" data-name="Path 142768" d="M727.279,1693.494v.138a59.441,59.441,0,0,0-4.7-5.3c-.024-.06-.065-.119-.089-.177a31.338,31.338,0,0,0-2.991-5.52,30.414,30.414,0,0,0-4.776-5.466c-.226-.223-.488-.419-.728-.629-.124-.1-.249-.208-.374-.311l-.182-.156c-.065-.054-.132-.1-.2-.149q-.388-.3-.779-.6l-.193-.149-.206-.138c-.135-.094-.27-.187-.406-.28-.535-.387-1.11-.722-1.673-1.076-.288-.172-.587-.33-.879-.494-.145-.082-.291-.164-.439-.244l-.453-.226a28.368,28.368,0,0,0-7.736-2.583l-1.014-.166c-.338-.047-.683-.076-1.019-.117l-.51-.057-.512-.028-.514-.032c-.169-.008-.338-.026-.51-.021-.34,0-.68-.007-1.022-.008-.083,0-.174,0-.252,0l-.228.013-.455.024-.45.023c-.041,0-.068,0-.12,0l-.463.034-.621.044-.463.034-.078,0-.028,0s-.161,0,.109,0l-1,.148c-.166.026-.332.041-.5.078l-.491.1-.491.1-.245.049c-.081.016-.161.041-.242.06-.32.081-.642.161-.961.244-.162.036-.318.091-.475.138l-.468.146-.47.142-.458.169c-.306.114-.611.215-.909.337s-.592.25-.884.377a25.369,25.369,0,0,0-6.222,3.914l-.336.281-.32.3c-.211.2-.431.389-.632.592l-.024.024c-.392.406-.79.788-1.143,1.208-.093.1-.185.207-.276.311l-.138.153-.128.164c-.172.211-.343.426-.512.636-.042.052-.088.1-.128.156l-.117.163c-.08.11-.158.219-.236.325-.153.219-.32.421-.457.647a24.143,24.143,0,0,0-2.645,5.129,23.414,23.414,0,0,0-1.172,4.574q-.034.259-.068.507c-.02.166-.052.327-.058.488-.026.323-.052.631-.078.925s-.018.585-.029.854c-.007.136-.015.268-.016.395s.008.257.01.379c0,.244.008.475.011.691a.924.924,0,0,0,.011.133l.016.119c.006.076.018.065.024.135s.011.086.018.086h11.43l-6.946,7.7-16.148,17.661-23.1-25.363h12.142a1.754,1.754,0,0,0,.055-.371c.047-.353.1-.7.153-1.115.032-.208.06-.4.093-.627.018-.109.032-.213.05-.328s.031-.234.054-.333c.084-.419.174-.863.268-1.335.05-.234.1-.475.151-.721s.12-.5.187-.753c.132-.512.26-1.052.42-1.6s.348-1.122.53-1.716c.089-.3.2-.592.314-.9s.221-.606.336-.918a43.874,43.874,0,0,1,3.95-7.879,43.236,43.236,0,0,1,6.487-7.915c.315-.322.661-.615,1-.922l.509-.457.258-.229.263-.219c.356-.289.715-.583,1.073-.878l.271-.218.281-.208c.189-.141.377-.28.566-.419.741-.567,1.539-1.079,2.331-1.608.4-.257.813-.5,1.224-.744.2-.122.41-.244.616-.369l.636-.343a41.12,41.12,0,0,1,10.988-4.1l1.46-.289c.486-.089.98-.153,1.471-.228l.736-.1.741-.073.74-.07c.247-.023.491-.05.74-.06.493-.023.988-.081,1.482-.1.122,0,.247-.052.371-.052h.37l.738.042.738.024c.247,0,.494.033.738.044l1.468.089c.333,0,.115.008.2.01l.039.007.078.008.153.021.309.037.614.076.309.039.153.018.19.026.777.115.779.119.385.06c.127.021.239.049.361.073.475.1.948.2,1.422.3.236.047.468.114.7.176l.7.185.694.185.686.218c.455.148.912.286,1.359.445s.889.333,1.331.5a38.2,38.2,0,0,1,9.475,5.427c.174.135.345.27.517.4s.333.28.5.423c.33.281.661.552.979.84.627.589,1.253,1.152,1.824,1.764.146.149.288.3.434.449l.213.223.206.231c.271.309.541.616.806.92l.2.229.192.236c.122.159.249.315.372.471.247.314.506.613.728.938a38.383,38.383,0,0,1,3.207,5.12q.646,1.239,1.152,2.458a36.16,36.16,0,0,1,2.144,6.931c.047.265.1.523.143.779s.1.5.128.749c.067.5.133.97.193,1.426s.08.9.119,1.318c.015.208.036.411.049.613s.047.393.057.584C727.217,1692.795,727.279,1693.159,727.279,1693.494Z" transform="translate(-635.331 -1657.063)" fill="url(#linear-gradient-16)"/>
        <path id="Path_142769" data-name="Path 142769" d="M711.167,1689.821v.138a59.441,59.441,0,0,0-4.7-5.3c-.024-.06-.065-.119-.089-.177a31.338,31.338,0,0,0-2.991-5.52,30.414,30.414,0,0,0-4.776-5.466c-.226-.223-.488-.419-.728-.629-.124-.1-.249-.208-.374-.311l-.182-.156c-.065-.054-.132-.1-.2-.149q-.388-.3-.779-.6l-.193-.149-.206-.138c-.135-.094-.27-.187-.406-.28-.535-.387-1.11-.722-1.673-1.076-.288-.172-.587-.33-.879-.494-.145-.082-.291-.164-.439-.244l-.453-.226a28.368,28.368,0,0,0-7.736-2.583l-1.014-.166c-.338-.047-.683-.076-1.019-.117l-.51-.057-.512-.028-.514-.032c-.169-.008-.338-.026-.51-.021-.34,0-.68-.007-1.022-.008-.083,0-.174,0-.252,0l-.228.013-.455.024-.45.023c-.041,0-.068,0-.12,0l-.463.034-.621.044-.463.034-.078,0-.028,0s-.161,0,.109,0l-1,.148c-.166.026-.332.041-.5.078l-.491.1-.491.1-.245.049c-.081.016-.161.041-.242.06-.32.081-.642.161-.961.244-.162.036-.318.091-.475.138l-.468.146-.47.142-.458.169c-.306.114-.611.215-.909.337s-.592.25-.884.377a25.369,25.369,0,0,0-6.222,3.914l-.336.281-.32.3c-.211.2-.431.389-.632.592l-.024.024a30.066,30.066,0,0,1,46.021.468q.646,1.239,1.152,2.458a36.16,36.16,0,0,1,2.144,6.931c.047.265.1.523.143.779s.1.5.128.749c.067.5.133.97.193,1.426s.08.9.119,1.318c.015.208.036.411.049.613s.047.393.057.584C711.106,1689.122,711.167,1689.486,711.167,1689.821Z" transform="translate(-619.22 -1653.39)" opacity="0.4" fill="url(#linear-gradient-17)" style="mix-blend-mode: multiply;isolation: isolate"/>
      </g>
    </g>
    <g id="Group_89595" data-name="Group 89595" transform="translate(748.453 1723.085)">
      <path id="Path_142770" data-name="Path 142770" d="M670.368,1725.739s.857-3.22.249-4.043-4.328-4.115-3.972-3.042a6.945,6.945,0,0,0,.9,1.79s-2,.93-.715,2.325,1.718,1.718,1.789,2.969S669.509,1727.419,670.368,1725.739Z" transform="translate(-666.273 -1696.92)" fill="url(#linear-gradient-18)"/>
      <path id="Path_142771" data-name="Path 142771" d="M693.076,1798.846a28.642,28.642,0,0,1,.4,3.775c-.058.991-11.056,1.5-11.167.755s1.818-1.923,3.175-2.34,5.333-1.528,5.333-1.528Z" transform="translate(-653.24 -1631.038)" fill="url(#linear-gradient-19)"/>
      <path id="Path_142772" data-name="Path 142772" d="M686.755,1797.372l.351,3.463a2.5,2.5,0,0,0,2.4.193l.564-3.77Z" transform="translate(-649.59 -1632.34)" fill="url(#linear-gradient-20)"/>
      <path id="Path_142773" data-name="Path 142773" d="M703.861,1801.327a28.707,28.707,0,0,1,.4,3.775c-.056.992-11.056,1.5-11.167.757s1.819-1.923,3.177-2.34,5.331-1.53,5.331-1.53Z" transform="translate(-644.403 -1629.005)" fill="url(#linear-gradient-21)"/>
      <path id="Path_142774" data-name="Path 142774" d="M697.541,1799.852l.351,3.462a2.5,2.5,0,0,0,2.4.193l.562-3.768Z" transform="translate(-640.752 -1630.306)" fill="url(#linear-gradient-22)"/>
      <path id="Path_142775" data-name="Path 142775" d="M690.156,1748.3q-1.9,3.867-3.813,7.732c-1.022,14.708-1.53,30.7-1.2,47.806.244,12.727.922,24.78,1.9,36.1l5.173-.236A51.62,51.62,0,0,0,697.916,1818c.282-9.65-2.643-10.933-2.458-20.171.24-11.975,5.262-15.17,7.938-29.576a77.1,77.1,0,0,0,.891-21.432Z" transform="translate(-650.995 -1673.664)" fill="url(#linear-gradient-23)"/>
      <path id="Path_142776" data-name="Path 142776" d="M703.491,1746.823q-3.815.4-7.63.8c-4.579,7.969-5.858,16.263-5.054,19.933,1.135,5.191,4.145,6.854,3.979,12.066-.164,5.156-3.2,6.493-5.131,12.572-1.333,4.208-.981,8.076-.222,15.643,1.528,15.243,5.209,19.9,2.127,24.9a11.254,11.254,0,0,1-5.547,4.4c.074.933.149,1.872.229,2.8l5.173-.236A51.629,51.629,0,0,0,697.119,1818c.282-9.65-2.643-10.933-2.458-20.171.24-11.975,5.262-15.17,7.938-29.576A77.1,77.1,0,0,0,703.491,1746.823Z" transform="translate(-650.198 -1673.664)" opacity="0.3" fill="url(#linear-gradient-24)" style="mix-blend-mode: multiply;isolation: isolate"/>
      <path id="Path_142777" data-name="Path 142777" d="M691.611,1751.824c2.387,13.014,4.5,26.941,6.14,41.711,1.985,17.833,3.046,34.646,3.462,50.257l5.675.162c7.456-14.748,7.911-24.747,6.835-31.257a94.3,94.3,0,0,1-1.8-14.781,103.788,103.788,0,0,1,.557-13.711c.9-10.279,1.981-12.524,2.138-20.386.147-7.379.177-11.113-1.929-13.292C707.143,1744.787,692.706,1751.317,691.611,1751.824Z" transform="translate(-645.611 -1672.553)" fill="url(#linear-gradient-25)"/>
      <path id="Path_142778" data-name="Path 142778" d="M671.412,1726.075l-3.775-.262c-2.967,11.993-.839,23.628,5.86,27.907,10.467,6.684,29.918-5.91,34.133-19.624,1.85-6.02,1.428-14.708-2.269-16.4-1.026-.468-2.62-.54-6.07,1.4-10.307,5.786-10.578,16.72-15.816,17.646C681.145,1737.157,677.385,1735.67,671.412,1726.075Z" transform="translate(-666.328 -1697.753)" fill="url(#linear-gradient-26)"/>
      <path id="Path_142779" data-name="Path 142779" d="M687.465,1783.327c-1.812-3.007.464-5.907.983-11.608.588-6.457-1.9-7.532-4.361-18.235-1.636-7.12-3.208-13.953-1.332-21.951.9-3.833,2.422-10.336,7.8-13.478,2.776-1.619,6.568-1.457,14.038-1.066,9.237.482,13.856.724,17.3,2.538.5.266,10.984,5.966,11.706,15.255.733,9.457-9.564,10.727-10.938,23.337-.617,5.662.482,14.368,1.2,20.015.684,5.423,1.155,6.812.086,8.453-2.58,3.957-10.476,2.829-26.266.573C691.484,1786.276,688.819,1785.572,687.465,1783.327Z" transform="translate(-653.566 -1698.324)" fill="#feba47"/>
      <path id="Path_142780" data-name="Path 142780" d="M709.3,1750.994c.668,2.458,3.069,4.293,4.741,10.272.36,1.292,2.931,10.483-.4,12.745-1.927,1.308-3.655-1.168-8.331-1.492-8.1-.56-11.959,6.248-17.249,4.388a7.226,7.226,0,0,1-3.34-2.59,5.347,5.347,0,0,0,.555,3.913c1.354,2.245,4.019,2.949,10.214,3.833,15.79,2.256,23.686,3.384,26.266-.573,1.07-1.641.6-3.029-.086-8.453-.713-5.647-1.812-14.353-1.2-20.015,1.374-12.61,11.671-13.88,10.938-23.337a14.653,14.653,0,0,0-2.371-6.737C715.972,1728.233,707.2,1743.27,709.3,1750.994Z" transform="translate(-651.369 -1693.227)" opacity="0.3" fill="url(#linear-gradient-27)" style="mix-blend-mode: multiply;isolation: isolate"/>
      <path id="Path_142781" data-name="Path 142781" d="M711.75,1748.8l-2.615,1.67a6.114,6.114,0,0,0-3.253-2.008c-1.91-.42-4.1.182-4.155.791-.042.489,1.3.982,1.5,1.059,1.668.615,2.905.1,3.579.773a5.157,5.157,0,0,0,1.219,1.088,3.615,3.615,0,0,0,.467.24c1.114.433,3.022-1.5,3.186-1.674Z" transform="translate(-637.322 -1672.434)" fill="url(#linear-gradient-28)"/>
      <path id="Path_142782" data-name="Path 142782" d="M703.882,1739.544c-1.89-4.528-3.2-11.462-.215-21.758,19.678,7.752,29.714,26.135,25.8,40.707-3.231,12.011-14.983,17.862-17.6,19.094q-.917-2.083-1.83-4.165c3.038-3.384,6.461-8.386,5.977-14.094C715.335,1751.414,707.71,1748.712,703.882,1739.544Z" transform="translate(-637.177 -1697.456)" fill="#feba46"/>
      <path id="Path_142783" data-name="Path 142783" d="M699.159,1711.75a21.031,21.031,0,0,0,1.224,6.02c.964,2.329,6.044,3.793,7.074,4.314s-1.929,2.041-4.9,2.34-11.455-.376-12.985-1.5,1.228-1.041,3.349-1.819,3.346-4.925,2.973-6.808S699.159,1711.75,699.159,1711.75Z" transform="translate(-647.644 -1702.402)" fill="url(#linear-gradient-29)"/>
      <path id="Path_142784" data-name="Path 142784" d="M693,1714.712c-1.541-1.514-1.756-1.692-1.925-2.214-.673-2.1.957-4.98,3.095-5.688.111-.038,1.545-.5,2.092.126.464.527-.22,1.257.106,2.276.3.953,1.13,1.024,2.662,2.274,1.261,1.028,2.045,1.669,2.225,2.569.373,1.856-1.872,4.545-3.861,4.47C696.674,1718.5,696.479,1718.134,693,1714.712Z" transform="translate(-646.18 -1706.612)" fill="url(#linear-gradient-30)"/>
      <g id="Group_89594" data-name="Group 89594" transform="translate(45.406 6.759)">
        <path id="Path_142785" data-name="Path 142785" d="M696.893,1715.768a4.381,4.381,0,0,1-4.135,1.243c-2.234-.549-1.665-5.68-.029-6.5a2.9,2.9,0,0,1,2.283.109c.44.211.562.433,1.29.766.669.306.881.264,1.061.48.226.269.324.851-.384,2.254a1.25,1.25,0,0,1,1.394-.2.785.785,0,0,1,.249.347C698.834,1714.908,698.173,1715.554,696.893,1715.768Z" transform="translate(-691.285 -1710.327)" fill="url(#linear-gradient-31)"/>
      </g>
    </g>
    <g id="Group_89597" data-name="Group 89597" transform="translate(678.838 1725.715)">
      <path id="Path_142786" data-name="Path 142786" d="M678.75,1729.573c0,12.617-9.867,22.542-22.477,22.156-13.123-.4-24.16-11.738-24.16-25.3s11.037-23.409,24.16-22.043C668.883,1705.7,678.75,1716.954,678.75,1729.573Z" transform="translate(-632.113 -1703.171)" fill="url(#linear-gradient-10)"/>
      <path id="Path_142787" data-name="Path 142787" d="M680.846,1728.9c0,12.619-9.867,22.544-22.476,22.157-13.124-.4-24.161-11.738-24.161-25.3s11.037-23.409,24.161-22.042C670.979,1705.03,680.846,1716.285,680.846,1728.9Z" transform="translate(-630.802 -1703.59)" fill="url(#linear-gradient-33)"/>
      <path id="Path_142788" data-name="Path 142788" d="M679.418,1728.417c0,12.063-9.441,21.534-21.486,21.144-12.515-.4-23.022-11.221-23.022-24.143s10.507-22.325,23.022-21.042C669.977,1705.61,679.418,1716.356,679.418,1728.417Z" transform="translate(-630.364 -1703.172)" fill="url(#linear-gradient-34)"/>
      <path id="Path_142789" data-name="Path 142789" d="M678.4,1728.071c0,11.664-9.135,20.813-20.777,20.421-12.081-.4-22.209-10.852-22.209-23.32s10.128-21.547,22.209-20.325C669.261,1706.026,678.4,1716.406,678.4,1728.071Z" transform="translate(-630.051 -1702.873)" fill="url(#linear-gradient-13)"/>
      <g id="Group_89596" data-name="Group 89596" transform="translate(16.79 5.938)">
        <path id="Path_142790" data-name="Path 142790" d="M653.1,1707.248h0a1.271,1.271,0,0,1,1.122,1.247v2.147a31.444,31.444,0,0,1,3.722.645q1.373.322,2.729.769a1.255,1.255,0,0,1,.855,1.289l-.263,2.692a1.01,1.01,0,0,1-1.442.839,15.454,15.454,0,0,0-1.83-.683,16.567,16.567,0,0,0-3.454-.645l-.317-.026v6.151a16.143,16.143,0,0,1,7.139,3.651,7.715,7.715,0,0,1,2.287,5.7,7.5,7.5,0,0,1-2.529,5.925,11.53,11.53,0,0,1-7.155,2.52v2.37a1.077,1.077,0,0,1-1.122,1.1h-.02a1.194,1.194,0,0,1-1.126-1.19V1739.4l-.5-.022a32.573,32.573,0,0,1-4.145-.442,26.416,26.416,0,0,1-2.864-.658,1.233,1.233,0,0,1-.9-1.276l.311-3.462a1.093,1.093,0,0,1,1.53-.9,22.5,22.5,0,0,0,2.52.826,22.046,22.046,0,0,0,4.028.673l.02-6.84a14.829,14.829,0,0,1-6.951-3.412,7.811,7.811,0,0,1-2.3-5.8,6.789,6.789,0,0,1,2.5-5.639q2.48-1.97,7.037-1.965v-2.194A1.014,1.014,0,0,1,653.1,1707.248Zm-1.125,8.21a3.791,3.791,0,0,0-2.242.79,2.3,2.3,0,0,0-.8,1.846,2.477,2.477,0,0,0,.745,1.834,5.271,5.271,0,0,0,2.3,1.175Zm1.988,12.388v6.273a3.468,3.468,0,0,0,2.4-.744,2.692,2.692,0,0,0,.834-2.113,2.889,2.889,0,0,0-.775-2.064A5.7,5.7,0,0,0,653.964,1727.846Z" transform="translate(-642.442 -1707.243)" fill="url(#linear-gradient-36)"/>
      </g>
      <path id="Path_142791" data-name="Path 142791" d="M653.858,1730.883c.7-6.933,7.074-9.868,6.244-16.245-.512-3.932-3.492-7.245-6.816-9.831a19.975,19.975,0,0,0-17.876,20.322c0,12.468,10.128,22.915,22.208,23.321a20.977,20.977,0,0,0,3.433-.169C656.254,1743.508,653.255,1736.841,653.858,1730.883Z" transform="translate(-630.051 -1702.829)" opacity="0.3" fill="url(#linear-gradient-37)" style="mix-blend-mode: multiply;isolation: isolate"/>
    </g>
  </g>
</svg>
